<svg id="SVGCanvas" width="480px" height="270px" xmlns="http://www.w3.org/2000/svg" xmlns:xlink="http://www.w3.org/1999/xlink">
<rect id="background" x="0" y="0" height="100%" width="100%" fill="#bdbddf" onmousedown="bgmousedown(evt)"></rect>
<g id="foreground" transform="translate(97.77202072538861,0),scale(0.9326424870466321),translate(-116,-173)">
  <g id="edges"><g id="169"><path style="stroke:#bdbddf; stroke-width:8px; fill:none;" opacity="0.7" d="M 176,332 H 285 a 12,12 0 0,0 12,-12 V 263 a 12,12 0 0,1 12,-12L 391,251"></path><g><path style="stroke:#ff0; stroke-width:8px; fill:none; " opacity="0" d="M 176,332 H 285 a 12,12 0 0,0 12,-12 V 263 a 12,12 0 0,1 12,-12L 391,251"></path></g><path style="stroke:black; fill:none;" d="M 176,332 H 285 a 12,12 0 0,0 12,-12 V 263 a 12,12 0 0,1 12,-12L 391,251"></path><g><g><path style="stroke:#0ff; stroke-width:8px; fill:none; " opacity="0" d="M 176,332 L 297,332" onmousedown="segmousedown(&quot;169&quot;,&quot;0&quot;,evt);" onmouseover="segmouseover(&quot;169&quot;,&quot;0&quot;,evt);" onmouseout="segmouseout(&quot;169&quot;,&quot;0&quot;,evt);" onclick="segclick(&quot;169&quot;,&quot;0&quot;,evt);"></path><path style="stroke:#0ff; stroke-width:8px; fill:none; " opacity="0" d="M 297,332 L 297,251" onmousedown="segmousedown(&quot;169&quot;,&quot;1&quot;,evt);" onmouseover="segmouseover(&quot;169&quot;,&quot;1&quot;,evt);" onmouseout="segmouseout(&quot;169&quot;,&quot;1&quot;,evt);" onclick="segclick(&quot;169&quot;,&quot;1&quot;,evt);"></path><path style="stroke:#0ff; stroke-width:8px; fill:none; " opacity="0" d="M 297,251 L 391,251" onmousedown="segmousedown(&quot;169&quot;,&quot;2&quot;,evt);" onmouseover="segmouseover(&quot;169&quot;,&quot;2&quot;,evt);" onmouseout="segmouseout(&quot;169&quot;,&quot;2&quot;,evt);" onclick="segclick(&quot;169&quot;,&quot;2&quot;,evt);"></path></g></g></g><g id="170"><path style="stroke:#bdbddf; stroke-width:8px; fill:none;" opacity="0.7" d="M 391,251 V 210 a 12,12 0 0,0 -12,-12 H 276 a 12,12 0 0,0 -12,12L 264,230"></path><g><path style="stroke:#ff0; stroke-width:8px; fill:none; " opacity="0" d="M 391,251 V 210 a 12,12 0 0,0 -12,-12 H 276 a 12,12 0 0,0 -12,12L 264,230"></path></g><path style="stroke:black; fill:none;" d="M 391,251 V 210 a 12,12 0 0,0 -12,-12 H 276 a 12,12 0 0,0 -12,12L 264,230"></path><g><g><path style="stroke:#0ff; stroke-width:8px; fill:none; " opacity="0" d="M 391,251 L 391,198" onmousedown="segmousedown(&quot;170&quot;,&quot;0&quot;,evt);" onmouseover="segmouseover(&quot;170&quot;,&quot;0&quot;,evt);" onmouseout="segmouseout(&quot;170&quot;,&quot;0&quot;,evt);" onclick="segclick(&quot;170&quot;,&quot;0&quot;,evt);"></path><path style="stroke:#0ff; stroke-width:8px; fill:none; " opacity="0" d="M 391,198 L 264,198" onmousedown="segmousedown(&quot;170&quot;,&quot;1&quot;,evt);" onmouseover="segmouseover(&quot;170&quot;,&quot;1&quot;,evt);" onmouseout="segmouseout(&quot;170&quot;,&quot;1&quot;,evt);" onclick="segclick(&quot;170&quot;,&quot;1&quot;,evt);"></path><path style="stroke:#0ff; stroke-width:8px; fill:none; " opacity="0" d="M 264,198 L 264,230" onmousedown="segmousedown(&quot;170&quot;,&quot;2&quot;,evt);" onmouseover="segmouseover(&quot;170&quot;,&quot;2&quot;,evt);" onmouseout="segmouseout(&quot;170&quot;,&quot;2&quot;,evt);" onclick="segclick(&quot;170&quot;,&quot;2&quot;,evt);"></path></g></g></g><g id="171"><path style="stroke:#bdbddf; stroke-width:8px; fill:none;" opacity="0.7" d="M 254,230 V 340 a 12,12 0 0,0 12,12 H 285 a 12,12 0 0,1 12,12L 297,424"></path><g><path style="stroke:#ff0; stroke-width:8px; fill:none; " opacity="0" d="M 254,230 V 340 a 12,12 0 0,0 12,12 H 285 a 12,12 0 0,1 12,12L 297,424"></path></g><path style="stroke:black; fill:none;" d="M 254,230 V 340 a 12,12 0 0,0 12,12 H 285 a 12,12 0 0,1 12,12L 297,424"></path><g><g><path style="stroke:#0ff; stroke-width:8px; fill:none; " opacity="0" d="M 254,230 L 254,352" onmousedown="segmousedown(&quot;171&quot;,&quot;0&quot;,evt);" onmouseover="segmouseover(&quot;171&quot;,&quot;0&quot;,evt);" onmouseout="segmouseout(&quot;171&quot;,&quot;0&quot;,evt);" onclick="segclick(&quot;171&quot;,&quot;0&quot;,evt);"></path><path style="stroke:#0ff; stroke-width:8px; fill:none; " opacity="0" d="M 254,352 L 297,352" onmousedown="segmousedown(&quot;171&quot;,&quot;1&quot;,evt);" onmouseover="segmouseover(&quot;171&quot;,&quot;1&quot;,evt);" onmouseout="segmouseout(&quot;171&quot;,&quot;1&quot;,evt);" onclick="segclick(&quot;171&quot;,&quot;1&quot;,evt);"></path><path style="stroke:#0ff; stroke-width:8px; fill:none; " opacity="0" d="M 297,352 L 297,424" onmousedown="segmousedown(&quot;171&quot;,&quot;2&quot;,evt);" onmouseover="segmouseover(&quot;171&quot;,&quot;2&quot;,evt);" onmouseout="segmouseout(&quot;171&quot;,&quot;2&quot;,evt);" onclick="segclick(&quot;171&quot;,&quot;2&quot;,evt);"></path></g></g></g><g id="172"><path style="stroke:#bdbddf; stroke-width:8px; fill:none;" opacity="0.7" d="M 297,424 H 332 a 12,12 0 0,0 12,-12 V 344 a 12,12 0 0,1 12,-12 H 379 a 12,12 0 0,0 12,-12L 391,253"></path><g><path style="stroke:#ff0; stroke-width:8px; fill:none; " opacity="0" d="M 297,424 H 332 a 12,12 0 0,0 12,-12 V 344 a 12,12 0 0,1 12,-12 H 379 a 12,12 0 0,0 12,-12L 391,253"></path></g><path style="stroke:black; fill:none;" d="M 297,424 H 332 a 12,12 0 0,0 12,-12 V 344 a 12,12 0 0,1 12,-12 H 379 a 12,12 0 0,0 12,-12L 391,253"></path><g><g><path style="stroke:#0ff; stroke-width:8px; fill:none; " opacity="0" d="M 297,424 L 344,424" onmousedown="segmousedown(&quot;172&quot;,&quot;0&quot;,evt);" onmouseover="segmouseover(&quot;172&quot;,&quot;0&quot;,evt);" onmouseout="segmouseout(&quot;172&quot;,&quot;0&quot;,evt);" onclick="segclick(&quot;172&quot;,&quot;0&quot;,evt);"></path><path style="stroke:#0ff; stroke-width:8px; fill:none; " opacity="0" d="M 344,424 L 344,332" onmousedown="segmousedown(&quot;172&quot;,&quot;1&quot;,evt);" onmouseover="segmouseover(&quot;172&quot;,&quot;1&quot;,evt);" onmouseout="segmouseout(&quot;172&quot;,&quot;1&quot;,evt);" onclick="segclick(&quot;172&quot;,&quot;1&quot;,evt);"></path><path style="stroke:#0ff; stroke-width:8px; fill:none; " opacity="0" d="M 344,332 L 391,332" onmousedown="segmousedown(&quot;172&quot;,&quot;2&quot;,evt);" onmouseover="segmouseover(&quot;172&quot;,&quot;2&quot;,evt);" onmouseout="segmouseout(&quot;172&quot;,&quot;2&quot;,evt);" onclick="segclick(&quot;172&quot;,&quot;2&quot;,evt);"></path><path style="stroke:#0ff; stroke-width:8px; fill:none; " opacity="0" d="M 391,332 L 391,253" onmousedown="segmousedown(&quot;172&quot;,&quot;3&quot;,evt);" onmouseover="segmouseover(&quot;172&quot;,&quot;3&quot;,evt);" onmouseout="segmouseout(&quot;172&quot;,&quot;3&quot;,evt);" onclick="segclick(&quot;172&quot;,&quot;3&quot;,evt);"></path></g></g></g><g id="173"><path style="stroke:#bdbddf; stroke-width:8px; fill:none;" opacity="0.7" d="M 276,230 V 279 a 12,12 0 0,1 -12,12 H 188 a 12,12 0 0,0 -12,12L 176,332"></path><g><path style="stroke:#ff0; stroke-width:8px; fill:none; " opacity="0" d="M 276,230 V 279 a 12,12 0 0,1 -12,12 H 188 a 12,12 0 0,0 -12,12L 176,332"></path></g><path style="stroke:black; fill:none;" d="M 276,230 V 279 a 12,12 0 0,1 -12,12 H 188 a 12,12 0 0,0 -12,12L 176,332"></path><g><g><path style="stroke:#0ff; stroke-width:8px; fill:none; " opacity="0" d="M 276,230 L 276,291" onmousedown="segmousedown(&quot;173&quot;,&quot;0&quot;,evt);" onmouseover="segmouseover(&quot;173&quot;,&quot;0&quot;,evt);" onmouseout="segmouseout(&quot;173&quot;,&quot;0&quot;,evt);" onclick="segclick(&quot;173&quot;,&quot;0&quot;,evt);"></path><path style="stroke:#0ff; stroke-width:8px; fill:none; " opacity="0" d="M 276,291 L 176,291" onmousedown="segmousedown(&quot;173&quot;,&quot;1&quot;,evt);" onmouseover="segmouseover(&quot;173&quot;,&quot;1&quot;,evt);" onmouseout="segmouseout(&quot;173&quot;,&quot;1&quot;,evt);" onclick="segclick(&quot;173&quot;,&quot;1&quot;,evt);"></path><path style="stroke:#0ff; stroke-width:8px; fill:none; " opacity="0" d="M 176,291 L 176,332" onmousedown="segmousedown(&quot;173&quot;,&quot;2&quot;,evt);" onmouseover="segmouseover(&quot;173&quot;,&quot;2&quot;,evt);" onmouseout="segmouseout(&quot;173&quot;,&quot;2&quot;,evt);" onclick="segclick(&quot;173&quot;,&quot;2&quot;,evt);"></path></g></g></g><g id="174"><path style="stroke:#bdbddf; stroke-width:8px; fill:none;" opacity="0.7" d="M 176,332 H 153 a 12,12 0 0,0 -12,12 V 412 a 12,12 0 0,0 12,12L 297,424"></path><g><path style="stroke:#ff0; stroke-width:8px; fill:none; " opacity="0" d="M 176,332 H 153 a 12,12 0 0,0 -12,12 V 412 a 12,12 0 0,0 12,12L 297,424"></path></g><path style="stroke:black; fill:none;" d="M 176,332 H 153 a 12,12 0 0,0 -12,12 V 412 a 12,12 0 0,0 12,12L 297,424"></path><g><g><path style="stroke:#0ff; stroke-width:8px; fill:none; " opacity="0" d="M 176,332 L 141,332" onmousedown="segmousedown(&quot;174&quot;,&quot;0&quot;,evt);" onmouseover="segmouseover(&quot;174&quot;,&quot;0&quot;,evt);" onmouseout="segmouseout(&quot;174&quot;,&quot;0&quot;,evt);" onclick="segclick(&quot;174&quot;,&quot;0&quot;,evt);"></path><path style="stroke:#0ff; stroke-width:8px; fill:none; " opacity="0" d="M 141,332 L 141,424" onmousedown="segmousedown(&quot;174&quot;,&quot;1&quot;,evt);" onmouseover="segmouseover(&quot;174&quot;,&quot;1&quot;,evt);" onmouseout="segmouseout(&quot;174&quot;,&quot;1&quot;,evt);" onclick="segclick(&quot;174&quot;,&quot;1&quot;,evt);"></path><path style="stroke:#0ff; stroke-width:8px; fill:none; " opacity="0" d="M 141,424 L 297,424" onmousedown="segmousedown(&quot;174&quot;,&quot;2&quot;,evt);" onmouseover="segmouseover(&quot;174&quot;,&quot;2&quot;,evt);" onmouseout="segmouseout(&quot;174&quot;,&quot;2&quot;,evt);" onclick="segclick(&quot;174&quot;,&quot;2&quot;,evt);"></path></g></g></g></g>
  <g id="nodes"><g id="165" onmousedown="nodemousedown(165,evt);" onmouseover="nodemouseover(165,evt);" onmouseout="nodemouseout(165,evt);" transform="translate(264 230)"><rect x="-31" y="-21" width="62" height="42" fill="#0ff" style="stroke:none; opacity:0.75;" display="none"></rect><rect x="-25" y="-15" width="50" height="30" fill="#f0f0d2" style="stroke:black; opacity:1;"></rect></g><g id="166" onmousedown="nodemousedown(166,evt);" onmouseover="nodemouseover(166,evt);" onmouseout="nodemouseout(166,evt);" transform="translate(297 424)"><rect x="-21" y="-29.5" width="42" height="59" fill="#0ff" style="stroke:none; opacity:0.75;" display="none"></rect><rect x="-15" y="-23.5" width="30" height="47" fill="#f0f0d2" style="stroke:black; opacity:1;"></rect></g><g id="167" onmousedown="nodemousedown(167,evt);" onmouseover="nodemouseover(167,evt);" onmouseout="nodemouseout(167,evt);" transform="translate(391 251)"><rect x="-21" y="-21" width="42" height="42" fill="#0ff" style="stroke:none; opacity:0.75;" display="none"></rect><rect x="-15" y="-15" width="30" height="30" fill="#f0f0d2" style="stroke:black; opacity:1;"></rect></g><g id="168" onmousedown="nodemousedown(168,evt);" onmouseover="nodemouseover(168,evt);" onmouseout="nodemouseout(168,evt);" transform="translate(176 332)"><rect x="-21" y="-21" width="42" height="42" fill="#0ff" style="stroke:none; opacity:0.75;" display="none"></rect><rect x="-15" y="-15" width="30" height="30" fill="#f0f0d2" style="stroke:black; opacity:1;"></rect></g></g>
  <g id="BPs"><g onmousedown="bpmousedown(177,evt);" onmouseover="bpmouseover(177,evt);" onmouseout="bpmouseout(177,evt);" transform="translate(297 332)" opacity="0"><ellipse cx="0" cy="0" rx="16" ry="16" fill="#0ff" style="stroke:none; opacity:0.75;" display="none"></ellipse><ellipse cx="0" cy="0" rx="10" ry="10" fill="#777" style="stroke:black;"></ellipse></g><g onmousedown="bpmousedown(178,evt);" onmouseover="bpmouseover(178,evt);" onmouseout="bpmouseout(178,evt);" transform="translate(297 251)" opacity="0"><ellipse cx="0" cy="0" rx="16" ry="16" fill="#0ff" style="stroke:none; opacity:0.75;" display="none"></ellipse><ellipse cx="0" cy="0" rx="10" ry="10" fill="#777" style="stroke:black;"></ellipse></g><g onmousedown="bpmousedown(181,evt);" onmouseover="bpmouseover(181,evt);" onmouseout="bpmouseout(181,evt);" transform="translate(391 198)" opacity="0"><ellipse cx="0" cy="0" rx="16" ry="16" fill="#0ff" style="stroke:none; opacity:0.75;" display="none"></ellipse><ellipse cx="0" cy="0" rx="10" ry="10" fill="#777" style="stroke:black;"></ellipse></g><g onmousedown="bpmousedown(182,evt);" onmouseover="bpmouseover(182,evt);" onmouseout="bpmouseout(182,evt);" transform="translate(264 198)" opacity="0"><ellipse cx="0" cy="0" rx="16" ry="16" fill="#0ff" style="stroke:none; opacity:0.75;" display="none"></ellipse><ellipse cx="0" cy="0" rx="10" ry="10" fill="#777" style="stroke:black;"></ellipse></g><g onmousedown="bpmousedown(185,evt);" onmouseover="bpmouseover(185,evt);" onmouseout="bpmouseout(185,evt);" transform="translate(254 352)" opacity="0"><ellipse cx="0" cy="0" rx="16" ry="16" fill="#0ff" style="stroke:none; opacity:0.75;" display="none"></ellipse><ellipse cx="0" cy="0" rx="10" ry="10" fill="#777" style="stroke:black;"></ellipse></g><g onmousedown="bpmousedown(186,evt);" onmouseover="bpmouseover(186,evt);" onmouseout="bpmouseout(186,evt);" transform="translate(297 352)" opacity="0"><ellipse cx="0" cy="0" rx="16" ry="16" fill="#0ff" style="stroke:none; opacity:0.75;" display="none"></ellipse><ellipse cx="0" cy="0" rx="10" ry="10" fill="#777" style="stroke:black;"></ellipse></g><g onmousedown="bpmousedown(189,evt);" onmouseover="bpmouseover(189,evt);" onmouseout="bpmouseout(189,evt);" transform="translate(344 424)" opacity="0"><ellipse cx="0" cy="0" rx="16" ry="16" fill="#0ff" style="stroke:none; opacity:0.75;" display="none"></ellipse><ellipse cx="0" cy="0" rx="10" ry="10" fill="#777" style="stroke:black;"></ellipse></g><g onmousedown="bpmousedown(190,evt);" onmouseover="bpmouseover(190,evt);" onmouseout="bpmouseout(190,evt);" transform="translate(344 332)" opacity="0"><ellipse cx="0" cy="0" rx="16" ry="16" fill="#0ff" style="stroke:none; opacity:0.75;" display="none"></ellipse><ellipse cx="0" cy="0" rx="10" ry="10" fill="#777" style="stroke:black;"></ellipse></g><g onmousedown="bpmousedown(191,evt);" onmouseover="bpmouseover(191,evt);" onmouseout="bpmouseout(191,evt);" transform="translate(391 332)" opacity="0"><ellipse cx="0" cy="0" rx="16" ry="16" fill="#0ff" style="stroke:none; opacity:0.75;" display="none"></ellipse><ellipse cx="0" cy="0" rx="10" ry="10" fill="#777" style="stroke:black;"></ellipse></g><g onmousedown="bpmousedown(194,evt);" onmouseover="bpmouseover(194,evt);" onmouseout="bpmouseout(194,evt);" transform="translate(276 291)" opacity="0"><ellipse cx="0" cy="0" rx="16" ry="16" fill="#0ff" style="stroke:none; opacity:0.75;" display="none"></ellipse><ellipse cx="0" cy="0" rx="10" ry="10" fill="#777" style="stroke:black;"></ellipse></g><g onmousedown="bpmousedown(195,evt);" onmouseover="bpmouseover(195,evt);" onmouseout="bpmouseout(195,evt);" transform="translate(176 291)" opacity="0"><ellipse cx="0" cy="0" rx="16" ry="16" fill="#0ff" style="stroke:none; opacity:0.75;" display="none"></ellipse><ellipse cx="0" cy="0" rx="10" ry="10" fill="#777" style="stroke:black;"></ellipse></g><g onmousedown="bpmousedown(198,evt);" onmouseover="bpmouseover(198,evt);" onmouseout="bpmouseout(198,evt);" transform="translate(141 332)" opacity="0"><ellipse cx="0" cy="0" rx="16" ry="16" fill="#0ff" style="stroke:none; opacity:0.75;" display="none"></ellipse><ellipse cx="0" cy="0" rx="10" ry="10" fill="#777" style="stroke:black;"></ellipse></g><g onmousedown="bpmousedown(199,evt);" onmouseover="bpmouseover(199,evt);" onmouseout="bpmouseout(199,evt);" transform="translate(141 424)" opacity="0"><ellipse cx="0" cy="0" rx="16" ry="16" fill="#0ff" style="stroke:none; opacity:0.75;" display="none"></ellipse><ellipse cx="0" cy="0" rx="10" ry="10" fill="#777" style="stroke:black;"></ellipse></g></g>
  <g id="ports"></g>
</g>
</svg>