<svg id="SVGCanvas" width="480px" height="270px" xmlns="http://www.w3.org/2000/svg" xmlns:xlink="http://www.w3.org/1999/xlink">
<rect id="background" x="0" y="0" height="100%" width="100%" fill="#bdbddf" onmousedown="bgmousedown(evt)"></rect>
<g id="foreground" transform="translate(0,24.28679817905919),scale(0.7283763277693475),translate(-138,-244)">
  <g id="edges"><g id="184"><path style="stroke:#bdbddf; stroke-width:8px; fill:none;" opacity="0.7" d="M 296,396 H 495 a 10,10 0 0,1 10,10 V 406 a 10,10 0 0,0 10,10L 722,416"></path><g><path style="stroke:#ff0; stroke-width:8px; fill:none; " opacity="0" d="M 296,396 H 495 a 10,10 0 0,1 10,10 V 406 a 10,10 0 0,0 10,10L 722,416"></path></g><path style="stroke:black; fill:none;" d="M 296,396 H 495 a 10,10 0 0,1 10,10 V 406 a 10,10 0 0,0 10,10L 722,416"></path><g><g><path style="stroke:#0ff; stroke-width:8px; fill:none; " opacity="0" d="M 296,396 L 505,396" onmousedown="segmousedown(&quot;184&quot;,&quot;0&quot;,evt);" onmouseover="segmouseover(&quot;184&quot;,&quot;0&quot;,evt);" onmouseout="segmouseout(&quot;184&quot;,&quot;0&quot;,evt);" onclick="segclick(&quot;184&quot;,&quot;0&quot;,evt);"></path><path style="stroke:#0ff; stroke-width:8px; fill:none; " opacity="0" d="M 505,396 L 505,416" onmousedown="segmousedown(&quot;184&quot;,&quot;1&quot;,evt);" onmouseover="segmouseover(&quot;184&quot;,&quot;1&quot;,evt);" onmouseout="segmouseout(&quot;184&quot;,&quot;1&quot;,evt);" onclick="segclick(&quot;184&quot;,&quot;1&quot;,evt);"></path><path style="stroke:#0ff; stroke-width:8px; fill:none; " opacity="0" d="M 505,416 L 722,416" onmousedown="segmousedown(&quot;184&quot;,&quot;2&quot;,evt);" onmouseover="segmouseover(&quot;184&quot;,&quot;2&quot;,evt);" onmouseout="segmouseout(&quot;184&quot;,&quot;2&quot;,evt);" onclick="segclick(&quot;184&quot;,&quot;2&quot;,evt);"></path></g></g></g><g id="185"><path style="stroke:#bdbddf; stroke-width:8px; fill:none;" opacity="0.7" d="M 722,416 V 393 a 12,12 0 0,1 12,-12 H 755 a 12,12 0 0,0 12,-12L 767,345"></path><g><path style="stroke:#ff0; stroke-width:8px; fill:none; " opacity="0" d="M 722,416 V 393 a 12,12 0 0,1 12,-12 H 755 a 12,12 0 0,0 12,-12L 767,345"></path></g><path style="stroke:black; fill:none;" d="M 722,416 V 393 a 12,12 0 0,1 12,-12 H 755 a 12,12 0 0,0 12,-12L 767,345"></path><g><g><path style="stroke:#0ff; stroke-width:8px; fill:none; " opacity="0" d="M 722,416 L 722,381" onmousedown="segmousedown(&quot;185&quot;,&quot;0&quot;,evt);" onmouseover="segmouseover(&quot;185&quot;,&quot;0&quot;,evt);" onmouseout="segmouseout(&quot;185&quot;,&quot;0&quot;,evt);" onclick="segclick(&quot;185&quot;,&quot;0&quot;,evt);"></path><path style="stroke:#0ff; stroke-width:8px; fill:none; " opacity="0" d="M 722,381 L 767,381" onmousedown="segmousedown(&quot;185&quot;,&quot;1&quot;,evt);" onmouseover="segmouseover(&quot;185&quot;,&quot;1&quot;,evt);" onmouseout="segmouseout(&quot;185&quot;,&quot;1&quot;,evt);" onclick="segclick(&quot;185&quot;,&quot;1&quot;,evt);"></path><path style="stroke:#0ff; stroke-width:8px; fill:none; " opacity="0" d="M 767,381 L 767,345" onmousedown="segmousedown(&quot;185&quot;,&quot;2&quot;,evt);" onmouseover="segmouseover(&quot;185&quot;,&quot;2&quot;,evt);" onmouseout="segmouseout(&quot;185&quot;,&quot;2&quot;,evt);" onclick="segclick(&quot;185&quot;,&quot;2&quot;,evt);"></path></g></g></g><g id="186"><path style="stroke:#bdbddf; stroke-width:8px; fill:none;" opacity="0.7" d="M 767,345 V 322 a 12,12 0 0,0 -12,-12 H 734 a 12,12 0 0,1 -12,-12L 722,274"></path><g><path style="stroke:#ff0; stroke-width:8px; fill:none; " opacity="0" d="M 767,345 V 322 a 12,12 0 0,0 -12,-12 H 734 a 12,12 0 0,1 -12,-12L 722,274"></path></g><path style="stroke:black; fill:none;" d="M 767,345 V 322 a 12,12 0 0,0 -12,-12 H 734 a 12,12 0 0,1 -12,-12L 722,274"></path><g><g><path style="stroke:#0ff; stroke-width:8px; fill:none; " opacity="0" d="M 767,345 L 767,310" onmousedown="segmousedown(&quot;186&quot;,&quot;0&quot;,evt);" onmouseover="segmouseover(&quot;186&quot;,&quot;0&quot;,evt);" onmouseout="segmouseout(&quot;186&quot;,&quot;0&quot;,evt);" onclick="segclick(&quot;186&quot;,&quot;0&quot;,evt);"></path><path style="stroke:#0ff; stroke-width:8px; fill:none; " opacity="0" d="M 767,310 L 722,310" onmousedown="segmousedown(&quot;186&quot;,&quot;1&quot;,evt);" onmouseover="segmouseover(&quot;186&quot;,&quot;1&quot;,evt);" onmouseout="segmouseout(&quot;186&quot;,&quot;1&quot;,evt);" onclick="segclick(&quot;186&quot;,&quot;1&quot;,evt);"></path><path style="stroke:#0ff; stroke-width:8px; fill:none; " opacity="0" d="M 722,310 L 722,274" onmousedown="segmousedown(&quot;186&quot;,&quot;2&quot;,evt);" onmouseover="segmouseover(&quot;186&quot;,&quot;2&quot;,evt);" onmouseout="segmouseout(&quot;186&quot;,&quot;2&quot;,evt);" onclick="segclick(&quot;186&quot;,&quot;2&quot;,evt);"></path></g></g></g><g id="187"><path style="stroke:#bdbddf; stroke-width:8px; fill:none;" opacity="0.7" d="M 296,396 H 244 a 12,12 0 0,1 -12,-12 V 382 a 12,12 0 0,0 -12,-12L 188,370"></path><g><path style="stroke:#ff0; stroke-width:8px; fill:none; " opacity="0" d="M 296,396 H 244 a 12,12 0 0,1 -12,-12 V 382 a 12,12 0 0,0 -12,-12L 188,370"></path></g><path style="stroke:black; fill:none;" d="M 296,396 H 244 a 12,12 0 0,1 -12,-12 V 382 a 12,12 0 0,0 -12,-12L 188,370"></path><g><g><path style="stroke:#0ff; stroke-width:8px; fill:none; " opacity="0" d="M 296,396 L 232,396" onmousedown="segmousedown(&quot;187&quot;,&quot;0&quot;,evt);" onmouseover="segmouseover(&quot;187&quot;,&quot;0&quot;,evt);" onmouseout="segmouseout(&quot;187&quot;,&quot;0&quot;,evt);" onclick="segclick(&quot;187&quot;,&quot;0&quot;,evt);"></path><path style="stroke:#0ff; stroke-width:8px; fill:none; " opacity="0" d="M 232,396 L 232,370" onmousedown="segmousedown(&quot;187&quot;,&quot;1&quot;,evt);" onmouseover="segmouseover(&quot;187&quot;,&quot;1&quot;,evt);" onmouseout="segmouseout(&quot;187&quot;,&quot;1&quot;,evt);" onclick="segclick(&quot;187&quot;,&quot;1&quot;,evt);"></path><path style="stroke:#0ff; stroke-width:8px; fill:none; " opacity="0" d="M 232,370 L 188,370" onmousedown="segmousedown(&quot;187&quot;,&quot;2&quot;,evt);" onmouseover="segmouseover(&quot;187&quot;,&quot;2&quot;,evt);" onmouseout="segmouseout(&quot;187&quot;,&quot;2&quot;,evt);" onclick="segclick(&quot;187&quot;,&quot;2&quot;,evt);"></path></g></g></g><g id="188"><path style="stroke:#bdbddf; stroke-width:8px; fill:none;" opacity="0.7" d="M 722,487L 722,416"></path><g><path style="stroke:#ff0; stroke-width:8px; fill:none; " opacity="0" d="M 722,487L 722,416"></path></g><path style="stroke:black; fill:none;" d="M 722,487L 722,416"></path><g><g><path style="stroke:#0ff; stroke-width:8px; fill:none; " opacity="0" d="M 722,487 L 722,416" onmousedown="segmousedown(&quot;188&quot;,&quot;0&quot;,evt);" onmouseover="segmouseover(&quot;188&quot;,&quot;0&quot;,evt);" onmouseout="segmouseout(&quot;188&quot;,&quot;0&quot;,evt);" onclick="segclick(&quot;188&quot;,&quot;0&quot;,evt);"></path></g></g></g><g id="189"><path style="stroke:#bdbddf; stroke-width:8px; fill:none;" opacity="0.7" d="M 722,274 H 521 a 12,12 0 0,0 -12,12 V 303 a 12,12 0 0,1 -12,12L 397,315"></path><g><path style="stroke:#ff0; stroke-width:8px; fill:none; " opacity="0" d="M 722,274 H 521 a 12,12 0 0,0 -12,12 V 303 a 12,12 0 0,1 -12,12L 397,315"></path></g><path style="stroke:black; fill:none;" d="M 722,274 H 521 a 12,12 0 0,0 -12,12 V 303 a 12,12 0 0,1 -12,12L 397,315"></path><g><g><path style="stroke:#0ff; stroke-width:8px; fill:none; " opacity="0" d="M 722,274 L 509,274" onmousedown="segmousedown(&quot;189&quot;,&quot;0&quot;,evt);" onmouseover="segmouseover(&quot;189&quot;,&quot;0&quot;,evt);" onmouseout="segmouseout(&quot;189&quot;,&quot;0&quot;,evt);" onclick="segclick(&quot;189&quot;,&quot;0&quot;,evt);"></path><path style="stroke:#0ff; stroke-width:8px; fill:none; " opacity="0" d="M 509,274 L 509,315" onmousedown="segmousedown(&quot;189&quot;,&quot;1&quot;,evt);" onmouseover="segmouseover(&quot;189&quot;,&quot;1&quot;,evt);" onmouseout="segmouseout(&quot;189&quot;,&quot;1&quot;,evt);" onclick="segclick(&quot;189&quot;,&quot;1&quot;,evt);"></path><path style="stroke:#0ff; stroke-width:8px; fill:none; " opacity="0" d="M 509,315 L 397,315" onmousedown="segmousedown(&quot;189&quot;,&quot;2&quot;,evt);" onmouseover="segmouseover(&quot;189&quot;,&quot;2&quot;,evt);" onmouseout="segmouseout(&quot;189&quot;,&quot;2&quot;,evt);" onclick="segclick(&quot;189&quot;,&quot;2&quot;,evt);"></path></g></g></g><g id="190"><path style="stroke:#bdbddf; stroke-width:8px; fill:none;" opacity="0.7" d="M 397,315 V 325 a 10,10 0 0,1 -10,10 H 308 a 12,12 0 0,0 -12,12L 296,396"></path><g><path style="stroke:#ff0; stroke-width:8px; fill:none; " opacity="0" d="M 397,315 V 325 a 10,10 0 0,1 -10,10 H 308 a 12,12 0 0,0 -12,12L 296,396"></path></g><path style="stroke:black; fill:none;" d="M 397,315 V 325 a 10,10 0 0,1 -10,10 H 308 a 12,12 0 0,0 -12,12L 296,396"></path><g><g><path style="stroke:#0ff; stroke-width:8px; fill:none; " opacity="0" d="M 397,315 L 397,335" onmousedown="segmousedown(&quot;190&quot;,&quot;0&quot;,evt);" onmouseover="segmouseover(&quot;190&quot;,&quot;0&quot;,evt);" onmouseout="segmouseout(&quot;190&quot;,&quot;0&quot;,evt);" onclick="segclick(&quot;190&quot;,&quot;0&quot;,evt);"></path><path style="stroke:#0ff; stroke-width:8px; fill:none; " opacity="0" d="M 397,335 L 296,335" onmousedown="segmousedown(&quot;190&quot;,&quot;1&quot;,evt);" onmouseover="segmouseover(&quot;190&quot;,&quot;1&quot;,evt);" onmouseout="segmouseout(&quot;190&quot;,&quot;1&quot;,evt);" onclick="segclick(&quot;190&quot;,&quot;1&quot;,evt);"></path><path style="stroke:#0ff; stroke-width:8px; fill:none; " opacity="0" d="M 296,335 L 296,396" onmousedown="segmousedown(&quot;190&quot;,&quot;2&quot;,evt);" onmouseover="segmouseover(&quot;190&quot;,&quot;2&quot;,evt);" onmouseout="segmouseout(&quot;190&quot;,&quot;2&quot;,evt);" onclick="segclick(&quot;190&quot;,&quot;2&quot;,evt);"></path></g></g></g><g id="191"><path style="stroke:#bdbddf; stroke-width:8px; fill:none;" opacity="0.7" d="M 397,315 H 244 a 12,12 0 0,1 -12,-12 V 286 a 12,12 0 0,0 -12,-12L 168,274"></path><g><path style="stroke:#ff0; stroke-width:8px; fill:none; " opacity="0" d="M 397,315 H 244 a 12,12 0 0,1 -12,-12 V 286 a 12,12 0 0,0 -12,-12L 168,274"></path></g><path style="stroke:black; fill:none;" d="M 397,315 H 244 a 12,12 0 0,1 -12,-12 V 286 a 12,12 0 0,0 -12,-12L 168,274"></path><g><g><path style="stroke:#0ff; stroke-width:8px; fill:none; " opacity="0" d="M 397,315 L 232,315" onmousedown="segmousedown(&quot;191&quot;,&quot;0&quot;,evt);" onmouseover="segmouseover(&quot;191&quot;,&quot;0&quot;,evt);" onmouseout="segmouseout(&quot;191&quot;,&quot;0&quot;,evt);" onclick="segclick(&quot;191&quot;,&quot;0&quot;,evt);"></path><path style="stroke:#0ff; stroke-width:8px; fill:none; " opacity="0" d="M 232,315 L 232,274" onmousedown="segmousedown(&quot;191&quot;,&quot;1&quot;,evt);" onmouseover="segmouseover(&quot;191&quot;,&quot;1&quot;,evt);" onmouseout="segmouseout(&quot;191&quot;,&quot;1&quot;,evt);" onclick="segclick(&quot;191&quot;,&quot;1&quot;,evt);"></path><path style="stroke:#0ff; stroke-width:8px; fill:none; " opacity="0" d="M 232,274 L 168,274" onmousedown="segmousedown(&quot;191&quot;,&quot;2&quot;,evt);" onmouseover="segmouseover(&quot;191&quot;,&quot;2&quot;,evt);" onmouseout="segmouseout(&quot;191&quot;,&quot;2&quot;,evt);" onclick="segclick(&quot;191&quot;,&quot;2&quot;,evt);"></path></g></g></g><g id="192"><path style="stroke:#bdbddf; stroke-width:8px; fill:none;" opacity="0.7" d="M 168,274 V 325 a 10,10 0 0,0 10,10 H 178 a 10,10 0 0,1 10,10L 188,370"></path><g><path style="stroke:#ff0; stroke-width:8px; fill:none; " opacity="0" d="M 168,274 V 325 a 10,10 0 0,0 10,10 H 178 a 10,10 0 0,1 10,10L 188,370"></path></g><path style="stroke:black; fill:none;" d="M 168,274 V 325 a 10,10 0 0,0 10,10 H 178 a 10,10 0 0,1 10,10L 188,370"></path><g><g><path style="stroke:#0ff; stroke-width:8px; fill:none; " opacity="0" d="M 168,274 L 168,335" onmousedown="segmousedown(&quot;192&quot;,&quot;0&quot;,evt);" onmouseover="segmouseover(&quot;192&quot;,&quot;0&quot;,evt);" onmouseout="segmouseout(&quot;192&quot;,&quot;0&quot;,evt);" onclick="segclick(&quot;192&quot;,&quot;0&quot;,evt);"></path><path style="stroke:#0ff; stroke-width:8px; fill:none; " opacity="0" d="M 168,335 L 188,335" onmousedown="segmousedown(&quot;192&quot;,&quot;1&quot;,evt);" onmouseover="segmouseover(&quot;192&quot;,&quot;1&quot;,evt);" onmouseout="segmouseout(&quot;192&quot;,&quot;1&quot;,evt);" onclick="segclick(&quot;192&quot;,&quot;1&quot;,evt);"></path><path style="stroke:#0ff; stroke-width:8px; fill:none; " opacity="0" d="M 188,335 L 188,370" onmousedown="segmousedown(&quot;192&quot;,&quot;2&quot;,evt);" onmouseover="segmouseover(&quot;192&quot;,&quot;2&quot;,evt);" onmouseout="segmouseout(&quot;192&quot;,&quot;2&quot;,evt);" onclick="segclick(&quot;192&quot;,&quot;2&quot;,evt);"></path></g></g></g><g id="193"><path style="stroke:#bdbddf; stroke-width:8px; fill:none;" opacity="0.7" d="M 296,396L 296,518"></path><g><path style="stroke:#ff0; stroke-width:8px; fill:none; " opacity="0" d="M 296,396L 296,518"></path></g><path style="stroke:black; fill:none;" d="M 296,396L 296,518"></path><g><g><path style="stroke:#0ff; stroke-width:8px; fill:none; " opacity="0" d="M 296,396 L 296,518" onmousedown="segmousedown(&quot;193&quot;,&quot;0&quot;,evt);" onmouseover="segmouseover(&quot;193&quot;,&quot;0&quot;,evt);" onmouseout="segmouseout(&quot;193&quot;,&quot;0&quot;,evt);" onclick="segclick(&quot;193&quot;,&quot;0&quot;,evt);"></path></g></g></g></g>
  <g id="nodes"><g id="175" onmousedown="nodemousedown(175,evt);" onmouseover="nodemouseover(175,evt);" onmouseout="nodemouseout(175,evt);" transform="translate(296 396)"><rect x="-21" y="-21" width="42" height="42" fill="#0ff" style="stroke:none; opacity:0.75;" display="none"></rect><rect x="-15" y="-15" width="30" height="30" fill="#f0f0d2" style="stroke:black; opacity:1;"></rect></g><g id="176" onmousedown="nodemousedown(176,evt);" onmouseover="nodemouseover(176,evt);" onmouseout="nodemouseout(176,evt);" transform="translate(722 416)"><rect x="-21" y="-21" width="42" height="42" fill="#0ff" style="stroke:none; opacity:0.75;" display="none"></rect><rect x="-15" y="-15" width="30" height="30" fill="#f0f0d2" style="stroke:black; opacity:1;"></rect></g><g id="177" onmousedown="nodemousedown(177,evt);" onmouseover="nodemouseover(177,evt);" onmouseout="nodemouseout(177,evt);" transform="translate(767 345)"><rect x="-21" y="-21" width="42" height="42" fill="#0ff" style="stroke:none; opacity:0.75;" display="none"></rect><rect x="-15" y="-15" width="30" height="30" fill="#f0f0d2" style="stroke:black; opacity:1;"></rect></g><g id="178" onmousedown="nodemousedown(178,evt);" onmouseover="nodemouseover(178,evt);" onmouseout="nodemouseout(178,evt);" transform="translate(722 274)"><rect x="-21" y="-21" width="42" height="42" fill="#0ff" style="stroke:none; opacity:0.75;" display="none"></rect><rect x="-15" y="-15" width="30" height="30" fill="#f0f0d2" style="stroke:black; opacity:1;"></rect></g><g id="179" onmousedown="nodemousedown(179,evt);" onmouseover="nodemouseover(179,evt);" onmouseout="nodemouseout(179,evt);" transform="translate(188 370)"><rect x="-21" y="-21" width="42" height="42" fill="#0ff" style="stroke:none; opacity:0.75;" display="none"></rect><rect x="-15" y="-15" width="30" height="30" fill="#f0f0d2" style="stroke:black; opacity:1;"></rect></g><g id="180" onmousedown="nodemousedown(180,evt);" onmouseover="nodemouseover(180,evt);" onmouseout="nodemouseout(180,evt);" transform="translate(397 315)"><rect x="-21" y="-21" width="42" height="42" fill="#0ff" style="stroke:none; opacity:0.75;" display="none"></rect><rect x="-15" y="-15" width="30" height="30" fill="#f0f0d2" style="stroke:black; opacity:1;"></rect></g><g id="181" onmousedown="nodemousedown(181,evt);" onmouseover="nodemouseover(181,evt);" onmouseout="nodemouseout(181,evt);" transform="translate(168 274)"><rect x="-21" y="-21" width="42" height="42" fill="#0ff" style="stroke:none; opacity:0.75;" display="none"></rect><rect x="-15" y="-15" width="30" height="30" fill="#f0f0d2" style="stroke:black; opacity:1;"></rect></g><g id="182" onmousedown="nodemousedown(182,evt);" onmouseover="nodemouseover(182,evt);" onmouseout="nodemouseout(182,evt);" transform="translate(722 487)"><rect x="-21" y="-21" width="42" height="42" fill="#0ff" style="stroke:none; opacity:0.75;" display="none"></rect><rect x="-15" y="-15" width="30" height="30" fill="#f0f0d2" style="stroke:black; opacity:1;"></rect></g><g id="183" onmousedown="nodemousedown(183,evt);" onmouseover="nodemouseover(183,evt);" onmouseout="nodemouseout(183,evt);" transform="translate(296 518)"><rect x="-21" y="-21" width="42" height="42" fill="#0ff" style="stroke:none; opacity:0.75;" display="none"></rect><rect x="-15" y="-15" width="30" height="30" fill="#f0f0d2" style="stroke:black; opacity:1;"></rect></g></g>
  <g id="BPs"><g onmousedown="bpmousedown(196,evt);" onmouseover="bpmouseover(196,evt);" onmouseout="bpmouseout(196,evt);" transform="translate(505 396)" opacity="0"><ellipse cx="0" cy="0" rx="16" ry="16" fill="#0ff" style="stroke:none; opacity:0.75;" display="none"></ellipse><ellipse cx="0" cy="0" rx="10" ry="10" fill="#777" style="stroke:black;"></ellipse></g><g onmousedown="bpmousedown(197,evt);" onmouseover="bpmouseover(197,evt);" onmouseout="bpmouseout(197,evt);" transform="translate(505 416)" opacity="0"><ellipse cx="0" cy="0" rx="16" ry="16" fill="#0ff" style="stroke:none; opacity:0.75;" display="none"></ellipse><ellipse cx="0" cy="0" rx="10" ry="10" fill="#777" style="stroke:black;"></ellipse></g><g onmousedown="bpmousedown(200,evt);" onmouseover="bpmouseover(200,evt);" onmouseout="bpmouseout(200,evt);" transform="translate(722 381)" opacity="0"><ellipse cx="0" cy="0" rx="16" ry="16" fill="#0ff" style="stroke:none; opacity:0.75;" display="none"></ellipse><ellipse cx="0" cy="0" rx="10" ry="10" fill="#777" style="stroke:black;"></ellipse></g><g onmousedown="bpmousedown(201,evt);" onmouseover="bpmouseover(201,evt);" onmouseout="bpmouseout(201,evt);" transform="translate(767 381)" opacity="0"><ellipse cx="0" cy="0" rx="16" ry="16" fill="#0ff" style="stroke:none; opacity:0.75;" display="none"></ellipse><ellipse cx="0" cy="0" rx="10" ry="10" fill="#777" style="stroke:black;"></ellipse></g><g onmousedown="bpmousedown(204,evt);" onmouseover="bpmouseover(204,evt);" onmouseout="bpmouseout(204,evt);" transform="translate(767 310)" opacity="0"><ellipse cx="0" cy="0" rx="16" ry="16" fill="#0ff" style="stroke:none; opacity:0.75;" display="none"></ellipse><ellipse cx="0" cy="0" rx="10" ry="10" fill="#777" style="stroke:black;"></ellipse></g><g onmousedown="bpmousedown(205,evt);" onmouseover="bpmouseover(205,evt);" onmouseout="bpmouseout(205,evt);" transform="translate(722 310)" opacity="0"><ellipse cx="0" cy="0" rx="16" ry="16" fill="#0ff" style="stroke:none; opacity:0.75;" display="none"></ellipse><ellipse cx="0" cy="0" rx="10" ry="10" fill="#777" style="stroke:black;"></ellipse></g><g onmousedown="bpmousedown(208,evt);" onmouseover="bpmouseover(208,evt);" onmouseout="bpmouseout(208,evt);" transform="translate(232 396)" opacity="0"><ellipse cx="0" cy="0" rx="16" ry="16" fill="#0ff" style="stroke:none; opacity:0.75;" display="none"></ellipse><ellipse cx="0" cy="0" rx="10" ry="10" fill="#777" style="stroke:black;"></ellipse></g><g onmousedown="bpmousedown(209,evt);" onmouseover="bpmouseover(209,evt);" onmouseout="bpmouseout(209,evt);" transform="translate(232 370)" opacity="0"><ellipse cx="0" cy="0" rx="16" ry="16" fill="#0ff" style="stroke:none; opacity:0.75;" display="none"></ellipse><ellipse cx="0" cy="0" rx="10" ry="10" fill="#777" style="stroke:black;"></ellipse></g><g onmousedown="bpmousedown(214,evt);" onmouseover="bpmouseover(214,evt);" onmouseout="bpmouseout(214,evt);" transform="translate(509 274)" opacity="0"><ellipse cx="0" cy="0" rx="16" ry="16" fill="#0ff" style="stroke:none; opacity:0.75;" display="none"></ellipse><ellipse cx="0" cy="0" rx="10" ry="10" fill="#777" style="stroke:black;"></ellipse></g><g onmousedown="bpmousedown(215,evt);" onmouseover="bpmouseover(215,evt);" onmouseout="bpmouseout(215,evt);" transform="translate(509 315)" opacity="0"><ellipse cx="0" cy="0" rx="16" ry="16" fill="#0ff" style="stroke:none; opacity:0.75;" display="none"></ellipse><ellipse cx="0" cy="0" rx="10" ry="10" fill="#777" style="stroke:black;"></ellipse></g><g onmousedown="bpmousedown(218,evt);" onmouseover="bpmouseover(218,evt);" onmouseout="bpmouseout(218,evt);" transform="translate(397 335)" opacity="0"><ellipse cx="0" cy="0" rx="16" ry="16" fill="#0ff" style="stroke:none; opacity:0.75;" display="none"></ellipse><ellipse cx="0" cy="0" rx="10" ry="10" fill="#777" style="stroke:black;"></ellipse></g><g onmousedown="bpmousedown(219,evt);" onmouseover="bpmouseover(219,evt);" onmouseout="bpmouseout(219,evt);" transform="translate(296 335)" opacity="0"><ellipse cx="0" cy="0" rx="16" ry="16" fill="#0ff" style="stroke:none; opacity:0.75;" display="none"></ellipse><ellipse cx="0" cy="0" rx="10" ry="10" fill="#777" style="stroke:black;"></ellipse></g><g onmousedown="bpmousedown(222,evt);" onmouseover="bpmouseover(222,evt);" onmouseout="bpmouseout(222,evt);" transform="translate(232 315)" opacity="0"><ellipse cx="0" cy="0" rx="16" ry="16" fill="#0ff" style="stroke:none; opacity:0.75;" display="none"></ellipse><ellipse cx="0" cy="0" rx="10" ry="10" fill="#777" style="stroke:black;"></ellipse></g><g onmousedown="bpmousedown(223,evt);" onmouseover="bpmouseover(223,evt);" onmouseout="bpmouseout(223,evt);" transform="translate(232 274)" opacity="0"><ellipse cx="0" cy="0" rx="16" ry="16" fill="#0ff" style="stroke:none; opacity:0.75;" display="none"></ellipse><ellipse cx="0" cy="0" rx="10" ry="10" fill="#777" style="stroke:black;"></ellipse></g><g onmousedown="bpmousedown(226,evt);" onmouseover="bpmouseover(226,evt);" onmouseout="bpmouseout(226,evt);" transform="translate(168 335)" opacity="0"><ellipse cx="0" cy="0" rx="16" ry="16" fill="#0ff" style="stroke:none; opacity:0.75;" display="none"></ellipse><ellipse cx="0" cy="0" rx="10" ry="10" fill="#777" style="stroke:black;"></ellipse></g><g onmousedown="bpmousedown(227,evt);" onmouseover="bpmouseover(227,evt);" onmouseout="bpmouseout(227,evt);" transform="translate(188 335)" opacity="0"><ellipse cx="0" cy="0" rx="16" ry="16" fill="#0ff" style="stroke:none; opacity:0.75;" display="none"></ellipse><ellipse cx="0" cy="0" rx="10" ry="10" fill="#777" style="stroke:black;"></ellipse></g></g>
  <g id="ports"></g>
</g>
</svg>