<svg id="SVGCanvas" width="480px" height="270px" xmlns="http://www.w3.org/2000/svg" xmlns:xlink="http://www.w3.org/1999/xlink">
<rect id="background" x="0" y="0" height="100%" width="100%" fill="#bdbddf" onmousedown="bgmousedown(evt)"></rect>
<g id="foreground" transform="translate(2.73841961852861,0),scale(0.7356948228882834),translate(31,-3)">
  <g id="edges"><g id="241"><path style="stroke:#bdbddf; stroke-width:8px; fill:none;" opacity="0.7" d="M 211,340L 525,340"></path><g><path style="stroke:#ff0; stroke-width:8px; fill:none; " opacity="0" d="M 211,340L 525,340"></path></g><path style="stroke:black; fill:none;" d="M 211,340L 525,340"></path><g><g><path style="stroke:#0ff; stroke-width:8px; fill:none; " opacity="0" d="M 211,340 L 525,340" onmousedown="segmousedown(&quot;241&quot;,&quot;0&quot;,evt);" onmouseover="segmouseover(&quot;241&quot;,&quot;0&quot;,evt);" onmouseout="segmouseout(&quot;241&quot;,&quot;0&quot;,evt);" onclick="segclick(&quot;241&quot;,&quot;0&quot;,evt);"></path></g></g></g><g id="242"><path style="stroke:#bdbddf; stroke-width:8px; fill:none;" opacity="0.7" d="M 525,334 H 577 a 12,12 0 0,0 12,-12 V 75 a 12,12 0 0,0 -12,-12L 535,63"></path><g><path style="stroke:#ff0; stroke-width:8px; fill:none; " opacity="0" d="M 525,334 H 577 a 12,12 0 0,0 12,-12 V 75 a 12,12 0 0,0 -12,-12L 535,63"></path></g><path style="stroke:black; fill:none;" d="M 525,334 H 577 a 12,12 0 0,0 12,-12 V 75 a 12,12 0 0,0 -12,-12L 535,63"></path><g><g><path style="stroke:#0ff; stroke-width:8px; fill:none; " opacity="0" d="M 525,334 L 589,334" onmousedown="segmousedown(&quot;242&quot;,&quot;0&quot;,evt);" onmouseover="segmouseover(&quot;242&quot;,&quot;0&quot;,evt);" onmouseout="segmouseout(&quot;242&quot;,&quot;0&quot;,evt);" onclick="segclick(&quot;242&quot;,&quot;0&quot;,evt);"></path><path style="stroke:#0ff; stroke-width:8px; fill:none; " opacity="0" d="M 589,334 L 589,63" onmousedown="segmousedown(&quot;242&quot;,&quot;1&quot;,evt);" onmouseover="segmouseover(&quot;242&quot;,&quot;1&quot;,evt);" onmouseout="segmouseout(&quot;242&quot;,&quot;1&quot;,evt);" onclick="segclick(&quot;242&quot;,&quot;1&quot;,evt);"></path><path style="stroke:#0ff; stroke-width:8px; fill:none; " opacity="0" d="M 589,63 L 535,63" onmousedown="segmousedown(&quot;242&quot;,&quot;2&quot;,evt);" onmouseover="segmouseover(&quot;242&quot;,&quot;2&quot;,evt);" onmouseout="segmouseout(&quot;242&quot;,&quot;2&quot;,evt);" onclick="segclick(&quot;242&quot;,&quot;2&quot;,evt);"></path></g></g></g><g id="243"><path style="stroke:#bdbddf; stroke-width:8px; fill:none;" opacity="0.7" d="M 525,63 V 40 a 12,12 0 0,0 -12,-12 H 188 a 12,12 0 0,0 -12,12 V 67 a 12,12 0 0,0 12,12L 211,79"></path><g><path style="stroke:#ff0; stroke-width:8px; fill:none; " opacity="0" d="M 525,63 V 40 a 12,12 0 0,0 -12,-12 H 188 a 12,12 0 0,0 -12,12 V 67 a 12,12 0 0,0 12,12L 211,79"></path></g><path style="stroke:black; fill:none;" d="M 525,63 V 40 a 12,12 0 0,0 -12,-12 H 188 a 12,12 0 0,0 -12,12 V 67 a 12,12 0 0,0 12,12L 211,79"></path><g><g><path style="stroke:#0ff; stroke-width:8px; fill:none; " opacity="0" d="M 525,63 L 525,28" onmousedown="segmousedown(&quot;243&quot;,&quot;0&quot;,evt);" onmouseover="segmouseover(&quot;243&quot;,&quot;0&quot;,evt);" onmouseout="segmouseout(&quot;243&quot;,&quot;0&quot;,evt);" onclick="segclick(&quot;243&quot;,&quot;0&quot;,evt);"></path><path style="stroke:#0ff; stroke-width:8px; fill:none; " opacity="0" d="M 525,28 L 176,28" onmousedown="segmousedown(&quot;243&quot;,&quot;1&quot;,evt);" onmouseover="segmouseover(&quot;243&quot;,&quot;1&quot;,evt);" onmouseout="segmouseout(&quot;243&quot;,&quot;1&quot;,evt);" onclick="segclick(&quot;243&quot;,&quot;1&quot;,evt);"></path><path style="stroke:#0ff; stroke-width:8px; fill:none; " opacity="0" d="M 176,28 L 176,79" onmousedown="segmousedown(&quot;243&quot;,&quot;2&quot;,evt);" onmouseover="segmouseover(&quot;243&quot;,&quot;2&quot;,evt);" onmouseout="segmouseout(&quot;243&quot;,&quot;2&quot;,evt);" onclick="segclick(&quot;243&quot;,&quot;2&quot;,evt);"></path><path style="stroke:#0ff; stroke-width:8px; fill:none; " opacity="0" d="M 176,79 L 211,79" onmousedown="segmousedown(&quot;243&quot;,&quot;3&quot;,evt);" onmouseover="segmouseover(&quot;243&quot;,&quot;3&quot;,evt);" onmouseout="segmouseout(&quot;243&quot;,&quot;3&quot;,evt);" onclick="segclick(&quot;243&quot;,&quot;3&quot;,evt);"></path></g></g></g><g id="244"><path style="stroke:#bdbddf; stroke-width:8px; fill:none;" opacity="0.7" d="M 218,79L 218,340"></path><g><path style="stroke:#ff0; stroke-width:8px; fill:none; " opacity="0" d="M 218,79L 218,340"></path></g><path style="stroke:black; fill:none;" d="M 218,79L 218,340"></path><g><g><path style="stroke:#0ff; stroke-width:8px; fill:none; " opacity="0" d="M 218,79 L 218,340" onmousedown="segmousedown(&quot;244&quot;,&quot;0&quot;,evt);" onmouseover="segmouseover(&quot;244&quot;,&quot;0&quot;,evt);" onmouseout="segmouseout(&quot;244&quot;,&quot;0&quot;,evt);" onclick="segclick(&quot;244&quot;,&quot;0&quot;,evt);"></path></g></g></g><g id="245"><path style="stroke:#bdbddf; stroke-width:8px; fill:none;" opacity="0.7" d="M 525,334 H 492 a 12,12 0 0,1 -12,-12L 480,251"></path><g><path style="stroke:#ff0; stroke-width:8px; fill:none; " opacity="0" d="M 525,334 H 492 a 12,12 0 0,1 -12,-12L 480,251"></path></g><path style="stroke:black; fill:none;" d="M 525,334 H 492 a 12,12 0 0,1 -12,-12L 480,251"></path><g><g><path style="stroke:#0ff; stroke-width:8px; fill:none; " opacity="0" d="M 525,334 L 480,334" onmousedown="segmousedown(&quot;245&quot;,&quot;0&quot;,evt);" onmouseover="segmouseover(&quot;245&quot;,&quot;0&quot;,evt);" onmouseout="segmouseout(&quot;245&quot;,&quot;0&quot;,evt);" onclick="segclick(&quot;245&quot;,&quot;0&quot;,evt);"></path><path style="stroke:#0ff; stroke-width:8px; fill:none; " opacity="0" d="M 480,334 L 480,251" onmousedown="segmousedown(&quot;245&quot;,&quot;1&quot;,evt);" onmouseover="segmouseover(&quot;245&quot;,&quot;1&quot;,evt);" onmouseout="segmouseout(&quot;245&quot;,&quot;1&quot;,evt);" onclick="segclick(&quot;245&quot;,&quot;1&quot;,evt);"></path></g></g></g><g id="246"><path style="stroke:#bdbddf; stroke-width:8px; fill:none;" opacity="0.7" d="M 480,251L 388,251"></path><g><path style="stroke:#ff0; stroke-width:8px; fill:none; " opacity="0" d="M 480,251L 388,251"></path></g><path style="stroke:black; fill:none;" d="M 480,251L 388,251"></path><g><g><path style="stroke:#0ff; stroke-width:8px; fill:none; " opacity="0" d="M 480,251 L 388,251" onmousedown="segmousedown(&quot;246&quot;,&quot;0&quot;,evt);" onmouseover="segmouseover(&quot;246&quot;,&quot;0&quot;,evt);" onmouseout="segmouseout(&quot;246&quot;,&quot;0&quot;,evt);" onclick="segclick(&quot;246&quot;,&quot;0&quot;,evt);"></path></g></g></g><g id="247"><path style="stroke:#bdbddf; stroke-width:8px; fill:none;" opacity="0.7" d="M 388,246 H 351 a 12,12 0 0,1 -12,-12 V 218 a 12,12 0 0,0 -12,-12L 289,206"></path><g><path style="stroke:#ff0; stroke-width:8px; fill:none; " opacity="0" d="M 388,246 H 351 a 12,12 0 0,1 -12,-12 V 218 a 12,12 0 0,0 -12,-12L 289,206"></path></g><path style="stroke:black; fill:none;" d="M 388,246 H 351 a 12,12 0 0,1 -12,-12 V 218 a 12,12 0 0,0 -12,-12L 289,206"></path><g><g><path style="stroke:#0ff; stroke-width:8px; fill:none; " opacity="0" d="M 388,246 L 339,246" onmousedown="segmousedown(&quot;247&quot;,&quot;0&quot;,evt);" onmouseover="segmouseover(&quot;247&quot;,&quot;0&quot;,evt);" onmouseout="segmouseout(&quot;247&quot;,&quot;0&quot;,evt);" onclick="segclick(&quot;247&quot;,&quot;0&quot;,evt);"></path><path style="stroke:#0ff; stroke-width:8px; fill:none; " opacity="0" d="M 339,246 L 339,206" onmousedown="segmousedown(&quot;247&quot;,&quot;1&quot;,evt);" onmouseover="segmouseover(&quot;247&quot;,&quot;1&quot;,evt);" onmouseout="segmouseout(&quot;247&quot;,&quot;1&quot;,evt);" onclick="segclick(&quot;247&quot;,&quot;1&quot;,evt);"></path><path style="stroke:#0ff; stroke-width:8px; fill:none; " opacity="0" d="M 339,206 L 289,206" onmousedown="segmousedown(&quot;247&quot;,&quot;2&quot;,evt);" onmouseover="segmouseover(&quot;247&quot;,&quot;2&quot;,evt);" onmouseout="segmouseout(&quot;247&quot;,&quot;2&quot;,evt);" onclick="segclick(&quot;247&quot;,&quot;2&quot;,evt);"></path></g></g></g><g id="248"><path style="stroke:#bdbddf; stroke-width:8px; fill:none;" opacity="0.7" d="M 289,201 V 261.5 a 3.5,3.5 0 0,0 3.5,3.5 H 292.5 a 3.5,3.5 0 0,1 3.5,3.5L 296,319"></path><g><path style="stroke:#ff0; stroke-width:8px; fill:none; " opacity="0" d="M 289,201 V 261.5 a 3.5,3.5 0 0,0 3.5,3.5 H 292.5 a 3.5,3.5 0 0,1 3.5,3.5L 296,319"></path></g><path style="stroke:black; fill:none;" d="M 289,201 V 261.5 a 3.5,3.5 0 0,0 3.5,3.5 H 292.5 a 3.5,3.5 0 0,1 3.5,3.5L 296,319"></path><g><g><path style="stroke:#0ff; stroke-width:8px; fill:none; " opacity="0" d="M 289,201 L 289,265" onmousedown="segmousedown(&quot;248&quot;,&quot;0&quot;,evt);" onmouseover="segmouseover(&quot;248&quot;,&quot;0&quot;,evt);" onmouseout="segmouseout(&quot;248&quot;,&quot;0&quot;,evt);" onclick="segclick(&quot;248&quot;,&quot;0&quot;,evt);"></path><path style="stroke:#0ff; stroke-width:8px; fill:none; " opacity="0" d="M 289,265 L 296,265" onmousedown="segmousedown(&quot;248&quot;,&quot;1&quot;,evt);" onmouseover="segmouseover(&quot;248&quot;,&quot;1&quot;,evt);" onmouseout="segmouseout(&quot;248&quot;,&quot;1&quot;,evt);" onclick="segclick(&quot;248&quot;,&quot;1&quot;,evt);"></path><path style="stroke:#0ff; stroke-width:8px; fill:none; " opacity="0" d="M 296,265 L 296,319" onmousedown="segmousedown(&quot;248&quot;,&quot;2&quot;,evt);" onmouseover="segmouseover(&quot;248&quot;,&quot;2&quot;,evt);" onmouseout="segmouseout(&quot;248&quot;,&quot;2&quot;,evt);" onclick="segclick(&quot;248&quot;,&quot;2&quot;,evt);"></path></g></g></g><g id="249"><path style="stroke:#bdbddf; stroke-width:8px; fill:none;" opacity="0.7" d="M 202,79 V 111 a 12,12 0 0,1 -12,12L 130,123"></path><g><path style="stroke:#ff0; stroke-width:8px; fill:none; " opacity="0" d="M 202,79 V 111 a 12,12 0 0,1 -12,12L 130,123"></path></g><path style="stroke:black; fill:none;" d="M 202,79 V 111 a 12,12 0 0,1 -12,12L 130,123"></path><g><g><path style="stroke:#0ff; stroke-width:8px; fill:none; " opacity="0" d="M 202,79 L 202,123" onmousedown="segmousedown(&quot;249&quot;,&quot;0&quot;,evt);" onmouseover="segmouseover(&quot;249&quot;,&quot;0&quot;,evt);" onmouseout="segmouseout(&quot;249&quot;,&quot;0&quot;,evt);" onclick="segclick(&quot;249&quot;,&quot;0&quot;,evt);"></path><path style="stroke:#0ff; stroke-width:8px; fill:none; " opacity="0" d="M 202,123 L 130,123" onmousedown="segmousedown(&quot;249&quot;,&quot;1&quot;,evt);" onmouseover="segmouseover(&quot;249&quot;,&quot;1&quot;,evt);" onmouseout="segmouseout(&quot;249&quot;,&quot;1&quot;,evt);" onclick="segclick(&quot;249&quot;,&quot;1&quot;,evt);"></path></g></g></g><g id="250"><path style="stroke:#bdbddf; stroke-width:8px; fill:none;" opacity="0.7" d="M 130,123 V 69 a 12,12 0 0,0 -12,-12L 92,57"></path><g><path style="stroke:#ff0; stroke-width:8px; fill:none; " opacity="0" d="M 130,123 V 69 a 12,12 0 0,0 -12,-12L 92,57"></path></g><path style="stroke:black; fill:none;" d="M 130,123 V 69 a 12,12 0 0,0 -12,-12L 92,57"></path><g><g><path style="stroke:#0ff; stroke-width:8px; fill:none; " opacity="0" d="M 130,123 L 130,57" onmousedown="segmousedown(&quot;250&quot;,&quot;0&quot;,evt);" onmouseover="segmouseover(&quot;250&quot;,&quot;0&quot;,evt);" onmouseout="segmouseout(&quot;250&quot;,&quot;0&quot;,evt);" onclick="segclick(&quot;250&quot;,&quot;0&quot;,evt);"></path><path style="stroke:#0ff; stroke-width:8px; fill:none; " opacity="0" d="M 130,57 L 92,57" onmousedown="segmousedown(&quot;250&quot;,&quot;1&quot;,evt);" onmouseover="segmouseover(&quot;250&quot;,&quot;1&quot;,evt);" onmouseout="segmouseout(&quot;250&quot;,&quot;1&quot;,evt);" onclick="segclick(&quot;250&quot;,&quot;1&quot;,evt);"></path></g></g></g><g id="251"><path style="stroke:#bdbddf; stroke-width:8px; fill:none;" opacity="0.7" d="M 92,57 H 75 a 12,12 0 0,0 -12,12 V 218 a 12,12 0 0,1 -12,12L -1,230"></path><g><path style="stroke:#ff0; stroke-width:8px; fill:none; " opacity="0" d="M 92,57 H 75 a 12,12 0 0,0 -12,12 V 218 a 12,12 0 0,1 -12,12L -1,230"></path></g><path style="stroke:black; fill:none;" d="M 92,57 H 75 a 12,12 0 0,0 -12,12 V 218 a 12,12 0 0,1 -12,12L -1,230"></path><g><g><path style="stroke:#0ff; stroke-width:8px; fill:none; " opacity="0" d="M 92,57 L 63,57" onmousedown="segmousedown(&quot;251&quot;,&quot;0&quot;,evt);" onmouseover="segmouseover(&quot;251&quot;,&quot;0&quot;,evt);" onmouseout="segmouseout(&quot;251&quot;,&quot;0&quot;,evt);" onclick="segclick(&quot;251&quot;,&quot;0&quot;,evt);"></path><path style="stroke:#0ff; stroke-width:8px; fill:none; " opacity="0" d="M 63,57 L 63,230" onmousedown="segmousedown(&quot;251&quot;,&quot;1&quot;,evt);" onmouseover="segmouseover(&quot;251&quot;,&quot;1&quot;,evt);" onmouseout="segmouseout(&quot;251&quot;,&quot;1&quot;,evt);" onclick="segclick(&quot;251&quot;,&quot;1&quot;,evt);"></path><path style="stroke:#0ff; stroke-width:8px; fill:none; " opacity="0" d="M 63,230 L -1,230" onmousedown="segmousedown(&quot;251&quot;,&quot;2&quot;,evt);" onmouseover="segmouseover(&quot;251&quot;,&quot;2&quot;,evt);" onmouseout="segmouseout(&quot;251&quot;,&quot;2&quot;,evt);" onclick="segclick(&quot;251&quot;,&quot;2&quot;,evt);"></path></g></g></g><g id="252"><path style="stroke:#bdbddf; stroke-width:8px; fill:none;" opacity="0.7" d="M 133,123 V 246 a 12,12 0 0,0 12,12L 177,258"></path><g><path style="stroke:#ff0; stroke-width:8px; fill:none; " opacity="0" d="M 133,123 V 246 a 12,12 0 0,0 12,12L 177,258"></path></g><path style="stroke:black; fill:none;" d="M 133,123 V 246 a 12,12 0 0,0 12,12L 177,258"></path><g><g><path style="stroke:#0ff; stroke-width:8px; fill:none; " opacity="0" d="M 133,123 L 133,258" onmousedown="segmousedown(&quot;252&quot;,&quot;0&quot;,evt);" onmouseover="segmouseover(&quot;252&quot;,&quot;0&quot;,evt);" onmouseout="segmouseout(&quot;252&quot;,&quot;0&quot;,evt);" onclick="segclick(&quot;252&quot;,&quot;0&quot;,evt);"></path><path style="stroke:#0ff; stroke-width:8px; fill:none; " opacity="0" d="M 133,258 L 177,258" onmousedown="segmousedown(&quot;252&quot;,&quot;1&quot;,evt);" onmouseover="segmouseover(&quot;252&quot;,&quot;1&quot;,evt);" onmouseout="segmouseout(&quot;252&quot;,&quot;1&quot;,evt);" onclick="segclick(&quot;252&quot;,&quot;1&quot;,evt);"></path></g></g></g></g>
  <g id="nodes"><g id="229" onmousedown="nodemousedown(229,evt);" onmouseover="nodemouseover(229,evt);" onmouseout="nodemouseout(229,evt);" transform="translate(211 79)"><rect x="-21" y="-21" width="42" height="42" fill="#0ff" style="stroke:none; opacity:0.75;" display="none"></rect><rect x="-15" y="-15" width="30" height="30" fill="#f0f0d2" style="stroke:black; opacity:1;"></rect></g><g id="230" onmousedown="nodemousedown(230,evt);" onmouseover="nodemouseover(230,evt);" onmouseout="nodemouseout(230,evt);" transform="translate(211 340)"><rect x="-21" y="-21" width="42" height="42" fill="#0ff" style="stroke:none; opacity:0.75;" display="none"></rect><rect x="-15" y="-15" width="30" height="30" fill="#f0f0d2" style="stroke:black; opacity:1;"></rect></g><g id="231" onmousedown="nodemousedown(231,evt);" onmouseover="nodemouseover(231,evt);" onmouseout="nodemouseout(231,evt);" transform="translate(525 334)"><rect x="-21" y="-21" width="42" height="42" fill="#0ff" style="stroke:none; opacity:0.75;" display="none"></rect><rect x="-15" y="-15" width="30" height="30" fill="#f0f0d2" style="stroke:black; opacity:1;"></rect></g><g id="232" onmousedown="nodemousedown(232,evt);" onmouseover="nodemouseover(232,evt);" onmouseout="nodemouseout(232,evt);" transform="translate(535 63)"><rect x="-21" y="-21" width="42" height="42" fill="#0ff" style="stroke:none; opacity:0.75;" display="none"></rect><rect x="-15" y="-15" width="30" height="30" fill="#f0f0d2" style="stroke:black; opacity:1;"></rect></g><g id="233" onmousedown="nodemousedown(233,evt);" onmouseover="nodemouseover(233,evt);" onmouseout="nodemouseout(233,evt);" transform="translate(480 251)"><rect x="-21" y="-21" width="42" height="42" fill="#0ff" style="stroke:none; opacity:0.75;" display="none"></rect><rect x="-15" y="-15" width="30" height="30" fill="#f0f0d2" style="stroke:black; opacity:1;"></rect></g><g id="234" onmousedown="nodemousedown(234,evt);" onmouseover="nodemouseover(234,evt);" onmouseout="nodemouseout(234,evt);" transform="translate(388 246)"><rect x="-21" y="-21" width="42" height="42" fill="#0ff" style="stroke:none; opacity:0.75;" display="none"></rect><rect x="-15" y="-15" width="30" height="30" fill="#f0f0d2" style="stroke:black; opacity:1;"></rect></g><g id="235" onmousedown="nodemousedown(235,evt);" onmouseover="nodemouseover(235,evt);" onmouseout="nodemouseout(235,evt);" transform="translate(289 201)"><rect x="-21" y="-21" width="42" height="42" fill="#0ff" style="stroke:none; opacity:0.75;" display="none"></rect><rect x="-15" y="-15" width="30" height="30" fill="#f0f0d2" style="stroke:black; opacity:1;"></rect></g><g id="236" onmousedown="nodemousedown(236,evt);" onmouseover="nodemouseover(236,evt);" onmouseout="nodemouseout(236,evt);" transform="translate(296 319)"><rect x="-21" y="-21" width="42" height="42" fill="#0ff" style="stroke:none; opacity:0.75;" display="none"></rect><rect x="-15" y="-15" width="30" height="30" fill="#f0f0d2" style="stroke:black; opacity:1;"></rect></g><g id="237" onmousedown="nodemousedown(237,evt);" onmouseover="nodemouseover(237,evt);" onmouseout="nodemouseout(237,evt);" transform="translate(130 123)"><rect x="-21" y="-21" width="42" height="42" fill="#0ff" style="stroke:none; opacity:0.75;" display="none"></rect><rect x="-15" y="-15" width="30" height="30" fill="#f0f0d2" style="stroke:black; opacity:1;"></rect></g><g id="238" onmousedown="nodemousedown(238,evt);" onmouseover="nodemouseover(238,evt);" onmouseout="nodemouseout(238,evt);" transform="translate(177 258)"><rect x="-21" y="-21" width="42" height="42" fill="#0ff" style="stroke:none; opacity:0.75;" display="none"></rect><rect x="-15" y="-15" width="30" height="30" fill="#f0f0d2" style="stroke:black; opacity:1;"></rect></g><g id="239" onmousedown="nodemousedown(239,evt);" onmouseover="nodemouseover(239,evt);" onmouseout="nodemouseout(239,evt);" transform="translate(92 57)"><rect x="-21" y="-21" width="42" height="42" fill="#0ff" style="stroke:none; opacity:0.75;" display="none"></rect><rect x="-15" y="-15" width="30" height="30" fill="#f0f0d2" style="stroke:black; opacity:1;"></rect></g><g id="240" onmousedown="nodemousedown(240,evt);" onmouseover="nodemouseover(240,evt);" onmouseout="nodemouseout(240,evt);" transform="translate(-1 230)"><rect x="-21" y="-21" width="42" height="42" fill="#0ff" style="stroke:none; opacity:0.75;" display="none"></rect><rect x="-15" y="-15" width="30" height="30" fill="#f0f0d2" style="stroke:black; opacity:1;"></rect></g></g>
  <g id="BPs"><g onmousedown="bpmousedown(257,evt);" onmouseover="bpmouseover(257,evt);" onmouseout="bpmouseout(257,evt);" transform="translate(589 334)" opacity="0"><ellipse cx="0" cy="0" rx="16" ry="16" fill="#0ff" style="stroke:none; opacity:0.75;" display="none"></ellipse><ellipse cx="0" cy="0" rx="10" ry="10" fill="#777" style="stroke:black;"></ellipse></g><g onmousedown="bpmousedown(258,evt);" onmouseover="bpmouseover(258,evt);" onmouseout="bpmouseout(258,evt);" transform="translate(589 63)" opacity="0"><ellipse cx="0" cy="0" rx="16" ry="16" fill="#0ff" style="stroke:none; opacity:0.75;" display="none"></ellipse><ellipse cx="0" cy="0" rx="10" ry="10" fill="#777" style="stroke:black;"></ellipse></g><g onmousedown="bpmousedown(261,evt);" onmouseover="bpmouseover(261,evt);" onmouseout="bpmouseout(261,evt);" transform="translate(525 28)" opacity="0"><ellipse cx="0" cy="0" rx="16" ry="16" fill="#0ff" style="stroke:none; opacity:0.75;" display="none"></ellipse><ellipse cx="0" cy="0" rx="10" ry="10" fill="#777" style="stroke:black;"></ellipse></g><g onmousedown="bpmousedown(262,evt);" onmouseover="bpmouseover(262,evt);" onmouseout="bpmouseout(262,evt);" transform="translate(176 28)" opacity="0"><ellipse cx="0" cy="0" rx="16" ry="16" fill="#0ff" style="stroke:none; opacity:0.75;" display="none"></ellipse><ellipse cx="0" cy="0" rx="10" ry="10" fill="#777" style="stroke:black;"></ellipse></g><g onmousedown="bpmousedown(263,evt);" onmouseover="bpmouseover(263,evt);" onmouseout="bpmouseout(263,evt);" transform="translate(176 79)" opacity="0"><ellipse cx="0" cy="0" rx="16" ry="16" fill="#0ff" style="stroke:none; opacity:0.75;" display="none"></ellipse><ellipse cx="0" cy="0" rx="10" ry="10" fill="#777" style="stroke:black;"></ellipse></g><g onmousedown="bpmousedown(268,evt);" onmouseover="bpmouseover(268,evt);" onmouseout="bpmouseout(268,evt);" transform="translate(480 334)" opacity="0"><ellipse cx="0" cy="0" rx="16" ry="16" fill="#0ff" style="stroke:none; opacity:0.75;" display="none"></ellipse><ellipse cx="0" cy="0" rx="10" ry="10" fill="#777" style="stroke:black;"></ellipse></g><g onmousedown="bpmousedown(273,evt);" onmouseover="bpmouseover(273,evt);" onmouseout="bpmouseout(273,evt);" transform="translate(339 246)" opacity="0"><ellipse cx="0" cy="0" rx="16" ry="16" fill="#0ff" style="stroke:none; opacity:0.75;" display="none"></ellipse><ellipse cx="0" cy="0" rx="10" ry="10" fill="#777" style="stroke:black;"></ellipse></g><g onmousedown="bpmousedown(274,evt);" onmouseover="bpmouseover(274,evt);" onmouseout="bpmouseout(274,evt);" transform="translate(339 206)" opacity="0"><ellipse cx="0" cy="0" rx="16" ry="16" fill="#0ff" style="stroke:none; opacity:0.75;" display="none"></ellipse><ellipse cx="0" cy="0" rx="10" ry="10" fill="#777" style="stroke:black;"></ellipse></g><g onmousedown="bpmousedown(277,evt);" onmouseover="bpmouseover(277,evt);" onmouseout="bpmouseout(277,evt);" transform="translate(289 265)" opacity="0"><ellipse cx="0" cy="0" rx="16" ry="16" fill="#0ff" style="stroke:none; opacity:0.75;" display="none"></ellipse><ellipse cx="0" cy="0" rx="10" ry="10" fill="#777" style="stroke:black;"></ellipse></g><g onmousedown="bpmousedown(278,evt);" onmouseover="bpmouseover(278,evt);" onmouseout="bpmouseout(278,evt);" transform="translate(296 265)" opacity="0"><ellipse cx="0" cy="0" rx="16" ry="16" fill="#0ff" style="stroke:none; opacity:0.75;" display="none"></ellipse><ellipse cx="0" cy="0" rx="10" ry="10" fill="#777" style="stroke:black;"></ellipse></g><g onmousedown="bpmousedown(281,evt);" onmouseover="bpmouseover(281,evt);" onmouseout="bpmouseout(281,evt);" transform="translate(202 123)" opacity="0"><ellipse cx="0" cy="0" rx="16" ry="16" fill="#0ff" style="stroke:none; opacity:0.75;" display="none"></ellipse><ellipse cx="0" cy="0" rx="10" ry="10" fill="#777" style="stroke:black;"></ellipse></g><g onmousedown="bpmousedown(284,evt);" onmouseover="bpmouseover(284,evt);" onmouseout="bpmouseout(284,evt);" transform="translate(130 57)" opacity="0"><ellipse cx="0" cy="0" rx="16" ry="16" fill="#0ff" style="stroke:none; opacity:0.75;" display="none"></ellipse><ellipse cx="0" cy="0" rx="10" ry="10" fill="#777" style="stroke:black;"></ellipse></g><g onmousedown="bpmousedown(287,evt);" onmouseover="bpmouseover(287,evt);" onmouseout="bpmouseout(287,evt);" transform="translate(63 57)" opacity="0"><ellipse cx="0" cy="0" rx="16" ry="16" fill="#0ff" style="stroke:none; opacity:0.75;" display="none"></ellipse><ellipse cx="0" cy="0" rx="10" ry="10" fill="#777" style="stroke:black;"></ellipse></g><g onmousedown="bpmousedown(288,evt);" onmouseover="bpmouseover(288,evt);" onmouseout="bpmouseout(288,evt);" transform="translate(63 230)" opacity="0"><ellipse cx="0" cy="0" rx="16" ry="16" fill="#0ff" style="stroke:none; opacity:0.75;" display="none"></ellipse><ellipse cx="0" cy="0" rx="10" ry="10" fill="#777" style="stroke:black;"></ellipse></g><g onmousedown="bpmousedown(291,evt);" onmouseover="bpmouseover(291,evt);" onmouseout="bpmouseout(291,evt);" transform="translate(133 258)" opacity="0"><ellipse cx="0" cy="0" rx="16" ry="16" fill="#0ff" style="stroke:none; opacity:0.75;" display="none"></ellipse><ellipse cx="0" cy="0" rx="10" ry="10" fill="#777" style="stroke:black;"></ellipse></g></g>
  <g id="ports"></g>
</g>
</svg>