<svg id="SVGCanvas" width="480px" height="270px" xmlns="http://www.w3.org/2000/svg" xmlns:xlink="http://www.w3.org/1999/xlink">
<rect id="background" x="0" y="0" height="100%" width="100%" fill="#bdbddf" onmousedown="bgmousedown(evt)"></rect>
<g id="foreground" transform="translate(37.72727272727275,0),scale(0.9090909090909091),translate(-122,-250)">
  <g id="edges"><g id="305"><path style="stroke:#bdbddf; stroke-width:8px; fill:none;" opacity="0.7" d="M 152,274L 530,274"></path><g><path style="stroke:#ff0; stroke-width:8px; fill:none; " opacity="0" d="M 152,274L 530,274"></path></g><path style="stroke:black; fill:none;" d="M 152,274L 530,274"></path><g><g><path style="stroke:#0ff; stroke-width:8px; fill:none; " opacity="0" d="M 152,274 L 530,274" onmousedown="segmousedown(&quot;305&quot;,&quot;0&quot;,evt);" onmouseover="segmouseover(&quot;305&quot;,&quot;0&quot;,evt);" onmouseout="segmouseout(&quot;305&quot;,&quot;0&quot;,evt);" onclick="segclick(&quot;305&quot;,&quot;0&quot;,evt);"></path></g></g></g><g id="306"><path style="stroke:#bdbddf; stroke-width:8px; fill:none;" opacity="0.7" d="M 530,280 V 387.5 a 3.5,3.5 0 0,0 3.5,3.5 H 533.5 a 3.5,3.5 0 0,1 3.5,3.5L 537,517"></path><g><path style="stroke:#ff0; stroke-width:8px; fill:none; " opacity="0" d="M 530,280 V 387.5 a 3.5,3.5 0 0,0 3.5,3.5 H 533.5 a 3.5,3.5 0 0,1 3.5,3.5L 537,517"></path></g><path style="stroke:black; fill:none;" d="M 530,280 V 387.5 a 3.5,3.5 0 0,0 3.5,3.5 H 533.5 a 3.5,3.5 0 0,1 3.5,3.5L 537,517"></path><g><g><path style="stroke:#0ff; stroke-width:8px; fill:none; " opacity="0" d="M 530,280 L 530,391" onmousedown="segmousedown(&quot;306&quot;,&quot;0&quot;,evt);" onmouseover="segmouseover(&quot;306&quot;,&quot;0&quot;,evt);" onmouseout="segmouseout(&quot;306&quot;,&quot;0&quot;,evt);" onclick="segclick(&quot;306&quot;,&quot;0&quot;,evt);"></path><path style="stroke:#0ff; stroke-width:8px; fill:none; " opacity="0" d="M 530,391 L 537,391" onmousedown="segmousedown(&quot;306&quot;,&quot;1&quot;,evt);" onmouseover="segmouseover(&quot;306&quot;,&quot;1&quot;,evt);" onmouseout="segmouseout(&quot;306&quot;,&quot;1&quot;,evt);" onclick="segclick(&quot;306&quot;,&quot;1&quot;,evt);"></path><path style="stroke:#0ff; stroke-width:8px; fill:none; " opacity="0" d="M 537,391 L 537,517" onmousedown="segmousedown(&quot;306&quot;,&quot;2&quot;,evt);" onmouseover="segmouseover(&quot;306&quot;,&quot;2&quot;,evt);" onmouseout="segmouseout(&quot;306&quot;,&quot;2&quot;,evt);" onclick="segclick(&quot;306&quot;,&quot;2&quot;,evt);"></path></g></g></g><g id="307"><path style="stroke:#bdbddf; stroke-width:8px; fill:none;" opacity="0.7" d="M 537,517 H 448.5 a 7.5,7.5 0 0,1 -7.5,-7.5 V 509.5 a 7.5,7.5 0 0,0 -7.5,-7.5L 353,502"></path><g><path style="stroke:#ff0; stroke-width:8px; fill:none; " opacity="0" d="M 537,517 H 448.5 a 7.5,7.5 0 0,1 -7.5,-7.5 V 509.5 a 7.5,7.5 0 0,0 -7.5,-7.5L 353,502"></path></g><path style="stroke:black; fill:none;" d="M 537,517 H 448.5 a 7.5,7.5 0 0,1 -7.5,-7.5 V 509.5 a 7.5,7.5 0 0,0 -7.5,-7.5L 353,502"></path><g><g><path style="stroke:#0ff; stroke-width:8px; fill:none; " opacity="0" d="M 537,517 L 441,517" onmousedown="segmousedown(&quot;307&quot;,&quot;0&quot;,evt);" onmouseover="segmouseover(&quot;307&quot;,&quot;0&quot;,evt);" onmouseout="segmouseout(&quot;307&quot;,&quot;0&quot;,evt);" onclick="segclick(&quot;307&quot;,&quot;0&quot;,evt);"></path><path style="stroke:#0ff; stroke-width:8px; fill:none; " opacity="0" d="M 441,517 L 441,502" onmousedown="segmousedown(&quot;307&quot;,&quot;1&quot;,evt);" onmouseover="segmouseover(&quot;307&quot;,&quot;1&quot;,evt);" onmouseout="segmouseout(&quot;307&quot;,&quot;1&quot;,evt);" onclick="segclick(&quot;307&quot;,&quot;1&quot;,evt);"></path><path style="stroke:#0ff; stroke-width:8px; fill:none; " opacity="0" d="M 441,502 L 353,502" onmousedown="segmousedown(&quot;307&quot;,&quot;2&quot;,evt);" onmouseover="segmouseover(&quot;307&quot;,&quot;2&quot;,evt);" onmouseout="segmouseout(&quot;307&quot;,&quot;2&quot;,evt);" onclick="segclick(&quot;307&quot;,&quot;2&quot;,evt);"></path></g></g></g><g id="308"><path style="stroke:#bdbddf; stroke-width:8px; fill:none;" opacity="0.7" d="M 353,502 H 291.5 a 4.5,4.5 0 0,0 -4.5,4.5 V 506.5 a 4.5,4.5 0 0,1 -4.5,4.5L 222,511"></path><g><path style="stroke:#ff0; stroke-width:8px; fill:none; " opacity="0" d="M 353,502 H 291.5 a 4.5,4.5 0 0,0 -4.5,4.5 V 506.5 a 4.5,4.5 0 0,1 -4.5,4.5L 222,511"></path></g><path style="stroke:black; fill:none;" d="M 353,502 H 291.5 a 4.5,4.5 0 0,0 -4.5,4.5 V 506.5 a 4.5,4.5 0 0,1 -4.5,4.5L 222,511"></path><g><g><path style="stroke:#0ff; stroke-width:8px; fill:none; " opacity="0" d="M 353,502 L 287,502" onmousedown="segmousedown(&quot;308&quot;,&quot;0&quot;,evt);" onmouseover="segmouseover(&quot;308&quot;,&quot;0&quot;,evt);" onmouseout="segmouseout(&quot;308&quot;,&quot;0&quot;,evt);" onclick="segclick(&quot;308&quot;,&quot;0&quot;,evt);"></path><path style="stroke:#0ff; stroke-width:8px; fill:none; " opacity="0" d="M 287,502 L 287,511" onmousedown="segmousedown(&quot;308&quot;,&quot;1&quot;,evt);" onmouseover="segmouseover(&quot;308&quot;,&quot;1&quot;,evt);" onmouseout="segmouseout(&quot;308&quot;,&quot;1&quot;,evt);" onclick="segclick(&quot;308&quot;,&quot;1&quot;,evt);"></path><path style="stroke:#0ff; stroke-width:8px; fill:none; " opacity="0" d="M 287,511 L 222,511" onmousedown="segmousedown(&quot;308&quot;,&quot;2&quot;,evt);" onmouseover="segmouseover(&quot;308&quot;,&quot;2&quot;,evt);" onmouseout="segmouseout(&quot;308&quot;,&quot;2&quot;,evt);" onclick="segclick(&quot;308&quot;,&quot;2&quot;,evt);"></path></g></g></g><g id="309"><path style="stroke:#bdbddf; stroke-width:8px; fill:none;" opacity="0.7" d="M 222,511 V 467 a 10,10 0 0,0 -10,-10 H 212 a 10,10 0 0,1 -10,-10L 202,403"></path><g><path style="stroke:#ff0; stroke-width:8px; fill:none; " opacity="0" d="M 222,511 V 467 a 10,10 0 0,0 -10,-10 H 212 a 10,10 0 0,1 -10,-10L 202,403"></path></g><path style="stroke:black; fill:none;" d="M 222,511 V 467 a 10,10 0 0,0 -10,-10 H 212 a 10,10 0 0,1 -10,-10L 202,403"></path><g><g><path style="stroke:#0ff; stroke-width:8px; fill:none; " opacity="0" d="M 222,511 L 222,457" onmousedown="segmousedown(&quot;309&quot;,&quot;0&quot;,evt);" onmouseover="segmouseover(&quot;309&quot;,&quot;0&quot;,evt);" onmouseout="segmouseout(&quot;309&quot;,&quot;0&quot;,evt);" onclick="segclick(&quot;309&quot;,&quot;0&quot;,evt);"></path><path style="stroke:#0ff; stroke-width:8px; fill:none; " opacity="0" d="M 222,457 L 202,457" onmousedown="segmousedown(&quot;309&quot;,&quot;1&quot;,evt);" onmouseover="segmouseover(&quot;309&quot;,&quot;1&quot;,evt);" onmouseout="segmouseout(&quot;309&quot;,&quot;1&quot;,evt);" onclick="segclick(&quot;309&quot;,&quot;1&quot;,evt);"></path><path style="stroke:#0ff; stroke-width:8px; fill:none; " opacity="0" d="M 202,457 L 202,403" onmousedown="segmousedown(&quot;309&quot;,&quot;2&quot;,evt);" onmouseover="segmouseover(&quot;309&quot;,&quot;2&quot;,evt);" onmouseout="segmouseout(&quot;309&quot;,&quot;2&quot;,evt);" onclick="segclick(&quot;309&quot;,&quot;2&quot;,evt);"></path></g></g></g><g id="310"><path style="stroke:#bdbddf; stroke-width:8px; fill:none;" opacity="0.7" d="M 202,403 V 353 a 12,12 0 0,0 -12,-12 H 164 a 12,12 0 0,1 -12,-12L 152,280"></path><g><path style="stroke:#ff0; stroke-width:8px; fill:none; " opacity="0" d="M 202,403 V 353 a 12,12 0 0,0 -12,-12 H 164 a 12,12 0 0,1 -12,-12L 152,280"></path></g><path style="stroke:black; fill:none;" d="M 202,403 V 353 a 12,12 0 0,0 -12,-12 H 164 a 12,12 0 0,1 -12,-12L 152,280"></path><g><g><path style="stroke:#0ff; stroke-width:8px; fill:none; " opacity="0" d="M 202,403 L 202,341" onmousedown="segmousedown(&quot;310&quot;,&quot;0&quot;,evt);" onmouseover="segmouseover(&quot;310&quot;,&quot;0&quot;,evt);" onmouseout="segmouseout(&quot;310&quot;,&quot;0&quot;,evt);" onclick="segclick(&quot;310&quot;,&quot;0&quot;,evt);"></path><path style="stroke:#0ff; stroke-width:8px; fill:none; " opacity="0" d="M 202,341 L 152,341" onmousedown="segmousedown(&quot;310&quot;,&quot;1&quot;,evt);" onmouseover="segmouseover(&quot;310&quot;,&quot;1&quot;,evt);" onmouseout="segmouseout(&quot;310&quot;,&quot;1&quot;,evt);" onclick="segclick(&quot;310&quot;,&quot;1&quot;,evt);"></path><path style="stroke:#0ff; stroke-width:8px; fill:none; " opacity="0" d="M 152,341 L 152,280" onmousedown="segmousedown(&quot;310&quot;,&quot;2&quot;,evt);" onmouseover="segmouseover(&quot;310&quot;,&quot;2&quot;,evt);" onmouseout="segmouseout(&quot;310&quot;,&quot;2&quot;,evt);" onclick="segclick(&quot;310&quot;,&quot;2&quot;,evt);"></path></g></g></g><g id="311"><path style="stroke:#bdbddf; stroke-width:8px; fill:none;" opacity="0.7" d="M 202,403L 354,403"></path><g><path style="stroke:#ff0; stroke-width:8px; fill:none; " opacity="0" d="M 202,403L 354,403"></path></g><path style="stroke:black; fill:none;" d="M 202,403L 354,403"></path><g><g><path style="stroke:#0ff; stroke-width:8px; fill:none; " opacity="0" d="M 202,403 L 354,403" onmousedown="segmousedown(&quot;311&quot;,&quot;0&quot;,evt);" onmouseover="segmouseover(&quot;311&quot;,&quot;0&quot;,evt);" onmouseout="segmouseout(&quot;311&quot;,&quot;0&quot;,evt);" onclick="segclick(&quot;311&quot;,&quot;0&quot;,evt);"></path></g></g></g><g id="312"><path style="stroke:#bdbddf; stroke-width:8px; fill:none;" opacity="0.7" d="M 430,353 V 386 a 12,12 0 0,0 12,12 H 443 a 12,12 0 0,1 12,12L 455,467"></path><g><path style="stroke:#ff0; stroke-width:8px; fill:none; " opacity="0" d="M 430,353 V 386 a 12,12 0 0,0 12,12 H 443 a 12,12 0 0,1 12,12L 455,467"></path></g><path style="stroke:black; fill:none;" d="M 430,353 V 386 a 12,12 0 0,0 12,12 H 443 a 12,12 0 0,1 12,12L 455,467"></path><g><g><path style="stroke:#0ff; stroke-width:8px; fill:none; " opacity="0" d="M 430,353 L 430,398" onmousedown="segmousedown(&quot;312&quot;,&quot;0&quot;,evt);" onmouseover="segmouseover(&quot;312&quot;,&quot;0&quot;,evt);" onmouseout="segmouseout(&quot;312&quot;,&quot;0&quot;,evt);" onclick="segclick(&quot;312&quot;,&quot;0&quot;,evt);"></path><path style="stroke:#0ff; stroke-width:8px; fill:none; " opacity="0" d="M 430,398 L 455,398" onmousedown="segmousedown(&quot;312&quot;,&quot;1&quot;,evt);" onmouseover="segmouseover(&quot;312&quot;,&quot;1&quot;,evt);" onmouseout="segmouseout(&quot;312&quot;,&quot;1&quot;,evt);" onclick="segclick(&quot;312&quot;,&quot;1&quot;,evt);"></path><path style="stroke:#0ff; stroke-width:8px; fill:none; " opacity="0" d="M 455,398 L 455,467" onmousedown="segmousedown(&quot;312&quot;,&quot;2&quot;,evt);" onmouseover="segmouseover(&quot;312&quot;,&quot;2&quot;,evt);" onmouseout="segmouseout(&quot;312&quot;,&quot;2&quot;,evt);" onclick="segclick(&quot;312&quot;,&quot;2&quot;,evt);"></path></g></g></g><g id="313"><path style="stroke:#bdbddf; stroke-width:8px; fill:none;" opacity="0.7" d="M 455,476 H 377.5 a 6.5,6.5 0 0,1 -6.5,-6.5 V 469.5 a 6.5,6.5 0 0,0 -6.5,-6.5L 294,463"></path><g><path style="stroke:#ff0; stroke-width:8px; fill:none; " opacity="0" d="M 455,476 H 377.5 a 6.5,6.5 0 0,1 -6.5,-6.5 V 469.5 a 6.5,6.5 0 0,0 -6.5,-6.5L 294,463"></path></g><path style="stroke:black; fill:none;" d="M 455,476 H 377.5 a 6.5,6.5 0 0,1 -6.5,-6.5 V 469.5 a 6.5,6.5 0 0,0 -6.5,-6.5L 294,463"></path><g><g><path style="stroke:#0ff; stroke-width:8px; fill:none; " opacity="0" d="M 455,476 L 371,476" onmousedown="segmousedown(&quot;313&quot;,&quot;0&quot;,evt);" onmouseover="segmouseover(&quot;313&quot;,&quot;0&quot;,evt);" onmouseout="segmouseout(&quot;313&quot;,&quot;0&quot;,evt);" onclick="segclick(&quot;313&quot;,&quot;0&quot;,evt);"></path><path style="stroke:#0ff; stroke-width:8px; fill:none; " opacity="0" d="M 371,476 L 371,463" onmousedown="segmousedown(&quot;313&quot;,&quot;1&quot;,evt);" onmouseover="segmouseover(&quot;313&quot;,&quot;1&quot;,evt);" onmouseout="segmouseout(&quot;313&quot;,&quot;1&quot;,evt);" onclick="segclick(&quot;313&quot;,&quot;1&quot;,evt);"></path><path style="stroke:#0ff; stroke-width:8px; fill:none; " opacity="0" d="M 371,463 L 294,463" onmousedown="segmousedown(&quot;313&quot;,&quot;2&quot;,evt);" onmouseover="segmouseover(&quot;313&quot;,&quot;2&quot;,evt);" onmouseout="segmouseout(&quot;313&quot;,&quot;2&quot;,evt);" onclick="segclick(&quot;313&quot;,&quot;2&quot;,evt);"></path></g></g></g><g id="314"><path style="stroke:#bdbddf; stroke-width:8px; fill:none;" opacity="0.7" d="M 430,353 H 395 a 12,12 0 0,1 -12,-12 V 340 a 12,12 0 0,0 -12,-12L 318,328"></path><g><path style="stroke:#ff0; stroke-width:8px; fill:none; " opacity="0" d="M 430,353 H 395 a 12,12 0 0,1 -12,-12 V 340 a 12,12 0 0,0 -12,-12L 318,328"></path></g><path style="stroke:black; fill:none;" d="M 430,353 H 395 a 12,12 0 0,1 -12,-12 V 340 a 12,12 0 0,0 -12,-12L 318,328"></path><g><g><path style="stroke:#0ff; stroke-width:8px; fill:none; " opacity="0" d="M 430,353 L 383,353" onmousedown="segmousedown(&quot;314&quot;,&quot;0&quot;,evt);" onmouseover="segmouseover(&quot;314&quot;,&quot;0&quot;,evt);" onmouseout="segmouseout(&quot;314&quot;,&quot;0&quot;,evt);" onclick="segclick(&quot;314&quot;,&quot;0&quot;,evt);"></path><path style="stroke:#0ff; stroke-width:8px; fill:none; " opacity="0" d="M 383,353 L 383,328" onmousedown="segmousedown(&quot;314&quot;,&quot;1&quot;,evt);" onmouseover="segmouseover(&quot;314&quot;,&quot;1&quot;,evt);" onmouseout="segmouseout(&quot;314&quot;,&quot;1&quot;,evt);" onclick="segclick(&quot;314&quot;,&quot;1&quot;,evt);"></path><path style="stroke:#0ff; stroke-width:8px; fill:none; " opacity="0" d="M 383,328 L 318,328" onmousedown="segmousedown(&quot;314&quot;,&quot;2&quot;,evt);" onmouseover="segmouseover(&quot;314&quot;,&quot;2&quot;,evt);" onmouseout="segmouseout(&quot;314&quot;,&quot;2&quot;,evt);" onclick="segclick(&quot;314&quot;,&quot;2&quot;,evt);"></path></g></g></g><g id="315"><path style="stroke:#bdbddf; stroke-width:8px; fill:none;" opacity="0.7" d="M 530,286 H 501 a 12,12 0 0,0 -12,12 V 341 a 12,12 0 0,1 -12,12L 430,353"></path><g><path style="stroke:#ff0; stroke-width:8px; fill:none; " opacity="0" d="M 530,286 H 501 a 12,12 0 0,0 -12,12 V 341 a 12,12 0 0,1 -12,12L 430,353"></path></g><path style="stroke:black; fill:none;" d="M 530,286 H 501 a 12,12 0 0,0 -12,12 V 341 a 12,12 0 0,1 -12,12L 430,353"></path><g><g><path style="stroke:#0ff; stroke-width:8px; fill:none; " opacity="0" d="M 530,286 L 489,286" onmousedown="segmousedown(&quot;315&quot;,&quot;0&quot;,evt);" onmouseover="segmouseover(&quot;315&quot;,&quot;0&quot;,evt);" onmouseout="segmouseout(&quot;315&quot;,&quot;0&quot;,evt);" onclick="segclick(&quot;315&quot;,&quot;0&quot;,evt);"></path><path style="stroke:#0ff; stroke-width:8px; fill:none; " opacity="0" d="M 489,286 L 489,353" onmousedown="segmousedown(&quot;315&quot;,&quot;1&quot;,evt);" onmouseover="segmouseover(&quot;315&quot;,&quot;1&quot;,evt);" onmouseout="segmouseout(&quot;315&quot;,&quot;1&quot;,evt);" onclick="segclick(&quot;315&quot;,&quot;1&quot;,evt);"></path><path style="stroke:#0ff; stroke-width:8px; fill:none; " opacity="0" d="M 489,353 L 430,353" onmousedown="segmousedown(&quot;315&quot;,&quot;2&quot;,evt);" onmouseover="segmouseover(&quot;315&quot;,&quot;2&quot;,evt);" onmouseout="segmouseout(&quot;315&quot;,&quot;2&quot;,evt);" onclick="segclick(&quot;315&quot;,&quot;2&quot;,evt);"></path></g></g></g><g id="316"><path style="stroke:#bdbddf; stroke-width:8px; fill:none;" opacity="0.7" d="M 354,403L 354,499"></path><g><path style="stroke:#ff0; stroke-width:8px; fill:none; " opacity="0" d="M 354,403L 354,499"></path></g><path style="stroke:black; fill:none;" d="M 354,403L 354,499"></path><g><g><path style="stroke:#0ff; stroke-width:8px; fill:none; " opacity="0" d="M 354,403 L 354,499" onmousedown="segmousedown(&quot;316&quot;,&quot;0&quot;,evt);" onmouseover="segmouseover(&quot;316&quot;,&quot;0&quot;,evt);" onmouseout="segmouseout(&quot;316&quot;,&quot;0&quot;,evt);" onclick="segclick(&quot;316&quot;,&quot;0&quot;,evt);"></path></g></g></g><g id="317"><path style="stroke:#bdbddf; stroke-width:8px; fill:none;" opacity="0.7" d="M 455,457L 395,457"></path><g><path style="stroke:#ff0; stroke-width:8px; fill:none; " opacity="0" d="M 455,457L 395,457"></path></g><path style="stroke:black; fill:none;" d="M 455,457L 395,457"></path><g><g><path style="stroke:#0ff; stroke-width:8px; fill:none; " opacity="0" d="M 455,457 L 395,457" onmousedown="segmousedown(&quot;317&quot;,&quot;0&quot;,evt);" onmouseover="segmouseover(&quot;317&quot;,&quot;0&quot;,evt);" onmouseout="segmouseout(&quot;317&quot;,&quot;0&quot;,evt);" onclick="segclick(&quot;317&quot;,&quot;0&quot;,evt);"></path></g></g></g></g>
  <g id="nodes"><g id="293" onmousedown="nodemousedown(293,evt);" onmouseover="nodemouseover(293,evt);" onmouseout="nodemouseout(293,evt);" transform="translate(152 280)"><rect x="-21" y="-21" width="42" height="42" fill="#0ff" style="stroke:none; opacity:0.75;" display="none"></rect><rect x="-15" y="-15" width="30" height="30" fill="#f0f0d2" style="stroke:black; opacity:1;"></rect></g><g id="294" onmousedown="nodemousedown(294,evt);" onmouseover="nodemouseover(294,evt);" onmouseout="nodemouseout(294,evt);" transform="translate(530 280)"><rect x="-21" y="-21" width="42" height="42" fill="#0ff" style="stroke:none; opacity:0.75;" display="none"></rect><rect x="-15" y="-15" width="30" height="30" fill="#f0f0d2" style="stroke:black; opacity:1;"></rect></g><g id="295" onmousedown="nodemousedown(295,evt);" onmouseover="nodemouseover(295,evt);" onmouseout="nodemouseout(295,evt);" transform="translate(222 511)"><rect x="-21" y="-21" width="42" height="42" fill="#0ff" style="stroke:none; opacity:0.75;" display="none"></rect><rect x="-15" y="-15" width="30" height="30" fill="#f0f0d2" style="stroke:black; opacity:1;"></rect></g><g id="296" onmousedown="nodemousedown(296,evt);" onmouseover="nodemouseover(296,evt);" onmouseout="nodemouseout(296,evt);" transform="translate(537 517)"><rect x="-21" y="-21" width="42" height="42" fill="#0ff" style="stroke:none; opacity:0.75;" display="none"></rect><rect x="-15" y="-15" width="30" height="30" fill="#f0f0d2" style="stroke:black; opacity:1;"></rect></g><g id="297" onmousedown="nodemousedown(297,evt);" onmouseover="nodemouseover(297,evt);" onmouseout="nodemouseout(297,evt);" transform="translate(202 403)"><rect x="-21" y="-21" width="42" height="42" fill="#0ff" style="stroke:none; opacity:0.75;" display="none"></rect><rect x="-15" y="-15" width="30" height="30" fill="#f0f0d2" style="stroke:black; opacity:1;"></rect></g><g id="298" onmousedown="nodemousedown(298,evt);" onmouseover="nodemouseover(298,evt);" onmouseout="nodemouseout(298,evt);" transform="translate(354 403)"><rect x="-21" y="-21" width="42" height="42" fill="#0ff" style="stroke:none; opacity:0.75;" display="none"></rect><rect x="-15" y="-15" width="30" height="30" fill="#f0f0d2" style="stroke:black; opacity:1;"></rect></g><g id="299" onmousedown="nodemousedown(299,evt);" onmouseover="nodemouseover(299,evt);" onmouseout="nodemouseout(299,evt);" transform="translate(353 502)"><rect x="-21" y="-21" width="42" height="42" fill="#0ff" style="stroke:none; opacity:0.75;" display="none"></rect><rect x="-15" y="-15" width="30" height="30" fill="#f0f0d2" style="stroke:black; opacity:1;"></rect></g><g id="300" onmousedown="nodemousedown(300,evt);" onmouseover="nodemouseover(300,evt);" onmouseout="nodemouseout(300,evt);" transform="translate(430 353)"><rect x="-21" y="-21" width="42" height="42" fill="#0ff" style="stroke:none; opacity:0.75;" display="none"></rect><rect x="-15" y="-15" width="30" height="30" fill="#f0f0d2" style="stroke:black; opacity:1;"></rect></g><g id="301" onmousedown="nodemousedown(301,evt);" onmouseover="nodemouseover(301,evt);" onmouseout="nodemouseout(301,evt);" transform="translate(318 328)"><rect x="-21" y="-21" width="42" height="42" fill="#0ff" style="stroke:none; opacity:0.75;" display="none"></rect><rect x="-15" y="-15" width="30" height="30" fill="#f0f0d2" style="stroke:black; opacity:1;"></rect></g><g id="302" onmousedown="nodemousedown(302,evt);" onmouseover="nodemouseover(302,evt);" onmouseout="nodemouseout(302,evt);" transform="translate(455 467)"><rect x="-21" y="-21" width="42" height="42" fill="#0ff" style="stroke:none; opacity:0.75;" display="none"></rect><rect x="-15" y="-15" width="30" height="30" fill="#f0f0d2" style="stroke:black; opacity:1;"></rect></g><g id="303" onmousedown="nodemousedown(303,evt);" onmouseover="nodemouseover(303,evt);" onmouseout="nodemouseout(303,evt);" transform="translate(294 463)"><rect x="-21" y="-21" width="42" height="42" fill="#0ff" style="stroke:none; opacity:0.75;" display="none"></rect><rect x="-15" y="-15" width="30" height="30" fill="#f0f0d2" style="stroke:black; opacity:1;"></rect></g><g id="304" onmousedown="nodemousedown(304,evt);" onmouseover="nodemouseover(304,evt);" onmouseout="nodemouseout(304,evt);" transform="translate(395 451)"><rect x="-21" y="-21" width="42" height="42" fill="#0ff" style="stroke:none; opacity:0.75;" display="none"></rect><rect x="-15" y="-15" width="30" height="30" fill="#f0f0d2" style="stroke:black; opacity:1;"></rect></g></g>
  <g id="BPs"><g onmousedown="bpmousedown(322,evt);" onmouseover="bpmouseover(322,evt);" onmouseout="bpmouseout(322,evt);" transform="translate(530 391)" opacity="0"><ellipse cx="0" cy="0" rx="16" ry="16" fill="#0ff" style="stroke:none; opacity:0.75;" display="none"></ellipse><ellipse cx="0" cy="0" rx="10" ry="10" fill="#777" style="stroke:black;"></ellipse></g><g onmousedown="bpmousedown(323,evt);" onmouseover="bpmouseover(323,evt);" onmouseout="bpmouseout(323,evt);" transform="translate(537 391)" opacity="0"><ellipse cx="0" cy="0" rx="16" ry="16" fill="#0ff" style="stroke:none; opacity:0.75;" display="none"></ellipse><ellipse cx="0" cy="0" rx="10" ry="10" fill="#777" style="stroke:black;"></ellipse></g><g onmousedown="bpmousedown(326,evt);" onmouseover="bpmouseover(326,evt);" onmouseout="bpmouseout(326,evt);" transform="translate(441 517)" opacity="0"><ellipse cx="0" cy="0" rx="16" ry="16" fill="#0ff" style="stroke:none; opacity:0.75;" display="none"></ellipse><ellipse cx="0" cy="0" rx="10" ry="10" fill="#777" style="stroke:black;"></ellipse></g><g onmousedown="bpmousedown(327,evt);" onmouseover="bpmouseover(327,evt);" onmouseout="bpmouseout(327,evt);" transform="translate(441 502)" opacity="0"><ellipse cx="0" cy="0" rx="16" ry="16" fill="#0ff" style="stroke:none; opacity:0.75;" display="none"></ellipse><ellipse cx="0" cy="0" rx="10" ry="10" fill="#777" style="stroke:black;"></ellipse></g><g onmousedown="bpmousedown(330,evt);" onmouseover="bpmouseover(330,evt);" onmouseout="bpmouseout(330,evt);" transform="translate(287 502)" opacity="0"><ellipse cx="0" cy="0" rx="16" ry="16" fill="#0ff" style="stroke:none; opacity:0.75;" display="none"></ellipse><ellipse cx="0" cy="0" rx="10" ry="10" fill="#777" style="stroke:black;"></ellipse></g><g onmousedown="bpmousedown(331,evt);" onmouseover="bpmouseover(331,evt);" onmouseout="bpmouseout(331,evt);" transform="translate(287 511)" opacity="0"><ellipse cx="0" cy="0" rx="16" ry="16" fill="#0ff" style="stroke:none; opacity:0.75;" display="none"></ellipse><ellipse cx="0" cy="0" rx="10" ry="10" fill="#777" style="stroke:black;"></ellipse></g><g onmousedown="bpmousedown(334,evt);" onmouseover="bpmouseover(334,evt);" onmouseout="bpmouseout(334,evt);" transform="translate(222 457)" opacity="0"><ellipse cx="0" cy="0" rx="16" ry="16" fill="#0ff" style="stroke:none; opacity:0.75;" display="none"></ellipse><ellipse cx="0" cy="0" rx="10" ry="10" fill="#777" style="stroke:black;"></ellipse></g><g onmousedown="bpmousedown(335,evt);" onmouseover="bpmouseover(335,evt);" onmouseout="bpmouseout(335,evt);" transform="translate(202 457)" opacity="0"><ellipse cx="0" cy="0" rx="16" ry="16" fill="#0ff" style="stroke:none; opacity:0.75;" display="none"></ellipse><ellipse cx="0" cy="0" rx="10" ry="10" fill="#777" style="stroke:black;"></ellipse></g><g onmousedown="bpmousedown(338,evt);" onmouseover="bpmouseover(338,evt);" onmouseout="bpmouseout(338,evt);" transform="translate(202 341)" opacity="0"><ellipse cx="0" cy="0" rx="16" ry="16" fill="#0ff" style="stroke:none; opacity:0.75;" display="none"></ellipse><ellipse cx="0" cy="0" rx="10" ry="10" fill="#777" style="stroke:black;"></ellipse></g><g onmousedown="bpmousedown(339,evt);" onmouseover="bpmouseover(339,evt);" onmouseout="bpmouseout(339,evt);" transform="translate(152 341)" opacity="0"><ellipse cx="0" cy="0" rx="16" ry="16" fill="#0ff" style="stroke:none; opacity:0.75;" display="none"></ellipse><ellipse cx="0" cy="0" rx="10" ry="10" fill="#777" style="stroke:black;"></ellipse></g><g onmousedown="bpmousedown(344,evt);" onmouseover="bpmouseover(344,evt);" onmouseout="bpmouseout(344,evt);" transform="translate(430 398)" opacity="0"><ellipse cx="0" cy="0" rx="16" ry="16" fill="#0ff" style="stroke:none; opacity:0.75;" display="none"></ellipse><ellipse cx="0" cy="0" rx="10" ry="10" fill="#777" style="stroke:black;"></ellipse></g><g onmousedown="bpmousedown(345,evt);" onmouseover="bpmouseover(345,evt);" onmouseout="bpmouseout(345,evt);" transform="translate(455 398)" opacity="0"><ellipse cx="0" cy="0" rx="16" ry="16" fill="#0ff" style="stroke:none; opacity:0.75;" display="none"></ellipse><ellipse cx="0" cy="0" rx="10" ry="10" fill="#777" style="stroke:black;"></ellipse></g><g onmousedown="bpmousedown(348,evt);" onmouseover="bpmouseover(348,evt);" onmouseout="bpmouseout(348,evt);" transform="translate(371 476)" opacity="0"><ellipse cx="0" cy="0" rx="16" ry="16" fill="#0ff" style="stroke:none; opacity:0.75;" display="none"></ellipse><ellipse cx="0" cy="0" rx="10" ry="10" fill="#777" style="stroke:black;"></ellipse></g><g onmousedown="bpmousedown(349,evt);" onmouseover="bpmouseover(349,evt);" onmouseout="bpmouseout(349,evt);" transform="translate(371 463)" opacity="0"><ellipse cx="0" cy="0" rx="16" ry="16" fill="#0ff" style="stroke:none; opacity:0.75;" display="none"></ellipse><ellipse cx="0" cy="0" rx="10" ry="10" fill="#777" style="stroke:black;"></ellipse></g><g onmousedown="bpmousedown(352,evt);" onmouseover="bpmouseover(352,evt);" onmouseout="bpmouseout(352,evt);" transform="translate(383 353)" opacity="0"><ellipse cx="0" cy="0" rx="16" ry="16" fill="#0ff" style="stroke:none; opacity:0.75;" display="none"></ellipse><ellipse cx="0" cy="0" rx="10" ry="10" fill="#777" style="stroke:black;"></ellipse></g><g onmousedown="bpmousedown(353,evt);" onmouseover="bpmouseover(353,evt);" onmouseout="bpmouseout(353,evt);" transform="translate(383 328)" opacity="0"><ellipse cx="0" cy="0" rx="16" ry="16" fill="#0ff" style="stroke:none; opacity:0.75;" display="none"></ellipse><ellipse cx="0" cy="0" rx="10" ry="10" fill="#777" style="stroke:black;"></ellipse></g><g onmousedown="bpmousedown(356,evt);" onmouseover="bpmouseover(356,evt);" onmouseout="bpmouseout(356,evt);" transform="translate(489 286)" opacity="0"><ellipse cx="0" cy="0" rx="16" ry="16" fill="#0ff" style="stroke:none; opacity:0.75;" display="none"></ellipse><ellipse cx="0" cy="0" rx="10" ry="10" fill="#777" style="stroke:black;"></ellipse></g><g onmousedown="bpmousedown(357,evt);" onmouseover="bpmouseover(357,evt);" onmouseout="bpmouseout(357,evt);" transform="translate(489 353)" opacity="0"><ellipse cx="0" cy="0" rx="16" ry="16" fill="#0ff" style="stroke:none; opacity:0.75;" display="none"></ellipse><ellipse cx="0" cy="0" rx="10" ry="10" fill="#777" style="stroke:black;"></ellipse></g></g>
  <g id="ports"></g>
</g>
</svg>