<?xml version="1.0" encoding="UTF-8"?>
<svg id="canvasSVG" xmlns="http://www.w3.org/2000/svg" width="1605.0px" height="1345.0px">
<rect x="0" y="0" width="1605.0" height="1345.0" stroke="none" stroke-width="1" id="" onclick="null" fill="#bdbddf"/>
<g id="outerGroup">
<g transform="translate(20.00,20.00),scale(1.00),translate(15.00,15.00)">
    <path d="M 1500.00,575.000000L 1200.00,575.000000" stroke="black" stroke-width="1" fill="none"/>
    <path d="M 975.00,925.000000 H 1181.67 a 10.00,10.00 0 0,0 10.00,-10.00L 1191.67,575.000000" stroke="black" stroke-width="1" fill="none"/>
    <path d="M 975.00,800.000000L 975.00,925.000000" stroke="black" stroke-width="1" fill="none"/>
    <path d="M 1350.00,400.000000 V 135.00 a 10.00,10.00 0 0,0 -10.00,-10.00L 225.00,125.000000" stroke="black" stroke-width="1" fill="none"/>
    <path d="M 225.00,125.000000L 225.00,200.000000" stroke="black" stroke-width="1" fill="none"/>
    <path d="M 150.00,75.000000L 150.00,200.000000" stroke="black" stroke-width="1" fill="none"/>
    <path d="M 1275.00,200.000000L 1275.00,275.000000" stroke="black" stroke-width="1" fill="none"/>
    <path d="M 1200.00,275.000000L 1200.00,200.000000" stroke="black" stroke-width="1" fill="none"/>
    <path d="M 500.00,525.000000L 750.00,525.000000" stroke="black" stroke-width="1" fill="none"/>
    <path d="M 75.00,1125.000000 H 1190.00 a 10.00,10.00 0 0,0 10.00,-10.00L 1200.00,575.000000" stroke="black" stroke-width="1" fill="none"/>
    <path d="M 0.00,1200.000000L 0.00,1275.000000" stroke="black" stroke-width="1" fill="none"/>
    <path d="M 425.00,525.000000L 500.00,525.000000" stroke="black" stroke-width="1" fill="none"/>
    <path d="M 350.00,925.000000L 975.00,925.000000" stroke="black" stroke-width="1" fill="none"/>
    <path d="M 150.00,275.000000 H 93.33 a 10.00,10.00 0 0,0 -10.00,10.00L 83.33,1125.000000" stroke="black" stroke-width="1" fill="none"/>
    <path d="M 1200.00,275.000000L 1200.00,575.000000" stroke="black" stroke-width="1" fill="none"/>
    <path d="M 1350.00,400.000000L 900.00,400.000000" stroke="black" stroke-width="1" fill="none"/>
    <path d="M 75.00,1275.000000L 75.00,1125.000000" stroke="black" stroke-width="1" fill="none"/>
    <path d="M 0.00,975.000000L 0.00,1050.000000" stroke="black" stroke-width="1" fill="none"/>
    <path d="M 1500.00,650.000000L 1500.00,575.000000" stroke="black" stroke-width="1" fill="none"/>
    <path d="M 900.00,600.000000L 900.00,475.000000" stroke="black" stroke-width="1" fill="none"/>
    <path d="M 1350.00,400.000000L 1425.00,400.000000" stroke="black" stroke-width="1" fill="none"/>
    <path d="M 1050.00,800.000000L 1050.00,875.000000" stroke="black" stroke-width="1" fill="none"/>
    <path d="M 825.00,600.000000L 750.00,600.000000" stroke="black" stroke-width="1" fill="none"/>
    <path d="M 350.00,925.000000L 350.00,525.000000" stroke="black" stroke-width="1" fill="none"/>
    <path d="M 900.00,475.000000L 275.00,475.000000" stroke="black" stroke-width="1" fill="none"/>
    <path d="M 150.00,75.000000L 75.00,75.000000" stroke="black" stroke-width="1" fill="none"/>
    <path d="M 1425.00,200.000000L 1275.00,200.000000" stroke="black" stroke-width="1" fill="none"/>
    <path d="M 1500.00,575.000000L 1500.00,200.000000" stroke="black" stroke-width="1" fill="none"/>
    <path d="M 975.00,325.000000L 900.00,325.000000" stroke="black" stroke-width="1" fill="none"/>
    <path d="M 300.00,200.000000L 300.00,75.000000" stroke="black" stroke-width="1" fill="none"/>
    <path d="M 750.00,750.000000L 750.00,675.000000" stroke="black" stroke-width="1" fill="none"/>
    <path d="M 900.00,800.000000L 900.00,600.000000" stroke="black" stroke-width="1" fill="none"/>
    <path d="M 600.00,575.000000 V 543.33 a 10.00,10.00 0 0,1 10.00,-10.00L 750.00,533.333333" stroke="black" stroke-width="1" fill="none"/>
    <path d="M 1050.00,875.000000 H 993.33 a 10.00,10.00 0 0,0 -10.00,10.00L 983.33,925.000000" stroke="black" stroke-width="1" fill="none"/>
    <path d="M 350.00,525.000000L 425.00,525.000000" stroke="black" stroke-width="1" fill="none"/>
    <path d="M 750.00,525.000000 V 287.78 a 10.00,10.00 0 0,1 10.00,-10.00L 1200.00,277.777778" stroke="black" stroke-width="1" fill="none"/>
    <path d="M 1275.00,350.000000L 1275.00,275.000000" stroke="black" stroke-width="1" fill="none"/>
    <path d="M 300.00,75.000000L 150.00,75.000000" stroke="black" stroke-width="1" fill="none"/>
    <path d="M 225.00,200.000000L 225.00,275.000000" stroke="black" stroke-width="1" fill="none"/>
    <path d="M 975.00,800.000000L 1050.00,800.000000" stroke="black" stroke-width="1" fill="none"/>
    <path d="M 75.00,75.000000L 75.00,1125.000000" stroke="black" stroke-width="1" fill="none"/>
    <path d="M 1425.00,400.000000L 1425.00,200.000000" stroke="black" stroke-width="1" fill="none"/>
    <path d="M 975.00,1000.000000L 975.00,1075.000000" stroke="black" stroke-width="1" fill="none"/>
    <path d="M 300.00,200.000000L 225.00,200.000000" stroke="black" stroke-width="1" fill="none"/>
    <path d="M 975.00,1075.000000 H 1540.00 a 10.00,10.00 0 0,0 10.00,-10.00 V 160.00 a 10.00,10.00 0 0,0 -10.00,-10.00 H 1285.00 a 10.00,10.00 0 0,0 -10.00,10.00L 1275.00,200.000000" stroke="black" stroke-width="1" fill="none"/>
    <path d="M 1200.00,200.000000L 1275.00,200.000000" stroke="black" stroke-width="1" fill="none"/>
    <path d="M 150.00,350.000000L 150.00,275.000000" stroke="black" stroke-width="1" fill="none"/>
    <path d="M 900.00,400.000000L 900.00,325.000000" stroke="black" stroke-width="1" fill="none"/>
    <path d="M 0.00,1200.000000L 0.00,1125.000000" stroke="black" stroke-width="1" fill="none"/>
    <path d="M 550.00,800.000000L 900.00,800.000000" stroke="black" stroke-width="1" fill="none"/>
    <path d="M 900.00,800.000000L 975.00,800.000000" stroke="black" stroke-width="1" fill="none"/>
    <path d="M 0.00,1050.000000L 0.00,1125.000000" stroke="black" stroke-width="1" fill="none"/>
    <path d="M 275.00,475.000000 V 990.00 a 10.00,10.00 0 0,0 10.00,10.00L 975.00,1000.000000" stroke="black" stroke-width="1" fill="none"/>
    <path d="M 675.00,675.000000L 750.00,675.000000" stroke="black" stroke-width="1" fill="none"/>
    <path d="M 750.00,600.000000L 750.00,525.000000" stroke="black" stroke-width="1" fill="none"/>
    <path d="M 275.00,475.000000 H 243.33 a 10.00,10.00 0 0,1 -10.00,-10.00L 233.33,275.000000" stroke="black" stroke-width="1" fill="none"/>
    <path d="M 0.00,1125.000000L 75.00,1125.000000" stroke="black" stroke-width="1" fill="none"/>
    <path d="M 1350.00,525.000000L 750.00,525.000000" stroke="black" stroke-width="1" fill="none"/>
    <path d="M 900.00,325.000000 V 290.56 a 10.00,10.00 0 0,1 10.00,-10.00L 1200.00,280.555556" stroke="black" stroke-width="1" fill="none"/>
    <path d="M 225.00,275.000000L 1200.00,275.000000" stroke="black" stroke-width="1" fill="none"/>
    <path d="M 150.00,0.000000L 150.00,75.000000" stroke="black" stroke-width="1" fill="none"/>
    <path d="M 975.00,575.000000L 1050.00,575.000000" stroke="black" stroke-width="1" fill="none"/>
    <path d="M 1050.00,575.000000L 1125.00,575.000000" stroke="black" stroke-width="1" fill="none"/>
    <path d="M 900.00,400.000000L 900.00,475.000000" stroke="black" stroke-width="1" fill="none"/>
    <path d="M 225.00,275.000000 V 1065.00 a 10.00,10.00 0 0,0 10.00,10.00L 975.00,1075.000000" stroke="black" stroke-width="1" fill="none"/>
    <path d="M 300.00,200.000000L 1200.00,200.000000" stroke="black" stroke-width="1" fill="none"/>
    <path d="M 150.00,200.000000L 150.00,275.000000" stroke="black" stroke-width="1" fill="none"/>
    <path d="M 0.00,1275.000000L 75.00,1275.000000" stroke="black" stroke-width="1" fill="none"/>
    <path d="M 1350.00,525.000000L 1350.00,400.000000" stroke="black" stroke-width="1" fill="none"/>
    <path d="M 975.00,1000.000000L 975.00,925.000000" stroke="black" stroke-width="1" fill="none"/>
    <path d="M 1200.00,283.333333 H 1135.00 a 10.00,10.00 0 0,0 -10.00,10.00L 1125.00,575.000000" stroke="black" stroke-width="1" fill="none"/>
    <path d="M 550.00,800.000000 V 539.17 a 10.00,10.00 0 0,1 10.00,-10.00L 750.00,529.166667" stroke="black" stroke-width="1" fill="none"/>
    <path d="M 675.00,600.000000L 750.00,600.000000" stroke="black" stroke-width="1" fill="none"/>
    <path d="M 825.00,600.000000L 900.00,600.000000" stroke="black" stroke-width="1" fill="none"/>
    <path d="M 225.00,275.000000L 150.00,275.000000" stroke="black" stroke-width="1" fill="none"/>
    <path d="M 1275.00,275.000000L 1200.00,275.000000" stroke="black" stroke-width="1" fill="none"/>
    <path d="M 750.00,675.000000L 750.00,600.000000" stroke="black" stroke-width="1" fill="none"/>
    <path d="M 216.67,275.000000 V 1106.67 a 10.00,10.00 0 0,1 -10.00,10.00L 75.00,1116.666667" stroke="black" stroke-width="1" fill="none"/>
    <path d="M 1500.00,200.000000L 1425.00,200.000000" stroke="black" stroke-width="1" fill="none"/>
    <path d="M 1125.00,575.000000L 1200.00,575.000000" stroke="black" stroke-width="1" fill="none"/>
    <rect x="1185.0" y="560.0" width="30.0" height="30.0" stroke="black" stroke-width="1" id="0" onclick="ow3.nodeClick(this)" fill="#f0f0d2"/>

    <rect x="960.0" y="910.0" width="30.0" height="30.0" stroke="black" stroke-width="1" id="1" onclick="ow3.nodeClick(this)" fill="#f0f0d2"/>

    <rect x="1035.0" y="860.0" width="30.0" height="30.0" stroke="black" stroke-width="1" id="2" onclick="ow3.nodeClick(this)" fill="#f0f0d2"/>

    <rect x="60.0" y="1110.0" width="30.0" height="30.0" stroke="black" stroke-width="1" id="3" onclick="ow3.nodeClick(this)" fill="#f0f0d2"/>

    <rect x="1185.0" y="260.0" width="30.0" height="30.0" stroke="black" stroke-width="1" id="4" onclick="ow3.nodeClick(this)" fill="#f0f0d2"/>

    <rect x="-15.0" y="1110.0" width="30.0" height="30.0" stroke="black" stroke-width="1" id="5" onclick="ow3.nodeClick(this)" fill="#f0f0d2"/>

    <rect x="-15.0" y="1035.0" width="30.0" height="30.0" stroke="black" stroke-width="1" id="6" onclick="ow3.nodeClick(this)" fill="#f0f0d2"/>

    <rect x="135.0" y="260.0" width="30.0" height="30.0" stroke="black" stroke-width="1" id="7" onclick="ow3.nodeClick(this)" fill="#f0f0d2"/>

    <rect x="1110.0" y="560.0" width="30.0" height="30.0" stroke="black" stroke-width="1" id="8" onclick="ow3.nodeClick(this)" fill="#f0f0d2"/>

    <rect x="135.0" y="185.0" width="30.0" height="30.0" stroke="black" stroke-width="1" id="9" onclick="ow3.nodeClick(this)" fill="#f0f0d2"/>

    <rect x="1035.0" y="785.0" width="30.0" height="30.0" stroke="black" stroke-width="1" id="10" onclick="ow3.nodeClick(this)" fill="#f0f0d2"/>

    <rect x="885.0" y="310.0" width="30.0" height="30.0" stroke="black" stroke-width="1" id="11" onclick="ow3.nodeClick(this)" fill="#f0f0d2"/>

    <rect x="1260.0" y="260.0" width="30.0" height="30.0" stroke="black" stroke-width="1" id="12" onclick="ow3.nodeClick(this)" fill="#f0f0d2"/>

    <rect x="1260.0" y="185.0" width="30.0" height="30.0" stroke="black" stroke-width="1" id="13" onclick="ow3.nodeClick(this)" fill="#f0f0d2"/>

    <rect x="735.0" y="510.0" width="30.0" height="30.0" stroke="black" stroke-width="1" id="14" onclick="ow3.nodeClick(this)" fill="#f0f0d2"/>

    <rect x="735.0" y="585.0" width="30.0" height="30.0" stroke="black" stroke-width="1" id="15" onclick="ow3.nodeClick(this)" fill="#f0f0d2"/>

    <rect x="1185.0" y="185.0" width="30.0" height="30.0" stroke="black" stroke-width="1" id="16" onclick="ow3.nodeClick(this)" fill="#f0f0d2"/>

    <rect x="735.0" y="660.0" width="30.0" height="30.0" stroke="black" stroke-width="1" id="17" onclick="ow3.nodeClick(this)" fill="#f0f0d2"/>

    <rect x="485.0" y="510.0" width="30.0" height="30.0" stroke="black" stroke-width="1" id="18" onclick="ow3.nodeClick(this)" fill="#f0f0d2"/>

    <rect x="1410.0" y="185.0" width="30.0" height="30.0" stroke="black" stroke-width="1" id="19" onclick="ow3.nodeClick(this)" fill="#f0f0d2"/>

    <rect x="410.0" y="510.0" width="30.0" height="30.0" stroke="black" stroke-width="1" id="20" onclick="ow3.nodeClick(this)" fill="#f0f0d2"/>

    <rect x="210.0" y="260.0" width="30.0" height="30.0" stroke="black" stroke-width="1" id="21" onclick="ow3.nodeClick(this)" fill="#f0f0d2"/>

    <rect x="1260.0" y="335.0" width="30.0" height="30.0" stroke="black" stroke-width="1" id="22" onclick="ow3.nodeClick(this)" fill="#f0f0d2"/>

    <rect x="960.0" y="310.0" width="30.0" height="30.0" stroke="black" stroke-width="1" id="23" onclick="ow3.nodeClick(this)" fill="#f0f0d2"/>

    <rect x="1485.0" y="185.0" width="30.0" height="30.0" stroke="black" stroke-width="1" id="24" onclick="ow3.nodeClick(this)" fill="#f0f0d2"/>

    <rect x="960.0" y="985.0" width="30.0" height="30.0" stroke="black" stroke-width="1" id="25" onclick="ow3.nodeClick(this)" fill="#f0f0d2"/>

    <rect x="60.0" y="1260.0" width="30.0" height="30.0" stroke="black" stroke-width="1" id="26" onclick="ow3.nodeClick(this)" fill="#f0f0d2"/>

    <rect x="260.0" y="460.0" width="30.0" height="30.0" stroke="black" stroke-width="1" id="27" onclick="ow3.nodeClick(this)" fill="#f0f0d2"/>

    <rect x="135.0" y="335.0" width="30.0" height="30.0" stroke="black" stroke-width="1" id="28" onclick="ow3.nodeClick(this)" fill="#f0f0d2"/>

    <rect x="735.0" y="735.0" width="30.0" height="30.0" stroke="black" stroke-width="1" id="29" onclick="ow3.nodeClick(this)" fill="#f0f0d2"/>

    <rect x="660.0" y="660.0" width="30.0" height="30.0" stroke="black" stroke-width="1" id="30" onclick="ow3.nodeClick(this)" fill="#f0f0d2"/>

    <rect x="1035.0" y="560.0" width="30.0" height="30.0" stroke="black" stroke-width="1" id="31" onclick="ow3.nodeClick(this)" fill="#f0f0d2"/>

    <rect x="-15.0" y="960.0" width="30.0" height="30.0" stroke="black" stroke-width="1" id="32" onclick="ow3.nodeClick(this)" fill="#f0f0d2"/>

    <rect x="810.0" y="585.0" width="30.0" height="30.0" stroke="black" stroke-width="1" id="33" onclick="ow3.nodeClick(this)" fill="#f0f0d2"/>

    <rect x="60.0" y="60.0" width="30.0" height="30.0" stroke="black" stroke-width="1" id="34" onclick="ow3.nodeClick(this)" fill="#f0f0d2"/>

    <rect x="-15.0" y="1260.0" width="30.0" height="30.0" stroke="black" stroke-width="1" id="35" onclick="ow3.nodeClick(this)" fill="#f0f0d2"/>

    <rect x="210.0" y="185.0" width="30.0" height="30.0" stroke="black" stroke-width="1" id="36" onclick="ow3.nodeClick(this)" fill="#f0f0d2"/>

    <rect x="335.0" y="510.0" width="30.0" height="30.0" stroke="black" stroke-width="1" id="37" onclick="ow3.nodeClick(this)" fill="#f0f0d2"/>

    <rect x="1335.0" y="510.0" width="30.0" height="30.0" stroke="black" stroke-width="1" id="38" onclick="ow3.nodeClick(this)" fill="#f0f0d2"/>

    <rect x="210.0" y="110.0" width="30.0" height="30.0" stroke="black" stroke-width="1" id="39" onclick="ow3.nodeClick(this)" fill="#f0f0d2"/>

    <rect x="885.0" y="460.0" width="30.0" height="30.0" stroke="black" stroke-width="1" id="40" onclick="ow3.nodeClick(this)" fill="#f0f0d2"/>

    <rect x="1485.0" y="560.0" width="30.0" height="30.0" stroke="black" stroke-width="1" id="41" onclick="ow3.nodeClick(this)" fill="#f0f0d2"/>

    <rect x="-15.0" y="1185.0" width="30.0" height="30.0" stroke="black" stroke-width="1" id="42" onclick="ow3.nodeClick(this)" fill="#f0f0d2"/>

    <rect x="585.0" y="560.0" width="30.0" height="30.0" stroke="black" stroke-width="1" id="43" onclick="ow3.nodeClick(this)" fill="#f0f0d2"/>

    <rect x="1410.0" y="385.0" width="30.0" height="30.0" stroke="black" stroke-width="1" id="44" onclick="ow3.nodeClick(this)" fill="#f0f0d2"/>

    <rect x="960.0" y="785.0" width="30.0" height="30.0" stroke="black" stroke-width="1" id="45" onclick="ow3.nodeClick(this)" fill="#f0f0d2"/>

    <rect x="135.0" y="60.0" width="30.0" height="30.0" stroke="black" stroke-width="1" id="46" onclick="ow3.nodeClick(this)" fill="#f0f0d2"/>

    <rect x="885.0" y="385.0" width="30.0" height="30.0" stroke="black" stroke-width="1" id="47" onclick="ow3.nodeClick(this)" fill="#f0f0d2"/>

    <rect x="660.0" y="585.0" width="30.0" height="30.0" stroke="black" stroke-width="1" id="48" onclick="ow3.nodeClick(this)" fill="#f0f0d2"/>

    <rect x="885.0" y="585.0" width="30.0" height="30.0" stroke="black" stroke-width="1" id="49" onclick="ow3.nodeClick(this)" fill="#f0f0d2"/>

    <rect x="285.0" y="60.0" width="30.0" height="30.0" stroke="black" stroke-width="1" id="50" onclick="ow3.nodeClick(this)" fill="#f0f0d2"/>

    <rect x="960.0" y="560.0" width="30.0" height="30.0" stroke="black" stroke-width="1" id="51" onclick="ow3.nodeClick(this)" fill="#f0f0d2"/>

    <rect x="285.0" y="185.0" width="30.0" height="30.0" stroke="black" stroke-width="1" id="52" onclick="ow3.nodeClick(this)" fill="#f0f0d2"/>

    <rect x="335.0" y="910.0" width="30.0" height="30.0" stroke="black" stroke-width="1" id="53" onclick="ow3.nodeClick(this)" fill="#f0f0d2"/>

    <rect x="885.0" y="785.0" width="30.0" height="30.0" stroke="black" stroke-width="1" id="54" onclick="ow3.nodeClick(this)" fill="#f0f0d2"/>

    <rect x="960.0" y="1060.0" width="30.0" height="30.0" stroke="black" stroke-width="1" id="55" onclick="ow3.nodeClick(this)" fill="#f0f0d2"/>

    <rect x="1335.0" y="385.0" width="30.0" height="30.0" stroke="black" stroke-width="1" id="56" onclick="ow3.nodeClick(this)" fill="#f0f0d2"/>

    <rect x="1485.0" y="635.0" width="30.0" height="30.0" stroke="black" stroke-width="1" id="57" onclick="ow3.nodeClick(this)" fill="#f0f0d2"/>

    <rect x="135.0" y="-15.0" width="30.0" height="30.0" stroke="black" stroke-width="1" id="58" onclick="ow3.nodeClick(this)" fill="#f0f0d2"/>

    <rect x="535.0" y="785.0" width="30.0" height="30.0" stroke="black" stroke-width="1" id="59" onclick="ow3.nodeClick(this)" fill="#f0f0d2"/>

</g>
</g>
</svg>
