<?xml version="1.0" encoding="UTF-8"?>
<svg id="canvasSVG" xmlns="http://www.w3.org/2000/svg" width="1395.0px" height="2095.0px">
<rect x="0" y="0" width="1395.0" height="2095.0" stroke="none" stroke-width="1" id="" onclick="null" fill="#bdbddf"/>
<g id="outerGroup">
<g transform="translate(20.00,20.00),scale(1.00),translate(15.00,15.00)">
    <path d="M 750.00,1300.000000L 750.00,1375.000000" stroke="black" stroke-width="1" fill="none"/>
    <path d="M 750.00,1300.000000L 825.00,1300.000000" stroke="black" stroke-width="1" fill="none"/>
    <path d="M 675.00,275.000000L 750.00,275.000000" stroke="black" stroke-width="1" fill="none"/>
    <path d="M 675.00,275.000000L 675.00,200.000000" stroke="black" stroke-width="1" fill="none"/>
    <path d="M 525.00,275.000000L 675.00,275.000000" stroke="black" stroke-width="1" fill="none"/>
    <path d="M 525.00,275.000000L 525.00,200.000000" stroke="black" stroke-width="1" fill="none"/>
    <path d="M 750.00,725.000000L 750.00,650.000000" stroke="black" stroke-width="1" fill="none"/>
    <path d="M 750.00,725.000000L 750.00,850.000000" stroke="black" stroke-width="1" fill="none"/>
    <path d="M 900.00,1300.000000L 900.00,1375.000000" stroke="black" stroke-width="1" fill="none"/>
    <path d="M 750.00,650.000000L 750.00,400.000000" stroke="black" stroke-width="1" fill="none"/>
    <path d="M 975.00,1950.000000L 975.00,2025.000000" stroke="black" stroke-width="1" fill="none"/>
    <path d="M 975.00,1950.000000L 900.00,1950.000000" stroke="black" stroke-width="1" fill="none"/>
    <path d="M 750.00,1575.000000L 675.00,1575.000000" stroke="black" stroke-width="1" fill="none"/>
    <path d="M 750.00,1575.000000L 750.00,1500.000000" stroke="black" stroke-width="1" fill="none"/>
    <path d="M 1125.00,800.000000L 900.00,800.000000" stroke="black" stroke-width="1" fill="none"/>
    <path d="M 1125.00,800.000000L 1125.00,725.000000" stroke="black" stroke-width="1" fill="none"/>
    <path d="M 750.00,1075.000000L 750.00,1300.000000" stroke="black" stroke-width="1" fill="none"/>
    <path d="M 975.00,1575.000000L 1175.00,1575.000000" stroke="black" stroke-width="1" fill="none"/>
    <path d="M 1050.00,925.000000L 1050.00,850.000000" stroke="black" stroke-width="1" fill="none"/>
    <path d="M 825.00,1800.000000L 825.00,1725.000000" stroke="black" stroke-width="1" fill="none"/>
    <path d="M 675.00,275.000000L 675.00,350.000000" stroke="black" stroke-width="1" fill="none"/>
    <path d="M 1050.00,1875.000000L 1125.00,1875.000000" stroke="black" stroke-width="1" fill="none"/>
    <path d="M 975.00,850.000000L 975.00,1575.000000" stroke="black" stroke-width="1" fill="none"/>
    <path d="M 825.00,1575.000000L 750.00,1575.000000" stroke="black" stroke-width="1" fill="none"/>
    <path d="M 825.00,1575.000000L 825.00,1650.000000" stroke="black" stroke-width="1" fill="none"/>
    <path d="M 525.00,1375.000000L 600.00,1375.000000" stroke="black" stroke-width="1" fill="none"/>
    <path d="M 150.00,400.000000L 150.00,475.000000" stroke="black" stroke-width="1" fill="none"/>
    <path d="M 150.00,400.000000L 75.00,400.000000" stroke="black" stroke-width="1" fill="none"/>
    <path d="M 150.00,400.000000L 150.00,325.000000" stroke="black" stroke-width="1" fill="none"/>
    <path d="M 750.00,1075.000000L 900.00,1075.000000" stroke="black" stroke-width="1" fill="none"/>
    <path d="M 525.00,525.000000L 300.00,525.000000" stroke="black" stroke-width="1" fill="none"/>
    <path d="M 525.00,525.000000L 600.00,525.000000" stroke="black" stroke-width="1" fill="none"/>
    <path d="M 675.00,1225.000000L 675.00,1450.000000" stroke="black" stroke-width="1" fill="none"/>
    <path d="M 525.00,400.000000L 525.00,275.000000" stroke="black" stroke-width="1" fill="none"/>
    <path d="M 525.00,400.000000L 525.00,525.000000" stroke="black" stroke-width="1" fill="none"/>
    <path d="M 300.00,520.000000 H 440.00 a 10.00,10.00 0 0,0 10.00,-10.00L 450.00,450.000000" stroke="black" stroke-width="1" fill="none"/>
    <path d="M 300.00,515.000000 H 365.00 a 10.00,10.00 0 0,0 10.00,-10.00L 375.00,450.000000" stroke="black" stroke-width="1" fill="none"/>
    <path d="M 300.00,525.000000L 300.00,450.000000" stroke="black" stroke-width="1" fill="none"/>
    <path d="M 300.00,525.000000L 225.00,525.000000" stroke="black" stroke-width="1" fill="none"/>
    <path d="M 975.00,1875.000000L 975.00,1950.000000" stroke="black" stroke-width="1" fill="none"/>
    <path d="M 1125.00,725.000000L 1125.00,650.000000" stroke="black" stroke-width="1" fill="none"/>
    <path d="M 975.00,1575.000000L 975.00,1875.000000" stroke="black" stroke-width="1" fill="none"/>
    <path d="M 975.00,1575.000000L 825.00,1575.000000" stroke="black" stroke-width="1" fill="none"/>
    <path d="M 1175.00,75.000000L 1250.00,75.000000" stroke="black" stroke-width="1" fill="none"/>
    <path d="M 1175.00,75.000000L 1175.00,0.000000" stroke="black" stroke-width="1" fill="none"/>
    <path d="M 1165.00,75.000000 V 340.00 a 10.00,10.00 0 0,1 -10.00,10.00L 675.00,350.000000" stroke="black" stroke-width="1" fill="none"/>
    <path d="M 525.00,525.000000L 525.00,1375.000000" stroke="black" stroke-width="1" fill="none"/>
    <path d="M 535.00,1375.000000 V 1310.00 a 10.00,10.00 0 0,1 10.00,-10.00L 600.00,1300.000000" stroke="black" stroke-width="1" fill="none"/>
    <path d="M 525.00,1375.000000L 525.00,1450.000000" stroke="black" stroke-width="1" fill="none"/>
    <path d="M 525.00,1375.000000L 300.00,1375.000000" stroke="black" stroke-width="1" fill="none"/>
    <path d="M 750.00,1000.000000L 750.00,1075.000000" stroke="black" stroke-width="1" fill="none"/>
    <path d="M 750.00,650.000000 H 540.00 a 10.00,10.00 0 0,0 -10.00,10.00L 530.00,1375.000000" stroke="black" stroke-width="1" fill="none"/>
    <path d="M 750.00,1000.000000L 675.00,1000.000000" stroke="black" stroke-width="1" fill="none"/>
    <path d="M 675.00,1225.000000L 600.00,1225.000000" stroke="black" stroke-width="1" fill="none"/>
    <path d="M 675.00,1225.000000L 675.00,1150.000000" stroke="black" stroke-width="1" fill="none"/>
    <path d="M 825.00,1650.000000L 825.00,1725.000000" stroke="black" stroke-width="1" fill="none"/>
    <path d="M 750.00,400.000000L 525.00,400.000000" stroke="black" stroke-width="1" fill="none"/>
    <path d="M 900.00,1450.000000L 900.00,1375.000000" stroke="black" stroke-width="1" fill="none"/>
    <path d="M 900.00,1225.000000L 900.00,1300.000000" stroke="black" stroke-width="1" fill="none"/>
    <path d="M 900.00,1225.000000L 675.00,1225.000000" stroke="black" stroke-width="1" fill="none"/>
    <path d="M 900.00,1225.000000L 900.00,1150.000000" stroke="black" stroke-width="1" fill="none"/>
    <path d="M 750.00,650.000000L 1125.00,650.000000" stroke="black" stroke-width="1" fill="none"/>
    <path d="M 825.00,1875.000000L 825.00,1950.000000" stroke="black" stroke-width="1" fill="none"/>
    <path d="M 525.00,200.000000L 525.00,125.000000" stroke="black" stroke-width="1" fill="none"/>
    <path d="M 1175.00,925.000000L 1250.00,925.000000" stroke="black" stroke-width="1" fill="none"/>
    <path d="M 1175.00,925.000000L 1175.00,1575.000000" stroke="black" stroke-width="1" fill="none"/>
    <path d="M 1175.00,925.000000L 1175.00,75.000000" stroke="black" stroke-width="1" fill="none"/>
    <path d="M 525.00,400.000000L 150.00,400.000000" stroke="black" stroke-width="1" fill="none"/>
    <path d="M 1175.00,1575.000000L 1175.00,1650.000000" stroke="black" stroke-width="1" fill="none"/>
    <path d="M 1175.00,1575.000000L 1250.00,1575.000000" stroke="black" stroke-width="1" fill="none"/>
    <path d="M 1050.00,925.000000 V 1215.00 a 10.00,10.00 0 0,1 -10.00,10.00L 900.00,1225.000000" stroke="black" stroke-width="1" fill="none"/>
    <path d="M 1050.00,915.000000 H 1115.00 a 10.00,10.00 0 0,0 10.00,-10.00L 1125.00,800.000000" stroke="black" stroke-width="1" fill="none"/>
    <path d="M 1050.00,925.000000L 1175.00,925.000000" stroke="black" stroke-width="1" fill="none"/>
    <path d="M 975.00,1565.000000 H 910.00 a 10.00,10.00 0 0,1 -10.00,-10.00L 900.00,1525.000000" stroke="black" stroke-width="1" fill="none"/>
    <path d="M 750.00,925.000000L 750.00,1000.000000" stroke="black" stroke-width="1" fill="none"/>
    <path d="M 150.00,325.000000L 150.00,250.000000" stroke="black" stroke-width="1" fill="none"/>
    <path d="M 150.00,325.000000L 225.00,325.000000" stroke="black" stroke-width="1" fill="none"/>
    <path d="M 750.00,925.000000L 1050.00,925.000000" stroke="black" stroke-width="1" fill="none"/>
    <path d="M 750.00,850.000000L 975.00,850.000000" stroke="black" stroke-width="1" fill="none"/>
    <path d="M 750.00,850.000000L 750.00,925.000000" stroke="black" stroke-width="1" fill="none"/>
    <path d="M 1125.00,725.000000L 1050.00,725.000000" stroke="black" stroke-width="1" fill="none"/>
    <path d="M 525.00,200.000000L 600.00,200.000000" stroke="black" stroke-width="1" fill="none"/>
    <path d="M 900.00,800.000000L 825.00,800.000000" stroke="black" stroke-width="1" fill="none"/>
    <path d="M 1175.00,75.000000L 450.00,75.000000" stroke="black" stroke-width="1" fill="none"/>
    <path d="M 300.00,525.000000L 300.00,1375.000000" stroke="black" stroke-width="1" fill="none"/>
    <path d="M 1250.00,925.000000L 1325.00,925.000000" stroke="black" stroke-width="1" fill="none"/>
    <path d="M 1250.00,925.000000L 1250.00,1000.000000" stroke="black" stroke-width="1" fill="none"/>
    <path d="M 975.00,1875.000000L 1050.00,1875.000000" stroke="black" stroke-width="1" fill="none"/>
    <path d="M 825.00,1875.000000L 750.00,1875.000000" stroke="black" stroke-width="1" fill="none"/>
    <path d="M 825.00,1875.000000L 825.00,1800.000000" stroke="black" stroke-width="1" fill="none"/>
    <path d="M 975.00,1875.000000L 825.00,1875.000000" stroke="black" stroke-width="1" fill="none"/>
    <path d="M 675.00,1450.000000L 525.00,1450.000000" stroke="black" stroke-width="1" fill="none"/>
    <path d="M 75.00,400.000000L 75.00,325.000000" stroke="black" stroke-width="1" fill="none"/>
    <path d="M 75.00,400.000000L 0.00,400.000000" stroke="black" stroke-width="1" fill="none"/>
    <path d="M 900.00,1525.000000L 900.00,1450.000000" stroke="black" stroke-width="1" fill="none"/>
    <path d="M 900.00,1375.000000L 750.00,1375.000000" stroke="black" stroke-width="1" fill="none"/>
    <path d="M 600.00,525.000000L 600.00,600.000000" stroke="black" stroke-width="1" fill="none"/>
    <path d="M 600.00,525.000000L 675.00,525.000000" stroke="black" stroke-width="1" fill="none"/>
    <path d="M 900.00,1150.000000L 825.00,1150.000000" stroke="black" stroke-width="1" fill="none"/>
    <path d="M 900.00,1150.000000L 900.00,1075.000000" stroke="black" stroke-width="1" fill="none"/>
    <rect x="735.0" y="710.0" width="30.0" height="30.0" stroke="black" stroke-width="1" id="0" onclick="ow3.nodeClick(this)" fill="#f0f0d2"/>

    <rect x="735.0" y="835.0" width="30.0" height="30.0" stroke="black" stroke-width="1" id="1" onclick="ow3.nodeClick(this)" fill="#f0f0d2"/>

    <rect x="735.0" y="635.0" width="30.0" height="30.0" stroke="black" stroke-width="1" id="2" onclick="ow3.nodeClick(this)" fill="#f0f0d2"/>

    <rect x="960.0" y="835.0" width="30.0" height="30.0" stroke="black" stroke-width="1" id="3" onclick="ow3.nodeClick(this)" fill="#f0f0d2"/>

    <rect x="735.0" y="910.0" width="30.0" height="30.0" stroke="black" stroke-width="1" id="4" onclick="ow3.nodeClick(this)" fill="#f0f0d2"/>

    <rect x="735.0" y="385.0" width="30.0" height="30.0" stroke="black" stroke-width="1" id="5" onclick="ow3.nodeClick(this)" fill="#f0f0d2"/>

    <rect x="960.0" y="1560.0" width="30.0" height="30.0" stroke="black" stroke-width="1" id="6" onclick="ow3.nodeClick(this)" fill="#f0f0d2"/>

    <rect x="1035.0" y="910.0" width="30.0" height="30.0" stroke="black" stroke-width="1" id="7" onclick="ow3.nodeClick(this)" fill="#f0f0d2"/>

    <rect x="735.0" y="985.0" width="30.0" height="30.0" stroke="black" stroke-width="1" id="8" onclick="ow3.nodeClick(this)" fill="#f0f0d2"/>

    <rect x="510.0" y="385.0" width="30.0" height="30.0" stroke="black" stroke-width="1" id="9" onclick="ow3.nodeClick(this)" fill="#f0f0d2"/>

    <rect x="960.0" y="1860.0" width="30.0" height="30.0" stroke="black" stroke-width="1" id="10" onclick="ow3.nodeClick(this)" fill="#f0f0d2"/>

    <rect x="885.0" y="1510.0" width="30.0" height="30.0" stroke="black" stroke-width="1" id="11" onclick="ow3.nodeClick(this)" fill="#f0f0d2"/>

    <rect x="810.0" y="1560.0" width="30.0" height="30.0" stroke="black" stroke-width="1" id="12" onclick="ow3.nodeClick(this)" fill="#f0f0d2"/>

    <rect x="1035.0" y="835.0" width="30.0" height="30.0" stroke="black" stroke-width="1" id="13" onclick="ow3.nodeClick(this)" fill="#f0f0d2"/>

    <rect x="1110.0" y="785.0" width="30.0" height="30.0" stroke="black" stroke-width="1" id="14" onclick="ow3.nodeClick(this)" fill="#f0f0d2"/>

    <rect x="1160.0" y="910.0" width="30.0" height="30.0" stroke="black" stroke-width="1" id="15" onclick="ow3.nodeClick(this)" fill="#f0f0d2"/>

    <rect x="885.0" y="1210.0" width="30.0" height="30.0" stroke="black" stroke-width="1" id="16" onclick="ow3.nodeClick(this)" fill="#f0f0d2"/>

    <rect x="735.0" y="1060.0" width="30.0" height="30.0" stroke="black" stroke-width="1" id="17" onclick="ow3.nodeClick(this)" fill="#f0f0d2"/>

    <rect x="660.0" y="985.0" width="30.0" height="30.0" stroke="black" stroke-width="1" id="18" onclick="ow3.nodeClick(this)" fill="#f0f0d2"/>

    <rect x="135.0" y="385.0" width="30.0" height="30.0" stroke="black" stroke-width="1" id="19" onclick="ow3.nodeClick(this)" fill="#f0f0d2"/>

    <rect x="510.0" y="510.0" width="30.0" height="30.0" stroke="black" stroke-width="1" id="20" onclick="ow3.nodeClick(this)" fill="#f0f0d2"/>

    <rect x="510.0" y="260.0" width="30.0" height="30.0" stroke="black" stroke-width="1" id="21" onclick="ow3.nodeClick(this)" fill="#f0f0d2"/>

    <rect x="1035.0" y="1860.0" width="30.0" height="30.0" stroke="black" stroke-width="1" id="22" onclick="ow3.nodeClick(this)" fill="#f0f0d2"/>

    <rect x="960.0" y="1935.0" width="30.0" height="30.0" stroke="black" stroke-width="1" id="23" onclick="ow3.nodeClick(this)" fill="#f0f0d2"/>

    <rect x="810.0" y="1860.0" width="30.0" height="30.0" stroke="black" stroke-width="1" id="24" onclick="ow3.nodeClick(this)" fill="#f0f0d2"/>

    <rect x="885.0" y="1435.0" width="30.0" height="30.0" stroke="black" stroke-width="1" id="25" onclick="ow3.nodeClick(this)" fill="#f0f0d2"/>

    <rect x="735.0" y="1560.0" width="30.0" height="30.0" stroke="black" stroke-width="1" id="26" onclick="ow3.nodeClick(this)" fill="#f0f0d2"/>

    <rect x="810.0" y="1635.0" width="30.0" height="30.0" stroke="black" stroke-width="1" id="27" onclick="ow3.nodeClick(this)" fill="#f0f0d2"/>

    <rect x="885.0" y="785.0" width="30.0" height="30.0" stroke="black" stroke-width="1" id="28" onclick="ow3.nodeClick(this)" fill="#f0f0d2"/>

    <rect x="1110.0" y="710.0" width="30.0" height="30.0" stroke="black" stroke-width="1" id="29" onclick="ow3.nodeClick(this)" fill="#f0f0d2"/>

    <rect x="1160.0" y="1560.0" width="30.0" height="30.0" stroke="black" stroke-width="1" id="30" onclick="ow3.nodeClick(this)" fill="#f0f0d2"/>

    <rect x="1160.0" y="60.0" width="30.0" height="30.0" stroke="black" stroke-width="1" id="31" onclick="ow3.nodeClick(this)" fill="#f0f0d2"/>

    <rect x="1235.0" y="910.0" width="30.0" height="30.0" stroke="black" stroke-width="1" id="32" onclick="ow3.nodeClick(this)" fill="#f0f0d2"/>

    <rect x="885.0" y="1135.0" width="30.0" height="30.0" stroke="black" stroke-width="1" id="33" onclick="ow3.nodeClick(this)" fill="#f0f0d2"/>

    <rect x="660.0" y="1210.0" width="30.0" height="30.0" stroke="black" stroke-width="1" id="34" onclick="ow3.nodeClick(this)" fill="#f0f0d2"/>

    <rect x="885.0" y="1285.0" width="30.0" height="30.0" stroke="black" stroke-width="1" id="35" onclick="ow3.nodeClick(this)" fill="#f0f0d2"/>

    <rect x="735.0" y="1285.0" width="30.0" height="30.0" stroke="black" stroke-width="1" id="36" onclick="ow3.nodeClick(this)" fill="#f0f0d2"/>

    <rect x="135.0" y="460.0" width="30.0" height="30.0" stroke="black" stroke-width="1" id="37" onclick="ow3.nodeClick(this)" fill="#f0f0d2"/>

    <rect x="60.0" y="385.0" width="30.0" height="30.0" stroke="black" stroke-width="1" id="38" onclick="ow3.nodeClick(this)" fill="#f0f0d2"/>

    <rect x="135.0" y="310.0" width="30.0" height="30.0" stroke="black" stroke-width="1" id="39" onclick="ow3.nodeClick(this)" fill="#f0f0d2"/>

    <rect x="510.0" y="1360.0" width="30.0" height="30.0" stroke="black" stroke-width="1" id="40" onclick="ow3.nodeClick(this)" fill="#f0f0d2"/>

    <rect x="585.0" y="510.0" width="30.0" height="30.0" stroke="black" stroke-width="1" id="41" onclick="ow3.nodeClick(this)" fill="#f0f0d2"/>

    <rect x="285.0" y="510.0" width="30.0" height="30.0" stroke="black" stroke-width="1" id="42" onclick="ow3.nodeClick(this)" fill="#f0f0d2"/>

    <rect x="660.0" y="260.0" width="30.0" height="30.0" stroke="black" stroke-width="1" id="43" onclick="ow3.nodeClick(this)" fill="#f0f0d2"/>

    <rect x="510.0" y="185.0" width="30.0" height="30.0" stroke="black" stroke-width="1" id="44" onclick="ow3.nodeClick(this)" fill="#f0f0d2"/>

    <rect x="1110.0" y="1860.0" width="30.0" height="30.0" stroke="black" stroke-width="1" id="45" onclick="ow3.nodeClick(this)" fill="#f0f0d2"/>

    <rect x="960.0" y="2010.0" width="30.0" height="30.0" stroke="black" stroke-width="1" id="46" onclick="ow3.nodeClick(this)" fill="#f0f0d2"/>

    <rect x="885.0" y="1935.0" width="30.0" height="30.0" stroke="black" stroke-width="1" id="47" onclick="ow3.nodeClick(this)" fill="#f0f0d2"/>

    <rect x="810.0" y="1935.0" width="30.0" height="30.0" stroke="black" stroke-width="1" id="48" onclick="ow3.nodeClick(this)" fill="#f0f0d2"/>

    <rect x="810.0" y="1785.0" width="30.0" height="30.0" stroke="black" stroke-width="1" id="49" onclick="ow3.nodeClick(this)" fill="#f0f0d2"/>

    <rect x="735.0" y="1860.0" width="30.0" height="30.0" stroke="black" stroke-width="1" id="50" onclick="ow3.nodeClick(this)" fill="#f0f0d2"/>

    <rect x="885.0" y="1360.0" width="30.0" height="30.0" stroke="black" stroke-width="1" id="51" onclick="ow3.nodeClick(this)" fill="#f0f0d2"/>

    <rect x="660.0" y="1560.0" width="30.0" height="30.0" stroke="black" stroke-width="1" id="52" onclick="ow3.nodeClick(this)" fill="#f0f0d2"/>

    <rect x="735.0" y="1485.0" width="30.0" height="30.0" stroke="black" stroke-width="1" id="53" onclick="ow3.nodeClick(this)" fill="#f0f0d2"/>

    <rect x="810.0" y="1710.0" width="30.0" height="30.0" stroke="black" stroke-width="1" id="54" onclick="ow3.nodeClick(this)" fill="#f0f0d2"/>

    <rect x="810.0" y="785.0" width="30.0" height="30.0" stroke="black" stroke-width="1" id="55" onclick="ow3.nodeClick(this)" fill="#f0f0d2"/>

    <rect x="1035.0" y="710.0" width="30.0" height="30.0" stroke="black" stroke-width="1" id="56" onclick="ow3.nodeClick(this)" fill="#f0f0d2"/>

    <rect x="1110.0" y="635.0" width="30.0" height="30.0" stroke="black" stroke-width="1" id="57" onclick="ow3.nodeClick(this)" fill="#f0f0d2"/>

    <rect x="1235.0" y="1560.0" width="30.0" height="30.0" stroke="black" stroke-width="1" id="58" onclick="ow3.nodeClick(this)" fill="#f0f0d2"/>

    <rect x="1160.0" y="1635.0" width="30.0" height="30.0" stroke="black" stroke-width="1" id="59" onclick="ow3.nodeClick(this)" fill="#f0f0d2"/>

    <rect x="435.0" y="60.0" width="30.0" height="30.0" stroke="black" stroke-width="1" id="60" onclick="ow3.nodeClick(this)" fill="#f0f0d2"/>

    <rect x="660.0" y="335.0" width="30.0" height="30.0" stroke="black" stroke-width="1" id="61" onclick="ow3.nodeClick(this)" fill="#f0f0d2"/>

    <rect x="1160.0" y="-15.0" width="30.0" height="30.0" stroke="black" stroke-width="1" id="62" onclick="ow3.nodeClick(this)" fill="#f0f0d2"/>

    <rect x="1235.0" y="60.0" width="30.0" height="30.0" stroke="black" stroke-width="1" id="63" onclick="ow3.nodeClick(this)" fill="#f0f0d2"/>

    <rect x="1310.0" y="910.0" width="30.0" height="30.0" stroke="black" stroke-width="1" id="64" onclick="ow3.nodeClick(this)" fill="#f0f0d2"/>

    <rect x="1235.0" y="985.0" width="30.0" height="30.0" stroke="black" stroke-width="1" id="65" onclick="ow3.nodeClick(this)" fill="#f0f0d2"/>

    <rect x="885.0" y="1060.0" width="30.0" height="30.0" stroke="black" stroke-width="1" id="66" onclick="ow3.nodeClick(this)" fill="#f0f0d2"/>

    <rect x="810.0" y="1135.0" width="30.0" height="30.0" stroke="black" stroke-width="1" id="67" onclick="ow3.nodeClick(this)" fill="#f0f0d2"/>

    <rect x="585.0" y="1210.0" width="30.0" height="30.0" stroke="black" stroke-width="1" id="68" onclick="ow3.nodeClick(this)" fill="#f0f0d2"/>

    <rect x="660.0" y="1135.0" width="30.0" height="30.0" stroke="black" stroke-width="1" id="69" onclick="ow3.nodeClick(this)" fill="#f0f0d2"/>

    <rect x="660.0" y="1435.0" width="30.0" height="30.0" stroke="black" stroke-width="1" id="70" onclick="ow3.nodeClick(this)" fill="#f0f0d2"/>

    <rect x="735.0" y="1360.0" width="30.0" height="30.0" stroke="black" stroke-width="1" id="71" onclick="ow3.nodeClick(this)" fill="#f0f0d2"/>

    <rect x="810.0" y="1285.0" width="30.0" height="30.0" stroke="black" stroke-width="1" id="72" onclick="ow3.nodeClick(this)" fill="#f0f0d2"/>

    <rect x="-15.0" y="385.0" width="30.0" height="30.0" stroke="black" stroke-width="1" id="73" onclick="ow3.nodeClick(this)" fill="#f0f0d2"/>

    <rect x="60.0" y="310.0" width="30.0" height="30.0" stroke="black" stroke-width="1" id="74" onclick="ow3.nodeClick(this)" fill="#f0f0d2"/>

    <rect x="135.0" y="235.0" width="30.0" height="30.0" stroke="black" stroke-width="1" id="75" onclick="ow3.nodeClick(this)" fill="#f0f0d2"/>

    <rect x="210.0" y="310.0" width="30.0" height="30.0" stroke="black" stroke-width="1" id="76" onclick="ow3.nodeClick(this)" fill="#f0f0d2"/>

    <rect x="585.0" y="1285.0" width="30.0" height="30.0" stroke="black" stroke-width="1" id="77" onclick="ow3.nodeClick(this)" fill="#f0f0d2"/>

    <rect x="510.0" y="1435.0" width="30.0" height="30.0" stroke="black" stroke-width="1" id="78" onclick="ow3.nodeClick(this)" fill="#f0f0d2"/>

    <rect x="285.0" y="1360.0" width="30.0" height="30.0" stroke="black" stroke-width="1" id="79" onclick="ow3.nodeClick(this)" fill="#f0f0d2"/>

    <rect x="585.0" y="1360.0" width="30.0" height="30.0" stroke="black" stroke-width="1" id="80" onclick="ow3.nodeClick(this)" fill="#f0f0d2"/>

    <rect x="660.0" y="510.0" width="30.0" height="30.0" stroke="black" stroke-width="1" id="81" onclick="ow3.nodeClick(this)" fill="#f0f0d2"/>

    <rect x="585.0" y="585.0" width="30.0" height="30.0" stroke="black" stroke-width="1" id="82" onclick="ow3.nodeClick(this)" fill="#f0f0d2"/>

    <rect x="210.0" y="510.0" width="30.0" height="30.0" stroke="black" stroke-width="1" id="83" onclick="ow3.nodeClick(this)" fill="#f0f0d2"/>

    <rect x="285.0" y="435.0" width="30.0" height="30.0" stroke="black" stroke-width="1" id="84" onclick="ow3.nodeClick(this)" fill="#f0f0d2"/>

    <rect x="360.0" y="435.0" width="30.0" height="30.0" stroke="black" stroke-width="1" id="85" onclick="ow3.nodeClick(this)" fill="#f0f0d2"/>

    <rect x="435.0" y="435.0" width="30.0" height="30.0" stroke="black" stroke-width="1" id="86" onclick="ow3.nodeClick(this)" fill="#f0f0d2"/>

    <rect x="660.0" y="185.0" width="30.0" height="30.0" stroke="black" stroke-width="1" id="87" onclick="ow3.nodeClick(this)" fill="#f0f0d2"/>

    <rect x="735.0" y="260.0" width="30.0" height="30.0" stroke="black" stroke-width="1" id="88" onclick="ow3.nodeClick(this)" fill="#f0f0d2"/>

    <rect x="510.0" y="110.0" width="30.0" height="30.0" stroke="black" stroke-width="1" id="89" onclick="ow3.nodeClick(this)" fill="#f0f0d2"/>

    <rect x="585.0" y="185.0" width="30.0" height="30.0" stroke="black" stroke-width="1" id="90" onclick="ow3.nodeClick(this)" fill="#f0f0d2"/>

</g>
</g>
</svg>
