<?xml version="1.0" encoding="UTF-8"?>
<svg id="canvasSVG" xmlns="http://www.w3.org/2000/svg" width="1945.0px" height="1755.0px">
<rect x="0" y="0" width="1945.0" height="1755.0" stroke="none" stroke-width="1" id="" onclick="null" fill="#bdbddf"/>
<g id="outerGroup">
<g transform="translate(20.00,20.00),scale(1.00),translate(15.00,15.00)">
    <path d="M 1675.00,1450.000000 H 1620.00 a 10.00,10.00 0 0,1 -10.00,-10.00L 1610.00,1375.000000" stroke="black" stroke-width="1" fill="none"/>
    <path d="M 675.00,725.000000L 600.00,725.000000" stroke="black" stroke-width="1" fill="none"/>
    <path d="M 1450.00,1550.000000L 1525.00,1550.000000" stroke="black" stroke-width="1" fill="none"/>
    <path d="M 1575.00,1100.000000L 1125.00,1100.000000" stroke="black" stroke-width="1" fill="none"/>
    <path d="M 350.00,400.000000L 275.00,400.000000" stroke="black" stroke-width="1" fill="none"/>
    <path d="M 275.00,400.000000L 275.00,1175.000000" stroke="black" stroke-width="1" fill="none"/>
    <path d="M 1125.00,1650.000000L 1125.00,1575.000000" stroke="black" stroke-width="1" fill="none"/>
    <path d="M 475.00,1250.000000L 475.00,1325.000000" stroke="black" stroke-width="1" fill="none"/>
    <path d="M 1400.00,825.000000L 1400.00,375.000000" stroke="black" stroke-width="1" fill="none"/>
    <path d="M 1600.00,1300.000000L 1600.00,1375.000000" stroke="black" stroke-width="1" fill="none"/>
    <path d="M 1725.00,1100.000000L 1650.00,1100.000000" stroke="black" stroke-width="1" fill="none"/>
    <path d="M 1525.00,1550.000000 V 785.00 a 10.00,10.00 0 0,0 -10.00,-10.00L 1075.00,775.000000" stroke="black" stroke-width="1" fill="none"/>
    <path d="M 0.00,1175.000000L 75.00,1175.000000" stroke="black" stroke-width="1" fill="none"/>
    <path d="M 725.00,1175.000000L 725.00,1100.000000" stroke="black" stroke-width="1" fill="none"/>
    <path d="M 1200.00,925.000000L 1125.00,925.000000" stroke="black" stroke-width="1" fill="none"/>
    <path d="M 350.00,1100.000000 H 295.00 a 10.00,10.00 0 0,0 -10.00,10.00L 285.00,1175.000000" stroke="black" stroke-width="1" fill="none"/>
    <path d="M 1125.00,575.000000L 525.00,575.000000" stroke="black" stroke-width="1" fill="none"/>
    <path d="M 475.00,725.000000L 600.00,725.000000" stroke="black" stroke-width="1" fill="none"/>
    <path d="M 1125.00,850.000000L 1125.00,925.000000" stroke="black" stroke-width="1" fill="none"/>
    <path d="M 725.00,1100.000000 V 595.00 a 10.00,10.00 0 0,0 -10.00,-10.00L 525.00,585.000000" stroke="black" stroke-width="1" fill="none"/>
    <path d="M 475.00,725.000000 H 220.00 a 10.00,10.00 0 0,1 -10.00,-10.00L 210.00,225.000000" stroke="black" stroke-width="1" fill="none"/>
    <path d="M 1125.00,1500.000000L 1125.00,1575.000000" stroke="black" stroke-width="1" fill="none"/>
    <path d="M 475.00,1325.000000L 350.00,1325.000000" stroke="black" stroke-width="1" fill="none"/>
    <path d="M 1575.00,1025.000000L 1575.00,1100.000000" stroke="black" stroke-width="1" fill="none"/>
    <path d="M 275.00,1175.000000 V 1690.00 a 10.00,10.00 0 0,0 10.00,10.00 H 1505.00 a 10.00,10.00 0 0,0 10.00,-10.00L 1515.00,1550.000000" stroke="black" stroke-width="1" fill="none"/>
    <path d="M 1350.00,450.000000L 1275.00,450.000000" stroke="black" stroke-width="1" fill="none"/>
    <path d="M 200.00,225.000000 V 1155.00 a 10.00,10.00 0 0,0 10.00,10.00L 275.00,1165.000000" stroke="black" stroke-width="1" fill="none"/>
    <path d="M 925.00,775.000000L 1000.00,775.000000" stroke="black" stroke-width="1" fill="none"/>
    <path d="M 1675.00,1375.000000L 1600.00,1375.000000" stroke="black" stroke-width="1" fill="none"/>
    <path d="M 725.00,1250.000000L 950.00,1250.000000" stroke="black" stroke-width="1" fill="none"/>
    <path d="M 1125.00,1575.000000 H 295.00 a 10.00,10.00 0 0,1 -10.00,-10.00L 285.00,1175.000000" stroke="black" stroke-width="1" fill="none"/>
    <path d="M 875.00,1325.000000L 475.00,1325.000000" stroke="black" stroke-width="1" fill="none"/>
    <path d="M 725.00,1175.000000L 725.00,1250.000000" stroke="black" stroke-width="1" fill="none"/>
    <path d="M 950.00,1325.000000L 875.00,1325.000000" stroke="black" stroke-width="1" fill="none"/>
    <path d="M 1775.00,300.000000L 1775.00,375.000000" stroke="black" stroke-width="1" fill="none"/>
    <path d="M 610.00,725.000000 V 765.00 a 10.00,10.00 0 0,0 10.00,10.00L 925.00,775.000000" stroke="black" stroke-width="1" fill="none"/>
    <path d="M 125.00,225.000000L 200.00,225.000000" stroke="black" stroke-width="1" fill="none"/>
    <path d="M 200.00,150.000000L 200.00,225.000000" stroke="black" stroke-width="1" fill="none"/>
    <path d="M 275.00,225.000000L 200.00,225.000000" stroke="black" stroke-width="1" fill="none"/>
    <path d="M 1200.00,575.000000L 1125.00,575.000000" stroke="black" stroke-width="1" fill="none"/>
    <path d="M 1200.00,450.000000L 1200.00,575.000000" stroke="black" stroke-width="1" fill="none"/>
    <path d="M 1200.00,375.000000L 1400.00,375.000000" stroke="black" stroke-width="1" fill="none"/>
    <path d="M 1650.00,1100.000000L 1575.00,1100.000000" stroke="black" stroke-width="1" fill="none"/>
    <path d="M 425.00,1175.000000L 350.00,1175.000000" stroke="black" stroke-width="1" fill="none"/>
    <path d="M 1000.00,775.000000L 1075.00,775.000000" stroke="black" stroke-width="1" fill="none"/>
    <path d="M 275.00,225.000000L 275.00,300.000000" stroke="black" stroke-width="1" fill="none"/>
    <path d="M 350.00,1100.000000L 350.00,500.000000" stroke="black" stroke-width="1" fill="none"/>
    <path d="M 1025.00,1025.000000 V 1080.00 a 10.00,10.00 0 0,1 -10.00,10.00L 950.00,1090.000000" stroke="black" stroke-width="1" fill="none"/>
    <path d="M 1800.00,75.000000L 200.00,75.000000" stroke="black" stroke-width="1" fill="none"/>
    <path d="M 1125.00,1425.000000L 1125.00,1100.000000" stroke="black" stroke-width="1" fill="none"/>
    <path d="M 350.00,1100.000000L 350.00,1175.000000" stroke="black" stroke-width="1" fill="none"/>
    <path d="M 800.00,1100.000000L 875.00,1100.000000" stroke="black" stroke-width="1" fill="none"/>
    <path d="M 75.00,1175.000000L 150.00,1175.000000" stroke="black" stroke-width="1" fill="none"/>
    <path d="M 1875.00,250.000000 V 1590.00 a 10.00,10.00 0 0,1 -10.00,10.00 H 1535.00 a 10.00,10.00 0 0,1 -10.00,-10.00L 1525.00,1550.000000" stroke="black" stroke-width="1" fill="none"/>
    <path d="M 950.00,1025.000000L 950.00,1100.000000" stroke="black" stroke-width="1" fill="none"/>
    <path d="M 950.00,1100.000000L 1125.00,1100.000000" stroke="black" stroke-width="1" fill="none"/>
    <path d="M 950.00,1250.000000L 950.00,1100.000000" stroke="black" stroke-width="1" fill="none"/>
    <path d="M 450.00,575.000000L 525.00,575.000000" stroke="black" stroke-width="1" fill="none"/>
    <path d="M 525.00,650.000000L 525.00,575.000000" stroke="black" stroke-width="1" fill="none"/>
    <path d="M 1575.00,375.000000L 1400.00,375.000000" stroke="black" stroke-width="1" fill="none"/>
    <path d="M 1600.00,1550.000000L 1525.00,1550.000000" stroke="black" stroke-width="1" fill="none"/>
    <path d="M 200.00,0.000000L 200.00,75.000000" stroke="black" stroke-width="1" fill="none"/>
    <path d="M 950.00,1250.000000L 950.00,1325.000000" stroke="black" stroke-width="1" fill="none"/>
    <path d="M 1200.00,450.000000L 1200.00,375.000000" stroke="black" stroke-width="1" fill="none"/>
    <path d="M 1275.00,900.000000 V 795.00 a 10.00,10.00 0 0,0 -10.00,-10.00L 1075.00,785.000000" stroke="black" stroke-width="1" fill="none"/>
    <path d="M 1800.00,75.000000L 1875.00,75.000000" stroke="black" stroke-width="1" fill="none"/>
    <path d="M 275.00,300.000000L 275.00,400.000000" stroke="black" stroke-width="1" fill="none"/>
    <path d="M 600.00,650.000000L 525.00,650.000000" stroke="black" stroke-width="1" fill="none"/>
    <path d="M 1600.00,1375.000000L 1600.00,1550.000000" stroke="black" stroke-width="1" fill="none"/>
    <path d="M 600.00,715.000000 H 535.00 a 10.00,10.00 0 0,1 -10.00,-10.00L 525.00,650.000000" stroke="black" stroke-width="1" fill="none"/>
    <path d="M 1775.00,375.000000 V 1490.00 a 10.00,10.00 0 0,1 -10.00,10.00 H 1615.00 a 10.00,10.00 0 0,1 -10.00,-10.00L 1605.00,1375.000000" stroke="black" stroke-width="1" fill="none"/>
    <path d="M 1775.00,375.000000 H 1815.00 a 10.00,10.00 0 0,0 10.00,-10.00 V 235.00 a 10.00,10.00 0 0,0 -10.00,-10.00L 275.00,225.000000" stroke="black" stroke-width="1" fill="none"/>
    <path d="M 350.00,1175.000000L 275.00,1175.000000" stroke="black" stroke-width="1" fill="none"/>
    <path d="M 350.00,1325.000000L 350.00,1175.000000" stroke="black" stroke-width="1" fill="none"/>
    <path d="M 600.00,650.000000L 600.00,725.000000" stroke="black" stroke-width="1" fill="none"/>
    <path d="M 1875.00,75.000000L 1875.00,250.000000" stroke="black" stroke-width="1" fill="none"/>
    <path d="M 1275.00,450.000000L 1200.00,450.000000" stroke="black" stroke-width="1" fill="none"/>
    <path d="M 1200.00,650.000000L 1200.00,575.000000" stroke="black" stroke-width="1" fill="none"/>
    <path d="M 1275.00,1050.000000L 1275.00,975.000000" stroke="black" stroke-width="1" fill="none"/>
    <path d="M 1125.00,925.000000 H 1085.00 a 10.00,10.00 0 0,1 -10.00,-10.00L 1075.00,775.000000" stroke="black" stroke-width="1" fill="none"/>
    <path d="M 350.00,325.000000L 350.00,400.000000" stroke="black" stroke-width="1" fill="none"/>
    <path d="M 525.00,580.000000 H 1065.00 a 10.00,10.00 0 0,1 10.00,10.00L 1075.00,775.000000" stroke="black" stroke-width="1" fill="none"/>
    <path d="M 1575.00,375.000000L 1775.00,375.000000" stroke="black" stroke-width="1" fill="none"/>
    <path d="M 1400.00,375.000000 V 260.00 a 10.00,10.00 0 0,1 10.00,-10.00L 1875.00,250.000000" stroke="black" stroke-width="1" fill="none"/>
    <path d="M 1125.00,650.000000L 1125.00,575.000000" stroke="black" stroke-width="1" fill="none"/>
    <path d="M 1575.00,1175.000000L 1575.00,1100.000000" stroke="black" stroke-width="1" fill="none"/>
    <path d="M 1200.00,450.000000 H 370.00 a 10.00,10.00 0 0,1 -10.00,-10.00L 360.00,400.000000" stroke="black" stroke-width="1" fill="none"/>
    <path d="M 800.00,1175.000000L 725.00,1175.000000" stroke="black" stroke-width="1" fill="none"/>
    <path d="M 1400.00,975.000000L 1400.00,900.000000" stroke="black" stroke-width="1" fill="none"/>
    <path d="M 350.00,500.000000L 525.00,500.000000" stroke="black" stroke-width="1" fill="none"/>
    <path d="M 1275.00,975.000000L 1275.00,900.000000" stroke="black" stroke-width="1" fill="none"/>
    <path d="M 350.00,500.000000L 350.00,400.000000" stroke="black" stroke-width="1" fill="none"/>
    <path d="M 1125.00,1425.000000L 1125.00,1500.000000" stroke="black" stroke-width="1" fill="none"/>
    <path d="M 1575.00,1025.000000L 1575.00,375.000000" stroke="black" stroke-width="1" fill="none"/>
    <path d="M 1475.00,825.000000L 1400.00,825.000000" stroke="black" stroke-width="1" fill="none"/>
    <path d="M 200.00,75.000000L 200.00,150.000000" stroke="black" stroke-width="1" fill="none"/>
    <path d="M 875.00,1100.000000L 950.00,1100.000000" stroke="black" stroke-width="1" fill="none"/>
    <path d="M 525.00,500.000000L 525.00,575.000000" stroke="black" stroke-width="1" fill="none"/>
    <path d="M 950.00,1095.000000 H 1055.00 a 10.00,10.00 0 0,0 10.00,-10.00L 1065.00,775.000000" stroke="black" stroke-width="1" fill="none"/>
    <path d="M 1200.00,1575.000000L 1125.00,1575.000000" stroke="black" stroke-width="1" fill="none"/>
    <path d="M 150.00,1175.000000L 275.00,1175.000000" stroke="black" stroke-width="1" fill="none"/>
    <path d="M 1135.00,1100.000000 V 985.00 a 10.00,10.00 0 0,1 10.00,-10.00L 1275.00,975.000000" stroke="black" stroke-width="1" fill="none"/>
    <path d="M 125.00,75.000000L 200.00,75.000000" stroke="black" stroke-width="1" fill="none"/>
    <path d="M 1400.00,900.000000L 1275.00,900.000000" stroke="black" stroke-width="1" fill="none"/>
    <path d="M 475.00,1250.000000L 475.00,725.000000" stroke="black" stroke-width="1" fill="none"/>
    <path d="M 425.00,400.000000L 350.00,400.000000" stroke="black" stroke-width="1" fill="none"/>
    <path d="M 1400.00,825.000000L 1400.00,900.000000" stroke="black" stroke-width="1" fill="none"/>
    <path d="M 1125.00,1100.000000L 1125.00,925.000000" stroke="black" stroke-width="1" fill="none"/>
    <path d="M 1275.00,575.000000L 1200.00,575.000000" stroke="black" stroke-width="1" fill="none"/>
    <path d="M 600.00,725.000000 V 1365.00 a 10.00,10.00 0 0,0 10.00,10.00L 1600.00,1375.000000" stroke="black" stroke-width="1" fill="none"/>
    <rect x="1060.0" y="760.0" width="30.0" height="30.0" stroke="black" stroke-width="1" id="node0" onclick="ow3.nodeClick(this)" fill="#f00"/>

    <rect x="510.0" y="560.0" width="30.0" height="30.0" stroke="black" stroke-width="1" id="node1" onclick="ow3.nodeClick(this)" fill="#f0f0d2"/>

    <rect x="1510.0" y="1535.0" width="30.0" height="30.0" stroke="black" stroke-width="1" id="node2" onclick="ow3.nodeClick(this)" fill="#f0f0d2"/>

    <rect x="260.0" y="1160.0" width="30.0" height="30.0" stroke="black" stroke-width="1" id="node3" onclick="ow3.nodeClick(this)" fill="#f0f0d2"/>

    <rect x="1110.0" y="910.0" width="30.0" height="30.0" stroke="black" stroke-width="1" id="node4" onclick="ow3.nodeClick(this)" fill="#f0f0d2"/>

    <rect x="510.0" y="635.0" width="30.0" height="30.0" stroke="black" stroke-width="1" id="node5" onclick="ow3.nodeClick(this)" fill="#f0f0d2"/>

    <rect x="335.0" y="1160.0" width="30.0" height="30.0" stroke="black" stroke-width="1" id="node6" onclick="ow3.nodeClick(this)" fill="#f0f0d2"/>

    <rect x="1260.0" y="885.0" width="30.0" height="30.0" stroke="black" stroke-width="1" id="node7" onclick="ow3.nodeClick(this)" fill="#f0f0d2"/>

    <rect x="335.0" y="1085.0" width="30.0" height="30.0" stroke="black" stroke-width="1" id="node8" onclick="ow3.nodeClick(this)" fill="#f0f0d2"/>

    <rect x="185.0" y="210.0" width="30.0" height="30.0" stroke="black" stroke-width="1" id="node9" onclick="ow3.nodeClick(this)" fill="#f0f0d2"/>

    <rect x="1585.0" y="1535.0" width="30.0" height="30.0" stroke="black" stroke-width="1" id="node10" onclick="ow3.nodeClick(this)" fill="#f0f0d2"/>

    <rect x="985.0" y="760.0" width="30.0" height="30.0" stroke="black" stroke-width="1" id="node11" onclick="ow3.nodeClick(this)" fill="#f0f0d2"/>

    <rect x="710.0" y="1085.0" width="30.0" height="30.0" stroke="black" stroke-width="1" id="node12" onclick="ow3.nodeClick(this)" fill="#f0f0d2"/>

    <rect x="1110.0" y="560.0" width="30.0" height="30.0" stroke="black" stroke-width="1" id="node13" onclick="ow3.nodeClick(this)" fill="#f0f0d2"/>

    <rect x="910.0" y="760.0" width="30.0" height="30.0" stroke="black" stroke-width="1" id="node14" onclick="ow3.nodeClick(this)" fill="#f0f0d2"/>

    <rect x="1860.0" y="235.0" width="30.0" height="30.0" stroke="black" stroke-width="1" id="node15" onclick="ow3.nodeClick(this)" fill="#f0f0d2"/>

    <rect x="1185.0" y="560.0" width="30.0" height="30.0" stroke="black" stroke-width="1" id="node16" onclick="ow3.nodeClick(this)" fill="#f0f0d2"/>

    <rect x="260.0" y="385.0" width="30.0" height="30.0" stroke="black" stroke-width="1" id="node17" onclick="ow3.nodeClick(this)" fill="#f0f0d2"/>

    <rect x="1435.0" y="1535.0" width="30.0" height="30.0" stroke="black" stroke-width="1" id="node18" onclick="ow3.nodeClick(this)" fill="#f0f0d2"/>

    <rect x="135.0" y="1160.0" width="30.0" height="30.0" stroke="black" stroke-width="1" id="node19" onclick="ow3.nodeClick(this)" fill="#f0f0d2"/>

    <rect x="510.0" y="485.0" width="30.0" height="30.0" stroke="black" stroke-width="1" id="node20" onclick="ow3.nodeClick(this)" fill="#f0f0d2"/>

    <rect x="260.0" y="210.0" width="30.0" height="30.0" stroke="black" stroke-width="1" id="node21" onclick="ow3.nodeClick(this)" fill="#f00"/>

    <rect x="410.0" y="1160.0" width="30.0" height="30.0" stroke="black" stroke-width="1" id="node22" onclick="ow3.nodeClick(this)" fill="#f0f0d2"/>

    <rect x="435.0" y="560.0" width="30.0" height="30.0" stroke="black" stroke-width="1" id="node23" onclick="ow3.nodeClick(this)" fill="#f0f0d2"/>

    <rect x="60.0" y="1160.0" width="30.0" height="30.0" stroke="black" stroke-width="1" id="node24" onclick="ow3.nodeClick(this)" fill="#f0f0d2"/>

    <rect x="1110.0" y="1085.0" width="30.0" height="30.0" stroke="black" stroke-width="1" id="node25" onclick="ow3.nodeClick(this)" fill="#f0f0d2"/>

    <rect x="1585.0" y="1360.0" width="30.0" height="30.0" stroke="black" stroke-width="1" id="node26" onclick="ow3.nodeClick(this)" fill="#f0f0d2"/>

    <rect x="335.0" y="385.0" width="30.0" height="30.0" stroke="black" stroke-width="1" id="node27" onclick="ow3.nodeClick(this)" fill="#f0f0d2"/>

    <rect x="585.0" y="710.0" width="30.0" height="30.0" stroke="black" stroke-width="1" id="node28" onclick="ow3.nodeClick(this)" fill="#f0f0d2"/>

    <rect x="1110.0" y="1560.0" width="30.0" height="30.0" stroke="black" stroke-width="1" id="node29" onclick="ow3.nodeClick(this)" fill="#f0f0d2"/>

    <rect x="935.0" y="1085.0" width="30.0" height="30.0" stroke="black" stroke-width="1" id="node30" onclick="ow3.nodeClick(this)" fill="#f0f0d2"/>

    <rect x="335.0" y="310.0" width="30.0" height="30.0" stroke="black" stroke-width="1" id="node31" onclick="ow3.nodeClick(this)" fill="#f0f0d2"/>

    <rect x="1260.0" y="960.0" width="30.0" height="30.0" stroke="black" stroke-width="1" id="node32" onclick="ow3.nodeClick(this)" fill="#f0f0d2"/>

    <rect x="1260.0" y="560.0" width="30.0" height="30.0" stroke="black" stroke-width="1" id="node33" onclick="ow3.nodeClick(this)" fill="#f0f0d2"/>

    <rect x="1560.0" y="1085.0" width="30.0" height="30.0" stroke="black" stroke-width="1" id="node34" onclick="ow3.nodeClick(this)" fill="#f0f0d2"/>

    <rect x="585.0" y="635.0" width="30.0" height="30.0" stroke="black" stroke-width="1" id="node35" onclick="ow3.nodeClick(this)" fill="#f0f0d2"/>

    <rect x="335.0" y="1310.0" width="30.0" height="30.0" stroke="black" stroke-width="1" id="node36" onclick="ow3.nodeClick(this)" fill="#f0f0d2"/>

    <rect x="-15.0" y="1160.0" width="30.0" height="30.0" stroke="black" stroke-width="1" id="node37" onclick="ow3.nodeClick(this)" fill="#f0f0d2"/>

    <rect x="1635.0" y="1085.0" width="30.0" height="30.0" stroke="black" stroke-width="1" id="node38" onclick="ow3.nodeClick(this)" fill="#f0f0d2"/>

    <rect x="1185.0" y="1560.0" width="30.0" height="30.0" stroke="black" stroke-width="1" id="node39" onclick="ow3.nodeClick(this)" fill="#f0f0d2"/>

    <rect x="1185.0" y="635.0" width="30.0" height="30.0" stroke="black" stroke-width="1" id="node40" onclick="ow3.nodeClick(this)" fill="#f0f0d2"/>

    <rect x="1585.0" y="1285.0" width="30.0" height="30.0" stroke="black" stroke-width="1" id="node41" onclick="ow3.nodeClick(this)" fill="#f0f0d2"/>

    <rect x="185.0" y="135.0" width="30.0" height="30.0" stroke="black" stroke-width="1" id="node42" onclick="ow3.nodeClick(this)" fill="#f0f0d2"/>

    <rect x="860.0" y="1085.0" width="30.0" height="30.0" stroke="black" stroke-width="1" id="node43" onclick="ow3.nodeClick(this)" fill="#f0f0d2"/>

    <rect x="1385.0" y="360.0" width="30.0" height="30.0" stroke="black" stroke-width="1" id="node44" onclick="ow3.nodeClick(this)" fill="#f0f0d2"/>

    <rect x="1760.0" y="360.0" width="30.0" height="30.0" stroke="black" stroke-width="1" id="node45" onclick="ow3.nodeClick(this)" fill="#f0f0d2"/>

    <rect x="1260.0" y="1035.0" width="30.0" height="30.0" stroke="black" stroke-width="1" id="node46" onclick="ow3.nodeClick(this)" fill="#f0f0d2"/>

    <rect x="260.0" y="285.0" width="30.0" height="30.0" stroke="black" stroke-width="1" id="node47" onclick="ow3.nodeClick(this)" fill="#f0f0d2"/>

    <rect x="1110.0" y="835.0" width="30.0" height="30.0" stroke="black" stroke-width="1" id="node48" onclick="ow3.nodeClick(this)" fill="#f0f0d2"/>

    <rect x="1110.0" y="635.0" width="30.0" height="30.0" stroke="black" stroke-width="1" id="node49" onclick="ow3.nodeClick(this)" fill="#f0f0d2"/>

    <rect x="185.0" y="60.0" width="30.0" height="30.0" stroke="black" stroke-width="1" id="node50" onclick="ow3.nodeClick(this)" fill="#f0f0d2"/>

    <rect x="1385.0" y="810.0" width="30.0" height="30.0" stroke="black" stroke-width="1" id="node51" onclick="ow3.nodeClick(this)" fill="#f0f0d2"/>

    <rect x="1660.0" y="1360.0" width="30.0" height="30.0" stroke="black" stroke-width="1" id="node52" onclick="ow3.nodeClick(this)" fill="#f0f0d2"/>

    <rect x="410.0" y="385.0" width="30.0" height="30.0" stroke="black" stroke-width="1" id="node53" onclick="ow3.nodeClick(this)" fill="#f0f0d2"/>

    <rect x="935.0" y="1010.0" width="30.0" height="30.0" stroke="black" stroke-width="1" id="node54" onclick="ow3.nodeClick(this)" fill="#f0f0d2"/>

    <rect x="785.0" y="1085.0" width="30.0" height="30.0" stroke="black" stroke-width="1" id="node55" onclick="ow3.nodeClick(this)" fill="#f0f0d2"/>

    <rect x="1185.0" y="435.0" width="30.0" height="30.0" stroke="black" stroke-width="1" id="node56" onclick="ow3.nodeClick(this)" fill="#f0f0d2"/>

    <rect x="1660.0" y="1435.0" width="30.0" height="30.0" stroke="black" stroke-width="1" id="node57" onclick="ow3.nodeClick(this)" fill="#f0f0d2"/>

    <rect x="110.0" y="210.0" width="30.0" height="30.0" stroke="black" stroke-width="1" id="node58" onclick="ow3.nodeClick(this)" fill="#f0f0d2"/>

    <rect x="110.0" y="60.0" width="30.0" height="30.0" stroke="black" stroke-width="1" id="node59" onclick="ow3.nodeClick(this)" fill="#f0f0d2"/>

    <rect x="935.0" y="1235.0" width="30.0" height="30.0" stroke="black" stroke-width="1" id="node60" onclick="ow3.nodeClick(this)" fill="#f0f0d2"/>

    <rect x="1710.0" y="1085.0" width="30.0" height="30.0" stroke="black" stroke-width="1" id="node61" onclick="ow3.nodeClick(this)" fill="#f0f0d2"/>

    <rect x="460.0" y="1310.0" width="30.0" height="30.0" stroke="black" stroke-width="1" id="node62" onclick="ow3.nodeClick(this)" fill="#f0f0d2"/>

    <rect x="1560.0" y="1160.0" width="30.0" height="30.0" stroke="black" stroke-width="1" id="node63" onclick="ow3.nodeClick(this)" fill="#f0f0d2"/>

    <rect x="1560.0" y="360.0" width="30.0" height="30.0" stroke="black" stroke-width="1" id="node64" onclick="ow3.nodeClick(this)" fill="#f0f0d2"/>

    <rect x="1460.0" y="810.0" width="30.0" height="30.0" stroke="black" stroke-width="1" id="node65" onclick="ow3.nodeClick(this)" fill="#f0f0d2"/>

    <rect x="1785.0" y="60.0" width="30.0" height="30.0" stroke="black" stroke-width="1" id="node66" onclick="ow3.nodeClick(this)" fill="#f0f0d2"/>

    <rect x="1110.0" y="1410.0" width="30.0" height="30.0" stroke="black" stroke-width="1" id="node67" onclick="ow3.nodeClick(this)" fill="#f0f0d2"/>

    <rect x="1260.0" y="435.0" width="30.0" height="30.0" stroke="black" stroke-width="1" id="node68" onclick="ow3.nodeClick(this)" fill="#f0f0d2"/>

    <rect x="1560.0" y="1010.0" width="30.0" height="30.0" stroke="black" stroke-width="1" id="node69" onclick="ow3.nodeClick(this)" fill="#f0f0d2"/>

    <rect x="460.0" y="1235.0" width="30.0" height="30.0" stroke="black" stroke-width="1" id="node70" onclick="ow3.nodeClick(this)" fill="#f0f0d2"/>

    <rect x="1110.0" y="1485.0" width="30.0" height="30.0" stroke="black" stroke-width="1" id="node71" onclick="ow3.nodeClick(this)" fill="#f0f0d2"/>

    <rect x="460.0" y="710.0" width="30.0" height="30.0" stroke="black" stroke-width="1" id="node72" onclick="ow3.nodeClick(this)" fill="#f0f0d2"/>

    <rect x="660.0" y="710.0" width="30.0" height="30.0" stroke="black" stroke-width="1" id="node73" onclick="ow3.nodeClick(this)" fill="#f0f0d2"/>

    <rect x="1335.0" y="435.0" width="30.0" height="30.0" stroke="black" stroke-width="1" id="node74" onclick="ow3.nodeClick(this)" fill="#f0f0d2"/>

    <rect x="1385.0" y="885.0" width="30.0" height="30.0" stroke="black" stroke-width="1" id="node75" onclick="ow3.nodeClick(this)" fill="#f0f0d2"/>

    <rect x="185.0" y="-15.0" width="30.0" height="30.0" stroke="black" stroke-width="1" id="node76" onclick="ow3.nodeClick(this)" fill="#f0f0d2"/>

    <rect x="1185.0" y="910.0" width="30.0" height="30.0" stroke="black" stroke-width="1" id="node77" onclick="ow3.nodeClick(this)" fill="#f0f0d2"/>

    <rect x="860.0" y="1310.0" width="30.0" height="30.0" stroke="black" stroke-width="1" id="node78" onclick="ow3.nodeClick(this)" fill="#f0f0d2"/>

    <rect x="935.0" y="1310.0" width="30.0" height="30.0" stroke="black" stroke-width="1" id="node79" onclick="ow3.nodeClick(this)" fill="#f0f0d2"/>

    <rect x="710.0" y="1235.0" width="30.0" height="30.0" stroke="black" stroke-width="1" id="node80" onclick="ow3.nodeClick(this)" fill="#f0f0d2"/>

    <rect x="710.0" y="1160.0" width="30.0" height="30.0" stroke="black" stroke-width="1" id="node81" onclick="ow3.nodeClick(this)" fill="#f0f0d2"/>

    <rect x="1110.0" y="1635.0" width="30.0" height="30.0" stroke="black" stroke-width="1" id="node82" onclick="ow3.nodeClick(this)" fill="#f0f0d2"/>

    <rect x="1760.0" y="285.0" width="30.0" height="30.0" stroke="black" stroke-width="1" id="node83" onclick="ow3.nodeClick(this)" fill="#f0f0d2"/>

    <rect x="335.0" y="485.0" width="30.0" height="30.0" stroke="black" stroke-width="1" id="node84" onclick="ow3.nodeClick(this)" fill="#f0f0d2"/>

    <rect x="1385.0" y="960.0" width="30.0" height="30.0" stroke="black" stroke-width="1" id="node85" onclick="ow3.nodeClick(this)" fill="#f0f0d2"/>

    <rect x="785.0" y="1160.0" width="30.0" height="30.0" stroke="black" stroke-width="1" id="node86" onclick="ow3.nodeClick(this)" fill="#f0f0d2"/>

    <rect x="1860.0" y="60.0" width="30.0" height="30.0" stroke="black" stroke-width="1" id="node87" onclick="ow3.nodeClick(this)" fill="#f0f0d2"/>

    <rect x="1010.0" y="1010.0" width="30.0" height="30.0" stroke="black" stroke-width="1" id="node88" onclick="ow3.nodeClick(this)" fill="#f0f0d2"/>

    <rect x="1185.0" y="360.0" width="30.0" height="30.0" stroke="black" stroke-width="1" id="node89" onclick="ow3.nodeClick(this)" fill="#f0f0d2"/>

</g>
</g>
</svg>
