<?xml version="1.0" encoding="UTF-8"?>
<svg id="canvasSVG" xmlns="http://www.w3.org/2000/svg" width="2395.0px" height="2570.0px">
<rect x="0" y="0" width="2395.0" height="2570.0" stroke="none" stroke-width="1" id="" onclick="null" fill="#bdbddf"/>
<g id="outerGroup">
<g transform="translate(20.00,20.00),scale(1.00),translate(15.00,15.00)">
    <path d="M 1975.00,1775.000000L 1900.00,1775.000000" stroke="black" stroke-width="1" fill="none"/>
    <path d="M 2100.00,725.000000L 2175.00,725.000000" stroke="black" stroke-width="1" fill="none"/>
    <path d="M 450.00,1850.000000L 450.00,1775.000000" stroke="black" stroke-width="1" fill="none"/>
    <path d="M 600.00,1325.000000L 675.00,1325.000000" stroke="black" stroke-width="1" fill="none"/>
    <path d="M 600.00,1900.000000L 600.00,1825.000000" stroke="black" stroke-width="1" fill="none"/>
    <path d="M 1075.00,375.000000L 1075.00,450.000000" stroke="black" stroke-width="1" fill="none"/>
    <path d="M 1750.00,1650.000000L 1750.00,1725.000000" stroke="black" stroke-width="1" fill="none"/>
    <path d="M 875.00,1475.000000L 875.00,950.000000" stroke="black" stroke-width="1" fill="none"/>
    <path d="M 1075.00,450.000000L 1075.00,525.000000" stroke="black" stroke-width="1" fill="none"/>
    <path d="M 250.00,2450.000000L 250.00,2375.000000" stroke="black" stroke-width="1" fill="none"/>
    <path d="M 1275.00,175.000000L 1200.00,175.000000" stroke="black" stroke-width="1" fill="none"/>
    <path d="M 750.00,675.000000L 675.00,675.000000" stroke="black" stroke-width="1" fill="none"/>
    <path d="M 450.00,1325.000000L 450.00,1400.000000" stroke="black" stroke-width="1" fill="none"/>
    <path d="M 675.00,675.000000 V 619.62 a 10.00,10.00 0 0,1 10.00,-10.00L 1000.00,609.615385" stroke="black" stroke-width="1" fill="none"/>
    <path d="M 525.00,1900.000000L 600.00,1900.000000" stroke="black" stroke-width="1" fill="none"/>
    <path d="M 2050.00,2175.000000L 2050.00,2100.000000" stroke="black" stroke-width="1" fill="none"/>
    <path d="M 2050.00,1800.000000L 2050.00,1875.000000" stroke="black" stroke-width="1" fill="none"/>
    <path d="M 2125.00,1875.000000L 2050.00,1875.000000" stroke="black" stroke-width="1" fill="none"/>
    <path d="M 725.00,825.000000 H 692.21 a 10.00,10.00 0 0,1 -10.00,-10.00L 682.21,675.000000" stroke="black" stroke-width="1" fill="none"/>
    <path d="M 990.38,600.000000 V 1640.00 a 10.00,10.00 0 0,1 -10.00,10.00 H 269.62 a 10.00,10.00 0 0,1 -10.00,-10.00L 259.62,1600.000000" stroke="black" stroke-width="1" fill="none"/>
    <path d="M 400.00,1600.000000L 325.00,1600.000000" stroke="black" stroke-width="1" fill="none"/>
    <path d="M 1425.00,125.000000L 1425.00,200.000000" stroke="black" stroke-width="1" fill="none"/>
    <path d="M 725.00,900.000000 H 689.81 a 10.00,10.00 0 0,1 -10.00,-10.00L 679.81,675.000000" stroke="black" stroke-width="1" fill="none"/>
    <path d="M 875.00,1475.000000L 450.00,1475.000000" stroke="black" stroke-width="1" fill="none"/>
    <path d="M 1350.00,125.000000L 1350.00,200.000000" stroke="black" stroke-width="1" fill="none"/>
    <path d="M 50.00,1475.000000L 125.00,1475.000000" stroke="black" stroke-width="1" fill="none"/>
    <path d="M 2050.00,2250.000000L 2050.00,2325.000000" stroke="black" stroke-width="1" fill="none"/>
    <path d="M 1600.00,1725.000000 V 1760.19 a 10.00,10.00 0 0,0 10.00,10.00L 1825.00,1770.192308" stroke="black" stroke-width="1" fill="none"/>
    <path d="M 175.00,1600.000000L 250.00,1600.000000" stroke="black" stroke-width="1" fill="none"/>
    <path d="M 875.00,950.000000 H 687.40 a 10.00,10.00 0 0,1 -10.00,-10.00L 677.40,675.000000" stroke="black" stroke-width="1" fill="none"/>
    <path d="M 0.00,675.000000L 0.00,2375.000000" stroke="black" stroke-width="1" fill="none"/>
    <path d="M 875.00,800.000000L 875.00,875.000000" stroke="black" stroke-width="1" fill="none"/>
    <path d="M 1425.00,200.000000L 1425.00,275.000000" stroke="black" stroke-width="1" fill="none"/>
    <path d="M 2025.00,725.000000L 2100.00,725.000000" stroke="black" stroke-width="1" fill="none"/>
    <path d="M 2025.00,725.000000L 1550.00,725.000000" stroke="black" stroke-width="1" fill="none"/>
    <path d="M 1200.00,175.000000L 1200.00,250.000000" stroke="black" stroke-width="1" fill="none"/>
    <path d="M 2175.00,2500.000000L 2175.00,2375.000000" stroke="black" stroke-width="1" fill="none"/>
    <path d="M 450.00,1765.384615 H 990.00 a 10.00,10.00 0 0,0 10.00,-10.00L 1000.00,600.000000" stroke="black" stroke-width="1" fill="none"/>
    <path d="M 2050.00,1950.000000L 2050.00,2025.000000" stroke="black" stroke-width="1" fill="none"/>
    <path d="M 2125.00,2025.000000L 2050.00,2025.000000" stroke="black" stroke-width="1" fill="none"/>
    <path d="M 325.00,1600.000000L 250.00,1600.000000" stroke="black" stroke-width="1" fill="none"/>
    <path d="M 450.00,1925.000000L 450.00,1850.000000" stroke="black" stroke-width="1" fill="none"/>
    <path d="M 300.00,1075.000000L 675.00,1075.000000" stroke="black" stroke-width="1" fill="none"/>
    <path d="M 1000.00,325.000000L 1200.00,325.000000" stroke="black" stroke-width="1" fill="none"/>
    <path d="M 2050.00,2250.000000L 2050.00,2175.000000" stroke="black" stroke-width="1" fill="none"/>
    <path d="M 950.00,950.000000L 875.00,950.000000" stroke="black" stroke-width="1" fill="none"/>
    <path d="M 375.00,1200.000000L 675.00,1200.000000" stroke="black" stroke-width="1" fill="none"/>
    <path d="M 1900.00,1775.000000L 1825.00,1775.000000" stroke="black" stroke-width="1" fill="none"/>
    <path d="M 375.00,1125.000000L 375.00,1200.000000" stroke="black" stroke-width="1" fill="none"/>
    <path d="M 1000.00,525.000000L 1000.00,600.000000" stroke="black" stroke-width="1" fill="none"/>
    <path d="M 450.00,1400.000000L 450.00,1475.000000" stroke="black" stroke-width="1" fill="none"/>
    <path d="M 375.00,1850.000000L 450.00,1850.000000" stroke="black" stroke-width="1" fill="none"/>
    <path d="M 2250.00,2375.000000L 2175.00,2375.000000" stroke="black" stroke-width="1" fill="none"/>
    <path d="M 1600.00,1575.000000L 1600.00,1650.000000" stroke="black" stroke-width="1" fill="none"/>
    <path d="M 1275.00,675.000000 H 1219.62 a 10.00,10.00 0 0,1 -10.00,-10.00L 1209.62,600.000000" stroke="black" stroke-width="1" fill="none"/>
    <path d="M 1200.00,325.000000L 1200.00,600.000000" stroke="black" stroke-width="1" fill="none"/>
    <path d="M 525.00,1325.000000L 450.00,1325.000000" stroke="black" stroke-width="1" fill="none"/>
    <path d="M 1050.00,250.000000L 1125.00,250.000000" stroke="black" stroke-width="1" fill="none"/>
    <path d="M 125.00,1750.000000L 125.00,1675.000000" stroke="black" stroke-width="1" fill="none"/>
    <path d="M 375.00,1400.000000L 450.00,1400.000000" stroke="black" stroke-width="1" fill="none"/>
    <path d="M 600.00,1975.000000L 600.00,1900.000000" stroke="black" stroke-width="1" fill="none"/>
    <path d="M 300.00,1200.000000L 375.00,1200.000000" stroke="black" stroke-width="1" fill="none"/>
    <path d="M 1200.00,725.000000L 1200.00,600.000000" stroke="black" stroke-width="1" fill="none"/>
    <path d="M 1125.00,50.000000 H 1530.38 a 10.00,10.00 0 0,1 10.00,10.00L 1540.38,725.000000" stroke="black" stroke-width="1" fill="none"/>
    <path d="M 0.00,2375.000000L 250.00,2375.000000" stroke="black" stroke-width="1" fill="none"/>
    <path d="M 2250.00,2450.000000 H 2194.62 a 10.00,10.00 0 0,1 -10.00,-10.00L 2184.62,2375.000000" stroke="black" stroke-width="1" fill="none"/>
    <path d="M 1500.00,325.000000L 1200.00,325.000000" stroke="black" stroke-width="1" fill="none"/>
    <path d="M 1825.00,1850.000000L 1825.00,1775.000000" stroke="black" stroke-width="1" fill="none"/>
    <path d="M 1150.00,525.000000L 1075.00,525.000000" stroke="black" stroke-width="1" fill="none"/>
    <path d="M 1550.00,725.000000L 1200.00,725.000000" stroke="black" stroke-width="1" fill="none"/>
    <path d="M 1825.00,1775.000000L 450.00,1775.000000" stroke="black" stroke-width="1" fill="none"/>
    <path d="M 625.00,600.000000L 1000.00,600.000000" stroke="black" stroke-width="1" fill="none"/>
    <path d="M 675.00,1200.000000L 675.00,1075.000000" stroke="black" stroke-width="1" fill="none"/>
    <path d="M 1275.00,250.000000L 1200.00,250.000000" stroke="black" stroke-width="1" fill="none"/>
    <path d="M 450.00,1700.000000L 450.00,1775.000000" stroke="black" stroke-width="1" fill="none"/>
    <path d="M 675.00,1000.000000L 675.00,675.000000" stroke="black" stroke-width="1" fill="none"/>
    <path d="M 125.00,1475.000000L 450.00,1475.000000" stroke="black" stroke-width="1" fill="none"/>
    <path d="M 250.00,2375.000000L 250.00,2025.000000" stroke="black" stroke-width="1" fill="none"/>
    <path d="M 1075.00,525.000000L 1075.00,600.000000" stroke="black" stroke-width="1" fill="none"/>
    <path d="M 2175.00,2375.000000L 250.00,2375.000000" stroke="black" stroke-width="1" fill="none"/>
    <path d="M 600.00,1825.000000 V 1794.62 a 10.00,10.00 0 0,0 -10.00,-10.00L 450.00,1784.615385" stroke="black" stroke-width="1" fill="none"/>
    <path d="M 2325.00,2375.000000L 2250.00,2375.000000" stroke="black" stroke-width="1" fill="none"/>
    <path d="M 50.00,2025.000000L 250.00,2025.000000" stroke="black" stroke-width="1" fill="none"/>
    <path d="M 600.00,1325.000000L 525.00,1325.000000" stroke="black" stroke-width="1" fill="none"/>
    <path d="M 1200.00,600.000000L 1075.00,600.000000" stroke="black" stroke-width="1" fill="none"/>
    <path d="M 675.00,675.000000L 0.00,675.000000" stroke="black" stroke-width="1" fill="none"/>
    <path d="M 525.00,1700.000000L 450.00,1700.000000" stroke="black" stroke-width="1" fill="none"/>
    <path d="M 1200.00,100.000000L 1200.00,175.000000" stroke="black" stroke-width="1" fill="none"/>
    <path d="M 1350.00,200.000000L 1350.00,275.000000" stroke="black" stroke-width="1" fill="none"/>
    <path d="M 375.00,1950.000000L 300.00,1950.000000" stroke="black" stroke-width="1" fill="none"/>
    <path d="M 675.00,1075.000000L 675.00,1000.000000" stroke="black" stroke-width="1" fill="none"/>
    <path d="M 1075.00,600.000000L 1000.00,600.000000" stroke="black" stroke-width="1" fill="none"/>
    <path d="M 1350.00,275.000000 V 305.38 a 10.00,10.00 0 0,1 -10.00,10.00L 1200.00,315.384615" stroke="black" stroke-width="1" fill="none"/>
    <path d="M 250.00,1600.000000L 250.00,2025.000000" stroke="black" stroke-width="1" fill="none"/>
    <path d="M 50.00,1475.000000L 50.00,2025.000000" stroke="black" stroke-width="1" fill="none"/>
    <path d="M 1425.00,275.000000 V 310.19 a 10.00,10.00 0 0,1 -10.00,10.00L 1200.00,320.192308" stroke="black" stroke-width="1" fill="none"/>
    <path d="M 2050.00,2100.000000L 2050.00,2025.000000" stroke="black" stroke-width="1" fill="none"/>
    <path d="M 300.00,1950.000000 H 269.62 a 10.00,10.00 0 0,0 -10.00,10.00L 259.62,2025.000000" stroke="black" stroke-width="1" fill="none"/>
    <path d="M 2175.00,725.000000L 2175.00,2375.000000" stroke="black" stroke-width="1" fill="none"/>
    <path d="M 1200.00,250.000000L 1200.00,325.000000" stroke="black" stroke-width="1" fill="none"/>
    <path d="M 1675.00,1725.000000L 1600.00,1725.000000" stroke="black" stroke-width="1" fill="none"/>
    <path d="M 750.00,750.000000 H 694.62 a 10.00,10.00 0 0,1 -10.00,-10.00L 684.62,675.000000" stroke="black" stroke-width="1" fill="none"/>
    <path d="M 250.00,1525.000000L 250.00,1600.000000" stroke="black" stroke-width="1" fill="none"/>
    <path d="M 200.00,1675.000000L 125.00,1675.000000" stroke="black" stroke-width="1" fill="none"/>
    <path d="M 675.00,1325.000000L 675.00,1200.000000" stroke="black" stroke-width="1" fill="none"/>
    <path d="M 450.00,1250.000000L 450.00,1325.000000" stroke="black" stroke-width="1" fill="none"/>
    <path d="M 1000.00,450.000000L 1000.00,525.000000" stroke="black" stroke-width="1" fill="none"/>
    <path d="M 1125.00,250.000000L 1200.00,250.000000" stroke="black" stroke-width="1" fill="none"/>
    <path d="M 125.00,1675.000000L 125.00,1475.000000" stroke="black" stroke-width="1" fill="none"/>
    <path d="M 2050.00,1875.000000L 2050.00,1950.000000" stroke="black" stroke-width="1" fill="none"/>
    <path d="M 1550.00,0.000000L 1550.00,725.000000" stroke="black" stroke-width="1" fill="none"/>
    <path d="M 950.00,1025.000000 H 894.62 a 10.00,10.00 0 0,1 -10.00,-10.00L 884.62,950.000000" stroke="black" stroke-width="1" fill="none"/>
    <path d="M 125.00,1825.000000L 125.00,1750.000000" stroke="black" stroke-width="1" fill="none"/>
    <path d="M 2050.00,2025.000000L 250.00,2025.000000" stroke="black" stroke-width="1" fill="none"/>
    <path d="M 1825.00,1700.000000L 1825.00,1775.000000" stroke="black" stroke-width="1" fill="none"/>
    <path d="M 1600.00,1725.000000 H 1560.00 a 10.00,10.00 0 0,1 -10.00,-10.00L 1550.00,725.000000" stroke="black" stroke-width="1" fill="none"/>
    <path d="M 1750.00,1725.000000 V 1755.38 a 10.00,10.00 0 0,0 10.00,10.00L 1825.00,1765.384615" stroke="black" stroke-width="1" fill="none"/>
    <path d="M 2050.00,2325.000000 V 2355.38 a 10.00,10.00 0 0,1 -10.00,10.00L 250.00,2365.384615" stroke="black" stroke-width="1" fill="none"/>
    <path d="M 875.00,875.000000L 875.00,950.000000" stroke="black" stroke-width="1" fill="none"/>
    <path d="M 375.00,1775.000000L 450.00,1775.000000" stroke="black" stroke-width="1" fill="none"/>
    <path d="M 450.00,1475.000000L 450.00,1700.000000" stroke="black" stroke-width="1" fill="none"/>
    <path d="M 600.00,1000.000000L 675.00,1000.000000" stroke="black" stroke-width="1" fill="none"/>
    <path d="M 800.00,825.000000L 725.00,825.000000" stroke="black" stroke-width="1" fill="none"/>
    <path d="M 375.00,1325.000000L 450.00,1325.000000" stroke="black" stroke-width="1" fill="none"/>
    <path d="M 1600.00,1650.000000L 1600.00,1725.000000" stroke="black" stroke-width="1" fill="none"/>
    <path d="M 1275.00,600.000000L 1200.00,600.000000" stroke="black" stroke-width="1" fill="none"/>
    <rect x="235.0" y="2010.0" width="30.0" height="30.0" stroke="black" stroke-width="1" id="node0" onclick="ow3.nodeClick(this)" fill="#f0f0d2"/>

    <rect x="235.0" y="1585.0" width="30.0" height="30.0" stroke="black" stroke-width="1" id="node1" onclick="ow3.nodeClick(this)" fill="#f0f0d2"/>

    <rect x="985.0" y="585.0" width="30.0" height="30.0" stroke="black" stroke-width="1" id="node2" onclick="ow3.nodeClick(this)" fill="#f0f0d2"/>

    <rect x="435.0" y="1760.0" width="30.0" height="30.0" stroke="black" stroke-width="1" id="node3" onclick="ow3.nodeClick(this)" fill="#f0f0d2"/>

    <rect x="1060.0" y="585.0" width="30.0" height="30.0" stroke="black" stroke-width="1" id="node4" onclick="ow3.nodeClick(this)" fill="#f0f0d2"/>

    <rect x="1810.0" y="1760.0" width="30.0" height="30.0" stroke="black" stroke-width="1" id="node5" onclick="ow3.nodeClick(this)" fill="#f0f0d2"/>

    <rect x="1185.0" y="585.0" width="30.0" height="30.0" stroke="black" stroke-width="1" id="node6" onclick="ow3.nodeClick(this)" fill="#f0f0d2"/>

    <rect x="235.0" y="2360.0" width="30.0" height="30.0" stroke="black" stroke-width="1" id="node7" onclick="ow3.nodeClick(this)" fill="#f0f0d2"/>

    <rect x="1185.0" y="710.0" width="30.0" height="30.0" stroke="black" stroke-width="1" id="node8" onclick="ow3.nodeClick(this)" fill="#f0f0d2"/>

    <rect x="310.0" y="1585.0" width="30.0" height="30.0" stroke="black" stroke-width="1" id="node9" onclick="ow3.nodeClick(this)" fill="#f0f0d2"/>

    <rect x="435.0" y="1685.0" width="30.0" height="30.0" stroke="black" stroke-width="1" id="node10" onclick="ow3.nodeClick(this)" fill="#f0f0d2"/>

    <rect x="2160.0" y="2360.0" width="30.0" height="30.0" stroke="black" stroke-width="1" id="node11" onclick="ow3.nodeClick(this)" fill="#f0f0d2"/>

    <rect x="435.0" y="1460.0" width="30.0" height="30.0" stroke="black" stroke-width="1" id="node12" onclick="ow3.nodeClick(this)" fill="#f0f0d2"/>

    <rect x="1585.0" y="1710.0" width="30.0" height="30.0" stroke="black" stroke-width="1" id="node13" onclick="ow3.nodeClick(this)" fill="#f0f0d2"/>

    <rect x="2035.0" y="2010.0" width="30.0" height="30.0" stroke="black" stroke-width="1" id="node14" onclick="ow3.nodeClick(this)" fill="#f0f0d2"/>

    <rect x="-15.0" y="2360.0" width="30.0" height="30.0" stroke="black" stroke-width="1" id="node15" onclick="ow3.nodeClick(this)" fill="#f0f0d2"/>

    <rect x="435.0" y="1385.0" width="30.0" height="30.0" stroke="black" stroke-width="1" id="node16" onclick="ow3.nodeClick(this)" fill="#f0f0d2"/>

    <rect x="660.0" y="660.0" width="30.0" height="30.0" stroke="black" stroke-width="1" id="node17" onclick="ow3.nodeClick(this)" fill="#f00"/>

    <rect x="235.0" y="2435.0" width="30.0" height="30.0" stroke="black" stroke-width="1" id="node18" onclick="ow3.nodeClick(this)" fill="#f0f0d2"/>

    <rect x="2035.0" y="2310.0" width="30.0" height="30.0" stroke="black" stroke-width="1" id="node19" onclick="ow3.nodeClick(this)" fill="#f0f0d2"/>

    <rect x="1735.0" y="1710.0" width="30.0" height="30.0" stroke="black" stroke-width="1" id="node20" onclick="ow3.nodeClick(this)" fill="#f0f0d2"/>

    <rect x="2235.0" y="2360.0" width="30.0" height="30.0" stroke="black" stroke-width="1" id="node21" onclick="ow3.nodeClick(this)" fill="#f0f0d2"/>

    <rect x="1185.0" y="310.0" width="30.0" height="30.0" stroke="black" stroke-width="1" id="node22" onclick="ow3.nodeClick(this)" fill="#f0f0d2"/>

    <rect x="2235.0" y="2435.0" width="30.0" height="30.0" stroke="black" stroke-width="1" id="node23" onclick="ow3.nodeClick(this)" fill="#f0f0d2"/>

    <rect x="360.0" y="1385.0" width="30.0" height="30.0" stroke="black" stroke-width="1" id="node24" onclick="ow3.nodeClick(this)" fill="#f0f0d2"/>

    <rect x="1260.0" y="585.0" width="30.0" height="30.0" stroke="black" stroke-width="1" id="node25" onclick="ow3.nodeClick(this)" fill="#f0f0d2"/>

    <rect x="1185.0" y="235.0" width="30.0" height="30.0" stroke="black" stroke-width="1" id="node26" onclick="ow3.nodeClick(this)" fill="#f0f0d2"/>

    <rect x="435.0" y="1310.0" width="30.0" height="30.0" stroke="black" stroke-width="1" id="node27" onclick="ow3.nodeClick(this)" fill="#f0f0d2"/>

    <rect x="585.0" y="1810.0" width="30.0" height="30.0" stroke="black" stroke-width="1" id="node28" onclick="ow3.nodeClick(this)" fill="#f0f0d2"/>

    <rect x="1335.0" y="260.0" width="30.0" height="30.0" stroke="black" stroke-width="1" id="node29" onclick="ow3.nodeClick(this)" fill="#f0f0d2"/>

    <rect x="2035.0" y="2235.0" width="30.0" height="30.0" stroke="black" stroke-width="1" id="node30" onclick="ow3.nodeClick(this)" fill="#f0f0d2"/>

    <rect x="160.0" y="1585.0" width="30.0" height="30.0" stroke="black" stroke-width="1" id="node31" onclick="ow3.nodeClick(this)" fill="#f0f0d2"/>

    <rect x="710.0" y="810.0" width="30.0" height="30.0" stroke="black" stroke-width="1" id="node32" onclick="ow3.nodeClick(this)" fill="#f0f0d2"/>

    <rect x="35.0" y="2010.0" width="30.0" height="30.0" stroke="black" stroke-width="1" id="node33" onclick="ow3.nodeClick(this)" fill="#f0f0d2"/>

    <rect x="1810.0" y="1685.0" width="30.0" height="30.0" stroke="black" stroke-width="1" id="node34" onclick="ow3.nodeClick(this)" fill="#f0f0d2"/>

    <rect x="660.0" y="985.0" width="30.0" height="30.0" stroke="black" stroke-width="1" id="node35" onclick="ow3.nodeClick(this)" fill="#f0f0d2"/>

    <rect x="660.0" y="1060.0" width="30.0" height="30.0" stroke="black" stroke-width="1" id="node36" onclick="ow3.nodeClick(this)" fill="#f0f0d2"/>

    <rect x="435.0" y="1835.0" width="30.0" height="30.0" stroke="black" stroke-width="1" id="node37" onclick="ow3.nodeClick(this)" fill="#f0f0d2"/>

    <rect x="860.0" y="935.0" width="30.0" height="30.0" stroke="black" stroke-width="1" id="node38" onclick="ow3.nodeClick(this)" fill="#f0f0d2"/>

    <rect x="2160.0" y="710.0" width="30.0" height="30.0" stroke="black" stroke-width="1" id="node39" onclick="ow3.nodeClick(this)" fill="#f0f0d2"/>

    <rect x="585.0" y="985.0" width="30.0" height="30.0" stroke="black" stroke-width="1" id="node40" onclick="ow3.nodeClick(this)" fill="#f0f0d2"/>

    <rect x="860.0" y="860.0" width="30.0" height="30.0" stroke="black" stroke-width="1" id="node41" onclick="ow3.nodeClick(this)" fill="#f0f0d2"/>

    <rect x="110.0" y="1460.0" width="30.0" height="30.0" stroke="black" stroke-width="1" id="node42" onclick="ow3.nodeClick(this)" fill="#f0f0d2"/>

    <rect x="1535.0" y="710.0" width="30.0" height="30.0" stroke="black" stroke-width="1" id="node43" onclick="ow3.nodeClick(this)" fill="#f0f0d2"/>

    <rect x="2035.0" y="2085.0" width="30.0" height="30.0" stroke="black" stroke-width="1" id="node44" onclick="ow3.nodeClick(this)" fill="#f0f0d2"/>

    <rect x="2035.0" y="1935.0" width="30.0" height="30.0" stroke="black" stroke-width="1" id="node45" onclick="ow3.nodeClick(this)" fill="#f0f0d2"/>

    <rect x="1585.0" y="1635.0" width="30.0" height="30.0" stroke="black" stroke-width="1" id="node46" onclick="ow3.nodeClick(this)" fill="#f0f0d2"/>

    <rect x="360.0" y="1835.0" width="30.0" height="30.0" stroke="black" stroke-width="1" id="node47" onclick="ow3.nodeClick(this)" fill="#f0f0d2"/>

    <rect x="660.0" y="1185.0" width="30.0" height="30.0" stroke="black" stroke-width="1" id="node48" onclick="ow3.nodeClick(this)" fill="#f0f0d2"/>

    <rect x="2085.0" y="710.0" width="30.0" height="30.0" stroke="black" stroke-width="1" id="node49" onclick="ow3.nodeClick(this)" fill="#f0f0d2"/>

    <rect x="1260.0" y="660.0" width="30.0" height="30.0" stroke="black" stroke-width="1" id="node50" onclick="ow3.nodeClick(this)" fill="#f0f0d2"/>

    <rect x="285.0" y="1935.0" width="30.0" height="30.0" stroke="black" stroke-width="1" id="node51" onclick="ow3.nodeClick(this)" fill="#f0f0d2"/>

    <rect x="1060.0" y="510.0" width="30.0" height="30.0" stroke="black" stroke-width="1" id="node52" onclick="ow3.nodeClick(this)" fill="#f0f0d2"/>

    <rect x="2010.0" y="710.0" width="30.0" height="30.0" stroke="black" stroke-width="1" id="node53" onclick="ow3.nodeClick(this)" fill="#f0f0d2"/>

    <rect x="2310.0" y="2360.0" width="30.0" height="30.0" stroke="black" stroke-width="1" id="node54" onclick="ow3.nodeClick(this)" fill="#f0f0d2"/>

    <rect x="1885.0" y="1760.0" width="30.0" height="30.0" stroke="black" stroke-width="1" id="node55" onclick="ow3.nodeClick(this)" fill="#f0f0d2"/>

    <rect x="1410.0" y="260.0" width="30.0" height="30.0" stroke="black" stroke-width="1" id="node56" onclick="ow3.nodeClick(this)" fill="#f0f0d2"/>

    <rect x="585.0" y="1885.0" width="30.0" height="30.0" stroke="black" stroke-width="1" id="node57" onclick="ow3.nodeClick(this)" fill="#f0f0d2"/>

    <rect x="1335.0" y="185.0" width="30.0" height="30.0" stroke="black" stroke-width="1" id="node58" onclick="ow3.nodeClick(this)" fill="#f0f0d2"/>

    <rect x="510.0" y="1310.0" width="30.0" height="30.0" stroke="black" stroke-width="1" id="node59" onclick="ow3.nodeClick(this)" fill="#f0f0d2"/>

    <rect x="2110.0" y="2010.0" width="30.0" height="30.0" stroke="black" stroke-width="1" id="node60" onclick="ow3.nodeClick(this)" fill="#f0f0d2"/>

    <rect x="585.0" y="1960.0" width="30.0" height="30.0" stroke="black" stroke-width="1" id="node61" onclick="ow3.nodeClick(this)" fill="#f0f0d2"/>

    <rect x="360.0" y="1185.0" width="30.0" height="30.0" stroke="black" stroke-width="1" id="node62" onclick="ow3.nodeClick(this)" fill="#f0f0d2"/>

    <rect x="1060.0" y="435.0" width="30.0" height="30.0" stroke="black" stroke-width="1" id="node63" onclick="ow3.nodeClick(this)" fill="#f0f0d2"/>

    <rect x="1735.0" y="1635.0" width="30.0" height="30.0" stroke="black" stroke-width="1" id="node64" onclick="ow3.nodeClick(this)" fill="#f0f0d2"/>

    <rect x="660.0" y="1310.0" width="30.0" height="30.0" stroke="black" stroke-width="1" id="node65" onclick="ow3.nodeClick(this)" fill="#f0f0d2"/>

    <rect x="1660.0" y="1710.0" width="30.0" height="30.0" stroke="black" stroke-width="1" id="node66" onclick="ow3.nodeClick(this)" fill="#f0f0d2"/>

    <rect x="935.0" y="935.0" width="30.0" height="30.0" stroke="black" stroke-width="1" id="node67" onclick="ow3.nodeClick(this)" fill="#f0f0d2"/>

    <rect x="1110.0" y="235.0" width="30.0" height="30.0" stroke="black" stroke-width="1" id="node68" onclick="ow3.nodeClick(this)" fill="#f0f0d2"/>

    <rect x="985.0" y="510.0" width="30.0" height="30.0" stroke="black" stroke-width="1" id="node69" onclick="ow3.nodeClick(this)" fill="#f0f0d2"/>

    <rect x="1535.0" y="-15.0" width="30.0" height="30.0" stroke="black" stroke-width="1" id="node70" onclick="ow3.nodeClick(this)" fill="#f0f0d2"/>

    <rect x="235.0" y="1510.0" width="30.0" height="30.0" stroke="black" stroke-width="1" id="node71" onclick="ow3.nodeClick(this)" fill="#f0f0d2"/>

    <rect x="2160.0" y="2485.0" width="30.0" height="30.0" stroke="black" stroke-width="1" id="node72" onclick="ow3.nodeClick(this)" fill="#f0f0d2"/>

    <rect x="1960.0" y="1760.0" width="30.0" height="30.0" stroke="black" stroke-width="1" id="node73" onclick="ow3.nodeClick(this)" fill="#f0f0d2"/>

    <rect x="1335.0" y="110.0" width="30.0" height="30.0" stroke="black" stroke-width="1" id="node74" onclick="ow3.nodeClick(this)" fill="#f0f0d2"/>

    <rect x="510.0" y="1685.0" width="30.0" height="30.0" stroke="black" stroke-width="1" id="node75" onclick="ow3.nodeClick(this)" fill="#f0f0d2"/>

    <rect x="935.0" y="1010.0" width="30.0" height="30.0" stroke="black" stroke-width="1" id="node76" onclick="ow3.nodeClick(this)" fill="#f0f0d2"/>

    <rect x="2035.0" y="1860.0" width="30.0" height="30.0" stroke="black" stroke-width="1" id="node77" onclick="ow3.nodeClick(this)" fill="#f0f0d2"/>

    <rect x="1135.0" y="510.0" width="30.0" height="30.0" stroke="black" stroke-width="1" id="node78" onclick="ow3.nodeClick(this)" fill="#f0f0d2"/>

    <rect x="1185.0" y="160.0" width="30.0" height="30.0" stroke="black" stroke-width="1" id="node79" onclick="ow3.nodeClick(this)" fill="#f0f0d2"/>

    <rect x="785.0" y="810.0" width="30.0" height="30.0" stroke="black" stroke-width="1" id="node80" onclick="ow3.nodeClick(this)" fill="#f0f0d2"/>

    <rect x="585.0" y="1310.0" width="30.0" height="30.0" stroke="black" stroke-width="1" id="node81" onclick="ow3.nodeClick(this)" fill="#f0f0d2"/>

    <rect x="110.0" y="1660.0" width="30.0" height="30.0" stroke="black" stroke-width="1" id="node82" onclick="ow3.nodeClick(this)" fill="#f0f0d2"/>

    <rect x="1410.0" y="185.0" width="30.0" height="30.0" stroke="black" stroke-width="1" id="node83" onclick="ow3.nodeClick(this)" fill="#f0f0d2"/>

    <rect x="435.0" y="1235.0" width="30.0" height="30.0" stroke="black" stroke-width="1" id="node84" onclick="ow3.nodeClick(this)" fill="#f0f0d2"/>

    <rect x="1485.0" y="310.0" width="30.0" height="30.0" stroke="black" stroke-width="1" id="node85" onclick="ow3.nodeClick(this)" fill="#f0f0d2"/>

    <rect x="1260.0" y="235.0" width="30.0" height="30.0" stroke="black" stroke-width="1" id="node86" onclick="ow3.nodeClick(this)" fill="#f0f0d2"/>

    <rect x="2035.0" y="2160.0" width="30.0" height="30.0" stroke="black" stroke-width="1" id="node87" onclick="ow3.nodeClick(this)" fill="#f0f0d2"/>

    <rect x="1185.0" y="85.0" width="30.0" height="30.0" stroke="black" stroke-width="1" id="node88" onclick="ow3.nodeClick(this)" fill="#f0f0d2"/>

    <rect x="1410.0" y="110.0" width="30.0" height="30.0" stroke="black" stroke-width="1" id="node89" onclick="ow3.nodeClick(this)" fill="#f0f0d2"/>

    <rect x="1810.0" y="1835.0" width="30.0" height="30.0" stroke="black" stroke-width="1" id="node90" onclick="ow3.nodeClick(this)" fill="#f0f0d2"/>

    <rect x="510.0" y="1885.0" width="30.0" height="30.0" stroke="black" stroke-width="1" id="node91" onclick="ow3.nodeClick(this)" fill="#f0f0d2"/>

    <rect x="1260.0" y="160.0" width="30.0" height="30.0" stroke="black" stroke-width="1" id="node92" onclick="ow3.nodeClick(this)" fill="#f0f0d2"/>

    <rect x="710.0" y="885.0" width="30.0" height="30.0" stroke="black" stroke-width="1" id="node93" onclick="ow3.nodeClick(this)" fill="#f0f0d2"/>

    <rect x="860.0" y="785.0" width="30.0" height="30.0" stroke="black" stroke-width="1" id="node94" onclick="ow3.nodeClick(this)" fill="#f0f0d2"/>

    <rect x="1585.0" y="1560.0" width="30.0" height="30.0" stroke="black" stroke-width="1" id="node95" onclick="ow3.nodeClick(this)" fill="#f0f0d2"/>

    <rect x="110.0" y="1735.0" width="30.0" height="30.0" stroke="black" stroke-width="1" id="node96" onclick="ow3.nodeClick(this)" fill="#f0f0d2"/>

    <rect x="1035.0" y="235.0" width="30.0" height="30.0" stroke="black" stroke-width="1" id="node97" onclick="ow3.nodeClick(this)" fill="#f0f0d2"/>

    <rect x="860.0" y="1460.0" width="30.0" height="30.0" stroke="black" stroke-width="1" id="node98" onclick="ow3.nodeClick(this)" fill="#f0f0d2"/>

    <rect x="360.0" y="1760.0" width="30.0" height="30.0" stroke="black" stroke-width="1" id="node99" onclick="ow3.nodeClick(this)" fill="#f0f0d2"/>

    <rect x="35.0" y="1460.0" width="30.0" height="30.0" stroke="black" stroke-width="1" id="node100" onclick="ow3.nodeClick(this)" fill="#f0f0d2"/>

    <rect x="285.0" y="1060.0" width="30.0" height="30.0" stroke="black" stroke-width="1" id="node101" onclick="ow3.nodeClick(this)" fill="#f0f0d2"/>

    <rect x="285.0" y="1185.0" width="30.0" height="30.0" stroke="black" stroke-width="1" id="node102" onclick="ow3.nodeClick(this)" fill="#f0f0d2"/>

    <rect x="2035.0" y="1785.0" width="30.0" height="30.0" stroke="black" stroke-width="1" id="node103" onclick="ow3.nodeClick(this)" fill="#f0f0d2"/>

    <rect x="360.0" y="1110.0" width="30.0" height="30.0" stroke="black" stroke-width="1" id="node104" onclick="ow3.nodeClick(this)" fill="#f0f0d2"/>

    <rect x="735.0" y="660.0" width="30.0" height="30.0" stroke="black" stroke-width="1" id="node105" onclick="ow3.nodeClick(this)" fill="#f0f0d2"/>

    <rect x="110.0" y="1810.0" width="30.0" height="30.0" stroke="black" stroke-width="1" id="node106" onclick="ow3.nodeClick(this)" fill="#f0f0d2"/>

    <rect x="360.0" y="1310.0" width="30.0" height="30.0" stroke="black" stroke-width="1" id="node107" onclick="ow3.nodeClick(this)" fill="#f0f0d2"/>

    <rect x="1060.0" y="360.0" width="30.0" height="30.0" stroke="black" stroke-width="1" id="node108" onclick="ow3.nodeClick(this)" fill="#f0f0d2"/>

    <rect x="1110.0" y="35.0" width="30.0" height="30.0" stroke="black" stroke-width="1" id="node109" onclick="ow3.nodeClick(this)" fill="#f0f0d2"/>

    <rect x="385.0" y="1585.0" width="30.0" height="30.0" stroke="black" stroke-width="1" id="node110" onclick="ow3.nodeClick(this)" fill="#f0f0d2"/>

    <rect x="610.0" y="585.0" width="30.0" height="30.0" stroke="black" stroke-width="1" id="node111" onclick="ow3.nodeClick(this)" fill="#f0f0d2"/>

    <rect x="-15.0" y="660.0" width="30.0" height="30.0" stroke="black" stroke-width="1" id="node112" onclick="ow3.nodeClick(this)" fill="#f0f0d2"/>

    <rect x="2110.0" y="1860.0" width="30.0" height="30.0" stroke="black" stroke-width="1" id="node113" onclick="ow3.nodeClick(this)" fill="#f0f0d2"/>

    <rect x="435.0" y="1910.0" width="30.0" height="30.0" stroke="black" stroke-width="1" id="node114" onclick="ow3.nodeClick(this)" fill="#f0f0d2"/>

    <rect x="360.0" y="1935.0" width="30.0" height="30.0" stroke="black" stroke-width="1" id="node115" onclick="ow3.nodeClick(this)" fill="#f0f0d2"/>

    <rect x="985.0" y="435.0" width="30.0" height="30.0" stroke="black" stroke-width="1" id="node116" onclick="ow3.nodeClick(this)" fill="#f0f0d2"/>

    <rect x="735.0" y="735.0" width="30.0" height="30.0" stroke="black" stroke-width="1" id="node117" onclick="ow3.nodeClick(this)" fill="#f0f0d2"/>

    <rect x="185.0" y="1660.0" width="30.0" height="30.0" stroke="black" stroke-width="1" id="node118" onclick="ow3.nodeClick(this)" fill="#f0f0d2"/>

    <rect x="985.0" y="310.0" width="30.0" height="30.0" stroke="black" stroke-width="1" id="node119" onclick="ow3.nodeClick(this)" fill="#f0f0d2"/>

</g>
</g>
</svg>
