<?xml version="1.0" encoding="UTF-8"?>
<svg id="canvasSVG" xmlns="http://www.w3.org/2000/svg" width="2370.0px" height="2120.0px">
<rect x="0" y="0" width="2370.0" height="2120.0" stroke="none" stroke-width="1" id="" onclick="null" fill="#bdbddf"/>
<g id="outerGroup">
<g transform="translate(20.00,20.00),scale(1.00),translate(15.00,15.00)">
    <path d="M 1225.00,1550.000000L 1150.00,1550.000000" stroke="black" stroke-width="1" fill="none"/>
    <path d="M 1750.00,1025.000000L 1575.00,1025.000000" stroke="black" stroke-width="1" fill="none"/>
    <path d="M 700.00,1000.000000L 700.00,925.000000" stroke="black" stroke-width="1" fill="none"/>
    <path d="M 1900.00,1500.000000L 1900.00,1700.000000" stroke="black" stroke-width="1" fill="none"/>
    <path d="M 550.00,925.000000L 425.00,925.000000" stroke="black" stroke-width="1" fill="none"/>
    <path d="M 1450.00,1550.000000L 1375.00,1550.000000" stroke="black" stroke-width="1" fill="none"/>
    <path d="M 900.00,1475.000000L 900.00,1400.000000" stroke="black" stroke-width="1" fill="none"/>
    <path d="M 1100.00,1475.000000L 1025.00,1475.000000" stroke="black" stroke-width="1" fill="none"/>
    <path d="M 0.00,1825.000000L 75.00,1825.000000" stroke="black" stroke-width="1" fill="none"/>
    <path d="M 1825.00,1500.000000L 1900.00,1500.000000" stroke="black" stroke-width="1" fill="none"/>
    <path d="M 1450.00,1325.000000L 1375.00,1325.000000" stroke="black" stroke-width="1" fill="none"/>
    <path d="M 1900.00,1700.000000 V 1740.00 a 10.00,10.00 0 0,1 -10.00,10.00L 825.00,1750.000000" stroke="black" stroke-width="1" fill="none"/>
    <path d="M 550.00,775.000000L 550.00,850.000000" stroke="black" stroke-width="1" fill="none"/>
    <path d="M 425.00,75.000000 H 2240.00 a 10.00,10.00 0 0,1 10.00,10.00 V 1740.00 a 10.00,10.00 0 0,1 -10.00,10.00 H 2135.00 a 10.00,10.00 0 0,1 -10.00,-10.00L 2125.00,1700.000000" stroke="black" stroke-width="1" fill="none"/>
    <path d="M 1825.00,800.000000L 1825.00,725.000000" stroke="black" stroke-width="1" fill="none"/>
    <path d="M 1575.00,1175.000000L 1575.00,1100.000000" stroke="black" stroke-width="1" fill="none"/>
    <path d="M 825.00,1350.000000L 825.00,1750.000000" stroke="black" stroke-width="1" fill="none"/>
    <path d="M 275.00,925.000000L 350.00,925.000000" stroke="black" stroke-width="1" fill="none"/>
    <path d="M 800.00,325.000000L 800.00,400.000000" stroke="black" stroke-width="1" fill="none"/>
    <path d="M 475.00,850.000000 H 443.33 a 10.00,10.00 0 0,0 -10.00,10.00L 433.33,925.000000" stroke="black" stroke-width="1" fill="none"/>
    <path d="M 1300.00,1325.000000 H 1168.33 a 10.00,10.00 0 0,0 -10.00,10.00L 1158.33,1550.000000" stroke="black" stroke-width="1" fill="none"/>
    <path d="M 2125.00,1550.000000L 2125.00,1300.000000" stroke="black" stroke-width="1" fill="none"/>
    <path d="M 1825.00,950.000000L 1825.00,1025.000000" stroke="black" stroke-width="1" fill="none"/>
    <path d="M 2125.00,125.000000L 2125.00,1300.000000" stroke="black" stroke-width="1" fill="none"/>
    <path d="M 1975.00,1425.000000L 1975.00,1500.000000" stroke="black" stroke-width="1" fill="none"/>
    <path d="M 2125.00,1300.000000 H 1518.33 a 10.00,10.00 0 0,1 -10.00,-10.00L 1508.33,1250.000000" stroke="black" stroke-width="1" fill="none"/>
    <path d="M 425.00,0.000000L 425.00,75.000000" stroke="black" stroke-width="1" fill="none"/>
    <path d="M 1225.00,575.000000L 1525.00,575.000000" stroke="black" stroke-width="1" fill="none"/>
    <path d="M 1900.00,1350.000000L 1900.00,1425.000000" stroke="black" stroke-width="1" fill="none"/>
    <path d="M 1025.00,1175.000000L 1025.00,1075.000000" stroke="black" stroke-width="1" fill="none"/>
    <path d="M 125.00,75.000000L 425.00,75.000000" stroke="black" stroke-width="1" fill="none"/>
    <path d="M 875.00,575.000000L 875.00,500.000000" stroke="black" stroke-width="1" fill="none"/>
    <path d="M 825.00,1900.000000L 825.00,1825.000000" stroke="black" stroke-width="1" fill="none"/>
    <path d="M 900.00,1475.000000L 1025.00,1475.000000" stroke="black" stroke-width="1" fill="none"/>
    <path d="M 75.00,1825.000000L 150.00,1825.000000" stroke="black" stroke-width="1" fill="none"/>
    <path d="M 900.00,1400.000000 H 843.33 a 10.00,10.00 0 0,0 -10.00,10.00L 833.33,1750.000000" stroke="black" stroke-width="1" fill="none"/>
    <path d="M 1825.00,575.000000L 1825.00,650.000000" stroke="black" stroke-width="1" fill="none"/>
    <path d="M 1225.00,575.000000L 1225.00,700.000000" stroke="black" stroke-width="1" fill="none"/>
    <path d="M 1900.00,1425.000000L 1900.00,1500.000000" stroke="black" stroke-width="1" fill="none"/>
    <path d="M 275.00,125.000000L 875.00,125.000000" stroke="black" stroke-width="1" fill="none"/>
    <path d="M 875.00,500.000000L 875.00,400.000000" stroke="black" stroke-width="1" fill="none"/>
    <path d="M 275.00,0.000000L 350.00,0.000000" stroke="black" stroke-width="1" fill="none"/>
    <path d="M 2200.00,1700.000000L 2125.00,1700.000000" stroke="black" stroke-width="1" fill="none"/>
    <path d="M 700.00,925.000000L 625.00,925.000000" stroke="black" stroke-width="1" fill="none"/>
    <path d="M 1375.00,1550.000000L 1300.00,1550.000000" stroke="black" stroke-width="1" fill="none"/>
    <path d="M 775.00,925.000000L 700.00,925.000000" stroke="black" stroke-width="1" fill="none"/>
    <path d="M 725.00,1075.000000L 725.00,1150.000000" stroke="black" stroke-width="1" fill="none"/>
    <path d="M 725.00,400.000000L 800.00,400.000000" stroke="black" stroke-width="1" fill="none"/>
    <path d="M 1825.00,1025.000000L 1750.00,1025.000000" stroke="black" stroke-width="1" fill="none"/>
    <path d="M 275.00,125.000000L 200.00,125.000000" stroke="black" stroke-width="1" fill="none"/>
    <path d="M 1225.00,700.000000L 1150.00,700.000000" stroke="black" stroke-width="1" fill="none"/>
    <path d="M 2050.00,1500.000000 H 2106.67 a 10.00,10.00 0 0,0 10.00,-10.00L 2116.67,1300.000000" stroke="black" stroke-width="1" fill="none"/>
    <path d="M 1225.00,450.000000 H 893.33 a 10.00,10.00 0 0,1 -10.00,-10.00L 883.33,400.000000" stroke="black" stroke-width="1" fill="none"/>
    <path d="M 725.00,275.000000L 875.00,275.000000" stroke="black" stroke-width="1" fill="none"/>
    <path d="M 883.33,1075.000000 V 1035.00 a 10.00,10.00 0 0,1 10.00,-10.00L 1575.00,1025.000000" stroke="black" stroke-width="1" fill="none"/>
    <path d="M 2125.00,1700.000000L 1900.00,1700.000000" stroke="black" stroke-width="1" fill="none"/>
    <path d="M 350.00,925.000000L 425.00,925.000000" stroke="black" stroke-width="1" fill="none"/>
    <path d="M 2050.00,1425.000000L 2050.00,1500.000000" stroke="black" stroke-width="1" fill="none"/>
    <path d="M 350.00,0.000000L 425.00,0.000000" stroke="black" stroke-width="1" fill="none"/>
    <path d="M 1750.00,1500.000000L 1825.00,1500.000000" stroke="black" stroke-width="1" fill="none"/>
    <path d="M 1150.00,625.000000L 1150.00,700.000000" stroke="black" stroke-width="1" fill="none"/>
    <path d="M 1025.00,1475.000000L 1025.00,1250.000000" stroke="black" stroke-width="1" fill="none"/>
    <path d="M 1025.00,1475.000000L 1025.00,1550.000000" stroke="black" stroke-width="1" fill="none"/>
    <path d="M 1150.00,1550.000000 V 1690.00 a 10.00,10.00 0 0,0 10.00,10.00L 1900.00,1700.000000" stroke="black" stroke-width="1" fill="none"/>
    <path d="M 1825.00,875.000000L 1825.00,950.000000" stroke="black" stroke-width="1" fill="none"/>
    <path d="M 875.00,125.000000L 2125.00,125.000000" stroke="black" stroke-width="1" fill="none"/>
    <path d="M 875.00,400.000000 H 1940.00 a 10.00,10.00 0 0,1 10.00,10.00 V 1240.00 a 10.00,10.00 0 0,1 -10.00,10.00L 1500.00,1250.000000" stroke="black" stroke-width="1" fill="none"/>
    <path d="M 550.00,850.000000L 550.00,925.000000" stroke="black" stroke-width="1" fill="none"/>
    <path d="M 950.00,1175.000000L 1025.00,1175.000000" stroke="black" stroke-width="1" fill="none"/>
    <path d="M 875.00,275.000000L 875.00,400.000000" stroke="black" stroke-width="1" fill="none"/>
    <path d="M 975.00,1400.000000L 900.00,1400.000000" stroke="black" stroke-width="1" fill="none"/>
    <path d="M 2300.00,0.000000L 425.00,0.000000" stroke="black" stroke-width="1" fill="none"/>
    <path d="M 800.00,1150.000000L 725.00,1150.000000" stroke="black" stroke-width="1" fill="none"/>
    <path d="M 425.00,925.000000 V 1740.00 a 10.00,10.00 0 0,0 10.00,10.00L 825.00,1750.000000" stroke="black" stroke-width="1" fill="none"/>
    <path d="M 875.00,1250.000000L 950.00,1250.000000" stroke="black" stroke-width="1" fill="none"/>
    <path d="M 1500.00,1250.000000 V 1731.67 a 10.00,10.00 0 0,1 -10.00,10.00L 825.00,1741.666667" stroke="black" stroke-width="1" fill="none"/>
    <path d="M 1650.00,1100.000000L 1575.00,1100.000000" stroke="black" stroke-width="1" fill="none"/>
    <path d="M 2300.00,1675.000000L 2300.00,1750.000000" stroke="black" stroke-width="1" fill="none"/>
    <path d="M 1225.00,575.000000L 1225.00,450.000000" stroke="black" stroke-width="1" fill="none"/>
    <path d="M 2300.00,2050.000000L 2300.00,1975.000000" stroke="black" stroke-width="1" fill="none"/>
    <path d="M 1825.00,650.000000L 1825.00,725.000000" stroke="black" stroke-width="1" fill="none"/>
    <path d="M 425.00,75.000000L 425.00,925.000000" stroke="black" stroke-width="1" fill="none"/>
    <path d="M 2300.00,1750.000000L 2300.00,1825.000000" stroke="black" stroke-width="1" fill="none"/>
    <path d="M 1500.00,1175.000000L 1500.00,1250.000000" stroke="black" stroke-width="1" fill="none"/>
    <path d="M 1375.00,1325.000000L 1300.00,1325.000000" stroke="black" stroke-width="1" fill="none"/>
    <path d="M 950.00,1250.000000L 1025.00,1250.000000" stroke="black" stroke-width="1" fill="none"/>
    <path d="M 1025.00,1075.000000L 875.00,1075.000000" stroke="black" stroke-width="1" fill="none"/>
    <path d="M 875.00,125.000000L 875.00,200.000000" stroke="black" stroke-width="1" fill="none"/>
    <path d="M 2125.00,1625.000000L 2125.00,1550.000000" stroke="black" stroke-width="1" fill="none"/>
    <path d="M 1575.00,1033.333333 H 1690.00 a 10.00,10.00 0 0,1 10.00,10.00 V 1681.67 a 10.00,10.00 0 0,0 10.00,10.00L 1900.00,1691.666667" stroke="black" stroke-width="1" fill="none"/>
    <path d="M 800.00,400.000000L 875.00,400.000000" stroke="black" stroke-width="1" fill="none"/>
    <path d="M 1225.00,575.000000L 875.00,575.000000" stroke="black" stroke-width="1" fill="none"/>
    <path d="M 50.00,75.000000L 125.00,75.000000" stroke="black" stroke-width="1" fill="none"/>
    <path d="M 1025.00,1550.000000L 1150.00,1550.000000" stroke="black" stroke-width="1" fill="none"/>
    <path d="M 200.00,125.000000 V 1806.67 a 10.00,10.00 0 0,0 10.00,10.00L 825.00,1816.666667" stroke="black" stroke-width="1" fill="none"/>
    <path d="M 1900.00,1025.000000L 1825.00,1025.000000" stroke="black" stroke-width="1" fill="none"/>
    <path d="M 2300.00,1825.000000L 825.00,1825.000000" stroke="black" stroke-width="1" fill="none"/>
    <path d="M 150.00,1825.000000L 825.00,1825.000000" stroke="black" stroke-width="1" fill="none"/>
    <path d="M 1900.00,575.000000L 1825.00,575.000000" stroke="black" stroke-width="1" fill="none"/>
    <path d="M 875.00,275.000000L 875.00,200.000000" stroke="black" stroke-width="1" fill="none"/>
    <path d="M 825.00,1750.000000L 825.00,1825.000000" stroke="black" stroke-width="1" fill="none"/>
    <path d="M 725.00,1150.000000 V 1731.67 a 10.00,10.00 0 0,0 10.00,10.00L 825.00,1741.666667" stroke="black" stroke-width="1" fill="none"/>
    <path d="M 2050.00,1500.000000L 1975.00,1500.000000" stroke="black" stroke-width="1" fill="none"/>
    <path d="M 1150.00,700.000000L 1150.00,1275.000000" stroke="black" stroke-width="1" fill="none"/>
    <path d="M 2200.00,1300.000000L 2125.00,1300.000000" stroke="black" stroke-width="1" fill="none"/>
    <path d="M 1025.00,1250.000000L 1025.00,1175.000000" stroke="black" stroke-width="1" fill="none"/>
    <path d="M 1825.00,725.000000 H 2106.67 a 10.00,10.00 0 0,1 10.00,10.00L 2116.67,1300.000000" stroke="black" stroke-width="1" fill="none"/>
    <path d="M 1300.00,1250.000000L 1300.00,1325.000000" stroke="black" stroke-width="1" fill="none"/>
    <path d="M 725.00,1075.000000L 875.00,1075.000000" stroke="black" stroke-width="1" fill="none"/>
    <path d="M 875.00,200.000000 H 610.00 a 10.00,10.00 0 0,0 -10.00,10.00 V 690.00 a 10.00,10.00 0 0,0 10.00,10.00L 1150.00,700.000000" stroke="black" stroke-width="1" fill="none"/>
    <path d="M 2125.00,1625.000000L 2125.00,1700.000000" stroke="black" stroke-width="1" fill="none"/>
    <path d="M 875.00,1150.000000L 875.00,1075.000000" stroke="black" stroke-width="1" fill="none"/>
    <path d="M 2300.00,1900.000000L 2300.00,1825.000000" stroke="black" stroke-width="1" fill="none"/>
    <path d="M 2300.00,0.000000L 2300.00,1675.000000" stroke="black" stroke-width="1" fill="none"/>
    <path d="M 650.00,400.000000L 725.00,400.000000" stroke="black" stroke-width="1" fill="none"/>
    <path d="M 1300.00,1400.000000L 1300.00,1325.000000" stroke="black" stroke-width="1" fill="none"/>
    <path d="M 1225.00,1625.000000L 1225.00,1550.000000" stroke="black" stroke-width="1" fill="none"/>
    <path d="M 550.00,1150.000000L 550.00,925.000000" stroke="black" stroke-width="1" fill="none"/>
    <path d="M 1375.00,1400.000000L 1375.00,1325.000000" stroke="black" stroke-width="1" fill="none"/>
    <path d="M 1575.00,1100.000000L 1575.00,1025.000000" stroke="black" stroke-width="1" fill="none"/>
    <path d="M 1300.00,1550.000000L 1225.00,1550.000000" stroke="black" stroke-width="1" fill="none"/>
    <path d="M 550.00,1150.000000L 725.00,1150.000000" stroke="black" stroke-width="1" fill="none"/>
    <path d="M 875.00,575.000000L 875.00,1075.000000" stroke="black" stroke-width="1" fill="none"/>
    <path d="M 200.00,0.000000L 275.00,0.000000" stroke="black" stroke-width="1" fill="none"/>
    <path d="M 1500.00,1175.000000L 1575.00,1175.000000" stroke="black" stroke-width="1" fill="none"/>
    <path d="M 900.00,1325.000000L 900.00,1400.000000" stroke="black" stroke-width="1" fill="none"/>
    <path d="M 1825.00,583.333333 H 1585.00 a 10.00,10.00 0 0,0 -10.00,10.00L 1575.00,1025.000000" stroke="black" stroke-width="1" fill="none"/>
    <path d="M 1525.00,575.000000L 1825.00,575.000000" stroke="black" stroke-width="1" fill="none"/>
    <path d="M 625.00,925.000000L 550.00,925.000000" stroke="black" stroke-width="1" fill="none"/>
    <path d="M 1825.00,1100.000000L 1825.00,1025.000000" stroke="black" stroke-width="1" fill="none"/>
    <path d="M 1300.00,1475.000000L 1300.00,1400.000000" stroke="black" stroke-width="1" fill="none"/>
    <path d="M 1500.00,1250.000000L 1300.00,1250.000000" stroke="black" stroke-width="1" fill="none"/>
    <path d="M 1975.00,1500.000000L 1900.00,1500.000000" stroke="black" stroke-width="1" fill="none"/>
    <path d="M 1575.00,1100.000000 H 1510.00 a 10.00,10.00 0 0,0 -10.00,10.00L 1500.00,1175.000000" stroke="black" stroke-width="1" fill="none"/>
    <path d="M 1825.00,500.000000L 1825.00,575.000000" stroke="black" stroke-width="1" fill="none"/>
    <path d="M 2200.00,125.000000L 2125.00,125.000000" stroke="black" stroke-width="1" fill="none"/>
    <path d="M 1825.00,800.000000L 1825.00,875.000000" stroke="black" stroke-width="1" fill="none"/>
    <path d="M 2300.00,1975.000000L 2300.00,1900.000000" stroke="black" stroke-width="1" fill="none"/>
    <path d="M 275.00,925.000000L 275.00,125.000000" stroke="black" stroke-width="1" fill="none"/>
    <path d="M 1150.00,1275.000000L 1150.00,1550.000000" stroke="black" stroke-width="1" fill="none"/>
    <rect x="810.0" y="1810.0" width="30.0" height="30.0" stroke="black" stroke-width="1" id="0" onclick="ow3.nodeClick(this)" fill="#f0f0d2"/>

    <rect x="810.0" y="1735.0" width="30.0" height="30.0" stroke="black" stroke-width="1" id="1" onclick="ow3.nodeClick(this)" fill="#f0f0d2"/>

    <rect x="1885.0" y="1685.0" width="30.0" height="30.0" stroke="black" stroke-width="1" id="2" onclick="ow3.nodeClick(this)" fill="#f0f0d2"/>

    <rect x="885.0" y="1385.0" width="30.0" height="30.0" stroke="black" stroke-width="1" id="3" onclick="ow3.nodeClick(this)" fill="#f0f0d2"/>

    <rect x="2285.0" y="1810.0" width="30.0" height="30.0" stroke="black" stroke-width="1" id="4" onclick="ow3.nodeClick(this)" fill="#f0f0d2"/>

    <rect x="410.0" y="910.0" width="30.0" height="30.0" stroke="black" stroke-width="1" id="5" onclick="ow3.nodeClick(this)" fill="#f0f0d2"/>

    <rect x="1560.0" y="1010.0" width="30.0" height="30.0" stroke="black" stroke-width="1" id="6" onclick="ow3.nodeClick(this)" fill="#f0f0d2"/>

    <rect x="710.0" y="1135.0" width="30.0" height="30.0" stroke="black" stroke-width="1" id="7" onclick="ow3.nodeClick(this)" fill="#f0f0d2"/>

    <rect x="1135.0" y="1535.0" width="30.0" height="30.0" stroke="black" stroke-width="1" id="8" onclick="ow3.nodeClick(this)" fill="#f0f0d2"/>

    <rect x="535.0" y="910.0" width="30.0" height="30.0" stroke="black" stroke-width="1" id="9" onclick="ow3.nodeClick(this)" fill="#f0f0d2"/>

    <rect x="1485.0" y="1235.0" width="30.0" height="30.0" stroke="black" stroke-width="1" id="10" onclick="ow3.nodeClick(this)" fill="#f0f0d2"/>

    <rect x="860.0" y="1060.0" width="30.0" height="30.0" stroke="black" stroke-width="1" id="11" onclick="ow3.nodeClick(this)" fill="#f0f0d2"/>

    <rect x="1010.0" y="1060.0" width="30.0" height="30.0" stroke="black" stroke-width="1" id="12" onclick="ow3.nodeClick(this)" fill="#f0f0d2"/>

    <rect x="860.0" y="385.0" width="30.0" height="30.0" stroke="black" stroke-width="1" id="13" onclick="ow3.nodeClick(this)" fill="#f0f0d2"/>

    <rect x="1560.0" y="1085.0" width="30.0" height="30.0" stroke="black" stroke-width="1" id="14" onclick="ow3.nodeClick(this)" fill="#f0f0d2"/>

    <rect x="535.0" y="835.0" width="30.0" height="30.0" stroke="black" stroke-width="1" id="15" onclick="ow3.nodeClick(this)" fill="#f0f0d2"/>

    <rect x="1285.0" y="1310.0" width="30.0" height="30.0" stroke="black" stroke-width="1" id="16" onclick="ow3.nodeClick(this)" fill="#f0f0d2"/>

    <rect x="885.0" y="1460.0" width="30.0" height="30.0" stroke="black" stroke-width="1" id="17" onclick="ow3.nodeClick(this)" fill="#f0f0d2"/>

    <rect x="1885.0" y="1485.0" width="30.0" height="30.0" stroke="black" stroke-width="1" id="18" onclick="ow3.nodeClick(this)" fill="#f0f0d2"/>

    <rect x="1810.0" y="560.0" width="30.0" height="30.0" stroke="black" stroke-width="1" id="19" onclick="ow3.nodeClick(this)" fill="#f0f0d2"/>

    <rect x="885.0" y="1310.0" width="30.0" height="30.0" stroke="black" stroke-width="1" id="20" onclick="ow3.nodeClick(this)" fill="#f0f0d2"/>

    <rect x="1210.0" y="435.0" width="30.0" height="30.0" stroke="black" stroke-width="1" id="21" onclick="ow3.nodeClick(this)" fill="#f0f0d2"/>

    <rect x="1360.0" y="1310.0" width="30.0" height="30.0" stroke="black" stroke-width="1" id="22" onclick="ow3.nodeClick(this)" fill="#f0f0d2"/>

    <rect x="960.0" y="1385.0" width="30.0" height="30.0" stroke="black" stroke-width="1" id="23" onclick="ow3.nodeClick(this)" fill="#f0f0d2"/>

    <rect x="2285.0" y="1885.0" width="30.0" height="30.0" stroke="black" stroke-width="1" id="24" onclick="ow3.nodeClick(this)" fill="#f0f0d2"/>

    <rect x="1135.0" y="1260.0" width="30.0" height="30.0" stroke="black" stroke-width="1" id="25" onclick="ow3.nodeClick(this)" fill="#f0f0d2"/>

    <rect x="1135.0" y="685.0" width="30.0" height="30.0" stroke="black" stroke-width="1" id="26" onclick="ow3.nodeClick(this)" fill="#f0f0d2"/>

    <rect x="1810.0" y="1485.0" width="30.0" height="30.0" stroke="black" stroke-width="1" id="27" onclick="ow3.nodeClick(this)" fill="#f0f0d2"/>

    <rect x="2285.0" y="1735.0" width="30.0" height="30.0" stroke="black" stroke-width="1" id="28" onclick="ow3.nodeClick(this)" fill="#f0f0d2"/>

    <rect x="1010.0" y="1160.0" width="30.0" height="30.0" stroke="black" stroke-width="1" id="29" onclick="ow3.nodeClick(this)" fill="#f0f0d2"/>

    <rect x="2110.0" y="1285.0" width="30.0" height="30.0" stroke="black" stroke-width="1" id="30" onclick="ow3.nodeClick(this)" fill="#f0f0d2"/>

    <rect x="1010.0" y="1235.0" width="30.0" height="30.0" stroke="black" stroke-width="1" id="31" onclick="ow3.nodeClick(this)" fill="#f0f0d2"/>

    <rect x="1210.0" y="685.0" width="30.0" height="30.0" stroke="black" stroke-width="1" id="32" onclick="ow3.nodeClick(this)" fill="#f0f0d2"/>

    <rect x="1735.0" y="1485.0" width="30.0" height="30.0" stroke="black" stroke-width="1" id="33" onclick="ow3.nodeClick(this)" fill="#f0f0d2"/>

    <rect x="785.0" y="385.0" width="30.0" height="30.0" stroke="black" stroke-width="1" id="34" onclick="ow3.nodeClick(this)" fill="#f0f0d2"/>

    <rect x="410.0" y="60.0" width="30.0" height="30.0" stroke="black" stroke-width="1" id="35" onclick="ow3.nodeClick(this)" fill="#f0f0d2"/>

    <rect x="1010.0" y="1535.0" width="30.0" height="30.0" stroke="black" stroke-width="1" id="36" onclick="ow3.nodeClick(this)" fill="#f0f0d2"/>

    <rect x="1210.0" y="1535.0" width="30.0" height="30.0" stroke="black" stroke-width="1" id="37" onclick="ow3.nodeClick(this)" fill="#f0f0d2"/>

    <rect x="810.0" y="1885.0" width="30.0" height="30.0" stroke="black" stroke-width="1" id="38" onclick="ow3.nodeClick(this)" fill="#f0f0d2"/>

    <rect x="610.0" y="910.0" width="30.0" height="30.0" stroke="black" stroke-width="1" id="39" onclick="ow3.nodeClick(this)" fill="#f0f0d2"/>

    <rect x="1735.0" y="1010.0" width="30.0" height="30.0" stroke="black" stroke-width="1" id="40" onclick="ow3.nodeClick(this)" fill="#f0f0d2"/>

    <rect x="860.0" y="1135.0" width="30.0" height="30.0" stroke="black" stroke-width="1" id="41" onclick="ow3.nodeClick(this)" fill="#f0f0d2"/>

    <rect x="1635.0" y="1085.0" width="30.0" height="30.0" stroke="black" stroke-width="1" id="42" onclick="ow3.nodeClick(this)" fill="#f0f0d2"/>

    <rect x="1285.0" y="1535.0" width="30.0" height="30.0" stroke="black" stroke-width="1" id="43" onclick="ow3.nodeClick(this)" fill="#f0f0d2"/>

    <rect x="1810.0" y="1010.0" width="30.0" height="30.0" stroke="black" stroke-width="1" id="44" onclick="ow3.nodeClick(this)" fill="#f0f0d2"/>

    <rect x="1885.0" y="1410.0" width="30.0" height="30.0" stroke="black" stroke-width="1" id="45" onclick="ow3.nodeClick(this)" fill="#f0f0d2"/>

    <rect x="1960.0" y="1485.0" width="30.0" height="30.0" stroke="black" stroke-width="1" id="46" onclick="ow3.nodeClick(this)" fill="#f0f0d2"/>

    <rect x="1485.0" y="1160.0" width="30.0" height="30.0" stroke="black" stroke-width="1" id="47" onclick="ow3.nodeClick(this)" fill="#f0f0d2"/>

    <rect x="1135.0" y="610.0" width="30.0" height="30.0" stroke="black" stroke-width="1" id="48" onclick="ow3.nodeClick(this)" fill="#f0f0d2"/>

    <rect x="1885.0" y="560.0" width="30.0" height="30.0" stroke="black" stroke-width="1" id="49" onclick="ow3.nodeClick(this)" fill="#f0f0d2"/>

    <rect x="2110.0" y="1685.0" width="30.0" height="30.0" stroke="black" stroke-width="1" id="50" onclick="ow3.nodeClick(this)" fill="#f0f0d2"/>

    <rect x="1010.0" y="1460.0" width="30.0" height="30.0" stroke="black" stroke-width="1" id="51" onclick="ow3.nodeClick(this)" fill="#f0f0d2"/>

    <rect x="410.0" y="-15.0" width="30.0" height="30.0" stroke="black" stroke-width="1" id="52" onclick="ow3.nodeClick(this)" fill="#f0f0d2"/>

    <rect x="1285.0" y="1385.0" width="30.0" height="30.0" stroke="black" stroke-width="1" id="53" onclick="ow3.nodeClick(this)" fill="#f0f0d2"/>

    <rect x="785.0" y="1135.0" width="30.0" height="30.0" stroke="black" stroke-width="1" id="54" onclick="ow3.nodeClick(this)" fill="#f0f0d2"/>

    <rect x="1210.0" y="1610.0" width="30.0" height="30.0" stroke="black" stroke-width="1" id="55" onclick="ow3.nodeClick(this)" fill="#f0f0d2"/>

    <rect x="935.0" y="1235.0" width="30.0" height="30.0" stroke="black" stroke-width="1" id="56" onclick="ow3.nodeClick(this)" fill="#f0f0d2"/>

    <rect x="1510.0" y="560.0" width="30.0" height="30.0" stroke="black" stroke-width="1" id="57" onclick="ow3.nodeClick(this)" fill="#f0f0d2"/>

    <rect x="710.0" y="1060.0" width="30.0" height="30.0" stroke="black" stroke-width="1" id="58" onclick="ow3.nodeClick(this)" fill="#f0f0d2"/>

    <rect x="1285.0" y="1460.0" width="30.0" height="30.0" stroke="black" stroke-width="1" id="59" onclick="ow3.nodeClick(this)" fill="#f0f0d2"/>

    <rect x="860.0" y="485.0" width="30.0" height="30.0" stroke="black" stroke-width="1" id="60" onclick="ow3.nodeClick(this)" fill="#f0f0d2"/>

    <rect x="335.0" y="-15.0" width="30.0" height="30.0" stroke="black" stroke-width="1" id="61" onclick="ow3.nodeClick(this)" fill="#f0f0d2"/>

    <rect x="110.0" y="60.0" width="30.0" height="30.0" stroke="black" stroke-width="1" id="62" onclick="ow3.nodeClick(this)" fill="#f0f0d2"/>

    <rect x="1960.0" y="1410.0" width="30.0" height="30.0" stroke="black" stroke-width="1" id="63" onclick="ow3.nodeClick(this)" fill="#f0f0d2"/>

    <rect x="2110.0" y="1535.0" width="30.0" height="30.0" stroke="black" stroke-width="1" id="64" onclick="ow3.nodeClick(this)" fill="#f0f0d2"/>

    <rect x="1885.0" y="1010.0" width="30.0" height="30.0" stroke="black" stroke-width="1" id="65" onclick="ow3.nodeClick(this)" fill="#f0f0d2"/>

    <rect x="1360.0" y="1535.0" width="30.0" height="30.0" stroke="black" stroke-width="1" id="66" onclick="ow3.nodeClick(this)" fill="#f0f0d2"/>

    <rect x="710.0" y="385.0" width="30.0" height="30.0" stroke="black" stroke-width="1" id="67" onclick="ow3.nodeClick(this)" fill="#f0f0d2"/>

    <rect x="260.0" y="-15.0" width="30.0" height="30.0" stroke="black" stroke-width="1" id="68" onclick="ow3.nodeClick(this)" fill="#f0f0d2"/>

    <rect x="1435.0" y="1535.0" width="30.0" height="30.0" stroke="black" stroke-width="1" id="69" onclick="ow3.nodeClick(this)" fill="#f0f0d2"/>

    <rect x="2285.0" y="1660.0" width="30.0" height="30.0" stroke="black" stroke-width="1" id="70" onclick="ow3.nodeClick(this)" fill="#f0f0d2"/>

    <rect x="860.0" y="260.0" width="30.0" height="30.0" stroke="black" stroke-width="1" id="71" onclick="ow3.nodeClick(this)" fill="#f0f0d2"/>

    <rect x="2110.0" y="1610.0" width="30.0" height="30.0" stroke="black" stroke-width="1" id="72" onclick="ow3.nodeClick(this)" fill="#f0f0d2"/>

    <rect x="185.0" y="110.0" width="30.0" height="30.0" stroke="black" stroke-width="1" id="73" onclick="ow3.nodeClick(this)" fill="#f0f0d2"/>

    <rect x="710.0" y="260.0" width="30.0" height="30.0" stroke="black" stroke-width="1" id="74" onclick="ow3.nodeClick(this)" fill="#f0f0d2"/>

    <rect x="1560.0" y="1160.0" width="30.0" height="30.0" stroke="black" stroke-width="1" id="75" onclick="ow3.nodeClick(this)" fill="#f0f0d2"/>

    <rect x="260.0" y="110.0" width="30.0" height="30.0" stroke="black" stroke-width="1" id="76" onclick="ow3.nodeClick(this)" fill="#f0f0d2"/>

    <rect x="1435.0" y="1310.0" width="30.0" height="30.0" stroke="black" stroke-width="1" id="77" onclick="ow3.nodeClick(this)" fill="#f0f0d2"/>

    <rect x="2185.0" y="1285.0" width="30.0" height="30.0" stroke="black" stroke-width="1" id="78" onclick="ow3.nodeClick(this)" fill="#f0f0d2"/>

    <rect x="1085.0" y="1460.0" width="30.0" height="30.0" stroke="black" stroke-width="1" id="79" onclick="ow3.nodeClick(this)" fill="#f0f0d2"/>

    <rect x="1360.0" y="1385.0" width="30.0" height="30.0" stroke="black" stroke-width="1" id="80" onclick="ow3.nodeClick(this)" fill="#f0f0d2"/>

    <rect x="935.0" y="1160.0" width="30.0" height="30.0" stroke="black" stroke-width="1" id="81" onclick="ow3.nodeClick(this)" fill="#f0f0d2"/>

    <rect x="785.0" y="310.0" width="30.0" height="30.0" stroke="black" stroke-width="1" id="82" onclick="ow3.nodeClick(this)" fill="#f0f0d2"/>

    <rect x="1210.0" y="560.0" width="30.0" height="30.0" stroke="black" stroke-width="1" id="83" onclick="ow3.nodeClick(this)" fill="#f0f0d2"/>

    <rect x="860.0" y="185.0" width="30.0" height="30.0" stroke="black" stroke-width="1" id="84" onclick="ow3.nodeClick(this)" fill="#f0f0d2"/>

    <rect x="2035.0" y="1485.0" width="30.0" height="30.0" stroke="black" stroke-width="1" id="85" onclick="ow3.nodeClick(this)" fill="#f0f0d2"/>

    <rect x="535.0" y="1135.0" width="30.0" height="30.0" stroke="black" stroke-width="1" id="86" onclick="ow3.nodeClick(this)" fill="#f0f0d2"/>

    <rect x="185.0" y="-15.0" width="30.0" height="30.0" stroke="black" stroke-width="1" id="87" onclick="ow3.nodeClick(this)" fill="#f0f0d2"/>

    <rect x="635.0" y="385.0" width="30.0" height="30.0" stroke="black" stroke-width="1" id="88" onclick="ow3.nodeClick(this)" fill="#f0f0d2"/>

    <rect x="860.0" y="110.0" width="30.0" height="30.0" stroke="black" stroke-width="1" id="89" onclick="ow3.nodeClick(this)" fill="#f0f0d2"/>

    <rect x="860.0" y="560.0" width="30.0" height="30.0" stroke="black" stroke-width="1" id="90" onclick="ow3.nodeClick(this)" fill="#f0f0d2"/>

    <rect x="35.0" y="60.0" width="30.0" height="30.0" stroke="black" stroke-width="1" id="91" onclick="ow3.nodeClick(this)" fill="#f0f0d2"/>

    <rect x="1810.0" y="1085.0" width="30.0" height="30.0" stroke="black" stroke-width="1" id="92" onclick="ow3.nodeClick(this)" fill="#f0f0d2"/>

    <rect x="2285.0" y="1960.0" width="30.0" height="30.0" stroke="black" stroke-width="1" id="93" onclick="ow3.nodeClick(this)" fill="#f0f0d2"/>

    <rect x="1885.0" y="1335.0" width="30.0" height="30.0" stroke="black" stroke-width="1" id="94" onclick="ow3.nodeClick(this)" fill="#f0f0d2"/>

    <rect x="2185.0" y="1685.0" width="30.0" height="30.0" stroke="black" stroke-width="1" id="95" onclick="ow3.nodeClick(this)" fill="#f0f0d2"/>

    <rect x="2035.0" y="1410.0" width="30.0" height="30.0" stroke="black" stroke-width="1" id="96" onclick="ow3.nodeClick(this)" fill="#f0f0d2"/>

    <rect x="135.0" y="1810.0" width="30.0" height="30.0" stroke="black" stroke-width="1" id="97" onclick="ow3.nodeClick(this)" fill="#f0f0d2"/>

    <rect x="685.0" y="910.0" width="30.0" height="30.0" stroke="black" stroke-width="1" id="98" onclick="ow3.nodeClick(this)" fill="#f0f0d2"/>

    <rect x="260.0" y="910.0" width="30.0" height="30.0" stroke="black" stroke-width="1" id="99" onclick="ow3.nodeClick(this)" fill="#f0f0d2"/>

    <rect x="1810.0" y="935.0" width="30.0" height="30.0" stroke="black" stroke-width="1" id="100" onclick="ow3.nodeClick(this)" fill="#f0f0d2"/>

    <rect x="2285.0" y="-15.0" width="30.0" height="30.0" stroke="black" stroke-width="1" id="101" onclick="ow3.nodeClick(this)" fill="#f0f0d2"/>

    <rect x="535.0" y="760.0" width="30.0" height="30.0" stroke="black" stroke-width="1" id="102" onclick="ow3.nodeClick(this)" fill="#f0f0d2"/>

    <rect x="1285.0" y="1235.0" width="30.0" height="30.0" stroke="black" stroke-width="1" id="103" onclick="ow3.nodeClick(this)" fill="#f0f0d2"/>

    <rect x="1810.0" y="710.0" width="30.0" height="30.0" stroke="black" stroke-width="1" id="104" onclick="ow3.nodeClick(this)" fill="#f0f0d2"/>

    <rect x="860.0" y="1235.0" width="30.0" height="30.0" stroke="black" stroke-width="1" id="105" onclick="ow3.nodeClick(this)" fill="#f0f0d2"/>

    <rect x="1810.0" y="635.0" width="30.0" height="30.0" stroke="black" stroke-width="1" id="106" onclick="ow3.nodeClick(this)" fill="#f0f0d2"/>

    <rect x="60.0" y="1810.0" width="30.0" height="30.0" stroke="black" stroke-width="1" id="107" onclick="ow3.nodeClick(this)" fill="#f0f0d2"/>

    <rect x="760.0" y="910.0" width="30.0" height="30.0" stroke="black" stroke-width="1" id="108" onclick="ow3.nodeClick(this)" fill="#f0f0d2"/>

    <rect x="810.0" y="1335.0" width="30.0" height="30.0" stroke="black" stroke-width="1" id="109" onclick="ow3.nodeClick(this)" fill="#f0f0d2"/>

    <rect x="1810.0" y="785.0" width="30.0" height="30.0" stroke="black" stroke-width="1" id="110" onclick="ow3.nodeClick(this)" fill="#f0f0d2"/>

    <rect x="2110.0" y="110.0" width="30.0" height="30.0" stroke="black" stroke-width="1" id="111" onclick="ow3.nodeClick(this)" fill="#f0f0d2"/>

    <rect x="460.0" y="835.0" width="30.0" height="30.0" stroke="black" stroke-width="1" id="112" onclick="ow3.nodeClick(this)" fill="#f0f0d2"/>

    <rect x="-15.0" y="1810.0" width="30.0" height="30.0" stroke="black" stroke-width="1" id="113" onclick="ow3.nodeClick(this)" fill="#f0f0d2"/>

    <rect x="2285.0" y="2035.0" width="30.0" height="30.0" stroke="black" stroke-width="1" id="114" onclick="ow3.nodeClick(this)" fill="#f0f0d2"/>

    <rect x="685.0" y="985.0" width="30.0" height="30.0" stroke="black" stroke-width="1" id="115" onclick="ow3.nodeClick(this)" fill="#f0f0d2"/>

    <rect x="2185.0" y="110.0" width="30.0" height="30.0" stroke="black" stroke-width="1" id="116" onclick="ow3.nodeClick(this)" fill="#f0f0d2"/>

    <rect x="335.0" y="910.0" width="30.0" height="30.0" stroke="black" stroke-width="1" id="117" onclick="ow3.nodeClick(this)" fill="#f0f0d2"/>

    <rect x="1810.0" y="485.0" width="30.0" height="30.0" stroke="black" stroke-width="1" id="118" onclick="ow3.nodeClick(this)" fill="#f0f0d2"/>

    <rect x="1810.0" y="860.0" width="30.0" height="30.0" stroke="black" stroke-width="1" id="119" onclick="ow3.nodeClick(this)" fill="#f0f0d2"/>

</g>
</g>
</svg>
