<?xml version="1.0" encoding="UTF-8"?>
<svg id="canvasSVG" xmlns="http://www.w3.org/2000/svg" width="2370.0px" height="2120.0px">
<rect x="0" y="0" width="2370.0" height="2120.0" stroke="none" stroke-width="1" id="" onclick="null" fill="#bdbddf"/>
<g id="outerGroup">
<g transform="translate(20.00,20.00),scale(1.00),translate(15.00,15.00)">
    <path d="M 1225.00,1550.000000L 1150.00,1550.000000" stroke="black" stroke-width="1" fill="none"/>
    <path d="M 1750.00,1025.000000L 1575.00,1025.000000" stroke="black" stroke-width="1" fill="none"/>
    <path d="M 700.00,1000.000000L 700.00,925.000000" stroke="black" stroke-width="1" fill="none"/>
    <path d="M 1900.00,1500.000000L 1900.00,1700.000000" stroke="black" stroke-width="1" fill="none"/>
    <path d="M 550.00,925.000000L 425.00,925.000000" stroke="black" stroke-width="1" fill="none"/>
    <path d="M 1450.00,1550.000000L 1375.00,1550.000000" stroke="black" stroke-width="1" fill="none"/>
    <path d="M 900.00,1475.000000L 900.00,1400.000000" stroke="black" stroke-width="1" fill="none"/>
    <path d="M 1100.00,1475.000000L 1025.00,1475.000000" stroke="black" stroke-width="1" fill="none"/>
    <path d="M 0.00,1825.000000L 75.00,1825.000000" stroke="black" stroke-width="1" fill="none"/>
    <path d="M 1825.00,1500.000000L 1900.00,1500.000000" stroke="black" stroke-width="1" fill="none"/>
    <path d="M 1450.00,1325.000000L 1375.00,1325.000000" stroke="black" stroke-width="1" fill="none"/>
    <path d="M 1900.00,1700.000000 V 1740.00 a 10.00,10.00 0 0,1 -10.00,10.00L 825.00,1750.000000" stroke="black" stroke-width="1" fill="none"/>
    <path d="M 550.00,775.000000L 550.00,850.000000" stroke="black" stroke-width="1" fill="none"/>
    <path d="M 425.00,75.000000 H 2240.00 a 10.00,10.00 0 0,1 10.00,10.00 V 1740.00 a 10.00,10.00 0 0,1 -10.00,10.00 H 2135.00 a 10.00,10.00 0 0,1 -10.00,-10.00L 2125.00,1700.000000" stroke="black" stroke-width="1" fill="none"/>
    <path d="M 1825.00,800.000000L 1825.00,725.000000" stroke="black" stroke-width="1" fill="none"/>
    <path d="M 1575.00,1175.000000L 1575.00,1100.000000" stroke="black" stroke-width="1" fill="none"/>
    <path d="M 825.00,1350.000000L 825.00,1750.000000" stroke="black" stroke-width="1" fill="none"/>
    <path d="M 275.00,925.000000L 350.00,925.000000" stroke="black" stroke-width="1" fill="none"/>
    <path d="M 800.00,325.000000L 800.00,400.000000" stroke="black" stroke-width="1" fill="none"/>
    <path d="M 475.00,850.000000 H 443.33 a 10.00,10.00 0 0,0 -10.00,10.00L 433.33,925.000000" stroke="black" stroke-width="1" fill="none"/>
    <path d="M 1300.00,1325.000000 H 1168.33 a 10.00,10.00 0 0,0 -10.00,10.00L 1158.33,1550.000000" stroke="black" stroke-width="1" fill="none"/>
    <path d="M 2125.00,1550.000000L 2125.00,1300.000000" stroke="black" stroke-width="1" fill="none"/>
    <path d="M 1825.00,950.000000L 1825.00,1025.000000" stroke="black" stroke-width="1" fill="none"/>
    <path d="M 2125.00,125.000000L 2125.00,1300.000000" stroke="black" stroke-width="1" fill="none"/>
    <path d="M 1975.00,1425.000000L 1975.00,1500.000000" stroke="black" stroke-width="1" fill="none"/>
    <path d="M 2125.00,1300.000000 H 1518.33 a 10.00,10.00 0 0,1 -10.00,-10.00L 1508.33,1250.000000" stroke="black" stroke-width="1" fill="none"/>
    <path d="M 425.00,0.000000L 425.00,75.000000" stroke="black" stroke-width="1" fill="none"/>
    <path d="M 1225.00,575.000000L 1525.00,575.000000" stroke="black" stroke-width="1" fill="none"/>
    <path d="M 1900.00,1350.000000L 1900.00,1425.000000" stroke="black" stroke-width="1" fill="none"/>
    <path d="M 1025.00,1175.000000L 1025.00,1075.000000" stroke="black" stroke-width="1" fill="none"/>
    <path d="M 125.00,75.000000L 425.00,75.000000" stroke="black" stroke-width="1" fill="none"/>
    <path d="M 875.00,575.000000L 875.00,500.000000" stroke="black" stroke-width="1" fill="none"/>
    <path d="M 825.00,1900.000000L 825.00,1825.000000" stroke="black" stroke-width="1" fill="none"/>
    <path d="M 900.00,1475.000000L 1025.00,1475.000000" stroke="black" stroke-width="1" fill="none"/>
    <path d="M 75.00,1825.000000L 150.00,1825.000000" stroke="black" stroke-width="1" fill="none"/>
    <path d="M 900.00,1400.000000 H 843.33 a 10.00,10.00 0 0,0 -10.00,10.00L 833.33,1750.000000" stroke="black" stroke-width="1" fill="none"/>
    <path d="M 1825.00,575.000000L 1825.00,650.000000" stroke="black" stroke-width="1" fill="none"/>
    <path d="M 1225.00,575.000000L 1225.00,700.000000" stroke="black" stroke-width="1" fill="none"/>
    <path d="M 1900.00,1425.000000L 1900.00,1500.000000" stroke="black" stroke-width="1" fill="none"/>
    <path d="M 275.00,125.000000L 875.00,125.000000" stroke="black" stroke-width="1" fill="none"/>
    <path d="M 875.00,500.000000L 875.00,400.000000" stroke="black" stroke-width="1" fill="none"/>
    <path d="M 275.00,0.000000L 350.00,0.000000" stroke="black" stroke-width="1" fill="none"/>
    <path d="M 2200.00,1700.000000L 2125.00,1700.000000" stroke="black" stroke-width="1" fill="none"/>
    <path d="M 700.00,925.000000L 625.00,925.000000" stroke="black" stroke-width="1" fill="none"/>
    <path d="M 1375.00,1550.000000L 1300.00,1550.000000" stroke="black" stroke-width="1" fill="none"/>
    <path d="M 775.00,925.000000L 700.00,925.000000" stroke="black" stroke-width="1" fill="none"/>
    <path d="M 725.00,1075.000000L 725.00,1150.000000" stroke="black" stroke-width="1" fill="none"/>
    <path d="M 725.00,400.000000L 800.00,400.000000" stroke="black" stroke-width="1" fill="none"/>
    <path d="M 1825.00,1025.000000L 1750.00,1025.000000" stroke="black" stroke-width="1" fill="none"/>
    <path d="M 275.00,125.000000L 200.00,125.000000" stroke="black" stroke-width="1" fill="none"/>
    <path d="M 1225.00,700.000000L 1150.00,700.000000" stroke="black" stroke-width="1" fill="none"/>
    <path d="M 2050.00,1500.000000 H 2106.67 a 10.00,10.00 0 0,0 10.00,-10.00L 2116.67,1300.000000" stroke="black" stroke-width="1" fill="none"/>
    <path d="M 1225.00,450.000000 H 893.33 a 10.00,10.00 0 0,1 -10.00,-10.00L 883.33,400.000000" stroke="black" stroke-width="1" fill="none"/>
    <path d="M 725.00,275.000000L 875.00,275.000000" stroke="black" stroke-width="1" fill="none"/>
    <path d="M 883.33,1075.000000 V 1035.00 a 10.00,10.00 0 0,1 10.00,-10.00L 1575.00,1025.000000" stroke="black" stroke-width="1" fill="none"/>
    <path d="M 2125.00,1700.000000L 1900.00,1700.000000" stroke="black" stroke-width="1" fill="none"/>
    <path d="M 350.00,925.000000L 425.00,925.000000" stroke="black" stroke-width="1" fill="none"/>
    <path d="M 2050.00,1425.000000L 2050.00,1500.000000" stroke="black" stroke-width="1" fill="none"/>
    <path d="M 350.00,0.000000L 425.00,0.000000" stroke="black" stroke-width="1" fill="none"/>
    <path d="M 1750.00,1500.000000L 1825.00,1500.000000" stroke="black" stroke-width="1" fill="none"/>
    <path d="M 1150.00,625.000000L 1150.00,700.000000" stroke="black" stroke-width="1" fill="none"/>
    <path d="M 1025.00,1475.000000L 1025.00,1250.000000" stroke="black" stroke-width="1" fill="none"/>
    <path d="M 1025.00,1475.000000L 1025.00,1550.000000" stroke="black" stroke-width="1" fill="none"/>
    <path d="M 1150.00,1550.000000 V 1690.00 a 10.00,10.00 0 0,0 10.00,10.00L 1900.00,1700.000000" stroke="black" stroke-width="1" fill="none"/>
    <path d="M 1825.00,875.000000L 1825.00,950.000000" stroke="black" stroke-width="1" fill="none"/>
    <path d="M 875.00,125.000000L 2125.00,125.000000" stroke="black" stroke-width="1" fill="none"/>
    <path d="M 875.00,400.000000 H 1940.00 a 10.00,10.00 0 0,1 10.00,10.00 V 1240.00 a 10.00,10.00 0 0,1 -10.00,10.00L 1500.00,1250.000000" stroke="black" stroke-width="1" fill="none"/>
    <path d="M 550.00,850.000000L 550.00,925.000000" stroke="black" stroke-width="1" fill="none"/>
    <path d="M 950.00,1175.000000L 1025.00,1175.000000" stroke="black" stroke-width="1" fill="none"/>
    <path d="M 875.00,275.000000L 875.00,400.000000" stroke="black" stroke-width="1" fill="none"/>
    <path d="M 975.00,1400.000000L 900.00,1400.000000" stroke="black" stroke-width="1" fill="none"/>
    <path d="M 2300.00,0.000000L 425.00,0.000000" stroke="black" stroke-width="1" fill="none"/>
    <path d="M 800.00,1150.000000L 725.00,1150.000000" stroke="black" stroke-width="1" fill="none"/>
    <path d="M 425.00,925.000000 V 1740.00 a 10.00,10.00 0 0,0 10.00,10.00L 825.00,1750.000000" stroke="black" stroke-width="1" fill="none"/>
    <path d="M 875.00,1250.000000L 950.00,1250.000000" stroke="black" stroke-width="1" fill="none"/>
    <path d="M 1500.00,1250.000000 V 1731.67 a 10.00,10.00 0 0,1 -10.00,10.00L 825.00,1741.666667" stroke="black" stroke-width="1" fill="none"/>
    <path d="M 1650.00,1100.000000L 1575.00,1100.000000" stroke="black" stroke-width="1" fill="none"/>
    <path d="M 2300.00,1675.000000L 2300.00,1750.000000" stroke="black" stroke-width="1" fill="none"/>
    <path d="M 1225.00,575.000000L 1225.00,450.000000" stroke="black" stroke-width="1" fill="none"/>
    <path d="M 2300.00,2050.000000L 2300.00,1975.000000" stroke="black" stroke-width="1" fill="none"/>
    <path d="M 1825.00,650.000000L 1825.00,725.000000" stroke="black" stroke-width="1" fill="none"/>
    <path d="M 425.00,75.000000L 425.00,925.000000" stroke="black" stroke-width="1" fill="none"/>
    <path d="M 2300.00,1750.000000L 2300.00,1825.000000" stroke="black" stroke-width="1" fill="none"/>
    <path d="M 1500.00,1175.000000L 1500.00,1250.000000" stroke="black" stroke-width="1" fill="none"/>
    <path d="M 1375.00,1325.000000L 1300.00,1325.000000" stroke="black" stroke-width="1" fill="none"/>
    <path d="M 950.00,1250.000000L 1025.00,1250.000000" stroke="black" stroke-width="1" fill="none"/>
    <path d="M 1025.00,1075.000000L 875.00,1075.000000" stroke="black" stroke-width="1" fill="none"/>
    <path d="M 875.00,125.000000L 875.00,200.000000" stroke="black" stroke-width="1" fill="none"/>
    <path d="M 2125.00,1625.000000L 2125.00,1550.000000" stroke="black" stroke-width="1" fill="none"/>
    <path d="M 1575.00,1033.333333 H 1690.00 a 10.00,10.00 0 0,1 10.00,10.00 V 1681.67 a 10.00,10.00 0 0,0 10.00,10.00L 1900.00,1691.666667" stroke="black" stroke-width="1" fill="none"/>
    <path d="M 800.00,400.000000L 875.00,400.000000" stroke="black" stroke-width="1" fill="none"/>
    <path d="M 1225.00,575.000000L 875.00,575.000000" stroke="black" stroke-width="1" fill="none"/>
    <path d="M 50.00,75.000000L 125.00,75.000000" stroke="black" stroke-width="1" fill="none"/>
    <path d="M 1025.00,1550.000000L 1150.00,1550.000000" stroke="black" stroke-width="1" fill="none"/>
    <path d="M 200.00,125.000000 V 1806.67 a 10.00,10.00 0 0,0 10.00,10.00L 825.00,1816.666667" stroke="black" stroke-width="1" fill="none"/>
    <path d="M 1900.00,1025.000000L 1825.00,1025.000000" stroke="black" stroke-width="1" fill="none"/>
    <path d="M 2300.00,1825.000000L 825.00,1825.000000" stroke="black" stroke-width="1" fill="none"/>
    <path d="M 150.00,1825.000000L 825.00,1825.000000" stroke="black" stroke-width="1" fill="none"/>
    <path d="M 1900.00,575.000000L 1825.00,575.000000" stroke="black" stroke-width="1" fill="none"/>
    <path d="M 875.00,275.000000L 875.00,200.000000" stroke="black" stroke-width="1" fill="none"/>
    <path d="M 825.00,1750.000000L 825.00,1825.000000" stroke="black" stroke-width="1" fill="none"/>
    <path d="M 725.00,1150.000000 V 1731.67 a 10.00,10.00 0 0,0 10.00,10.00L 825.00,1741.666667" stroke="black" stroke-width="1" fill="none"/>
    <path d="M 2050.00,1500.000000L 1975.00,1500.000000" stroke="black" stroke-width="1" fill="none"/>
    <path d="M 1150.00,700.000000L 1150.00,1275.000000" stroke="black" stroke-width="1" fill="none"/>
    <path d="M 2200.00,1300.000000L 2125.00,1300.000000" stroke="black" stroke-width="1" fill="none"/>
    <path d="M 1025.00,1250.000000L 1025.00,1175.000000" stroke="black" stroke-width="1" fill="none"/>
    <path d="M 1825.00,725.000000 H 2106.67 a 10.00,10.00 0 0,1 10.00,10.00L 2116.67,1300.000000" stroke="black" stroke-width="1" fill="none"/>
    <path d="M 1300.00,1250.000000L 1300.00,1325.000000" stroke="black" stroke-width="1" fill="none"/>
    <path d="M 725.00,1075.000000L 875.00,1075.000000" stroke="black" stroke-width="1" fill="none"/>
    <path d="M 875.00,200.000000 H 610.00 a 10.00,10.00 0 0,0 -10.00,10.00 V 690.00 a 10.00,10.00 0 0,0 10.00,10.00L 1150.00,700.000000" stroke="black" stroke-width="1" fill="none"/>
    <path d="M 2125.00,1625.000000L 2125.00,1700.000000" stroke="black" stroke-width="1" fill="none"/>
    <path d="M 875.00,1150.000000L 875.00,1075.000000" stroke="black" stroke-width="1" fill="none"/>
    <path d="M 2300.00,1900.000000L 2300.00,1825.000000" stroke="black" stroke-width="1" fill="none"/>
    <path d="M 2300.00,0.000000L 2300.00,1675.000000" stroke="black" stroke-width="1" fill="none"/>
    <path d="M 650.00,400.000000L 725.00,400.000000" stroke="black" stroke-width="1" fill="none"/>
    <path d="M 1300.00,1400.000000L 1300.00,1325.000000" stroke="black" stroke-width="1" fill="none"/>
    <path d="M 1225.00,1625.000000L 1225.00,1550.000000" stroke="black" stroke-width="1" fill="none"/>
    <path d="M 550.00,1150.000000L 550.00,925.000000" stroke="black" stroke-width="1" fill="none"/>
    <path d="M 1375.00,1400.000000L 1375.00,1325.000000" stroke="black" stroke-width="1" fill="none"/>
    <path d="M 1575.00,1100.000000L 1575.00,1025.000000" stroke="black" stroke-width="1" fill="none"/>
    <path d="M 1300.00,1550.000000L 1225.00,1550.000000" stroke="black" stroke-width="1" fill="none"/>
    <path d="M 550.00,1150.000000L 725.00,1150.000000" stroke="black" stroke-width="1" fill="none"/>
    <path d="M 875.00,575.000000L 875.00,1075.000000" stroke="black" stroke-width="1" fill="none"/>
    <path d="M 200.00,0.000000L 275.00,0.000000" stroke="black" stroke-width="1" fill="none"/>
    <path d="M 1500.00,1175.000000L 1575.00,1175.000000" stroke="black" stroke-width="1" fill="none"/>
    <path d="M 900.00,1325.000000L 900.00,1400.000000" stroke="black" stroke-width="1" fill="none"/>
    <path d="M 1825.00,583.333333 H 1585.00 a 10.00,10.00 0 0,0 -10.00,10.00L 1575.00,1025.000000" stroke="black" stroke-width="1" fill="none"/>
    <path d="M 1525.00,575.000000L 1825.00,575.000000" stroke="black" stroke-width="1" fill="none"/>
    <path d="M 625.00,925.000000L 550.00,925.000000" stroke="black" stroke-width="1" fill="none"/>
    <path d="M 1825.00,1100.000000L 1825.00,1025.000000" stroke="black" stroke-width="1" fill="none"/>
    <path d="M 1300.00,1475.000000L 1300.00,1400.000000" stroke="black" stroke-width="1" fill="none"/>
    <path d="M 1500.00,1250.000000L 1300.00,1250.000000" stroke="black" stroke-width="1" fill="none"/>
    <path d="M 1975.00,1500.000000L 1900.00,1500.000000" stroke="black" stroke-width="1" fill="none"/>
    <path d="M 1575.00,1100.000000 H 1510.00 a 10.00,10.00 0 0,0 -10.00,10.00L 1500.00,1175.000000" stroke="black" stroke-width="1" fill="none"/>
    <path d="M 1825.00,500.000000L 1825.00,575.000000" stroke="black" stroke-width="1" fill="none"/>
    <path d="M 2200.00,125.000000L 2125.00,125.000000" stroke="black" stroke-width="1" fill="none"/>
    <path d="M 1825.00,800.000000L 1825.00,875.000000" stroke="black" stroke-width="1" fill="none"/>
    <path d="M 2300.00,1975.000000L 2300.00,1900.000000" stroke="black" stroke-width="1" fill="none"/>
    <path d="M 275.00,925.000000L 275.00,125.000000" stroke="black" stroke-width="1" fill="none"/>
    <path d="M 1150.00,1275.000000L 1150.00,1550.000000" stroke="black" stroke-width="1" fill="none"/>
    <rect x="810.0" y="1810.0" width="30.0" height="30.0" stroke="black" stroke-width="1" id="node0" onclick="ow3.nodeClick(this)" fill="#f0f0d2"/>

    <rect x="810.0" y="1735.0" width="30.0" height="30.0" stroke="black" stroke-width="1" id="node1" onclick="ow3.nodeClick(this)" fill="#f0f0d2"/>

    <rect x="1885.0" y="1685.0" width="30.0" height="30.0" stroke="black" stroke-width="1" id="node2" onclick="ow3.nodeClick(this)" fill="#f0f0d2"/>

    <rect x="885.0" y="1385.0" width="30.0" height="30.0" stroke="black" stroke-width="1" id="node3" onclick="ow3.nodeClick(this)" fill="#f0f0d2"/>

    <rect x="2285.0" y="1810.0" width="30.0" height="30.0" stroke="black" stroke-width="1" id="node4" onclick="ow3.nodeClick(this)" fill="#f00"/>

    <rect x="410.0" y="910.0" width="30.0" height="30.0" stroke="black" stroke-width="1" id="node5" onclick="ow3.nodeClick(this)" fill="#f0f0d2"/>

    <rect x="1560.0" y="1010.0" width="30.0" height="30.0" stroke="black" stroke-width="1" id="node6" onclick="ow3.nodeClick(this)" fill="#f0f0d2"/>

    <rect x="710.0" y="1135.0" width="30.0" height="30.0" stroke="black" stroke-width="1" id="node7" onclick="ow3.nodeClick(this)" fill="#f0f0d2"/>

    <rect x="1135.0" y="1535.0" width="30.0" height="30.0" stroke="black" stroke-width="1" id="node8" onclick="ow3.nodeClick(this)" fill="#f0f0d2"/>

    <rect x="535.0" y="910.0" width="30.0" height="30.0" stroke="black" stroke-width="1" id="node9" onclick="ow3.nodeClick(this)" fill="#f0f0d2"/>

    <rect x="1485.0" y="1235.0" width="30.0" height="30.0" stroke="black" stroke-width="1" id="node10" onclick="ow3.nodeClick(this)" fill="#f0f0d2"/>

    <rect x="860.0" y="1060.0" width="30.0" height="30.0" stroke="black" stroke-width="1" id="node11" onclick="ow3.nodeClick(this)" fill="#f0f0d2"/>

    <rect x="1010.0" y="1060.0" width="30.0" height="30.0" stroke="black" stroke-width="1" id="node12" onclick="ow3.nodeClick(this)" fill="#f0f0d2"/>

    <rect x="860.0" y="385.0" width="30.0" height="30.0" stroke="black" stroke-width="1" id="node13" onclick="ow3.nodeClick(this)" fill="#f0f0d2"/>

    <rect x="1560.0" y="1085.0" width="30.0" height="30.0" stroke="black" stroke-width="1" id="node14" onclick="ow3.nodeClick(this)" fill="#f0f0d2"/>

    <rect x="535.0" y="835.0" width="30.0" height="30.0" stroke="black" stroke-width="1" id="node15" onclick="ow3.nodeClick(this)" fill="#f0f0d2"/>

    <rect x="1285.0" y="1310.0" width="30.0" height="30.0" stroke="black" stroke-width="1" id="node16" onclick="ow3.nodeClick(this)" fill="#f0f0d2"/>

    <rect x="885.0" y="1460.0" width="30.0" height="30.0" stroke="black" stroke-width="1" id="node17" onclick="ow3.nodeClick(this)" fill="#f0f0d2"/>

    <rect x="1885.0" y="1485.0" width="30.0" height="30.0" stroke="black" stroke-width="1" id="node18" onclick="ow3.nodeClick(this)" fill="#f0f0d2"/>

    <rect x="1810.0" y="560.0" width="30.0" height="30.0" stroke="black" stroke-width="1" id="node19" onclick="ow3.nodeClick(this)" fill="#f0f0d2"/>

    <rect x="885.0" y="1310.0" width="30.0" height="30.0" stroke="black" stroke-width="1" id="node20" onclick="ow3.nodeClick(this)" fill="#f0f0d2"/>

    <rect x="1210.0" y="435.0" width="30.0" height="30.0" stroke="black" stroke-width="1" id="node21" onclick="ow3.nodeClick(this)" fill="#f0f0d2"/>

    <rect x="1360.0" y="1310.0" width="30.0" height="30.0" stroke="black" stroke-width="1" id="node22" onclick="ow3.nodeClick(this)" fill="#f0f0d2"/>

    <rect x="960.0" y="1385.0" width="30.0" height="30.0" stroke="black" stroke-width="1" id="node23" onclick="ow3.nodeClick(this)" fill="#f0f0d2"/>

    <rect x="2285.0" y="1885.0" width="30.0" height="30.0" stroke="black" stroke-width="1" id="node24" onclick="ow3.nodeClick(this)" fill="#f0f0d2"/>

    <rect x="1135.0" y="1260.0" width="30.0" height="30.0" stroke="black" stroke-width="1" id="node25" onclick="ow3.nodeClick(this)" fill="#f0f0d2"/>

    <rect x="1135.0" y="685.0" width="30.0" height="30.0" stroke="black" stroke-width="1" id="node26" onclick="ow3.nodeClick(this)" fill="#f0f0d2"/>

    <rect x="1810.0" y="1485.0" width="30.0" height="30.0" stroke="black" stroke-width="1" id="node27" onclick="ow3.nodeClick(this)" fill="#f0f0d2"/>

    <rect x="2285.0" y="1735.0" width="30.0" height="30.0" stroke="black" stroke-width="1" id="node28" onclick="ow3.nodeClick(this)" fill="#f0f0d2"/>

    <rect x="1010.0" y="1160.0" width="30.0" height="30.0" stroke="black" stroke-width="1" id="node29" onclick="ow3.nodeClick(this)" fill="#f0f0d2"/>

    <rect x="2110.0" y="1285.0" width="30.0" height="30.0" stroke="black" stroke-width="1" id="node30" onclick="ow3.nodeClick(this)" fill="#f00"/>

    <rect x="1010.0" y="1235.0" width="30.0" height="30.0" stroke="black" stroke-width="1" id="node31" onclick="ow3.nodeClick(this)" fill="#f0f0d2"/>

    <rect x="1210.0" y="685.0" width="30.0" height="30.0" stroke="black" stroke-width="1" id="node32" onclick="ow3.nodeClick(this)" fill="#f0f0d2"/>

    <rect x="1735.0" y="1485.0" width="30.0" height="30.0" stroke="black" stroke-width="1" id="node33" onclick="ow3.nodeClick(this)" fill="#f0f0d2"/>

    <rect x="785.0" y="385.0" width="30.0" height="30.0" stroke="black" stroke-width="1" id="node34" onclick="ow3.nodeClick(this)" fill="#f0f0d2"/>

    <rect x="410.0" y="60.0" width="30.0" height="30.0" stroke="black" stroke-width="1" id="node35" onclick="ow3.nodeClick(this)" fill="#f0f0d2"/>

    <rect x="1010.0" y="1535.0" width="30.0" height="30.0" stroke="black" stroke-width="1" id="node36" onclick="ow3.nodeClick(this)" fill="#f0f0d2"/>

    <rect x="1210.0" y="1535.0" width="30.0" height="30.0" stroke="black" stroke-width="1" id="node37" onclick="ow3.nodeClick(this)" fill="#f0f0d2"/>

    <rect x="810.0" y="1885.0" width="30.0" height="30.0" stroke="black" stroke-width="1" id="node38" onclick="ow3.nodeClick(this)" fill="#f0f0d2"/>

    <rect x="610.0" y="910.0" width="30.0" height="30.0" stroke="black" stroke-width="1" id="node39" onclick="ow3.nodeClick(this)" fill="#f0f0d2"/>

    <rect x="1735.0" y="1010.0" width="30.0" height="30.0" stroke="black" stroke-width="1" id="node40" onclick="ow3.nodeClick(this)" fill="#f0f0d2"/>

    <rect x="860.0" y="1135.0" width="30.0" height="30.0" stroke="black" stroke-width="1" id="node41" onclick="ow3.nodeClick(this)" fill="#f0f0d2"/>

    <rect x="1635.0" y="1085.0" width="30.0" height="30.0" stroke="black" stroke-width="1" id="node42" onclick="ow3.nodeClick(this)" fill="#f0f0d2"/>

    <rect x="1285.0" y="1535.0" width="30.0" height="30.0" stroke="black" stroke-width="1" id="node43" onclick="ow3.nodeClick(this)" fill="#f0f0d2"/>

    <rect x="1810.0" y="1010.0" width="30.0" height="30.0" stroke="black" stroke-width="1" id="node44" onclick="ow3.nodeClick(this)" fill="#f0f0d2"/>

    <rect x="1885.0" y="1410.0" width="30.0" height="30.0" stroke="black" stroke-width="1" id="node45" onclick="ow3.nodeClick(this)" fill="#f0f0d2"/>

    <rect x="1960.0" y="1485.0" width="30.0" height="30.0" stroke="black" stroke-width="1" id="node46" onclick="ow3.nodeClick(this)" fill="#f0f0d2"/>

    <rect x="1485.0" y="1160.0" width="30.0" height="30.0" stroke="black" stroke-width="1" id="node47" onclick="ow3.nodeClick(this)" fill="#f0f0d2"/>

    <rect x="1135.0" y="610.0" width="30.0" height="30.0" stroke="black" stroke-width="1" id="node48" onclick="ow3.nodeClick(this)" fill="#f0f0d2"/>

    <rect x="1885.0" y="560.0" width="30.0" height="30.0" stroke="black" stroke-width="1" id="node49" onclick="ow3.nodeClick(this)" fill="#f0f0d2"/>

    <rect x="2110.0" y="1685.0" width="30.0" height="30.0" stroke="black" stroke-width="1" id="node50" onclick="ow3.nodeClick(this)" fill="#f0f0d2"/>

    <rect x="1010.0" y="1460.0" width="30.0" height="30.0" stroke="black" stroke-width="1" id="node51" onclick="ow3.nodeClick(this)" fill="#f0f0d2"/>

    <rect x="410.0" y="-15.0" width="30.0" height="30.0" stroke="black" stroke-width="1" id="node52" onclick="ow3.nodeClick(this)" fill="#f0f0d2"/>

    <rect x="1285.0" y="1385.0" width="30.0" height="30.0" stroke="black" stroke-width="1" id="node53" onclick="ow3.nodeClick(this)" fill="#f0f0d2"/>

    <rect x="785.0" y="1135.0" width="30.0" height="30.0" stroke="black" stroke-width="1" id="node54" onclick="ow3.nodeClick(this)" fill="#f0f0d2"/>

    <rect x="1210.0" y="1610.0" width="30.0" height="30.0" stroke="black" stroke-width="1" id="node55" onclick="ow3.nodeClick(this)" fill="#f0f0d2"/>

    <rect x="935.0" y="1235.0" width="30.0" height="30.0" stroke="black" stroke-width="1" id="node56" onclick="ow3.nodeClick(this)" fill="#f0f0d2"/>

    <rect x="1510.0" y="560.0" width="30.0" height="30.0" stroke="black" stroke-width="1" id="node57" onclick="ow3.nodeClick(this)" fill="#f0f0d2"/>

    <rect x="710.0" y="1060.0" width="30.0" height="30.0" stroke="black" stroke-width="1" id="node58" onclick="ow3.nodeClick(this)" fill="#f0f0d2"/>

    <rect x="1285.0" y="1460.0" width="30.0" height="30.0" stroke="black" stroke-width="1" id="node59" onclick="ow3.nodeClick(this)" fill="#f0f0d2"/>

    <rect x="860.0" y="485.0" width="30.0" height="30.0" stroke="black" stroke-width="1" id="node60" onclick="ow3.nodeClick(this)" fill="#f0f0d2"/>

    <rect x="335.0" y="-15.0" width="30.0" height="30.0" stroke="black" stroke-width="1" id="node61" onclick="ow3.nodeClick(this)" fill="#f0f0d2"/>

    <rect x="110.0" y="60.0" width="30.0" height="30.0" stroke="black" stroke-width="1" id="node62" onclick="ow3.nodeClick(this)" fill="#f0f0d2"/>

    <rect x="1960.0" y="1410.0" width="30.0" height="30.0" stroke="black" stroke-width="1" id="node63" onclick="ow3.nodeClick(this)" fill="#f0f0d2"/>

    <rect x="2110.0" y="1535.0" width="30.0" height="30.0" stroke="black" stroke-width="1" id="node64" onclick="ow3.nodeClick(this)" fill="#f0f0d2"/>

    <rect x="1885.0" y="1010.0" width="30.0" height="30.0" stroke="black" stroke-width="1" id="node65" onclick="ow3.nodeClick(this)" fill="#f0f0d2"/>

    <rect x="1360.0" y="1535.0" width="30.0" height="30.0" stroke="black" stroke-width="1" id="node66" onclick="ow3.nodeClick(this)" fill="#f0f0d2"/>

    <rect x="710.0" y="385.0" width="30.0" height="30.0" stroke="black" stroke-width="1" id="node67" onclick="ow3.nodeClick(this)" fill="#f0f0d2"/>

    <rect x="260.0" y="-15.0" width="30.0" height="30.0" stroke="black" stroke-width="1" id="node68" onclick="ow3.nodeClick(this)" fill="#f0f0d2"/>

    <rect x="1435.0" y="1535.0" width="30.0" height="30.0" stroke="black" stroke-width="1" id="node69" onclick="ow3.nodeClick(this)" fill="#f0f0d2"/>

    <rect x="2285.0" y="1660.0" width="30.0" height="30.0" stroke="black" stroke-width="1" id="node70" onclick="ow3.nodeClick(this)" fill="#f0f0d2"/>

    <rect x="860.0" y="260.0" width="30.0" height="30.0" stroke="black" stroke-width="1" id="node71" onclick="ow3.nodeClick(this)" fill="#f0f0d2"/>

    <rect x="2110.0" y="1610.0" width="30.0" height="30.0" stroke="black" stroke-width="1" id="node72" onclick="ow3.nodeClick(this)" fill="#f0f0d2"/>

    <rect x="185.0" y="110.0" width="30.0" height="30.0" stroke="black" stroke-width="1" id="node73" onclick="ow3.nodeClick(this)" fill="#f0f0d2"/>

    <rect x="710.0" y="260.0" width="30.0" height="30.0" stroke="black" stroke-width="1" id="node74" onclick="ow3.nodeClick(this)" fill="#f0f0d2"/>

    <rect x="1560.0" y="1160.0" width="30.0" height="30.0" stroke="black" stroke-width="1" id="node75" onclick="ow3.nodeClick(this)" fill="#f0f0d2"/>

    <rect x="260.0" y="110.0" width="30.0" height="30.0" stroke="black" stroke-width="1" id="node76" onclick="ow3.nodeClick(this)" fill="#f0f0d2"/>

    <rect x="1435.0" y="1310.0" width="30.0" height="30.0" stroke="black" stroke-width="1" id="node77" onclick="ow3.nodeClick(this)" fill="#f0f0d2"/>

    <rect x="2185.0" y="1285.0" width="30.0" height="30.0" stroke="black" stroke-width="1" id="node78" onclick="ow3.nodeClick(this)" fill="#f0f0d2"/>

    <rect x="1085.0" y="1460.0" width="30.0" height="30.0" stroke="black" stroke-width="1" id="node79" onclick="ow3.nodeClick(this)" fill="#f0f0d2"/>

    <rect x="1360.0" y="1385.0" width="30.0" height="30.0" stroke="black" stroke-width="1" id="node80" onclick="ow3.nodeClick(this)" fill="#f0f0d2"/>

    <rect x="935.0" y="1160.0" width="30.0" height="30.0" stroke="black" stroke-width="1" id="node81" onclick="ow3.nodeClick(this)" fill="#f0f0d2"/>

    <rect x="785.0" y="310.0" width="30.0" height="30.0" stroke="black" stroke-width="1" id="node82" onclick="ow3.nodeClick(this)" fill="#f0f0d2"/>

    <rect x="1210.0" y="560.0" width="30.0" height="30.0" stroke="black" stroke-width="1" id="node83" onclick="ow3.nodeClick(this)" fill="#f0f0d2"/>

    <rect x="860.0" y="185.0" width="30.0" height="30.0" stroke="black" stroke-width="1" id="node84" onclick="ow3.nodeClick(this)" fill="#f0f0d2"/>

    <rect x="2035.0" y="1485.0" width="30.0" height="30.0" stroke="black" stroke-width="1" id="node85" onclick="ow3.nodeClick(this)" fill="#f0f0d2"/>

    <rect x="535.0" y="1135.0" width="30.0" height="30.0" stroke="black" stroke-width="1" id="node86" onclick="ow3.nodeClick(this)" fill="#f0f0d2"/>

    <rect x="185.0" y="-15.0" width="30.0" height="30.0" stroke="black" stroke-width="1" id="node87" onclick="ow3.nodeClick(this)" fill="#f0f0d2"/>

    <rect x="635.0" y="385.0" width="30.0" height="30.0" stroke="black" stroke-width="1" id="node88" onclick="ow3.nodeClick(this)" fill="#f0f0d2"/>

    <rect x="860.0" y="110.0" width="30.0" height="30.0" stroke="black" stroke-width="1" id="node89" onclick="ow3.nodeClick(this)" fill="#f0f0d2"/>

    <rect x="860.0" y="560.0" width="30.0" height="30.0" stroke="black" stroke-width="1" id="node90" onclick="ow3.nodeClick(this)" fill="#f0f0d2"/>

    <rect x="35.0" y="60.0" width="30.0" height="30.0" stroke="black" stroke-width="1" id="node91" onclick="ow3.nodeClick(this)" fill="#f0f0d2"/>

    <rect x="1810.0" y="1085.0" width="30.0" height="30.0" stroke="black" stroke-width="1" id="node92" onclick="ow3.nodeClick(this)" fill="#f0f0d2"/>

    <rect x="2285.0" y="1960.0" width="30.0" height="30.0" stroke="black" stroke-width="1" id="node93" onclick="ow3.nodeClick(this)" fill="#f0f0d2"/>

    <rect x="1885.0" y="1335.0" width="30.0" height="30.0" stroke="black" stroke-width="1" id="node94" onclick="ow3.nodeClick(this)" fill="#f0f0d2"/>

    <rect x="2185.0" y="1685.0" width="30.0" height="30.0" stroke="black" stroke-width="1" id="node95" onclick="ow3.nodeClick(this)" fill="#f0f0d2"/>

    <rect x="2035.0" y="1410.0" width="30.0" height="30.0" stroke="black" stroke-width="1" id="node96" onclick="ow3.nodeClick(this)" fill="#f0f0d2"/>

    <rect x="135.0" y="1810.0" width="30.0" height="30.0" stroke="black" stroke-width="1" id="node97" onclick="ow3.nodeClick(this)" fill="#f0f0d2"/>

    <rect x="685.0" y="910.0" width="30.0" height="30.0" stroke="black" stroke-width="1" id="node98" onclick="ow3.nodeClick(this)" fill="#f0f0d2"/>

    <rect x="260.0" y="910.0" width="30.0" height="30.0" stroke="black" stroke-width="1" id="node99" onclick="ow3.nodeClick(this)" fill="#f0f0d2"/>

    <rect x="1810.0" y="935.0" width="30.0" height="30.0" stroke="black" stroke-width="1" id="node100" onclick="ow3.nodeClick(this)" fill="#f0f0d2"/>

    <rect x="2285.0" y="-15.0" width="30.0" height="30.0" stroke="black" stroke-width="1" id="node101" onclick="ow3.nodeClick(this)" fill="#f0f0d2"/>

    <rect x="535.0" y="760.0" width="30.0" height="30.0" stroke="black" stroke-width="1" id="node102" onclick="ow3.nodeClick(this)" fill="#f0f0d2"/>

    <rect x="1285.0" y="1235.0" width="30.0" height="30.0" stroke="black" stroke-width="1" id="node103" onclick="ow3.nodeClick(this)" fill="#f0f0d2"/>

    <rect x="1810.0" y="710.0" width="30.0" height="30.0" stroke="black" stroke-width="1" id="node104" onclick="ow3.nodeClick(this)" fill="#f0f0d2"/>

    <rect x="860.0" y="1235.0" width="30.0" height="30.0" stroke="black" stroke-width="1" id="node105" onclick="ow3.nodeClick(this)" fill="#f0f0d2"/>

    <rect x="1810.0" y="635.0" width="30.0" height="30.0" stroke="black" stroke-width="1" id="node106" onclick="ow3.nodeClick(this)" fill="#f0f0d2"/>

    <rect x="60.0" y="1810.0" width="30.0" height="30.0" stroke="black" stroke-width="1" id="node107" onclick="ow3.nodeClick(this)" fill="#f0f0d2"/>

    <rect x="760.0" y="910.0" width="30.0" height="30.0" stroke="black" stroke-width="1" id="node108" onclick="ow3.nodeClick(this)" fill="#f0f0d2"/>

    <rect x="810.0" y="1335.0" width="30.0" height="30.0" stroke="black" stroke-width="1" id="node109" onclick="ow3.nodeClick(this)" fill="#f0f0d2"/>

    <rect x="1810.0" y="785.0" width="30.0" height="30.0" stroke="black" stroke-width="1" id="node110" onclick="ow3.nodeClick(this)" fill="#f0f0d2"/>

    <rect x="2110.0" y="110.0" width="30.0" height="30.0" stroke="black" stroke-width="1" id="node111" onclick="ow3.nodeClick(this)" fill="#f0f0d2"/>

    <rect x="460.0" y="835.0" width="30.0" height="30.0" stroke="black" stroke-width="1" id="node112" onclick="ow3.nodeClick(this)" fill="#f0f0d2"/>

    <rect x="-15.0" y="1810.0" width="30.0" height="30.0" stroke="black" stroke-width="1" id="node113" onclick="ow3.nodeClick(this)" fill="#f0f0d2"/>

    <rect x="2285.0" y="2035.0" width="30.0" height="30.0" stroke="black" stroke-width="1" id="node114" onclick="ow3.nodeClick(this)" fill="#f0f0d2"/>

    <rect x="685.0" y="985.0" width="30.0" height="30.0" stroke="black" stroke-width="1" id="node115" onclick="ow3.nodeClick(this)" fill="#f0f0d2"/>

    <rect x="2185.0" y="110.0" width="30.0" height="30.0" stroke="black" stroke-width="1" id="node116" onclick="ow3.nodeClick(this)" fill="#f0f0d2"/>

    <rect x="335.0" y="910.0" width="30.0" height="30.0" stroke="black" stroke-width="1" id="node117" onclick="ow3.nodeClick(this)" fill="#f0f0d2"/>

    <rect x="1810.0" y="485.0" width="30.0" height="30.0" stroke="black" stroke-width="1" id="node118" onclick="ow3.nodeClick(this)" fill="#f0f0d2"/>

    <rect x="1810.0" y="860.0" width="30.0" height="30.0" stroke="black" stroke-width="1" id="node119" onclick="ow3.nodeClick(this)" fill="#f0f0d2"/>

</g>
</g>
</svg>
