<?xml version="1.0" encoding="UTF-8"?>
<svg id="canvasSVG" xmlns="http://www.w3.org/2000/svg" width="480px" height="270px">
<rect x="0" y="0" width="480" height="270" stroke="none" stroke-width="1" id="" onclick="null" fill="#bdbddf"/>
<g id="outerGroup">
<g transform="translate(96.06,20.00),scale(0.08),translate(2.00,15.00)">
    <path d="M 925.00,450.000000 H 843.33 a 10.00,10.00 0 0,0 -10.00,10.00L 833.33,575.000000" stroke="black" stroke-width="1" fill="none"/>
    <path d="M 2250.00,2250.000000 H 2306.67 a 10.00,10.00 0 0,1 10.00,10.00L 2316.67,2500.000000" stroke="black" stroke-width="1" fill="none"/>
    <path d="M 2025.00,2100.000000L 2025.00,2250.000000" stroke="black" stroke-width="1" fill="none"/>
    <path d="M 1600.00,1400.000000L 1700.00,1400.000000" stroke="black" stroke-width="1" fill="none"/>
    <path d="M 2025.00,2100.000000L 2025.00,2025.000000" stroke="black" stroke-width="1" fill="none"/>
    <path d="M 925.00,1400.000000L 1225.00,1400.000000" stroke="black" stroke-width="1" fill="none"/>
    <path d="M 1100.00,1450.000000 V 1556.67 a 10.00,10.00 0 0,1 -10.00,10.00L 1025.00,1566.666667" stroke="black" stroke-width="1" fill="none"/>
    <path d="M 2025.00,2375.000000L 850.00,2375.000000" stroke="black" stroke-width="1" fill="none"/>
    <path d="M 1325.00,1650.000000L 1325.00,1575.000000" stroke="black" stroke-width="1" fill="none"/>
    <path d="M 300.00,1900.000000L 300.00,1975.000000" stroke="black" stroke-width="1" fill="none"/>
    <path d="M 1850.00,1700.000000L 1850.00,2100.000000" stroke="black" stroke-width="1" fill="none"/>
    <path d="M 2650.00,2375.000000L 2575.00,2375.000000" stroke="black" stroke-width="1" fill="none"/>
    <path d="M 1225.00,1575.000000L 1025.00,1575.000000" stroke="black" stroke-width="1" fill="none"/>
    <path d="M 725.00,800.000000L 825.00,800.000000" stroke="black" stroke-width="1" fill="none"/>
    <path d="M 825.00,1000.000000L 900.00,1000.000000" stroke="black" stroke-width="1" fill="none"/>
    <path d="M 1225.00,1700.000000L 1225.00,1775.000000" stroke="black" stroke-width="1" fill="none"/>
    <path d="M 1775.00,1700.000000L 1225.00,1700.000000" stroke="black" stroke-width="1" fill="none"/>
    <path d="M 2650.00,2300.000000L 2650.00,2375.000000" stroke="black" stroke-width="1" fill="none"/>
    <path d="M 100.00,2375.000000L 100.00,2450.000000" stroke="black" stroke-width="1" fill="none"/>
    <path d="M 3100.00,2050.000000L 2425.00,2050.000000" stroke="black" stroke-width="1" fill="none"/>
    <path d="M 150.00,1975.000000L 300.00,1975.000000" stroke="black" stroke-width="1" fill="none"/>
    <path d="M 400.00,1750.000000 V 1806.67 a 10.00,10.00 0 0,1 -10.00,10.00L 300.00,1816.666667" stroke="black" stroke-width="1" fill="none"/>
    <path d="M 1600.00,1525.000000L 1600.00,1400.000000" stroke="black" stroke-width="1" fill="none"/>
    <path d="M 925.00,375.000000L 925.00,200.000000" stroke="black" stroke-width="1" fill="none"/>
    <path d="M 975.00,1075.000000L 975.00,1000.000000" stroke="black" stroke-width="1" fill="none"/>
    <path d="M 850.00,1700.000000L 225.00,1700.000000" stroke="black" stroke-width="1" fill="none"/>
    <path d="M 1025.00,1575.000000L 1025.00,1700.000000" stroke="black" stroke-width="1" fill="none"/>
    <path d="M 725.00,1000.000000L 825.00,1000.000000" stroke="black" stroke-width="1" fill="none"/>
    <path d="M 2500.00,2175.000000L 2500.00,2250.000000" stroke="black" stroke-width="1" fill="none"/>
    <path d="M 2800.00,2575.000000L 2800.00,2500.000000" stroke="black" stroke-width="1" fill="none"/>
    <path d="M 825.00,575.000000L 1050.00,575.000000" stroke="black" stroke-width="1" fill="none"/>
    <path d="M 2250.00,2625.000000L 3325.00,2625.000000" stroke="black" stroke-width="1" fill="none"/>
    <path d="M 1125.00,1625.000000 H 1206.67 a 10.00,10.00 0 0,1 10.00,10.00L 1216.67,1700.000000" stroke="black" stroke-width="1" fill="none"/>
    <path d="M 2800.00,2425.000000L 2800.00,2500.000000" stroke="black" stroke-width="1" fill="none"/>
    <path d="M 975.00,1000.000000L 1325.00,1000.000000" stroke="black" stroke-width="1" fill="none"/>
    <path d="M 925.00,450.000000L 1000.00,450.000000" stroke="black" stroke-width="1" fill="none"/>
    <path d="M 1950.00,1850.000000 H 1864.17 a 10.00,10.00 0 0,1 -10.00,-10.00L 1854.17,1700.000000" stroke="black" stroke-width="1" fill="none"/>
    <path d="M 450.00,2375.000000L 100.00,2375.000000" stroke="black" stroke-width="1" fill="none"/>
    <path d="M 2400.00,2250.000000L 2500.00,2250.000000" stroke="black" stroke-width="1" fill="none"/>
    <path d="M 2325.00,2500.000000L 450.00,2500.000000" stroke="black" stroke-width="1" fill="none"/>
    <path d="M 1225.00,1275.000000L 1225.00,1400.000000" stroke="black" stroke-width="1" fill="none"/>
    <path d="M 1325.00,1575.000000L 1225.00,1575.000000" stroke="black" stroke-width="1" fill="none"/>
    <path d="M 1925.00,2450.000000 V 2393.33 a 10.00,10.00 0 0,1 10.00,-10.00L 2025.00,2383.333333" stroke="black" stroke-width="1" fill="none"/>
    <path d="M 1400.00,1275.000000L 1225.00,1275.000000" stroke="black" stroke-width="1" fill="none"/>
    <path d="M 2100.00,2250.000000L 2175.00,2250.000000" stroke="black" stroke-width="1" fill="none"/>
    <path d="M 1625.00,2250.000000L 1775.00,2250.000000" stroke="black" stroke-width="1" fill="none"/>
    <path d="M 3025.00,2325.000000 H 2943.33 a 10.00,10.00 0 0,1 -10.00,-10.00L 2933.33,2250.000000" stroke="black" stroke-width="1" fill="none"/>
    <path d="M 2025.00,2250.000000L 2100.00,2250.000000" stroke="black" stroke-width="1" fill="none"/>
    <path d="M 1425.00,1000.000000L 1325.00,1000.000000" stroke="black" stroke-width="1" fill="none"/>
    <path d="M 625.00,2375.000000L 450.00,2375.000000" stroke="black" stroke-width="1" fill="none"/>
    <path d="M 2800.00,2500.000000L 2950.00,2500.000000" stroke="black" stroke-width="1" fill="none"/>
    <path d="M 950.00,1625.000000 V 1681.67 a 10.00,10.00 0 0,1 -10.00,10.00L 850.00,1691.666667" stroke="black" stroke-width="1" fill="none"/>
    <path d="M 900.00,1000.000000L 975.00,1000.000000" stroke="black" stroke-width="1" fill="none"/>
    <path d="M 2800.00,2500.000000L 2325.00,2500.000000" stroke="black" stroke-width="1" fill="none"/>
    <path d="M 1950.00,1775.000000 H 1868.33 a 10.00,10.00 0 0,1 -10.00,-10.00L 1858.33,1700.000000" stroke="black" stroke-width="1" fill="none"/>
    <path d="M 1041.67,575.000000 V 385.00 a 10.00,10.00 0 0,0 -10.00,-10.00L 925.00,375.000000" stroke="black" stroke-width="1" fill="none"/>
    <path d="M 1100.00,1075.000000L 1325.00,1075.000000" stroke="black" stroke-width="1" fill="none"/>
    <path d="M 450.00,2100.000000L 450.00,2025.000000" stroke="black" stroke-width="1" fill="none"/>
    <path d="M 300.00,1833.333333 H 110.00 a 10.00,10.00 0 0,0 -10.00,10.00L 100.00,2100.000000" stroke="black" stroke-width="1" fill="none"/>
    <path d="M 1400.00,1350.000000L 1400.00,1275.000000" stroke="black" stroke-width="1" fill="none"/>
    <path d="M 3100.00,1975.000000L 3100.00,2050.000000" stroke="black" stroke-width="1" fill="none"/>
    <path d="M 1425.00,1075.000000L 1425.00,1000.000000" stroke="black" stroke-width="1" fill="none"/>
    <path d="M 300.00,1975.000000L 300.00,2050.000000" stroke="black" stroke-width="1" fill="none"/>
    <path d="M 2325.00,2491.666667 H 2631.67 a 10.00,10.00 0 0,0 10.00,-10.00L 2641.67,2375.000000" stroke="black" stroke-width="1" fill="none"/>
    <path d="M 1225.00,1400.000000L 1225.00,1575.000000" stroke="black" stroke-width="1" fill="none"/>
    <path d="M 1225.00,1400.000000L 1325.00,1400.000000" stroke="black" stroke-width="1" fill="none"/>
    <path d="M 2325.00,2500.000000L 2325.00,75.000000" stroke="black" stroke-width="1" fill="none"/>
    <path d="M 1875.00,125.000000L 1775.00,125.000000" stroke="black" stroke-width="1" fill="none"/>
    <path d="M 825.00,375.000000L 925.00,375.000000" stroke="black" stroke-width="1" fill="none"/>
    <path d="M 775.00,2300.000000L 775.00,2375.000000" stroke="black" stroke-width="1" fill="none"/>
    <path d="M 1225.00,1200.000000L 1150.00,1200.000000" stroke="black" stroke-width="1" fill="none"/>
    <path d="M 1850.00,1700.000000L 1850.00,1625.000000" stroke="black" stroke-width="1" fill="none"/>
    <path d="M 2100.00,2175.000000L 2100.00,2250.000000" stroke="black" stroke-width="1" fill="none"/>
    <path d="M 3325.00,2625.000000L 3325.00,2525.000000" stroke="black" stroke-width="1" fill="none"/>
    <path d="M 3325.00,2700.000000L 3325.00,2625.000000" stroke="black" stroke-width="1" fill="none"/>
    <path d="M 350.00,2500.000000L 450.00,2500.000000" stroke="black" stroke-width="1" fill="none"/>
    <path d="M 2250.00,2175.000000L 2250.00,2250.000000" stroke="black" stroke-width="1" fill="none"/>
    <path d="M 925.00,525.000000L 925.00,450.000000" stroke="black" stroke-width="1" fill="none"/>
    <path d="M 2300.00,2700.000000 V 2643.33 a 10.00,10.00 0 0,1 10.00,-10.00L 3325.00,2633.333333" stroke="black" stroke-width="1" fill="none"/>
    <path d="M 3325.00,2625.000000L 3400.00,2625.000000" stroke="black" stroke-width="1" fill="none"/>
    <path d="M 1225.00,1700.000000L 1225.00,1575.000000" stroke="black" stroke-width="1" fill="none"/>
    <path d="M 300.00,1900.000000L 300.00,1825.000000" stroke="black" stroke-width="1" fill="none"/>
    <path d="M 2900.00,2575.000000 V 2518.33 a 10.00,10.00 0 0,0 -10.00,-10.00L 2800.00,2508.333333" stroke="black" stroke-width="1" fill="none"/>
    <path d="M 1050.00,575.000000L 1050.00,325.000000" stroke="black" stroke-width="1" fill="none"/>
    <path d="M 25.00,2300.000000 H 81.67 a 10.00,10.00 0 0,1 10.00,10.00L 91.67,2375.000000" stroke="black" stroke-width="1" fill="none"/>
    <path d="M 1700.00,1475.000000 H 1618.33 a 10.00,10.00 0 0,1 -10.00,-10.00L 1608.33,1400.000000" stroke="black" stroke-width="1" fill="none"/>
    <path d="M 1775.00,2250.000000L 1775.00,2325.000000" stroke="black" stroke-width="1" fill="none"/>
    <path d="M 825.00,1000.000000L 825.00,1075.000000" stroke="black" stroke-width="1" fill="none"/>
    <path d="M 1225.00,1275.000000L 1225.00,1200.000000" stroke="black" stroke-width="1" fill="none"/>
    <path d="M 450.00,2500.000000L 450.00,2575.000000" stroke="black" stroke-width="1" fill="none"/>
    <path d="M 1500.00,1275.000000L 1400.00,1275.000000" stroke="black" stroke-width="1" fill="none"/>
    <path d="M 1325.00,1400.000000L 1600.00,1400.000000" stroke="black" stroke-width="1" fill="none"/>
    <path d="M 2500.00,2258.333333 H 2790.00 a 10.00,10.00 0 0,1 10.00,10.00L 2800.00,2425.000000" stroke="black" stroke-width="1" fill="none"/>
    <path d="M 300.00,1825.000000L 50.00,1825.000000" stroke="black" stroke-width="1" fill="none"/>
    <path d="M 25.00,2375.000000L 100.00,2375.000000" stroke="black" stroke-width="1" fill="none"/>
    <path d="M 3250.00,2575.000000L 3175.00,2575.000000" stroke="black" stroke-width="1" fill="none"/>
    <path d="M 3250.00,2575.000000 H 3306.67 a 10.00,10.00 0 0,1 10.00,10.00L 3316.67,2625.000000" stroke="black" stroke-width="1" fill="none"/>
    <path d="M 700.00,200.000000L 925.00,200.000000" stroke="black" stroke-width="1" fill="none"/>
    <path d="M 2325.00,83.333333 H 3240.00 a 10.00,10.00 0 0,1 10.00,10.00L 3250.00,2575.000000" stroke="black" stroke-width="1" fill="none"/>
    <path d="M 3025.00,2250.000000L 2925.00,2250.000000" stroke="black" stroke-width="1" fill="none"/>
    <path d="M 825.00,250.000000L 825.00,375.000000" stroke="black" stroke-width="1" fill="none"/>
    <path d="M 1325.00,1075.000000L 1325.00,1000.000000" stroke="black" stroke-width="1" fill="none"/>
    <path d="M 1775.00,2250.000000L 2025.00,2250.000000" stroke="black" stroke-width="1" fill="none"/>
    <path d="M 1675.00,2325.000000 V 2268.33 a 10.00,10.00 0 0,1 10.00,-10.00L 1775.00,2258.333333" stroke="black" stroke-width="1" fill="none"/>
    <path d="M 2925.00,2250.000000L 2925.00,2175.000000" stroke="black" stroke-width="1" fill="none"/>
    <path d="M 700.00,2375.000000L 625.00,2375.000000" stroke="black" stroke-width="1" fill="none"/>
    <path d="M 1775.00,1700.000000L 1775.00,2250.000000" stroke="black" stroke-width="1" fill="none"/>
    <path d="M 725.00,650.000000L 825.00,650.000000" stroke="black" stroke-width="1" fill="none"/>
    <path d="M 1600.00,1400.000000L 1600.00,1325.000000" stroke="black" stroke-width="1" fill="none"/>
    <path d="M 2925.00,2375.000000L 2925.00,2250.000000" stroke="black" stroke-width="1" fill="none"/>
    <path d="M 925.00,375.000000L 925.00,450.000000" stroke="black" stroke-width="1" fill="none"/>
    <path d="M 1775.00,1700.000000L 1850.00,1700.000000" stroke="black" stroke-width="1" fill="none"/>
    <path d="M 825.00,800.000000L 825.00,725.000000" stroke="black" stroke-width="1" fill="none"/>
    <path d="M 450.00,2500.000000L 450.00,2375.000000" stroke="black" stroke-width="1" fill="none"/>
    <path d="M 2725.00,2375.000000L 2650.00,2375.000000" stroke="black" stroke-width="1" fill="none"/>
    <path d="M 2500.00,2250.000000L 2500.00,2325.000000" stroke="black" stroke-width="1" fill="none"/>
    <path d="M 825.00,725.000000 H 1406.67 a 10.00,10.00 0 0,1 10.00,10.00L 1416.67,1000.000000" stroke="black" stroke-width="1" fill="none"/>
    <path d="M 300.00,1825.000000L 300.00,1750.000000" stroke="black" stroke-width="1" fill="none"/>
    <path d="M 1050.00,650.000000L 1050.00,575.000000" stroke="black" stroke-width="1" fill="none"/>
    <path d="M 750.00,1500.000000 H 1006.67 a 10.00,10.00 0 0,1 10.00,10.00L 1016.67,1575.000000" stroke="black" stroke-width="1" fill="none"/>
    <path d="M 2800.00,2491.666667 H 2865.00 a 10.00,10.00 0 0,0 10.00,-10.00L 2875.00,2450.000000" stroke="black" stroke-width="1" fill="none"/>
    <path d="M 1425.00,1000.000000L 1425.00,675.000000" stroke="black" stroke-width="1" fill="none"/>
    <path d="M 2025.00,2375.000000L 2100.00,2375.000000" stroke="black" stroke-width="1" fill="none"/>
    <path d="M 625.00,2300.000000L 625.00,2375.000000" stroke="black" stroke-width="1" fill="none"/>
    <path d="M 825.00,375.000000L 725.00,375.000000" stroke="black" stroke-width="1" fill="none"/>
    <path d="M 1775.00,125.000000L 1775.00,1700.000000" stroke="black" stroke-width="1" fill="none"/>
    <path d="M 1025.00,1450.000000L 1025.00,1575.000000" stroke="black" stroke-width="1" fill="none"/>
    <path d="M 825.00,875.000000L 825.00,800.000000" stroke="black" stroke-width="1" fill="none"/>
    <path d="M 2325.00,0.000000L 2325.00,75.000000" stroke="black" stroke-width="1" fill="none"/>
    <path d="M 2100.00,2025.000000 V 2081.67 a 10.00,10.00 0 0,1 -10.00,10.00L 2025.00,2091.666667" stroke="black" stroke-width="1" fill="none"/>
    <path d="M 300.00,1975.000000L 375.00,1975.000000" stroke="black" stroke-width="1" fill="none"/>
    <path d="M 925.00,200.000000 H 1756.67 a 10.00,10.00 0 0,1 10.00,10.00L 1766.67,1700.000000" stroke="black" stroke-width="1" fill="none"/>
    <path d="M 850.00,2375.000000L 775.00,2375.000000" stroke="black" stroke-width="1" fill="none"/>
    <path d="M 200.00,2050.000000 V 1993.33 a 10.00,10.00 0 0,1 10.00,-10.00L 300.00,1983.333333" stroke="black" stroke-width="1" fill="none"/>
    <path d="M 925.00,200.000000L 925.00,125.000000" stroke="black" stroke-width="1" fill="none"/>
    <path d="M 525.00,2175.000000 H 468.33 a 10.00,10.00 0 0,1 -10.00,-10.00L 458.33,2100.000000" stroke="black" stroke-width="1" fill="none"/>
    <path d="M 1225.00,1200.000000L 1325.00,1200.000000" stroke="black" stroke-width="1" fill="none"/>
    <path d="M 825.00,575.000000L 825.00,375.000000" stroke="black" stroke-width="1" fill="none"/>
    <path d="M 3100.00,2050.000000L 3100.00,2575.000000" stroke="black" stroke-width="1" fill="none"/>
    <path d="M 825.00,875.000000L 825.00,1000.000000" stroke="black" stroke-width="1" fill="none"/>
    <path d="M 2925.00,2250.000000L 2850.00,2250.000000" stroke="black" stroke-width="1" fill="none"/>
    <path d="M 3175.00,2050.000000L 3100.00,2050.000000" stroke="black" stroke-width="1" fill="none"/>
    <path d="M 1125.00,1700.000000L 1225.00,1700.000000" stroke="black" stroke-width="1" fill="none"/>
    <path d="M 3325.00,75.000000L 2325.00,75.000000" stroke="black" stroke-width="1" fill="none"/>
    <path d="M 525.00,2250.000000 H 465.56 a 10.00,10.00 0 0,1 -10.00,-10.00L 455.56,2100.000000" stroke="black" stroke-width="1" fill="none"/>
    <path d="M 100.00,2100.000000L 450.00,2100.000000" stroke="black" stroke-width="1" fill="none"/>
    <path d="M 3175.00,2500.000000L 3175.00,2575.000000" stroke="black" stroke-width="1" fill="none"/>
    <path d="M 3091.67,2050.000000 V 2115.00 a 10.00,10.00 0 0,1 -10.00,10.00L 2425.00,2125.000000" stroke="black" stroke-width="1" fill="none"/>
    <path d="M 725.00,300.000000 H 806.67 a 10.00,10.00 0 0,1 10.00,10.00L 816.67,375.000000" stroke="black" stroke-width="1" fill="none"/>
    <path d="M 1025.00,1700.000000L 850.00,1700.000000" stroke="black" stroke-width="1" fill="none"/>
    <path d="M 2025.00,2450.000000L 2025.00,2375.000000" stroke="black" stroke-width="1" fill="none"/>
    <path d="M 925.00,125.000000L 1775.00,125.000000" stroke="black" stroke-width="1" fill="none"/>
    <path d="M 850.00,1625.000000L 850.00,1700.000000" stroke="black" stroke-width="1" fill="none"/>
    <path d="M 775.00,2375.000000L 700.00,2375.000000" stroke="black" stroke-width="1" fill="none"/>
    <path d="M 1325.00,1200.000000L 1325.00,1075.000000" stroke="black" stroke-width="1" fill="none"/>
    <path d="M 450.00,2100.000000L 450.00,2375.000000" stroke="black" stroke-width="1" fill="none"/>
    <path d="M 825.00,575.000000L 825.00,650.000000" stroke="black" stroke-width="1" fill="none"/>
    <path d="M 1325.00,1200.000000 H 1381.67 a 10.00,10.00 0 0,1 10.00,10.00L 1391.67,1275.000000" stroke="black" stroke-width="1" fill="none"/>
    <path d="M 1325.00,1400.000000L 1325.00,1575.000000" stroke="black" stroke-width="1" fill="none"/>
    <path d="M 2025.00,2250.000000L 2025.00,2375.000000" stroke="black" stroke-width="1" fill="none"/>
    <path d="M 350.00,2425.000000 H 431.67 a 10.00,10.00 0 0,1 10.00,10.00L 441.67,2500.000000" stroke="black" stroke-width="1" fill="none"/>
    <path d="M 100.00,2375.000000L 100.00,2100.000000" stroke="black" stroke-width="1" fill="none"/>
    <path d="M 2850.00,2250.000000L 2500.00,2250.000000" stroke="black" stroke-width="1" fill="none"/>
    <path d="M 2925.00,2375.000000 H 3085.83 a 10.00,10.00 0 0,0 10.00,-10.00L 3095.83,2050.000000" stroke="black" stroke-width="1" fill="none"/>
    <path d="M 3325.00,2616.666667 H 2335.00 a 10.00,10.00 0 0,1 -10.00,-10.00L 2325.00,2500.000000" stroke="black" stroke-width="1" fill="none"/>
    <path d="M 1025.00,1575.000000L 750.00,1575.000000" stroke="black" stroke-width="1" fill="none"/>
    <path d="M 1150.00,575.000000L 1050.00,575.000000" stroke="black" stroke-width="1" fill="none"/>
    <path d="M 525.00,2325.000000 H 462.78 a 10.00,10.00 0 0,1 -10.00,-10.00L 452.78,2100.000000" stroke="black" stroke-width="1" fill="none"/>
    <path d="M 850.00,1700.000000L 850.00,2375.000000" stroke="black" stroke-width="1" fill="none"/>
    <path d="M 825.00,650.000000L 825.00,725.000000" stroke="black" stroke-width="1" fill="none"/>
    <path d="M 3175.00,2575.000000L 3100.00,2575.000000" stroke="black" stroke-width="1" fill="none"/>
    <path d="M 2175.00,2100.000000L 2025.00,2100.000000" stroke="black" stroke-width="1" fill="none"/>
    <path d="M 1225.00,1125.000000L 1225.00,1200.000000" stroke="black" stroke-width="1" fill="none"/>
    <path d="M 1500.00,1000.000000L 1425.00,1000.000000" stroke="black" stroke-width="1" fill="none"/>
    <path d="M 725.00,925.000000 H 806.67 a 10.00,10.00 0 0,1 10.00,10.00L 816.67,1000.000000" stroke="black" stroke-width="1" fill="none"/>
    <path d="M 1850.00,2100.000000L 2025.00,2100.000000" stroke="black" stroke-width="1" fill="none"/>
    <path d="M 2175.00,2250.000000L 2250.00,2250.000000" stroke="black" stroke-width="1" fill="none"/>
    <path d="M 2650.00,2375.000000 V 2415.00 a 10.00,10.00 0 0,0 10.00,10.00L 2800.00,2425.000000" stroke="black" stroke-width="1" fill="none"/>
    <path d="M 450.00,2100.000000L 525.00,2100.000000" stroke="black" stroke-width="1" fill="none"/>
    <path d="M 1950.00,1700.000000L 1850.00,1700.000000" stroke="black" stroke-width="1" fill="none"/>
    <path d="M 450.00,1825.000000L 300.00,1825.000000" stroke="black" stroke-width="1" fill="none"/>
    <path d="M 1400.00,1275.000000L 1400.00,1150.000000" stroke="black" stroke-width="1" fill="none"/>
    <path d="M 2325.00,75.000000L 850.00,75.000000" stroke="black" stroke-width="1" fill="none"/>
    <rect x="2785.0" y="2560.0" width="30.0" height="30.0" stroke="black" stroke-width="1" id="0" onclick="ow3.nodeClick(this)" fill="#f0f0d2"/>

    <rect x="710.0" y="285.0" width="30.0" height="30.0" stroke="black" stroke-width="1" id="1" onclick="ow3.nodeClick(this)" fill="#f0f0d2"/>

    <rect x="1385.0" y="1335.0" width="30.0" height="30.0" stroke="black" stroke-width="1" id="2" onclick="ow3.nodeClick(this)" fill="#f0f0d2"/>

    <rect x="835.0" y="60.0" width="30.0" height="30.0" stroke="black" stroke-width="1" id="3" onclick="ow3.nodeClick(this)" fill="#f0f0d2"/>

    <rect x="85.0" y="2435.0" width="30.0" height="30.0" stroke="black" stroke-width="1" id="4" onclick="ow3.nodeClick(this)" fill="#f0f0d2"/>

    <rect x="2010.0" y="2010.0" width="30.0" height="30.0" stroke="black" stroke-width="1" id="5" onclick="ow3.nodeClick(this)" fill="#f0f0d2"/>

    <rect x="2235.0" y="2610.0" width="30.0" height="30.0" stroke="black" stroke-width="1" id="6" onclick="ow3.nodeClick(this)" fill="#f0f0d2"/>

    <rect x="510.0" y="2310.0" width="30.0" height="30.0" stroke="black" stroke-width="1" id="7" onclick="ow3.nodeClick(this)" fill="#f0f0d2"/>

    <rect x="210.0" y="1685.0" width="30.0" height="30.0" stroke="black" stroke-width="1" id="8" onclick="ow3.nodeClick(this)" fill="#f0f0d2"/>

    <rect x="2935.0" y="2485.0" width="30.0" height="30.0" stroke="black" stroke-width="1" id="9" onclick="ow3.nodeClick(this)" fill="#f0f0d2"/>

    <rect x="710.0" y="360.0" width="30.0" height="30.0" stroke="black" stroke-width="1" id="10" onclick="ow3.nodeClick(this)" fill="#f0f0d2"/>

    <rect x="1385.0" y="1135.0" width="30.0" height="30.0" stroke="black" stroke-width="1" id="11" onclick="ow3.nodeClick(this)" fill="#f0f0d2"/>

    <rect x="2310.0" y="-15.0" width="30.0" height="30.0" stroke="black" stroke-width="1" id="12" onclick="ow3.nodeClick(this)" fill="#f0f0d2"/>

    <rect x="10.0" y="2360.0" width="30.0" height="30.0" stroke="black" stroke-width="1" id="13" onclick="ow3.nodeClick(this)" fill="#f0f0d2"/>

    <rect x="2085.0" y="2010.0" width="30.0" height="30.0" stroke="black" stroke-width="1" id="14" onclick="ow3.nodeClick(this)" fill="#f0f0d2"/>

    <rect x="935.0" y="1610.0" width="30.0" height="30.0" stroke="black" stroke-width="1" id="15" onclick="ow3.nodeClick(this)" fill="#f0f0d2"/>

    <rect x="1035.0" y="310.0" width="30.0" height="30.0" stroke="black" stroke-width="1" id="16" onclick="ow3.nodeClick(this)" fill="#f0f0d2"/>

    <rect x="1935.0" y="1760.0" width="30.0" height="30.0" stroke="black" stroke-width="1" id="17" onclick="ow3.nodeClick(this)" fill="#f0f0d2"/>

    <rect x="2560.0" y="2360.0" width="30.0" height="30.0" stroke="black" stroke-width="1" id="18" onclick="ow3.nodeClick(this)" fill="#f0f0d2"/>

    <rect x="2285.0" y="2685.0" width="30.0" height="30.0" stroke="black" stroke-width="1" id="19" onclick="ow3.nodeClick(this)" fill="#f0f0d2"/>

    <rect x="435.0" y="2560.0" width="30.0" height="30.0" stroke="black" stroke-width="1" id="20" onclick="ow3.nodeClick(this)" fill="#f0f0d2"/>

    <rect x="1135.0" y="1185.0" width="30.0" height="30.0" stroke="black" stroke-width="1" id="21" onclick="ow3.nodeClick(this)" fill="#f0f0d2"/>

    <rect x="510.0" y="2235.0" width="30.0" height="30.0" stroke="black" stroke-width="1" id="22" onclick="ow3.nodeClick(this)" fill="#f0f0d2"/>

    <rect x="810.0" y="1060.0" width="30.0" height="30.0" stroke="black" stroke-width="1" id="23" onclick="ow3.nodeClick(this)" fill="#f0f0d2"/>

    <rect x="885.0" y="985.0" width="30.0" height="30.0" stroke="black" stroke-width="1" id="24" onclick="ow3.nodeClick(this)" fill="#f0f0d2"/>

    <rect x="1910.0" y="2435.0" width="30.0" height="30.0" stroke="black" stroke-width="1" id="25" onclick="ow3.nodeClick(this)" fill="#f0f0d2"/>

    <rect x="1585.0" y="1510.0" width="30.0" height="30.0" stroke="black" stroke-width="1" id="26" onclick="ow3.nodeClick(this)" fill="#f0f0d2"/>

    <rect x="1110.0" y="1610.0" width="30.0" height="30.0" stroke="black" stroke-width="1" id="27" onclick="ow3.nodeClick(this)" fill="#f0f0d2"/>

    <rect x="1035.0" y="635.0" width="30.0" height="30.0" stroke="black" stroke-width="1" id="28" onclick="ow3.nodeClick(this)" fill="#f0f0d2"/>

    <rect x="3310.0" y="2510.0" width="30.0" height="30.0" stroke="black" stroke-width="1" id="29" onclick="ow3.nodeClick(this)" fill="#f0f0d2"/>

    <rect x="435.0" y="2010.0" width="30.0" height="30.0" stroke="black" stroke-width="1" id="30" onclick="ow3.nodeClick(this)" fill="#f0f0d2"/>

    <rect x="1685.0" y="1385.0" width="30.0" height="30.0" stroke="black" stroke-width="1" id="31" onclick="ow3.nodeClick(this)" fill="#f0f0d2"/>

    <rect x="3160.0" y="2035.0" width="30.0" height="30.0" stroke="black" stroke-width="1" id="32" onclick="ow3.nodeClick(this)" fill="#f0f0d2"/>

    <rect x="2485.0" y="2160.0" width="30.0" height="30.0" stroke="black" stroke-width="1" id="33" onclick="ow3.nodeClick(this)" fill="#f0f0d2"/>

    <rect x="1935.0" y="1835.0" width="30.0" height="30.0" stroke="black" stroke-width="1" id="34" onclick="ow3.nodeClick(this)" fill="#f0f0d2"/>

    <rect x="2410.0" y="2110.0" width="30.0" height="30.0" stroke="black" stroke-width="1" id="35" onclick="ow3.nodeClick(this)" fill="#f0f0d2"/>

    <rect x="2485.0" y="2310.0" width="30.0" height="30.0" stroke="black" stroke-width="1" id="36" onclick="ow3.nodeClick(this)" fill="#f0f0d2"/>

    <rect x="1835.0" y="1610.0" width="30.0" height="30.0" stroke="black" stroke-width="1" id="37" onclick="ow3.nodeClick(this)" fill="#f0f0d2"/>

    <rect x="2160.0" y="2235.0" width="30.0" height="30.0" stroke="black" stroke-width="1" id="38" onclick="ow3.nodeClick(this)" fill="#f0f0d2"/>

    <rect x="3085.0" y="2560.0" width="30.0" height="30.0" stroke="black" stroke-width="1" id="39" onclick="ow3.nodeClick(this)" fill="#f0f0d2"/>

    <rect x="1610.0" y="2235.0" width="30.0" height="30.0" stroke="black" stroke-width="1" id="40" onclick="ow3.nodeClick(this)" fill="#f0f0d2"/>

    <rect x="435.0" y="1810.0" width="30.0" height="30.0" stroke="black" stroke-width="1" id="41" onclick="ow3.nodeClick(this)" fill="#f0f0d2"/>

    <rect x="1010.0" y="1435.0" width="30.0" height="30.0" stroke="black" stroke-width="1" id="42" onclick="ow3.nodeClick(this)" fill="#f0f0d2"/>

    <rect x="1760.0" y="2310.0" width="30.0" height="30.0" stroke="black" stroke-width="1" id="43" onclick="ow3.nodeClick(this)" fill="#f0f0d2"/>

    <rect x="35.0" y="1810.0" width="30.0" height="30.0" stroke="black" stroke-width="1" id="44" onclick="ow3.nodeClick(this)" fill="#f0f0d2"/>

    <rect x="735.0" y="1560.0" width="30.0" height="30.0" stroke="black" stroke-width="1" id="45" onclick="ow3.nodeClick(this)" fill="#f0f0d2"/>

    <rect x="2910.0" y="2160.0" width="30.0" height="30.0" stroke="black" stroke-width="1" id="46" onclick="ow3.nodeClick(this)" fill="#f0f0d2"/>

    <rect x="2835.0" y="2235.0" width="30.0" height="30.0" stroke="black" stroke-width="1" id="47" onclick="ow3.nodeClick(this)" fill="#f0f0d2"/>

    <rect x="285.0" y="1885.0" width="30.0" height="30.0" stroke="black" stroke-width="1" id="48" onclick="ow3.nodeClick(this)" fill="#f0f0d2"/>

    <rect x="285.0" y="2035.0" width="30.0" height="30.0" stroke="black" stroke-width="1" id="49" onclick="ow3.nodeClick(this)" fill="#f0f0d2"/>

    <rect x="2410.0" y="2035.0" width="30.0" height="30.0" stroke="black" stroke-width="1" id="50" onclick="ow3.nodeClick(this)" fill="#f0f0d2"/>

    <rect x="2860.0" y="2435.0" width="30.0" height="30.0" stroke="black" stroke-width="1" id="51" onclick="ow3.nodeClick(this)" fill="#f0f0d2"/>

    <rect x="285.0" y="1735.0" width="30.0" height="30.0" stroke="black" stroke-width="1" id="52" onclick="ow3.nodeClick(this)" fill="#f0f0d2"/>

    <rect x="2710.0" y="2360.0" width="30.0" height="30.0" stroke="black" stroke-width="1" id="53" onclick="ow3.nodeClick(this)" fill="#f0f0d2"/>

    <rect x="135.0" y="1960.0" width="30.0" height="30.0" stroke="black" stroke-width="1" id="54" onclick="ow3.nodeClick(this)" fill="#f0f0d2"/>

    <rect x="3385.0" y="2610.0" width="30.0" height="30.0" stroke="black" stroke-width="1" id="55" onclick="ow3.nodeClick(this)" fill="#f0f0d2"/>

    <rect x="510.0" y="2085.0" width="30.0" height="30.0" stroke="black" stroke-width="1" id="56" onclick="ow3.nodeClick(this)" fill="#f0f0d2"/>

    <rect x="1835.0" y="1685.0" width="30.0" height="30.0" stroke="black" stroke-width="1" id="57" onclick="ow3.nodeClick(this)" fill="#f0f0d2"/>

    <rect x="1760.0" y="2235.0" width="30.0" height="30.0" stroke="black" stroke-width="1" id="58" onclick="ow3.nodeClick(this)" fill="#f0f0d2"/>

    <rect x="1035.0" y="560.0" width="30.0" height="30.0" stroke="black" stroke-width="1" id="59" onclick="ow3.nodeClick(this)" fill="#f0f0d2"/>

    <rect x="435.0" y="2485.0" width="30.0" height="30.0" stroke="black" stroke-width="1" id="60" onclick="ow3.nodeClick(this)" fill="#f0f0d2"/>

    <rect x="960.0" y="985.0" width="30.0" height="30.0" stroke="black" stroke-width="1" id="61" onclick="ow3.nodeClick(this)" fill="#f0f0d2"/>

    <rect x="1385.0" y="1260.0" width="30.0" height="30.0" stroke="black" stroke-width="1" id="62" onclick="ow3.nodeClick(this)" fill="#f0f0d2"/>

    <rect x="1210.0" y="1385.0" width="30.0" height="30.0" stroke="black" stroke-width="1" id="63" onclick="ow3.nodeClick(this)" fill="#f0f0d2"/>

    <rect x="810.0" y="785.0" width="30.0" height="30.0" stroke="black" stroke-width="1" id="64" onclick="ow3.nodeClick(this)" fill="#f0f0d2"/>

    <rect x="810.0" y="635.0" width="30.0" height="30.0" stroke="black" stroke-width="1" id="65" onclick="ow3.nodeClick(this)" fill="#f0f0d2"/>

    <rect x="1310.0" y="1060.0" width="30.0" height="30.0" stroke="black" stroke-width="1" id="66" onclick="ow3.nodeClick(this)" fill="#f0f0d2"/>

    <rect x="2010.0" y="2085.0" width="30.0" height="30.0" stroke="black" stroke-width="1" id="67" onclick="ow3.nodeClick(this)" fill="#f0f0d2"/>

    <rect x="835.0" y="1685.0" width="30.0" height="30.0" stroke="black" stroke-width="1" id="68" onclick="ow3.nodeClick(this)" fill="#f0f0d2"/>

    <rect x="2085.0" y="2235.0" width="30.0" height="30.0" stroke="black" stroke-width="1" id="69" onclick="ow3.nodeClick(this)" fill="#f0f0d2"/>

    <rect x="760.0" y="2360.0" width="30.0" height="30.0" stroke="black" stroke-width="1" id="70" onclick="ow3.nodeClick(this)" fill="#f0f0d2"/>

    <rect x="2235.0" y="2235.0" width="30.0" height="30.0" stroke="black" stroke-width="1" id="71" onclick="ow3.nodeClick(this)" fill="#f0f0d2"/>

    <rect x="610.0" y="2360.0" width="30.0" height="30.0" stroke="black" stroke-width="1" id="72" onclick="ow3.nodeClick(this)" fill="#f0f0d2"/>

    <rect x="2310.0" y="60.0" width="30.0" height="30.0" stroke="black" stroke-width="1" id="73" onclick="ow3.nodeClick(this)" fill="#f0f0d2"/>

    <rect x="85.0" y="2360.0" width="30.0" height="30.0" stroke="black" stroke-width="1" id="74" onclick="ow3.nodeClick(this)" fill="#f0f0d2"/>

    <rect x="1760.0" y="110.0" width="30.0" height="30.0" stroke="black" stroke-width="1" id="75" onclick="ow3.nodeClick(this)" fill="#f0f0d2"/>

    <rect x="1310.0" y="1560.0" width="30.0" height="30.0" stroke="black" stroke-width="1" id="76" onclick="ow3.nodeClick(this)" fill="#f0f0d2"/>

    <rect x="2485.0" y="2235.0" width="30.0" height="30.0" stroke="black" stroke-width="1" id="77" onclick="ow3.nodeClick(this)" fill="#f0f0d2"/>

    <rect x="2635.0" y="2360.0" width="30.0" height="30.0" stroke="black" stroke-width="1" id="78" onclick="ow3.nodeClick(this)" fill="#f0f0d2"/>

    <rect x="3085.0" y="2035.0" width="30.0" height="30.0" stroke="black" stroke-width="1" id="79" onclick="ow3.nodeClick(this)" fill="#f0f0d2"/>

    <rect x="285.0" y="1810.0" width="30.0" height="30.0" stroke="black" stroke-width="1" id="80" onclick="ow3.nodeClick(this)" fill="#f0f0d2"/>

    <rect x="2785.0" y="2485.0" width="30.0" height="30.0" stroke="black" stroke-width="1" id="81" onclick="ow3.nodeClick(this)" fill="#f0f0d2"/>

    <rect x="810.0" y="985.0" width="30.0" height="30.0" stroke="black" stroke-width="1" id="82" onclick="ow3.nodeClick(this)" fill="#f0f0d2"/>

    <rect x="285.0" y="1960.0" width="30.0" height="30.0" stroke="black" stroke-width="1" id="83" onclick="ow3.nodeClick(this)" fill="#f0f0d2"/>

    <rect x="3160.0" y="2560.0" width="30.0" height="30.0" stroke="black" stroke-width="1" id="84" onclick="ow3.nodeClick(this)" fill="#f0f0d2"/>

    <rect x="2910.0" y="2235.0" width="30.0" height="30.0" stroke="black" stroke-width="1" id="85" onclick="ow3.nodeClick(this)" fill="#f0f0d2"/>

    <rect x="3310.0" y="2610.0" width="30.0" height="30.0" stroke="black" stroke-width="1" id="86" onclick="ow3.nodeClick(this)" fill="#f0f0d2"/>

    <rect x="435.0" y="2085.0" width="30.0" height="30.0" stroke="black" stroke-width="1" id="87" onclick="ow3.nodeClick(this)" fill="#f0f0d2"/>

    <rect x="1210.0" y="1185.0" width="30.0" height="30.0" stroke="black" stroke-width="1" id="88" onclick="ow3.nodeClick(this)" fill="#f0f0d2"/>

    <rect x="1585.0" y="1385.0" width="30.0" height="30.0" stroke="black" stroke-width="1" id="89" onclick="ow3.nodeClick(this)" fill="#f0f0d2"/>

    <rect x="1210.0" y="1685.0" width="30.0" height="30.0" stroke="black" stroke-width="1" id="90" onclick="ow3.nodeClick(this)" fill="#f0f0d2"/>

    <rect x="2010.0" y="2360.0" width="30.0" height="30.0" stroke="black" stroke-width="1" id="91" onclick="ow3.nodeClick(this)" fill="#f0f0d2"/>

    <rect x="810.0" y="360.0" width="30.0" height="30.0" stroke="black" stroke-width="1" id="92" onclick="ow3.nodeClick(this)" fill="#f0f0d2"/>

    <rect x="1410.0" y="660.0" width="30.0" height="30.0" stroke="black" stroke-width="1" id="93" onclick="ow3.nodeClick(this)" fill="#f0f0d2"/>

    <rect x="1410.0" y="985.0" width="30.0" height="30.0" stroke="black" stroke-width="1" id="94" onclick="ow3.nodeClick(this)" fill="#f0f0d2"/>

    <rect x="1085.0" y="1435.0" width="30.0" height="30.0" stroke="black" stroke-width="1" id="95" onclick="ow3.nodeClick(this)" fill="#f0f0d2"/>

    <rect x="1010.0" y="1560.0" width="30.0" height="30.0" stroke="black" stroke-width="1" id="96" onclick="ow3.nodeClick(this)" fill="#f0f0d2"/>

    <rect x="985.0" y="435.0" width="30.0" height="30.0" stroke="black" stroke-width="1" id="97" onclick="ow3.nodeClick(this)" fill="#f0f0d2"/>

    <rect x="910.0" y="435.0" width="30.0" height="30.0" stroke="black" stroke-width="1" id="98" onclick="ow3.nodeClick(this)" fill="#f0f0d2"/>

    <rect x="810.0" y="560.0" width="30.0" height="30.0" stroke="black" stroke-width="1" id="99" onclick="ow3.nodeClick(this)" fill="#f0f0d2"/>

    <rect x="910.0" y="360.0" width="30.0" height="30.0" stroke="black" stroke-width="1" id="100" onclick="ow3.nodeClick(this)" fill="#f0f0d2"/>

    <rect x="810.0" y="860.0" width="30.0" height="30.0" stroke="black" stroke-width="1" id="101" onclick="ow3.nodeClick(this)" fill="#f0f0d2"/>

    <rect x="1760.0" y="1685.0" width="30.0" height="30.0" stroke="black" stroke-width="1" id="102" onclick="ow3.nodeClick(this)" fill="#f0f0d2"/>

    <rect x="1835.0" y="2085.0" width="30.0" height="30.0" stroke="black" stroke-width="1" id="103" onclick="ow3.nodeClick(this)" fill="#f0f0d2"/>

    <rect x="910.0" y="185.0" width="30.0" height="30.0" stroke="black" stroke-width="1" id="104" onclick="ow3.nodeClick(this)" fill="#f0f0d2"/>

    <rect x="910.0" y="110.0" width="30.0" height="30.0" stroke="black" stroke-width="1" id="105" onclick="ow3.nodeClick(this)" fill="#f0f0d2"/>

    <rect x="2010.0" y="2235.0" width="30.0" height="30.0" stroke="black" stroke-width="1" id="106" onclick="ow3.nodeClick(this)" fill="#f0f0d2"/>

    <rect x="2785.0" y="2410.0" width="30.0" height="30.0" stroke="black" stroke-width="1" id="107" onclick="ow3.nodeClick(this)" fill="#f0f0d2"/>

    <rect x="3235.0" y="2560.0" width="30.0" height="30.0" stroke="black" stroke-width="1" id="108" onclick="ow3.nodeClick(this)" fill="#f0f0d2"/>

    <rect x="2310.0" y="2485.0" width="30.0" height="30.0" stroke="black" stroke-width="1" id="109" onclick="ow3.nodeClick(this)" fill="#f0f0d2"/>

    <rect x="2910.0" y="2360.0" width="30.0" height="30.0" stroke="black" stroke-width="1" id="110" onclick="ow3.nodeClick(this)" fill="#f0f0d2"/>

    <rect x="1310.0" y="985.0" width="30.0" height="30.0" stroke="black" stroke-width="1" id="111" onclick="ow3.nodeClick(this)" fill="#f0f0d2"/>

    <rect x="1310.0" y="1185.0" width="30.0" height="30.0" stroke="black" stroke-width="1" id="112" onclick="ow3.nodeClick(this)" fill="#f0f0d2"/>

    <rect x="1210.0" y="1260.0" width="30.0" height="30.0" stroke="black" stroke-width="1" id="113" onclick="ow3.nodeClick(this)" fill="#f0f0d2"/>

    <rect x="1310.0" y="1385.0" width="30.0" height="30.0" stroke="black" stroke-width="1" id="114" onclick="ow3.nodeClick(this)" fill="#f0f0d2"/>

    <rect x="1210.0" y="1560.0" width="30.0" height="30.0" stroke="black" stroke-width="1" id="115" onclick="ow3.nodeClick(this)" fill="#f0f0d2"/>

    <rect x="1010.0" y="1685.0" width="30.0" height="30.0" stroke="black" stroke-width="1" id="116" onclick="ow3.nodeClick(this)" fill="#f0f0d2"/>

    <rect x="685.0" y="2360.0" width="30.0" height="30.0" stroke="black" stroke-width="1" id="117" onclick="ow3.nodeClick(this)" fill="#f0f0d2"/>

    <rect x="435.0" y="2360.0" width="30.0" height="30.0" stroke="black" stroke-width="1" id="118" onclick="ow3.nodeClick(this)" fill="#f0f0d2"/>

    <rect x="835.0" y="2360.0" width="30.0" height="30.0" stroke="black" stroke-width="1" id="119" onclick="ow3.nodeClick(this)" fill="#f0f0d2"/>

    <rect x="85.0" y="2085.0" width="30.0" height="30.0" stroke="black" stroke-width="1" id="120" onclick="ow3.nodeClick(this)" fill="#f0f0d2"/>

    <rect x="710.0" y="985.0" width="30.0" height="30.0" stroke="black" stroke-width="1" id="121" onclick="ow3.nodeClick(this)" fill="#f0f0d2"/>

    <rect x="810.0" y="710.0" width="30.0" height="30.0" stroke="black" stroke-width="1" id="122" onclick="ow3.nodeClick(this)" fill="#f0f0d2"/>

    <rect x="1485.0" y="985.0" width="30.0" height="30.0" stroke="black" stroke-width="1" id="123" onclick="ow3.nodeClick(this)" fill="#f0f0d2"/>

    <rect x="1210.0" y="1760.0" width="30.0" height="30.0" stroke="black" stroke-width="1" id="124" onclick="ow3.nodeClick(this)" fill="#f0f0d2"/>

    <rect x="335.0" y="2485.0" width="30.0" height="30.0" stroke="black" stroke-width="1" id="125" onclick="ow3.nodeClick(this)" fill="#f0f0d2"/>

    <rect x="2085.0" y="2360.0" width="30.0" height="30.0" stroke="black" stroke-width="1" id="126" onclick="ow3.nodeClick(this)" fill="#f0f0d2"/>

    <rect x="3010.0" y="2235.0" width="30.0" height="30.0" stroke="black" stroke-width="1" id="127" onclick="ow3.nodeClick(this)" fill="#f0f0d2"/>

    <rect x="1585.0" y="1310.0" width="30.0" height="30.0" stroke="black" stroke-width="1" id="128" onclick="ow3.nodeClick(this)" fill="#f0f0d2"/>

    <rect x="360.0" y="1960.0" width="30.0" height="30.0" stroke="black" stroke-width="1" id="129" onclick="ow3.nodeClick(this)" fill="#f0f0d2"/>

    <rect x="1923.0" y="1685.0" width="54.0" height="30.0" stroke="black" stroke-width="1" id="130" onclick="ow3.nodeClick(this)" fill="#f0f0d2"/>

    <rect x="1648.0" y="2310.0" width="54.0" height="30.0" stroke="black" stroke-width="1" id="131" onclick="ow3.nodeClick(this)" fill="#f0f0d2"/>

    <rect x="1123.0" y="560.0" width="54.0" height="30.0" stroke="black" stroke-width="1" id="132" onclick="ow3.nodeClick(this)" fill="#f0f0d2"/>

    <rect x="323.0" y="2410.0" width="54.0" height="30.0" stroke="black" stroke-width="1" id="133" onclick="ow3.nodeClick(this)" fill="#f0f0d2"/>

    <rect x="948.0" y="1060.0" width="54.0" height="30.0" stroke="black" stroke-width="1" id="134" onclick="ow3.nodeClick(this)" fill="#f0f0d2"/>

    <rect x="1473.0" y="1260.0" width="54.0" height="30.0" stroke="black" stroke-width="1" id="135" onclick="ow3.nodeClick(this)" fill="#f0f0d2"/>

    <rect x="898.0" y="1385.0" width="54.0" height="30.0" stroke="black" stroke-width="1" id="136" onclick="ow3.nodeClick(this)" fill="#f0f0d2"/>

    <rect x="698.0" y="785.0" width="54.0" height="30.0" stroke="black" stroke-width="1" id="137" onclick="ow3.nodeClick(this)" fill="#f0f0d2"/>

    <rect x="698.0" y="635.0" width="54.0" height="30.0" stroke="black" stroke-width="1" id="138" onclick="ow3.nodeClick(this)" fill="#f0f0d2"/>

    <rect x="1073.0" y="1060.0" width="54.0" height="30.0" stroke="black" stroke-width="1" id="139" onclick="ow3.nodeClick(this)" fill="#f0f0d2"/>

    <rect x="2148.0" y="2085.0" width="54.0" height="30.0" stroke="black" stroke-width="1" id="140" onclick="ow3.nodeClick(this)" fill="#f0f0d2"/>

    <rect x="823.0" y="1610.0" width="54.0" height="30.0" stroke="black" stroke-width="1" id="141" onclick="ow3.nodeClick(this)" fill="#f0f0d2"/>

    <rect x="2073.0" y="2160.0" width="54.0" height="30.0" stroke="black" stroke-width="1" id="142" onclick="ow3.nodeClick(this)" fill="#f0f0d2"/>

    <rect x="748.0" y="2285.0" width="54.0" height="30.0" stroke="black" stroke-width="1" id="143" onclick="ow3.nodeClick(this)" fill="#f0f0d2"/>

    <rect x="2223.0" y="2160.0" width="54.0" height="30.0" stroke="black" stroke-width="1" id="144" onclick="ow3.nodeClick(this)" fill="#f0f0d2"/>

    <rect x="598.0" y="2285.0" width="54.0" height="30.0" stroke="black" stroke-width="1" id="145" onclick="ow3.nodeClick(this)" fill="#f0f0d2"/>

    <rect x="3298.0" y="60.0" width="54.0" height="30.0" stroke="black" stroke-width="1" id="146" onclick="ow3.nodeClick(this)" fill="#f0f0d2"/>

    <rect x="-2.0" y="2285.0" width="54.0" height="30.0" stroke="black" stroke-width="1" id="147" onclick="ow3.nodeClick(this)" fill="#f0f0d2"/>

    <rect x="1848.0" y="110.0" width="54.0" height="30.0" stroke="black" stroke-width="1" id="148" onclick="ow3.nodeClick(this)" fill="#f0f0d2"/>

    <rect x="1298.0" y="1635.0" width="54.0" height="30.0" stroke="black" stroke-width="1" id="149" onclick="ow3.nodeClick(this)" fill="#f0f0d2"/>

    <rect x="2373.0" y="2235.0" width="54.0" height="30.0" stroke="black" stroke-width="1" id="150" onclick="ow3.nodeClick(this)" fill="#f0f0d2"/>

    <rect x="2623.0" y="2285.0" width="54.0" height="30.0" stroke="black" stroke-width="1" id="151" onclick="ow3.nodeClick(this)" fill="#f0f0d2"/>

    <rect x="3073.0" y="1960.0" width="54.0" height="30.0" stroke="black" stroke-width="1" id="152" onclick="ow3.nodeClick(this)" fill="#f0f0d2"/>

    <rect x="373.0" y="1735.0" width="54.0" height="30.0" stroke="black" stroke-width="1" id="153" onclick="ow3.nodeClick(this)" fill="#f0f0d2"/>

    <rect x="2873.0" y="2560.0" width="54.0" height="30.0" stroke="black" stroke-width="1" id="154" onclick="ow3.nodeClick(this)" fill="#f0f0d2"/>

    <rect x="698.0" y="910.0" width="54.0" height="30.0" stroke="black" stroke-width="1" id="155" onclick="ow3.nodeClick(this)" fill="#f0f0d2"/>

    <rect x="173.0" y="2035.0" width="54.0" height="30.0" stroke="black" stroke-width="1" id="156" onclick="ow3.nodeClick(this)" fill="#f0f0d2"/>

    <rect x="3148.0" y="2485.0" width="54.0" height="30.0" stroke="black" stroke-width="1" id="157" onclick="ow3.nodeClick(this)" fill="#f0f0d2"/>

    <rect x="2998.0" y="2310.0" width="54.0" height="30.0" stroke="black" stroke-width="1" id="158" onclick="ow3.nodeClick(this)" fill="#f0f0d2"/>

    <rect x="3298.0" y="2685.0" width="54.0" height="30.0" stroke="black" stroke-width="1" id="159" onclick="ow3.nodeClick(this)" fill="#f0f0d2"/>

    <rect x="498.0" y="2160.0" width="54.0" height="30.0" stroke="black" stroke-width="1" id="160" onclick="ow3.nodeClick(this)" fill="#f0f0d2"/>

    <rect x="1198.0" y="1110.0" width="54.0" height="30.0" stroke="black" stroke-width="1" id="161" onclick="ow3.nodeClick(this)" fill="#f0f0d2"/>

    <rect x="1673.0" y="1460.0" width="54.0" height="30.0" stroke="black" stroke-width="1" id="162" onclick="ow3.nodeClick(this)" fill="#f0f0d2"/>

    <rect x="1098.0" y="1685.0" width="54.0" height="30.0" stroke="black" stroke-width="1" id="163" onclick="ow3.nodeClick(this)" fill="#f0f0d2"/>

    <rect x="1998.0" y="2435.0" width="54.0" height="30.0" stroke="black" stroke-width="1" id="164" onclick="ow3.nodeClick(this)" fill="#f0f0d2"/>

    <rect x="798.0" y="235.0" width="54.0" height="30.0" stroke="black" stroke-width="1" id="165" onclick="ow3.nodeClick(this)" fill="#f0f0d2"/>

    <rect x="1398.0" y="1060.0" width="54.0" height="30.0" stroke="black" stroke-width="1" id="166" onclick="ow3.nodeClick(this)" fill="#f0f0d2"/>

    <rect x="723.0" y="1485.0" width="54.0" height="30.0" stroke="black" stroke-width="1" id="167" onclick="ow3.nodeClick(this)" fill="#f0f0d2"/>

    <rect x="898.0" y="510.0" width="54.0" height="30.0" stroke="black" stroke-width="1" id="168" onclick="ow3.nodeClick(this)" fill="#f0f0d2"/>

    <rect x="673.0" y="185.0" width="54.0" height="30.0" stroke="black" stroke-width="1" id="169" onclick="ow3.nodeClick(this)" fill="#f0f0d2"/>

</g>
</g>
</svg>
