<?xml version="1.0" encoding="UTF-8"?>
<svg id="canvasSVG" xmlns="http://www.w3.org/2000/svg" width="480px" height="270px">
<rect x="0" y="0" width="480" height="270" stroke="none" stroke-width="1" id="" onclick="null" fill="#bdbddf"/>
<g id="outerGroup">
<g transform="translate(149.79,20.00),scale(0.05),translate(15.00,15.00)">
    <path d="M 1725.00,4000.000000L 1725.00,4075.000000" stroke="black" stroke-width="1" fill="none"/>
    <path d="M 3500.00,3675.000000L 3500.00,3600.000000" stroke="black" stroke-width="1" fill="none"/>
    <path d="M 1575.00,4075.000000L 1575.00,4000.000000" stroke="black" stroke-width="1" fill="none"/>
    <path d="M 750.00,4725.000000L 750.00,4650.000000" stroke="black" stroke-width="1" fill="none"/>
    <path d="M 2000.00,1200.000000L 3050.00,1200.000000" stroke="black" stroke-width="1" fill="none"/>
    <path d="M 2075.00,1725.000000L 2375.00,1725.000000" stroke="black" stroke-width="1" fill="none"/>
    <path d="M 2600.00,3000.000000L 2675.00,3000.000000" stroke="black" stroke-width="1" fill="none"/>
    <path d="M 3500.00,3375.000000L 3500.00,3300.000000" stroke="black" stroke-width="1" fill="none"/>
    <path d="M 2750.00,3000.000000L 2825.00,3000.000000" stroke="black" stroke-width="1" fill="none"/>
    <path d="M 3650.00,4000.000000 V 4065.00 a 10.00,10.00 0 0,1 -10.00,10.00L 1725.00,4075.000000" stroke="black" stroke-width="1" fill="none"/>
    <path d="M 600.00,4125.000000L 675.00,4125.000000" stroke="black" stroke-width="1" fill="none"/>
    <path d="M 2975.00,225.000000L 2900.00,225.000000" stroke="black" stroke-width="1" fill="none"/>
    <path d="M 3125.00,1500.000000L 3200.00,1500.000000" stroke="black" stroke-width="1" fill="none"/>
    <path d="M 3200.00,1575.000000L 3200.00,1500.000000" stroke="black" stroke-width="1" fill="none"/>
    <path d="M 2000.00,3150.000000L 2000.00,1200.000000" stroke="black" stroke-width="1" fill="none"/>
    <path d="M 3050.00,1350.000000L 3050.00,1425.000000" stroke="black" stroke-width="1" fill="none"/>
    <path d="M 2825.00,2550.000000L 2825.00,2475.000000" stroke="black" stroke-width="1" fill="none"/>
    <path d="M 750.00,4275.000000L 750.00,4200.000000" stroke="black" stroke-width="1" fill="none"/>
    <path d="M 1425.00,3775.000000L 1425.00,3850.000000" stroke="black" stroke-width="1" fill="none"/>
    <path d="M 1650.00,4000.000000L 1650.00,0.000000" stroke="black" stroke-width="1" fill="none"/>
    <path d="M 3700.00,4125.000000L 3700.00,3550.000000" stroke="black" stroke-width="1" fill="none"/>
    <path d="M 3650.00,3925.000000L 3650.00,4000.000000" stroke="black" stroke-width="1" fill="none"/>
    <path d="M 2975.00,1725.000000L 3050.00,1725.000000" stroke="black" stroke-width="1" fill="none"/>
    <path d="M 2150.00,3050.000000L 2150.00,2025.000000" stroke="black" stroke-width="1" fill="none"/>
    <path d="M 3700.00,3550.000000L 3575.00,3550.000000" stroke="black" stroke-width="1" fill="none"/>
    <path d="M 3125.00,1800.000000L 3125.00,1725.000000" stroke="black" stroke-width="1" fill="none"/>
    <path d="M 2525.00,3000.000000L 2600.00,3000.000000" stroke="black" stroke-width="1" fill="none"/>
    <path d="M 3125.00,3000.000000L 3050.00,3000.000000" stroke="black" stroke-width="1" fill="none"/>
    <path d="M 3050.00,225.000000L 2975.00,225.000000" stroke="black" stroke-width="1" fill="none"/>
    <path d="M 3500.00,0.000000L 3500.00,3150.000000" stroke="black" stroke-width="1" fill="none"/>
    <path d="M 1200.00,4125.000000L 1275.00,4125.000000" stroke="black" stroke-width="1" fill="none"/>
    <path d="M 3200.00,225.000000L 3200.00,150.000000" stroke="black" stroke-width="1" fill="none"/>
    <path d="M 3500.00,3150.000000L 2000.00,3150.000000" stroke="black" stroke-width="1" fill="none"/>
    <path d="M 1050.00,4125.000000L 1125.00,4125.000000" stroke="black" stroke-width="1" fill="none"/>
    <path d="M 2225.00,2025.000000L 2300.00,2025.000000" stroke="black" stroke-width="1" fill="none"/>
    <path d="M 3575.00,3950.000000L 1800.00,3950.000000" stroke="black" stroke-width="1" fill="none"/>
    <path d="M 2450.00,1725.000000L 2525.00,1725.000000" stroke="black" stroke-width="1" fill="none"/>
    <path d="M 3500.00,3825.000000L 3500.00,3750.000000" stroke="black" stroke-width="1" fill="none"/>
    <path d="M 975.00,4125.000000L 1050.00,4125.000000" stroke="black" stroke-width="1" fill="none"/>
    <path d="M 1650.00,0.000000L 3500.00,0.000000" stroke="black" stroke-width="1" fill="none"/>
    <path d="M 3575.00,3700.000000L 3650.00,3700.000000" stroke="black" stroke-width="1" fill="none"/>
    <path d="M 3200.00,1725.000000L 3200.00,1650.000000" stroke="black" stroke-width="1" fill="none"/>
    <path d="M 3050.00,1650.000000L 3050.00,1725.000000" stroke="black" stroke-width="1" fill="none"/>
    <path d="M 3500.00,3900.000000L 3500.00,3825.000000" stroke="black" stroke-width="1" fill="none"/>
    <path d="M 3200.00,1425.000000L 3200.00,1350.000000" stroke="black" stroke-width="1" fill="none"/>
    <path d="M 1350.00,4125.000000L 1350.00,4000.000000" stroke="black" stroke-width="1" fill="none"/>
    <path d="M 1425.00,3850.000000L 1425.00,3925.000000" stroke="black" stroke-width="1" fill="none"/>
    <path d="M 1425.00,3925.000000L 1425.00,4000.000000" stroke="black" stroke-width="1" fill="none"/>
    <path d="M 2825.00,2700.000000L 2825.00,2625.000000" stroke="black" stroke-width="1" fill="none"/>
    <path d="M 2750.00,2025.000000L 2825.00,2025.000000" stroke="black" stroke-width="1" fill="none"/>
    <path d="M 3350.00,3050.000000L 2150.00,3050.000000" stroke="black" stroke-width="1" fill="none"/>
    <path d="M 3200.00,600.000000L 3200.00,525.000000" stroke="black" stroke-width="1" fill="none"/>
    <path d="M 1875.00,100.000000L 3350.00,100.000000" stroke="black" stroke-width="1" fill="none"/>
    <path d="M 750.00,4500.000000L 750.00,4425.000000" stroke="black" stroke-width="1" fill="none"/>
    <path d="M 1950.00,150.000000L 1950.00,3900.000000" stroke="black" stroke-width="1" fill="none"/>
    <path d="M 3500.00,3600.000000L 3500.00,3525.000000" stroke="black" stroke-width="1" fill="none"/>
    <path d="M 225.00,4125.000000L 300.00,4125.000000" stroke="black" stroke-width="1" fill="none"/>
    <path d="M 3200.00,1275.000000L 3200.00,1200.000000" stroke="black" stroke-width="1" fill="none"/>
    <path d="M 3200.00,150.000000L 1950.00,150.000000" stroke="black" stroke-width="1" fill="none"/>
    <path d="M 825.00,4125.000000L 900.00,4125.000000" stroke="black" stroke-width="1" fill="none"/>
    <path d="M 2825.00,2325.000000L 2825.00,2250.000000" stroke="black" stroke-width="1" fill="none"/>
    <path d="M 2825.00,2025.000000L 2825.00,1950.000000" stroke="black" stroke-width="1" fill="none"/>
    <path d="M 3050.00,1200.000000L 3050.00,1275.000000" stroke="black" stroke-width="1" fill="none"/>
    <path d="M 2525.00,1725.000000L 2600.00,1725.000000" stroke="black" stroke-width="1" fill="none"/>
    <path d="M 3200.00,1500.000000L 3200.00,1425.000000" stroke="black" stroke-width="1" fill="none"/>
    <path d="M 75.00,4125.000000L 150.00,4125.000000" stroke="black" stroke-width="1" fill="none"/>
    <path d="M 3200.00,525.000000L 3200.00,450.000000" stroke="black" stroke-width="1" fill="none"/>
    <path d="M 3200.00,225.000000L 3125.00,225.000000" stroke="black" stroke-width="1" fill="none"/>
    <path d="M 3200.00,1650.000000L 3200.00,1575.000000" stroke="black" stroke-width="1" fill="none"/>
    <path d="M 3200.00,3000.000000L 3125.00,3000.000000" stroke="black" stroke-width="1" fill="none"/>
    <path d="M 3200.00,375.000000L 3200.00,300.000000" stroke="black" stroke-width="1" fill="none"/>
    <path d="M 2825.00,2475.000000L 2825.00,2400.000000" stroke="black" stroke-width="1" fill="none"/>
    <path d="M 1125.00,4125.000000L 1200.00,4125.000000" stroke="black" stroke-width="1" fill="none"/>
    <path d="M 375.00,4125.000000L 450.00,4125.000000" stroke="black" stroke-width="1" fill="none"/>
    <path d="M 1875.00,250.000000L 1875.00,325.000000" stroke="black" stroke-width="1" fill="none"/>
    <path d="M 3200.00,300.000000L 3200.00,225.000000" stroke="black" stroke-width="1" fill="none"/>
    <path d="M 2975.00,3000.000000L 2900.00,3000.000000" stroke="black" stroke-width="1" fill="none"/>
    <path d="M 1875.00,325.000000L 1875.00,400.000000" stroke="black" stroke-width="1" fill="none"/>
    <path d="M 750.00,4350.000000L 750.00,4275.000000" stroke="black" stroke-width="1" fill="none"/>
    <path d="M 2150.00,2025.000000L 2225.00,2025.000000" stroke="black" stroke-width="1" fill="none"/>
    <path d="M 2825.00,2925.000000L 2825.00,2850.000000" stroke="black" stroke-width="1" fill="none"/>
    <path d="M 2450.00,2025.000000L 2525.00,2025.000000" stroke="black" stroke-width="1" fill="none"/>
    <path d="M 3050.00,1500.000000L 3050.00,1575.000000" stroke="black" stroke-width="1" fill="none"/>
    <path d="M 1275.00,4125.000000 V 4010.00 a 10.00,10.00 0 0,1 10.00,-10.00L 1350.00,4000.000000" stroke="black" stroke-width="1" fill="none"/>
    <path d="M 3575.00,3625.000000L 3575.00,3700.000000" stroke="black" stroke-width="1" fill="none"/>
    <path d="M 1875.00,475.000000L 1875.00,550.000000" stroke="black" stroke-width="1" fill="none"/>
    <path d="M 3650.00,3775.000000L 3650.00,3850.000000" stroke="black" stroke-width="1" fill="none"/>
    <path d="M 1500.00,4000.000000L 1575.00,4000.000000" stroke="black" stroke-width="1" fill="none"/>
    <path d="M 3125.00,1725.000000L 3125.00,1500.000000" stroke="black" stroke-width="1" fill="none"/>
    <path d="M 3650.00,3700.000000L 3650.00,3775.000000" stroke="black" stroke-width="1" fill="none"/>
    <path d="M 2375.00,2025.000000L 2450.00,2025.000000" stroke="black" stroke-width="1" fill="none"/>
    <path d="M 3500.00,3750.000000L 3500.00,3675.000000" stroke="black" stroke-width="1" fill="none"/>
    <path d="M 3425.00,50.000000L 3425.00,3100.000000" stroke="black" stroke-width="1" fill="none"/>
    <path d="M 2825.00,2850.000000L 2825.00,2775.000000" stroke="black" stroke-width="1" fill="none"/>
    <path d="M 3125.00,1950.000000L 3125.00,1875.000000" stroke="black" stroke-width="1" fill="none"/>
    <path d="M 3125.00,1425.000000L 3125.00,1350.000000" stroke="black" stroke-width="1" fill="none"/>
    <path d="M 2675.00,3000.000000L 2750.00,3000.000000" stroke="black" stroke-width="1" fill="none"/>
    <path d="M 1350.00,4000.000000L 1425.00,4000.000000" stroke="black" stroke-width="1" fill="none"/>
    <path d="M 2900.00,1725.000000L 2975.00,1725.000000" stroke="black" stroke-width="1" fill="none"/>
    <path d="M 2825.00,2025.000000L 3125.00,2025.000000" stroke="black" stroke-width="1" fill="none"/>
    <path d="M 2825.00,2775.000000L 2825.00,2700.000000" stroke="black" stroke-width="1" fill="none"/>
    <path d="M 0.00,4125.000000L 75.00,4125.000000" stroke="black" stroke-width="1" fill="none"/>
    <path d="M 750.00,4125.000000L 825.00,4125.000000" stroke="black" stroke-width="1" fill="none"/>
    <path d="M 1725.00,4000.000000L 1725.00,50.000000" stroke="black" stroke-width="1" fill="none"/>
    <path d="M 3050.00,1425.000000L 3050.00,1500.000000" stroke="black" stroke-width="1" fill="none"/>
    <path d="M 1875.00,100.000000L 1875.00,175.000000" stroke="black" stroke-width="1" fill="none"/>
    <path d="M 2825.00,1950.000000L 2825.00,1725.000000" stroke="black" stroke-width="1" fill="none"/>
    <path d="M 2900.00,3000.000000L 2825.00,3000.000000" stroke="black" stroke-width="1" fill="none"/>
    <path d="M 1575.00,4000.000000L 1650.00,4000.000000" stroke="black" stroke-width="1" fill="none"/>
    <path d="M 2675.00,2025.000000L 2750.00,2025.000000" stroke="black" stroke-width="1" fill="none"/>
    <path d="M 3050.00,1725.000000L 3125.00,1725.000000" stroke="black" stroke-width="1" fill="none"/>
    <path d="M 3575.00,3550.000000L 3575.00,3625.000000" stroke="black" stroke-width="1" fill="none"/>
    <path d="M 2825.00,1725.000000L 2900.00,1725.000000" stroke="black" stroke-width="1" fill="none"/>
    <path d="M 3200.00,450.000000L 3200.00,375.000000" stroke="black" stroke-width="1" fill="none"/>
    <path d="M 3575.00,3700.000000L 3575.00,3950.000000" stroke="black" stroke-width="1" fill="none"/>
    <path d="M 3500.00,3450.000000L 3500.00,3375.000000" stroke="black" stroke-width="1" fill="none"/>
    <path d="M 3125.00,1275.000000L 3125.00,1200.000000" stroke="black" stroke-width="1" fill="none"/>
    <path d="M 2825.00,2625.000000L 2825.00,2550.000000" stroke="black" stroke-width="1" fill="none"/>
    <path d="M 2825.00,2175.000000L 2825.00,2100.000000" stroke="black" stroke-width="1" fill="none"/>
    <path d="M 3200.00,1125.000000L 3200.00,1050.000000" stroke="black" stroke-width="1" fill="none"/>
    <path d="M 1425.00,4000.000000L 1500.00,4000.000000" stroke="black" stroke-width="1" fill="none"/>
    <path d="M 900.00,4125.000000L 975.00,4125.000000" stroke="black" stroke-width="1" fill="none"/>
    <path d="M 300.00,4125.000000L 375.00,4125.000000" stroke="black" stroke-width="1" fill="none"/>
    <path d="M 750.00,4575.000000L 750.00,4500.000000" stroke="black" stroke-width="1" fill="none"/>
    <path d="M 3200.00,1200.000000L 3200.00,1125.000000" stroke="black" stroke-width="1" fill="none"/>
    <path d="M 2600.00,1725.000000L 2675.00,1725.000000" stroke="black" stroke-width="1" fill="none"/>
    <path d="M 750.00,4425.000000L 750.00,4350.000000" stroke="black" stroke-width="1" fill="none"/>
    <path d="M 2825.00,2250.000000L 2825.00,2175.000000" stroke="black" stroke-width="1" fill="none"/>
    <path d="M 3200.00,900.000000L 3200.00,825.000000" stroke="black" stroke-width="1" fill="none"/>
    <path d="M 3500.00,3225.000000L 3500.00,3150.000000" stroke="black" stroke-width="1" fill="none"/>
    <path d="M 1725.00,4000.000000L 3650.00,4000.000000" stroke="black" stroke-width="1" fill="none"/>
    <path d="M 3350.00,100.000000L 3350.00,3050.000000" stroke="black" stroke-width="1" fill="none"/>
    <path d="M 1800.00,100.000000L 1875.00,100.000000" stroke="black" stroke-width="1" fill="none"/>
    <path d="M 750.00,4200.000000L 750.00,4125.000000" stroke="black" stroke-width="1" fill="none"/>
    <path d="M 3500.00,3525.000000L 3500.00,3450.000000" stroke="black" stroke-width="1" fill="none"/>
    <path d="M 2825.00,2100.000000L 2825.00,2025.000000" stroke="black" stroke-width="1" fill="none"/>
    <path d="M 3125.00,1875.000000L 3125.00,1800.000000" stroke="black" stroke-width="1" fill="none"/>
    <path d="M 1800.00,3950.000000L 1800.00,100.000000" stroke="black" stroke-width="1" fill="none"/>
    <path d="M 675.00,4125.000000L 750.00,4125.000000" stroke="black" stroke-width="1" fill="none"/>
    <path d="M 3050.00,3000.000000L 2975.00,3000.000000" stroke="black" stroke-width="1" fill="none"/>
    <path d="M 3200.00,750.000000L 3200.00,675.000000" stroke="black" stroke-width="1" fill="none"/>
    <path d="M 2675.00,1725.000000L 2750.00,1725.000000" stroke="black" stroke-width="1" fill="none"/>
    <path d="M 2300.00,2025.000000L 2375.00,2025.000000" stroke="black" stroke-width="1" fill="none"/>
    <path d="M 3650.00,3850.000000L 3650.00,3925.000000" stroke="black" stroke-width="1" fill="none"/>
    <path d="M 2075.00,3100.000000L 2075.00,1725.000000" stroke="black" stroke-width="1" fill="none"/>
    <path d="M 1425.00,3625.000000L 1425.00,3700.000000" stroke="black" stroke-width="1" fill="none"/>
    <path d="M 2825.00,2400.000000L 2825.00,2325.000000" stroke="black" stroke-width="1" fill="none"/>
    <path d="M 1425.00,3550.000000L 1425.00,3625.000000" stroke="black" stroke-width="1" fill="none"/>
    <path d="M 3125.00,225.000000L 3050.00,225.000000" stroke="black" stroke-width="1" fill="none"/>
    <path d="M 3050.00,1275.000000L 3050.00,1350.000000" stroke="black" stroke-width="1" fill="none"/>
    <path d="M 3125.00,2025.000000L 3125.00,1950.000000" stroke="black" stroke-width="1" fill="none"/>
    <path d="M 3200.00,1350.000000L 3200.00,1275.000000" stroke="black" stroke-width="1" fill="none"/>
    <path d="M 1875.00,400.000000L 1875.00,475.000000" stroke="black" stroke-width="1" fill="none"/>
    <path d="M 2600.00,2025.000000L 2675.00,2025.000000" stroke="black" stroke-width="1" fill="none"/>
    <path d="M 1725.00,4075.000000L 1575.00,4075.000000" stroke="black" stroke-width="1" fill="none"/>
    <path d="M 3200.00,675.000000L 3200.00,600.000000" stroke="black" stroke-width="1" fill="none"/>
    <path d="M 1425.00,3700.000000L 1425.00,3775.000000" stroke="black" stroke-width="1" fill="none"/>
    <path d="M 3125.00,1725.000000L 3200.00,1725.000000" stroke="black" stroke-width="1" fill="none"/>
    <path d="M 3500.00,3300.000000L 3500.00,3225.000000" stroke="black" stroke-width="1" fill="none"/>
    <path d="M 3050.00,1575.000000L 3050.00,1650.000000" stroke="black" stroke-width="1" fill="none"/>
    <path d="M 3125.00,1350.000000L 3125.00,1275.000000" stroke="black" stroke-width="1" fill="none"/>
    <path d="M 3200.00,825.000000L 3200.00,750.000000" stroke="black" stroke-width="1" fill="none"/>
    <path d="M 2825.00,3000.000000L 2825.00,2925.000000" stroke="black" stroke-width="1" fill="none"/>
    <path d="M 3200.00,1050.000000L 3200.00,975.000000" stroke="black" stroke-width="1" fill="none"/>
    <path d="M 2375.00,1725.000000L 2450.00,1725.000000" stroke="black" stroke-width="1" fill="none"/>
    <path d="M 450.00,4125.000000L 525.00,4125.000000" stroke="black" stroke-width="1" fill="none"/>
    <path d="M 525.00,4125.000000L 600.00,4125.000000" stroke="black" stroke-width="1" fill="none"/>
    <path d="M 150.00,4125.000000L 225.00,4125.000000" stroke="black" stroke-width="1" fill="none"/>
    <path d="M 1875.00,175.000000L 1875.00,250.000000" stroke="black" stroke-width="1" fill="none"/>
    <path d="M 3200.00,975.000000L 3200.00,900.000000" stroke="black" stroke-width="1" fill="none"/>
    <path d="M 2750.00,1725.000000L 2825.00,1725.000000" stroke="black" stroke-width="1" fill="none"/>
    <path d="M 1575.00,4000.000000 V 10.00 a 10.00,10.00 0 0,1 10.00,-10.00L 1650.00,0.000000" stroke="black" stroke-width="1" fill="none"/>
    <path d="M 1275.00,4125.000000L 1350.00,4125.000000" stroke="black" stroke-width="1" fill="none"/>
    <path d="M 2525.00,2025.000000L 2600.00,2025.000000" stroke="black" stroke-width="1" fill="none"/>
    <path d="M 750.00,4650.000000L 750.00,4575.000000" stroke="black" stroke-width="1" fill="none"/>
    <path d="M 1950.00,3900.000000L 3500.00,3900.000000" stroke="black" stroke-width="1" fill="none"/>
    <path d="M 3125.00,1500.000000L 3125.00,1425.000000" stroke="black" stroke-width="1" fill="none"/>
    <path d="M 1350.00,4125.000000L 3700.00,4125.000000" stroke="black" stroke-width="1" fill="none"/>
    <path d="M 1725.00,50.000000L 3425.00,50.000000" stroke="black" stroke-width="1" fill="none"/>
    <path d="M 3425.00,3100.000000L 2075.00,3100.000000" stroke="black" stroke-width="1" fill="none"/>
    <path d="M 3275.00,3000.000000L 3200.00,3000.000000" stroke="black" stroke-width="1" fill="none"/>
    <rect x="2810.0" y="2460.0" width="30.0" height="30.0" stroke="black" stroke-width="1" id="0" onclick="ow3.nodeClick(this)" fill="#f0f0d2"/>

    <rect x="2810.0" y="2085.0" width="30.0" height="30.0" stroke="black" stroke-width="1" id="1" onclick="ow3.nodeClick(this)" fill="#f0f0d2"/>

    <rect x="3185.0" y="1035.0" width="30.0" height="30.0" stroke="black" stroke-width="1" id="2" onclick="ow3.nodeClick(this)" fill="#f0f0d2"/>

    <rect x="3035.0" y="1185.0" width="30.0" height="30.0" stroke="black" stroke-width="1" id="3" onclick="ow3.nodeClick(this)" fill="#f0f0d2"/>

    <rect x="3110.0" y="210.0" width="30.0" height="30.0" stroke="black" stroke-width="1" id="4" onclick="ow3.nodeClick(this)" fill="#f0f0d2"/>

    <rect x="1485.0" y="3985.0" width="30.0" height="30.0" stroke="black" stroke-width="1" id="5" onclick="ow3.nodeClick(this)" fill="#f0f0d2"/>

    <rect x="2810.0" y="2160.0" width="30.0" height="30.0" stroke="black" stroke-width="1" id="6" onclick="ow3.nodeClick(this)" fill="#f0f0d2"/>

    <rect x="3410.0" y="35.0" width="30.0" height="30.0" stroke="black" stroke-width="1" id="7" onclick="ow3.nodeClick(this)" fill="#f0f0d2"/>

    <rect x="2660.0" y="2010.0" width="30.0" height="30.0" stroke="black" stroke-width="1" id="8" onclick="ow3.nodeClick(this)" fill="#f0f0d2"/>

    <rect x="3485.0" y="3885.0" width="30.0" height="30.0" stroke="black" stroke-width="1" id="9" onclick="ow3.nodeClick(this)" fill="#f0f0d2"/>

    <rect x="2360.0" y="1710.0" width="30.0" height="30.0" stroke="black" stroke-width="1" id="10" onclick="ow3.nodeClick(this)" fill="#f0f0d2"/>

    <rect x="1560.0" y="4060.0" width="30.0" height="30.0" stroke="black" stroke-width="1" id="11" onclick="ow3.nodeClick(this)" fill="#f0f0d2"/>

    <rect x="2885.0" y="210.0" width="30.0" height="30.0" stroke="black" stroke-width="1" id="12" onclick="ow3.nodeClick(this)" fill="#f0f0d2"/>

    <rect x="2435.0" y="2010.0" width="30.0" height="30.0" stroke="black" stroke-width="1" id="13" onclick="ow3.nodeClick(this)" fill="#f0f0d2"/>

    <rect x="2585.0" y="2010.0" width="30.0" height="30.0" stroke="black" stroke-width="1" id="14" onclick="ow3.nodeClick(this)" fill="#f0f0d2"/>

    <rect x="1710.0" y="3985.0" width="30.0" height="30.0" stroke="black" stroke-width="1" id="15" onclick="ow3.nodeClick(this)" fill="#f0f0d2"/>

    <rect x="735.0" y="4110.0" width="30.0" height="30.0" stroke="black" stroke-width="1" id="16" onclick="ow3.nodeClick(this)" fill="#f0f0d2"/>

    <rect x="3110.0" y="1185.0" width="30.0" height="30.0" stroke="black" stroke-width="1" id="17" onclick="ow3.nodeClick(this)" fill="#f0f0d2"/>

    <rect x="1985.0" y="3135.0" width="30.0" height="30.0" stroke="black" stroke-width="1" id="18" onclick="ow3.nodeClick(this)" fill="#f0f0d2"/>

    <rect x="3560.0" y="3685.0" width="30.0" height="30.0" stroke="black" stroke-width="1" id="19" onclick="ow3.nodeClick(this)" fill="#f0f0d2"/>

    <rect x="1410.0" y="3835.0" width="30.0" height="30.0" stroke="black" stroke-width="1" id="20" onclick="ow3.nodeClick(this)" fill="#f0f0d2"/>

    <rect x="1860.0" y="460.0" width="30.0" height="30.0" stroke="black" stroke-width="1" id="21" onclick="ow3.nodeClick(this)" fill="#f0f0d2"/>

    <rect x="2435.0" y="1710.0" width="30.0" height="30.0" stroke="black" stroke-width="1" id="22" onclick="ow3.nodeClick(this)" fill="#f0f0d2"/>

    <rect x="3560.0" y="3610.0" width="30.0" height="30.0" stroke="black" stroke-width="1" id="23" onclick="ow3.nodeClick(this)" fill="#f0f0d2"/>

    <rect x="2510.0" y="1710.0" width="30.0" height="30.0" stroke="black" stroke-width="1" id="24" onclick="ow3.nodeClick(this)" fill="#f0f0d2"/>

    <rect x="3110.0" y="2985.0" width="30.0" height="30.0" stroke="black" stroke-width="1" id="25" onclick="ow3.nodeClick(this)" fill="#f0f0d2"/>

    <rect x="1410.0" y="3535.0" width="30.0" height="30.0" stroke="black" stroke-width="1" id="26" onclick="ow3.nodeClick(this)" fill="#f0f0d2"/>

    <rect x="2810.0" y="2385.0" width="30.0" height="30.0" stroke="black" stroke-width="1" id="27" onclick="ow3.nodeClick(this)" fill="#f0f0d2"/>

    <rect x="3635.0" y="3685.0" width="30.0" height="30.0" stroke="black" stroke-width="1" id="28" onclick="ow3.nodeClick(this)" fill="#f0f0d2"/>

    <rect x="1785.0" y="85.0" width="30.0" height="30.0" stroke="black" stroke-width="1" id="29" onclick="ow3.nodeClick(this)" fill="#f0f0d2"/>

    <rect x="3110.0" y="1710.0" width="30.0" height="30.0" stroke="black" stroke-width="1" id="30" onclick="ow3.nodeClick(this)" fill="#f0f0d2"/>

    <rect x="3185.0" y="960.0" width="30.0" height="30.0" stroke="black" stroke-width="1" id="31" onclick="ow3.nodeClick(this)" fill="#f0f0d2"/>

    <rect x="3485.0" y="3810.0" width="30.0" height="30.0" stroke="black" stroke-width="1" id="32" onclick="ow3.nodeClick(this)" fill="#f0f0d2"/>

    <rect x="3635.0" y="3910.0" width="30.0" height="30.0" stroke="black" stroke-width="1" id="33" onclick="ow3.nodeClick(this)" fill="#f0f0d2"/>

    <rect x="3185.0" y="1560.0" width="30.0" height="30.0" stroke="black" stroke-width="1" id="34" onclick="ow3.nodeClick(this)" fill="#f0f0d2"/>

    <rect x="135.0" y="4110.0" width="30.0" height="30.0" stroke="black" stroke-width="1" id="35" onclick="ow3.nodeClick(this)" fill="#f0f0d2"/>

    <rect x="1410.0" y="3985.0" width="30.0" height="30.0" stroke="black" stroke-width="1" id="36" onclick="ow3.nodeClick(this)" fill="#f0f0d2"/>

    <rect x="2810.0" y="2835.0" width="30.0" height="30.0" stroke="black" stroke-width="1" id="37" onclick="ow3.nodeClick(this)" fill="#f0f0d2"/>

    <rect x="3485.0" y="3285.0" width="30.0" height="30.0" stroke="black" stroke-width="1" id="38" onclick="ow3.nodeClick(this)" fill="#f0f0d2"/>

    <rect x="3260.0" y="2985.0" width="30.0" height="30.0" stroke="black" stroke-width="1" id="39" onclick="ow3.nodeClick(this)" fill="#f0f0d2"/>

    <rect x="1985.0" y="1185.0" width="30.0" height="30.0" stroke="black" stroke-width="1" id="40" onclick="ow3.nodeClick(this)" fill="#f0f0d2"/>

    <rect x="3485.0" y="3585.0" width="30.0" height="30.0" stroke="black" stroke-width="1" id="41" onclick="ow3.nodeClick(this)" fill="#f0f0d2"/>

    <rect x="3110.0" y="1935.0" width="30.0" height="30.0" stroke="black" stroke-width="1" id="42" onclick="ow3.nodeClick(this)" fill="#f0f0d2"/>

    <rect x="735.0" y="4185.0" width="30.0" height="30.0" stroke="black" stroke-width="1" id="43" onclick="ow3.nodeClick(this)" fill="#f0f0d2"/>

    <rect x="2660.0" y="1710.0" width="30.0" height="30.0" stroke="black" stroke-width="1" id="44" onclick="ow3.nodeClick(this)" fill="#f0f0d2"/>

    <rect x="1410.0" y="3685.0" width="30.0" height="30.0" stroke="black" stroke-width="1" id="45" onclick="ow3.nodeClick(this)" fill="#f0f0d2"/>

    <rect x="3335.0" y="3035.0" width="30.0" height="30.0" stroke="black" stroke-width="1" id="46" onclick="ow3.nodeClick(this)" fill="#f0f0d2"/>

    <rect x="60.0" y="4110.0" width="30.0" height="30.0" stroke="black" stroke-width="1" id="47" onclick="ow3.nodeClick(this)" fill="#f0f0d2"/>

    <rect x="3485.0" y="3660.0" width="30.0" height="30.0" stroke="black" stroke-width="1" id="48" onclick="ow3.nodeClick(this)" fill="#f0f0d2"/>

    <rect x="3110.0" y="1260.0" width="30.0" height="30.0" stroke="black" stroke-width="1" id="49" onclick="ow3.nodeClick(this)" fill="#f0f0d2"/>

    <rect x="735.0" y="4710.0" width="30.0" height="30.0" stroke="black" stroke-width="1" id="50" onclick="ow3.nodeClick(this)" fill="#f0f0d2"/>

    <rect x="2660.0" y="2985.0" width="30.0" height="30.0" stroke="black" stroke-width="1" id="51" onclick="ow3.nodeClick(this)" fill="#f0f0d2"/>

    <rect x="3485.0" y="3735.0" width="30.0" height="30.0" stroke="black" stroke-width="1" id="52" onclick="ow3.nodeClick(this)" fill="#f0f0d2"/>

    <rect x="2960.0" y="1710.0" width="30.0" height="30.0" stroke="black" stroke-width="1" id="53" onclick="ow3.nodeClick(this)" fill="#f0f0d2"/>

    <rect x="3560.0" y="3535.0" width="30.0" height="30.0" stroke="black" stroke-width="1" id="54" onclick="ow3.nodeClick(this)" fill="#f0f0d2"/>

    <rect x="1635.0" y="-15.0" width="30.0" height="30.0" stroke="black" stroke-width="1" id="55" onclick="ow3.nodeClick(this)" fill="#f0f0d2"/>

    <rect x="1860.0" y="85.0" width="30.0" height="30.0" stroke="black" stroke-width="1" id="56" onclick="ow3.nodeClick(this)" fill="#f0f0d2"/>

    <rect x="3185.0" y="660.0" width="30.0" height="30.0" stroke="black" stroke-width="1" id="57" onclick="ow3.nodeClick(this)" fill="#f0f0d2"/>

    <rect x="1335.0" y="3985.0" width="30.0" height="30.0" stroke="black" stroke-width="1" id="58" onclick="ow3.nodeClick(this)" fill="#f0f0d2"/>

    <rect x="3110.0" y="1785.0" width="30.0" height="30.0" stroke="black" stroke-width="1" id="59" onclick="ow3.nodeClick(this)" fill="#f0f0d2"/>

    <rect x="3685.0" y="4110.0" width="30.0" height="30.0" stroke="black" stroke-width="1" id="60" onclick="ow3.nodeClick(this)" fill="#f0f0d2"/>

    <rect x="2960.0" y="2985.0" width="30.0" height="30.0" stroke="black" stroke-width="1" id="61" onclick="ow3.nodeClick(this)" fill="#f0f0d2"/>

    <rect x="1260.0" y="4110.0" width="30.0" height="30.0" stroke="black" stroke-width="1" id="62" onclick="ow3.nodeClick(this)" fill="#f0f0d2"/>

    <rect x="2585.0" y="2985.0" width="30.0" height="30.0" stroke="black" stroke-width="1" id="63" onclick="ow3.nodeClick(this)" fill="#f0f0d2"/>

    <rect x="3335.0" y="85.0" width="30.0" height="30.0" stroke="black" stroke-width="1" id="64" onclick="ow3.nodeClick(this)" fill="#f0f0d2"/>

    <rect x="3485.0" y="-15.0" width="30.0" height="30.0" stroke="black" stroke-width="1" id="65" onclick="ow3.nodeClick(this)" fill="#f0f0d2"/>

    <rect x="3185.0" y="210.0" width="30.0" height="30.0" stroke="black" stroke-width="1" id="66" onclick="ow3.nodeClick(this)" fill="#f0f0d2"/>

    <rect x="2585.0" y="1710.0" width="30.0" height="30.0" stroke="black" stroke-width="1" id="67" onclick="ow3.nodeClick(this)" fill="#f0f0d2"/>

    <rect x="2810.0" y="2535.0" width="30.0" height="30.0" stroke="black" stroke-width="1" id="68" onclick="ow3.nodeClick(this)" fill="#f0f0d2"/>

    <rect x="1860.0" y="235.0" width="30.0" height="30.0" stroke="black" stroke-width="1" id="69" onclick="ow3.nodeClick(this)" fill="#f0f0d2"/>

    <rect x="3110.0" y="2010.0" width="30.0" height="30.0" stroke="black" stroke-width="1" id="70" onclick="ow3.nodeClick(this)" fill="#f0f0d2"/>

    <rect x="2810.0" y="2910.0" width="30.0" height="30.0" stroke="black" stroke-width="1" id="71" onclick="ow3.nodeClick(this)" fill="#f0f0d2"/>

    <rect x="3185.0" y="735.0" width="30.0" height="30.0" stroke="black" stroke-width="1" id="72" onclick="ow3.nodeClick(this)" fill="#f0f0d2"/>

    <rect x="3110.0" y="1335.0" width="30.0" height="30.0" stroke="black" stroke-width="1" id="73" onclick="ow3.nodeClick(this)" fill="#f0f0d2"/>

    <rect x="2510.0" y="2010.0" width="30.0" height="30.0" stroke="black" stroke-width="1" id="74" onclick="ow3.nodeClick(this)" fill="#f0f0d2"/>

    <rect x="735.0" y="4560.0" width="30.0" height="30.0" stroke="black" stroke-width="1" id="75" onclick="ow3.nodeClick(this)" fill="#f0f0d2"/>

    <rect x="2885.0" y="2985.0" width="30.0" height="30.0" stroke="black" stroke-width="1" id="76" onclick="ow3.nodeClick(this)" fill="#f0f0d2"/>

    <rect x="2810.0" y="2310.0" width="30.0" height="30.0" stroke="black" stroke-width="1" id="77" onclick="ow3.nodeClick(this)" fill="#f0f0d2"/>

    <rect x="2060.0" y="1710.0" width="30.0" height="30.0" stroke="black" stroke-width="1" id="78" onclick="ow3.nodeClick(this)" fill="#f0f0d2"/>

    <rect x="3635.0" y="3835.0" width="30.0" height="30.0" stroke="black" stroke-width="1" id="79" onclick="ow3.nodeClick(this)" fill="#f0f0d2"/>

    <rect x="1860.0" y="385.0" width="30.0" height="30.0" stroke="black" stroke-width="1" id="80" onclick="ow3.nodeClick(this)" fill="#f0f0d2"/>

    <rect x="3035.0" y="1335.0" width="30.0" height="30.0" stroke="black" stroke-width="1" id="81" onclick="ow3.nodeClick(this)" fill="#f0f0d2"/>

    <rect x="1560.0" y="3985.0" width="30.0" height="30.0" stroke="black" stroke-width="1" id="82" onclick="ow3.nodeClick(this)" fill="#f0f0d2"/>

    <rect x="3185.0" y="810.0" width="30.0" height="30.0" stroke="black" stroke-width="1" id="83" onclick="ow3.nodeClick(this)" fill="#f0f0d2"/>

    <rect x="1785.0" y="3935.0" width="30.0" height="30.0" stroke="black" stroke-width="1" id="84" onclick="ow3.nodeClick(this)" fill="#f0f0d2"/>

    <rect x="2735.0" y="2985.0" width="30.0" height="30.0" stroke="black" stroke-width="1" id="85" onclick="ow3.nodeClick(this)" fill="#f0f0d2"/>

    <rect x="1860.0" y="535.0" width="30.0" height="30.0" stroke="black" stroke-width="1" id="86" onclick="ow3.nodeClick(this)" fill="#f0f0d2"/>

    <rect x="3035.0" y="1635.0" width="30.0" height="30.0" stroke="black" stroke-width="1" id="87" onclick="ow3.nodeClick(this)" fill="#f0f0d2"/>

    <rect x="1860.0" y="160.0" width="30.0" height="30.0" stroke="black" stroke-width="1" id="88" onclick="ow3.nodeClick(this)" fill="#f0f0d2"/>

    <rect x="660.0" y="4110.0" width="30.0" height="30.0" stroke="black" stroke-width="1" id="89" onclick="ow3.nodeClick(this)" fill="#f0f0d2"/>

    <rect x="2735.0" y="1710.0" width="30.0" height="30.0" stroke="black" stroke-width="1" id="90" onclick="ow3.nodeClick(this)" fill="#f0f0d2"/>

    <rect x="3110.0" y="1410.0" width="30.0" height="30.0" stroke="black" stroke-width="1" id="91" onclick="ow3.nodeClick(this)" fill="#f0f0d2"/>

    <rect x="3110.0" y="1860.0" width="30.0" height="30.0" stroke="black" stroke-width="1" id="92" onclick="ow3.nodeClick(this)" fill="#f0f0d2"/>

    <rect x="3485.0" y="3435.0" width="30.0" height="30.0" stroke="black" stroke-width="1" id="93" onclick="ow3.nodeClick(this)" fill="#f0f0d2"/>

    <rect x="1335.0" y="4110.0" width="30.0" height="30.0" stroke="black" stroke-width="1" id="94" onclick="ow3.nodeClick(this)" fill="#f0f0d2"/>

    <rect x="3185.0" y="1410.0" width="30.0" height="30.0" stroke="black" stroke-width="1" id="95" onclick="ow3.nodeClick(this)" fill="#f0f0d2"/>

    <rect x="1860.0" y="310.0" width="30.0" height="30.0" stroke="black" stroke-width="1" id="96" onclick="ow3.nodeClick(this)" fill="#f0f0d2"/>

    <rect x="3035.0" y="2985.0" width="30.0" height="30.0" stroke="black" stroke-width="1" id="97" onclick="ow3.nodeClick(this)" fill="#f0f0d2"/>

    <rect x="2810.0" y="2685.0" width="30.0" height="30.0" stroke="black" stroke-width="1" id="98" onclick="ow3.nodeClick(this)" fill="#f0f0d2"/>

    <rect x="3035.0" y="210.0" width="30.0" height="30.0" stroke="black" stroke-width="1" id="99" onclick="ow3.nodeClick(this)" fill="#f0f0d2"/>

    <rect x="735.0" y="4335.0" width="30.0" height="30.0" stroke="black" stroke-width="1" id="100" onclick="ow3.nodeClick(this)" fill="#f0f0d2"/>

    <rect x="2960.0" y="210.0" width="30.0" height="30.0" stroke="black" stroke-width="1" id="101" onclick="ow3.nodeClick(this)" fill="#f0f0d2"/>

    <rect x="285.0" y="4110.0" width="30.0" height="30.0" stroke="black" stroke-width="1" id="102" onclick="ow3.nodeClick(this)" fill="#f0f0d2"/>

    <rect x="3185.0" y="1710.0" width="30.0" height="30.0" stroke="black" stroke-width="1" id="103" onclick="ow3.nodeClick(this)" fill="#f0f0d2"/>

    <rect x="2360.0" y="2010.0" width="30.0" height="30.0" stroke="black" stroke-width="1" id="104" onclick="ow3.nodeClick(this)" fill="#f0f0d2"/>

    <rect x="3035.0" y="1560.0" width="30.0" height="30.0" stroke="black" stroke-width="1" id="105" onclick="ow3.nodeClick(this)" fill="#f0f0d2"/>

    <rect x="3185.0" y="135.0" width="30.0" height="30.0" stroke="black" stroke-width="1" id="106" onclick="ow3.nodeClick(this)" fill="#f0f0d2"/>

    <rect x="3485.0" y="3210.0" width="30.0" height="30.0" stroke="black" stroke-width="1" id="107" onclick="ow3.nodeClick(this)" fill="#f0f0d2"/>

    <rect x="3185.0" y="1335.0" width="30.0" height="30.0" stroke="black" stroke-width="1" id="108" onclick="ow3.nodeClick(this)" fill="#f0f0d2"/>

    <rect x="2810.0" y="2760.0" width="30.0" height="30.0" stroke="black" stroke-width="1" id="109" onclick="ow3.nodeClick(this)" fill="#f0f0d2"/>

    <rect x="1635.0" y="3985.0" width="30.0" height="30.0" stroke="black" stroke-width="1" id="110" onclick="ow3.nodeClick(this)" fill="#f0f0d2"/>

    <rect x="2210.0" y="2010.0" width="30.0" height="30.0" stroke="black" stroke-width="1" id="111" onclick="ow3.nodeClick(this)" fill="#f0f0d2"/>

    <rect x="2135.0" y="3035.0" width="30.0" height="30.0" stroke="black" stroke-width="1" id="112" onclick="ow3.nodeClick(this)" fill="#f0f0d2"/>

    <rect x="1185.0" y="4110.0" width="30.0" height="30.0" stroke="black" stroke-width="1" id="113" onclick="ow3.nodeClick(this)" fill="#f0f0d2"/>

    <rect x="960.0" y="4110.0" width="30.0" height="30.0" stroke="black" stroke-width="1" id="114" onclick="ow3.nodeClick(this)" fill="#f0f0d2"/>

    <rect x="1935.0" y="3885.0" width="30.0" height="30.0" stroke="black" stroke-width="1" id="115" onclick="ow3.nodeClick(this)" fill="#f0f0d2"/>

    <rect x="735.0" y="4635.0" width="30.0" height="30.0" stroke="black" stroke-width="1" id="116" onclick="ow3.nodeClick(this)" fill="#f0f0d2"/>

    <rect x="2810.0" y="2610.0" width="30.0" height="30.0" stroke="black" stroke-width="1" id="117" onclick="ow3.nodeClick(this)" fill="#f0f0d2"/>

    <rect x="3035.0" y="1410.0" width="30.0" height="30.0" stroke="black" stroke-width="1" id="118" onclick="ow3.nodeClick(this)" fill="#f0f0d2"/>

    <rect x="3410.0" y="3085.0" width="30.0" height="30.0" stroke="black" stroke-width="1" id="119" onclick="ow3.nodeClick(this)" fill="#f0f0d2"/>

    <rect x="3185.0" y="585.0" width="30.0" height="30.0" stroke="black" stroke-width="1" id="120" onclick="ow3.nodeClick(this)" fill="#f0f0d2"/>

    <rect x="585.0" y="4110.0" width="30.0" height="30.0" stroke="black" stroke-width="1" id="121" onclick="ow3.nodeClick(this)" fill="#f0f0d2"/>

    <rect x="3035.0" y="1710.0" width="30.0" height="30.0" stroke="black" stroke-width="1" id="122" onclick="ow3.nodeClick(this)" fill="#f0f0d2"/>

    <rect x="1710.0" y="4060.0" width="30.0" height="30.0" stroke="black" stroke-width="1" id="123" onclick="ow3.nodeClick(this)" fill="#f0f0d2"/>

    <rect x="2135.0" y="2010.0" width="30.0" height="30.0" stroke="black" stroke-width="1" id="124" onclick="ow3.nodeClick(this)" fill="#f0f0d2"/>

    <rect x="3485.0" y="3360.0" width="30.0" height="30.0" stroke="black" stroke-width="1" id="125" onclick="ow3.nodeClick(this)" fill="#f0f0d2"/>

    <rect x="-15.0" y="4110.0" width="30.0" height="30.0" stroke="black" stroke-width="1" id="126" onclick="ow3.nodeClick(this)" fill="#f0f0d2"/>

    <rect x="435.0" y="4110.0" width="30.0" height="30.0" stroke="black" stroke-width="1" id="127" onclick="ow3.nodeClick(this)" fill="#f0f0d2"/>

    <rect x="2285.0" y="2010.0" width="30.0" height="30.0" stroke="black" stroke-width="1" id="128" onclick="ow3.nodeClick(this)" fill="#f0f0d2"/>

    <rect x="2810.0" y="2235.0" width="30.0" height="30.0" stroke="black" stroke-width="1" id="129" onclick="ow3.nodeClick(this)" fill="#f0f0d2"/>

    <rect x="735.0" y="4260.0" width="30.0" height="30.0" stroke="black" stroke-width="1" id="130" onclick="ow3.nodeClick(this)" fill="#f0f0d2"/>

    <rect x="1410.0" y="3910.0" width="30.0" height="30.0" stroke="black" stroke-width="1" id="131" onclick="ow3.nodeClick(this)" fill="#f0f0d2"/>

    <rect x="3185.0" y="885.0" width="30.0" height="30.0" stroke="black" stroke-width="1" id="132" onclick="ow3.nodeClick(this)" fill="#f0f0d2"/>

    <rect x="1410.0" y="3760.0" width="30.0" height="30.0" stroke="black" stroke-width="1" id="133" onclick="ow3.nodeClick(this)" fill="#f0f0d2"/>

    <rect x="510.0" y="4110.0" width="30.0" height="30.0" stroke="black" stroke-width="1" id="134" onclick="ow3.nodeClick(this)" fill="#f0f0d2"/>

    <rect x="3635.0" y="3985.0" width="30.0" height="30.0" stroke="black" stroke-width="1" id="135" onclick="ow3.nodeClick(this)" fill="#f0f0d2"/>

    <rect x="810.0" y="4110.0" width="30.0" height="30.0" stroke="black" stroke-width="1" id="136" onclick="ow3.nodeClick(this)" fill="#f0f0d2"/>

    <rect x="3185.0" y="1635.0" width="30.0" height="30.0" stroke="black" stroke-width="1" id="137" onclick="ow3.nodeClick(this)" fill="#f0f0d2"/>

    <rect x="3185.0" y="1110.0" width="30.0" height="30.0" stroke="black" stroke-width="1" id="138" onclick="ow3.nodeClick(this)" fill="#f0f0d2"/>

    <rect x="735.0" y="4410.0" width="30.0" height="30.0" stroke="black" stroke-width="1" id="139" onclick="ow3.nodeClick(this)" fill="#f0f0d2"/>

    <rect x="2885.0" y="1710.0" width="30.0" height="30.0" stroke="black" stroke-width="1" id="140" onclick="ow3.nodeClick(this)" fill="#f0f0d2"/>

    <rect x="3035.0" y="1485.0" width="30.0" height="30.0" stroke="black" stroke-width="1" id="141" onclick="ow3.nodeClick(this)" fill="#f0f0d2"/>

    <rect x="3485.0" y="3135.0" width="30.0" height="30.0" stroke="black" stroke-width="1" id="142" onclick="ow3.nodeClick(this)" fill="#f0f0d2"/>

    <rect x="3035.0" y="1260.0" width="30.0" height="30.0" stroke="black" stroke-width="1" id="143" onclick="ow3.nodeClick(this)" fill="#f0f0d2"/>

    <rect x="2810.0" y="2985.0" width="30.0" height="30.0" stroke="black" stroke-width="1" id="144" onclick="ow3.nodeClick(this)" fill="#f0f0d2"/>

    <rect x="2810.0" y="1710.0" width="30.0" height="30.0" stroke="black" stroke-width="1" id="145" onclick="ow3.nodeClick(this)" fill="#f0f0d2"/>

    <rect x="1410.0" y="3610.0" width="30.0" height="30.0" stroke="black" stroke-width="1" id="146" onclick="ow3.nodeClick(this)" fill="#f0f0d2"/>

    <rect x="2810.0" y="1935.0" width="30.0" height="30.0" stroke="black" stroke-width="1" id="147" onclick="ow3.nodeClick(this)" fill="#f0f0d2"/>

    <rect x="1935.0" y="135.0" width="30.0" height="30.0" stroke="black" stroke-width="1" id="148" onclick="ow3.nodeClick(this)" fill="#f0f0d2"/>

    <rect x="885.0" y="4110.0" width="30.0" height="30.0" stroke="black" stroke-width="1" id="149" onclick="ow3.nodeClick(this)" fill="#f0f0d2"/>

    <rect x="3110.0" y="1485.0" width="30.0" height="30.0" stroke="black" stroke-width="1" id="150" onclick="ow3.nodeClick(this)" fill="#f0f0d2"/>

    <rect x="3185.0" y="510.0" width="30.0" height="30.0" stroke="black" stroke-width="1" id="151" onclick="ow3.nodeClick(this)" fill="#f0f0d2"/>

    <rect x="2735.0" y="2010.0" width="30.0" height="30.0" stroke="black" stroke-width="1" id="152" onclick="ow3.nodeClick(this)" fill="#f0f0d2"/>

    <rect x="3635.0" y="3760.0" width="30.0" height="30.0" stroke="black" stroke-width="1" id="153" onclick="ow3.nodeClick(this)" fill="#f0f0d2"/>

    <rect x="360.0" y="4110.0" width="30.0" height="30.0" stroke="black" stroke-width="1" id="154" onclick="ow3.nodeClick(this)" fill="#f0f0d2"/>

    <rect x="3185.0" y="360.0" width="30.0" height="30.0" stroke="black" stroke-width="1" id="155" onclick="ow3.nodeClick(this)" fill="#f0f0d2"/>

    <rect x="3185.0" y="285.0" width="30.0" height="30.0" stroke="black" stroke-width="1" id="156" onclick="ow3.nodeClick(this)" fill="#f0f0d2"/>

    <rect x="3185.0" y="435.0" width="30.0" height="30.0" stroke="black" stroke-width="1" id="157" onclick="ow3.nodeClick(this)" fill="#f0f0d2"/>

    <rect x="3560.0" y="3935.0" width="30.0" height="30.0" stroke="black" stroke-width="1" id="158" onclick="ow3.nodeClick(this)" fill="#f0f0d2"/>

    <rect x="2510.0" y="2985.0" width="30.0" height="30.0" stroke="black" stroke-width="1" id="159" onclick="ow3.nodeClick(this)" fill="#f0f0d2"/>

    <rect x="3185.0" y="1260.0" width="30.0" height="30.0" stroke="black" stroke-width="1" id="160" onclick="ow3.nodeClick(this)" fill="#f0f0d2"/>

    <rect x="1035.0" y="4110.0" width="30.0" height="30.0" stroke="black" stroke-width="1" id="161" onclick="ow3.nodeClick(this)" fill="#f0f0d2"/>

    <rect x="735.0" y="4485.0" width="30.0" height="30.0" stroke="black" stroke-width="1" id="162" onclick="ow3.nodeClick(this)" fill="#f0f0d2"/>

    <rect x="3485.0" y="3510.0" width="30.0" height="30.0" stroke="black" stroke-width="1" id="163" onclick="ow3.nodeClick(this)" fill="#f0f0d2"/>

    <rect x="1110.0" y="4110.0" width="30.0" height="30.0" stroke="black" stroke-width="1" id="164" onclick="ow3.nodeClick(this)" fill="#f0f0d2"/>

    <rect x="2060.0" y="3085.0" width="30.0" height="30.0" stroke="black" stroke-width="1" id="165" onclick="ow3.nodeClick(this)" fill="#f0f0d2"/>

    <rect x="210.0" y="4110.0" width="30.0" height="30.0" stroke="black" stroke-width="1" id="166" onclick="ow3.nodeClick(this)" fill="#f0f0d2"/>

    <rect x="2810.0" y="2010.0" width="30.0" height="30.0" stroke="black" stroke-width="1" id="167" onclick="ow3.nodeClick(this)" fill="#f0f0d2"/>

    <rect x="3185.0" y="1185.0" width="30.0" height="30.0" stroke="black" stroke-width="1" id="168" onclick="ow3.nodeClick(this)" fill="#f0f0d2"/>

    <rect x="3185.0" y="2985.0" width="30.0" height="30.0" stroke="black" stroke-width="1" id="169" onclick="ow3.nodeClick(this)" fill="#f0f0d2"/>

    <rect x="3185.0" y="1485.0" width="30.0" height="30.0" stroke="black" stroke-width="1" id="170" onclick="ow3.nodeClick(this)" fill="#f0f0d2"/>

    <rect x="1710.0" y="35.0" width="30.0" height="30.0" stroke="black" stroke-width="1" id="171" onclick="ow3.nodeClick(this)" fill="#f0f0d2"/>

    <rect x="3685.0" y="3535.0" width="30.0" height="30.0" stroke="black" stroke-width="1" id="172" onclick="ow3.nodeClick(this)" fill="#f0f0d2"/>

</g>
</g>
</svg>
