<svg id="SVGCanvas" width="480px" height="270px" xmlns="http://www.w3.org/2000/svg" xmlns:xlink="http://www.w3.org/1999/xlink" onmouseup="null" onmousemove="null">
<rect id="background" x="0" y="0" height="100%" width="100%" fill="#bdbddf" onmousedown="bgmousedown(evt)"></rect>
<g id="foreground" transform="translate(71.1371237458194,0),scale(0.903010033444816),translate(-387,-193)">
  <g id="edges"><g id="328"><path style="stroke:#bdbddf; stroke-width:8px; fill:none;" opacity="0.7" d="M 728,447L 728,302"></path><g><path style="stroke:#ff0; stroke-width:8px; fill:none; " opacity="0" d="M 728,447L 728,302"></path></g><path style="stroke:black; fill:none;" d="M 728,447L 728,302"></path><g><g><path style="stroke:#0ff; stroke-width:8px; fill:none; " opacity="0" d="M 728,447 L 728,302" onmousedown="segmousedown(&quot;328&quot;,&quot;0&quot;,evt);" onmouseover="segmouseover(&quot;328&quot;,&quot;0&quot;,evt);" onmouseout="segmouseout(&quot;328&quot;,&quot;0&quot;,evt);" onclick="segclick(&quot;328&quot;,&quot;0&quot;,evt);"></path></g></g></g><g id="329"><path style="stroke:#bdbddf; stroke-width:8px; fill:none;" opacity="0.7" d="M 731,302L 731,231"></path><g><path style="stroke:#ff0; stroke-width:8px; fill:none; " opacity="0" d="M 731,302L 731,231"></path></g><path style="stroke:black; fill:none;" d="M 731,302L 731,231"></path><g><g><path style="stroke:#0ff; stroke-width:8px; fill:none; " opacity="0" d="M 731,302 L 731,231" onmousedown="segmousedown(&quot;329&quot;,&quot;0&quot;,evt);" onmouseover="segmouseover(&quot;329&quot;,&quot;0&quot;,evt);" onmouseout="segmouseout(&quot;329&quot;,&quot;0&quot;,evt);" onclick="segclick(&quot;329&quot;,&quot;0&quot;,evt);"></path></g></g></g><g id="330"><path style="stroke:#bdbddf; stroke-width:8px; fill:none;" opacity="0.7" d="M 432,462L 728,462"></path><g><path style="stroke:#ff0; stroke-width:8px; fill:none; " opacity="0" d="M 432,462L 728,462"></path></g><path style="stroke:black; fill:none;" d="M 432,462L 728,462"></path><g><g><path style="stroke:#0ff; stroke-width:8px; fill:none; " opacity="0" d="M 432,462 L 728,462" onmousedown="segmousedown(&quot;330&quot;,&quot;0&quot;,evt);" onmouseover="segmouseover(&quot;330&quot;,&quot;0&quot;,evt);" onmouseout="segmouseout(&quot;330&quot;,&quot;0&quot;,evt);" onclick="segclick(&quot;330&quot;,&quot;0&quot;,evt);"></path></g></g></g>

<g id="331"><path style="stroke:#bdbddf; stroke-width:8px; fill:none;" opacity="0.7" d="M 731,223 H 429 a 12,12 0 0,0 -12,12L 417,447"></path><g><path style="stroke:#ff0; stroke-width:8px; fill:none; " opacity="0" d="M 731,223 H 429 a 12,12 0 0,0 -12,12L 417,447"></path></g>

<path style="stroke:none; fill:none;" d="M 731,223 H 429 a 12,12 0 0,0 -12,12L 417,447"></path>

<g><g><path style="stroke:#0ff; stroke-width:8px; fill:none; " opacity="0" d="M 731,223 L 417,223" onmousedown="segmousedown(&quot;331&quot;,&quot;0&quot;,evt);" onmouseover="segmouseover(&quot;331&quot;,&quot;0&quot;,evt);" onmouseout="segmouseout(&quot;331&quot;,&quot;0&quot;,evt);" onclick="segclick(&quot;331&quot;,&quot;0&quot;,evt);"></path><path style="stroke:#0ff; stroke-width:8px; fill:none; " opacity="0" d="M 417,223 L 417,447" onmousedown="segmousedown(&quot;331&quot;,&quot;1&quot;,evt);" onmouseover="segmouseover(&quot;331&quot;,&quot;1&quot;,evt);" onmouseout="segmouseout(&quot;331&quot;,&quot;1&quot;,evt);" onclick="segclick(&quot;331&quot;,&quot;1&quot;,evt);"></path></g></g></g>

<g id="332"><path style="stroke:#bdbddf; stroke-width:8px; fill:none;" opacity="0.7" d="M 549,355 H 623 a 12,12 0 0,0 12,-12 V 255 a 12,12 0 0,1 12,-12L 721,243"></path><g><path style="stroke:#ff0; stroke-width:8px; fill:none; " opacity="0" d="M 549,355 H 623 a 12,12 0 0,0 12,-12 V 255 a 12,12 0 0,1 12,-12L 721,243"></path></g><path style="stroke:black; fill:none;" d="M 549,355 H 623 a 12,12 0 0,0 12,-12 V 255 a 12,12 0 0,1 12,-12L 721,243"></path><g><g><path style="stroke:#0ff; stroke-width:8px; fill:none; " opacity="0" d="M 549,355 L 635,355" onmousedown="segmousedown(&quot;332&quot;,&quot;0&quot;,evt);" onmouseover="segmouseover(&quot;332&quot;,&quot;0&quot;,evt);" onmouseout="segmouseout(&quot;332&quot;,&quot;0&quot;,evt);" onclick="segclick(&quot;332&quot;,&quot;0&quot;,evt);"></path><path style="stroke:#0ff; stroke-width:8px; fill:none; " opacity="0" d="M 635,355 L 635,243" onmousedown="segmousedown(&quot;332&quot;,&quot;1&quot;,evt);" onmouseover="segmouseover(&quot;332&quot;,&quot;1&quot;,evt);" onmouseout="segmouseout(&quot;332&quot;,&quot;1&quot;,evt);" onclick="segclick(&quot;332&quot;,&quot;1&quot;,evt);"></path><path style="stroke:#0ff; stroke-width:8px; fill:none; " opacity="0" d="M 635,243 L 721,243" onmousedown="segmousedown(&quot;332&quot;,&quot;2&quot;,evt);" onmouseover="segmouseover(&quot;332&quot;,&quot;2&quot;,evt);" onmouseout="segmouseout(&quot;332&quot;,&quot;2&quot;,evt);" onclick="segclick(&quot;332&quot;,&quot;2&quot;,evt);"></path></g></g></g><g id="333"><path style="stroke:#bdbddf; stroke-width:8px; fill:none;" opacity="0.7" d="M 549,340 V 308 a 12,12 0 0,0 -12,-12L 480,296"></path><g><path style="stroke:#ff0; stroke-width:8px; fill:none; " opacity="0" d="M 549,340 V 308 a 12,12 0 0,0 -12,-12L 480,296"></path></g><path style="stroke:black; fill:none;" d="M 549,340 V 308 a 12,12 0 0,0 -12,-12L 480,296"></path><g><g><path style="stroke:#0ff; stroke-width:8px; fill:none; " opacity="0" d="M 549,340 L 549,296" onmousedown="segmousedown(&quot;333&quot;,&quot;0&quot;,evt);" onmouseover="segmouseover(&quot;333&quot;,&quot;0&quot;,evt);" onmouseout="segmouseout(&quot;333&quot;,&quot;0&quot;,evt);" onclick="segclick(&quot;333&quot;,&quot;0&quot;,evt);"></path><path style="stroke:#0ff; stroke-width:8px; fill:none; " opacity="0" d="M 549,296 L 480,296" onmousedown="segmousedown(&quot;333&quot;,&quot;1&quot;,evt);" onmouseover="segmouseover(&quot;333&quot;,&quot;1&quot;,evt);" onmouseout="segmouseout(&quot;333&quot;,&quot;1&quot;,evt);" onclick="segclick(&quot;333&quot;,&quot;1&quot;,evt);"></path></g></g></g><g id="334"><path style="stroke:#bdbddf; stroke-width:8px; fill:none;" opacity="0.7" d="M 480,287L 584,287"></path><g><path style="stroke:#ff0; stroke-width:8px; fill:none; " opacity="0" d="M 480,287L 584,287"></path></g><path style="stroke:black; fill:none;" d="M 480,287L 584,287"></path><g><g><path style="stroke:#0ff; stroke-width:8px; fill:none; " opacity="0" d="M 480,287 L 584,287" onmousedown="segmousedown(&quot;334&quot;,&quot;0&quot;,evt);" onmouseover="segmouseover(&quot;334&quot;,&quot;0&quot;,evt);" onmouseout="segmouseout(&quot;334&quot;,&quot;0&quot;,evt);" onclick="segclick(&quot;334&quot;,&quot;0&quot;,evt);"></path></g></g></g><g id="335"><path style="stroke:#bdbddf; stroke-width:8px; fill:none;" opacity="0.7" d="M 472,272 V 235 a 12,12 0 0,0 -12,-12L 421,223"></path><g><path style="stroke:#ff0; stroke-width:8px; fill:none; " opacity="0" d="M 472,272 V 235 a 12,12 0 0,0 -12,-12L 421,223"></path></g><path style="stroke:black; fill:none;" d="M 472,272 V 235 a 12,12 0 0,0 -12,-12L 421,223"></path><g><g><path style="stroke:#0ff; stroke-width:8px; fill:none; " opacity="0" d="M 472,272 L 472,223" onmousedown="segmousedown(&quot;335&quot;,&quot;0&quot;,evt);" onmouseover="segmouseover(&quot;335&quot;,&quot;0&quot;,evt);" onmouseout="segmouseout(&quot;335&quot;,&quot;0&quot;,evt);" onclick="segclick(&quot;335&quot;,&quot;0&quot;,evt);"></path><path style="stroke:#0ff; stroke-width:8px; fill:none; " opacity="0" d="M 472,223 L 421,223" onmousedown="segmousedown(&quot;335&quot;,&quot;1&quot;,evt);" onmouseover="segmouseover(&quot;335&quot;,&quot;1&quot;,evt);" onmouseout="segmouseout(&quot;335&quot;,&quot;1&quot;,evt);" onclick="segclick(&quot;335&quot;,&quot;1&quot;,evt);"></path></g></g></g><g id="336"><path style="stroke:#bdbddf; stroke-width:8px; fill:none;" opacity="0.7" d="M 549,355L 485,355"></path><g><path style="stroke:#ff0; stroke-width:8px; fill:none; " opacity="0" d="M 549,355L 485,355"></path></g><path style="stroke:black; fill:none;" d="M 549,355L 485,355"></path><g><g><path style="stroke:#0ff; stroke-width:8px; fill:none; " opacity="0" d="M 549,355 L 485,355" onmousedown="segmousedown(&quot;336&quot;,&quot;0&quot;,evt);" onmouseover="segmouseover(&quot;336&quot;,&quot;0&quot;,evt);" onmouseout="segmouseout(&quot;336&quot;,&quot;0&quot;,evt);" onclick="segclick(&quot;336&quot;,&quot;0&quot;,evt);"></path></g></g></g><g id="337"><path style="stroke:#bdbddf; stroke-width:8px; fill:none;" opacity="0.7" d="M 549,355L 549,416"></path><g><path style="stroke:#ff0; stroke-width:8px; fill:none; " opacity="0" d="M 549,355L 549,416"></path></g><path style="stroke:black; fill:none;" d="M 549,355L 549,416"></path><g><g><path style="stroke:#0ff; stroke-width:8px; fill:none; " opacity="0" d="M 549,355 L 549,416" onmousedown="segmousedown(&quot;337&quot;,&quot;0&quot;,evt);" onmouseover="segmouseover(&quot;337&quot;,&quot;0&quot;,evt);" onmouseout="segmouseout(&quot;337&quot;,&quot;0&quot;,evt);" onclick="segclick(&quot;337&quot;,&quot;0&quot;,evt);"></path></g></g></g></g>
  <g id="nodes"><g id="320" onmousedown="nodemousedown(320,evt);" onmouseover="nodemouseover(320,evt);" onmouseout="nodemouseout(320,evt);" transform="translate(728 302)"><rect x="-21" y="-21" width="42" height="42" fill="#0ff" style="stroke:none; opacity:0.75;" display="none"></rect><rect x="-15" y="-15" width="30" height="30" fill="#f0f0d2" style="stroke:black; opacity:1;"></rect></g><g id="321" onmousedown="nodemousedown(321,evt);" onmouseover="nodemouseover(321,evt);" onmouseout="nodemouseout(321,evt);" transform="translate(731 231)"><rect x="-21" y="-21" width="42" height="42" fill="#0ff" style="stroke:none; opacity:0.75;" display="none"></rect><rect x="-15" y="-15" width="30" height="30" fill="#f0f0d2" style="stroke:black; opacity:1;"></rect></g><g id="326" onmousedown="nodemousedown(326,evt);" onmouseover="nodemouseover(326,evt);" onmouseout="nodemouseout(326,evt);" transform="translate(421,223)"><rect x="-21" y="-21" width="42" height="42" fill="#0ff" style="stroke:none; opacity:0.75;" display="none"></rect><rect x="-15" y="-15" width="30" height="30" fill="#f0f0d2" style="stroke:black; opacity:1;"></rect></g><g id="318" onmousedown="nodemousedown(318,evt);" onmouseover="nodemouseover(318,evt);" onmouseout="nodemouseout(318,evt);" transform="translate(417,462)"><rect x="-21" y="-21" width="42" height="42" fill="#0ff" style="stroke:none; opacity:0.75;" display="none"></rect><rect x="-15" y="-15" width="30" height="30" fill="#f0f0d2" style="stroke:black; opacity:1;"></rect></g><g id="319" onmousedown="nodemousedown(319,evt);" onmouseover="nodemouseover(319,evt);" onmouseout="nodemouseout(319,evt);" transform="translate(728,462)"><rect x="-21" y="-21" width="42" height="42" fill="#0ff" style="stroke:none; opacity:0.75;" display="none"></rect><rect x="-15" y="-15" width="30" height="30" fill="#f0f0d2" style="stroke:black; opacity:1;"></rect></g><g id="323" onmousedown="nodemousedown(323,evt);" onmouseover="nodemouseover(323,evt);" onmouseout="nodemouseout(323,evt);" transform="translate(465,287)"><rect x="-21" y="-21" width="42" height="42" fill="#0ff" style="stroke:none; opacity:0.75;" display="none"></rect><rect x="-15" y="-15" width="30" height="30" fill="#f0f0d2" style="stroke:black; opacity:1;"></rect></g><g id="322" onmousedown="nodemousedown(322,evt);" onmouseover="nodemouseover(322,evt);" onmouseout="nodemouseout(322,evt);" transform="translate(549 355)"><rect x="-21" y="-21" width="42" height="42" fill="#0ff" style="stroke:none; opacity:0.75;" display="none"></rect><rect x="-15" y="-15" width="30" height="30" fill="#f0f0d2" style="stroke:black; opacity:1;"></rect></g><g id="324" onmousedown="nodemousedown(324,evt);" onmouseover="nodemouseover(324,evt);" onmouseout="nodemouseout(324,evt);" transform="translate(470,355)"><rect x="-21" y="-21" width="42" height="42" fill="#0ff" style="stroke:none; opacity:0.75;" display="none"></rect><rect x="-15" y="-15" width="30" height="30" fill="#f0f0d2" style="stroke:black; opacity:1;"></rect></g><g id="327" onmousedown="nodemousedown(327,evt);" onmouseover="nodemouseover(327,evt);" onmouseout="nodemouseout(327,evt);" transform="translate(550,431)"><rect x="-21" y="-21" width="42" height="42" fill="#0ff" style="stroke:none; opacity:0.75;" display="none"></rect><rect x="-15" y="-15" width="30" height="30" fill="#f0f0d2" style="stroke:black; opacity:1;"></rect></g><g id="325" onmousedown="nodemousedown(325,evt);" onmouseover="nodemouseover(325,evt);" onmouseout="nodemouseout(325,evt);" transform="translate(599,287)"><rect x="-21" y="-21" width="42" height="42" fill="#0ff" style="stroke:none; opacity:0.75;" display="none"></rect><rect x="-15" y="-15" width="30" height="30" fill="#f0f0d2" style="stroke:black; opacity:1;"></rect></g></g>
  <g id="BPs"><g onmousedown="bpmousedown(351,evt);" onmouseover="bpmouseover(351,evt);" onmouseout="bpmouseout(351,evt);" transform="translate(417,223)" opacity="0"><ellipse cx="0" cy="0" rx="16" ry="16" fill="#0ff" style="stroke:none; opacity:0.75;" display="none"></ellipse><ellipse cx="0" cy="0" rx="5.132188731375618" ry="5.132188731375618" fill="#777" style="stroke:black;"></ellipse></g><g onmousedown="bpmousedown(354,evt);" onmouseover="bpmouseover(354,evt);" onmouseout="bpmouseout(354,evt);" transform="translate(635 355)" opacity="0"><ellipse cx="0" cy="0" rx="16" ry="16" fill="#0ff" style="stroke:none; opacity:0.75;" display="none"></ellipse><ellipse cx="0" cy="0" rx="5.132188731375618" ry="5.132188731375618" fill="#777" style="stroke:black;"></ellipse></g><g onmousedown="bpmousedown(355,evt);" onmouseover="bpmouseover(355,evt);" onmouseout="bpmouseout(355,evt);" transform="translate(635 243)" opacity="0"><ellipse cx="0" cy="0" rx="16" ry="16" fill="#0ff" style="stroke:none; opacity:0.75;" display="none"></ellipse><ellipse cx="0" cy="0" rx="5.132188731375618" ry="5.132188731375618" fill="#777" style="stroke:black;"></ellipse></g><g onmousedown="bpmousedown(358,evt);" onmouseover="bpmouseover(358,evt);" onmouseout="bpmouseout(358,evt);" transform="translate(549,296)" opacity="0"><ellipse cx="0" cy="0" rx="16" ry="16" fill="#0ff" style="stroke:none; opacity:0.75;" display="none"></ellipse><ellipse cx="0" cy="0" rx="5.132188731375618" ry="5.132188731375618" fill="#777" style="stroke:black;"></ellipse></g><g onmousedown="bpmousedown(364,evt);" onmouseover="bpmouseover(364,evt);" onmouseout="bpmouseout(364,evt);" transform="translate(472,223)" opacity="0"><ellipse cx="0" cy="0" rx="16" ry="16" fill="#0ff" style="stroke:none; opacity:0.75;" display="none"></ellipse><ellipse cx="0" cy="0" rx="5.132188731375618" ry="5.132188731375618" fill="#777" style="stroke:black;"></ellipse></g></g>
  <g id="ports"></g>
  <path style="stroke:black; fill:none;" d="M 716,223 H 429 a 12,12 0 0,0 -12,12L 417,447"></path>
</g>
</svg>
