<svg id="SVGCanvas" width="480px" height="270px" xmlns="http://www.w3.org/2000/svg" xmlns:xlink="http://www.w3.org/1999/xlink" onmouseup="null" onmousemove="null">
<rect id="background" x="0" y="0" height="100%" width="100%" fill="#bdbddf" onmousedown="bgmousedown(evt)"></rect>
<g id="foreground" transform="translate(39.045801526717554,0),scale(1.0305343511450382),translate(-172,-285)">
  <g id="edges"><g id="305"><path style="stroke:#bdbddf; stroke-width:8px; fill:none;" opacity="0.7" d="M 217,309L 517,309"></path><g><path style="stroke:#ff0; stroke-width:8px; fill:none; " opacity="0" d="M 217,309L 517,309"></path></g><path style="stroke:black; fill:none;" d="M 217,309L 517,309"></path><g><g><path style="stroke:#0ff; stroke-width:8px; fill:none; " opacity="0" d="M 217,309 L 517,309" onmousedown="segmousedown(&quot;305&quot;,&quot;0&quot;,evt);" onmouseover="segmouseover(&quot;305&quot;,&quot;0&quot;,evt);" onmouseout="segmouseout(&quot;305&quot;,&quot;0&quot;,evt);" onclick="segclick(&quot;305&quot;,&quot;0&quot;,evt);"></path></g></g></g><g id="306"><path style="stroke:#bdbddf; stroke-width:8px; fill:none;" opacity="0.7" d="M 532,330L 532,502"></path><g><path style="stroke:#ff0; stroke-width:8px; fill:none; " opacity="0" d="M 532,330L 532,502"></path></g><path style="stroke:black; fill:none;" d="M 532,330L 532,502"></path><g><g><path style="stroke:#0ff; stroke-width:8px; fill:none; " opacity="0" d="M 532,330 L 532,502" onmousedown="segmousedown(&quot;306&quot;,&quot;0&quot;,evt);" onmouseover="segmouseover(&quot;306&quot;,&quot;0&quot;,evt);" onmouseout="segmouseout(&quot;306&quot;,&quot;0&quot;,evt);" onclick="segclick(&quot;306&quot;,&quot;0&quot;,evt);"></path></g></g></g><g id="307"><path style="stroke:#bdbddf; stroke-width:8px; fill:none;" opacity="0.7" d="M 532,517L 331,517"></path><g><path style="stroke:#ff0; stroke-width:8px; fill:none; " opacity="0" d="M 532,517L 331,517"></path></g><path style="stroke:black; fill:none;" d="M 532,517L 331,517"></path><g><g><path style="stroke:#0ff; stroke-width:8px; fill:none; " opacity="0" d="M 532,517 L 331,517" onmousedown="segmousedown(&quot;307&quot;,&quot;0&quot;,evt);" onmouseover="segmouseover(&quot;307&quot;,&quot;0&quot;,evt);" onmouseout="segmouseout(&quot;307&quot;,&quot;0&quot;,evt);" onclick="segclick(&quot;307&quot;,&quot;0&quot;,evt);"></path></g></g></g><g id="308"><path style="stroke:#bdbddf; stroke-width:8px; fill:none;" opacity="0.7" d="M 301,517L 217,517"></path><g><path style="stroke:#ff0; stroke-width:8px; fill:none; " opacity="0" d="M 301,517L 217,517"></path></g><path style="stroke:black; fill:none;" d="M 301,517L 217,517"></path><g><g><path style="stroke:#0ff; stroke-width:8px; fill:none; " opacity="0" d="M 301,517 L 217,517" onmousedown="segmousedown(&quot;308&quot;,&quot;0&quot;,evt);" onmouseover="segmouseover(&quot;308&quot;,&quot;0&quot;,evt);" onmouseout="segmouseout(&quot;308&quot;,&quot;0&quot;,evt);" onclick="segclick(&quot;308&quot;,&quot;0&quot;,evt);"></path></g></g></g><g id="309"><path style="stroke:#bdbddf; stroke-width:8px; fill:none;" opacity="0.7" d="M 202,502L 202,403"></path><g><path style="stroke:#ff0; stroke-width:8px; fill:none; " opacity="0" d="M 202,502L 202,403"></path></g><path style="stroke:black; fill:none;" d="M 202,502L 202,403"></path><g><g><path style="stroke:#0ff; stroke-width:8px; fill:none; " opacity="0" d="M 202,502 L 202,403" onmousedown="segmousedown(&quot;309&quot;,&quot;0&quot;,evt);" onmouseover="segmouseover(&quot;309&quot;,&quot;0&quot;,evt);" onmouseout="segmouseout(&quot;309&quot;,&quot;0&quot;,evt);" onclick="segclick(&quot;309&quot;,&quot;0&quot;,evt);"></path></g></g></g><g id="310"><path style="stroke:#bdbddf; stroke-width:8px; fill:none;" opacity="0.7" d="M 202,403L 202,330"></path><g><path style="stroke:#ff0; stroke-width:8px; fill:none; " opacity="0" d="M 202,403L 202,330"></path></g><path style="stroke:black; fill:none;" d="M 202,403L 202,330"></path><g><g><path style="stroke:#0ff; stroke-width:8px; fill:none; " opacity="0" d="M 202,403 L 202,330" onmousedown="segmousedown(&quot;310&quot;,&quot;0&quot;,evt);" onmouseover="segmouseover(&quot;310&quot;,&quot;0&quot;,evt);" onmouseout="segmouseout(&quot;310&quot;,&quot;0&quot;,evt);" onclick="segclick(&quot;310&quot;,&quot;0&quot;,evt);"></path></g></g></g><g id="311"><path style="stroke:#bdbddf; stroke-width:8px; fill:none;" opacity="0.7" d="M 202,403L 317,403"></path><g><path style="stroke:#ff0; stroke-width:8px; fill:none; " opacity="0" d="M 202,403L 317,403"></path></g><path style="stroke:black; fill:none;" d="M 202,403L 317,403"></path><g><g><path style="stroke:#0ff; stroke-width:8px; fill:none; " opacity="0" d="M 202,403 L 317,403" onmousedown="segmousedown(&quot;311&quot;,&quot;0&quot;,evt);" onmouseover="segmouseover(&quot;311&quot;,&quot;0&quot;,evt);" onmouseout="segmouseout(&quot;311&quot;,&quot;0&quot;,evt);" onclick="segclick(&quot;311&quot;,&quot;0&quot;,evt);"></path></g></g></g><g id="312"><path style="stroke:#bdbddf; stroke-width:8px; fill:none;" opacity="0.7" d="M 467,406L 467,452"></path><g><path style="stroke:#ff0; stroke-width:8px; fill:none; " opacity="0" d="M 467,406L 467,452"></path></g><path style="stroke:black; fill:none;" d="M 467,406L 467,452"></path><g><g><path style="stroke:#0ff; stroke-width:8px; fill:none; " opacity="0" d="M 467,406 L 467,452" onmousedown="segmousedown(&quot;312&quot;,&quot;0&quot;,evt);" onmouseover="segmouseover(&quot;312&quot;,&quot;0&quot;,evt);" onmouseout="segmouseout(&quot;312&quot;,&quot;0&quot;,evt);" onclick="segclick(&quot;312&quot;,&quot;0&quot;,evt);"></path></g></g></g><g id="313"><path style="stroke:#bdbddf; stroke-width:8px; fill:none;" opacity="0.7" d="M 452,476L 408,476"></path><g><path style="stroke:#ff0; stroke-width:8px; fill:none; " opacity="0" d="M 452,476L 408,476"></path></g><path style="stroke:black; fill:none;" d="M 452,476L 408,476"></path><g><g><path style="stroke:#0ff; stroke-width:8px; fill:none; " opacity="0" d="M 452,476 L 408,476" onmousedown="segmousedown(&quot;313&quot;,&quot;0&quot;,evt);" onmouseover="segmouseover(&quot;313&quot;,&quot;0&quot;,evt);" onmouseout="segmouseout(&quot;313&quot;,&quot;0&quot;,evt);" onclick="segclick(&quot;313&quot;,&quot;0&quot;,evt);"></path></g></g></g><g id="314"><path style="stroke:#bdbddf; stroke-width:8px; fill:none;" opacity="0.7" d="M 447,391L 409,391"></path><g><path style="stroke:#ff0; stroke-width:8px; fill:none; " opacity="0" d="M 447,391L 409,391"></path></g><path style="stroke:black; fill:none;" d="M 447,391L 409,391"></path><g><g><path style="stroke:#0ff; stroke-width:8px; fill:none; " opacity="0" d="M 447,391 L 409,391" onmousedown="segmousedown(&quot;314&quot;,&quot;0&quot;,evt);" onmouseover="segmouseover(&quot;314&quot;,&quot;0&quot;,evt);" onmouseout="segmouseout(&quot;314&quot;,&quot;0&quot;,evt);" onclick="segclick(&quot;314&quot;,&quot;0&quot;,evt);"></path></g></g></g><g id="315"><path style="stroke:#bdbddf; stroke-width:8px; fill:none;" opacity="0.7" d="M 517,321 H 501 a 12,12 0 0,0 -12,12 V 385 a 6,6 0 0,1 -6,6L 477,391"></path><g><path style="stroke:#ff0; stroke-width:8px; fill:none; " opacity="0" d="M 517,321 H 501 a 12,12 0 0,0 -12,12 V 385 a 6,6 0 0,1 -6,6L 477,391"></path></g><path style="stroke:black; fill:none;" d="M 517,321 H 501 a 12,12 0 0,0 -12,12 V 385 a 6,6 0 0,1 -6,6L 477,391"></path><g><g><path style="stroke:#0ff; stroke-width:8px; fill:none; " opacity="0" d="M 517,321 L 489,321" onmousedown="segmousedown(&quot;315&quot;,&quot;0&quot;,evt);" onmouseover="segmouseover(&quot;315&quot;,&quot;0&quot;,evt);" onmouseout="segmouseout(&quot;315&quot;,&quot;0&quot;,evt);" onclick="segclick(&quot;315&quot;,&quot;0&quot;,evt);"></path><path style="stroke:#0ff; stroke-width:8px; fill:none; " opacity="0" d="M 489,321 L 489,391" onmousedown="segmousedown(&quot;315&quot;,&quot;1&quot;,evt);" onmouseover="segmouseover(&quot;315&quot;,&quot;1&quot;,evt);" onmouseout="segmouseout(&quot;315&quot;,&quot;1&quot;,evt);" onclick="segclick(&quot;315&quot;,&quot;1&quot;,evt);"></path><path style="stroke:#0ff; stroke-width:8px; fill:none; " opacity="0" d="M 489,391 L 477,391" onmousedown="segmousedown(&quot;315&quot;,&quot;2&quot;,evt);" onmouseover="segmouseover(&quot;315&quot;,&quot;2&quot;,evt);" onmouseout="segmouseout(&quot;315&quot;,&quot;2&quot;,evt);" onclick="segclick(&quot;315&quot;,&quot;2&quot;,evt);"></path></g></g></g><g id="316"><path style="stroke:#bdbddf; stroke-width:8px; fill:none;" opacity="0.7" d="M 317,418L 317,502"></path><g><path style="stroke:#ff0; stroke-width:8px; fill:none; " opacity="0" d="M 317,418L 317,502"></path></g><path style="stroke:black; fill:none;" d="M 317,418L 317,502"></path><g><g><path style="stroke:#0ff; stroke-width:8px; fill:none; " opacity="0" d="M 317,418 L 317,502" onmousedown="segmousedown(&quot;316&quot;,&quot;0&quot;,evt);" onmouseover="segmouseover(&quot;316&quot;,&quot;0&quot;,evt);" onmouseout="segmouseout(&quot;316&quot;,&quot;0&quot;,evt);" onclick="segclick(&quot;316&quot;,&quot;0&quot;,evt);"></path></g></g></g><g id="317"><path style="stroke:#bdbddf; stroke-width:8px; fill:none;" opacity="0.7" d="M 452,457 H 440.5 a 7.5,7.5 0 0,1 -7.5,-7.5 V 449.5 a 7.5,7.5 0 0,0 -7.5,-7.5L 409,442"></path><g><path style="stroke:#ff0; stroke-width:8px; fill:none; " opacity="0" d="M 452,457 H 440.5 a 7.5,7.5 0 0,1 -7.5,-7.5 V 449.5 a 7.5,7.5 0 0,0 -7.5,-7.5L 409,442"></path></g><path style="stroke:black; fill:none;" d="M 452,457 H 440.5 a 7.5,7.5 0 0,1 -7.5,-7.5 V 449.5 a 7.5,7.5 0 0,0 -7.5,-7.5L 409,442"></path><g><g><path style="stroke:#0ff; stroke-width:8px; fill:none; " opacity="0" d="M 452,457 L 433,457" onmousedown="segmousedown(&quot;317&quot;,&quot;0&quot;,evt);" onmouseover="segmouseover(&quot;317&quot;,&quot;0&quot;,evt);" onmouseout="segmouseout(&quot;317&quot;,&quot;0&quot;,evt);" onclick="segclick(&quot;317&quot;,&quot;0&quot;,evt);"></path><path style="stroke:#0ff; stroke-width:8px; fill:none; " opacity="0" d="M 433,457 L 433,442" onmousedown="segmousedown(&quot;317&quot;,&quot;1&quot;,evt);" onmouseover="segmouseover(&quot;317&quot;,&quot;1&quot;,evt);" onmouseout="segmouseout(&quot;317&quot;,&quot;1&quot;,evt);" onclick="segclick(&quot;317&quot;,&quot;1&quot;,evt);"></path><path style="stroke:#0ff; stroke-width:8px; fill:none; " opacity="0" d="M 433,442 L 409,442" onmousedown="segmousedown(&quot;317&quot;,&quot;2&quot;,evt);" onmouseover="segmouseover(&quot;317&quot;,&quot;2&quot;,evt);" onmouseout="segmouseout(&quot;317&quot;,&quot;2&quot;,evt);" onclick="segclick(&quot;317&quot;,&quot;2&quot;,evt);"></path></g></g></g></g>
  <g id="nodes"><g id="297" onmousedown="nodemousedown(297,evt);" onmouseover="nodemouseover(297,evt);" onmouseout="nodemouseout(297,evt);" transform="translate(202 403)"><rect x="-21" y="-21" width="42" height="42" fill="#0ff" style="stroke:none; opacity:0.75;" display="none"></rect><rect x="-15" y="-15" width="30" height="30" fill="#f0f0d2" style="stroke:black; opacity:1;"></rect></g><g id="303" onmousedown="nodemousedown(303,evt);" onmouseover="nodemouseover(303,evt);" onmouseout="nodemouseout(303,evt);" transform="translate(393,476)"><rect x="-21" y="-21" width="42" height="42" fill="#0ff" style="stroke:none; opacity:0.75;" display="none"></rect><rect x="-15" y="-15" width="30" height="30" fill="#f0f0d2" style="stroke:black; opacity:1;"></rect></g><g id="304" onmousedown="nodemousedown(304,evt);" onmouseover="nodemouseover(304,evt);" onmouseout="nodemouseout(304,evt);" transform="translate(394,436)"><rect x="-21" y="-21" width="42" height="42" fill="#0ff" style="stroke:none; opacity:0.75;" display="none"></rect><rect x="-15" y="-15" width="30" height="30" fill="#f0f0d2" style="stroke:black; opacity:1;"></rect></g><g id="295" onmousedown="nodemousedown(295,evt);" onmouseover="nodemouseover(295,evt);" onmouseout="nodemouseout(295,evt);" transform="translate(202,517)"><rect x="-21" y="-21" width="42" height="42" fill="#0ff" style="stroke:none; opacity:0.75;" display="none"></rect><rect x="-15" y="-15" width="30" height="30" fill="#f0f0d2" style="stroke:black; opacity:1;"></rect></g><g id="301" onmousedown="nodemousedown(301,evt);" onmouseover="nodemouseover(301,evt);" onmouseout="nodemouseout(301,evt);" transform="translate(394,389)"><rect x="-21" y="-21" width="42" height="42" fill="#0ff" style="stroke:none; opacity:0.75;" display="none"></rect><rect x="-15" y="-15" width="30" height="30" fill="#f0f0d2" style="stroke:black; opacity:1;"></rect></g><g id="302" onmousedown="nodemousedown(302,evt);" onmouseover="nodemouseover(302,evt);" onmouseout="nodemouseout(302,evt);" transform="translate(467,467)"><rect x="-21" y="-21" width="42" height="42" fill="#0ff" style="stroke:none; opacity:0.75;" display="none"></rect><rect x="-15" y="-15" width="30" height="30" fill="#f0f0d2" style="stroke:black; opacity:1;"></rect></g><g id="298" onmousedown="nodemousedown(298,evt);" onmouseover="nodemouseover(298,evt);" onmouseout="nodemouseout(298,evt);" transform="translate(317,403)"><rect x="-21" y="-21" width="42" height="42" fill="#0ff" style="stroke:none; opacity:0.75;" display="none"></rect><rect x="-15" y="-15" width="30" height="30" fill="#f0f0d2" style="stroke:black; opacity:1;"></rect></g><g id="299" onmousedown="nodemousedown(299,evt);" onmouseover="nodemouseover(299,evt);" onmouseout="nodemouseout(299,evt);" transform="translate(316,517)"><rect x="-21" y="-21" width="42" height="42" fill="#0ff" style="stroke:none; opacity:0.75;" display="none"></rect><rect x="-15" y="-15" width="30" height="30" fill="#f0f0d2" style="stroke:black; opacity:1;"></rect></g><g id="300" onmousedown="nodemousedown(300,evt);" onmouseover="nodemouseover(300,evt);" onmouseout="nodemouseout(300,evt);" transform="translate(462,391)"><rect x="-21" y="-21" width="42" height="42" fill="#0ff" style="stroke:none; opacity:0.75;" display="none"></rect><rect x="-15" y="-15" width="30" height="30" fill="#f0f0d2" style="stroke:black; opacity:1;"></rect></g><g id="296" onmousedown="nodemousedown(296,evt);" onmouseover="nodemouseover(296,evt);" onmouseout="nodemouseout(296,evt);" transform="translate(532,517)"><rect x="-21" y="-21" width="42" height="42" fill="#0ff" style="stroke:none; opacity:0.75;" display="none"></rect><rect x="-15" y="-15" width="30" height="30" fill="#f0f0d2" style="stroke:black; opacity:1;"></rect></g><g id="294" onmousedown="nodemousedown(294,evt);" onmouseover="nodemouseover(294,evt);" onmouseout="nodemouseout(294,evt);" transform="translate(532,315)"><rect x="-21" y="-21" width="42" height="42" fill="#0ff" style="stroke:none; opacity:0.75;" display="none"></rect><rect x="-15" y="-15" width="30" height="30" fill="#f0f0d2" style="stroke:black; opacity:1;"></rect></g><g id="293" onmousedown="nodemousedown(293,evt);" onmouseover="nodemouseover(293,evt);" onmouseout="nodemouseout(293,evt);" transform="translate(202,315)"><rect x="-21" y="-21" width="42" height="42" fill="#0ff" style="stroke:none; opacity:0.75;" display="none"></rect><rect x="-15" y="-15" width="30" height="30" fill="#f0f0d2" style="stroke:black; opacity:1;"></rect></g></g>
  <g id="BPs"><g onmousedown="bpmousedown(356,evt);" onmouseover="bpmouseover(356,evt);" onmouseout="bpmouseout(356,evt);" transform="translate(489,321)" opacity="0"><ellipse cx="0" cy="0" rx="16" ry="16" fill="#0ff" style="stroke:none; opacity:0.75;" display="none"></ellipse><ellipse cx="0" cy="0" rx="5.132188731375618" ry="5.132188731375618" fill="#777" style="stroke:black;"></ellipse></g><g onmousedown="bpmousedown(357,evt);" onmouseover="bpmouseover(357,evt);" onmouseout="bpmouseout(357,evt);" transform="translate(489,391)" opacity="0"><ellipse cx="0" cy="0" rx="16" ry="16" fill="#0ff" style="stroke:none; opacity:0.75;" display="none"></ellipse><ellipse cx="0" cy="0" rx="5.132188731375618" ry="5.132188731375618" fill="#777" style="stroke:black;"></ellipse></g><g onmousedown="bpmousedown(362,evt);" onmouseover="bpmouseover(362,evt);" onmouseout="bpmouseout(362,evt);" transform="translate(433,457)" opacity="0"><ellipse cx="0" cy="0" rx="16" ry="16" fill="#0ff" style="stroke:none; opacity:0.75;" display="none"></ellipse><ellipse cx="0" cy="0" rx="5.132188731375618" ry="5.132188731375618" fill="#777" style="stroke:black;"></ellipse></g><g onmousedown="bpmousedown(363,evt);" onmouseover="bpmouseover(363,evt);" onmouseout="bpmouseout(363,evt);" transform="translate(433,442)" opacity="0"><ellipse cx="0" cy="0" rx="16" ry="16" fill="#0ff" style="stroke:none; opacity:0.75;" display="none"></ellipse><ellipse cx="0" cy="0" rx="5.132188731375618" ry="5.132188731375618" fill="#777" style="stroke:black;"></ellipse></g></g>
  <g id="ports"></g>
</g>
</svg>