<svg id="SVGCanvas" width="480px" height="270px" xmlns="http://www.w3.org/2000/svg" xmlns:xlink="http://www.w3.org/1999/xlink" onmouseup="null" onmousemove="null">
<rect id="background" x="0" y="0" height="100%" width="100%" fill="#bdbddf" onmousedown="bgmousedown(evt)"></rect>
<g id="foreground" transform="translate(83.46153846153845,0),scale(0.7692307692307693),translate(-289,-18)">
  <g id="edges"><g id="201"><path style="stroke:#bdbddf; stroke-width:8px; fill:none;" opacity="0.7" d="M 597,168L 597,242"></path><g><path style="stroke:#ff0; stroke-width:8px; fill:none; " opacity="0" d="M 597,168L 597,242"></path></g><path style="stroke:black; fill:none;" d="M 597,168L 597,242"></path><g><g><path style="stroke:#0ff; stroke-width:8px; fill:none; " opacity="0" d="M 597,168 L 597,242" onmousedown="segmousedown(&quot;201&quot;,&quot;0&quot;,evt);" onmouseover="segmouseover(&quot;201&quot;,&quot;0&quot;,evt);" onmouseout="segmouseout(&quot;201&quot;,&quot;0&quot;,evt);" onclick="segclick(&quot;201&quot;,&quot;0&quot;,evt);"></path></g></g></g><g id="202"><path style="stroke:#bdbddf; stroke-width:8px; fill:none;" opacity="0.7" d="M 580,153L 464,153"></path><g><path style="stroke:#ff0; stroke-width:8px; fill:none; " opacity="0" d="M 580,153L 464,153"></path></g><path style="stroke:black; fill:none;" d="M 580,153L 464,153"></path><g><g><path style="stroke:#0ff; stroke-width:8px; fill:none; " opacity="0" d="M 580,153 L 464,153" onmousedown="segmousedown(&quot;202&quot;,&quot;0&quot;,evt);" onmouseover="segmouseover(&quot;202&quot;,&quot;0&quot;,evt);" onmouseout="segmouseout(&quot;202&quot;,&quot;0&quot;,evt);" onclick="segclick(&quot;202&quot;,&quot;0&quot;,evt);"></path></g></g></g><g id="203"><path style="stroke:#bdbddf; stroke-width:8px; fill:none;" opacity="0.7" d="M 617,257 H 654 a 12,12 0 0,1 12,12L 666,324"></path><g><path style="stroke:#ff0; stroke-width:8px; fill:none; " opacity="0" d="M 617,257 H 654 a 12,12 0 0,1 12,12L 666,324"></path></g><path style="stroke:black; fill:none;" d="M 617,257 H 654 a 12,12 0 0,1 12,12L 666,324"></path><g><g><path style="stroke:#0ff; stroke-width:8px; fill:none; " opacity="0" d="M 617,257 L 666,257" onmousedown="segmousedown(&quot;203&quot;,&quot;0&quot;,evt);" onmouseover="segmouseover(&quot;203&quot;,&quot;0&quot;,evt);" onmouseout="segmouseout(&quot;203&quot;,&quot;0&quot;,evt);" onclick="segclick(&quot;203&quot;,&quot;0&quot;,evt);"></path><path style="stroke:#0ff; stroke-width:8px; fill:none; " opacity="0" d="M 666,257 L 666,324" onmousedown="segmousedown(&quot;203&quot;,&quot;1&quot;,evt);" onmouseover="segmouseover(&quot;203&quot;,&quot;1&quot;,evt);" onmouseout="segmouseout(&quot;203&quot;,&quot;1&quot;,evt);" onclick="segclick(&quot;203&quot;,&quot;1&quot;,evt);"></path></g></g></g><g id="204"><path style="stroke:#bdbddf; stroke-width:8px; fill:none;" opacity="0.7" d="M 587,257 H 545 a 12,12 0 0,0 -12,12L 533,321"></path><g><path style="stroke:#ff0; stroke-width:8px; fill:none; " opacity="0" d="M 587,257 H 545 a 12,12 0 0,0 -12,12L 533,321"></path></g><path style="stroke:black; fill:none;" d="M 587,257 H 545 a 12,12 0 0,0 -12,12L 533,321"></path><g><g><path style="stroke:#0ff; stroke-width:8px; fill:none; " opacity="0" d="M 587,257 L 533,257" onmousedown="segmousedown(&quot;204&quot;,&quot;0&quot;,evt);" onmouseover="segmouseover(&quot;204&quot;,&quot;0&quot;,evt);" onmouseout="segmouseout(&quot;204&quot;,&quot;0&quot;,evt);" onclick="segclick(&quot;204&quot;,&quot;0&quot;,evt);"></path><path style="stroke:#0ff; stroke-width:8px; fill:none; " opacity="0" d="M 533,257 L 533,321" onmousedown="segmousedown(&quot;204&quot;,&quot;1&quot;,evt);" onmouseover="segmouseover(&quot;204&quot;,&quot;1&quot;,evt);" onmouseout="segmouseout(&quot;204&quot;,&quot;1&quot;,evt);" onclick="segclick(&quot;204&quot;,&quot;1&quot;,evt);"></path></g></g></g><g id="205"><path style="stroke:#bdbddf; stroke-width:8px; fill:none;" opacity="0.7" d="M 449,168L 449,63"></path><g><path style="stroke:#ff0; stroke-width:8px; fill:none; " opacity="0" d="M 449,168L 449,63"></path></g><path style="stroke:black; fill:none;" d="M 449,168L 449,63"></path><g><g><path style="stroke:#0ff; stroke-width:8px; fill:none; " opacity="0" d="M 449,168 L 449,63" onmousedown="segmousedown(&quot;205&quot;,&quot;0&quot;,evt);" onmouseover="segmouseover(&quot;205&quot;,&quot;0&quot;,evt);" onmouseout="segmouseout(&quot;205&quot;,&quot;0&quot;,evt);" onclick="segclick(&quot;205&quot;,&quot;0&quot;,evt);"></path></g></g></g><g id="206"><path style="stroke:#bdbddf; stroke-width:8px; fill:none;" opacity="0.7" d="M 434,153L 334,153"></path><g><path style="stroke:#ff0; stroke-width:8px; fill:none; " opacity="0" d="M 434,153L 334,153"></path></g><path style="stroke:black; fill:none;" d="M 434,153L 334,153"></path><g><g><path style="stroke:#0ff; stroke-width:8px; fill:none; " opacity="0" d="M 434,153 L 334,153" onmousedown="segmousedown(&quot;206&quot;,&quot;0&quot;,evt);" onmouseover="segmouseover(&quot;206&quot;,&quot;0&quot;,evt);" onmouseout="segmouseout(&quot;206&quot;,&quot;0&quot;,evt);" onclick="segclick(&quot;206&quot;,&quot;0&quot;,evt);"></path></g></g></g></g>
  <g id="nodes"><g id="198" onmousedown="nodemousedown(198,evt);" onmouseover="nodemouseover(198,evt);" onmouseout="nodemouseout(198,evt);" transform="translate(533,336)"><rect x="-21" y="-21" width="42" height="42" fill="#0ff" style="stroke:none; opacity:0.75;" display="none"></rect><rect x="-15" y="-15" width="30" height="30" fill="#f0f0d2" style="stroke:black; opacity:1;"></rect></g><g id="196" onmousedown="nodemousedown(196,evt);" onmouseover="nodemouseover(196,evt);" onmouseout="nodemouseout(196,evt);" transform="translate(449,153)"><rect x="-21" y="-21" width="42" height="42" fill="#0ff" style="stroke:none; opacity:0.75;" display="none"></rect><rect x="-15" y="-15" width="30" height="30" fill="#f0f0d2" style="stroke:black; opacity:1;"></rect></g><g id="195" onmousedown="nodemousedown(195,evt);" onmouseover="nodemouseover(195,evt);" onmouseout="nodemouseout(195,evt);" transform="translate(602,257)"><rect x="-21" y="-21" width="42" height="42" fill="#0ff" style="stroke:none; opacity:0.75;" display="none"></rect><rect x="-15" y="-15" width="30" height="30" fill="#f0f0d2" style="stroke:black; opacity:1;"></rect></g><g id="194" onmousedown="nodemousedown(194,evt);" onmouseover="nodemouseover(194,evt);" onmouseout="nodemouseout(194,evt);" transform="translate(595,153)"><rect x="-21" y="-21" width="42" height="42" fill="#0ff" style="stroke:none; opacity:0.75;" display="none"></rect><rect x="-15" y="-15" width="30" height="30" fill="#f0f0d2" style="stroke:black; opacity:1;"></rect></g><g id="197" onmousedown="nodemousedown(197,evt);" onmouseover="nodemouseover(197,evt);" onmouseout="nodemouseout(197,evt);" transform="translate(666,339)"><rect x="-21" y="-21" width="42" height="42" fill="#0ff" style="stroke:none; opacity:0.75;" display="none"></rect><rect x="-15" y="-15" width="30" height="30" fill="#f0f0d2" style="stroke:black; opacity:1;"></rect></g><g id="200" onmousedown="nodemousedown(200,evt);" onmouseover="nodemouseover(200,evt);" onmouseout="nodemouseout(200,evt);" transform="translate(319,153)"><rect x="-21" y="-21" width="42" height="42" fill="#0ff" style="stroke:none; opacity:0.75;" display="none"></rect><rect x="-15" y="-15" width="30" height="30" fill="#f0f0d2" style="stroke:black; opacity:1;"></rect></g><g id="199" onmousedown="nodemousedown(199,evt);" onmouseover="nodemouseover(199,evt);" onmouseout="nodemouseout(199,evt);" transform="translate(449,48)"><rect x="-21" y="-21" width="42" height="42" fill="#0ff" style="stroke:none; opacity:0.75;" display="none"></rect><rect x="-15" y="-15" width="30" height="30" fill="#f0f0d2" style="stroke:black; opacity:1;"></rect></g></g>
  <g id="BPs"><g onmousedown="bpmousedown(236,evt);" onmouseover="bpmouseover(236,evt);" onmouseout="bpmouseout(236,evt);" transform="translate(533,257)" opacity="0"><ellipse cx="0" cy="0" rx="16" ry="16" fill="#0ff" style="stroke:none; opacity:0.75;" display="none"></ellipse><ellipse cx="0" cy="0" rx="6.5908152320000015" ry="6.5908152320000015" fill="#777" style="stroke:black;"></ellipse></g><g onmousedown="bpmousedown(239,evt);" onmouseover="bpmouseover(239,evt);" onmouseout="bpmouseout(239,evt);" transform="translate(666,257)" opacity="0"><ellipse cx="0" cy="0" rx="16" ry="16" fill="#0ff" style="stroke:none; opacity:0.75;" display="none"></ellipse><ellipse cx="0" cy="0" rx="6.5908152320000015" ry="6.5908152320000015" fill="#777" style="stroke:black;"></ellipse></g></g>
  <g id="ports"></g>
</g>
</svg>