<svg id="SVGCanvas" width="480px" height="270px" xmlns="http://www.w3.org/2000/svg" xmlns:xlink="http://www.w3.org/1999/xlink" onmouseup="null" onmousemove="null">
<rect id="background" x="0" y="0" height="100%" width="100%" fill="#bdbddf" onmousedown="bgmousedown(evt)"></rect>
<g id="foreground" transform="translate(65.29411764705881,0),scale(1.1764705882352942),translate(-120,-227)">
  <g id="edges"><g id="169"><path style="stroke:#bdbddf; stroke-width:8px; fill:none;" opacity="0.7" d="M 276,365L 372,365"></path><g><path style="stroke:#ff0; stroke-width:8px; fill:none; " opacity="0" d="M 276,365L 372,365"></path></g><path style="stroke:black; fill:none;" d="M 276,365L 372,365"></path><g><g><path style="stroke:#0ff; stroke-width:8px; fill:none; " opacity="0" d="M 276,365 L 372,365" onmousedown="segmousedown(&quot;169&quot;,&quot;0&quot;,evt);" onmouseover="segmouseover(&quot;169&quot;,&quot;0&quot;,evt);" onmouseout="segmouseout(&quot;169&quot;,&quot;0&quot;,evt);" onclick="segclick(&quot;169&quot;,&quot;0&quot;,evt);"></path></g></g></g><g id="170"><path style="stroke:#bdbddf; stroke-width:8px; fill:none;" opacity="0.7" d="M 387,350 V 269 a 12,12 0 0,0 -12,-12L 185,257"></path><g><path style="stroke:#ff0; stroke-width:8px; fill:none; " opacity="0" d="M 387,350 V 269 a 12,12 0 0,0 -12,-12L 185,257"></path></g><path style="stroke:black; fill:none;" d="M 387,350 V 269 a 12,12 0 0,0 -12,-12L 185,257"></path><g><g><path style="stroke:#0ff; stroke-width:8px; fill:none; " opacity="0" d="M 387,350 L 387,257" onmousedown="segmousedown(&quot;170&quot;,&quot;0&quot;,evt);" onmouseover="segmouseover(&quot;170&quot;,&quot;0&quot;,evt);" onmouseout="segmouseout(&quot;170&quot;,&quot;0&quot;,evt);" onclick="segclick(&quot;170&quot;,&quot;0&quot;,evt);"></path><path style="stroke:#0ff; stroke-width:8px; fill:none; " opacity="0" d="M 387,257 L 185,257" onmousedown="segmousedown(&quot;170&quot;,&quot;1&quot;,evt);" onmouseover="segmouseover(&quot;170&quot;,&quot;1&quot;,evt);" onmouseout="segmouseout(&quot;170&quot;,&quot;1&quot;,evt);" onclick="segclick(&quot;170&quot;,&quot;1&quot;,evt);"></path></g></g></g><g id="171"><path style="stroke:#bdbddf; stroke-width:8px; fill:none;" opacity="0.7" d="M 150,272L 150,394.5"></path><g><path style="stroke:#ff0; stroke-width:8px; fill:none; " opacity="0" d="M 150,272L 150,394.5"></path></g><path style="stroke:black; fill:none;" d="M 150,272L 150,394.5"></path><g><g><path style="stroke:#0ff; stroke-width:8px; fill:none; " opacity="0" d="M 150,272 L 150,394.5" onmousedown="segmousedown(&quot;171&quot;,&quot;0&quot;,evt);" onmouseover="segmouseover(&quot;171&quot;,&quot;0&quot;,evt);" onmouseout="segmouseout(&quot;171&quot;,&quot;0&quot;,evt);" onclick="segclick(&quot;171&quot;,&quot;0&quot;,evt);"></path></g></g></g><g id="172"><path style="stroke:#bdbddf; stroke-width:8px; fill:none;" opacity="0.7" d="M 165,418 H 375 a 12,12 0 0,0 12,-12L 387,380"></path><g><path style="stroke:#ff0; stroke-width:8px; fill:none; " opacity="0" d="M 165,418 H 375 a 12,12 0 0,0 12,-12L 387,380"></path></g><path style="stroke:black; fill:none;" d="M 165,418 H 375 a 12,12 0 0,0 12,-12L 387,380"></path><g><g><path style="stroke:#0ff; stroke-width:8px; fill:none; " opacity="0" d="M 165,418 L 387,418" onmousedown="segmousedown(&quot;172&quot;,&quot;0&quot;,evt);" onmouseover="segmouseover(&quot;172&quot;,&quot;0&quot;,evt);" onmouseout="segmouseout(&quot;172&quot;,&quot;0&quot;,evt);" onclick="segclick(&quot;172&quot;,&quot;0&quot;,evt);"></path><path style="stroke:#0ff; stroke-width:8px; fill:none; " opacity="0" d="M 387,418 L 387,380" onmousedown="segmousedown(&quot;172&quot;,&quot;1&quot;,evt);" onmouseover="segmouseover(&quot;172&quot;,&quot;1&quot;,evt);" onmouseout="segmouseout(&quot;172&quot;,&quot;1&quot;,evt);" onclick="segclick(&quot;172&quot;,&quot;1&quot;,evt);"></path></g></g></g><g id="173"><path style="stroke:#bdbddf; stroke-width:8px; fill:none;" opacity="0.7" d="M 165,272 V 281.5 a 9.5,9.5 0 0,0 9.5,9.5 H 249 a 12,12 0 0,1 12,12L 261,350"></path><g><path style="stroke:#ff0; stroke-width:8px; fill:none; " opacity="0" d="M 165,272 V 281.5 a 9.5,9.5 0 0,0 9.5,9.5 H 249 a 12,12 0 0,1 12,12L 261,350"></path></g><path style="stroke:black; fill:none;" d="M 165,272 V 281.5 a 9.5,9.5 0 0,0 9.5,9.5 H 249 a 12,12 0 0,1 12,12L 261,350"></path><g><g><path style="stroke:#0ff; stroke-width:8px; fill:none; " opacity="0" d="M 165,272 L 165,291" onmousedown="segmousedown(&quot;173&quot;,&quot;0&quot;,evt);" onmouseover="segmouseover(&quot;173&quot;,&quot;0&quot;,evt);" onmouseout="segmouseout(&quot;173&quot;,&quot;0&quot;,evt);" onclick="segclick(&quot;173&quot;,&quot;0&quot;,evt);"></path><path style="stroke:#0ff; stroke-width:8px; fill:none; " opacity="0" d="M 165,291 L 261,291" onmousedown="segmousedown(&quot;173&quot;,&quot;1&quot;,evt);" onmouseover="segmouseover(&quot;173&quot;,&quot;1&quot;,evt);" onmouseout="segmouseout(&quot;173&quot;,&quot;1&quot;,evt);" onclick="segclick(&quot;173&quot;,&quot;1&quot;,evt);"></path><path style="stroke:#0ff; stroke-width:8px; fill:none; " opacity="0" d="M 261,291 L 261,350" onmousedown="segmousedown(&quot;173&quot;,&quot;2&quot;,evt);" onmouseover="segmouseover(&quot;173&quot;,&quot;2&quot;,evt);" onmouseout="segmouseout(&quot;173&quot;,&quot;2&quot;,evt);" onclick="segclick(&quot;173&quot;,&quot;2&quot;,evt);"></path></g></g></g><g id="174"><path style="stroke:#bdbddf; stroke-width:8px; fill:none;" opacity="0.7" d="M 246,365 H 173 a 12,12 0 0,0 -12,12L 161,394.5"></path><g><path style="stroke:#ff0; stroke-width:8px; fill:none; " opacity="0" d="M 246,365 H 173 a 12,12 0 0,0 -12,12L 161,394.5"></path></g><path style="stroke:black; fill:none;" d="M 246,365 H 173 a 12,12 0 0,0 -12,12L 161,394.5"></path><g><g><path style="stroke:#0ff; stroke-width:8px; fill:none; " opacity="0" d="M 246,365 L 161,365" onmousedown="segmousedown(&quot;174&quot;,&quot;0&quot;,evt);" onmouseover="segmouseover(&quot;174&quot;,&quot;0&quot;,evt);" onmouseout="segmouseout(&quot;174&quot;,&quot;0&quot;,evt);" onclick="segclick(&quot;174&quot;,&quot;0&quot;,evt);"></path><path style="stroke:#0ff; stroke-width:8px; fill:none; " opacity="0" d="M 161,365 L 161,394.5" onmousedown="segmousedown(&quot;174&quot;,&quot;1&quot;,evt);" onmouseover="segmouseover(&quot;174&quot;,&quot;1&quot;,evt);" onmouseout="segmouseout(&quot;174&quot;,&quot;1&quot;,evt);" onclick="segclick(&quot;174&quot;,&quot;1&quot;,evt);"></path></g></g></g></g>
  <g id="nodes"><g id="165" onmousedown="nodemousedown(165,evt);" onmouseover="nodemouseover(165,evt);" onmouseout="nodemouseout(165,evt);" transform="translate(160,257)"><rect x="-31" y="-21" width="62" height="42" fill="#0ff" style="stroke:none; opacity:0.75;" display="none"></rect><rect x="-25" y="-15" width="50" height="30" fill="#f0f0d2" style="stroke:black; opacity:1;"></rect></g><g id="167" onmousedown="nodemousedown(167,evt);" onmouseover="nodemouseover(167,evt);" onmouseout="nodemouseout(167,evt);" transform="translate(387,365)"><rect x="-21" y="-21" width="42" height="42" fill="#0ff" style="stroke:none; opacity:0.75;" display="none"></rect><rect x="-15" y="-15" width="30" height="30" fill="#f0f0d2" style="stroke:black; opacity:1;"></rect></g><g id="166" onmousedown="nodemousedown(166,evt);" onmouseover="nodemouseover(166,evt);" onmouseout="nodemouseout(166,evt);" transform="translate(150,418)"><rect x="-21" y="-29.5" width="42" height="59" fill="#0ff" style="stroke:none; opacity:0.75;" display="none"></rect><rect x="-15" y="-23.5" width="30" height="47" fill="#f0f0d2" style="stroke:black; opacity:1;"></rect></g><g id="168" onmousedown="nodemousedown(168,evt);" onmouseover="nodemouseover(168,evt);" onmouseout="nodemouseout(168,evt);" transform="translate(261,365)"><rect x="-21" y="-21" width="42" height="42" fill="#0ff" style="stroke:none; opacity:0.75;" display="none"></rect><rect x="-15" y="-15" width="30" height="30" fill="#f0f0d2" style="stroke:black; opacity:1;"></rect></g></g>
  <g id="BPs"><g onmousedown="bpmousedown(181,evt);" onmouseover="bpmouseover(181,evt);" onmouseout="bpmouseout(181,evt);" transform="translate(387,257)" opacity="0"><ellipse cx="0" cy="0" rx="16" ry="16" fill="#0ff" style="stroke:none; opacity:0.75;" display="none"></ellipse><ellipse cx="0" cy="0" rx="5.132188731375618" ry="5.132188731375618" fill="#777" style="stroke:black;"></ellipse></g><g onmousedown="bpmousedown(189,evt);" onmouseover="bpmouseover(189,evt);" onmouseout="bpmouseout(189,evt);" transform="translate(387,418)" opacity="0"><ellipse cx="0" cy="0" rx="16" ry="16" fill="#0ff" style="stroke:none; opacity:0.75;" display="none"></ellipse><ellipse cx="0" cy="0" rx="5.132188731375618" ry="5.132188731375618" fill="#777" style="stroke:black;"></ellipse></g><g onmousedown="bpmousedown(194,evt);" onmouseover="bpmouseover(194,evt);" onmouseout="bpmouseout(194,evt);" transform="translate(165,291)" opacity="0"><ellipse cx="0" cy="0" rx="16" ry="16" fill="#0ff" style="stroke:none; opacity:0.75;" display="none"></ellipse><ellipse cx="0" cy="0" rx="5.132188731375618" ry="5.132188731375618" fill="#777" style="stroke:black;"></ellipse></g><g onmousedown="bpmousedown(195,evt);" onmouseover="bpmouseover(195,evt);" onmouseout="bpmouseout(195,evt);" transform="translate(261,291)" opacity="0"><ellipse cx="0" cy="0" rx="16" ry="16" fill="#0ff" style="stroke:none; opacity:0.75;" display="none"></ellipse><ellipse cx="0" cy="0" rx="5.132188731375618" ry="5.132188731375618" fill="#777" style="stroke:black;"></ellipse></g><g onmousedown="bpmousedown(203,evt);" onmouseover="bpmouseover(203,evt);" onmouseout="bpmouseout(203,evt);" transform="translate(161,365)" opacity="0"><ellipse cx="0" cy="0" rx="16" ry="16" fill="#0ff" style="stroke:none; opacity:0.75;" display="none"></ellipse><ellipse cx="0" cy="0" rx="5.132188731375618" ry="5.132188731375618" fill="#777" style="stroke:black;"></ellipse></g></g>
  <g id="ports"></g>
</g>
</svg>