<svg id="SVGCanvas" width="480px" height="270px" xmlns="http://www.w3.org/2000/svg" xmlns:xlink="http://www.w3.org/1999/xlink" onmouseup="null" onmousemove="null">
<rect id="background" x="0" y="0" height="100%" width="100%" fill="#bdbddf" onmousedown="bgmousedown(evt)"></rect>
<g id="foreground" transform="translate(0,19.914675767918098),scale(0.8191126279863481),translate(16,-89)">
  <g id="edges"><g id="241"><path style="stroke:#bdbddf; stroke-width:8px; fill:none;" opacity="0.7" d="M 211,340L 540,340"></path><g><path style="stroke:#ff0; stroke-width:8px; fill:none; " opacity="0" d="M 211,340L 540,340"></path></g><path style="stroke:black; fill:none;" d="M 211,340L 540,340"></path><g><g><path style="stroke:#0ff; stroke-width:8px; fill:none; " opacity="0" d="M 211,340 L 540,340" onmousedown="segmousedown(&quot;241&quot;,&quot;0&quot;,evt);" onmouseover="segmouseover(&quot;241&quot;,&quot;0&quot;,evt);" onmouseout="segmouseout(&quot;241&quot;,&quot;0&quot;,evt);" onclick="segclick(&quot;241&quot;,&quot;0&quot;,evt);"></path></g></g></g><g id="242"><path style="stroke:#bdbddf; stroke-width:8px; fill:none;" opacity="0.7" d="M 535,319L 535,134"></path><g><path style="stroke:#ff0; stroke-width:8px; fill:none; " opacity="0" d="M 535,319L 535,134"></path></g><path style="stroke:black; fill:none;" d="M 535,319L 535,134"></path><g><g><path style="stroke:#0ff; stroke-width:8px; fill:none; " opacity="0" d="M 535,319 L 535,134" onmousedown="segmousedown(&quot;242&quot;,&quot;0&quot;,evt);" onmouseover="segmouseover(&quot;242&quot;,&quot;0&quot;,evt);" onmouseout="segmouseout(&quot;242&quot;,&quot;0&quot;,evt);" onclick="segclick(&quot;242&quot;,&quot;0&quot;,evt);"></path></g></g></g><g id="243"><path style="stroke:#bdbddf; stroke-width:8px; fill:none;" opacity="0.7" d="M 520,123L 226,123"></path><g><path style="stroke:#ff0; stroke-width:8px; fill:none; " opacity="0" d="M 520,123L 226,123"></path></g><path style="stroke:black; fill:none;" d="M 520,123L 226,123"></path><g><g><path style="stroke:#0ff; stroke-width:8px; fill:none; " opacity="0" d="M 520,123 L 226,123" onmousedown="segmousedown(&quot;243&quot;,&quot;0&quot;,evt);" onmouseover="segmouseover(&quot;243&quot;,&quot;0&quot;,evt);" onmouseout="segmouseout(&quot;243&quot;,&quot;0&quot;,evt);" onclick="segclick(&quot;243&quot;,&quot;0&quot;,evt);"></path></g></g></g><g id="244"><path style="stroke:#bdbddf; stroke-width:8px; fill:none;" opacity="0.7" d="M 218,123L 218,340"></path><g><path style="stroke:#ff0; stroke-width:8px; fill:none; " opacity="0" d="M 218,123L 218,340"></path></g><path style="stroke:black; fill:none;" d="M 218,123L 218,340"></path><g><g><path style="stroke:#0ff; stroke-width:8px; fill:none; " opacity="0" d="M 218,123 L 218,340" onmousedown="segmousedown(&quot;244&quot;,&quot;0&quot;,evt);" onmouseover="segmouseover(&quot;244&quot;,&quot;0&quot;,evt);" onmouseout="segmouseout(&quot;244&quot;,&quot;0&quot;,evt);" onclick="segclick(&quot;244&quot;,&quot;0&quot;,evt);"></path></g></g></g><g id="245"><path style="stroke:#bdbddf; stroke-width:8px; fill:none;" opacity="0.7" d="M 525,334 H 487 a 12,12 0 0,1 -12,-12L 475,256"></path><g><path style="stroke:#ff0; stroke-width:8px; fill:none; " opacity="0" d="M 525,334 H 487 a 12,12 0 0,1 -12,-12L 475,256"></path></g><path style="stroke:black; fill:none;" d="M 525,334 H 487 a 12,12 0 0,1 -12,-12L 475,256"></path><g><g><path style="stroke:#0ff; stroke-width:8px; fill:none; " opacity="0" d="M 525,334 L 475,334" onmousedown="segmousedown(&quot;245&quot;,&quot;0&quot;,evt);" onmouseover="segmouseover(&quot;245&quot;,&quot;0&quot;,evt);" onmouseout="segmouseout(&quot;245&quot;,&quot;0&quot;,evt);" onclick="segclick(&quot;245&quot;,&quot;0&quot;,evt);"></path><path style="stroke:#0ff; stroke-width:8px; fill:none; " opacity="0" d="M 475,334 L 475,256" onmousedown="segmousedown(&quot;245&quot;,&quot;1&quot;,evt);" onmouseover="segmouseover(&quot;245&quot;,&quot;1&quot;,evt);" onmouseout="segmouseout(&quot;245&quot;,&quot;1&quot;,evt);" onclick="segclick(&quot;245&quot;,&quot;1&quot;,evt);"></path></g></g></g><g id="246"><path style="stroke:#bdbddf; stroke-width:8px; fill:none;" opacity="0.7" d="M 460,241L 400,241"></path><g><path style="stroke:#ff0; stroke-width:8px; fill:none; " opacity="0" d="M 460,241L 400,241"></path></g><path style="stroke:black; fill:none;" d="M 460,241L 400,241"></path><g><g><path style="stroke:#0ff; stroke-width:8px; fill:none; " opacity="0" d="M 460,241 L 400,241" onmousedown="segmousedown(&quot;246&quot;,&quot;0&quot;,evt);" onmouseover="segmouseover(&quot;246&quot;,&quot;0&quot;,evt);" onmouseout="segmouseout(&quot;246&quot;,&quot;0&quot;,evt);" onclick="segclick(&quot;246&quot;,&quot;0&quot;,evt);"></path></g></g></g><g id="247"><path style="stroke:#bdbddf; stroke-width:8px; fill:none;" opacity="0.7" d="M 370,246L 311,246"></path><g><path style="stroke:#ff0; stroke-width:8px; fill:none; " opacity="0" d="M 370,246L 311,246"></path></g><path style="stroke:black; fill:none;" d="M 370,246L 311,246"></path><g><g><path style="stroke:#0ff; stroke-width:8px; fill:none; " opacity="0" d="M 370,246 L 311,246" onmousedown="segmousedown(&quot;247&quot;,&quot;0&quot;,evt);" onmouseover="segmouseover(&quot;247&quot;,&quot;0&quot;,evt);" onmouseout="segmouseout(&quot;247&quot;,&quot;0&quot;,evt);" onclick="segclick(&quot;247&quot;,&quot;0&quot;,evt);"></path></g></g></g><g id="248"><path style="stroke:#bdbddf; stroke-width:8px; fill:none;" opacity="0.7" d="M 296,256L 296,296"></path><g><path style="stroke:#ff0; stroke-width:8px; fill:none; " opacity="0" d="M 296,256L 296,296"></path></g><path style="stroke:black; fill:none;" d="M 296,256L 296,296"></path><g><g><path style="stroke:#0ff; stroke-width:8px; fill:none; " opacity="0" d="M 296,256 L 296,296" onmousedown="segmousedown(&quot;248&quot;,&quot;0&quot;,evt);" onmouseover="segmouseover(&quot;248&quot;,&quot;0&quot;,evt);" onmouseout="segmouseout(&quot;248&quot;,&quot;0&quot;,evt);" onclick="segclick(&quot;248&quot;,&quot;0&quot;,evt);"></path></g></g></g><g id="249"><path style="stroke:#bdbddf; stroke-width:8px; fill:none;" opacity="0.7" d="M 196,123L 166,123"></path><g><path style="stroke:#ff0; stroke-width:8px; fill:none; " opacity="0" d="M 196,123L 166,123"></path></g><path style="stroke:black; fill:none;" d="M 196,123L 166,123"></path><g><g><path style="stroke:#0ff; stroke-width:8px; fill:none; " opacity="0" d="M 196,123 L 166,123" onmousedown="segmousedown(&quot;249&quot;,&quot;0&quot;,evt);" onmouseover="segmouseover(&quot;249&quot;,&quot;0&quot;,evt);" onmouseout="segmouseout(&quot;249&quot;,&quot;0&quot;,evt);" onclick="segclick(&quot;249&quot;,&quot;0&quot;,evt);"></path></g></g></g><g id="250"><path style="stroke:#bdbddf; stroke-width:8px; fill:none;" opacity="0.7" d="M 136,123L 95,123"></path><g><path style="stroke:#ff0; stroke-width:8px; fill:none; " opacity="0" d="M 136,123L 95,123"></path></g><path style="stroke:black; fill:none;" d="M 136,123L 95,123"></path><g><g><path style="stroke:#0ff; stroke-width:8px; fill:none; " opacity="0" d="M 136,123 L 95,123" onmousedown="segmousedown(&quot;250&quot;,&quot;0&quot;,evt);" onmouseover="segmouseover(&quot;250&quot;,&quot;0&quot;,evt);" onmouseout="segmouseout(&quot;250&quot;,&quot;0&quot;,evt);" onclick="segclick(&quot;250&quot;,&quot;0&quot;,evt);"></path></g></g></g><g id="251"><path style="stroke:#bdbddf; stroke-width:8px; fill:none;" opacity="0.7" d="M 65,123L 29,123"></path><g><path style="stroke:#ff0; stroke-width:8px; fill:none; " opacity="0" d="M 65,123L 29,123"></path></g><path style="stroke:black; fill:none;" d="M 65,123L 29,123"></path><g><g><path style="stroke:#0ff; stroke-width:8px; fill:none; " opacity="0" d="M 65,123 L 29,123" onmousedown="segmousedown(&quot;251&quot;,&quot;0&quot;,evt);" onmouseover="segmouseover(&quot;251&quot;,&quot;0&quot;,evt);" onmouseout="segmouseout(&quot;251&quot;,&quot;0&quot;,evt);" onclick="segclick(&quot;251&quot;,&quot;0&quot;,evt);"></path></g></g></g><g id="252"><path style="stroke:#bdbddf; stroke-width:8px; fill:none;" opacity="0.7" d="M 154,138L 154,238"></path><g><path style="stroke:#ff0; stroke-width:8px; fill:none; " opacity="0" d="M 154,138L 154,238"></path></g><path style="stroke:black; fill:none;" d="M 154,138L 154,238"></path><g><g><path style="stroke:#0ff; stroke-width:8px; fill:none; " opacity="0" d="M 154,138 L 154,238" onmousedown="segmousedown(&quot;252&quot;,&quot;0&quot;,evt);" onmouseover="segmouseover(&quot;252&quot;,&quot;0&quot;,evt);" onmouseout="segmouseout(&quot;252&quot;,&quot;0&quot;,evt);" onclick="segclick(&quot;252&quot;,&quot;0&quot;,evt);"></path></g></g></g></g>
  <g id="nodes"><g id="230" onmousedown="nodemousedown(230,evt);" onmouseover="nodemouseover(230,evt);" onmouseout="nodemouseout(230,evt);" transform="translate(211 340)"><rect x="-21" y="-21" width="42" height="42" fill="#0ff" style="stroke:none; opacity:0.75;" display="none"></rect><rect x="-15" y="-15" width="30" height="30" fill="#f0f0d2" style="stroke:black; opacity:1;"></rect></g><g id="235" onmousedown="nodemousedown(235,evt);" onmouseover="nodemouseover(235,evt);" onmouseout="nodemouseout(235,evt);" transform="translate(296,241)"><rect x="-21" y="-21" width="42" height="42" fill="#0ff" style="stroke:none; opacity:0.75;" display="none"></rect><rect x="-15" y="-15" width="30" height="30" fill="#f0f0d2" style="stroke:black; opacity:1;"></rect></g><g id="233" onmousedown="nodemousedown(233,evt);" onmouseover="nodemouseover(233,evt);" onmouseout="nodemouseout(233,evt);" transform="translate(475,241)"><rect x="-21" y="-21" width="42" height="42" fill="#0ff" style="stroke:none; opacity:0.75;" display="none"></rect><rect x="-15" y="-15" width="30" height="30" fill="#f0f0d2" style="stroke:black; opacity:1;"></rect></g><g id="234" onmousedown="nodemousedown(234,evt);" onmouseover="nodemouseover(234,evt);" onmouseout="nodemouseout(234,evt);" transform="translate(385,246)"><rect x="-21" y="-21" width="42" height="42" fill="#0ff" style="stroke:none; opacity:0.75;" display="none"></rect><rect x="-15" y="-15" width="30" height="30" fill="#f0f0d2" style="stroke:black; opacity:1;"></rect></g><g id="236" onmousedown="nodemousedown(236,evt);" onmouseover="nodemouseover(236,evt);" onmouseout="nodemouseout(236,evt);" transform="translate(296,296)"><rect x="-21" y="-21" width="42" height="42" fill="#0ff" style="stroke:none; opacity:0.75;" display="none"></rect><rect x="-15" y="-15" width="30" height="30" fill="#f0f0d2" style="stroke:black; opacity:1;"></rect></g><g id="240" onmousedown="nodemousedown(240,evt);" onmouseover="nodemouseover(240,evt);" onmouseout="nodemouseout(240,evt);" transform="translate(14,123)"><rect x="-21" y="-21" width="42" height="42" fill="#0ff" style="stroke:none; opacity:0.75;" display="none"></rect><rect x="-15" y="-15" width="30" height="30" fill="#f0f0d2" style="stroke:black; opacity:1;"></rect></g><g id="239" onmousedown="nodemousedown(239,evt);" onmouseover="nodemouseover(239,evt);" onmouseout="nodemouseout(239,evt);" transform="translate(80,123)"><rect x="-21" y="-21" width="42" height="42" fill="#0ff" style="stroke:none; opacity:0.75;" display="none"></rect><rect x="-15" y="-15" width="30" height="30" fill="#f0f0d2" style="stroke:black; opacity:1;"></rect></g><g id="237" onmousedown="nodemousedown(237,evt);" onmouseover="nodemouseover(237,evt);" onmouseout="nodemouseout(237,evt);" transform="translate(151,123)"><rect x="-21" y="-21" width="42" height="42" fill="#0ff" style="stroke:none; opacity:0.75;" display="none"></rect><rect x="-15" y="-15" width="30" height="30" fill="#f0f0d2" style="stroke:black; opacity:1;"></rect></g><g id="238" onmousedown="nodemousedown(238,evt);" onmouseover="nodemouseover(238,evt);" onmouseout="nodemouseout(238,evt);" transform="translate(154,253)"><rect x="-21" y="-21" width="42" height="42" fill="#0ff" style="stroke:none; opacity:0.75;" display="none"></rect><rect x="-15" y="-15" width="30" height="30" fill="#f0f0d2" style="stroke:black; opacity:1;"></rect></g><g id="229" onmousedown="nodemousedown(229,evt);" onmouseover="nodemouseover(229,evt);" onmouseout="nodemouseout(229,evt);" transform="translate(211,123)"><rect x="-21" y="-21" width="42" height="42" fill="#0ff" style="stroke:none; opacity:0.75;" display="none"></rect><rect x="-15" y="-15" width="30" height="30" fill="#f0f0d2" style="stroke:black; opacity:1;"></rect></g><g id="232" onmousedown="nodemousedown(232,evt);" onmouseover="nodemouseover(232,evt);" onmouseout="nodemouseout(232,evt);" transform="translate(535,119)"><rect x="-21" y="-21" width="42" height="42" fill="#0ff" style="stroke:none; opacity:0.75;" display="none"></rect><rect x="-15" y="-15" width="30" height="30" fill="#f0f0d2" style="stroke:black; opacity:1;"></rect></g><g id="231" onmousedown="nodemousedown(231,evt);" onmouseover="nodemouseover(231,evt);" onmouseout="nodemouseout(231,evt);" transform="translate(540,334)"><rect x="-21" y="-21" width="42" height="42" fill="#0ff" style="stroke:none; opacity:0.75;" display="none"></rect><rect x="-15" y="-15" width="30" height="30" fill="#f0f0d2" style="stroke:black; opacity:1;"></rect></g></g>
  <g id="BPs"><g onmousedown="bpmousedown(268,evt);" onmouseover="bpmouseover(268,evt);" onmouseout="bpmouseout(268,evt);" transform="translate(475,334)" opacity="0"><ellipse cx="0" cy="0" rx="16" ry="16" fill="#0ff" style="stroke:none; opacity:0.75;" display="none"></ellipse><ellipse cx="0" cy="0" rx="6.063550013440002" ry="6.063550013440002" fill="#777" style="stroke:black;"></ellipse></g></g>
  <g id="ports"></g>
</g>
</svg>