<svg xmlns:xlink="http://www.w3.org/1999/xlink" xmlns="http://www.w3.org/2000/svg" height="270px" width="480px" id="SVGCanvas" onmouseup="" onmousemove="">
<rect fill="#bdbddf" width="100%" height="100%" y="0" x="0" id="background" onmousedown="bgmousedown(evt)"/>
<g id="foreground" transform="translate(8.371369294605813,0),scale(0.5601659751037344),translate(-305,-25)">
  <g id="edges"><g id="201"><path style="stroke:#bdbddf; stroke-width:8px; fill:none;" opacity="0.7" d="M 835,63L 735,63"/><g><path style="stroke:#ff0; stroke-width:8px; fill:none; " opacity="0" d="M 835,63L 735,63"/></g><path style="stroke:black; fill:none;" d="M 835,63L 735,63"/><g><g><path style="stroke:#0ff; stroke-width:8px; fill:none; " opacity="0" d="M 835,63 L 735,63" onmousedown='segmousedown("201","0",evt);' onmouseover='segmouseover("201","0",evt);' onmouseout='segmouseout("201","0",evt);' onclick='segclick("201","0",evt);'/></g></g></g><g id="202"><path style="stroke:#bdbddf; stroke-width:8px; fill:none;" opacity="0.7" d="M 850,70L 850,239"/><g><path style="stroke:#ff0; stroke-width:8px; fill:none; " opacity="0" d="M 850,70L 850,239"/></g><path style="stroke:black; fill:none;" d="M 850,70L 850,239"/><g><g><path style="stroke:#0ff; stroke-width:8px; fill:none; " opacity="0" d="M 850,70 L 850,239" onmousedown='segmousedown("202","0",evt);' onmouseover='segmouseover("202","0",evt);' onmouseout='segmouseout("202","0",evt);' onclick='segclick("202","0",evt);'/></g></g></g><g id="203"><path style="stroke:#bdbddf; stroke-width:8px; fill:none;" opacity="0.7" d="M 705,60 H 390 a 12,12 0 0,0 -12,12 V 177 a 12,12 0 0,1 -12,12L 350,189"/><g><path style="stroke:#ff0; stroke-width:8px; fill:none; " opacity="0" d="M 705,60 H 390 a 12,12 0 0,0 -12,12 V 177 a 12,12 0 0,1 -12,12L 350,189"/></g><path style="stroke:black; fill:none;" d="M 705,60 H 390 a 12,12 0 0,0 -12,12 V 177 a 12,12 0 0,1 -12,12L 350,189"/><g><g><path style="stroke:#0ff; stroke-width:8px; fill:none; " opacity="0" d="M 705,60 L 378,60" onmousedown='segmousedown("203","0",evt);' onmouseover='segmouseover("203","0",evt);' onmouseout='segmouseout("203","0",evt);' onclick='segclick("203","0",evt);'/><path style="stroke:#0ff; stroke-width:8px; fill:none; " opacity="0" d="M 378,60 L 378,189" onmousedown='segmousedown("203","1",evt);' onmouseover='segmouseover("203","1",evt);' onmouseout='segmouseout("203","1",evt);' onclick='segclick("203","1",evt);'/><path style="stroke:#0ff; stroke-width:8px; fill:none; " opacity="0" d="M 378,189 L 350,189" onmousedown='segmousedown("203","2",evt);' onmouseover='segmouseover("203","2",evt);' onmouseout='segmouseout("203","2",evt);' onclick='segclick("203","2",evt);'/></g></g></g><g id="204"><path style="stroke:#bdbddf; stroke-width:8px; fill:none;" opacity="0.7" d="M 705,60 H 389 a 12,12 0 0,0 -12,12 V 293 a 12,12 0 0,0 12,12L 703,305"/><g><path style="stroke:#ff0; stroke-width:8px; fill:none; " opacity="0" d="M 705,60 H 389 a 12,12 0 0,0 -12,12 V 293 a 12,12 0 0,0 12,12L 703,305"/></g><path style="stroke:black; fill:none;" d="M 705,60 H 389 a 12,12 0 0,0 -12,12 V 293 a 12,12 0 0,0 12,12L 703,305"/><g><g><path style="stroke:#0ff; stroke-width:8px; fill:none; " opacity="0" d="M 705,60 L 377,60" onmousedown='segmousedown("204","0",evt);' onmouseover='segmouseover("204","0",evt);' onmouseout='segmouseout("204","0",evt);' onclick='segclick("204","0",evt);'/><path style="stroke:#0ff; stroke-width:8px; fill:none; " opacity="0" d="M 377,60 L 377,305" onmousedown='segmousedown("204","1",evt);' onmouseover='segmouseover("204","1",evt);' onmouseout='segmouseout("204","1",evt);' onclick='segclick("204","1",evt);'/><path style="stroke:#0ff; stroke-width:8px; fill:none; " opacity="0" d="M 377,305 L 703,305" onmousedown='segmousedown("204","2",evt);' onmouseover='segmouseover("204","2",evt);' onmouseout='segmouseout("204","2",evt);' onclick='segclick("204","2",evt);'/></g></g></g><g id="205"><path style="stroke:#bdbddf; stroke-width:8px; fill:none;" opacity="0.7" d="M 850,269L 850,462"/><g><path style="stroke:#ff0; stroke-width:8px; fill:none; " opacity="0" d="M 850,269L 850,462"/></g><path style="stroke:black; fill:none;" d="M 850,269L 850,462"/><g><g><path style="stroke:#0ff; stroke-width:8px; fill:none; " opacity="0" d="M 850,269 L 850,462" onmousedown='segmousedown("205","0",evt);' onmouseover='segmouseover("205","0",evt);' onmouseout='segmouseout("205","0",evt);' onclick='segclick("205","0",evt);'/></g></g></g><g id="206"><path style="stroke:#bdbddf; stroke-width:8px; fill:none;" opacity="0.7" d="M 835,254L 1087,254"/><g><path style="stroke:#ff0; stroke-width:8px; fill:none; " opacity="0" d="M 835,254L 1087,254"/></g><path style="stroke:black; fill:none;" d="M 835,254L 1087,254"/><g><g><path style="stroke:#0ff; stroke-width:8px; fill:none; " opacity="0" d="M 835,254 L 1087,254" onmousedown='segmousedown("206","0",evt);' onmouseover='segmouseover("206","0",evt);' onmouseout='segmouseout("206","0",evt);' onclick='segclick("206","0",evt);'/></g></g></g></g>
  <g id="nodes"><g id="195" onmousedown="nodemousedown(195,evt);" onmouseover="nodemouseover(195,evt);" onmouseout="nodemouseout(195,evt);" transform="translate(720,60)"><rect x="-21" y="-21" width="42" height="42" fill="#0ff" style="stroke:none; opacity:0.75;" display="none"/><rect x="-15" y="-15" width="30" height="30" fill="#f0f0d2" style="stroke:black; opacity:1;"/></g><g id="198" onmousedown="nodemousedown(198,evt);" onmouseover="nodemouseover(198,evt);" onmouseout="nodemouseout(198,evt);" transform="translate(718,305)"><rect x="-21" y="-21" width="42" height="42" fill="#0ff" style="stroke:none; opacity:0.75;" display="none"/><rect x="-15" y="-15" width="30" height="30" fill="#f0f0d2" style="stroke:black; opacity:1;"/></g><g id="200" onmousedown="nodemousedown(200,evt);" onmouseover="nodemouseover(200,evt);" onmouseout="nodemouseout(200,evt);" transform="translate(1102,256)"><rect x="-21" y="-21" width="42" height="42" fill="#0ff" style="stroke:none; opacity:0.75;" display="none"/><rect x="-15" y="-15" width="30" height="30" fill="#f0f0d2" style="stroke:black; opacity:1;"/></g><g id="194" onmousedown="nodemousedown(194,evt);" onmouseover="nodemouseover(194,evt);" onmouseout="nodemouseout(194,evt);" transform="translate(850,55)"><rect x="-21" y="-21" width="42" height="42" fill="#0ff" style="stroke:none; opacity:0.75;" display="none"/><rect x="-15" y="-15" width="30" height="30" fill="#f0f0d2" style="stroke:black; opacity:1;"/></g><g id="196" onmousedown="nodemousedown(196,evt);" onmouseover="nodemouseover(196,evt);" onmouseout="nodemouseout(196,evt);" transform="translate(850,254)"><rect x="-21" y="-21" width="42" height="42" fill="#0ff" style="stroke:none; opacity:0.75;" display="none"/><rect x="-15" y="-15" width="30" height="30" fill="#f0f0d2" style="stroke:black; opacity:1;"/></g><g id="199" onmousedown="nodemousedown(199,evt);" onmouseover="nodemouseover(199,evt);" onmouseout="nodemouseout(199,evt);" transform="translate(859,477)"><rect x="-21" y="-21" width="42" height="42" fill="#0ff" style="stroke:none; opacity:0.75;" display="none"/><rect x="-15" y="-15" width="30" height="30" fill="#f0f0d2" style="stroke:black; opacity:1;"/></g><g id="197" onmousedown="nodemousedown(197,evt);" onmouseover="nodemouseover(197,evt);" onmouseout="nodemouseout(197,evt);" transform="translate(335,189)"><rect x="-21" y="-21" width="42" height="42" fill="#0ff" style="stroke:none; opacity:0.75;" display="none"/><rect x="-15" y="-15" width="30" height="30" fill="#f0f0d2" style="stroke:black; opacity:1;"/></g></g>
  <g id="BPs"><g onmousedown="bpmousedown(220,evt);" onmouseover="bpmouseover(220,evt);" onmouseout="bpmouseout(220,evt);" transform="translate(377,60)" opacity="0"><ellipse cx="0" cy="0" rx="16" ry="16" fill="#0ff" style="stroke:none; opacity:0.75;" display="none"/><ellipse cx="0" cy="0" rx="8.464" ry="8.464" fill="#777" style="stroke:black;"/></g><g onmousedown="bpmousedown(221,evt);" onmouseover="bpmouseover(221,evt);" onmouseout="bpmouseout(221,evt);" transform="translate(377,305)" opacity="0"><ellipse cx="0" cy="0" rx="16" ry="16" fill="#0ff" style="stroke:none; opacity:0.75;" display="none"/><ellipse cx="0" cy="0" rx="8.464" ry="8.464" fill="#777" style="stroke:black;"/></g><g onmousedown="bpmousedown(234,evt);" onmouseover="bpmouseover(234,evt);" onmouseout="bpmouseout(234,evt);" transform="translate(378,60)" opacity="0"><ellipse cx="0" cy="0" rx="16" ry="16" fill="#0ff" style="stroke:none; opacity:0.75;" display="none"/><ellipse cx="0" cy="0" rx="8.464" ry="8.464" fill="#777" style="stroke:black;"/></g><g onmousedown="bpmousedown(236,evt);" onmouseover="bpmouseover(236,evt);" onmouseout="bpmouseout(236,evt);" transform="translate(378,189)" opacity="0"><ellipse cx="0" cy="0" rx="16" ry="16" fill="#0ff" style="stroke:none; opacity:0.75;" display="none"/><ellipse cx="0" cy="0" rx="8.464" ry="8.464" fill="#777" style="stroke:black;"/></g></g>
  <g id="ports"/>
</g>
</svg>