<svg xmlns:xlink="http://www.w3.org/1999/xlink" xmlns="http://www.w3.org/2000/svg" height="270px" width="480px" id="SVGCanvas" onmouseup="" onmousemove="">
<rect fill="#bdbddf" width="100%" height="100%" y="0" x="0" id="background" onmousedown="bgmousedown(evt)"/>
<g id="foreground" transform="translate(35.752941176470614,0),scale(0.6352941176470588),translate(-158,-148)">
  <g id="edges"><g id="192"><path style="stroke:#bdbddf; stroke-width:8px; fill:none;" opacity="0.7" d="M 188,523L 188,370"/><g><path style="stroke:#ff0; stroke-width:8px; fill:none; " opacity="0" d="M 188,523L 188,370"/></g><path style="stroke:black; fill:none;" d="M 188,523L 188,370"/><g><g><path style="stroke:#0ff; stroke-width:8px; fill:none; " opacity="0" d="M 188,523 L 188,370" onmousedown='segmousedown("192","0",evt);' onmouseover='segmouseover("192","0",evt);' onmouseout='segmouseout("192","0",evt);' onclick='segclick("192","0",evt);'/></g></g></g><g id="193"><path style="stroke:#bdbddf; stroke-width:8px; fill:none;" opacity="0.7" d="M 296,234L 296,193"/><g><path style="stroke:#ff0; stroke-width:8px; fill:none; " opacity="0" d="M 296,234L 296,193"/></g><path style="stroke:black; fill:none;" d="M 296,234L 296,193"/><g><g><path style="stroke:#0ff; stroke-width:8px; fill:none; " opacity="0" d="M 296,234 L 296,193" onmousedown='segmousedown("193","0",evt);' onmouseover='segmouseover("193","0",evt);' onmouseout='segmouseout("193","0",evt);' onclick='segclick("193","0",evt);'/></g></g></g><g id="184"><path style="stroke:#bdbddf; stroke-width:8px; fill:none;" opacity="0.7" d="M 311,234 H 759 a 12,12 0 0,1 12,12L 771,366"/><g><path style="stroke:#ff0; stroke-width:8px; fill:none; " opacity="0" d="M 311,234 H 759 a 12,12 0 0,1 12,12L 771,366"/></g><path style="stroke:black; fill:none;" d="M 311,234 H 759 a 12,12 0 0,1 12,12L 771,366"/><g><g><path style="stroke:#0ff; stroke-width:8px; fill:none; " opacity="0" d="M 311,234 L 771,234" onmousedown='segmousedown("184","0",evt);' onmouseover='segmouseover("184","0",evt);' onmouseout='segmouseout("184","0",evt);' onclick='segclick("184","0",evt);'/><path style="stroke:#0ff; stroke-width:8px; fill:none; " opacity="0" d="M 771,234 L 771,366" onmousedown='segmousedown("184","1",evt);' onmouseover='segmouseover("184","1",evt);' onmouseout='segmouseout("184","1",evt);' onclick='segclick("184","1",evt);'/></g></g></g><g id="185"><path style="stroke:#bdbddf; stroke-width:8px; fill:none;" opacity="0.7" d="M 756,381 H 618 a 12,12 0 0,1 -12,-12L 606,338"/><g><path style="stroke:#ff0; stroke-width:8px; fill:none; " opacity="0" d="M 756,381 H 618 a 12,12 0 0,1 -12,-12L 606,338"/></g><path style="stroke:black; fill:none;" d="M 756,381 H 618 a 12,12 0 0,1 -12,-12L 606,338"/><g><g><path style="stroke:#0ff; stroke-width:8px; fill:none; " opacity="0" d="M 756,381 L 606,381" onmousedown='segmousedown("185","0",evt);' onmouseover='segmouseover("185","0",evt);' onmouseout='segmouseout("185","0",evt);' onclick='segclick("185","0",evt);'/><path style="stroke:#0ff; stroke-width:8px; fill:none; " opacity="0" d="M 606,381 L 606,338" onmousedown='segmousedown("185","1",evt);' onmouseover='segmouseover("185","1",evt);' onmouseout='segmouseout("185","1",evt);' onclick='segclick("185","1",evt);'/></g></g></g><g id="186"><path style="stroke:#bdbddf; stroke-width:8px; fill:none;" opacity="0.7" d="M 591,310L 535,310"/><g><path style="stroke:#ff0; stroke-width:8px; fill:none; " opacity="0" d="M 591,310L 535,310"/></g><path style="stroke:black; fill:none;" d="M 591,310L 535,310"/><g><g><path style="stroke:#0ff; stroke-width:8px; fill:none; " opacity="0" d="M 591,310 L 535,310" onmousedown='segmousedown("186","0",evt);' onmouseover='segmouseover("186","0",evt);' onmouseout='segmouseout("186","0",evt);' onclick='segclick("186","0",evt);'/></g></g></g><g id="187"><path style="stroke:#bdbddf; stroke-width:8px; fill:none;" opacity="0.7" d="M 281,234 H 244 a 12,12 0 0,0 -12,12 V 358 a 12,12 0 0,1 -12,12L 188,370"/><g><path style="stroke:#ff0; stroke-width:8px; fill:none; " opacity="0" d="M 281,234 H 244 a 12,12 0 0,0 -12,12 V 358 a 12,12 0 0,1 -12,12L 188,370"/></g><path style="stroke:black; fill:none;" d="M 281,234 H 244 a 12,12 0 0,0 -12,12 V 358 a 12,12 0 0,1 -12,12L 188,370"/><g><g><path style="stroke:#0ff; stroke-width:8px; fill:none; " opacity="0" d="M 281,234 L 232,234" onmousedown='segmousedown("187","0",evt);' onmouseover='segmouseover("187","0",evt);' onmouseout='segmouseout("187","0",evt);' onclick='segclick("187","0",evt);'/><path style="stroke:#0ff; stroke-width:8px; fill:none; " opacity="0" d="M 232,234 L 232,370" onmousedown='segmousedown("187","1",evt);' onmouseover='segmouseover("187","1",evt);' onmouseout='segmouseout("187","1",evt);' onclick='segclick("187","1",evt);'/><path style="stroke:#0ff; stroke-width:8px; fill:none; " opacity="0" d="M 232,370 L 188,370" onmousedown='segmousedown("187","2",evt);' onmouseover='segmouseover("187","2",evt);' onmouseout='segmouseout("187","2",evt);' onclick='segclick("187","2",evt);'/></g></g></g><g id="188"><path style="stroke:#bdbddf; stroke-width:8px; fill:none;" opacity="0.7" d="M 771,515L 771,396"/><g><path style="stroke:#ff0; stroke-width:8px; fill:none; " opacity="0" d="M 771,515L 771,396"/></g><path style="stroke:black; fill:none;" d="M 771,515L 771,396"/><g><g><path style="stroke:#0ff; stroke-width:8px; fill:none; " opacity="0" d="M 771,515 L 771,396" onmousedown='segmousedown("188","0",evt);' onmouseover='segmouseover("188","0",evt);' onmouseout='segmouseout("188","0",evt);' onclick='segclick("188","0",evt);'/></g></g></g><g id="189"><path style="stroke:#bdbddf; stroke-width:8px; fill:none;" opacity="0.7" d="M 509,335 V 536 a 12,12 0 0,1 -12,12 H 308 a 12,12 0 0,1 -12,-12L 296,412"/><g><path style="stroke:#ff0; stroke-width:8px; fill:none; " opacity="0" d="M 509,335 V 536 a 12,12 0 0,1 -12,12 H 308 a 12,12 0 0,1 -12,-12L 296,412"/></g><path style="stroke:black; fill:none;" d="M 509,335 V 536 a 12,12 0 0,1 -12,12 H 308 a 12,12 0 0,1 -12,-12L 296,412"/><g><g><path style="stroke:#0ff; stroke-width:8px; fill:none; " opacity="0" d="M 509,335 L 509,548" onmousedown='segmousedown("189","0",evt);' onmouseover='segmouseover("189","0",evt);' onmouseout='segmouseout("189","0",evt);' onclick='segclick("189","0",evt);'/><path style="stroke:#0ff; stroke-width:8px; fill:none; " opacity="0" d="M 509,548 L 296,548" onmousedown='segmousedown("189","1",evt);' onmouseover='segmouseover("189","1",evt);' onmouseout='segmouseout("189","1",evt);' onclick='segclick("189","1",evt);'/><path style="stroke:#0ff; stroke-width:8px; fill:none; " opacity="0" d="M 296,548 L 296,412" onmousedown='segmousedown("189","2",evt);' onmouseover='segmouseover("189","2",evt);' onmouseout='segmouseout("189","2",evt);' onclick='segclick("189","2",evt);'/></g></g></g><g id="190"><path style="stroke:#bdbddf; stroke-width:8px; fill:none;" opacity="0.7" d="M 296,382L 296,249"/><g><path style="stroke:#ff0; stroke-width:8px; fill:none; " opacity="0" d="M 296,382L 296,249"/></g><path style="stroke:black; fill:none;" d="M 296,382L 296,249"/><g><g><path style="stroke:#0ff; stroke-width:8px; fill:none; " opacity="0" d="M 296,382 L 296,249" onmousedown='segmousedown("190","0",evt);' onmouseover='segmouseover("190","0",evt);' onmouseout='segmouseout("190","0",evt);' onclick='segclick("190","0",evt);'/></g></g></g><g id="191"><path style="stroke:#bdbddf; stroke-width:8px; fill:none;" opacity="0.7" d="M 281,397 H 244 a 12,12 0 0,0 -12,12 V 526 a 12,12 0 0,1 -12,12L 203,538"/><g><path style="stroke:#ff0; stroke-width:8px; fill:none; " opacity="0" d="M 281,397 H 244 a 12,12 0 0,0 -12,12 V 526 a 12,12 0 0,1 -12,12L 203,538"/></g><path style="stroke:black; fill:none;" d="M 281,397 H 244 a 12,12 0 0,0 -12,12 V 526 a 12,12 0 0,1 -12,12L 203,538"/><g><g><path style="stroke:#0ff; stroke-width:8px; fill:none; " opacity="0" d="M 281,397 L 232,397" onmousedown='segmousedown("191","0",evt);' onmouseover='segmouseover("191","0",evt);' onmouseout='segmouseout("191","0",evt);' onclick='segclick("191","0",evt);'/><path style="stroke:#0ff; stroke-width:8px; fill:none; " opacity="0" d="M 232,397 L 232,538" onmousedown='segmousedown("191","1",evt);' onmouseover='segmouseover("191","1",evt);' onmouseout='segmouseout("191","1",evt);' onclick='segclick("191","1",evt);'/><path style="stroke:#0ff; stroke-width:8px; fill:none; " opacity="0" d="M 232,538 L 203,538" onmousedown='segmousedown("191","2",evt);' onmouseover='segmouseover("191","2",evt);' onmouseout='segmouseout("191","2",evt);' onclick='segclick("191","2",evt);'/></g></g></g></g>
  <g id="nodes"><g id="179" onmousedown="nodemousedown(179,evt);" onmouseover="nodemouseover(179,evt);" onmouseout="nodemouseout(179,evt);" transform="translate(188 370)"><rect x="-21" y="-21" width="42" height="42" fill="#0ff" style="stroke:none; opacity:0.75;" display="none"/><rect x="-15" y="-15" width="30" height="30" fill="#f0f0d2" style="stroke:black; opacity:1;"/></g><g id="183" onmousedown="nodemousedown(183,evt);" onmouseover="nodemouseover(183,evt);" onmouseout="nodemouseout(183,evt);" transform="translate(296,178)"><rect x="-21" y="-21" width="42" height="42" fill="#0ff" style="stroke:none; opacity:0.75;" display="none"/><rect x="-15" y="-15" width="30" height="30" fill="#f0f0d2" style="stroke:black; opacity:1;"/></g><g id="175" onmousedown="nodemousedown(175,evt);" onmouseover="nodemouseover(175,evt);" onmouseout="nodemouseout(175,evt);" transform="translate(296,234)"><rect x="-21" y="-21" width="42" height="42" fill="#0ff" style="stroke:none; opacity:0.75;" display="none"/><rect x="-15" y="-15" width="30" height="30" fill="#f0f0d2" style="stroke:black; opacity:1;"/></g><g id="181" onmousedown="nodemousedown(181,evt);" onmouseover="nodemouseover(181,evt);" onmouseout="nodemouseout(181,evt);" transform="translate(188,538)"><rect x="-21" y="-21" width="42" height="42" fill="#0ff" style="stroke:none; opacity:0.75;" display="none"/><rect x="-15" y="-15" width="30" height="30" fill="#f0f0d2" style="stroke:black; opacity:1;"/></g><g id="180" onmousedown="nodemousedown(180,evt);" onmouseover="nodemouseover(180,evt);" onmouseout="nodemouseout(180,evt);" transform="translate(296,397)"><rect x="-21" y="-21" width="42" height="42" fill="#0ff" style="stroke:none; opacity:0.75;" display="none"/><rect x="-15" y="-15" width="30" height="30" fill="#f0f0d2" style="stroke:black; opacity:1;"/></g><g id="178" onmousedown="nodemousedown(178,evt);" onmouseover="nodemouseover(178,evt);" onmouseout="nodemouseout(178,evt);" transform="translate(520,320)"><rect x="-21" y="-21" width="42" height="42" fill="#0ff" style="stroke:none; opacity:0.75;" display="none"/><rect x="-15" y="-15" width="30" height="30" fill="#f0f0d2" style="stroke:black; opacity:1;"/></g><g id="177" onmousedown="nodemousedown(177,evt);" onmouseover="nodemouseover(177,evt);" onmouseout="nodemouseout(177,evt);" transform="translate(606,323)"><rect x="-21" y="-21" width="42" height="42" fill="#0ff" style="stroke:none; opacity:0.75;" display="none"/><rect x="-15" y="-15" width="30" height="30" fill="#f0f0d2" style="stroke:black; opacity:1;"/></g><g id="176" onmousedown="nodemousedown(176,evt);" onmouseover="nodemouseover(176,evt);" onmouseout="nodemouseout(176,evt);" transform="translate(771,381)"><rect x="-21" y="-21" width="42" height="42" fill="#0ff" style="stroke:none; opacity:0.75;" display="none"/><rect x="-15" y="-15" width="30" height="30" fill="#f0f0d2" style="stroke:black; opacity:1;"/></g><g id="182" onmousedown="nodemousedown(182,evt);" onmouseover="nodemouseover(182,evt);" onmouseout="nodemouseout(182,evt);" transform="translate(771,530)"><rect x="-21" y="-21" width="42" height="42" fill="#0ff" style="stroke:none; opacity:0.75;" display="none"/><rect x="-15" y="-15" width="30" height="30" fill="#f0f0d2" style="stroke:black; opacity:1;"/></g></g>
  <g id="BPs"><g onmousedown="bpmousedown(207,evt);" onmouseover="bpmouseover(207,evt);" onmouseout="bpmouseout(207,evt);" transform="translate(606,381)" opacity="0"><ellipse cx="0" cy="0" rx="16" ry="16" fill="#0ff" style="stroke:none; opacity:0.75;" display="none"/><ellipse cx="0" cy="0" rx="7.163929600000001" ry="7.163929600000001" fill="#777" style="stroke:black;"/></g><g onmousedown="bpmousedown(214,evt);" onmouseover="bpmouseover(214,evt);" onmouseout="bpmouseout(214,evt);" transform="translate(232,234)" opacity="0"><ellipse cx="0" cy="0" rx="16" ry="16" fill="#0ff" style="stroke:none; opacity:0.75;" display="none"/><ellipse cx="0" cy="0" rx="7.163929600000001" ry="7.163929600000001" fill="#777" style="stroke:black;"/></g><g onmousedown="bpmousedown(215,evt);" onmouseover="bpmouseover(215,evt);" onmouseout="bpmouseout(215,evt);" transform="translate(232 370)" opacity="0"><ellipse cx="0" cy="0" rx="16" ry="16" fill="#0ff" style="stroke:none; opacity:0.75;" display="none"/><ellipse cx="0" cy="0" rx="7.163929600000001" ry="7.163929600000001" fill="#777" style="stroke:black;"/></g><g onmousedown="bpmousedown(221,evt);" onmouseover="bpmouseover(221,evt);" onmouseout="bpmouseout(221,evt);" transform="translate(509,548)" opacity="0"><ellipse cx="0" cy="0" rx="16" ry="16" fill="#0ff" style="stroke:none; opacity:0.75;" display="none"/><ellipse cx="0" cy="0" rx="7.163929600000001" ry="7.163929600000001" fill="#777" style="stroke:black;"/></g><g onmousedown="bpmousedown(228,evt);" onmouseover="bpmouseover(228,evt);" onmouseout="bpmouseout(228,evt);" transform="translate(232,397)" opacity="0"><ellipse cx="0" cy="0" rx="16" ry="16" fill="#0ff" style="stroke:none; opacity:0.75;" display="none"/><ellipse cx="0" cy="0" rx="7.163929600000001" ry="7.163929600000001" fill="#777" style="stroke:black;"/></g><g onmousedown="bpmousedown(229,evt);" onmouseover="bpmouseover(229,evt);" onmouseout="bpmouseout(229,evt);" transform="translate(232,538)" opacity="0"><ellipse cx="0" cy="0" rx="16" ry="16" fill="#0ff" style="stroke:none; opacity:0.75;" display="none"/><ellipse cx="0" cy="0" rx="7.163929600000001" ry="7.163929600000001" fill="#777" style="stroke:black;"/></g><g onmousedown="bpmousedown(232,evt);" onmouseover="bpmouseover(232,evt);" onmouseout="bpmouseout(232,evt);" transform="translate(296,548)" opacity="0"><ellipse cx="0" cy="0" rx="16" ry="16" fill="#0ff" style="stroke:none; opacity:0.75;" display="none"/><ellipse cx="0" cy="0" rx="7.163929600000001" ry="7.163929600000001" fill="#777" style="stroke:black;"/></g><g onmousedown="bpmousedown(233,evt);" onmouseover="bpmouseover(233,evt);" onmouseout="bpmouseout(233,evt);" transform="translate(771,234)" opacity="0"><ellipse cx="0" cy="0" rx="16" ry="16" fill="#0ff" style="stroke:none; opacity:0.75;" display="none"/><ellipse cx="0" cy="0" rx="7.163929600000001" ry="7.163929600000001" fill="#777" style="stroke:black;"/></g></g>
  <g id="ports"/>
</g>
</svg>