<svg xmlns:xlink="http://www.w3.org/1999/xlink" xmlns="http://www.w3.org/2000/svg" height="270px" width="480px" id="SVGCanvas" onmouseup="" onmousemove="">
<rect fill="#bdbddf" width="100%" height="100%" y="0" x="0" id="background" onmousedown="bgmousedown(evt)"/>
<g id="foreground" transform="translate(40.362190812720854,0),scale(0.47703180212014135),translate(-153,-9)">
  <g id="edges"><g id="266"><path style="stroke:#bdbddf; stroke-width:8px; fill:none;" opacity="0.7" d="M 523,138L 417.5,138"/><g><path style="stroke:#ff0; stroke-width:8px; fill:none; " opacity="0" d="M 523,138L 417.5,138"/></g><path style="stroke:black; fill:none;" d="M 523,138L 417.5,138"/><g><g><path style="stroke:#0ff; stroke-width:8px; fill:none; " opacity="0" d="M 523,138 L 417.5,138" onmousedown='segmousedown("266","0",evt);' onmouseover='segmouseover("266","0",evt);' onmouseout='segmouseout("266","0",evt);' onclick='segclick("266","0",evt);'/></g></g></g><g id="267"><path style="stroke:#bdbddf; stroke-width:8px; fill:none;" opacity="0.7" d="M 399,157L 399,251"/><g><path style="stroke:#ff0; stroke-width:8px; fill:none; " opacity="0" d="M 399,157L 399,251"/></g><path style="stroke:black; fill:none;" d="M 399,157L 399,251"/><g><g><path style="stroke:#0ff; stroke-width:8px; fill:none; " opacity="0" d="M 399,157 L 399,251" onmousedown='segmousedown("267","0",evt);' onmouseover='segmouseover("267","0",evt);' onmouseout='segmouseout("267","0",evt);' onclick='segclick("267","0",evt);'/></g></g></g><g id="268"><path style="stroke:#bdbddf; stroke-width:8px; fill:none;" opacity="0.7" d="M 775,54 V 135 a 12,12 0 0,1 -12,12L 538,147"/><g><path style="stroke:#ff0; stroke-width:8px; fill:none; " opacity="0" d="M 775,54 V 135 a 12,12 0 0,1 -12,12L 538,147"/></g><path style="stroke:black; fill:none;" d="M 775,54 V 135 a 12,12 0 0,1 -12,12L 538,147"/><g><g><path style="stroke:#0ff; stroke-width:8px; fill:none; " opacity="0" d="M 775,54 L 775,147" onmousedown='segmousedown("268","0",evt);' onmouseover='segmouseover("268","0",evt);' onmouseout='segmouseout("268","0",evt);' onclick='segclick("268","0",evt);'/><path style="stroke:#0ff; stroke-width:8px; fill:none; " opacity="0" d="M 775,147 L 538,147" onmousedown='segmousedown("268","1",evt);' onmouseover='segmouseover("268","1",evt);' onmouseout='segmouseout("268","1",evt);' onclick='segclick("268","1",evt);'/></g></g></g><g id="269"><path style="stroke:#bdbddf; stroke-width:8px; fill:none;" opacity="0.7" d="M 784,54 V 520 a 12,12 0 0,1 -12,12L 733,532"/><g><path style="stroke:#ff0; stroke-width:8px; fill:none; " opacity="0" d="M 784,54 V 520 a 12,12 0 0,1 -12,12L 733,532"/></g><path style="stroke:black; fill:none;" d="M 784,54 V 520 a 12,12 0 0,1 -12,12L 733,532"/><g><g><path style="stroke:#0ff; stroke-width:8px; fill:none; " opacity="0" d="M 784,54 L 784,532" onmousedown='segmousedown("269","0",evt);' onmouseover='segmouseover("269","0",evt);' onmouseout='segmouseout("269","0",evt);' onclick='segclick("269","0",evt);'/><path style="stroke:#0ff; stroke-width:8px; fill:none; " opacity="0" d="M 784,532 L 733,532" onmousedown='segmousedown("269","1",evt);' onmouseover='segmouseover("269","1",evt);' onmouseout='segmouseout("269","1",evt);' onclick='segclick("269","1",evt);'/></g></g></g><g id="270"><path style="stroke:#bdbddf; stroke-width:8px; fill:none;" opacity="0.7" d="M 703,535L 646,535"/><g><path style="stroke:#ff0; stroke-width:8px; fill:none; " opacity="0" d="M 703,535L 646,535"/></g><path style="stroke:black; fill:none;" d="M 703,535L 646,535"/><g><g><path style="stroke:#0ff; stroke-width:8px; fill:none; " opacity="0" d="M 703,535 L 646,535" onmousedown='segmousedown("270","0",evt);' onmouseover='segmouseover("270","0",evt);' onmouseout='segmouseout("270","0",evt);' onclick='segclick("270","0",evt);'/></g></g></g><g id="271"><path style="stroke:#bdbddf; stroke-width:8px; fill:none;" opacity="0.7" d="M 414,266L 497,266"/><g><path style="stroke:#ff0; stroke-width:8px; fill:none; " opacity="0" d="M 414,266L 497,266"/></g><path style="stroke:black; fill:none;" d="M 414,266L 497,266"/><g><g><path style="stroke:#0ff; stroke-width:8px; fill:none; " opacity="0" d="M 414,266 L 497,266" onmousedown='segmousedown("271","0",evt);' onmouseover='segmouseover("271","0",evt);' onmouseout='segmouseout("271","0",evt);' onclick='segclick("271","0",evt);'/></g></g></g><g id="272"><path style="stroke:#bdbddf; stroke-width:8px; fill:none;" opacity="0.7" d="M 524,297.5L 524,340"/><g><path style="stroke:#ff0; stroke-width:8px; fill:none; " opacity="0" d="M 524,297.5L 524,340"/></g><path style="stroke:black; fill:none;" d="M 524,297.5L 524,340"/><g><g><path style="stroke:#0ff; stroke-width:8px; fill:none; " opacity="0" d="M 524,297.5 L 524,340" onmousedown='segmousedown("272","0",evt);' onmouseover='segmouseover("272","0",evt);' onmouseout='segmouseout("272","0",evt);' onclick='segclick("272","0",evt);'/></g></g></g><g id="273"><path style="stroke:#bdbddf; stroke-width:8px; fill:none;" opacity="0.7" d="M 523,370 V 382 a 12,12 0 0,1 -12,12 H 190 a 12,12 0 0,1 -12,-12 V 53 a 12,12 0 0,1 12,-12L 769,41"/><g><path style="stroke:#ff0; stroke-width:8px; fill:none; " opacity="0" d="M 523,370 V 382 a 12,12 0 0,1 -12,12 H 190 a 12,12 0 0,1 -12,-12 V 53 a 12,12 0 0,1 12,-12L 769,41"/></g><path style="stroke:black; fill:none;" d="M 523,370 V 382 a 12,12 0 0,1 -12,12 H 190 a 12,12 0 0,1 -12,-12 V 53 a 12,12 0 0,1 12,-12L 769,41"/><g><g><path style="stroke:#0ff; stroke-width:8px; fill:none; " opacity="0" d="M 523,370 L 523,394" onmousedown='segmousedown("273","0",evt);' onmouseover='segmouseover("273","0",evt);' onmouseout='segmouseout("273","0",evt);' onclick='segclick("273","0",evt);'/><path style="stroke:#0ff; stroke-width:8px; fill:none; " opacity="0" d="M 523,394 L 178,394" onmousedown='segmousedown("273","1",evt);' onmouseover='segmouseover("273","1",evt);' onmouseout='segmouseout("273","1",evt);' onclick='segclick("273","1",evt);'/><path style="stroke:#0ff; stroke-width:8px; fill:none; " opacity="0" d="M 178,394 L 178,41" onmousedown='segmousedown("273","2",evt);' onmouseover='segmouseover("273","2",evt);' onmouseout='segmouseout("273","2",evt);' onclick='segclick("273","2",evt);'/><path style="stroke:#0ff; stroke-width:8px; fill:none; " opacity="0" d="M 178,41 L 769,41" onmousedown='segmousedown("273","3",evt);' onmouseover='segmouseover("273","3",evt);' onmouseout='segmouseout("273","3",evt);' onclick='segclick("273","3",evt);'/></g></g></g><g id="274"><path style="stroke:#bdbddf; stroke-width:8px; fill:none;" opacity="0.7" d="M 621,520L 621,479"/><g><path style="stroke:#ff0; stroke-width:8px; fill:none; " opacity="0" d="M 621,520L 621,479"/></g><path style="stroke:black; fill:none;" d="M 621,520L 621,479"/><g><g><path style="stroke:#0ff; stroke-width:8px; fill:none; " opacity="0" d="M 621,520 L 621,479" onmousedown='segmousedown("274","0",evt);' onmouseover='segmouseover("274","0",evt);' onmouseout='segmouseout("274","0",evt);' onclick='segclick("274","0",evt);'/></g></g></g><g id="275"><path style="stroke:#bdbddf; stroke-width:8px; fill:none;" opacity="0.7" d="M 596,535L 555,535"/><g><path style="stroke:#ff0; stroke-width:8px; fill:none; " opacity="0" d="M 596,535L 555,535"/></g><path style="stroke:black; fill:none;" d="M 596,535L 555,535"/><g><g><path style="stroke:#0ff; stroke-width:8px; fill:none; " opacity="0" d="M 596,535 L 555,535" onmousedown='segmousedown("275","0",evt);' onmouseover='segmouseover("275","0",evt);' onmouseout='segmouseout("275","0",evt);' onclick='segclick("275","0",evt);'/></g></g></g><g id="276"><path style="stroke:#bdbddf; stroke-width:8px; fill:none;" opacity="0.7" d="M 791,54 V 520 a 12,12 0 0,0 12,12L 832,532"/><g><path style="stroke:#ff0; stroke-width:8px; fill:none; " opacity="0" d="M 791,54 V 520 a 12,12 0 0,0 12,12L 832,532"/></g><path style="stroke:black; fill:none;" d="M 791,54 V 520 a 12,12 0 0,0 12,12L 832,532"/><g><g><path style="stroke:#0ff; stroke-width:8px; fill:none; " opacity="0" d="M 791,54 L 791,532" onmousedown='segmousedown("276","0",evt);' onmouseover='segmouseover("276","0",evt);' onmouseout='segmouseout("276","0",evt);' onclick='segclick("276","0",evt);'/><path style="stroke:#0ff; stroke-width:8px; fill:none; " opacity="0" d="M 791,532 L 832,532" onmousedown='segmousedown("276","1",evt);' onmouseover='segmouseover("276","1",evt);' onmouseout='segmouseout("276","1",evt);' onclick='segclick("276","1",evt);'/></g></g></g><g id="277"><path style="stroke:#bdbddf; stroke-width:8px; fill:none;" opacity="0.7" d="M 862,532L 945,532"/><g><path style="stroke:#ff0; stroke-width:8px; fill:none; " opacity="0" d="M 862,532L 945,532"/></g><path style="stroke:black; fill:none;" d="M 862,532L 945,532"/><g><g><path style="stroke:#0ff; stroke-width:8px; fill:none; " opacity="0" d="M 862,532 L 945,532" onmousedown='segmousedown("277","0",evt);' onmouseover='segmouseover("277","0",evt);' onmouseout='segmouseout("277","0",evt);' onclick='segclick("277","0",evt);'/></g></g></g><g id="278"><path style="stroke:#bdbddf; stroke-width:8px; fill:none;" opacity="0.7" d="M 947,517L 947,420"/><g><path style="stroke:#ff0; stroke-width:8px; fill:none; " opacity="0" d="M 947,517L 947,420"/></g><path style="stroke:black; fill:none;" d="M 947,517L 947,420"/><g><g><path style="stroke:#0ff; stroke-width:8px; fill:none; " opacity="0" d="M 947,517 L 947,420" onmousedown='segmousedown("278","0",evt);' onmouseover='segmouseover("278","0",evt);' onmouseout='segmouseout("278","0",evt);' onclick='segclick("278","0",evt);'/></g></g></g><g id="279"><path style="stroke:#bdbddf; stroke-width:8px; fill:none;" opacity="0.7" d="M 940,390 V 60 a 12,12 0 0,0 -12,-12L 799,48"/><g><path style="stroke:#ff0; stroke-width:8px; fill:none; " opacity="0" d="M 940,390 V 60 a 12,12 0 0,0 -12,-12L 799,48"/></g><path style="stroke:black; fill:none;" d="M 940,390 V 60 a 12,12 0 0,0 -12,-12L 799,48"/><g><g><path style="stroke:#0ff; stroke-width:8px; fill:none; " opacity="0" d="M 940,390 L 940,48" onmousedown='segmousedown("279","0",evt);' onmouseover='segmouseover("279","0",evt);' onmouseout='segmouseout("279","0",evt);' onclick='segclick("279","0",evt);'/><path style="stroke:#0ff; stroke-width:8px; fill:none; " opacity="0" d="M 940,48 L 799,48" onmousedown='segmousedown("279","1",evt);' onmouseover='segmouseover("279","1",evt);' onmouseout='segmouseout("279","1",evt);' onclick='segclick("279","1",evt);'/></g></g></g></g>
  <g id="nodes"><g id="253" onmousedown="nodemousedown(253,evt);" onmouseover="nodemouseover(253,evt);" onmouseout="nodemouseout(253,evt);" transform="translate(523,147)"><rect x="-21" y="-21" width="42" height="42" fill="#0ff" style="stroke:none; opacity:0.75;" display="none"/><rect x="-15" y="-15" width="30" height="30" fill="#f0f0d2" style="stroke:black; opacity:1;"/></g><g id="254" onmousedown="nodemousedown(254,evt);" onmouseover="nodemouseover(254,evt);" onmouseout="nodemouseout(254,evt);" transform="translate(391,142)"><rect x="-32.5" y="-21" width="65" height="42" fill="#0ff" style="stroke:none; opacity:0.75;" display="none"/><rect x="-26.5" y="-15" width="53" height="30" fill="#f0f0d2" style="stroke:black; opacity:1;"/></g><g id="255" onmousedown="nodemousedown(255,evt);" onmouseover="nodemouseover(255,evt);" onmouseout="nodemouseout(255,evt);" transform="translate(399,266)"><rect x="-21" y="-21" width="42" height="42" fill="#0ff" style="stroke:none; opacity:0.75;" display="none"/><rect x="-15" y="-15" width="30" height="30" fill="#f0f0d2" style="stroke:black; opacity:1;"/></g><g id="256" onmousedown="nodemousedown(256,evt);" onmouseover="nodemouseover(256,evt);" onmouseout="nodemouseout(256,evt);" transform="translate(518,272)"><rect x="-27" y="-31.5" width="54" height="63" fill="#0ff" style="stroke:none; opacity:0.75;" display="none"/><rect x="-21" y="-25.5" width="42" height="51" fill="#f0f0d2" style="stroke:black; opacity:1;"/></g><g id="257" onmousedown="nodemousedown(257,evt);" onmouseover="nodemouseover(257,evt);" onmouseout="nodemouseout(257,evt);" transform="translate(523,355)"><rect x="-21" y="-21" width="42" height="42" fill="#0ff" style="stroke:none; opacity:0.75;" display="none"/><rect x="-15" y="-15" width="30" height="30" fill="#f0f0d2" style="stroke:black; opacity:1;"/></g><g id="262" onmousedown="nodemousedown(262,evt);" onmouseover="nodemouseover(262,evt);" onmouseout="nodemouseout(262,evt);" transform="translate(540,534)"><rect x="-21" y="-21" width="42" height="42" fill="#0ff" style="stroke:none; opacity:0.75;" display="none"/><rect x="-15" y="-15" width="30" height="30" fill="#f0f0d2" style="stroke:black; opacity:1;"/></g><g id="259" onmousedown="nodemousedown(259,evt);" onmouseover="nodemouseover(259,evt);" onmouseout="nodemouseout(259,evt);" transform="translate(718,529)"><rect x="-21" y="-21" width="42" height="42" fill="#0ff" style="stroke:none; opacity:0.75;" display="none"/><rect x="-15" y="-15" width="30" height="30" fill="#f0f0d2" style="stroke:black; opacity:1;"/></g><g id="261" onmousedown="nodemousedown(261,evt);" onmouseover="nodemouseover(261,evt);" onmouseout="nodemouseout(261,evt);" transform="translate(621,535)"><rect x="-31" y="-21" width="62" height="42" fill="#0ff" style="stroke:none; opacity:0.75;" display="none"/><rect x="-25" y="-15" width="50" height="30" fill="#f0f0d2" style="stroke:black; opacity:1;"/></g><g id="260" onmousedown="nodemousedown(260,evt);" onmouseover="nodemouseover(260,evt);" onmouseout="nodemouseout(260,evt);" transform="translate(626,464)"><rect x="-21" y="-21" width="42" height="42" fill="#0ff" style="stroke:none; opacity:0.75;" display="none"/><rect x="-15" y="-15" width="30" height="30" fill="#f0f0d2" style="stroke:black; opacity:1;"/></g><g id="258" onmousedown="nodemousedown(258,evt);" onmouseover="nodemouseover(258,evt);" onmouseout="nodemouseout(258,evt);" transform="translate(784,39)"><rect x="-21" y="-21" width="42" height="42" fill="#0ff" style="stroke:none; opacity:0.75;" display="none"/><rect x="-15" y="-15" width="30" height="30" fill="#f0f0d2" style="stroke:black; opacity:1;"/></g><g id="263" onmousedown="nodemousedown(263,evt);" onmouseover="nodemouseover(263,evt);" onmouseout="nodemouseout(263,evt);" transform="translate(847,532)"><rect x="-21" y="-34" width="42" height="68" fill="#0ff" style="stroke:none; opacity:0.75;" display="none"/><rect x="-15" y="-28" width="30" height="56" fill="#f0f0d2" style="stroke:black; opacity:1;"/></g><g id="264" onmousedown="nodemousedown(264,evt);" onmouseover="nodemouseover(264,evt);" onmouseout="nodemouseout(264,evt);" transform="translate(960,532)"><rect x="-21" y="-21" width="42" height="42" fill="#0ff" style="stroke:none; opacity:0.75;" display="none"/><rect x="-15" y="-15" width="30" height="30" fill="#f0f0d2" style="stroke:black; opacity:1;"/></g><g id="265" onmousedown="nodemousedown(265,evt);" onmouseover="nodemouseover(265,evt);" onmouseout="nodemouseout(265,evt);" transform="translate(947,405)"><rect x="-21" y="-21" width="42" height="42" fill="#0ff" style="stroke:none; opacity:0.75;" display="none"/><rect x="-15" y="-15" width="30" height="30" fill="#f0f0d2" style="stroke:black; opacity:1;"/></g></g>
  <g id="BPs"><g onmousedown="bpmousedown(289,evt);" onmouseover="bpmouseover(289,evt);" onmouseout="bpmouseout(289,evt);" transform="translate(775,147)" opacity="0"><ellipse cx="0" cy="0" rx="16" ry="16" fill="#0ff" style="stroke:none; opacity:0.75;" display="none"/><ellipse cx="0" cy="0" rx="9.200000000000001" ry="9.200000000000001" fill="#777" style="stroke:black;"/></g><g onmousedown="bpmousedown(305,evt);" onmouseover="bpmouseover(305,evt);" onmouseout="bpmouseout(305,evt);" transform="translate(178,394)" opacity="0"><ellipse cx="0" cy="0" rx="16" ry="16" fill="#0ff" style="stroke:none; opacity:0.75;" display="none"/><ellipse cx="0" cy="0" rx="9.200000000000001" ry="9.200000000000001" fill="#777" style="stroke:black;"/></g><g onmousedown="bpmousedown(327,evt);" onmouseover="bpmouseover(327,evt);" onmouseout="bpmouseout(327,evt);" transform="translate(940,48)" opacity="0"><ellipse cx="0" cy="0" rx="16" ry="16" fill="#0ff" style="stroke:none; opacity:0.75;" display="none"/><ellipse cx="0" cy="0" rx="9.200000000000001" ry="9.200000000000001" fill="#777" style="stroke:black;"/></g><g onmousedown="bpmousedown(341,evt);" onmouseover="bpmouseover(341,evt);" onmouseout="bpmouseout(341,evt);" transform="translate(791,532)" opacity="0"><ellipse cx="0" cy="0" rx="16" ry="16" fill="#0ff" style="stroke:none; opacity:0.75;" display="none"/><ellipse cx="0" cy="0" rx="9.200000000000001" ry="9.200000000000001" fill="#777" style="stroke:black;"/></g><g onmousedown="bpmousedown(343,evt);" onmouseover="bpmouseover(343,evt);" onmouseout="bpmouseout(343,evt);" transform="translate(178,41)" opacity="0"><ellipse cx="0" cy="0" rx="16" ry="16" fill="#0ff" style="stroke:none; opacity:0.75;" display="none"/><ellipse cx="0" cy="0" rx="9.200000000000001" ry="9.200000000000001" fill="#777" style="stroke:black;"/></g><g onmousedown="bpmousedown(353,evt);" onmouseover="bpmouseover(353,evt);" onmouseout="bpmouseout(353,evt);" transform="translate(784,532)" opacity="0"><ellipse cx="0" cy="0" rx="16" ry="16" fill="#0ff" style="stroke:none; opacity:0.75;" display="none"/><ellipse cx="0" cy="0" rx="9.200000000000001" ry="9.200000000000001" fill="#777" style="stroke:black;"/></g><g onmousedown="bpmousedown(407,evt);" onmouseover="bpmouseover(407,evt);" onmouseout="bpmouseout(407,evt);" transform="translate(523,394)" opacity="0"><ellipse cx="0" cy="0" rx="16" ry="16" fill="#0ff" style="stroke:none; opacity:0.75;" display="none"/><ellipse cx="0" cy="0" rx="9.200000000000001" ry="9.200000000000001" fill="#777" style="stroke:black;"/></g></g>
  <g id="ports"/>
</g>
</svg>