<svg xmlns:xlink="http://www.w3.org/1999/xlink" xmlns="http://www.w3.org/2000/svg" height="270px" width="480px" id="SVGCanvas" onmouseup="" onmousemove="">
<rect fill="#bdbddf" width="100%" height="100%" y="0" x="0" id="background" onmousedown="bgmousedown(evt)"/>
<g id="foreground" transform="translate(15.989010989010978,0),scale(0.4945054945054945),translate(149,77)">
  <g id="edges"><g id="241"><path style="stroke:#bdbddf; stroke-width:8px; fill:none;" opacity="0.7" d="M 191,434 H 240 a 12,12 0 0,0 12,-12L 252,314"/><g><path style="stroke:#ff0; stroke-width:8px; fill:none; " opacity="0" d="M 191,434 H 240 a 12,12 0 0,0 12,-12L 252,314"/></g><path style="stroke:black; fill:none;" d="M 191,434 H 240 a 12,12 0 0,0 12,-12L 252,314"/><g><g><path style="stroke:#0ff; stroke-width:8px; fill:none; " opacity="0" d="M 191,434 L 252,434" onmousedown='segmousedown("241","0",evt);' onmouseover='segmouseover("241","0",evt);' onmouseout='segmouseout("241","0",evt);' onclick='segclick("241","0",evt);'/><path style="stroke:#0ff; stroke-width:8px; fill:none; " opacity="0" d="M 252,434 L 252,314" onmousedown='segmousedown("241","1",evt);' onmouseover='segmouseover("241","1",evt);' onmouseout='segmouseout("241","1",evt);' onclick='segclick("241","1",evt);'/></g></g></g><g id="242"><path style="stroke:#bdbddf; stroke-width:8px; fill:none;" opacity="0.7" d="M 268,299L 712,299"/><g><path style="stroke:#ff0; stroke-width:8px; fill:none; " opacity="0" d="M 268,299L 712,299"/></g><path style="stroke:black; fill:none;" d="M 268,299L 712,299"/><g><g><path style="stroke:#0ff; stroke-width:8px; fill:none; " opacity="0" d="M 268,299 L 712,299" onmousedown='segmousedown("242","0",evt);' onmouseover='segmouseover("242","0",evt);' onmouseout='segmouseout("242","0",evt);' onclick='segclick("242","0",evt);'/></g></g></g><g id="243"><path style="stroke:#bdbddf; stroke-width:8px; fill:none;" opacity="0.7" d="M 717,273 V -40 a 12,12 0 0,0 -12,-12 H 188 a 12,12 0 0,0 -12,12L 176,62"/><g><path style="stroke:#ff0; stroke-width:8px; fill:none; " opacity="0" d="M 717,273 V -40 a 12,12 0 0,0 -12,-12 H 188 a 12,12 0 0,0 -12,12L 176,62"/></g><path style="stroke:black; fill:none;" d="M 717,273 V -40 a 12,12 0 0,0 -12,-12 H 188 a 12,12 0 0,0 -12,12L 176,62"/><g><g><path style="stroke:#0ff; stroke-width:8px; fill:none; " opacity="0" d="M 717,273 L 717,-52" onmousedown='segmousedown("243","0",evt);' onmouseover='segmouseover("243","0",evt);' onmouseout='segmouseout("243","0",evt);' onclick='segclick("243","0",evt);'/><path style="stroke:#0ff; stroke-width:8px; fill:none; " opacity="0" d="M 717,-52 L 176,-52" onmousedown='segmousedown("243","1",evt);' onmouseover='segmouseover("243","1",evt);' onmouseout='segmouseout("243","1",evt);' onclick='segclick("243","1",evt);'/><path style="stroke:#0ff; stroke-width:8px; fill:none; " opacity="0" d="M 176,-52 L 176,62" onmousedown='segmousedown("243","2",evt);' onmouseover='segmouseover("243","2",evt);' onmouseout='segmouseout("243","2",evt);' onclick='segclick("243","2",evt);'/></g></g></g><g id="244"><path style="stroke:#bdbddf; stroke-width:8px; fill:none;" opacity="0.7" d="M 183,92L 183,419"/><g><path style="stroke:#ff0; stroke-width:8px; fill:none; " opacity="0" d="M 183,92L 183,419"/></g><path style="stroke:black; fill:none;" d="M 183,92L 183,419"/><g><g><path style="stroke:#0ff; stroke-width:8px; fill:none; " opacity="0" d="M 183,92 L 183,419" onmousedown='segmousedown("244","0",evt);' onmouseover='segmouseover("244","0",evt);' onmouseout='segmouseout("244","0",evt);' onclick='segclick("244","0",evt);'/></g></g></g><g id="245"><path style="stroke:#bdbddf; stroke-width:8px; fill:none;" opacity="0.7" d="M 246,284L 246,12"/><g><path style="stroke:#ff0; stroke-width:8px; fill:none; " opacity="0" d="M 246,284L 246,12"/></g><path style="stroke:black; fill:none;" d="M 246,284L 246,12"/><g><g><path style="stroke:#0ff; stroke-width:8px; fill:none; " opacity="0" d="M 246,284 L 246,12" onmousedown='segmousedown("245","0",evt);' onmouseover='segmouseover("245","0",evt);' onmouseout='segmouseout("245","0",evt);' onclick='segclick("245","0",evt);'/></g></g></g><g id="246"><path style="stroke:#bdbddf; stroke-width:8px; fill:none;" opacity="0.7" d="M 261,-3 H 344 a 4,4 0 0,1 4,4L 348,5"/><g><path style="stroke:#ff0; stroke-width:8px; fill:none; " opacity="0" d="M 261,-3 H 344 a 4,4 0 0,1 4,4L 348,5"/></g><path style="stroke:black; fill:none;" d="M 261,-3 H 344 a 4,4 0 0,1 4,4L 348,5"/><g><g><path style="stroke:#0ff; stroke-width:8px; fill:none; " opacity="0" d="M 261,-3 L 348,-3" onmousedown='segmousedown("246","0",evt);' onmouseover='segmouseover("246","0",evt);' onmouseout='segmouseout("246","0",evt);' onclick='segclick("246","0",evt);'/><path style="stroke:#0ff; stroke-width:8px; fill:none; " opacity="0" d="M 348,-3 L 348,5" onmousedown='segmousedown("246","1",evt);' onmouseover='segmouseover("246","1",evt);' onmouseout='segmouseout("246","1",evt);' onclick='segclick("246","1",evt);'/></g></g></g><g id="247"><path style="stroke:#bdbddf; stroke-width:8px; fill:none;" opacity="0.7" d="M 363,-5L 439,-5"/><g><path style="stroke:#ff0; stroke-width:8px; fill:none; " opacity="0" d="M 363,-5L 439,-5"/></g><path style="stroke:black; fill:none;" d="M 363,-5L 439,-5"/><g><g><path style="stroke:#0ff; stroke-width:8px; fill:none; " opacity="0" d="M 363,-5 L 439,-5" onmousedown='segmousedown("247","0",evt);' onmouseover='segmouseover("247","0",evt);' onmouseout='segmouseout("247","0",evt);' onclick='segclick("247","0",evt);'/></g></g></g><g id="248"><path style="stroke:#bdbddf; stroke-width:8px; fill:none;" opacity="0.7" d="M 454,5L 454,140"/><g><path style="stroke:#ff0; stroke-width:8px; fill:none; " opacity="0" d="M 454,5L 454,140"/></g><path style="stroke:black; fill:none;" d="M 454,5L 454,140"/><g><g><path style="stroke:#0ff; stroke-width:8px; fill:none; " opacity="0" d="M 454,5 L 454,140" onmousedown='segmousedown("248","0",evt);' onmouseover='segmouseover("248","0",evt);' onmouseout='segmouseout("248","0",evt);' onclick='segclick("248","0",evt);'/></g></g></g><g id="249"><path style="stroke:#bdbddf; stroke-width:8px; fill:none;" opacity="0.7" d="M 167,92 V 237 a 12,12 0 0,1 -12,12L 107,249"/><g><path style="stroke:#ff0; stroke-width:8px; fill:none; " opacity="0" d="M 167,92 V 237 a 12,12 0 0,1 -12,12L 107,249"/></g><path style="stroke:black; fill:none;" d="M 167,92 V 237 a 12,12 0 0,1 -12,12L 107,249"/><g><g><path style="stroke:#0ff; stroke-width:8px; fill:none; " opacity="0" d="M 167,92 L 167,249" onmousedown='segmousedown("249","0",evt);' onmouseover='segmouseover("249","0",evt);' onmouseout='segmouseout("249","0",evt);' onclick='segclick("249","0",evt);'/><path style="stroke:#0ff; stroke-width:8px; fill:none; " opacity="0" d="M 167,249 L 107,249" onmousedown='segmousedown("249","1",evt);' onmouseover='segmouseover("249","1",evt);' onmouseout='segmouseout("249","1",evt);' onclick='segclick("249","1",evt);'/></g></g></g><g id="250"><path style="stroke:#bdbddf; stroke-width:8px; fill:none;" opacity="0.7" d="M 92,234L 92,72"/><g><path style="stroke:#ff0; stroke-width:8px; fill:none; " opacity="0" d="M 92,234L 92,72"/></g><path style="stroke:black; fill:none;" d="M 92,234L 92,72"/><g><g><path style="stroke:#0ff; stroke-width:8px; fill:none; " opacity="0" d="M 92,234 L 92,72" onmousedown='segmousedown("250","0",evt);' onmouseover='segmouseover("250","0",evt);' onmouseout='segmouseout("250","0",evt);' onclick='segclick("250","0",evt);'/></g></g></g><g id="251"><path style="stroke:#bdbddf; stroke-width:8px; fill:none;" opacity="0.7" d="M 92,57 H 75 a 12,12 0 0,0 -12,12 V 222 a 12,12 0 0,1 -12,12L -104,234"/><g><path style="stroke:#ff0; stroke-width:8px; fill:none; " opacity="0" d="M 92,57 H 75 a 12,12 0 0,0 -12,12 V 222 a 12,12 0 0,1 -12,12L -104,234"/></g><path style="stroke:black; fill:none;" d="M 92,57 H 75 a 12,12 0 0,0 -12,12 V 222 a 12,12 0 0,1 -12,12L -104,234"/><g><g><path style="stroke:#0ff; stroke-width:8px; fill:none; " opacity="0" d="M 92,57 L 63,57" onmousedown='segmousedown("251","0",evt);' onmouseover='segmouseover("251","0",evt);' onmouseout='segmouseout("251","0",evt);' onclick='segclick("251","0",evt);'/><path style="stroke:#0ff; stroke-width:8px; fill:none; " opacity="0" d="M 63,57 L 63,234" onmousedown='segmousedown("251","1",evt);' onmouseover='segmouseover("251","1",evt);' onmouseout='segmouseout("251","1",evt);' onclick='segclick("251","1",evt);'/><path style="stroke:#0ff; stroke-width:8px; fill:none; " opacity="0" d="M 63,234 L -104,234" onmousedown='segmousedown("251","2",evt);' onmouseover='segmouseover("251","2",evt);' onmouseout='segmouseout("251","2",evt);' onclick='segclick("251","2",evt);'/></g></g></g><g id="252"><path style="stroke:#bdbddf; stroke-width:8px; fill:none;" opacity="0.7" d="M 94,264L 94,424"/><g><path style="stroke:#ff0; stroke-width:8px; fill:none; " opacity="0" d="M 94,264L 94,424"/></g><path style="stroke:black; fill:none;" d="M 94,264L 94,424"/><g><g><path style="stroke:#0ff; stroke-width:8px; fill:none; " opacity="0" d="M 94,264 L 94,424" onmousedown='segmousedown("252","0",evt);' onmouseover='segmouseover("252","0",evt);' onmouseout='segmouseout("252","0",evt);' onclick='segclick("252","0",evt);'/></g></g></g></g>
  <g id="nodes"><g id="240" onmousedown="nodemousedown(240,evt);" onmouseover="nodemouseover(240,evt);" onmouseout="nodemouseout(240,evt);" transform="translate(-119,234)"><rect x="-21" y="-21" width="42" height="42" fill="#0ff" style="stroke:none; opacity:0.75;" display="none"/><rect x="-15" y="-15" width="30" height="30" fill="#f0f0d2" style="stroke:black; opacity:1;"/></g><g id="239" onmousedown="nodemousedown(239,evt);" onmouseover="nodemouseover(239,evt);" onmouseout="nodemouseout(239,evt);" transform="translate(92 57)"><rect x="-21" y="-21" width="42" height="42" fill="#0ff" style="stroke:none; opacity:0.75;" display="none"/><rect x="-15" y="-15" width="30" height="30" fill="#f0f0d2" style="stroke:black; opacity:1;"/></g><g id="237" onmousedown="nodemousedown(237,evt);" onmouseover="nodemouseover(237,evt);" onmouseout="nodemouseout(237,evt);" transform="translate(92,249)"><rect x="-21" y="-21" width="42" height="42" fill="#0ff" style="stroke:none; opacity:0.75;" display="none"/><rect x="-15" y="-15" width="30" height="30" fill="#f0f0d2" style="stroke:black; opacity:1;"/></g><g id="238" onmousedown="nodemousedown(238,evt);" onmouseover="nodemouseover(238,evt);" onmouseout="nodemouseout(238,evt);" transform="translate(94,439)"><rect x="-21" y="-21" width="42" height="42" fill="#0ff" style="stroke:none; opacity:0.75;" display="none"/><rect x="-15" y="-15" width="30" height="30" fill="#f0f0d2" style="stroke:black; opacity:1;"/></g><g id="229" onmousedown="nodemousedown(229,evt);" onmouseover="nodemouseover(229,evt);" onmouseout="nodemouseout(229,evt);" transform="translate(176,77)"><rect x="-21" y="-21" width="42" height="42" fill="#0ff" style="stroke:none; opacity:0.75;" display="none"/><rect x="-15" y="-15" width="30" height="30" fill="#f0f0d2" style="stroke:black; opacity:1;"/></g><g id="230" onmousedown="nodemousedown(230,evt);" onmouseover="nodemouseover(230,evt);" onmouseout="nodemouseout(230,evt);" transform="translate(176,434)"><rect x="-21" y="-21" width="42" height="42" fill="#0ff" style="stroke:none; opacity:0.75;" display="none"/><rect x="-15" y="-15" width="30" height="30" fill="#f0f0d2" style="stroke:black; opacity:1;"/></g><g id="234" onmousedown="nodemousedown(234,evt);" onmouseover="nodemouseover(234,evt);" onmouseout="nodemouseout(234,evt);" transform="translate(348,-10)"><rect x="-21" y="-21" width="42" height="42" fill="#0ff" style="stroke:none; opacity:0.75;" display="none"/><rect x="-15" y="-15" width="30" height="30" fill="#f0f0d2" style="stroke:black; opacity:1;"/></g><g id="235" onmousedown="nodemousedown(235,evt);" onmouseover="nodemouseover(235,evt);" onmouseout="nodemouseout(235,evt);" transform="translate(454,-10)"><rect x="-21" y="-21" width="42" height="42" fill="#0ff" style="stroke:none; opacity:0.75;" display="none"/><rect x="-15" y="-15" width="30" height="30" fill="#f0f0d2" style="stroke:black; opacity:1;"/></g><g id="236" onmousedown="nodemousedown(236,evt);" onmouseover="nodemouseover(236,evt);" onmouseout="nodemouseout(236,evt);" transform="translate(461,155)"><rect x="-21" y="-21" width="42" height="42" fill="#0ff" style="stroke:none; opacity:0.75;" display="none"/><rect x="-15" y="-15" width="30" height="30" fill="#f0f0d2" style="stroke:black; opacity:1;"/></g><g id="233" onmousedown="nodemousedown(233,evt);" onmouseover="nodemouseover(233,evt);" onmouseout="nodemouseout(233,evt);" transform="translate(246,-3)"><rect x="-21" y="-21" width="42" height="42" fill="#0ff" style="stroke:none; opacity:0.75;" display="none"/><rect x="-15" y="-15" width="30" height="30" fill="#f0f0d2" style="stroke:black; opacity:1;"/></g><g id="231" onmousedown="nodemousedown(231,evt);" onmouseover="nodemouseover(231,evt);" onmouseout="nodemouseout(231,evt);" transform="translate(253,299)"><rect x="-21" y="-21" width="42" height="42" fill="#0ff" style="stroke:none; opacity:0.75;" display="none"/><rect x="-15" y="-15" width="30" height="30" fill="#f0f0d2" style="stroke:black; opacity:1;"/></g><g id="232" onmousedown="nodemousedown(232,evt);" onmouseover="nodemouseover(232,evt);" onmouseout="nodemouseout(232,evt);" transform="translate(727,288)"><rect x="-21" y="-21" width="42" height="42" fill="#0ff" style="stroke:none; opacity:0.75;" display="none"/><rect x="-15" y="-15" width="30" height="30" fill="#f0f0d2" style="stroke:black; opacity:1;"/></g></g>
  <g id="BPs"><g onmousedown="bpmousedown(261,evt);" onmouseover="bpmouseover(261,evt);" onmouseout="bpmouseout(261,evt);" transform="translate(717,-52)" opacity="0"><ellipse cx="0" cy="0" rx="16" ry="16" fill="#0ff" style="stroke:none; opacity:0.75;" display="none"/><ellipse cx="0" cy="0" rx="8.464" ry="8.464" fill="#777" style="stroke:black;"/></g><g onmousedown="bpmousedown(262,evt);" onmouseover="bpmouseover(262,evt);" onmouseout="bpmouseout(262,evt);" transform="translate(176,-52)" opacity="0"><ellipse cx="0" cy="0" rx="16" ry="16" fill="#0ff" style="stroke:none; opacity:0.75;" display="none"/><ellipse cx="0" cy="0" rx="8.464" ry="8.464" fill="#777" style="stroke:black;"/></g><g onmousedown="bpmousedown(281,evt);" onmouseover="bpmouseover(281,evt);" onmouseout="bpmouseout(281,evt);" transform="translate(167,249)" opacity="0"><ellipse cx="0" cy="0" rx="16" ry="16" fill="#0ff" style="stroke:none; opacity:0.75;" display="none"/><ellipse cx="0" cy="0" rx="8.464" ry="8.464" fill="#777" style="stroke:black;"/></g><g onmousedown="bpmousedown(287,evt);" onmouseover="bpmouseover(287,evt);" onmouseout="bpmouseout(287,evt);" transform="translate(63 57)" opacity="0"><ellipse cx="0" cy="0" rx="16" ry="16" fill="#0ff" style="stroke:none; opacity:0.75;" display="none"/><ellipse cx="0" cy="0" rx="8.464" ry="8.464" fill="#777" style="stroke:black;"/></g><g onmousedown="bpmousedown(288,evt);" onmouseover="bpmouseover(288,evt);" onmouseout="bpmouseout(288,evt);" transform="translate(63,234)" opacity="0"><ellipse cx="0" cy="0" rx="16" ry="16" fill="#0ff" style="stroke:none; opacity:0.75;" display="none"/><ellipse cx="0" cy="0" rx="8.464" ry="8.464" fill="#777" style="stroke:black;"/></g><g onmousedown="bpmousedown(315,evt);" onmouseover="bpmouseover(315,evt);" onmouseout="bpmouseout(315,evt);" transform="translate(252,434)" opacity="0"><ellipse cx="0" cy="0" rx="16" ry="16" fill="#0ff" style="stroke:none; opacity:0.75;" display="none"/><ellipse cx="0" cy="0" rx="8.464" ry="8.464" fill="#777" style="stroke:black;"/></g><g onmousedown="bpmousedown(317,evt);" onmouseover="bpmouseover(317,evt);" onmouseout="bpmouseout(317,evt);" transform="translate(348,-3)" opacity="0"><ellipse cx="0" cy="0" rx="16" ry="16" fill="#0ff" style="stroke:none; opacity:0.75;" display="none"/><ellipse cx="0" cy="0" rx="8.464" ry="8.464" fill="#777" style="stroke:black;"/></g></g>
  <g id="ports"/>
</g>
</svg>