<svg xmlns:xlink="http://www.w3.org/1999/xlink" xmlns="http://www.w3.org/2000/svg" height="270px" width="480px" id="SVGCanvas" onmouseup="" onmousemove="">
<rect fill="#bdbddf" width="100%" height="100%" y="0" x="0" id="background" onmousedown="bgmousedown(evt)"/>
<g id="foreground" transform="translate(0,20.3125),scale(0.625),translate(-213,16)">
  <g id="edges"><g id="328"><path style="stroke:#bdbddf; stroke-width:8px; fill:none;" opacity="0.7" d="M 936,321L 754,321"/><g><path style="stroke:#ff0; stroke-width:8px; fill:none; " opacity="0" d="M 936,321L 754,321"/></g><path style="stroke:black; fill:none;" d="M 936,321L 754,321"/><g><g><path style="stroke:#0ff; stroke-width:8px; fill:none; " opacity="0" d="M 936,321 L 754,321" onmousedown='segmousedown("328","0",evt);' onmouseover='segmouseover("328","0",evt);' onmouseout='segmouseout("328","0",evt);' onclick='segclick("328","0",evt);'/></g></g></g><g id="329"><path style="stroke:#bdbddf; stroke-width:8px; fill:none;" opacity="0.7" d="M 742,306L 742,188"/><g><path style="stroke:#ff0; stroke-width:8px; fill:none; " opacity="0" d="M 742,306L 742,188"/></g><path style="stroke:black; fill:none;" d="M 742,306L 742,188"/><g><g><path style="stroke:#0ff; stroke-width:8px; fill:none; " opacity="0" d="M 742,306 L 742,188" onmousedown='segmousedown("329","0",evt);' onmouseover='segmouseover("329","0",evt);' onmouseout='segmouseout("329","0",evt);' onclick='segclick("329","0",evt);'/></g></g></g><g id="330"><path style="stroke:#bdbddf; stroke-width:8px; fill:none;" opacity="0.7" d="M 951,194L 951,306"/><g><path style="stroke:#ff0; stroke-width:8px; fill:none; " opacity="0" d="M 951,194L 951,306"/></g><path style="stroke:black; fill:none;" d="M 951,194L 951,306"/><g><g><path style="stroke:#0ff; stroke-width:8px; fill:none; " opacity="0" d="M 951,194 L 951,306" onmousedown='segmousedown("330","0",evt);' onmouseover='segmouseover("330","0",evt);' onmouseout='segmouseout("330","0",evt);' onclick='segclick("330","0",evt);'/></g></g></g><g id="331"><path style="stroke:#bdbddf; stroke-width:8px; fill:none;" opacity="0.7" d="M 727,165L 936,165"/><g><path style="stroke:#ff0; stroke-width:8px; fill:none; " opacity="0" d="M 727,165L 936,165"/></g><path style="stroke:black; fill:none;" d="M 727,165L 936,165"/><g><g><path style="stroke:#0ff; stroke-width:8px; fill:none; " opacity="0" d="M 727,165 L 936,165" onmousedown='segmousedown("331","0",evt);' onmouseover='segmouseover("331","0",evt);' onmouseout='segmouseout("331","0",evt);' onclick='segclick("331","0",evt);'/></g></g></g><g id="332"><path style="stroke:#bdbddf; stroke-width:8px; fill:none;" opacity="0.7" d="M 561,173L 727,173"/><g><path style="stroke:#ff0; stroke-width:8px; fill:none; " opacity="0" d="M 561,173L 727,173"/></g><path style="stroke:black; fill:none;" d="M 561,173L 727,173"/><g><g><path style="stroke:#0ff; stroke-width:8px; fill:none; " opacity="0" d="M 561,173 L 727,173" onmousedown='segmousedown("332","0",evt);' onmouseover='segmouseover("332","0",evt);' onmouseout='segmouseout("332","0",evt);' onclick='segclick("332","0",evt);'/></g></g></g><g id="333"><path style="stroke:#bdbddf; stroke-width:8px; fill:none;" opacity="0.7" d="M 560,167 V 141 a 12,12 0 0,0 -12,-12L 350,129"/><g><path style="stroke:#ff0; stroke-width:8px; fill:none; " opacity="0" d="M 560,167 V 141 a 12,12 0 0,0 -12,-12L 350,129"/></g><path style="stroke:black; fill:none;" d="M 560,167 V 141 a 12,12 0 0,0 -12,-12L 350,129"/><g><g><path style="stroke:#0ff; stroke-width:8px; fill:none; " opacity="0" d="M 560,167 L 560,129" onmousedown='segmousedown("333","0",evt);' onmouseover='segmouseover("333","0",evt);' onmouseout='segmouseout("333","0",evt);' onclick='segclick("333","0",evt);'/><path style="stroke:#0ff; stroke-width:8px; fill:none; " opacity="0" d="M 560,129 L 350,129" onmousedown='segmousedown("333","1",evt);' onmouseover='segmouseover("333","1",evt);' onmouseout='segmouseout("333","1",evt);' onclick='segclick("333","1",evt);'/></g></g></g><g id="334"><path style="stroke:#bdbddf; stroke-width:8px; fill:none;" opacity="0.7" d="M 320,129 H 250 a 12,12 0 0,0 -12,12 V 219 a 12,12 0 0,0 12,12L 325,231"/><g><path style="stroke:#ff0; stroke-width:8px; fill:none; " opacity="0" d="M 320,129 H 250 a 12,12 0 0,0 -12,12 V 219 a 12,12 0 0,0 12,12L 325,231"/></g><path style="stroke:black; fill:none;" d="M 320,129 H 250 a 12,12 0 0,0 -12,12 V 219 a 12,12 0 0,0 12,12L 325,231"/><g><g><path style="stroke:#0ff; stroke-width:8px; fill:none; " opacity="0" d="M 320,129 L 238,129" onmousedown='segmousedown("334","0",evt);' onmouseover='segmouseover("334","0",evt);' onmouseout='segmouseout("334","0",evt);' onclick='segclick("334","0",evt);'/><path style="stroke:#0ff; stroke-width:8px; fill:none; " opacity="0" d="M 238,129 L 238,231" onmousedown='segmousedown("334","1",evt);' onmouseover='segmouseover("334","1",evt);' onmouseout='segmouseout("334","1",evt);' onclick='segclick("334","1",evt);'/><path style="stroke:#0ff; stroke-width:8px; fill:none; " opacity="0" d="M 238,231 L 325,231" onmousedown='segmousedown("334","2",evt);' onmouseover='segmouseover("334","2",evt);' onmouseout='segmouseout("334","2",evt);' onclick='segclick("334","2",evt);'/></g></g></g><g id="335"><path style="stroke:#bdbddf; stroke-width:8px; fill:none;" opacity="0.7" d="M 340,114L 340,29"/><g><path style="stroke:#ff0; stroke-width:8px; fill:none; " opacity="0" d="M 340,114L 340,29"/></g><path style="stroke:black; fill:none;" d="M 340,114L 340,29"/><g><g><path style="stroke:#0ff; stroke-width:8px; fill:none; " opacity="0" d="M 340,114 L 340,29" onmousedown='segmousedown("335","0",evt);' onmouseover='segmouseover("335","0",evt);' onmouseout='segmouseout("335","0",evt);' onclick='segclick("335","0",evt);'/></g></g></g><g id="336"><path style="stroke:#bdbddf; stroke-width:8px; fill:none;" opacity="0.7" d="M 531,182 H 489 a 12,12 0 0,0 -12,12L 477,228"/><g><path style="stroke:#ff0; stroke-width:8px; fill:none; " opacity="0" d="M 531,182 H 489 a 12,12 0 0,0 -12,12L 477,228"/></g><path style="stroke:black; fill:none;" d="M 531,182 H 489 a 12,12 0 0,0 -12,12L 477,228"/><g><g><path style="stroke:#0ff; stroke-width:8px; fill:none; " opacity="0" d="M 531,182 L 477,182" onmousedown='segmousedown("336","0",evt);' onmouseover='segmouseover("336","0",evt);' onmouseout='segmouseout("336","0",evt);' onclick='segclick("336","0",evt);'/><path style="stroke:#0ff; stroke-width:8px; fill:none; " opacity="0" d="M 477,182 L 477,228" onmousedown='segmousedown("336","1",evt);' onmouseover='segmouseover("336","1",evt);' onmouseout='segmouseout("336","1",evt);' onclick='segclick("336","1",evt);'/></g></g></g><g id="337"><path style="stroke:#bdbddf; stroke-width:8px; fill:none;" opacity="0.7" d="M 546,197L 546,228"/><g><path style="stroke:#ff0; stroke-width:8px; fill:none; " opacity="0" d="M 546,197L 546,228"/></g><path style="stroke:black; fill:none;" d="M 546,197L 546,228"/><g><g><path style="stroke:#0ff; stroke-width:8px; fill:none; " opacity="0" d="M 546,197 L 546,228" onmousedown='segmousedown("337","0",evt);' onmouseover='segmouseover("337","0",evt);' onmouseout='segmouseout("337","0",evt);' onclick='segclick("337","0",evt);'/></g></g></g></g>
  <g id="nodes"><g id="321" onmousedown="nodemousedown(321,evt);" onmouseover="nodemouseover(321,evt);" onmouseout="nodemouseout(321,evt);" transform="translate(742,173)"><rect x="-21" y="-21" width="42" height="42" fill="#0ff" style="stroke:none; opacity:0.75;" display="none"/><rect x="-15" y="-15" width="30" height="30" fill="#f0f0d2" style="stroke:black; opacity:1;"/></g><g id="318" onmousedown="nodemousedown(318,evt);" onmouseover="nodemouseover(318,evt);" onmouseout="nodemouseout(318,evt);" transform="translate(951,179)"><rect x="-21" y="-21" width="42" height="42" fill="#0ff" style="stroke:none; opacity:0.75;" display="none"/><rect x="-15" y="-15" width="30" height="30" fill="#f0f0d2" style="stroke:black; opacity:1;"/></g><g id="322" onmousedown="nodemousedown(322,evt);" onmouseover="nodemouseover(322,evt);" onmouseout="nodemouseout(322,evt);" transform="translate(546,182)"><rect x="-21" y="-21" width="42" height="42" fill="#0ff" style="stroke:none; opacity:0.75;" display="none"/><rect x="-15" y="-15" width="30" height="30" fill="#f0f0d2" style="stroke:black; opacity:1;"/></g><g id="324" onmousedown="nodemousedown(324,evt);" onmouseover="nodemouseover(324,evt);" onmouseout="nodemouseout(324,evt);" transform="translate(477,243)"><rect x="-21" y="-21" width="42" height="42" fill="#0ff" style="stroke:none; opacity:0.75;" display="none"/><rect x="-15" y="-15" width="30" height="30" fill="#f0f0d2" style="stroke:black; opacity:1;"/></g><g id="327" onmousedown="nodemousedown(327,evt);" onmouseover="nodemouseover(327,evt);" onmouseout="nodemouseout(327,evt);" transform="translate(550,243)"><rect x="-21" y="-21" width="42" height="42" fill="#0ff" style="stroke:none; opacity:0.75;" display="none"/><rect x="-15" y="-15" width="30" height="30" fill="#f0f0d2" style="stroke:black; opacity:1;"/></g><g id="319" onmousedown="nodemousedown(319,evt);" onmouseover="nodemouseover(319,evt);" onmouseout="nodemouseout(319,evt);" transform="translate(951,321)"><rect x="-21" y="-21" width="42" height="42" fill="#0ff" style="stroke:none; opacity:0.75;" display="none"/><rect x="-15" y="-15" width="30" height="30" fill="#f0f0d2" style="stroke:black; opacity:1;"/></g><g id="320" onmousedown="nodemousedown(320,evt);" onmouseover="nodemouseover(320,evt);" onmouseout="nodemouseout(320,evt);" transform="translate(739,321)"><rect x="-21" y="-21" width="42" height="42" fill="#0ff" style="stroke:none; opacity:0.75;" display="none"/><rect x="-15" y="-15" width="30" height="30" fill="#f0f0d2" style="stroke:black; opacity:1;"/></g><g id="326" onmousedown="nodemousedown(326,evt);" onmouseover="nodemouseover(326,evt);" onmouseout="nodemouseout(326,evt);" transform="translate(340,14)"><rect x="-21" y="-21" width="42" height="42" fill="#0ff" style="stroke:none; opacity:0.75;" display="none"/><rect x="-15" y="-15" width="30" height="30" fill="#f0f0d2" style="stroke:black; opacity:1;"/></g><g id="323" onmousedown="nodemousedown(323,evt);" onmouseover="nodemouseover(323,evt);" onmouseout="nodemouseout(323,evt);" transform="translate(335,129)"><rect x="-21" y="-21" width="42" height="42" fill="#0ff" style="stroke:none; opacity:0.75;" display="none"/><rect x="-15" y="-15" width="30" height="30" fill="#f0f0d2" style="stroke:black; opacity:1;"/></g><g id="325" onmousedown="nodemousedown(325,evt);" onmouseover="nodemouseover(325,evt);" onmouseout="nodemouseout(325,evt);" transform="translate(340,229)"><rect x="-21" y="-21" width="42" height="42" fill="#0ff" style="stroke:none; opacity:0.75;" display="none"/><rect x="-15" y="-15" width="30" height="30" fill="#f0f0d2" style="stroke:black; opacity:1;"/></g></g>
  <g id="BPs"><g onmousedown="bpmousedown(367,evt);" onmouseover="bpmouseover(367,evt);" onmouseout="bpmouseout(367,evt);" transform="translate(477,182)" opacity="0"><ellipse cx="0" cy="0" rx="16" ry="16" fill="#0ff" style="stroke:none; opacity:0.75;" display="none"/><ellipse cx="0" cy="0" rx="8.464" ry="8.464" fill="#777" style="stroke:black;"/></g><g onmousedown="bpmousedown(386,evt);" onmouseover="bpmouseover(386,evt);" onmouseout="bpmouseout(386,evt);" transform="translate(560,129)" opacity="0"><ellipse cx="0" cy="0" rx="16" ry="16" fill="#0ff" style="stroke:none; opacity:0.75;" display="none"/><ellipse cx="0" cy="0" rx="8.464" ry="8.464" fill="#777" style="stroke:black;"/></g><g onmousedown="bpmousedown(387,evt);" onmouseover="bpmouseover(387,evt);" onmouseout="bpmouseout(387,evt);" transform="translate(238,129)" opacity="0"><ellipse cx="0" cy="0" rx="16" ry="16" fill="#0ff" style="stroke:none; opacity:0.75;" display="none"/><ellipse cx="0" cy="0" rx="10.869565217391305" ry="10.869565217391305" fill="#777" style="stroke:black;"/></g><g onmousedown="bpmousedown(388,evt);" onmouseover="bpmouseover(388,evt);" onmouseout="bpmouseout(388,evt);" transform="translate(238,231)" opacity="0"><ellipse cx="0" cy="0" rx="16" ry="16" fill="#0ff" style="stroke:none; opacity:0.75;" display="none"/><ellipse cx="0" cy="0" rx="10.869565217391305" ry="10.869565217391305" fill="#777" style="stroke:black;"/></g></g>
  <g id="ports"/>
</g>
</svg>