<svg xmlns:xlink="http://www.w3.org/1999/xlink" xmlns="http://www.w3.org/2000/svg" height="270px" width="480px" id="SVGCanvas" onmouseup="" onmousemove="">
<rect fill="#bdbddf" width="100%" height="100%" y="0" x="0" id="background" onmousedown="bgmousedown(evt)"/>
<g id="foreground" transform="translate(44.6273291925466,0),scale(0.5590062111801242),translate(-35,-42)">
  <g id="edges"><g id="169"><path style="stroke:#bdbddf; stroke-width:8px; fill:none;" opacity="0.7" d="M 704,115 V 79 a 12,12 0 0,0 -12,-12 H 72 a 12,12 0 0,0 -12,12 V 483 a 12,12 0 0,0 12,12L 91,495"/><g><path style="stroke:#ff0; stroke-width:8px; fill:none; " opacity="0" d="M 704,115 V 79 a 12,12 0 0,0 -12,-12 H 72 a 12,12 0 0,0 -12,12 V 483 a 12,12 0 0,0 12,12L 91,495"/></g><path style="stroke:black; fill:none;" d="M 704,115 V 79 a 12,12 0 0,0 -12,-12 H 72 a 12,12 0 0,0 -12,12 V 483 a 12,12 0 0,0 12,12L 91,495"/><g><g><path style="stroke:#0ff; stroke-width:8px; fill:none; " opacity="0" d="M 704,115 L 704,67" onmousedown='segmousedown("169","0",evt);' onmouseover='segmouseover("169","0",evt);' onmouseout='segmouseout("169","0",evt);' onclick='segclick("169","0",evt);'/><path style="stroke:#0ff; stroke-width:8px; fill:none; " opacity="0" d="M 704,67 L 60,67" onmousedown='segmousedown("169","1",evt);' onmouseover='segmouseover("169","1",evt);' onmouseout='segmouseout("169","1",evt);' onclick='segclick("169","1",evt);'/><path style="stroke:#0ff; stroke-width:8px; fill:none; " opacity="0" d="M 60,67 L 60,495" onmousedown='segmousedown("169","2",evt);' onmouseover='segmouseover("169","2",evt);' onmouseout='segmouseout("169","2",evt);' onclick='segclick("169","2",evt);'/><path style="stroke:#0ff; stroke-width:8px; fill:none; " opacity="0" d="M 60,495 L 91,495" onmousedown='segmousedown("169","3",evt);' onmouseover='segmouseover("169","3",evt);' onmouseout='segmouseout("169","3",evt);' onclick='segclick("169","3",evt);'/></g></g></g><g id="170"><path style="stroke:#bdbddf; stroke-width:8px; fill:none;" opacity="0.7" d="M 121,490L 434,490"/><g><path style="stroke:#ff0; stroke-width:8px; fill:none; " opacity="0" d="M 121,490L 434,490"/></g><path style="stroke:black; fill:none;" d="M 121,490L 434,490"/><g><g><path style="stroke:#0ff; stroke-width:8px; fill:none; " opacity="0" d="M 121,490 L 434,490" onmousedown='segmousedown("170","0",evt);' onmouseover='segmouseover("170","0",evt);' onmouseout='segmouseout("170","0",evt);' onclick='segclick("170","0",evt);'/></g></g></g><g id="171"><path style="stroke:#bdbddf; stroke-width:8px; fill:none;" opacity="0.7" d="M 434,490 H 357 a 12,12 0 0,1 -12,-12 V 206 a 12,12 0 0,0 -12,-12L 236,194"/><g><path style="stroke:#ff0; stroke-width:8px; fill:none; " opacity="0" d="M 434,490 H 357 a 12,12 0 0,1 -12,-12 V 206 a 12,12 0 0,0 -12,-12L 236,194"/></g><path style="stroke:black; fill:none;" d="M 434,490 H 357 a 12,12 0 0,1 -12,-12 V 206 a 12,12 0 0,0 -12,-12L 236,194"/><g><g><path style="stroke:#0ff; stroke-width:8px; fill:none; " opacity="0" d="M 434,490 L 345,490" onmousedown='segmousedown("171","0",evt);' onmouseover='segmouseover("171","0",evt);' onmouseout='segmouseout("171","0",evt);' onclick='segclick("171","0",evt);'/><path style="stroke:#0ff; stroke-width:8px; fill:none; " opacity="0" d="M 345,490 L 345,194" onmousedown='segmousedown("171","1",evt);' onmouseover='segmouseover("171","1",evt);' onmouseout='segmouseout("171","1",evt);' onclick='segclick("171","1",evt);'/><path style="stroke:#0ff; stroke-width:8px; fill:none; " opacity="0" d="M 345,194 L 236,194" onmousedown='segmousedown("171","2",evt);' onmouseover='segmouseover("171","2",evt);' onmouseout='segmouseout("171","2",evt);' onclick='segclick("171","2",evt);'/></g></g></g><g id="172"><path style="stroke:#bdbddf; stroke-width:8px; fill:none;" opacity="0.7" d="M 221,217.5 V 278 a 12,12 0 0,1 -12,12 H 118 a 12,12 0 0,0 -12,12L 106,480"/><g><path style="stroke:#ff0; stroke-width:8px; fill:none; " opacity="0" d="M 221,217.5 V 278 a 12,12 0 0,1 -12,12 H 118 a 12,12 0 0,0 -12,12L 106,480"/></g><path style="stroke:black; fill:none;" d="M 221,217.5 V 278 a 12,12 0 0,1 -12,12 H 118 a 12,12 0 0,0 -12,12L 106,480"/><g><g><path style="stroke:#0ff; stroke-width:8px; fill:none; " opacity="0" d="M 221,217.5 L 221,290" onmousedown='segmousedown("172","0",evt);' onmouseover='segmouseover("172","0",evt);' onmouseout='segmouseout("172","0",evt);' onclick='segclick("172","0",evt);'/><path style="stroke:#0ff; stroke-width:8px; fill:none; " opacity="0" d="M 221,290 L 106,290" onmousedown='segmousedown("172","1",evt);' onmouseover='segmouseover("172","1",evt);' onmouseout='segmouseout("172","1",evt);' onclick='segclick("172","1",evt);'/><path style="stroke:#0ff; stroke-width:8px; fill:none; " opacity="0" d="M 106,290 L 106,480" onmousedown='segmousedown("172","2",evt);' onmouseover='segmouseover("172","2",evt);' onmouseout='segmouseout("172","2",evt);' onclick='segclick("172","2",evt);'/></g></g></g><g id="173"><path style="stroke:#bdbddf; stroke-width:8px; fill:none;" opacity="0.7" d="M 484,490 H 692 a 12,12 0 0,0 12,-12L 704,145"/><g><path style="stroke:#ff0; stroke-width:8px; fill:none; " opacity="0" d="M 484,490 H 692 a 12,12 0 0,0 12,-12L 704,145"/></g><path style="stroke:black; fill:none;" d="M 484,490 H 692 a 12,12 0 0,0 12,-12L 704,145"/><g><g><path style="stroke:#0ff; stroke-width:8px; fill:none; " opacity="0" d="M 484,490 L 704,490" onmousedown='segmousedown("173","0",evt);' onmouseover='segmouseover("173","0",evt);' onmouseout='segmouseout("173","0",evt);' onclick='segclick("173","0",evt);'/><path style="stroke:#0ff; stroke-width:8px; fill:none; " opacity="0" d="M 704,490 L 704,145" onmousedown='segmousedown("173","1",evt);' onmouseover='segmouseover("173","1",evt);' onmouseout='segmouseout("173","1",evt);' onclick='segclick("173","1",evt);'/></g></g></g><g id="174"><path style="stroke:#bdbddf; stroke-width:8px; fill:none;" opacity="0.7" d="M 689,130 H 153 a 12,12 0 0,0 -12,12 V 182 a 12,12 0 0,0 12,12L 206,194"/><g><path style="stroke:#ff0; stroke-width:8px; fill:none; " opacity="0" d="M 689,130 H 153 a 12,12 0 0,0 -12,12 V 182 a 12,12 0 0,0 12,12L 206,194"/></g><path style="stroke:black; fill:none;" d="M 689,130 H 153 a 12,12 0 0,0 -12,12 V 182 a 12,12 0 0,0 12,12L 206,194"/><g><g><path style="stroke:#0ff; stroke-width:8px; fill:none; " opacity="0" d="M 689,130 L 141,130" onmousedown='segmousedown("174","0",evt);' onmouseover='segmouseover("174","0",evt);' onmouseout='segmouseout("174","0",evt);' onclick='segclick("174","0",evt);'/><path style="stroke:#0ff; stroke-width:8px; fill:none; " opacity="0" d="M 141,130 L 141,194" onmousedown='segmousedown("174","1",evt);' onmouseover='segmouseover("174","1",evt);' onmouseout='segmouseout("174","1",evt);' onclick='segclick("174","1",evt);'/><path style="stroke:#0ff; stroke-width:8px; fill:none; " opacity="0" d="M 141,194 L 206,194" onmousedown='segmousedown("174","2",evt);' onmouseover='segmouseover("174","2",evt);' onmouseout='segmouseout("174","2",evt);' onclick='segclick("174","2",evt);'/></g></g></g></g>
  <g id="nodes"><g id="165" onmousedown="nodemousedown(165,evt);" onmouseover="nodemouseover(165,evt);" onmouseout="nodemouseout(165,evt);" transform="translate(459,490)"><rect x="-31" y="-21" width="62" height="42" fill="#0ff" style="stroke:none; opacity:0.75;" display="none"/><rect x="-25" y="-15" width="50" height="30" fill="#f0f0d2" style="stroke:black; opacity:1;"/></g><g id="167" onmousedown="nodemousedown(167,evt);" onmouseover="nodemouseover(167,evt);" onmouseout="nodemouseout(167,evt);" transform="translate(106,495)"><rect x="-21" y="-21" width="42" height="42" fill="#0ff" style="stroke:none; opacity:0.75;" display="none"/><rect x="-15" y="-15" width="30" height="30" fill="#f0f0d2" style="stroke:black; opacity:1;"/></g><g id="166" onmousedown="nodemousedown(166,evt);" onmouseover="nodemouseover(166,evt);" onmouseout="nodemouseout(166,evt);" transform="translate(221,194)"><rect x="-21" y="-29.5" width="42" height="59" fill="#0ff" style="stroke:none; opacity:0.75;" display="none"/><rect x="-15" y="-23.5" width="30" height="47" fill="#f0f0d2" style="stroke:black; opacity:1;"/></g><g id="168" onmousedown="nodemousedown(168,evt);" onmouseover="nodemouseover(168,evt);" onmouseout="nodemouseout(168,evt);" transform="translate(704,130)"><rect x="-21" y="-21" width="42" height="42" fill="#0ff" style="stroke:none; opacity:0.75;" display="none"/><rect x="-15" y="-15" width="30" height="30" fill="#f0f0d2" style="stroke:black; opacity:1;"/></g></g>
  <g id="BPs"><g onmousedown="bpmousedown(177,evt);" onmouseover="bpmouseover(177,evt);" onmouseout="bpmouseout(177,evt);" transform="translate(60,67)" opacity="0"><ellipse cx="0" cy="0" rx="16" ry="16" fill="#0ff" style="stroke:none; opacity:0.75;" display="none"/><ellipse cx="0" cy="0" rx="7.786880000000001" ry="7.786880000000001" fill="#777" style="stroke:black;"/></g><g onmousedown="bpmousedown(185,evt);" onmouseover="bpmouseover(185,evt);" onmouseout="bpmouseout(185,evt);" transform="translate(345,194)" opacity="0"><ellipse cx="0" cy="0" rx="16" ry="16" fill="#0ff" style="stroke:none; opacity:0.75;" display="none"/><ellipse cx="0" cy="0" rx="7.163929600000001" ry="7.163929600000001" fill="#777" style="stroke:black;"/></g><g onmousedown="bpmousedown(198,evt);" onmouseover="bpmouseover(198,evt);" onmouseout="bpmouseout(198,evt);" transform="translate(141,130)" opacity="0"><ellipse cx="0" cy="0" rx="16" ry="16" fill="#0ff" style="stroke:none; opacity:0.75;" display="none"/><ellipse cx="0" cy="0" rx="7.786880000000001" ry="7.786880000000001" fill="#777" style="stroke:black;"/></g><g onmousedown="bpmousedown(199,evt);" onmouseover="bpmouseover(199,evt);" onmouseout="bpmouseout(199,evt);" transform="translate(141,194)" opacity="0"><ellipse cx="0" cy="0" rx="16" ry="16" fill="#0ff" style="stroke:none; opacity:0.75;" display="none"/><ellipse cx="0" cy="0" rx="7.786880000000001" ry="7.786880000000001" fill="#777" style="stroke:black;"/></g><g onmousedown="bpmousedown(200,evt);" onmouseover="bpmouseover(200,evt);" onmouseout="bpmouseout(200,evt);" transform="translate(704,490)" opacity="0"><ellipse cx="0" cy="0" rx="16" ry="16" fill="#0ff" style="stroke:none; opacity:0.75;" display="none"/><ellipse cx="0" cy="0" rx="7.786880000000001" ry="7.786880000000001" fill="#777" style="stroke:black;"/></g><g onmousedown="bpmousedown(201,evt);" onmouseover="bpmouseover(201,evt);" onmouseout="bpmouseout(201,evt);" transform="translate(345,490)" opacity="0"><ellipse cx="0" cy="0" rx="16" ry="16" fill="#0ff" style="stroke:none; opacity:0.75;" display="none"/><ellipse cx="0" cy="0" rx="7.163929600000001" ry="7.163929600000001" fill="#777" style="stroke:black;"/></g><g onmousedown="bpmousedown(203,evt);" onmouseover="bpmouseover(203,evt);" onmouseout="bpmouseout(203,evt);" transform="translate(60,495)" opacity="0"><ellipse cx="0" cy="0" rx="16" ry="16" fill="#0ff" style="stroke:none; opacity:0.75;" display="none"/><ellipse cx="0" cy="0" rx="7.786880000000001" ry="7.786880000000001" fill="#777" style="stroke:black;"/></g><g onmousedown="bpmousedown(204,evt);" onmouseover="bpmouseover(204,evt);" onmouseout="bpmouseout(204,evt);" transform="translate(704,67)" opacity="0"><ellipse cx="0" cy="0" rx="16" ry="16" fill="#0ff" style="stroke:none; opacity:0.75;" display="none"/><ellipse cx="0" cy="0" rx="7.786880000000001" ry="7.786880000000001" fill="#777" style="stroke:black;"/></g><g onmousedown="bpmousedown(205,evt);" onmouseover="bpmouseover(205,evt);" onmouseout="bpmouseout(205,evt);" transform="translate(221,290)" opacity="0"><ellipse cx="0" cy="0" rx="16" ry="16" fill="#0ff" style="stroke:none; opacity:0.75;" display="none"/><ellipse cx="0" cy="0" rx="7.163929600000001" ry="7.163929600000001" fill="#777" style="stroke:black;"/></g><g onmousedown="bpmousedown(206,evt);" onmouseover="bpmouseover(206,evt);" onmouseout="bpmouseout(206,evt);" transform="translate(106,290)" opacity="0"><ellipse cx="0" cy="0" rx="16" ry="16" fill="#0ff" style="stroke:none; opacity:0.75;" display="none"/><ellipse cx="0" cy="0" rx="7.163929600000001" ry="7.163929600000001" fill="#777" style="stroke:black;"/></g></g>
  <g id="ports"/>
</g>
</svg>