<svg xmlns:xlink="http://www.w3.org/1999/xlink" xmlns="http://www.w3.org/2000/svg" height="270px" width="480px" id="SVGCanvas" onmouseup="" onmousemove="">
<rect fill="#bdbddf" width="100%" height="100%" y="0" x="0" id="background" onmousedown="bgmousedown(evt)"/>
<g id="foreground" transform="translate(55.979087452471504,0),scale(0.5133079847908745),translate(-122,-69)">
  <g id="edges"><g id="305"><path style="stroke:#bdbddf; stroke-width:8px; fill:none;" opacity="0.7" d="M 152,274L 551,274"/><g><path style="stroke:#ff0; stroke-width:8px; fill:none; " opacity="0" d="M 152,274L 551,274"/></g><path style="stroke:black; fill:none;" d="M 152,274L 551,274"/><g><g><path style="stroke:#0ff; stroke-width:8px; fill:none; " opacity="0" d="M 152,274 L 551,274" onmousedown='segmousedown("305","0",evt);' onmouseover='segmouseover("305","0",evt);' onmouseout='segmouseout("305","0",evt);' onclick='segclick("305","0",evt);'/></g></g></g><g id="306"><path style="stroke:#bdbddf; stroke-width:8px; fill:none;" opacity="0.7" d="M 566,295L 566,550"/><g><path style="stroke:#ff0; stroke-width:8px; fill:none; " opacity="0" d="M 566,295L 566,550"/></g><path style="stroke:black; fill:none;" d="M 566,295L 566,550"/><g><g><path style="stroke:#0ff; stroke-width:8px; fill:none; " opacity="0" d="M 566,295 L 566,550" onmousedown='segmousedown("306","0",evt);' onmouseover='segmouseover("306","0",evt);' onmouseout='segmouseout("306","0",evt);' onclick='segclick("306","0",evt);'/></g></g></g><g id="307"><path style="stroke:#bdbddf; stroke-width:8px; fill:none;" opacity="0.7" d="M 551,565L 371,565"/><g><path style="stroke:#ff0; stroke-width:8px; fill:none; " opacity="0" d="M 551,565L 371,565"/></g><path style="stroke:black; fill:none;" d="M 551,565L 371,565"/><g><g><path style="stroke:#0ff; stroke-width:8px; fill:none; " opacity="0" d="M 551,565 L 371,565" onmousedown='segmousedown("307","0",evt);' onmouseover='segmouseover("307","0",evt);' onmouseout='segmouseout("307","0",evt);' onclick='segclick("307","0",evt);'/></g></g></g><g id="308"><path style="stroke:#bdbddf; stroke-width:8px; fill:none;" opacity="0.7" d="M 341,565L 167,565"/><g><path style="stroke:#ff0; stroke-width:8px; fill:none; " opacity="0" d="M 341,565L 167,565"/></g><path style="stroke:black; fill:none;" d="M 341,565L 167,565"/><g><g><path style="stroke:#0ff; stroke-width:8px; fill:none; " opacity="0" d="M 341,565 L 167,565" onmousedown='segmousedown("308","0",evt);' onmouseover='segmouseover("308","0",evt);' onmouseout='segmouseout("308","0",evt);' onclick='segclick("308","0",evt);'/></g></g></g><g id="309"><path style="stroke:#bdbddf; stroke-width:8px; fill:none;" opacity="0.7" d="M 152,550L 152,444"/><g><path style="stroke:#ff0; stroke-width:8px; fill:none; " opacity="0" d="M 152,550L 152,444"/></g><path style="stroke:black; fill:none;" d="M 152,550L 152,444"/><g><g><path style="stroke:#0ff; stroke-width:8px; fill:none; " opacity="0" d="M 152,550 L 152,444" onmousedown='segmousedown("309","0",evt);' onmouseover='segmouseover("309","0",evt);' onmouseout='segmouseout("309","0",evt);' onclick='segclick("309","0",evt);'/></g></g></g><g id="310"><path style="stroke:#bdbddf; stroke-width:8px; fill:none;" opacity="0.7" d="M 152,414L 152,280"/><g><path style="stroke:#ff0; stroke-width:8px; fill:none; " opacity="0" d="M 152,414L 152,280"/></g><path style="stroke:black; fill:none;" d="M 152,414L 152,280"/><g><g><path style="stroke:#0ff; stroke-width:8px; fill:none; " opacity="0" d="M 152,414 L 152,280" onmousedown='segmousedown("310","0",evt);' onmouseover='segmouseover("310","0",evt);' onmouseout='segmouseout("310","0",evt);' onclick='segclick("310","0",evt);'/></g></g></g><g id="311"><path style="stroke:#bdbddf; stroke-width:8px; fill:none;" opacity="0.7" d="M 167,429L 342,429"/><g><path style="stroke:#ff0; stroke-width:8px; fill:none; " opacity="0" d="M 167,429L 342,429"/></g><path style="stroke:black; fill:none;" d="M 167,429L 342,429"/><g><g><path style="stroke:#0ff; stroke-width:8px; fill:none; " opacity="0" d="M 167,429 L 342,429" onmousedown='segmousedown("311","0",evt);' onmouseover='segmouseover("311","0",evt);' onmouseout='segmouseout("311","0",evt);' onclick='segclick("311","0",evt);'/></g></g></g><g id="312"><path style="stroke:#bdbddf; stroke-width:8px; fill:none;" opacity="0.7" d="M 676,188 H 720 a 12,12 0 0,1 12,12L 732,273"/><g><path style="stroke:#ff0; stroke-width:8px; fill:none; " opacity="0" d="M 676,188 H 720 a 12,12 0 0,1 12,12L 732,273"/></g><path style="stroke:black; fill:none;" d="M 676,188 H 720 a 12,12 0 0,1 12,12L 732,273"/><g><g><path style="stroke:#0ff; stroke-width:8px; fill:none; " opacity="0" d="M 676,188 L 732,188" onmousedown='segmousedown("312","0",evt);' onmouseover='segmouseover("312","0",evt);' onmouseout='segmouseout("312","0",evt);' onclick='segclick("312","0",evt);'/><path style="stroke:#0ff; stroke-width:8px; fill:none; " opacity="0" d="M 732,188 L 732,273" onmousedown='segmousedown("312","1",evt);' onmouseover='segmouseover("312","1",evt);' onmouseout='segmouseout("312","1",evt);' onclick='segclick("312","1",evt);'/></g></g></g><g id="313"><path style="stroke:#bdbddf; stroke-width:8px; fill:none;" opacity="0.7" d="M 729,303L 729,549"/><g><path style="stroke:#ff0; stroke-width:8px; fill:none; " opacity="0" d="M 729,303L 729,549"/></g><path style="stroke:black; fill:none;" d="M 729,303L 729,549"/><g><g><path style="stroke:#0ff; stroke-width:8px; fill:none; " opacity="0" d="M 729,303 L 729,549" onmousedown='segmousedown("313","0",evt);' onmouseover='segmouseover("313","0",evt);' onmouseout='segmouseout("313","0",evt);' onclick='segclick("313","0",evt);'/></g></g></g><g id="314"><path style="stroke:#bdbddf; stroke-width:8px; fill:none;" opacity="0.7" d="M 661,173L 661,114"/><g><path style="stroke:#ff0; stroke-width:8px; fill:none; " opacity="0" d="M 661,173L 661,114"/></g><path style="stroke:black; fill:none;" d="M 661,173L 661,114"/><g><g><path style="stroke:#0ff; stroke-width:8px; fill:none; " opacity="0" d="M 661,173 L 661,114" onmousedown='segmousedown("314","0",evt);' onmouseover='segmouseover("314","0",evt);' onmouseout='segmouseout("314","0",evt);' onclick='segclick("314","0",evt);'/></g></g></g><g id="315"><path style="stroke:#bdbddf; stroke-width:8px; fill:none;" opacity="0.7" d="M 563,265 V 200 a 12,12 0 0,1 12,-12L 646,188"/><g><path style="stroke:#ff0; stroke-width:8px; fill:none; " opacity="0" d="M 563,265 V 200 a 12,12 0 0,1 12,-12L 646,188"/></g><path style="stroke:black; fill:none;" d="M 563,265 V 200 a 12,12 0 0,1 12,-12L 646,188"/><g><g><path style="stroke:#0ff; stroke-width:8px; fill:none; " opacity="0" d="M 563,265 L 563,188" onmousedown='segmousedown("315","0",evt);' onmouseover='segmouseover("315","0",evt);' onmouseout='segmouseout("315","0",evt);' onclick='segclick("315","0",evt);'/><path style="stroke:#0ff; stroke-width:8px; fill:none; " opacity="0" d="M 563,188 L 646,188" onmousedown='segmousedown("315","1",evt);' onmouseover='segmouseover("315","1",evt);' onmouseout='segmouseout("315","1",evt);' onclick='segclick("315","1",evt);'/></g></g></g><g id="316"><path style="stroke:#bdbddf; stroke-width:8px; fill:none;" opacity="0.7" d="M 357,444L 357,550"/><g><path style="stroke:#ff0; stroke-width:8px; fill:none; " opacity="0" d="M 357,444L 357,550"/></g><path style="stroke:black; fill:none;" d="M 357,444L 357,550"/><g><g><path style="stroke:#0ff; stroke-width:8px; fill:none; " opacity="0" d="M 357,444 L 357,550" onmousedown='segmousedown("316","0",evt);' onmouseover='segmouseover("316","0",evt);' onmouseout='segmouseout("316","0",evt);' onclick='segclick("316","0",evt);'/></g></g></g><g id="317"><path style="stroke:#bdbddf; stroke-width:8px; fill:none;" opacity="0.7" d="M 747,283L 794,283"/><g><path style="stroke:#ff0; stroke-width:8px; fill:none; " opacity="0" d="M 747,283L 794,283"/></g><path style="stroke:black; fill:none;" d="M 747,283L 794,283"/><g><g><path style="stroke:#0ff; stroke-width:8px; fill:none; " opacity="0" d="M 747,283 L 794,283" onmousedown='segmousedown("317","0",evt);' onmouseover='segmouseover("317","0",evt);' onmouseout='segmouseout("317","0",evt);' onclick='segclick("317","0",evt);'/></g></g></g></g>
  <g id="nodes"><g id="293" onmousedown="nodemousedown(293,evt);" onmouseover="nodemouseover(293,evt);" onmouseout="nodemouseout(293,evt);" transform="translate(152 280)"><rect x="-21" y="-21" width="42" height="42" fill="#0ff" style="stroke:none; opacity:0.75;" display="none"/><rect x="-15" y="-15" width="30" height="30" fill="#f0f0d2" style="stroke:black; opacity:1;"/></g><g id="297" onmousedown="nodemousedown(297,evt);" onmouseover="nodemouseover(297,evt);" onmouseout="nodemouseout(297,evt);" transform="translate(152,429)"><rect x="-21" y="-21" width="42" height="42" fill="#0ff" style="stroke:none; opacity:0.75;" display="none"/><rect x="-15" y="-15" width="30" height="30" fill="#f0f0d2" style="stroke:black; opacity:1;"/></g><g id="295" onmousedown="nodemousedown(295,evt);" onmouseover="nodemouseover(295,evt);" onmouseout="nodemouseout(295,evt);" transform="translate(152,565)"><rect x="-21" y="-21" width="42" height="42" fill="#0ff" style="stroke:none; opacity:0.75;" display="none"/><rect x="-15" y="-15" width="30" height="30" fill="#f0f0d2" style="stroke:black; opacity:1;"/></g><g id="296" onmousedown="nodemousedown(296,evt);" onmouseover="nodemouseover(296,evt);" onmouseout="nodemouseout(296,evt);" transform="translate(566,565)"><rect x="-21" y="-21" width="42" height="42" fill="#0ff" style="stroke:none; opacity:0.75;" display="none"/><rect x="-15" y="-15" width="30" height="30" fill="#f0f0d2" style="stroke:black; opacity:1;"/></g><g id="300" onmousedown="nodemousedown(300,evt);" onmouseover="nodemouseover(300,evt);" onmouseout="nodemouseout(300,evt);" transform="translate(661,188)"><rect x="-21" y="-21" width="42" height="42" fill="#0ff" style="stroke:none; opacity:0.75;" display="none"/><rect x="-15" y="-15" width="30" height="30" fill="#f0f0d2" style="stroke:black; opacity:1;"/></g><g id="298" onmousedown="nodemousedown(298,evt);" onmouseover="nodemouseover(298,evt);" onmouseout="nodemouseout(298,evt);" transform="translate(357,429)"><rect x="-21" y="-21" width="42" height="42" fill="#0ff" style="stroke:none; opacity:0.75;" display="none"/><rect x="-15" y="-15" width="30" height="30" fill="#f0f0d2" style="stroke:black; opacity:1;"/></g><g id="299" onmousedown="nodemousedown(299,evt);" onmouseover="nodemouseover(299,evt);" onmouseout="nodemouseout(299,evt);" transform="translate(356,565)"><rect x="-21" y="-21" width="42" height="42" fill="#0ff" style="stroke:none; opacity:0.75;" display="none"/><rect x="-15" y="-15" width="30" height="30" fill="#f0f0d2" style="stroke:black; opacity:1;"/></g><g id="294" onmousedown="nodemousedown(294,evt);" onmouseover="nodemouseover(294,evt);" onmouseout="nodemouseout(294,evt);" transform="translate(566,280)"><rect x="-21" y="-21" width="42" height="42" fill="#0ff" style="stroke:none; opacity:0.75;" display="none"/><rect x="-15" y="-15" width="30" height="30" fill="#f0f0d2" style="stroke:black; opacity:1;"/></g><g id="301" onmousedown="nodemousedown(301,evt);" onmouseover="nodemouseover(301,evt);" onmouseout="nodemouseout(301,evt);" transform="translate(674,99)"><rect x="-21" y="-21" width="42" height="42" fill="#0ff" style="stroke:none; opacity:0.75;" display="none"/><rect x="-15" y="-15" width="30" height="30" fill="#f0f0d2" style="stroke:black; opacity:1;"/></g><g id="302" onmousedown="nodemousedown(302,evt);" onmouseover="nodemouseover(302,evt);" onmouseout="nodemouseout(302,evt);" transform="translate(732,288)"><rect x="-21" y="-21" width="42" height="42" fill="#0ff" style="stroke:none; opacity:0.75;" display="none"/><rect x="-15" y="-15" width="30" height="30" fill="#f0f0d2" style="stroke:black; opacity:1;"/></g><g id="304" onmousedown="nodemousedown(304,evt);" onmouseover="nodemouseover(304,evt);" onmouseout="nodemouseout(304,evt);" transform="translate(809,288)"><rect x="-21" y="-21" width="42" height="42" fill="#0ff" style="stroke:none; opacity:0.75;" display="none"/><rect x="-15" y="-15" width="30" height="30" fill="#f0f0d2" style="stroke:black; opacity:1;"/></g><g id="303" onmousedown="nodemousedown(303,evt);" onmouseover="nodemouseover(303,evt);" onmouseout="nodemouseout(303,evt);" transform="translate(729,564)"><rect x="-21" y="-21" width="42" height="42" fill="#0ff" style="stroke:none; opacity:0.75;" display="none"/><rect x="-15" y="-15" width="30" height="30" fill="#f0f0d2" style="stroke:black; opacity:1;"/></g></g>
  <g id="BPs"><g onmousedown="bpmousedown(392,evt);" onmouseover="bpmouseover(392,evt);" onmouseout="bpmouseout(392,evt);" transform="translate(732,188)" opacity="0"><ellipse cx="0" cy="0" rx="16" ry="16" fill="#0ff" style="stroke:none; opacity:0.75;" display="none"/><ellipse cx="0" cy="0" rx="11.81474480151229" ry="11.81474480151229" fill="#777" style="stroke:black;"/></g><g onmousedown="bpmousedown(404,evt);" onmouseover="bpmouseover(404,evt);" onmouseout="bpmouseout(404,evt);" transform="translate(563,188)" opacity="0"><ellipse cx="0" cy="0" rx="16" ry="16" fill="#0ff" style="stroke:none; opacity:0.75;" display="none"/><ellipse cx="0" cy="0" rx="11.81474480151229" ry="11.81474480151229" fill="#777" style="stroke:black;"/></g></g>
  <g id="ports"/>
</g>
</svg>