<svg xmlns:xlink="http://www.w3.org/1999/xlink" xmlns="http://www.w3.org/2000/svg" height="270px" width="480px" id="SVGCanvas" onmouseup="null" onmousemove="null">
<rect fill="#bdbddf" width="100%" height="100%" y="0" x="0" id="background" onmousedown="bgmousedown(evt)"/>
<g id="foreground" transform="translate(59.12621359223303,0),scale(0.8737864077669902),translate(-111,-150)">
  <g id="edges"><g id="192"><path style="stroke:#bdbddf; stroke-width:8px; fill:none;" opacity="0.7" d="M 332,198 V 244 a 12,12 0 0,1 -12,12 H 284.5 a 8.5,8.5 0 0,1 -8.5,-8.5L 276,239"/><g><path style="stroke:#ff0; stroke-width:8px; fill:none; " opacity="0" d="M 332,198 V 244 a 12,12 0 0,1 -12,12 H 284.5 a 8.5,8.5 0 0,1 -8.5,-8.5L 276,239"/></g><path style="stroke:black; fill:none;" d="M 332,198 V 244 a 12,12 0 0,1 -12,12 H 284.5 a 8.5,8.5 0 0,1 -8.5,-8.5L 276,239"/><g><g><path style="stroke:#0ff; stroke-width:8px; fill:none; " opacity="0" d="M 332,198 L 332,256" onmousedown='segmousedown("192","0",evt);' onmouseover='segmouseover("192","0",evt);' onmouseout='segmouseout("192","0",evt);' onclick='segclick("192","0",evt);'/><path style="stroke:#0ff; stroke-width:8px; fill:none; " opacity="0" d="M 332,256 L 276,256" onmousedown='segmousedown("192","1",evt);' onmouseover='segmouseover("192","1",evt);' onmouseout='segmouseout("192","1",evt);' onclick='segclick("192","1",evt);'/><path style="stroke:#0ff; stroke-width:8px; fill:none; " opacity="0" d="M 276,256 L 276,239" onmousedown='segmousedown("192","2",evt);' onmouseover='segmouseover("192","2",evt);' onmouseout='segmouseout("192","2",evt);' onclick='segclick("192","2",evt);'/></g></g></g><g id="193"><path style="stroke:#bdbddf; stroke-width:8px; fill:none;" opacity="0.7" d="M 199,180L 156,180"/><g><path style="stroke:#ff0; stroke-width:8px; fill:none; " opacity="0" d="M 199,180L 156,180"/></g><path style="stroke:black; fill:none;" d="M 199,180L 156,180"/><g><g><path style="stroke:#0ff; stroke-width:8px; fill:none; " opacity="0" d="M 199,180 L 156,180" onmousedown='segmousedown("193","0",evt);' onmouseover='segmouseover("193","0",evt);' onmouseout='segmouseout("193","0",evt);' onclick='segclick("193","0",evt);'/></g></g></g>

<g id="184">
	<path style="stroke:#bdbddf; stroke-width:8px; fill:none;" opacity="0.7" d="M 229,180 H 412 a 12,12 0 0,1 12,12L 424,319"/>
	<g>
		<path style="stroke:#ff0; stroke-width:8px; fill:none; " opacity="0" d="M 229,180 H 412 a 12,12 0 0,1 12,12L 424,319"/>
	</g>
	<path style="stroke:black; fill:none;" d="M 229,180 H 412 a 12,12 0 0,1 12,12L 424,319"/>
	<g>
		<g>
			<path style="stroke:#0ff; stroke-width:8px; fill:none; " opacity="0" d="M 229,180 L 424,180" onmousedown='segmousedown("184","0",evt);' onmouseover='segmouseover("184","0",evt);' onmouseout='segmouseout("184","0",evt);' onclick='segclick("184","0",evt);'/>
			<path style="stroke:#0ff; stroke-width:8px; fill:none; " opacity="0" d="M 424,180 L 424,319" onmousedown='segmousedown("184","1",evt);' onmouseover='segmouseover("184","1",evt);' onmouseout='segmouseout("184","1",evt);' onclick='segclick("184","1",evt);'/>
		</g>
	</g>
</g>

<g id="185"><path style="stroke:#bdbddf; stroke-width:8px; fill:none;" opacity="0.7" d="M 424,349 V 369 a 12,12 0 0,0 12,12 H 483 a 12,12 0 0,0 12,-12L 495,349"/><g><path style="stroke:#ff0; stroke-width:8px; fill:none; " opacity="0" d="M 424,349 V 369 a 12,12 0 0,0 12,12 H 483 a 12,12 0 0,0 12,-12L 495,349"/></g><path style="stroke:black; fill:none;" d="M 424,349 V 369 a 12,12 0 0,0 12,12 H 483 a 12,12 0 0,0 12,-12L 495,349"/><g><g><path style="stroke:#0ff; stroke-width:8px; fill:none; " opacity="0" d="M 424,349 L 424,381" onmousedown='segmousedown("185","0",evt);' onmouseover='segmouseover("185","0",evt);' onmouseout='segmouseout("185","0",evt);' onclick='segclick("185","0",evt);'/><path style="stroke:#0ff; stroke-width:8px; fill:none; " opacity="0" d="M 424,381 L 495,381" onmousedown='segmousedown("185","1",evt);' onmouseover='segmouseover("185","1",evt);' onmouseout='segmouseout("185","1",evt);' onclick='segclick("185","1",evt);'/><path style="stroke:#0ff; stroke-width:8px; fill:none; " opacity="0" d="M 495,381 L 495,349" onmousedown='segmousedown("185","2",evt);' onmouseover='segmouseover("185","2",evt);' onmouseout='segmouseout("185","2",evt);' onclick='segclick("185","2",evt);'/></g></g></g><g id="186"><path style="stroke:#bdbddf; stroke-width:8px; fill:none;" opacity="0.7" d="M 495,319L 495,298"/><g><path style="stroke:#ff0; stroke-width:8px; fill:none; " opacity="0" d="M 495,319L 495,298"/></g><path style="stroke:black; fill:none;" d="M 495,319L 495,298"/><g><g><path style="stroke:#0ff; stroke-width:8px; fill:none; " opacity="0" d="M 495,319 L 495,298" onmousedown='segmousedown("186","0",evt);' onmouseover='segmouseover("186","0",evt);' onmouseout='segmouseout("186","0",evt);' onclick='segclick("186","0",evt);'/></g></g></g><g id="187"><path style="stroke:#bdbddf; stroke-width:8px; fill:none;" opacity="0.7" d="M 214,195 V 212 a 12,12 0 0,0 12,12L 261,224"/><g><path style="stroke:#ff0; stroke-width:8px; fill:none; " opacity="0" d="M 214,195 V 212 a 12,12 0 0,0 12,12L 261,224"/></g><path style="stroke:black; fill:none;" d="M 214,195 V 212 a 12,12 0 0,0 12,12L 261,224"/><g><g><path style="stroke:#0ff; stroke-width:8px; fill:none; " opacity="0" d="M 214,195 L 214,224" onmousedown='segmousedown("187","0",evt);' onmouseover='segmouseover("187","0",evt);' onmouseout='segmouseout("187","0",evt);' onclick='segclick("187","0",evt);'/><path style="stroke:#0ff; stroke-width:8px; fill:none; " opacity="0" d="M 214,224 L 261,224" onmousedown='segmousedown("187","1",evt);' onmouseover='segmouseover("187","1",evt);' onmouseout='segmouseout("187","1",evt);' onclick='segclick("187","1",evt);'/></g></g></g><g id="188"><path style="stroke:#bdbddf; stroke-width:8px; fill:none;" opacity="0.7" d="M 424,414L 424,349"/><g><path style="stroke:#ff0; stroke-width:8px; fill:none; " opacity="0" d="M 424,414L 424,349"/></g><path style="stroke:black; fill:none;" d="M 424,414L 424,349"/><g><g><path style="stroke:#0ff; stroke-width:8px; fill:none; " opacity="0" d="M 424,414 L 424,349" onmousedown='segmousedown("188","0",evt);' onmouseover='segmouseover("188","0",evt);' onmouseout='segmouseout("188","0",evt);' onclick='segclick("188","0",evt);'/></g></g></g><g id="189"><path style="stroke:#bdbddf; stroke-width:8px; fill:none;" opacity="0.7" d="M 480,283L 393,283"/><g><path style="stroke:#ff0; stroke-width:8px; fill:none; " opacity="0" d="M 480,283L 393,283"/></g><path style="stroke:black; fill:none;" d="M 480,283L 393,283"/><g><g><path style="stroke:#0ff; stroke-width:8px; fill:none; " opacity="0" d="M 480,283 L 393,283" onmousedown='segmousedown("189","0",evt);' onmouseover='segmouseover("189","0",evt);' onmouseout='segmouseout("189","0",evt);' onclick='segclick("189","0",evt);'/></g></g></g><g id="190"><path style="stroke:#bdbddf; stroke-width:8px; fill:none;" opacity="0.7" d="M 363,283 H 226 a 12,12 0 0,1 -12,-12L 214,195"/><g><path style="stroke:#ff0; stroke-width:8px; fill:none; " opacity="0" d="M 363,283 H 226 a 12,12 0 0,1 -12,-12L 214,195"/></g><path style="stroke:black; fill:none;" d="M 363,283 H 226 a 12,12 0 0,1 -12,-12L 214,195"/><g><g><path style="stroke:#0ff; stroke-width:8px; fill:none; " opacity="0" d="M 363,283 L 214,283" onmousedown='segmousedown("190","0",evt);' onmouseover='segmouseover("190","0",evt);' onmouseout='segmouseout("190","0",evt);' onclick='segclick("190","0",evt);'/><path style="stroke:#0ff; stroke-width:8px; fill:none; " opacity="0" d="M 214,283 L 214,195" onmousedown='segmousedown("190","1",evt);' onmouseover='segmouseover("190","1",evt);' onmouseout='segmouseout("190","1",evt);' onclick='segclick("190","1",evt);'/></g></g></g><g id="191"><path style="stroke:#bdbddf; stroke-width:8px; fill:none;" opacity="0.7" d="M 385,268 V 245 a 12,12 0 0,0 -12,-12 H 344 a 12,12 0 0,1 -12,-12L 332,198"/><g><path style="stroke:#ff0; stroke-width:8px; fill:none; " opacity="0" d="M 385,268 V 245 a 12,12 0 0,0 -12,-12 H 344 a 12,12 0 0,1 -12,-12L 332,198"/></g><path style="stroke:black; fill:none;" d="M 385,268 V 245 a 12,12 0 0,0 -12,-12 H 344 a 12,12 0 0,1 -12,-12L 332,198"/><g><g><path style="stroke:#0ff; stroke-width:8px; fill:none; " opacity="0" d="M 385,268 L 385,233" onmousedown='segmousedown("191","0",evt);' onmouseover='segmouseover("191","0",evt);' onmouseout='segmouseout("191","0",evt);' onclick='segclick("191","0",evt);'/><path style="stroke:#0ff; stroke-width:8px; fill:none; " opacity="0" d="M 385,233 L 332,233" onmousedown='segmousedown("191","1",evt);' onmouseover='segmouseover("191","1",evt);' onmouseout='segmouseout("191","1",evt);' onclick='segclick("191","1",evt);'/><path style="stroke:#0ff; stroke-width:8px; fill:none; " opacity="0" d="M 332,233 L 332,198" onmousedown='segmousedown("191","2",evt);' onmouseover='segmouseover("191","2",evt);' onmouseout='segmouseout("191","2",evt);' onclick='segclick("191","2",evt);'/></g></g></g></g>
  <g id="nodes"><g id="175" onmousedown="nodemousedown(175,evt);" onmouseover="nodemouseover(175,evt);" onmouseout="nodemouseout(175,evt);" transform="translate(214,180)"><rect x="-21" y="-21" width="42" height="42" fill="#0ff" style="stroke:none; opacity:0.75;" display="none"/><rect x="-15" y="-15" width="30" height="30" fill="#f0f0d2" style="stroke:black; opacity:1;"/></g><g id="179" onmousedown="nodemousedown(179,evt);" onmouseover="nodemouseover(179,evt);" onmouseout="nodemouseout(179,evt);" transform="translate(276,224)"><rect x="-21" y="-21" width="42" height="42" fill="#0ff" style="stroke:none; opacity:0.75;" display="none"/><rect x="-15" y="-15" width="30" height="30" fill="#f0f0d2" style="stroke:black; opacity:1;"/></g><g id="181" onmousedown="nodemousedown(181,evt);" onmouseover="nodemouseover(181,evt);" onmouseout="nodemouseout(181,evt);" transform="translate(332,183)"><rect x="-21" y="-21" width="42" height="42" fill="#0ff" style="stroke:none; opacity:0.75;" display="none"/><rect x="-15" y="-15" width="30" height="30" fill="#f0f0d2" style="stroke:black; opacity:1;"/></g><g id="176" onmousedown="nodemousedown(176,evt);" onmouseover="nodemouseover(176,evt);" onmouseout="nodemouseout(176,evt);" transform="translate(424,334)"><rect x="-21" y="-21" width="42" height="42" fill="#0ff" style="stroke:none; opacity:0.75;" display="none"/><rect x="-15" y="-15" width="30" height="30" fill="#f0f0d2" style="stroke:black; opacity:1;"/></g><g id="182" onmousedown="nodemousedown(182,evt);" onmouseover="nodemouseover(182,evt);" onmouseout="nodemouseout(182,evt);" transform="translate(424,429)"><rect x="-21" y="-21" width="42" height="42" fill="#0ff" style="stroke:none; opacity:0.75;" display="none"/><rect x="-15" y="-15" width="30" height="30" fill="#f0f0d2" style="stroke:black; opacity:1;"/></g><g id="177" onmousedown="nodemousedown(177,evt);" onmouseover="nodemouseover(177,evt);" onmouseout="nodemouseout(177,evt);" transform="translate(495,334)"><rect x="-21" y="-21" width="42" height="42" fill="#0ff" style="stroke:none; opacity:0.75;" display="none"/><rect x="-15" y="-15" width="30" height="30" fill="#f0f0d2" style="stroke:black; opacity:1;"/></g><g id="178" onmousedown="nodemousedown(178,evt);" onmouseover="nodemouseover(178,evt);" onmouseout="nodemouseout(178,evt);" transform="translate(495,283)"><rect x="-21" y="-21" width="42" height="42" fill="#0ff" style="stroke:none; opacity:0.75;" display="none"/><rect x="-15" y="-15" width="30" height="30" fill="#f0f0d2" style="stroke:black; opacity:1;"/></g><g id="180" onmousedown="nodemousedown(180,evt);" onmouseover="nodemouseover(180,evt);" onmouseout="nodemouseout(180,evt);" transform="translate(378,283)"><rect x="-21" y="-21" width="42" height="42" fill="#0ff" style="stroke:none; opacity:0.75;" display="none"/><rect x="-15" y="-15" width="30" height="30" fill="#f0f0d2" style="stroke:black; opacity:1;"/></g><g id="183" onmousedown="nodemousedown(183,evt);" onmouseover="nodemouseover(183,evt);" onmouseout="nodemouseout(183,evt);" transform="translate(141,180)"><rect x="-21" y="-21" width="42" height="42" fill="#0ff" style="stroke:none; opacity:0.75;" display="none"/><rect x="-15" y="-15" width="30" height="30" fill="#f0f0d2" style="stroke:black; opacity:1;"/></g></g>
  <g id="BPs"><g onmousedown="bpmousedown(202,evt);" onmouseover="bpmouseover(202,evt);" onmouseout="bpmouseout(202,evt);" transform="translate(424,180)" opacity="0"><ellipse cx="0" cy="0" rx="16" ry="16" fill="#0ff" style="stroke:none; opacity:0.75;" display="none"/><ellipse cx="0" cy="0" rx="10" ry="10" fill="#777" style="stroke:black;"/></g><g onmousedown="bpmousedown(206,evt);" onmouseover="bpmouseover(206,evt);" onmouseout="bpmouseout(206,evt);" transform="translate(424,381)" opacity="0"><ellipse cx="0" cy="0" rx="16" ry="16" fill="#0ff" style="stroke:none; opacity:0.75;" display="none"/><ellipse cx="0" cy="0" rx="10" ry="10" fill="#777" style="stroke:black;"/></g><g onmousedown="bpmousedown(207,evt);" onmouseover="bpmouseover(207,evt);" onmouseout="bpmouseout(207,evt);" transform="translate(495,381)" opacity="0"><ellipse cx="0" cy="0" rx="16" ry="16" fill="#0ff" style="stroke:none; opacity:0.75;" display="none"/><ellipse cx="0" cy="0" rx="10" ry="10" fill="#777" style="stroke:black;"/></g><g onmousedown="bpmousedown(225,evt);" onmouseover="bpmouseover(225,evt);" onmouseout="bpmouseout(225,evt);" transform="translate(214,283)" opacity="0"><ellipse cx="0" cy="0" rx="16" ry="16" fill="#0ff" style="stroke:none; opacity:0.75;" display="none"/><ellipse cx="0" cy="0" rx="10" ry="10" fill="#777" style="stroke:black;"/></g><g onmousedown="bpmousedown(232,evt);" onmouseover="bpmouseover(232,evt);" onmouseout="bpmouseout(232,evt);" transform="translate(214,224)" opacity="0"><ellipse cx="0" cy="0" rx="16" ry="16" fill="#0ff" style="stroke:none; opacity:0.75;" display="none"/><ellipse cx="0" cy="0" rx="10" ry="10" fill="#777" style="stroke:black;"/></g><g onmousedown="bpmousedown(234,evt);" onmouseover="bpmouseover(234,evt);" onmouseout="bpmouseout(234,evt);" transform="translate(332,256)" opacity="0"><ellipse cx="0" cy="0" rx="16" ry="16" fill="#0ff" style="stroke:none; opacity:0.75;" display="none"/><ellipse cx="0" cy="0" rx="10" ry="10" fill="#777" style="stroke:black;"/></g><g onmousedown="bpmousedown(235,evt);" onmouseover="bpmouseover(235,evt);" onmouseout="bpmouseout(235,evt);" transform="translate(276,256)" opacity="0"><ellipse cx="0" cy="0" rx="16" ry="16" fill="#0ff" style="stroke:none; opacity:0.75;" display="none"/><ellipse cx="0" cy="0" rx="10" ry="10" fill="#777" style="stroke:black;"/></g><g onmousedown="bpmousedown(252,evt);" onmouseover="bpmouseover(252,evt);" onmouseout="bpmouseout(252,evt);" transform="translate(385,233)" opacity="0"><ellipse cx="0" cy="0" rx="16" ry="16" fill="#0ff" style="stroke:none; opacity:0.75;" display="none"/><ellipse cx="0" cy="0" rx="10" ry="10" fill="#777" style="stroke:black;"/></g><g onmousedown="bpmousedown(253,evt);" onmouseover="bpmouseover(253,evt);" onmouseout="bpmouseout(253,evt);" transform="translate(332 233)" opacity="0"><ellipse cx="0" cy="0" rx="16" ry="16" fill="#0ff" style="stroke:none; opacity:0.75;" display="none"/><ellipse cx="0" cy="0" rx="10" ry="10" fill="#777" style="stroke:black;"/></g></g>
  <g id="ports"/>
	<path style="stroke:black; fill:none;" d="M 229,180 H 412"/>
</g>
</svg>
