<svg xmlns:xlink="http://www.w3.org/1999/xlink" xmlns="http://www.w3.org/2000/svg" height="270px" width="480px" id="SVGCanvas" onmouseup="null" onmousemove="null">
<rect fill="#bdbddf" width="100%" height="100%" y="0" x="0" id="background" onmousedown="bgmousedown(evt)"/>
<g id="foreground" transform="translate(51.509433962264154,0),scale(1.0188679245283019),translate(-330,-86)">
  <g id="edges"><g id="328"><path style="stroke:#bdbddf; stroke-width:8px; fill:none;" opacity="0.7" d="M 524,321L 568,321"/><g><path style="stroke:#ff0; stroke-width:8px; fill:none; " opacity="0" d="M 524,321L 568,321"/></g><path style="stroke:black; fill:none;" d="M 524,321L 568,321"/><g><g><path style="stroke:#0ff; stroke-width:8px; fill:none; " opacity="0" d="M 524,321 L 568,321" onmousedown='segmousedown("328","0",evt);' onmouseover='segmouseover("328","0",evt);' onmouseout='segmouseout("328","0",evt);' onclick='segclick("328","0",evt);'/></g></g></g><g id="329"><path style="stroke:#bdbddf; stroke-width:8px; fill:none;" opacity="0.7" d="M 586,296L 586,200"/><g><path style="stroke:#ff0; stroke-width:8px; fill:none; " opacity="0" d="M 586,296L 586,200"/></g><path style="stroke:black; fill:none;" d="M 586,296L 586,200"/><g><g><path style="stroke:#0ff; stroke-width:8px; fill:none; " opacity="0" d="M 586,296 L 586,200" onmousedown='segmousedown("329","0",evt);' onmouseover='segmouseover("329","0",evt);' onmouseout='segmouseout("329","0",evt);' onclick='segclick("329","0",evt);'/></g></g></g><g id="330"><path style="stroke:#bdbddf; stroke-width:8px; fill:none;" opacity="0.7" d="M 456,321L 494,321"/><g><path style="stroke:#ff0; stroke-width:8px; fill:none; " opacity="0" d="M 456,321L 494,321"/></g><path style="stroke:black; fill:none;" d="M 456,321L 494,321"/><g><g><path style="stroke:#0ff; stroke-width:8px; fill:none; " opacity="0" d="M 456,321 L 494,321" onmousedown='segmousedown("330","0",evt);' onmouseover='segmouseover("330","0",evt);' onmouseout='segmouseout("330","0",evt);' onclick='segclick("330","0",evt);'/></g></g></g><g id="331"><path style="stroke:#bdbddf; stroke-width:8px; fill:none;" opacity="0.7" d="M 586,200 V 211.5 a 11.5,11.5 0 0,1 -11.5,11.5 H 453 a 12,12 0 0,0 -12,12L 441,306"/><g><path style="stroke:#ff0; stroke-width:8px; fill:none; " opacity="0" d="M 586,200 V 211.5 a 11.5,11.5 0 0,1 -11.5,11.5 H 453 a 12,12 0 0,0 -12,12L 441,306"/></g><path style="stroke:black; fill:none;" d="M 586,200 V 211.5 a 11.5,11.5 0 0,1 -11.5,11.5 H 453 a 12,12 0 0,0 -12,12L 441,306"/><g><g><path style="stroke:#0ff; stroke-width:8px; fill:none; " opacity="0" d="M 586,200 L 586,223" onmousedown='segmousedown("331","0",evt);' onmouseover='segmouseover("331","0",evt);' onmouseout='segmouseout("331","0",evt);' onclick='segclick("331","0",evt);'/><path style="stroke:#0ff; stroke-width:8px; fill:none; " opacity="0" d="M 586,223 L 441,223" onmousedown='segmousedown("331","1",evt);' onmouseover='segmouseover("331","1",evt);' onmouseout='segmouseout("331","1",evt);' onclick='segclick("331","1",evt);'/><path style="stroke:#0ff; stroke-width:8px; fill:none; " opacity="0" d="M 441,223 L 441,306" onmousedown='segmousedown("331","2",evt);' onmouseover='segmouseover("331","2",evt);' onmouseout='segmouseout("331","2",evt);' onclick='segclick("331","2",evt);'/></g></g></g><g id="332"><path style="stroke:#bdbddf; stroke-width:8px; fill:none;" opacity="0.7" d="M 530,186L 571,186"/><g><path style="stroke:#ff0; stroke-width:8px; fill:none; " opacity="0" d="M 530,186L 571,186"/></g><path style="stroke:black; fill:none;" d="M 530,186L 571,186"/><g><g><path style="stroke:#0ff; stroke-width:8px; fill:none; " opacity="0" d="M 530,186 L 571,186" onmousedown='segmousedown("332","0",evt);' onmouseover='segmouseover("332","0",evt);' onmouseout='segmouseout("332","0",evt);' onclick='segclick("332","0",evt);'/></g></g></g><g id="333"><path style="stroke:#bdbddf; stroke-width:8px; fill:none;" opacity="0.7" d="M 515,171L 515,142"/><g><path style="stroke:#ff0; stroke-width:8px; fill:none; " opacity="0" d="M 515,171L 515,142"/></g><path style="stroke:black; fill:none;" d="M 515,171L 515,142"/><g><g><path style="stroke:#0ff; stroke-width:8px; fill:none; " opacity="0" d="M 515,171 L 515,142" onmousedown='segmousedown("333","0",evt);' onmouseover='segmouseover("333","0",evt);' onmouseout='segmouseout("333","0",evt);' onclick='segclick("333","0",evt);'/></g></g></g><g id="334"><path style="stroke:#bdbddf; stroke-width:8px; fill:none;" opacity="0.7" d="M 530,119L 655,119"/><g><path style="stroke:#ff0; stroke-width:8px; fill:none; " opacity="0" d="M 530,119L 655,119"/></g><path style="stroke:black; fill:none;" d="M 530,119L 655,119"/><g><g><path style="stroke:#0ff; stroke-width:8px; fill:none; " opacity="0" d="M 530,119 L 655,119" onmousedown='segmousedown("334","0",evt);' onmouseover='segmouseover("334","0",evt);' onmouseout='segmouseout("334","0",evt);' onclick='segclick("334","0",evt);'/></g></g></g><g id="335"><path style="stroke:#bdbddf; stroke-width:8px; fill:none;" opacity="0.7" d="M 500,118L 375,118"/><g><path style="stroke:#ff0; stroke-width:8px; fill:none; " opacity="0" d="M 500,118L 375,118"/></g><path style="stroke:black; fill:none;" d="M 500,118L 375,118"/><g><g><path style="stroke:#0ff; stroke-width:8px; fill:none; " opacity="0" d="M 500,118 L 375,118" onmousedown='segmousedown("335","0",evt);' onmouseover='segmouseover("335","0",evt);' onmouseout='segmouseout("335","0",evt);' onclick='segclick("335","0",evt);'/></g></g></g><g id="336"><path style="stroke:#bdbddf; stroke-width:8px; fill:none;" opacity="0.7" d="M 500,186L 458,186"/><g><path style="stroke:#ff0; stroke-width:8px; fill:none; " opacity="0" d="M 500,186L 458,186"/></g><path style="stroke:black; fill:none;" d="M 500,186L 458,186"/><g><g><path style="stroke:#0ff; stroke-width:8px; fill:none; " opacity="0" d="M 500,186 L 458,186" onmousedown='segmousedown("336","0",evt);' onmouseover='segmouseover("336","0",evt);' onmouseout='segmouseout("336","0",evt);' onclick='segclick("336","0",evt);'/></g></g></g><g id="337"><path style="stroke:#bdbddf; stroke-width:8px; fill:none;" opacity="0.7" d="M 515,201L 515,248"/><g><path style="stroke:#ff0; stroke-width:8px; fill:none; " opacity="0" d="M 515,201L 515,248"/></g><path style="stroke:black; fill:none;" d="M 515,201L 515,248"/><g><g><path style="stroke:#0ff; stroke-width:8px; fill:none; " opacity="0" d="M 515,201 L 515,248" onmousedown='segmousedown("337","0",evt);' onmouseover='segmouseover("337","0",evt);' onmouseout='segmouseout("337","0",evt);' onclick='segclick("337","0",evt);'/></g></g></g></g>
  <g id="nodes"><g id="323" onmousedown="nodemousedown(323,evt);" onmouseover="nodemouseover(323,evt);" onmouseout="nodemouseout(323,evt);" transform="translate(515,127)"><rect x="-21" y="-21" width="42" height="42" fill="#0ff" style="stroke:none; opacity:0.75;" display="none"/><rect x="-15" y="-15" width="30" height="30" fill="#f0f0d2" style="stroke:black; opacity:1;"/></g><g id="322" onmousedown="nodemousedown(322,evt);" onmouseover="nodemouseover(322,evt);" onmouseout="nodemouseout(322,evt);" transform="translate(515,186)"><rect x="-21" y="-21" width="42" height="42" fill="#0ff" style="stroke:none; opacity:0.75;" display="none"/><rect x="-15" y="-15" width="30" height="30" fill="#f0f0d2" style="stroke:black; opacity:1;"/></g><g id="325" onmousedown="nodemousedown(325,evt);" onmouseover="nodemouseover(325,evt);" onmouseout="nodemouseout(325,evt);" transform="translate(670,116)"><rect x="-21" y="-21" width="42" height="42" fill="#0ff" style="stroke:none; opacity:0.75;" display="none"/><rect x="-15" y="-15" width="30" height="30" fill="#f0f0d2" style="stroke:black; opacity:1;"/></g><g id="326" onmousedown="nodemousedown(326,evt);" onmouseover="nodemouseover(326,evt);" onmouseout="nodemouseout(326,evt);" transform="translate(360,118)"><rect x="-21" y="-21" width="42" height="42" fill="#0ff" style="stroke:none; opacity:0.75;" display="none"/><rect x="-15" y="-15" width="30" height="30" fill="#f0f0d2" style="stroke:black; opacity:1;"/></g><g id="324" onmousedown="nodemousedown(324,evt);" onmouseover="nodemouseover(324,evt);" onmouseout="nodemouseout(324,evt);" transform="translate(443,186)"><rect x="-21" y="-21" width="42" height="42" fill="#0ff" style="stroke:none; opacity:0.75;" display="none"/><rect x="-15" y="-15" width="30" height="30" fill="#f0f0d2" style="stroke:black; opacity:1;"/></g><g id="327" onmousedown="nodemousedown(327,evt);" onmouseover="nodemouseover(327,evt);" onmouseout="nodemouseout(327,evt);" transform="translate(513,263)"><rect x="-21" y="-21" width="42" height="42" fill="#0ff" style="stroke:none; opacity:0.75;" display="none"/><rect x="-15" y="-15" width="30" height="30" fill="#f0f0d2" style="stroke:black; opacity:1;"/></g><g id="320" onmousedown="nodemousedown(320,evt);" onmouseover="nodemouseover(320,evt);" onmouseout="nodemouseout(320,evt);" transform="translate(583,311)"><rect x="-21" y="-21" width="42" height="42" fill="#0ff" style="stroke:none; opacity:0.75;" display="none"/><rect x="-15" y="-15" width="30" height="30" fill="#f0f0d2" style="stroke:black; opacity:1;"/></g><g id="319" onmousedown="nodemousedown(319,evt);" onmouseover="nodemouseover(319,evt);" onmouseout="nodemouseout(319,evt);" transform="translate(509,321)"><rect x="-21" y="-21" width="42" height="42" fill="#0ff" style="stroke:none; opacity:0.75;" display="none"/><rect x="-15" y="-15" width="30" height="30" fill="#f0f0d2" style="stroke:black; opacity:1;"/></g><g id="318" onmousedown="nodemousedown(318,evt);" onmouseover="nodemouseover(318,evt);" onmouseout="nodemouseout(318,evt);" transform="translate(441,321)"><rect x="-21" y="-21" width="42" height="42" fill="#0ff" style="stroke:none; opacity:0.75;" display="none"/><rect x="-15" y="-15" width="30" height="30" fill="#f0f0d2" style="stroke:black; opacity:1;"/></g><g id="321" onmousedown="nodemousedown(321,evt);" onmouseover="nodemouseover(321,evt);" onmouseout="nodemouseout(321,evt);" transform="translate(586,185)"><rect x="-21" y="-21" width="42" height="42" fill="#0ff" style="stroke:none; opacity:0.75;" display="none"/><rect x="-15" y="-15" width="30" height="30" fill="#f0f0d2" style="stroke:black; opacity:1;"/></g></g>
  <g id="BPs"><g onmousedown="bpmousedown(351,evt);" onmouseover="bpmouseover(351,evt);" onmouseout="bpmouseout(351,evt);" transform="translate(441,223)" opacity="0"><ellipse cx="0" cy="0" rx="16" ry="16" fill="#0ff" style="stroke:none; opacity:0.75;" display="none"/><ellipse cx="0" cy="0" rx="9.200000000000001" ry="9.200000000000001" fill="#777" style="stroke:black;"/></g><g onmousedown="bpmousedown(383,evt);" onmouseover="bpmouseover(383,evt);" onmouseout="bpmouseout(383,evt);" transform="translate(586,223)" opacity="0"><ellipse cx="0" cy="0" rx="16" ry="16" fill="#0ff" style="stroke:none; opacity:0.75;" display="none"/><ellipse cx="0" cy="0" rx="9.200000000000001" ry="9.200000000000001" fill="#777" style="stroke:black;"/></g></g>
  <g id="ports"/>
</g>
</svg>