<svg xmlns:xlink="http://www.w3.org/1999/xlink" xmlns="http://www.w3.org/2000/svg" height="270px" width="480px" id="SVGCanvas" onmouseup="null" onmousemove="null">
<rect fill="#bdbddf" width="100%" height="100%" y="0" x="0" id="background" onmousedown="bgmousedown(evt)"/>
<g id="foreground" transform="translate(0,80.67717996289426),scale(0.8905380333951762),translate(42,-26)">
  <g id="edges"><g id="241"><path style="stroke:#bdbddf; stroke-width:8px; fill:none;" opacity="0.7" d="M 179,116L 216,116"/><g><path style="stroke:#ff0; stroke-width:8px; fill:none; " opacity="0" d="M 179,116L 216,116"/></g><path style="stroke:black; fill:none;" d="M 179,116L 216,116"/><g><g><path style="stroke:#0ff; stroke-width:8px; fill:none; " opacity="0" d="M 179,116 L 216,116" onmousedown='segmousedown("241","0",evt);' onmouseover='segmouseover("241","0",evt);' onmouseout='segmouseout("241","0",evt);' onclick='segclick("241","0",evt);'/></g></g></g><g id="242"><path style="stroke:#bdbddf; stroke-width:8px; fill:none;" opacity="0.7" d="M 225,101L 225,71"/><g><path style="stroke:#ff0; stroke-width:8px; fill:none; " opacity="0" d="M 225,101L 225,71"/></g><path style="stroke:black; fill:none;" d="M 225,101L 225,71"/><g><g><path style="stroke:#0ff; stroke-width:8px; fill:none; " opacity="0" d="M 225,101 L 225,71" onmousedown='segmousedown("242","0",evt);' onmouseover='segmouseover("242","0",evt);' onmouseout='segmouseout("242","0",evt);' onclick='segclick("242","0",evt);'/></g></g></g><g id="243"><path style="stroke:#bdbddf; stroke-width:8px; fill:none;" opacity="0.7" d="M 210,57L 173,57"/><g><path style="stroke:#ff0; stroke-width:8px; fill:none; " opacity="0" d="M 210,57L 173,57"/></g><path style="stroke:black; fill:none;" d="M 210,57L 173,57"/><g><g><path style="stroke:#0ff; stroke-width:8px; fill:none; " opacity="0" d="M 210,57 L 173,57" onmousedown='segmousedown("243","0",evt);' onmouseover='segmouseover("243","0",evt);' onmouseout='segmouseout("243","0",evt);' onclick='segclick("243","0",evt);'/></g></g></g><g id="244"><path style="stroke:#bdbddf; stroke-width:8px; fill:none;" opacity="0.7" d="M 165,72L 165,101"/><g><path style="stroke:#ff0; stroke-width:8px; fill:none; " opacity="0" d="M 165,72L 165,101"/></g><path style="stroke:black; fill:none;" d="M 165,72L 165,101"/><g><g><path style="stroke:#0ff; stroke-width:8px; fill:none; " opacity="0" d="M 165,72 L 165,101" onmousedown='segmousedown("244","0",evt);' onmouseover='segmouseover("244","0",evt);' onmouseout='segmouseout("244","0",evt);' onclick='segclick("244","0",evt);'/></g></g></g><g id="245"><path style="stroke:#bdbddf; stroke-width:8px; fill:none;" opacity="0.7" d="M 246,116L 278,116"/><g><path style="stroke:#ff0; stroke-width:8px; fill:none; " opacity="0" d="M 246,116L 278,116"/></g><path style="stroke:black; fill:none;" d="M 246,116L 278,116"/><g><g><path style="stroke:#0ff; stroke-width:8px; fill:none; " opacity="0" d="M 246,116 L 278,116" onmousedown='segmousedown("245","0",evt);' onmouseover='segmouseover("245","0",evt);' onmouseout='segmouseout("245","0",evt);' onclick='segclick("245","0",evt);'/></g></g></g><g id="246"><path style="stroke:#bdbddf; stroke-width:8px; fill:none;" opacity="0.7" d="M 308,118L 339,118"/><g><path style="stroke:#ff0; stroke-width:8px; fill:none; " opacity="0" d="M 308,118L 339,118"/></g><path style="stroke:black; fill:none;" d="M 308,118L 339,118"/><g><g><path style="stroke:#0ff; stroke-width:8px; fill:none; " opacity="0" d="M 308,118 L 339,118" onmousedown='segmousedown("246","0",evt);' onmouseover='segmouseover("246","0",evt);' onmouseout='segmouseout("246","0",evt);' onclick='segclick("246","0",evt);'/></g></g></g><g id="247"><path style="stroke:#bdbddf; stroke-width:8px; fill:none;" opacity="0.7" d="M 369,118L 399,118"/><g><path style="stroke:#ff0; stroke-width:8px; fill:none; " opacity="0" d="M 369,118L 399,118"/></g><path style="stroke:black; fill:none;" d="M 369,118L 399,118"/><g><g><path style="stroke:#0ff; stroke-width:8px; fill:none; " opacity="0" d="M 369,118 L 399,118" onmousedown='segmousedown("247","0",evt);' onmouseover='segmouseover("247","0",evt);' onmouseout='segmouseout("247","0",evt);' onclick='segclick("247","0",evt);'/></g></g></g><g id="248"><path style="stroke:#bdbddf; stroke-width:8px; fill:none;" opacity="0.7" d="M 429,118L 452,118"/><g><path style="stroke:#ff0; stroke-width:8px; fill:none; " opacity="0" d="M 429,118L 452,118"/></g><path style="stroke:black; fill:none;" d="M 429,118L 452,118"/><g><g><path style="stroke:#0ff; stroke-width:8px; fill:none; " opacity="0" d="M 429,118 L 452,118" onmousedown='segmousedown("248","0",evt);' onmouseover='segmouseover("248","0",evt);' onmouseout='segmouseout("248","0",evt);' onclick='segclick("248","0",evt);'/></g></g></g><g id="249"><path style="stroke:#bdbddf; stroke-width:8px; fill:none;" opacity="0.7" d="M 143,50L 115,50"/><g><path style="stroke:#ff0; stroke-width:8px; fill:none; " opacity="0" d="M 143,50L 115,50"/></g><path style="stroke:black; fill:none;" d="M 143,50L 115,50"/><g><g><path style="stroke:#0ff; stroke-width:8px; fill:none; " opacity="0" d="M 143,50 L 115,50" onmousedown='segmousedown("249","0",evt);' onmouseover='segmouseover("249","0",evt);' onmouseout='segmouseout("249","0",evt);' onclick='segclick("249","0",evt);'/></g></g></g><g id="250"><path style="stroke:#bdbddf; stroke-width:8px; fill:none;" opacity="0.7" d="M 85,57L 45,57"/><g><path style="stroke:#ff0; stroke-width:8px; fill:none; " opacity="0" d="M 85,57L 45,57"/></g><path style="stroke:black; fill:none;" d="M 85,57L 45,57"/><g><g><path style="stroke:#0ff; stroke-width:8px; fill:none; " opacity="0" d="M 85,57 L 45,57" onmousedown='segmousedown("250","0",evt);' onmouseover='segmouseover("250","0",evt);' onmouseout='segmouseout("250","0",evt);' onclick='segclick("250","0",evt);'/></g></g></g><g id="251"><path style="stroke:#bdbddf; stroke-width:8px; fill:none;" opacity="0.7" d="M 45,57L 3,57"/><g><path style="stroke:#ff0; stroke-width:8px; fill:none; " opacity="0" d="M 45,57L 3,57"/></g><path style="stroke:black; fill:none;" d="M 45,57L 3,57"/><g><g><path style="stroke:#0ff; stroke-width:8px; fill:none; " opacity="0" d="M 45,57 L 3,57" onmousedown='segmousedown("251","0",evt);' onmouseover='segmouseover("251","0",evt);' onmouseout='segmouseout("251","0",evt);' onclick='segclick("251","0",evt);'/></g></g></g><g id="252"><path style="stroke:#bdbddf; stroke-width:8px; fill:none;" opacity="0.7" d="M 103,72L 103,100"/><g><path style="stroke:#ff0; stroke-width:8px; fill:none; " opacity="0" d="M 103,72L 103,100"/></g><path style="stroke:black; fill:none;" d="M 103,72L 103,100"/><g><g><path style="stroke:#0ff; stroke-width:8px; fill:none; " opacity="0" d="M 103,72 L 103,100" onmousedown='segmousedown("252","0",evt);' onmouseover='segmouseover("252","0",evt);' onmouseout='segmouseout("252","0",evt);' onclick='segclick("252","0",evt);'/></g></g></g></g>
  <g id="nodes"><g id="239" onmousedown="nodemousedown(239,evt);" onmouseover="nodemouseover(239,evt);" onmouseout="nodemouseout(239,evt);" transform="translate(45,57)"><rect x="-21" y="-21" width="42" height="42" fill="#0ff" style="stroke:none; opacity:0.75;" display="none"/><rect x="-15" y="-15" width="30" height="30" fill="#f0f0d2" style="stroke:black; opacity:1;"/></g><g id="237" onmousedown="nodemousedown(237,evt);" onmouseover="nodemouseover(237,evt);" onmouseout="nodemouseout(237,evt);" transform="translate(100,57)"><rect x="-21" y="-21" width="42" height="42" fill="#0ff" style="stroke:none; opacity:0.75;" display="none"/><rect x="-15" y="-15" width="30" height="30" fill="#f0f0d2" style="stroke:black; opacity:1;"/></g><g id="238" onmousedown="nodemousedown(238,evt);" onmouseover="nodemouseover(238,evt);" onmouseout="nodemouseout(238,evt);" transform="translate(103,115)"><rect x="-21" y="-21" width="42" height="42" fill="#0ff" style="stroke:none; opacity:0.75;" display="none"/><rect x="-15" y="-15" width="30" height="30" fill="#f0f0d2" style="stroke:black; opacity:1;"/></g><g id="229" onmousedown="nodemousedown(229,evt);" onmouseover="nodemouseover(229,evt);" onmouseout="nodemouseout(229,evt);" transform="translate(158,57)"><rect x="-21" y="-21" width="42" height="42" fill="#0ff" style="stroke:none; opacity:0.75;" display="none"/><rect x="-15" y="-15" width="30" height="30" fill="#f0f0d2" style="stroke:black; opacity:1;"/></g><g id="230" onmousedown="nodemousedown(230,evt);" onmouseover="nodemouseover(230,evt);" onmouseout="nodemouseout(230,evt);" transform="translate(164,116)"><rect x="-21" y="-21" width="42" height="42" fill="#0ff" style="stroke:none; opacity:0.75;" display="none"/><rect x="-15" y="-15" width="30" height="30" fill="#f0f0d2" style="stroke:black; opacity:1;"/></g><g id="231" onmousedown="nodemousedown(231,evt);" onmouseover="nodemouseover(231,evt);" onmouseout="nodemouseout(231,evt);" transform="translate(231,116)"><rect x="-21" y="-21" width="42" height="42" fill="#0ff" style="stroke:none; opacity:0.75;" display="none"/><rect x="-15" y="-15" width="30" height="30" fill="#f0f0d2" style="stroke:black; opacity:1;"/></g><g id="232" onmousedown="nodemousedown(232,evt);" onmouseover="nodemouseover(232,evt);" onmouseout="nodemouseout(232,evt);" transform="translate(225,56)"><rect x="-21" y="-21" width="42" height="42" fill="#0ff" style="stroke:none; opacity:0.75;" display="none"/><rect x="-15" y="-15" width="30" height="30" fill="#f0f0d2" style="stroke:black; opacity:1;"/></g><g id="233" onmousedown="nodemousedown(233,evt);" onmouseover="nodemouseover(233,evt);" onmouseout="nodemouseout(233,evt);" transform="translate(293,118)"><rect x="-21" y="-21" width="42" height="42" fill="#0ff" style="stroke:none; opacity:0.75;" display="none"/><rect x="-15" y="-15" width="30" height="30" fill="#f0f0d2" style="stroke:black; opacity:1;"/></g><g id="235" onmousedown="nodemousedown(235,evt);" onmouseover="nodemouseover(235,evt);" onmouseout="nodemouseout(235,evt);" transform="translate(414,118)"><rect x="-21" y="-21" width="42" height="42" fill="#0ff" style="stroke:none; opacity:0.75;" display="none"/><rect x="-15" y="-15" width="30" height="30" fill="#f0f0d2" style="stroke:black; opacity:1;"/></g><g id="234" onmousedown="nodemousedown(234,evt);" onmouseover="nodemouseover(234,evt);" onmouseout="nodemouseout(234,evt);" transform="translate(354,118)"><rect x="-21" y="-21" width="42" height="42" fill="#0ff" style="stroke:none; opacity:0.75;" display="none"/><rect x="-15" y="-15" width="30" height="30" fill="#f0f0d2" style="stroke:black; opacity:1;"/></g><g id="236" onmousedown="nodemousedown(236,evt);" onmouseover="nodemouseover(236,evt);" onmouseout="nodemouseout(236,evt);" transform="translate(467,118)"><rect x="-21" y="-21" width="42" height="42" fill="#0ff" style="stroke:none; opacity:0.75;" display="none"/><rect x="-15" y="-15" width="30" height="30" fill="#f0f0d2" style="stroke:black; opacity:1;"/></g><g id="240" onmousedown="nodemousedown(240,evt);" onmouseover="nodemouseover(240,evt);" onmouseout="nodemouseout(240,evt);" transform="translate(-12,57)"><rect x="-21" y="-21" width="42" height="42" fill="#0ff" style="stroke:none; opacity:0.75;" display="none"/><rect x="-15" y="-15" width="30" height="30" fill="#f0f0d2" style="stroke:black; opacity:1;"/></g></g>
  <g id="BPs"/>
  <g id="ports"/>
</g>
</svg>