<svg xmlns:xlink="http://www.w3.org/1999/xlink" xmlns="http://www.w3.org/2000/svg" height="270px" width="480px" id="SVGCanvas" onmouseup="null" onmousemove="null">
<rect fill="#bdbddf" width="100%" height="100%" y="0" x="0" id="background" onmousedown="bgmousedown(evt)"/>
<g id="foreground" transform="translate(0,18.550295857988175),scale(0.9467455621301775),translate(-26,-238)">
  <g id="edges"><g id="266"><path style="stroke:#bdbddf; stroke-width:8px; fill:none;" opacity="0.7" d="M 251,266L 286.5,266"/><g><path style="stroke:#ff0; stroke-width:8px; fill:none; " opacity="0" d="M 251,266L 286.5,266"/></g><path style="stroke:black; fill:none;" d="M 251,266L 286.5,266"/><g><g><path style="stroke:#0ff; stroke-width:8px; fill:none; " opacity="0" d="M 251,266 L 286.5,266" onmousedown='segmousedown("266","0",evt);' onmouseover='segmouseover("266","0",evt);' onmouseout='segmouseout("266","0",evt);' onclick='segclick("266","0",evt);'/></g></g></g><g id="267"><path style="stroke:#bdbddf; stroke-width:8px; fill:none;" opacity="0.7" d="M 339.5,268L 376,268"/><g><path style="stroke:#ff0; stroke-width:8px; fill:none; " opacity="0" d="M 339.5,268L 376,268"/></g><path style="stroke:black; fill:none;" d="M 339.5,268L 376,268"/><g><g><path style="stroke:#0ff; stroke-width:8px; fill:none; " opacity="0" d="M 339.5,268 L 376,268" onmousedown='segmousedown("267","0",evt);' onmouseover='segmouseover("267","0",evt);' onmouseout='segmouseout("267","0",evt);' onclick='segclick("267","0",evt);'/></g></g></g><g id="268"><path style="stroke:#bdbddf; stroke-width:8px; fill:none;" opacity="0.7" d="M 236,330L 236,290"/><g><path style="stroke:#ff0; stroke-width:8px; fill:none; " opacity="0" d="M 236,330L 236,290"/></g><path style="stroke:black; fill:none;" d="M 236,330L 236,290"/><g><g><path style="stroke:#0ff; stroke-width:8px; fill:none; " opacity="0" d="M 236,330 L 236,290" onmousedown='segmousedown("268","0",evt);' onmouseover='segmouseover("268","0",evt);' onmouseout='segmouseout("268","0",evt);' onclick='segclick("268","0",evt);'/></g></g></g><g id="269"><path style="stroke:#bdbddf; stroke-width:8px; fill:none;" opacity="0.7" d="M 222,346L 196,346"/><g><path style="stroke:#ff0; stroke-width:8px; fill:none; " opacity="0" d="M 222,346L 196,346"/></g><path style="stroke:black; fill:none;" d="M 222,346L 196,346"/><g><g><path style="stroke:#0ff; stroke-width:8px; fill:none; " opacity="0" d="M 222,346 L 196,346" onmousedown='segmousedown("269","0",evt);' onmouseover='segmouseover("269","0",evt);' onmouseout='segmouseout("269","0",evt);' onclick='segclick("269","0",evt);'/></g></g></g><g id="270"><path style="stroke:#bdbddf; stroke-width:8px; fill:none;" opacity="0.7" d="M 166,346L 147,346"/><g><path style="stroke:#ff0; stroke-width:8px; fill:none; " opacity="0" d="M 166,346L 147,346"/></g><path style="stroke:black; fill:none;" d="M 166,346L 147,346"/><g><g><path style="stroke:#0ff; stroke-width:8px; fill:none; " opacity="0" d="M 166,346 L 147,346" onmousedown='segmousedown("270","0",evt);' onmouseover='segmouseover("270","0",evt);' onmouseout='segmouseout("270","0",evt);' onclick='segclick("270","0",evt);'/></g></g></g><g id="271"><path style="stroke:#bdbddf; stroke-width:8px; fill:none;" opacity="0.7" d="M 391,283L 391,414.5"/><g><path style="stroke:#ff0; stroke-width:8px; fill:none; " opacity="0" d="M 391,283L 391,414.5"/></g><path style="stroke:black; fill:none;" d="M 391,283L 391,414.5"/><g><g><path style="stroke:#0ff; stroke-width:8px; fill:none; " opacity="0" d="M 391,283 L 391,414.5" onmousedown='segmousedown("271","0",evt);' onmouseover='segmouseover("271","0",evt);' onmouseout='segmouseout("271","0",evt);' onclick='segclick("271","0",evt);'/></g></g></g><g id="272"><path style="stroke:#bdbddf; stroke-width:8px; fill:none;" opacity="0.7" d="M 363,449L 332,449"/><g><path style="stroke:#ff0; stroke-width:8px; fill:none; " opacity="0" d="M 363,449L 332,449"/></g><path style="stroke:black; fill:none;" d="M 363,449L 332,449"/><g><g><path style="stroke:#0ff; stroke-width:8px; fill:none; " opacity="0" d="M 363,449 L 332,449" onmousedown='segmousedown("272","0",evt);' onmouseover='segmouseover("272","0",evt);' onmouseout='segmouseout("272","0",evt);' onclick='segclick("272","0",evt);'/></g></g></g><g id="273"><path style="stroke:#bdbddf; stroke-width:8px; fill:none;" opacity="0.7" d="M 302,454 H 244 a 12,12 0 0,1 -12,-12L 232,360"/><g><path style="stroke:#ff0; stroke-width:8px; fill:none; " opacity="0" d="M 302,454 H 244 a 12,12 0 0,1 -12,-12L 232,360"/></g><path style="stroke:black; fill:none;" d="M 302,454 H 244 a 12,12 0 0,1 -12,-12L 232,360"/><g><g><path style="stroke:#0ff; stroke-width:8px; fill:none; " opacity="0" d="M 302,454 L 232,454" onmousedown='segmousedown("273","0",evt);' onmouseover='segmouseover("273","0",evt);' onmouseout='segmouseout("273","0",evt);' onclick='segclick("273","0",evt);'/><path style="stroke:#0ff; stroke-width:8px; fill:none; " opacity="0" d="M 232,454 L 232,360" onmousedown='segmousedown("273","1",evt);' onmouseover='segmouseover("273","1",evt);' onmouseout='segmouseout("273","1",evt);' onclick='segclick("273","1",evt);'/></g></g></g><g id="274"><path style="stroke:#bdbddf; stroke-width:8px; fill:none;" opacity="0.7" d="M 122,331L 122,287"/><g><path style="stroke:#ff0; stroke-width:8px; fill:none; " opacity="0" d="M 122,331L 122,287"/></g><path style="stroke:black; fill:none;" d="M 122,331L 122,287"/><g><g><path style="stroke:#0ff; stroke-width:8px; fill:none; " opacity="0" d="M 122,331 L 122,287" onmousedown='segmousedown("274","0",evt);' onmouseover='segmouseover("274","0",evt);' onmouseout='segmouseout("274","0",evt);' onclick='segclick("274","0",evt);'/></g></g></g><g id="275"><path style="stroke:#bdbddf; stroke-width:8px; fill:none;" opacity="0.7" d="M 97,346L 56,346"/><g><path style="stroke:#ff0; stroke-width:8px; fill:none; " opacity="0" d="M 97,346L 56,346"/></g><path style="stroke:black; fill:none;" d="M 97,346L 56,346"/><g><g><path style="stroke:#0ff; stroke-width:8px; fill:none; " opacity="0" d="M 97,346 L 56,346" onmousedown='segmousedown("275","0",evt);' onmouseover='segmouseover("275","0",evt);' onmouseout='segmouseout("275","0",evt);' onclick='segclick("275","0",evt);'/></g></g></g><g id="276"><path style="stroke:#bdbddf; stroke-width:8px; fill:none;" opacity="0.7" d="M 252,345 H 494 a 9,9 0 0,1 9,9L 503,363"/><g><path style="stroke:#ff0; stroke-width:8px; fill:none; " opacity="0" d="M 252,345 H 494 a 9,9 0 0,1 9,9L 503,363"/></g><path style="stroke:black; fill:none;" d="M 252,345 H 494 a 9,9 0 0,1 9,9L 503,363"/><g><g><path style="stroke:#0ff; stroke-width:8px; fill:none; " opacity="0" d="M 252,345 L 503,345" onmousedown='segmousedown("276","0",evt);' onmouseover='segmouseover("276","0",evt);' onmouseout='segmouseout("276","0",evt);' onclick='segclick("276","0",evt);'/><path style="stroke:#0ff; stroke-width:8px; fill:none; " opacity="0" d="M 503,345 L 503,363" onmousedown='segmousedown("276","1",evt);' onmouseover='segmouseover("276","1",evt);' onmouseout='segmouseout("276","1",evt);' onclick='segclick("276","1",evt);'/></g></g></g><g id="277"><path style="stroke:#bdbddf; stroke-width:8px; fill:none;" opacity="0.7" d="M 488,391L 456,391"/><g><path style="stroke:#ff0; stroke-width:8px; fill:none; " opacity="0" d="M 488,391L 456,391"/></g><path style="stroke:black; fill:none;" d="M 488,391L 456,391"/><g><g><path style="stroke:#0ff; stroke-width:8px; fill:none; " opacity="0" d="M 488,391 L 456,391" onmousedown='segmousedown("277","0",evt);' onmouseover='segmouseover("277","0",evt);' onmouseout='segmouseout("277","0",evt);' onclick='segclick("277","0",evt);'/></g></g></g><g id="278"><path style="stroke:#bdbddf; stroke-width:8px; fill:none;" opacity="0.7" d="M 426,391L 337,391"/><g><path style="stroke:#ff0; stroke-width:8px; fill:none; " opacity="0" d="M 426,391L 337,391"/></g><path style="stroke:black; fill:none;" d="M 426,391L 337,391"/><g><g><path style="stroke:#0ff; stroke-width:8px; fill:none; " opacity="0" d="M 426,391 L 337,391" onmousedown='segmousedown("278","0",evt);' onmouseover='segmouseover("278","0",evt);' onmouseout='segmouseout("278","0",evt);' onclick='segclick("278","0",evt);'/></g></g></g><g id="279"><path style="stroke:#bdbddf; stroke-width:8px; fill:none;" opacity="0.7" d="M 307,391 H 249 a 12,12 0 0,1 -12,-12L 237,360"/><g><path style="stroke:#ff0; stroke-width:8px; fill:none; " opacity="0" d="M 307,391 H 249 a 12,12 0 0,1 -12,-12L 237,360"/></g><path style="stroke:black; fill:none;" d="M 307,391 H 249 a 12,12 0 0,1 -12,-12L 237,360"/><g><g><path style="stroke:#0ff; stroke-width:8px; fill:none; " opacity="0" d="M 307,391 L 237,391" onmousedown='segmousedown("279","0",evt);' onmouseover='segmouseover("279","0",evt);' onmouseout='segmouseout("279","0",evt);' onclick='segclick("279","0",evt);'/><path style="stroke:#0ff; stroke-width:8px; fill:none; " opacity="0" d="M 237,391 L 237,360" onmousedown='segmousedown("279","1",evt);' onmouseover='segmouseover("279","1",evt);' onmouseout='segmouseout("279","1",evt);' onclick='segclick("279","1",evt);'/></g></g></g></g>
  <g id="nodes"><g id="259" onmousedown="nodemousedown(259,evt);" onmouseover="nodemouseover(259,evt);" onmouseout="nodemouseout(259,evt);" transform="translate(181,346)"><rect x="-21" y="-21" width="42" height="42" fill="#0ff" style="stroke:none; opacity:0.75;" display="none"/><rect x="-15" y="-15" width="30" height="30" fill="#f0f0d2" style="stroke:black; opacity:1;"/></g><g id="257" onmousedown="nodemousedown(257,evt);" onmouseover="nodemouseover(257,evt);" onmouseout="nodemouseout(257,evt);" transform="translate(317,454)"><rect x="-21" y="-21" width="42" height="42" fill="#0ff" style="stroke:none; opacity:0.75;" display="none"/><rect x="-15" y="-15" width="30" height="30" fill="#f0f0d2" style="stroke:black; opacity:1;"/></g><g id="258" onmousedown="nodemousedown(258,evt);" onmouseover="nodemouseover(258,evt);" onmouseout="nodemouseout(258,evt);" transform="translate(237,345)"><rect x="-21" y="-21" width="42" height="42" fill="#0ff" style="stroke:none; opacity:0.75;" display="none"/><rect x="-15" y="-15" width="30" height="30" fill="#f0f0d2" style="stroke:black; opacity:1;"/></g><g id="254" onmousedown="nodemousedown(254,evt);" onmouseover="nodemouseover(254,evt);" onmouseout="nodemouseout(254,evt);" transform="translate(313,272)"><rect x="-32.5" y="-21" width="65" height="42" fill="#0ff" style="stroke:none; opacity:0.75;" display="none"/><rect x="-26.5" y="-15" width="53" height="30" fill="#f0f0d2" style="stroke:black; opacity:1;"/></g><g id="265" onmousedown="nodemousedown(265,evt);" onmouseover="nodemouseover(265,evt);" onmouseout="nodemouseout(265,evt);" transform="translate(322,391)"><rect x="-21" y="-21" width="42" height="42" fill="#0ff" style="stroke:none; opacity:0.75;" display="none"/><rect x="-15" y="-15" width="30" height="30" fill="#f0f0d2" style="stroke:black; opacity:1;"/></g><g id="263" onmousedown="nodemousedown(263,evt);" onmouseover="nodemouseover(263,evt);" onmouseout="nodemouseout(263,evt);" transform="translate(503,391)"><rect x="-21" y="-34" width="42" height="68" fill="#0ff" style="stroke:none; opacity:0.75;" display="none"/><rect x="-15" y="-28" width="30" height="56" fill="#f0f0d2" style="stroke:black; opacity:1;"/></g><g id="264" onmousedown="nodemousedown(264,evt);" onmouseover="nodemouseover(264,evt);" onmouseout="nodemouseout(264,evt);" transform="translate(441,391)"><rect x="-21" y="-21" width="42" height="42" fill="#0ff" style="stroke:none; opacity:0.75;" display="none"/><rect x="-15" y="-15" width="30" height="30" fill="#f0f0d2" style="stroke:black; opacity:1;"/></g><g id="253" onmousedown="nodemousedown(253,evt);" onmouseover="nodemouseover(253,evt);" onmouseout="nodemouseout(253,evt);" transform="translate(236,275)"><rect x="-21" y="-21" width="42" height="42" fill="#0ff" style="stroke:none; opacity:0.75;" display="none"/><rect x="-15" y="-15" width="30" height="30" fill="#f0f0d2" style="stroke:black; opacity:1;"/></g><g id="255" onmousedown="nodemousedown(255,evt);" onmouseover="nodemouseover(255,evt);" onmouseout="nodemouseout(255,evt);" transform="translate(391,268)"><rect x="-21" y="-21" width="42" height="42" fill="#0ff" style="stroke:none; opacity:0.75;" display="none"/><rect x="-15" y="-15" width="30" height="30" fill="#f0f0d2" style="stroke:black; opacity:1;"/></g><g id="256" onmousedown="nodemousedown(256,evt);" onmouseover="nodemouseover(256,evt);" onmouseout="nodemouseout(256,evt);" transform="translate(384,440)"><rect x="-27" y="-31.5" width="54" height="63" fill="#0ff" style="stroke:none; opacity:0.75;" display="none"/><rect x="-21" y="-25.5" width="42" height="51" fill="#f0f0d2" style="stroke:black; opacity:1;"/></g><g id="261" onmousedown="nodemousedown(261,evt);" onmouseover="nodemouseover(261,evt);" onmouseout="nodemouseout(261,evt);" transform="translate(122,346)"><rect x="-31" y="-21" width="62" height="42" fill="#0ff" style="stroke:none; opacity:0.75;" display="none"/><rect x="-25" y="-15" width="50" height="30" fill="#f0f0d2" style="stroke:black; opacity:1;"/></g><g id="260" onmousedown="nodemousedown(260,evt);" onmouseover="nodemouseover(260,evt);" onmouseout="nodemouseout(260,evt);" transform="translate(122,272)"><rect x="-21" y="-21" width="42" height="42" fill="#0ff" style="stroke:none; opacity:0.75;" display="none"/><rect x="-15" y="-15" width="30" height="30" fill="#f0f0d2" style="stroke:black; opacity:1;"/></g><g id="262" onmousedown="nodemousedown(262,evt);" onmouseover="nodemouseover(262,evt);" onmouseout="nodemouseout(262,evt);" transform="translate(56,346)"><rect x="-21" y="-21" width="42" height="42" fill="#0ff" style="stroke:none; opacity:0.75;" display="none"/><rect x="-15" y="-15" width="30" height="30" fill="#f0f0d2" style="stroke:black; opacity:1;"/></g></g>
  <g id="BPs"><g onmousedown="bpmousedown(305,evt);" onmouseover="bpmouseover(305,evt);" onmouseout="bpmouseout(305,evt);" transform="translate(232,454)" opacity="0"><ellipse cx="0" cy="0" rx="16" ry="16" fill="#0ff" style="stroke:none; opacity:0.75;" display="none"/><ellipse cx="0" cy="0" rx="10.869565217391305" ry="10.869565217391305" fill="#777" style="stroke:black;"/></g><g onmousedown="bpmousedown(332,evt);" onmouseover="bpmouseover(332,evt);" onmouseout="bpmouseout(332,evt);" transform="translate(237,391)" opacity="0"><ellipse cx="0" cy="0" rx="16" ry="16" fill="#0ff" style="stroke:none; opacity:0.75;" display="none"/><ellipse cx="0" cy="0" rx="10.869565217391305" ry="10.869565217391305" fill="#777" style="stroke:black;"/></g><g onmousedown="bpmousedown(340,evt);" onmouseover="bpmouseover(340,evt);" onmouseout="bpmouseout(340,evt);" transform="translate(503,345)" opacity="0"><ellipse cx="0" cy="0" rx="16" ry="16" fill="#0ff" style="stroke:none; opacity:0.75;" display="none"/><ellipse cx="0" cy="0" rx="10.869565217391305" ry="10.869565217391305" fill="#777" style="stroke:black;"/></g></g>
  <g id="ports"/>
</g>
</svg>