<svg xmlns:xlink="http://www.w3.org/1999/xlink" xmlns="http://www.w3.org/2000/svg" height="270px" width="480px" id="SVGCanvas" onmouseup="" onmousemove="">
<rect fill="#bdbddf" width="100%" height="100%" y="0" x="0" id="background" onmousedown="bgmousedown(evt)"/>
<g id="foreground" transform="translate(16.5625,0),scale(0.625),translate(-9,-117)">
  <g id="edges"><g id="266"><path style="stroke:#bdbddf; stroke-width:8px; fill:none;" opacity="0.7" d="M 508,147 H 366 a 12,12 0 0,0 -12,12L 354,176"/><g><path style="stroke:#ff0; stroke-width:8px; fill:none; " opacity="0" d="M 508,147 H 366 a 12,12 0 0,0 -12,12L 354,176"/></g><path style="stroke:black; fill:none;" d="M 508,147 H 366 a 12,12 0 0,0 -12,12L 354,176"/><g><g><path style="stroke:#0ff; stroke-width:8px; fill:none; " opacity="0" d="M 508,147 L 354,147" onmousedown='segmousedown("266","0",evt);' onmouseover='segmouseover("266","0",evt);' onmouseout='segmouseout("266","0",evt);' onclick='segclick("266","0",evt);'/><path style="stroke:#0ff; stroke-width:8px; fill:none; " opacity="0" d="M 354,147 L 354,176" onmousedown='segmousedown("266","1",evt);' onmouseover='segmouseover("266","1",evt);' onmouseout='segmouseout("266","1",evt);' onclick='segclick("266","1",evt);'/></g></g></g><g id="267"><path style="stroke:#bdbddf; stroke-width:8px; fill:none;" opacity="0.7" d="M 354,206 V 216 a 10,10 0 0,1 -10,10 H 261.5 a 9.5,9.5 0 0,0 -9.5,9.5L 252,245"/><g><path style="stroke:#ff0; stroke-width:8px; fill:none; " opacity="0" d="M 354,206 V 216 a 10,10 0 0,1 -10,10 H 261.5 a 9.5,9.5 0 0,0 -9.5,9.5L 252,245"/></g><path style="stroke:black; fill:none;" d="M 354,206 V 216 a 10,10 0 0,1 -10,10 H 261.5 a 9.5,9.5 0 0,0 -9.5,9.5L 252,245"/><g><g><path style="stroke:#0ff; stroke-width:8px; fill:none; " opacity="0" d="M 354,206 L 354,226" onmousedown='segmousedown("267","0",evt);' onmouseover='segmouseover("267","0",evt);' onmouseout='segmouseout("267","0",evt);' onclick='segclick("267","0",evt);'/><path style="stroke:#0ff; stroke-width:8px; fill:none; " opacity="0" d="M 354,226 L 252,226" onmousedown='segmousedown("267","1",evt);' onmouseover='segmouseover("267","1",evt);' onmouseout='segmouseout("267","1",evt);' onclick='segclick("267","1",evt);'/><path style="stroke:#0ff; stroke-width:8px; fill:none; " opacity="0" d="M 252,226 L 252,245" onmousedown='segmousedown("267","2",evt);' onmouseover='segmouseover("267","2",evt);' onmouseout='segmouseout("267","2",evt);' onclick='segclick("267","2",evt);'/></g></g></g><g id="268"><path style="stroke:#bdbddf; stroke-width:8px; fill:none;" opacity="0.7" d="M 685,342 V 159 a 12,12 0 0,0 -12,-12L 538,147"/><g><path style="stroke:#ff0; stroke-width:8px; fill:none; " opacity="0" d="M 685,342 V 159 a 12,12 0 0,0 -12,-12L 538,147"/></g><path style="stroke:black; fill:none;" d="M 685,342 V 159 a 12,12 0 0,0 -12,-12L 538,147"/><g><g><path style="stroke:#0ff; stroke-width:8px; fill:none; " opacity="0" d="M 685,342 L 685,147" onmousedown='segmousedown("268","0",evt);' onmouseover='segmouseover("268","0",evt);' onmouseout='segmouseout("268","0",evt);' onclick='segclick("268","0",evt);'/><path style="stroke:#0ff; stroke-width:8px; fill:none; " opacity="0" d="M 685,147 L 538,147" onmousedown='segmousedown("268","1",evt);' onmouseover='segmouseover("268","1",evt);' onmouseout='segmouseout("268","1",evt);' onclick='segclick("268","1",evt);'/></g></g></g><g id="269"><path style="stroke:#bdbddf; stroke-width:8px; fill:none;" opacity="0.7" d="M 698,342 V 334.5 a 7.5,7.5 0 0,0 -7.5,-7.5L 389,327"/><g><path style="stroke:#ff0; stroke-width:8px; fill:none; " opacity="0" d="M 698,342 V 334.5 a 7.5,7.5 0 0,0 -7.5,-7.5L 389,327"/></g><path style="stroke:black; fill:none;" d="M 698,342 V 334.5 a 7.5,7.5 0 0,0 -7.5,-7.5L 389,327"/><g><g><path style="stroke:#0ff; stroke-width:8px; fill:none; " opacity="0" d="M 698,342 L 698,327" onmousedown='segmousedown("269","0",evt);' onmouseover='segmouseover("269","0",evt);' onmouseout='segmouseout("269","0",evt);' onclick='segclick("269","0",evt);'/><path style="stroke:#0ff; stroke-width:8px; fill:none; " opacity="0" d="M 698,327 L 389,327" onmousedown='segmousedown("269","1",evt);' onmouseover='segmouseover("269","1",evt);' onmouseout='segmouseout("269","1",evt);' onclick='segclick("269","1",evt);'/></g></g></g><g id="270"><path style="stroke:#bdbddf; stroke-width:8px; fill:none;" opacity="0.7" d="M 374,322 V 507 a 12,12 0 0,1 -12,12L 193,519"/><g><path style="stroke:#ff0; stroke-width:8px; fill:none; " opacity="0" d="M 374,322 V 507 a 12,12 0 0,1 -12,12L 193,519"/></g><path style="stroke:black; fill:none;" d="M 374,322 V 507 a 12,12 0 0,1 -12,12L 193,519"/><g><g><path style="stroke:#0ff; stroke-width:8px; fill:none; " opacity="0" d="M 374,322 L 374,519" onmousedown='segmousedown("270","0",evt);' onmouseover='segmouseover("270","0",evt);' onmouseout='segmouseout("270","0",evt);' onclick='segclick("270","0",evt);'/><path style="stroke:#0ff; stroke-width:8px; fill:none; " opacity="0" d="M 374,519 L 193,519" onmousedown='segmousedown("270","1",evt);' onmouseover='segmouseover("270","1",evt);' onmouseout='segmouseout("270","1",evt);' onclick='segclick("270","1",evt);'/></g></g></g><g id="271"><path style="stroke:#bdbddf; stroke-width:8px; fill:none;" opacity="0.7" d="M 252,275 V 283.5 a 8.5,8.5 0 0,0 8.5,8.5 H 448 a 12,12 0 0,1 12,12L 460,388.5"/><g><path style="stroke:#ff0; stroke-width:8px; fill:none; " opacity="0" d="M 252,275 V 283.5 a 8.5,8.5 0 0,0 8.5,8.5 H 448 a 12,12 0 0,1 12,12L 460,388.5"/></g><path style="stroke:black; fill:none;" d="M 252,275 V 283.5 a 8.5,8.5 0 0,0 8.5,8.5 H 448 a 12,12 0 0,1 12,12L 460,388.5"/><g><g><path style="stroke:#0ff; stroke-width:8px; fill:none; " opacity="0" d="M 252,275 L 252,292" onmousedown='segmousedown("271","0",evt);' onmouseover='segmouseover("271","0",evt);' onmouseout='segmouseout("271","0",evt);' onclick='segclick("271","0",evt);'/><path style="stroke:#0ff; stroke-width:8px; fill:none; " opacity="0" d="M 252,292 L 460,292" onmousedown='segmousedown("271","1",evt);' onmouseover='segmouseover("271","1",evt);' onmouseout='segmouseout("271","1",evt);' onclick='segclick("271","1",evt);'/><path style="stroke:#0ff; stroke-width:8px; fill:none; " opacity="0" d="M 460,292 L 460,388.5" onmousedown='segmousedown("271","2",evt);' onmouseover='segmouseover("271","2",evt);' onmouseout='segmouseout("271","2",evt);' onclick='segclick("271","2",evt);'/></g></g></g><g id="272"><path style="stroke:#bdbddf; stroke-width:8px; fill:none;" opacity="0.7" d="M 460,439.5 V 444.25 a 4.75,4.75 0 0,0 4.75,4.75 H 504 a 10,10 0 0,1 10,10L 514,469"/><g><path style="stroke:#ff0; stroke-width:8px; fill:none; " opacity="0" d="M 460,439.5 V 444.25 a 4.75,4.75 0 0,0 4.75,4.75 H 504 a 10,10 0 0,1 10,10L 514,469"/></g><path style="stroke:black; fill:none;" d="M 460,439.5 V 444.25 a 4.75,4.75 0 0,0 4.75,4.75 H 504 a 10,10 0 0,1 10,10L 514,469"/><g><g><path style="stroke:#0ff; stroke-width:8px; fill:none; " opacity="0" d="M 460,439.5 L 460,449" onmousedown='segmousedown("272","0",evt);' onmouseover='segmouseover("272","0",evt);' onmouseout='segmouseout("272","0",evt);' onclick='segclick("272","0",evt);'/><path style="stroke:#0ff; stroke-width:8px; fill:none; " opacity="0" d="M 460,449 L 514,449" onmousedown='segmousedown("272","1",evt);' onmouseover='segmouseover("272","1",evt);' onmouseout='segmouseout("272","1",evt);' onclick='segclick("272","1",evt);'/><path style="stroke:#0ff; stroke-width:8px; fill:none; " opacity="0" d="M 514,449 L 514,469" onmousedown='segmousedown("272","2",evt);' onmouseover='segmouseover("272","2",evt);' onmouseout='segmouseout("272","2",evt);' onclick='segclick("272","2",evt);'/></g></g></g><g id="273"><path style="stroke:#bdbddf; stroke-width:8px; fill:none;" opacity="0.7" d="M 514,484 H 677 a 12,12 0 0,0 12,-12L 689,359"/><g><path style="stroke:#ff0; stroke-width:8px; fill:none; " opacity="0" d="M 514,484 H 677 a 12,12 0 0,0 12,-12L 689,359"/></g><path style="stroke:black; fill:none;" d="M 514,484 H 677 a 12,12 0 0,0 12,-12L 689,359"/><g><g><path style="stroke:#0ff; stroke-width:8px; fill:none; " opacity="0" d="M 514,484 L 689,484" onmousedown='segmousedown("273","0",evt);' onmouseover='segmouseover("273","0",evt);' onmouseout='segmouseout("273","0",evt);' onclick='segclick("273","0",evt);'/><path style="stroke:#0ff; stroke-width:8px; fill:none; " opacity="0" d="M 689,484 L 689,359" onmousedown='segmousedown("273","1",evt);' onmouseover='segmouseover("273","1",evt);' onmouseout='segmouseout("273","1",evt);' onclick='segclick("273","1",evt);'/></g></g></g><g id="274"><path style="stroke:#bdbddf; stroke-width:8px; fill:none;" opacity="0.7" d="M 168,504 V 212.5 a 10.5,10.5 0 0,0 -10.5,-10.5L 147,202"/><g><path style="stroke:#ff0; stroke-width:8px; fill:none; " opacity="0" d="M 168,504 V 212.5 a 10.5,10.5 0 0,0 -10.5,-10.5L 147,202"/></g><path style="stroke:black; fill:none;" d="M 168,504 V 212.5 a 10.5,10.5 0 0,0 -10.5,-10.5L 147,202"/><g><g><path style="stroke:#0ff; stroke-width:8px; fill:none; " opacity="0" d="M 168,504 L 168,202" onmousedown='segmousedown("274","0",evt);' onmouseover='segmouseover("274","0",evt);' onmouseout='segmouseout("274","0",evt);' onclick='segclick("274","0",evt);'/><path style="stroke:#0ff; stroke-width:8px; fill:none; " opacity="0" d="M 168,202 L 147,202" onmousedown='segmousedown("274","1",evt);' onmouseover='segmouseover("274","1",evt);' onmouseout='segmouseout("274","1",evt);' onclick='segclick("274","1",evt);'/></g></g></g><g id="275"><path style="stroke:#bdbddf; stroke-width:8px; fill:none;" opacity="0.7" d="M 143,519 H 108 a 12,12 0 0,1 -12,-12 V 358 a 12,12 0 0,0 -12,-12L 39,346"/><g><path style="stroke:#ff0; stroke-width:8px; fill:none; " opacity="0" d="M 143,519 H 108 a 12,12 0 0,1 -12,-12 V 358 a 12,12 0 0,0 -12,-12L 39,346"/></g><path style="stroke:black; fill:none;" d="M 143,519 H 108 a 12,12 0 0,1 -12,-12 V 358 a 12,12 0 0,0 -12,-12L 39,346"/><g><g><path style="stroke:#0ff; stroke-width:8px; fill:none; " opacity="0" d="M 143,519 L 96,519" onmousedown='segmousedown("275","0",evt);' onmouseover='segmouseover("275","0",evt);' onmouseout='segmouseout("275","0",evt);' onclick='segclick("275","0",evt);'/><path style="stroke:#0ff; stroke-width:8px; fill:none; " opacity="0" d="M 96,519 L 96,346" onmousedown='segmousedown("275","1",evt);' onmouseover='segmouseover("275","1",evt);' onmouseout='segmouseout("275","1",evt);' onclick='segclick("275","1",evt);'/><path style="stroke:#0ff; stroke-width:8px; fill:none; " opacity="0" d="M 96,346 L 39,346" onmousedown='segmousedown("275","2",evt);' onmouseover='segmouseover("275","2",evt);' onmouseout='segmouseout("275","2",evt);' onclick='segclick("275","2",evt);'/></g></g></g><g id="276"><path style="stroke:#bdbddf; stroke-width:8px; fill:none;" opacity="0.7" d="M 679,356 H 645 a 12,12 0 0,1 -12,-12L 633,238"/><g><path style="stroke:#ff0; stroke-width:8px; fill:none; " opacity="0" d="M 679,356 H 645 a 12,12 0 0,1 -12,-12L 633,238"/></g><path style="stroke:black; fill:none;" d="M 679,356 H 645 a 12,12 0 0,1 -12,-12L 633,238"/><g><g><path style="stroke:#0ff; stroke-width:8px; fill:none; " opacity="0" d="M 679,356 L 633,356" onmousedown='segmousedown("276","0",evt);' onmouseover='segmouseover("276","0",evt);' onmouseout='segmouseout("276","0",evt);' onclick='segclick("276","0",evt);'/><path style="stroke:#0ff; stroke-width:8px; fill:none; " opacity="0" d="M 633,356 L 633,238" onmousedown='segmousedown("276","1",evt);' onmouseover='segmouseover("276","1",evt);' onmouseout='segmouseout("276","1",evt);' onclick='segclick("276","1",evt);'/></g></g></g><g id="277"><path style="stroke:#bdbddf; stroke-width:8px; fill:none;" opacity="0.7" d="M 618,210 H 595 a 12,12 0 0,0 -12,12 V 238 a 12,12 0 0,1 -12,12L 532,250"/><g><path style="stroke:#ff0; stroke-width:8px; fill:none; " opacity="0" d="M 618,210 H 595 a 12,12 0 0,0 -12,12 V 238 a 12,12 0 0,1 -12,12L 532,250"/></g><path style="stroke:black; fill:none;" d="M 618,210 H 595 a 12,12 0 0,0 -12,12 V 238 a 12,12 0 0,1 -12,12L 532,250"/><g><g><path style="stroke:#0ff; stroke-width:8px; fill:none; " opacity="0" d="M 618,210 L 583,210" onmousedown='segmousedown("277","0",evt);' onmouseover='segmouseover("277","0",evt);' onmouseout='segmouseout("277","0",evt);' onclick='segclick("277","0",evt);'/><path style="stroke:#0ff; stroke-width:8px; fill:none; " opacity="0" d="M 583,210 L 583,250" onmousedown='segmousedown("277","1",evt);' onmouseover='segmouseover("277","1",evt);' onmouseout='segmouseout("277","1",evt);' onclick='segclick("277","1",evt);'/><path style="stroke:#0ff; stroke-width:8px; fill:none; " opacity="0" d="M 583,250 L 532,250" onmousedown='segmousedown("277","2",evt);' onmouseover='segmouseover("277","2",evt);' onmouseout='segmouseout("277","2",evt);' onclick='segclick("277","2",evt);'/></g></g></g><g id="278"><path style="stroke:#bdbddf; stroke-width:8px; fill:none;" opacity="0.7" d="M 532,250 V 374 a 12,12 0 0,0 12,12 H 574 a 12,12 0 0,1 12,12L 586,427"/><g><path style="stroke:#ff0; stroke-width:8px; fill:none; " opacity="0" d="M 532,250 V 374 a 12,12 0 0,0 12,12 H 574 a 12,12 0 0,1 12,12L 586,427"/></g><path style="stroke:black; fill:none;" d="M 532,250 V 374 a 12,12 0 0,0 12,12 H 574 a 12,12 0 0,1 12,12L 586,427"/><g><g><path style="stroke:#0ff; stroke-width:8px; fill:none; " opacity="0" d="M 532,250 L 532,386" onmousedown='segmousedown("278","0",evt);' onmouseover='segmouseover("278","0",evt);' onmouseout='segmouseout("278","0",evt);' onclick='segclick("278","0",evt);'/><path style="stroke:#0ff; stroke-width:8px; fill:none; " opacity="0" d="M 532,386 L 586,386" onmousedown='segmousedown("278","1",evt);' onmouseover='segmouseover("278","1",evt);' onmouseout='segmouseout("278","1",evt);' onclick='segclick("278","1",evt);'/><path style="stroke:#0ff; stroke-width:8px; fill:none; " opacity="0" d="M 586,386 L 586,427" onmousedown='segmousedown("278","2",evt);' onmouseover='segmouseover("278","2",evt);' onmouseout='segmouseout("278","2",evt);' onclick='segclick("278","2",evt);'/></g></g></g><g id="279"><path style="stroke:#bdbddf; stroke-width:8px; fill:none;" opacity="0.7" d="M 586,427 H 630 a 12,12 0 0,0 12,-12 V 378 a 12,12 0 0,1 12,-12L 687,366"/><g><path style="stroke:#ff0; stroke-width:8px; fill:none; " opacity="0" d="M 586,427 H 630 a 12,12 0 0,0 12,-12 V 378 a 12,12 0 0,1 12,-12L 687,366"/></g><path style="stroke:black; fill:none;" d="M 586,427 H 630 a 12,12 0 0,0 12,-12 V 378 a 12,12 0 0,1 12,-12L 687,366"/><g><g><path style="stroke:#0ff; stroke-width:8px; fill:none; " opacity="0" d="M 586,427 L 642,427" onmousedown='segmousedown("279","0",evt);' onmouseover='segmouseover("279","0",evt);' onmouseout='segmouseout("279","0",evt);' onclick='segclick("279","0",evt);'/><path style="stroke:#0ff; stroke-width:8px; fill:none; " opacity="0" d="M 642,427 L 642,366" onmousedown='segmousedown("279","1",evt);' onmouseover='segmouseover("279","1",evt);' onmouseout='segmouseout("279","1",evt);' onclick='segclick("279","1",evt);'/><path style="stroke:#0ff; stroke-width:8px; fill:none; " opacity="0" d="M 642,366 L 687,366" onmousedown='segmousedown("279","2",evt);' onmouseover='segmouseover("279","2",evt);' onmouseout='segmouseout("279","2",evt);' onclick='segclick("279","2",evt);'/></g></g></g></g>
  <g id="nodes"><g id="256" onmousedown="nodemousedown(256,evt);" onmouseover="nodemouseover(256,evt);" onmouseout="nodemouseout(256,evt);" transform="translate(460,414)"><rect x="-27" y="-31.5" width="54" height="63" fill="#0ff" style="stroke:none; opacity:0.75;" display="none"/><rect x="-21" y="-25.5" width="42" height="51" fill="#f0f0d2" style="stroke:black; opacity:1;"/></g><g id="257" onmousedown="nodemousedown(257,evt);" onmouseover="nodemouseover(257,evt);" onmouseout="nodemouseout(257,evt);" transform="translate(514,484)"><rect x="-21" y="-21" width="42" height="42" fill="#0ff" style="stroke:none; opacity:0.75;" display="none"/><rect x="-15" y="-15" width="30" height="30" fill="#f0f0d2" style="stroke:black; opacity:1;"/></g><g id="258" onmousedown="nodemousedown(258,evt);" onmouseover="nodemouseover(258,evt);" onmouseout="nodemouseout(258,evt);" transform="translate(694,357)"><rect x="-21" y="-21" width="42" height="42" fill="#0ff" style="stroke:none; opacity:0.75;" display="none"/><rect x="-15" y="-15" width="30" height="30" fill="#f0f0d2" style="stroke:black; opacity:1;"/></g><g id="259" onmousedown="nodemousedown(259,evt);" onmouseover="nodemouseover(259,evt);" onmouseout="nodemouseout(259,evt);" transform="translate(374,322)"><rect x="-21" y="-21" width="42" height="42" fill="#0ff" style="stroke:none; opacity:0.75;" display="none"/><rect x="-15" y="-15" width="30" height="30" fill="#f0f0d2" style="stroke:black; opacity:1;"/></g><g id="260" onmousedown="nodemousedown(260,evt);" onmouseover="nodemouseover(260,evt);" onmouseout="nodemouseout(260,evt);" transform="translate(132,202)"><rect x="-21" y="-21" width="42" height="42" fill="#0ff" style="stroke:none; opacity:0.75;" display="none"/><rect x="-15" y="-15" width="30" height="30" fill="#f0f0d2" style="stroke:black; opacity:1;"/></g><g id="262" onmousedown="nodemousedown(262,evt);" onmouseover="nodemouseover(262,evt);" onmouseout="nodemouseout(262,evt);" transform="translate(39,346)"><rect x="-21" y="-21" width="42" height="42" fill="#0ff" style="stroke:none; opacity:0.75;" display="none"/><rect x="-15" y="-15" width="30" height="30" fill="#f0f0d2" style="stroke:black; opacity:1;"/></g><g id="264" onmousedown="nodemousedown(264,evt);" onmouseover="nodemouseover(264,evt);" onmouseout="nodemouseout(264,evt);" transform="translate(532,250)"><rect x="-21" y="-21" width="42" height="42" fill="#0ff" style="stroke:none; opacity:0.75;" display="none"/><rect x="-15" y="-15" width="30" height="30" fill="#f0f0d2" style="stroke:black; opacity:1;"/></g><g id="265" onmousedown="nodemousedown(265,evt);" onmouseover="nodemouseover(265,evt);" onmouseout="nodemouseout(265,evt);" transform="translate(586,427)"><rect x="-21" y="-21" width="42" height="42" fill="#0ff" style="stroke:none; opacity:0.75;" display="none"/><rect x="-15" y="-15" width="30" height="30" fill="#f0f0d2" style="stroke:black; opacity:1;"/></g><g id="253" onmousedown="nodemousedown(253,evt);" onmouseover="nodemouseover(253,evt);" onmouseout="nodemouseout(253,evt);" transform="translate(523,147)"><rect x="-21" y="-21" width="42" height="42" fill="#0ff" style="stroke:none; opacity:0.75;" display="none"/><rect x="-15" y="-15" width="30" height="30" fill="#f0f0d2" style="stroke:black; opacity:1;"/></g><g id="261" onmousedown="nodemousedown(261,evt);" onmouseover="nodemouseover(261,evt);" onmouseout="nodemouseout(261,evt);" transform="translate(168,519)"><rect x="-31" y="-21" width="62" height="42" fill="#0ff" style="stroke:none; opacity:0.75;" display="none"/><rect x="-25" y="-15" width="50" height="30" fill="#f0f0d2" style="stroke:black; opacity:1;"/></g><g id="254" onmousedown="nodemousedown(254,evt);" onmouseover="nodemouseover(254,evt);" onmouseout="nodemouseout(254,evt);" transform="translate(354,191)"><rect x="-32.5" y="-21" width="65" height="42" fill="#0ff" style="stroke:none; opacity:0.75;" display="none"/><rect x="-26.5" y="-15" width="53" height="30" fill="#f0f0d2" style="stroke:black; opacity:1;"/></g><g id="263" onmousedown="nodemousedown(263,evt);" onmouseover="nodemouseover(263,evt);" onmouseout="nodemouseout(263,evt);" transform="translate(633,210)"><rect x="-21" y="-34" width="42" height="68" fill="#0ff" style="stroke:none; opacity:0.75;" display="none"/><rect x="-15" y="-28" width="30" height="56" fill="#f0f0d2" style="stroke:black; opacity:1;"/></g><g id="255" onmousedown="nodemousedown(255,evt);" onmouseover="nodemouseover(255,evt);" onmouseout="nodemouseout(255,evt);" transform="translate(252,260)"><rect x="-21" y="-21" width="42" height="42" fill="#0ff" style="stroke:none; opacity:0.75;" display="none"/><rect x="-15" y="-15" width="30" height="30" fill="#f0f0d2" style="stroke:black; opacity:1;"/></g></g>
  <g id="BPs"><g onmousedown="bpmousedown(282,evt);" onmouseover="bpmouseover(282,evt);" onmouseout="bpmouseout(282,evt);" transform="translate(354,147)" opacity="0"><ellipse cx="0" cy="0" rx="16" ry="16" fill="#0ff" style="stroke:none; opacity:0.75;" display="none"/><ellipse cx="0" cy="0" rx="12.842113914687268" ry="12.842113914687268" fill="#777" style="stroke:black;"/></g><g onmousedown="bpmousedown(285,evt);" onmouseover="bpmouseover(285,evt);" onmouseout="bpmouseout(285,evt);" transform="translate(354,226)" opacity="0"><ellipse cx="0" cy="0" rx="16" ry="16" fill="#0ff" style="stroke:none; opacity:0.75;" display="none"/><ellipse cx="0" cy="0" rx="12.842113914687268" ry="12.842113914687268" fill="#777" style="stroke:black;"/></g><g onmousedown="bpmousedown(286,evt);" onmouseover="bpmouseover(286,evt);" onmouseout="bpmouseout(286,evt);" transform="translate(252,226)" opacity="0"><ellipse cx="0" cy="0" rx="16" ry="16" fill="#0ff" style="stroke:none; opacity:0.75;" display="none"/><ellipse cx="0" cy="0" rx="12.842113914687268" ry="12.842113914687268" fill="#777" style="stroke:black;"/></g><g onmousedown="bpmousedown(289,evt);" onmouseover="bpmouseover(289,evt);" onmouseout="bpmouseout(289,evt);" transform="translate(685,147)" opacity="0"><ellipse cx="0" cy="0" rx="16" ry="16" fill="#0ff" style="stroke:none; opacity:0.75;" display="none"/><ellipse cx="0" cy="0" rx="12.842113914687268" ry="12.842113914687268" fill="#777" style="stroke:black;"/></g><g onmousedown="bpmousedown(295,evt);" onmouseover="bpmouseover(295,evt);" onmouseout="bpmouseout(295,evt);" transform="translate(374,519)" opacity="0"><ellipse cx="0" cy="0" rx="16" ry="16" fill="#0ff" style="stroke:none; opacity:0.75;" display="none"/><ellipse cx="0" cy="0" rx="12.842113914687268" ry="12.842113914687268" fill="#777" style="stroke:black;"/></g><g onmousedown="bpmousedown(298,evt);" onmouseover="bpmouseover(298,evt);" onmouseout="bpmouseout(298,evt);" transform="translate(460,292)" opacity="0"><ellipse cx="0" cy="0" rx="16" ry="16" fill="#0ff" style="stroke:none; opacity:0.75;" display="none"/><ellipse cx="0" cy="0" rx="12.842113914687268" ry="12.842113914687268" fill="#777" style="stroke:black;"/></g><g onmousedown="bpmousedown(301,evt);" onmouseover="bpmouseover(301,evt);" onmouseout="bpmouseout(301,evt);" transform="translate(460,449)" opacity="0"><ellipse cx="0" cy="0" rx="16" ry="16" fill="#0ff" style="stroke:none; opacity:0.75;" display="none"/><ellipse cx="0" cy="0" rx="12.842113914687268" ry="12.842113914687268" fill="#777" style="stroke:black;"/></g><g onmousedown="bpmousedown(302,evt);" onmouseover="bpmouseover(302,evt);" onmouseout="bpmouseout(302,evt);" transform="translate(514,449)" opacity="0"><ellipse cx="0" cy="0" rx="16" ry="16" fill="#0ff" style="stroke:none; opacity:0.75;" display="none"/><ellipse cx="0" cy="0" rx="12.842113914687268" ry="12.842113914687268" fill="#777" style="stroke:black;"/></g><g onmousedown="bpmousedown(305,evt);" onmouseover="bpmouseover(305,evt);" onmouseout="bpmouseout(305,evt);" transform="translate(689,484)" opacity="0"><ellipse cx="0" cy="0" rx="16" ry="16" fill="#0ff" style="stroke:none; opacity:0.75;" display="none"/><ellipse cx="0" cy="0" rx="12.842113914687268" ry="12.842113914687268" fill="#777" style="stroke:black;"/></g><g onmousedown="bpmousedown(308,evt);" onmouseover="bpmouseover(308,evt);" onmouseout="bpmouseout(308,evt);" transform="translate(168,202)" opacity="0"><ellipse cx="0" cy="0" rx="16" ry="16" fill="#0ff" style="stroke:none; opacity:0.75;" display="none"/><ellipse cx="0" cy="0" rx="12.842113914687268" ry="12.842113914687268" fill="#777" style="stroke:black;"/></g><g onmousedown="bpmousedown(311,evt);" onmouseover="bpmouseover(311,evt);" onmouseout="bpmouseout(311,evt);" transform="translate(96,519)" opacity="0"><ellipse cx="0" cy="0" rx="16" ry="16" fill="#0ff" style="stroke:none; opacity:0.75;" display="none"/><ellipse cx="0" cy="0" rx="12.842113914687268" ry="12.842113914687268" fill="#777" style="stroke:black;"/></g><g onmousedown="bpmousedown(312,evt);" onmouseover="bpmouseover(312,evt);" onmouseout="bpmouseout(312,evt);" transform="translate(96,346)" opacity="0"><ellipse cx="0" cy="0" rx="16" ry="16" fill="#0ff" style="stroke:none; opacity:0.75;" display="none"/><ellipse cx="0" cy="0" rx="12.842113914687268" ry="12.842113914687268" fill="#777" style="stroke:black;"/></g><g onmousedown="bpmousedown(315,evt);" onmouseover="bpmouseover(315,evt);" onmouseout="bpmouseout(315,evt);" transform="translate(633,356)" opacity="0"><ellipse cx="0" cy="0" rx="16" ry="16" fill="#0ff" style="stroke:none; opacity:0.75;" display="none"/><ellipse cx="0" cy="0" rx="12.842113914687268" ry="12.842113914687268" fill="#777" style="stroke:black;"/></g><g onmousedown="bpmousedown(318,evt);" onmouseover="bpmouseover(318,evt);" onmouseout="bpmouseout(318,evt);" transform="translate(583,210)" opacity="0"><ellipse cx="0" cy="0" rx="16" ry="16" fill="#0ff" style="stroke:none; opacity:0.75;" display="none"/><ellipse cx="0" cy="0" rx="12.842113914687268" ry="12.842113914687268" fill="#777" style="stroke:black;"/></g><g onmousedown="bpmousedown(319,evt);" onmouseover="bpmouseover(319,evt);" onmouseout="bpmouseout(319,evt);" transform="translate(583,250)" opacity="0"><ellipse cx="0" cy="0" rx="16" ry="16" fill="#0ff" style="stroke:none; opacity:0.75;" display="none"/><ellipse cx="0" cy="0" rx="12.842113914687268" ry="12.842113914687268" fill="#777" style="stroke:black;"/></g><g onmousedown="bpmousedown(322,evt);" onmouseover="bpmouseover(322,evt);" onmouseout="bpmouseout(322,evt);" transform="translate(532,386)" opacity="0"><ellipse cx="0" cy="0" rx="16" ry="16" fill="#0ff" style="stroke:none; opacity:0.75;" display="none"/><ellipse cx="0" cy="0" rx="12.842113914687268" ry="12.842113914687268" fill="#777" style="stroke:black;"/></g><g onmousedown="bpmousedown(323,evt);" onmouseover="bpmouseover(323,evt);" onmouseout="bpmouseout(323,evt);" transform="translate(586,386)" opacity="0"><ellipse cx="0" cy="0" rx="16" ry="16" fill="#0ff" style="stroke:none; opacity:0.75;" display="none"/><ellipse cx="0" cy="0" rx="12.842113914687268" ry="12.842113914687268" fill="#777" style="stroke:black;"/></g><g onmousedown="bpmousedown(326,evt);" onmouseover="bpmouseover(326,evt);" onmouseout="bpmouseout(326,evt);" transform="translate(642,427)" opacity="0"><ellipse cx="0" cy="0" rx="16" ry="16" fill="#0ff" style="stroke:none; opacity:0.75;" display="none"/><ellipse cx="0" cy="0" rx="12.842113914687268" ry="12.842113914687268" fill="#777" style="stroke:black;"/></g><g onmousedown="bpmousedown(327,evt);" onmouseover="bpmouseover(327,evt);" onmouseout="bpmouseout(327,evt);" transform="translate(642,366)" opacity="0"><ellipse cx="0" cy="0" rx="16" ry="16" fill="#0ff" style="stroke:none; opacity:0.75;" display="none"/><ellipse cx="0" cy="0" rx="12.842113914687268" ry="12.842113914687268" fill="#777" style="stroke:black;"/></g><g onmousedown="bpmousedown(340,evt);" onmouseover="bpmouseover(340,evt);" onmouseout="bpmouseout(340,evt);" transform="translate(698,327)" opacity="0"><ellipse cx="0" cy="0" rx="16" ry="16" fill="#0ff" style="stroke:none; opacity:0.75;" display="none"/><ellipse cx="0" cy="0" rx="12.842113914687268" ry="12.842113914687268" fill="#777" style="stroke:black;"/></g><g onmousedown="bpmousedown(356,evt);" onmouseover="bpmouseover(356,evt);" onmouseout="bpmouseout(356,evt);" transform="translate(252,292)" opacity="0"><ellipse cx="0" cy="0" rx="16" ry="16" fill="#0ff" style="stroke:none; opacity:0.75;" display="none"/><ellipse cx="0" cy="0" rx="12.842113914687268" ry="12.842113914687268" fill="#777" style="stroke:black;"/></g></g>
  <g id="ports"/>
</g>
</svg>