<svg xmlns:xlink="http://www.w3.org/1999/xlink" xmlns="http://www.w3.org/2000/svg" height="270px" width="480px" id="SVGCanvas" onmouseup="" onmousemove="">
<rect fill="#bdbddf" width="100%" height="100%" y="0" x="0" id="background" onmousedown="bgmousedown(evt)"/>
<g id="foreground" transform="translate(50.904255319148916,0),scale(0.9574468085106383),translate(-172,-250)">
  <g id="edges"><g id="305"><path style="stroke:#bdbddf; stroke-width:8px; fill:none;" opacity="0.7" d="M 202,274L 530,274"/><g><path style="stroke:#ff0; stroke-width:8px; fill:none; " opacity="0" d="M 202,274L 530,274"/></g><path style="stroke:black; fill:none;" d="M 202,274L 530,274"/><g><g><path style="stroke:#0ff; stroke-width:8px; fill:none; " opacity="0" d="M 202,274 L 530,274" onmousedown='segmousedown("305","0",evt);' onmouseover='segmouseover("305","0",evt);' onmouseout='segmouseout("305","0",evt);' onclick='segclick("305","0",evt);'/></g></g></g><g id="306"><path style="stroke:#bdbddf; stroke-width:8px; fill:none;" opacity="0.7" d="M 530,295L 530,487"/><g><path style="stroke:#ff0; stroke-width:8px; fill:none; " opacity="0" d="M 530,295L 530,487"/></g><path style="stroke:black; fill:none;" d="M 530,295L 530,487"/><g><g><path style="stroke:#0ff; stroke-width:8px; fill:none; " opacity="0" d="M 530,295 L 530,487" onmousedown='segmousedown("306","0",evt);' onmouseover='segmouseover("306","0",evt);' onmouseout='segmouseout("306","0",evt);' onclick='segclick("306","0",evt);'/></g></g></g><g id="307"><path style="stroke:#bdbddf; stroke-width:8px; fill:none;" opacity="0.7" d="M 522,502L 353,502"/><g><path style="stroke:#ff0; stroke-width:8px; fill:none; " opacity="0" d="M 522,502L 353,502"/></g><path style="stroke:black; fill:none;" d="M 522,502L 353,502"/><g><g><path style="stroke:#0ff; stroke-width:8px; fill:none; " opacity="0" d="M 522,502 L 353,502" onmousedown='segmousedown("307","0",evt);' onmouseover='segmouseover("307","0",evt);' onmouseout='segmouseout("307","0",evt);' onclick='segclick("307","0",evt);'/></g></g></g><g id="308"><path style="stroke:#bdbddf; stroke-width:8px; fill:none;" opacity="0.7" d="M 353,502L 217,502"/><g><path style="stroke:#ff0; stroke-width:8px; fill:none; " opacity="0" d="M 353,502L 217,502"/></g><path style="stroke:black; fill:none;" d="M 353,502L 217,502"/><g><g><path style="stroke:#0ff; stroke-width:8px; fill:none; " opacity="0" d="M 353,502 L 217,502" onmousedown='segmousedown("308","0",evt);' onmouseover='segmouseover("308","0",evt);' onmouseout='segmouseout("308","0",evt);' onclick='segclick("308","0",evt);'/></g></g></g><g id="309"><path style="stroke:#bdbddf; stroke-width:8px; fill:none;" opacity="0.7" d="M 202,487L 202,403"/><g><path style="stroke:#ff0; stroke-width:8px; fill:none; " opacity="0" d="M 202,487L 202,403"/></g><path style="stroke:black; fill:none;" d="M 202,487L 202,403"/><g><g><path style="stroke:#0ff; stroke-width:8px; fill:none; " opacity="0" d="M 202,487 L 202,403" onmousedown='segmousedown("309","0",evt);' onmouseover='segmouseover("309","0",evt);' onmouseout='segmouseout("309","0",evt);' onclick='segclick("309","0",evt);'/></g></g></g><g id="310"><path style="stroke:#bdbddf; stroke-width:8px; fill:none;" opacity="0.7" d="M 202,403L 202,295"/><g><path style="stroke:#ff0; stroke-width:8px; fill:none; " opacity="0" d="M 202,403L 202,295"/></g><path style="stroke:black; fill:none;" d="M 202,403L 202,295"/><g><g><path style="stroke:#0ff; stroke-width:8px; fill:none; " opacity="0" d="M 202,403 L 202,295" onmousedown='segmousedown("310","0",evt);' onmouseover='segmouseover("310","0",evt);' onmouseout='segmouseout("310","0",evt);' onclick='segclick("310","0",evt);'/></g></g></g><g id="311"><path style="stroke:#bdbddf; stroke-width:8px; fill:none;" opacity="0.7" d="M 202,403L 354,403"/><g><path style="stroke:#ff0; stroke-width:8px; fill:none; " opacity="0" d="M 202,403L 354,403"/></g><path style="stroke:black; fill:none;" d="M 202,403L 354,403"/><g><g><path style="stroke:#0ff; stroke-width:8px; fill:none; " opacity="0" d="M 202,403 L 354,403" onmousedown='segmousedown("311","0",evt);' onmouseover='segmouseover("311","0",evt);' onmouseout='segmouseout("311","0",evt);' onclick='segclick("311","0",evt);'/></g></g></g><g id="312"><path style="stroke:#bdbddf; stroke-width:8px; fill:none;" opacity="0.7" d="M 430,353 V 386 a 12,12 0 0,0 12,12 H 443 a 12,12 0 0,1 12,12L 455,467"/><g><path style="stroke:#ff0; stroke-width:8px; fill:none; " opacity="0" d="M 430,353 V 386 a 12,12 0 0,0 12,12 H 443 a 12,12 0 0,1 12,12L 455,467"/></g><path style="stroke:black; fill:none;" d="M 430,353 V 386 a 12,12 0 0,0 12,12 H 443 a 12,12 0 0,1 12,12L 455,467"/><g><g><path style="stroke:#0ff; stroke-width:8px; fill:none; " opacity="0" d="M 430,353 L 430,398" onmousedown='segmousedown("312","0",evt);' onmouseover='segmouseover("312","0",evt);' onmouseout='segmouseout("312","0",evt);' onclick='segclick("312","0",evt);'/><path style="stroke:#0ff; stroke-width:8px; fill:none; " opacity="0" d="M 430,398 L 455,398" onmousedown='segmousedown("312","1",evt);' onmouseover='segmouseover("312","1",evt);' onmouseout='segmouseout("312","1",evt);' onclick='segclick("312","1",evt);'/><path style="stroke:#0ff; stroke-width:8px; fill:none; " opacity="0" d="M 455,398 L 455,467" onmousedown='segmousedown("312","2",evt);' onmouseover='segmouseover("312","2",evt);' onmouseout='segmouseout("312","2",evt);' onclick='segclick("312","2",evt);'/></g></g></g><g id="313"><path style="stroke:#bdbddf; stroke-width:8px; fill:none;" opacity="0.7" d="M 455,476 H 383 a 12,12 0 0,1 -12,-12 V 463 a 12,12 0 0,0 -12,-12L 326,451"/><g><path style="stroke:#ff0; stroke-width:8px; fill:none; " opacity="0" d="M 455,476 H 383 a 12,12 0 0,1 -12,-12 V 463 a 12,12 0 0,0 -12,-12L 326,451"/></g><path style="stroke:black; fill:none;" d="M 455,476 H 383 a 12,12 0 0,1 -12,-12 V 463 a 12,12 0 0,0 -12,-12L 326,451"/><g><g><path style="stroke:#0ff; stroke-width:8px; fill:none; " opacity="0" d="M 455,476 L 371,476" onmousedown='segmousedown("313","0",evt);' onmouseover='segmouseover("313","0",evt);' onmouseout='segmouseout("313","0",evt);' onclick='segclick("313","0",evt);'/><path style="stroke:#0ff; stroke-width:8px; fill:none; " opacity="0" d="M 371,476 L 371,451" onmousedown='segmousedown("313","1",evt);' onmouseover='segmouseover("313","1",evt);' onmouseout='segmouseout("313","1",evt);' onclick='segclick("313","1",evt);'/><path style="stroke:#0ff; stroke-width:8px; fill:none; " opacity="0" d="M 371,451 L 326,451" onmousedown='segmousedown("313","2",evt);' onmouseover='segmouseover("313","2",evt);' onmouseout='segmouseout("313","2",evt);' onclick='segclick("313","2",evt);'/></g></g></g><g id="314"><path style="stroke:#bdbddf; stroke-width:8px; fill:none;" opacity="0.7" d="M 430,353 H 395 a 12,12 0 0,1 -12,-12 V 340 a 12,12 0 0,0 -12,-12L 318,328"/><g><path style="stroke:#ff0; stroke-width:8px; fill:none; " opacity="0" d="M 430,353 H 395 a 12,12 0 0,1 -12,-12 V 340 a 12,12 0 0,0 -12,-12L 318,328"/></g><path style="stroke:black; fill:none;" d="M 430,353 H 395 a 12,12 0 0,1 -12,-12 V 340 a 12,12 0 0,0 -12,-12L 318,328"/><g><g><path style="stroke:#0ff; stroke-width:8px; fill:none; " opacity="0" d="M 430,353 L 383,353" onmousedown='segmousedown("314","0",evt);' onmouseover='segmouseover("314","0",evt);' onmouseout='segmouseout("314","0",evt);' onclick='segclick("314","0",evt);'/><path style="stroke:#0ff; stroke-width:8px; fill:none; " opacity="0" d="M 383,353 L 383,328" onmousedown='segmousedown("314","1",evt);' onmouseover='segmouseover("314","1",evt);' onmouseout='segmouseout("314","1",evt);' onclick='segclick("314","1",evt);'/><path style="stroke:#0ff; stroke-width:8px; fill:none; " opacity="0" d="M 383,328 L 318,328" onmousedown='segmousedown("314","2",evt);' onmouseover='segmouseover("314","2",evt);' onmouseout='segmouseout("314","2",evt);' onclick='segclick("314","2",evt);'/></g></g></g><g id="315"><path style="stroke:#bdbddf; stroke-width:8px; fill:none;" opacity="0.7" d="M 530,286 H 501 a 12,12 0 0,0 -12,12 V 341 a 12,12 0 0,1 -12,12L 430,353"/><g><path style="stroke:#ff0; stroke-width:8px; fill:none; " opacity="0" d="M 530,286 H 501 a 12,12 0 0,0 -12,12 V 341 a 12,12 0 0,1 -12,12L 430,353"/></g><path style="stroke:black; fill:none;" d="M 530,286 H 501 a 12,12 0 0,0 -12,12 V 341 a 12,12 0 0,1 -12,12L 430,353"/><g><g><path style="stroke:#0ff; stroke-width:8px; fill:none; " opacity="0" d="M 530,286 L 489,286" onmousedown='segmousedown("315","0",evt);' onmouseover='segmouseover("315","0",evt);' onmouseout='segmouseout("315","0",evt);' onclick='segclick("315","0",evt);'/><path style="stroke:#0ff; stroke-width:8px; fill:none; " opacity="0" d="M 489,286 L 489,353" onmousedown='segmousedown("315","1",evt);' onmouseover='segmouseover("315","1",evt);' onmouseout='segmouseout("315","1",evt);' onclick='segclick("315","1",evt);'/><path style="stroke:#0ff; stroke-width:8px; fill:none; " opacity="0" d="M 489,353 L 430,353" onmousedown='segmousedown("315","2",evt);' onmouseover='segmouseover("315","2",evt);' onmouseout='segmouseout("315","2",evt);' onclick='segclick("315","2",evt);'/></g></g></g><g id="316"><path style="stroke:#bdbddf; stroke-width:8px; fill:none;" opacity="0.7" d="M 354,403L 354,499"/><g><path style="stroke:#ff0; stroke-width:8px; fill:none; " opacity="0" d="M 354,403L 354,499"/></g><path style="stroke:black; fill:none;" d="M 354,403L 354,499"/><g><g><path style="stroke:#0ff; stroke-width:8px; fill:none; " opacity="0" d="M 354,403 L 354,499" onmousedown='segmousedown("316","0",evt);' onmouseover='segmouseover("316","0",evt);' onmouseout='segmouseout("316","0",evt);' onclick='segclick("316","0",evt);'/></g></g></g><g id="317"><path style="stroke:#bdbddf; stroke-width:8px; fill:none;" opacity="0.7" d="M 455,457 H 438 a 12,12 0 0,1 -12,-12 V 437 a 4,4 0 0,0 -4,-4L 418,433"/><g><path style="stroke:#ff0; stroke-width:8px; fill:none; " opacity="0" d="M 455,457 H 438 a 12,12 0 0,1 -12,-12 V 437 a 4,4 0 0,0 -4,-4L 418,433"/></g><path style="stroke:black; fill:none;" d="M 455,457 H 438 a 12,12 0 0,1 -12,-12 V 437 a 4,4 0 0,0 -4,-4L 418,433"/><g><g><path style="stroke:#0ff; stroke-width:8px; fill:none; " opacity="0" d="M 455,457 L 426,457" onmousedown='segmousedown("317","0",evt);' onmouseover='segmouseover("317","0",evt);' onmouseout='segmouseout("317","0",evt);' onclick='segclick("317","0",evt);'/><path style="stroke:#0ff; stroke-width:8px; fill:none; " opacity="0" d="M 426,457 L 426,433" onmousedown='segmousedown("317","1",evt);' onmouseover='segmouseover("317","1",evt);' onmouseout='segmouseout("317","1",evt);' onclick='segclick("317","1",evt);'/><path style="stroke:#0ff; stroke-width:8px; fill:none; " opacity="0" d="M 426,433 L 418,433" onmousedown='segmousedown("317","2",evt);' onmouseover='segmouseover("317","2",evt);' onmouseout='segmouseout("317","2",evt);' onclick='segclick("317","2",evt);'/></g></g></g></g>
  <g id="nodes"><g id="294" onmousedown="nodemousedown(294,evt);" onmouseover="nodemouseover(294,evt);" onmouseout="nodemouseout(294,evt);" transform="translate(530,280)"><rect x="-21" y="-21" width="42" height="42" fill="#0ff" style="stroke:none; opacity:0.75;" display="none"/><rect x="-15" y="-15" width="30" height="30" fill="#f0f0d2" style="stroke:black; opacity:1;"/></g><g id="297" onmousedown="nodemousedown(297,evt);" onmouseover="nodemouseover(297,evt);" onmouseout="nodemouseout(297,evt);" transform="translate(202,403)"><rect x="-21" y="-21" width="42" height="42" fill="#0ff" style="stroke:none; opacity:0.75;" display="none"/><rect x="-15" y="-15" width="30" height="30" fill="#f0f0d2" style="stroke:black; opacity:1;"/></g><g id="298" onmousedown="nodemousedown(298,evt);" onmouseover="nodemouseover(298,evt);" onmouseout="nodemouseout(298,evt);" transform="translate(354,403)"><rect x="-21" y="-21" width="42" height="42" fill="#0ff" style="stroke:none; opacity:0.75;" display="none"/><rect x="-15" y="-15" width="30" height="30" fill="#f0f0d2" style="stroke:black; opacity:1;"/></g><g id="299" onmousedown="nodemousedown(299,evt);" onmouseover="nodemouseover(299,evt);" onmouseout="nodemouseout(299,evt);" transform="translate(353,502)"><rect x="-21" y="-21" width="42" height="42" fill="#0ff" style="stroke:none; opacity:0.75;" display="none"/><rect x="-15" y="-15" width="30" height="30" fill="#f0f0d2" style="stroke:black; opacity:1;"/></g><g id="300" onmousedown="nodemousedown(300,evt);" onmouseover="nodemouseover(300,evt);" onmouseout="nodemouseout(300,evt);" transform="translate(430,353)"><rect x="-21" y="-21" width="42" height="42" fill="#0ff" style="stroke:none; opacity:0.75;" display="none"/><rect x="-15" y="-15" width="30" height="30" fill="#f0f0d2" style="stroke:black; opacity:1;"/></g><g id="301" onmousedown="nodemousedown(301,evt);" onmouseover="nodemouseover(301,evt);" onmouseout="nodemouseout(301,evt);" transform="translate(318,328)"><rect x="-21" y="-21" width="42" height="42" fill="#0ff" style="stroke:none; opacity:0.75;" display="none"/><rect x="-15" y="-15" width="30" height="30" fill="#f0f0d2" style="stroke:black; opacity:1;"/></g><g id="302" onmousedown="nodemousedown(302,evt);" onmouseover="nodemouseover(302,evt);" onmouseout="nodemouseout(302,evt);" transform="translate(455,467)"><rect x="-21" y="-21" width="42" height="42" fill="#0ff" style="stroke:none; opacity:0.75;" display="none"/><rect x="-15" y="-15" width="30" height="30" fill="#f0f0d2" style="stroke:black; opacity:1;"/></g><g id="304" onmousedown="nodemousedown(304,evt);" onmouseover="nodemouseover(304,evt);" onmouseout="nodemouseout(304,evt);" transform="translate(403,427)"><rect x="-21" y="-21" width="42" height="42" fill="#0ff" style="stroke:none; opacity:0.75;" display="none"/><rect x="-15" y="-15" width="30" height="30" fill="#f0f0d2" style="stroke:black; opacity:1;"/></g><g id="293" onmousedown="nodemousedown(293,evt);" onmouseover="nodemouseover(293,evt);" onmouseout="nodemouseout(293,evt);" transform="translate(202,280)"><rect x="-21" y="-21" width="42" height="42" fill="#0ff" style="stroke:none; opacity:0.75;" display="none"/><rect x="-15" y="-15" width="30" height="30" fill="#f0f0d2" style="stroke:black; opacity:1;"/></g><g id="303" onmousedown="nodemousedown(303,evt);" onmouseover="nodemouseover(303,evt);" onmouseout="nodemouseout(303,evt);" transform="translate(311,451)"><rect x="-21" y="-21" width="42" height="42" fill="#0ff" style="stroke:none; opacity:0.75;" display="none"/><rect x="-15" y="-15" width="30" height="30" fill="#f0f0d2" style="stroke:black; opacity:1;"/></g><g id="295" onmousedown="nodemousedown(295,evt);" onmouseover="nodemouseover(295,evt);" onmouseout="nodemouseout(295,evt);" transform="translate(202,502)"><rect x="-21" y="-21" width="42" height="42" fill="#0ff" style="stroke:none; opacity:0.75;" display="none"/><rect x="-15" y="-15" width="30" height="30" fill="#f0f0d2" style="stroke:black; opacity:1;"/></g><g id="296" onmousedown="nodemousedown(296,evt);" onmouseover="nodemouseover(296,evt);" onmouseout="nodemouseout(296,evt);" transform="translate(537,502)"><rect x="-21" y="-21" width="42" height="42" fill="#0ff" style="stroke:none; opacity:0.75;" display="none"/><rect x="-15" y="-15" width="30" height="30" fill="#f0f0d2" style="stroke:black; opacity:1;"/></g></g>
  <g id="BPs"><g onmousedown="bpmousedown(344,evt);" onmouseover="bpmouseover(344,evt);" onmouseout="bpmouseout(344,evt);" transform="translate(430,398)" opacity="0"><ellipse cx="0" cy="0" rx="16" ry="16" fill="#0ff" style="stroke:none; opacity:0.75;" display="none"/><ellipse cx="0" cy="0" rx="8.464" ry="8.464" fill="#777" style="stroke:black;"/></g><g onmousedown="bpmousedown(345,evt);" onmouseover="bpmouseover(345,evt);" onmouseout="bpmouseout(345,evt);" transform="translate(455,398)" opacity="0"><ellipse cx="0" cy="0" rx="16" ry="16" fill="#0ff" style="stroke:none; opacity:0.75;" display="none"/><ellipse cx="0" cy="0" rx="8.464" ry="8.464" fill="#777" style="stroke:black;"/></g><g onmousedown="bpmousedown(348,evt);" onmouseover="bpmouseover(348,evt);" onmouseout="bpmouseout(348,evt);" transform="translate(371,476)" opacity="0"><ellipse cx="0" cy="0" rx="16" ry="16" fill="#0ff" style="stroke:none; opacity:0.75;" display="none"/><ellipse cx="0" cy="0" rx="10" ry="10" fill="#777" style="stroke:black;"/></g><g onmousedown="bpmousedown(349,evt);" onmouseover="bpmouseover(349,evt);" onmouseout="bpmouseout(349,evt);" transform="translate(371,451)" opacity="0"><ellipse cx="0" cy="0" rx="16" ry="16" fill="#0ff" style="stroke:none; opacity:0.75;" display="none"/><ellipse cx="0" cy="0" rx="10" ry="10" fill="#777" style="stroke:black;"/></g><g onmousedown="bpmousedown(352,evt);" onmouseover="bpmouseover(352,evt);" onmouseout="bpmouseout(352,evt);" transform="translate(383,353)" opacity="0"><ellipse cx="0" cy="0" rx="16" ry="16" fill="#0ff" style="stroke:none; opacity:0.75;" display="none"/><ellipse cx="0" cy="0" rx="15.172629861397999" ry="15.172629861397999" fill="#777" style="stroke:black;"/></g><g onmousedown="bpmousedown(353,evt);" onmouseover="bpmouseover(353,evt);" onmouseout="bpmouseout(353,evt);" transform="translate(383,328)" opacity="0"><ellipse cx="0" cy="0" rx="16" ry="16" fill="#0ff" style="stroke:none; opacity:0.75;" display="none"/><ellipse cx="0" cy="0" rx="15.172629861397999" ry="15.172629861397999" fill="#777" style="stroke:black;"/></g><g onmousedown="bpmousedown(356,evt);" onmouseover="bpmouseover(356,evt);" onmouseout="bpmouseout(356,evt);" transform="translate(489,286)" opacity="0"><ellipse cx="0" cy="0" rx="16" ry="16" fill="#0ff" style="stroke:none; opacity:0.75;" display="none"/><ellipse cx="0" cy="0" rx="15.172629861397999" ry="15.172629861397999" fill="#777" style="stroke:black;"/></g><g onmousedown="bpmousedown(357,evt);" onmouseover="bpmouseover(357,evt);" onmouseout="bpmouseout(357,evt);" transform="translate(489,353)" opacity="0"><ellipse cx="0" cy="0" rx="16" ry="16" fill="#0ff" style="stroke:none; opacity:0.75;" display="none"/><ellipse cx="0" cy="0" rx="15.172629861397999" ry="15.172629861397999" fill="#777" style="stroke:black;"/></g><g onmousedown="bpmousedown(362,evt);" onmouseover="bpmouseover(362,evt);" onmouseout="bpmouseout(362,evt);" transform="translate(426,457)" opacity="0"><ellipse cx="0" cy="0" rx="16" ry="16" fill="#0ff" style="stroke:none; opacity:0.75;" display="none"/><ellipse cx="0" cy="0" rx="8.464" ry="8.464" fill="#777" style="stroke:black;"/></g><g onmousedown="bpmousedown(363,evt);" onmouseover="bpmouseover(363,evt);" onmouseout="bpmouseout(363,evt);" transform="translate(426,433)" opacity="0"><ellipse cx="0" cy="0" rx="16" ry="16" fill="#0ff" style="stroke:none; opacity:0.75;" display="none"/><ellipse cx="0" cy="0" rx="15.172629861397999" ry="15.172629861397999" fill="#777" style="stroke:black;"/></g></g>
  <g id="ports"/>
</g>
</svg>