<svg xmlns:xlink="http://www.w3.org/1999/xlink" xmlns="http://www.w3.org/2000/svg" height="270px" width="480px" id="SVGCanvas" onmouseup="" onmousemove="">
<rect fill="#bdbddf" width="100%" height="100%" y="0" x="0" id="background" onmousedown="bgmousedown(evt)"/>
<g id="foreground" transform="translate(116.93023255813954,0),scale(0.627906976744186),translate(-370,-88)">
  <g id="edges"><g id="328"><path style="stroke:#bdbddf; stroke-width:8px; fill:none;" opacity="0.7" d="M 686,488 H 720 a 12,12 0 0,0 12,-12L 732,310"/><g><path style="stroke:#ff0; stroke-width:8px; fill:none; " opacity="0" d="M 686,488 H 720 a 12,12 0 0,0 12,-12L 732,310"/></g><path style="stroke:black; fill:none;" d="M 686,488 H 720 a 12,12 0 0,0 12,-12L 732,310"/><g><g><path style="stroke:#0ff; stroke-width:8px; fill:none; " opacity="0" d="M 686,488 L 732,488" onmousedown='segmousedown("328","0",evt);' onmouseover='segmouseover("328","0",evt);' onmouseout='segmouseout("328","0",evt);' onclick='segclick("328","0",evt);'/><path style="stroke:#0ff; stroke-width:8px; fill:none; " opacity="0" d="M 732,488 L 732,310" onmousedown='segmousedown("328","1",evt);' onmouseover='segmouseover("328","1",evt);' onmouseout='segmouseout("328","1",evt);' onclick='segclick("328","1",evt);'/></g></g></g><g id="329"><path style="stroke:#bdbddf; stroke-width:8px; fill:none;" opacity="0.7" d="M 731,280L 731,246"/><g><path style="stroke:#ff0; stroke-width:8px; fill:none; " opacity="0" d="M 731,280L 731,246"/></g><path style="stroke:black; fill:none;" d="M 731,280L 731,246"/><g><g><path style="stroke:#0ff; stroke-width:8px; fill:none; " opacity="0" d="M 731,280 L 731,246" onmousedown='segmousedown("329","0",evt);' onmouseover='segmouseover("329","0",evt);' onmouseout='segmouseout("329","0",evt);' onclick='segclick("329","0",evt);'/></g></g></g><g id="330"><path style="stroke:#bdbddf; stroke-width:8px; fill:none;" opacity="0.7" d="M 415,439 H 577 a 12,12 0 0,1 12,12 V 476 a 12,12 0 0,0 12,12L 656,488"/><g><path style="stroke:#ff0; stroke-width:8px; fill:none; " opacity="0" d="M 415,439 H 577 a 12,12 0 0,1 12,12 V 476 a 12,12 0 0,0 12,12L 656,488"/></g><path style="stroke:black; fill:none;" d="M 415,439 H 577 a 12,12 0 0,1 12,12 V 476 a 12,12 0 0,0 12,12L 656,488"/><g><g><path style="stroke:#0ff; stroke-width:8px; fill:none; " opacity="0" d="M 415,439 L 589,439" onmousedown='segmousedown("330","0",evt);' onmouseover='segmouseover("330","0",evt);' onmouseout='segmouseout("330","0",evt);' onclick='segclick("330","0",evt);'/><path style="stroke:#0ff; stroke-width:8px; fill:none; " opacity="0" d="M 589,439 L 589,488" onmousedown='segmousedown("330","1",evt);' onmouseover='segmouseover("330","1",evt);' onmouseout='segmouseout("330","1",evt);' onclick='segclick("330","1",evt);'/><path style="stroke:#0ff; stroke-width:8px; fill:none; " opacity="0" d="M 589,488 L 656,488" onmousedown='segmousedown("330","2",evt);' onmouseover='segmouseover("330","2",evt);' onmouseout='segmouseout("330","2",evt);' onclick='segclick("330","2",evt);'/></g></g></g><g id="331"><path style="stroke:#bdbddf; stroke-width:8px; fill:none;" opacity="0.7" d="M 731,223 H 412 a 12,12 0 0,0 -12,12L 400,439"/><g><path style="stroke:#ff0; stroke-width:8px; fill:none; " opacity="0" d="M 731,223 H 412 a 12,12 0 0,0 -12,12L 400,439"/></g><path style="stroke:black; fill:none;" d="M 731,223 H 412 a 12,12 0 0,0 -12,12L 400,439"/><g><g><path style="stroke:#0ff; stroke-width:8px; fill:none; " opacity="0" d="M 731,223 L 400,223" onmousedown='segmousedown("331","0",evt);' onmouseover='segmouseover("331","0",evt);' onmouseout='segmouseout("331","0",evt);' onclick='segclick("331","0",evt);'/><path style="stroke:#0ff; stroke-width:8px; fill:none; " opacity="0" d="M 400,223 L 400,439" onmousedown='segmousedown("331","1",evt);' onmouseover='segmouseover("331","1",evt);' onmouseout='segmouseout("331","1",evt);' onclick='segclick("331","1",evt);'/></g></g></g><g id="332"><path style="stroke:#bdbddf; stroke-width:8px; fill:none;" opacity="0.7" d="M 563,339 H 623 a 12,12 0 0,0 12,-12 V 250 a 12,12 0 0,1 12,-12L 716,238"/><g><path style="stroke:#ff0; stroke-width:8px; fill:none; " opacity="0" d="M 563,339 H 623 a 12,12 0 0,0 12,-12 V 250 a 12,12 0 0,1 12,-12L 716,238"/></g><path style="stroke:black; fill:none;" d="M 563,339 H 623 a 12,12 0 0,0 12,-12 V 250 a 12,12 0 0,1 12,-12L 716,238"/><g><g><path style="stroke:#0ff; stroke-width:8px; fill:none; " opacity="0" d="M 563,339 L 635,339" onmousedown='segmousedown("332","0",evt);' onmouseover='segmouseover("332","0",evt);' onmouseout='segmouseout("332","0",evt);' onclick='segclick("332","0",evt);'/><path style="stroke:#0ff; stroke-width:8px; fill:none; " opacity="0" d="M 635,339 L 635,238" onmousedown='segmousedown("332","1",evt);' onmouseover='segmouseover("332","1",evt);' onmouseout='segmouseout("332","1",evt);' onclick='segclick("332","1",evt);'/><path style="stroke:#0ff; stroke-width:8px; fill:none; " opacity="0" d="M 635,238 L 716,238" onmousedown='segmousedown("332","2",evt);' onmouseover='segmouseover("332","2",evt);' onmouseout='segmouseout("332","2",evt);' onclick='segclick("332","2",evt);'/></g></g></g><g id="333"><path style="stroke:#bdbddf; stroke-width:8px; fill:none;" opacity="0.7" d="M 548,324 V 215 a 12,12 0 0,0 -12,-12 H 464 a 12,12 0 0,1 -12,-12L 452,170"/><g><path style="stroke:#ff0; stroke-width:8px; fill:none; " opacity="0" d="M 548,324 V 215 a 12,12 0 0,0 -12,-12 H 464 a 12,12 0 0,1 -12,-12L 452,170"/></g><path style="stroke:black; fill:none;" d="M 548,324 V 215 a 12,12 0 0,0 -12,-12 H 464 a 12,12 0 0,1 -12,-12L 452,170"/><g><g><path style="stroke:#0ff; stroke-width:8px; fill:none; " opacity="0" d="M 548,324 L 548,203" onmousedown='segmousedown("333","0",evt);' onmouseover='segmouseover("333","0",evt);' onmouseout='segmouseout("333","0",evt);' onclick='segclick("333","0",evt);'/><path style="stroke:#0ff; stroke-width:8px; fill:none; " opacity="0" d="M 548,203 L 452,203" onmousedown='segmousedown("333","1",evt);' onmouseover='segmouseover("333","1",evt);' onmouseout='segmouseout("333","1",evt);' onclick='segclick("333","1",evt);'/><path style="stroke:#0ff; stroke-width:8px; fill:none; " opacity="0" d="M 452,203 L 452,170" onmousedown='segmousedown("333","2",evt);' onmouseover='segmouseover("333","2",evt);' onmouseout='segmouseout("333","2",evt);' onclick='segclick("333","2",evt);'/></g></g></g><g id="334"><path style="stroke:#bdbddf; stroke-width:8px; fill:none;" opacity="0.7" d="M 452,170L 560,170"/><g><path style="stroke:#ff0; stroke-width:8px; fill:none; " opacity="0" d="M 452,170L 560,170"/></g><path style="stroke:black; fill:none;" d="M 452,170L 560,170"/><g><g><path style="stroke:#0ff; stroke-width:8px; fill:none; " opacity="0" d="M 452,170 L 560,170" onmousedown='segmousedown("334","0",evt);' onmouseover='segmouseover("334","0",evt);' onmouseout='segmouseout("334","0",evt);' onclick='segclick("334","0",evt);'/></g></g></g><g id="335"><path style="stroke:#bdbddf; stroke-width:8px; fill:none;" opacity="0.7" d="M 452,155 V 130 a 12,12 0 0,0 -12,-12L 424,118"/><g><path style="stroke:#ff0; stroke-width:8px; fill:none; " opacity="0" d="M 452,155 V 130 a 12,12 0 0,0 -12,-12L 424,118"/></g><path style="stroke:black; fill:none;" d="M 452,155 V 130 a 12,12 0 0,0 -12,-12L 424,118"/><g><g><path style="stroke:#0ff; stroke-width:8px; fill:none; " opacity="0" d="M 452,155 L 452,118" onmousedown='segmousedown("335","0",evt);' onmouseover='segmouseover("335","0",evt);' onmouseout='segmouseout("335","0",evt);' onclick='segclick("335","0",evt);'/><path style="stroke:#0ff; stroke-width:8px; fill:none; " opacity="0" d="M 452,118 L 424,118" onmousedown='segmousedown("335","1",evt);' onmouseover='segmouseover("335","1",evt);' onmouseout='segmouseout("335","1",evt);' onclick='segclick("335","1",evt);'/></g></g></g><g id="336"><path style="stroke:#bdbddf; stroke-width:8px; fill:none;" opacity="0.7" d="M 533,339 H 464 a 9,9 0 0,1 -9,-9L 455,321"/><g><path style="stroke:#ff0; stroke-width:8px; fill:none; " opacity="0" d="M 533,339 H 464 a 9,9 0 0,1 -9,-9L 455,321"/></g><path style="stroke:black; fill:none;" d="M 533,339 H 464 a 9,9 0 0,1 -9,-9L 455,321"/><g><g><path style="stroke:#0ff; stroke-width:8px; fill:none; " opacity="0" d="M 533,339 L 455,339" onmousedown='segmousedown("336","0",evt);' onmouseover='segmouseover("336","0",evt);' onmouseout='segmouseout("336","0",evt);' onclick='segclick("336","0",evt);'/><path style="stroke:#0ff; stroke-width:8px; fill:none; " opacity="0" d="M 455,339 L 455,321" onmousedown='segmousedown("336","1",evt);' onmouseover='segmouseover("336","1",evt);' onmouseout='segmouseout("336","1",evt);' onclick='segclick("336","1",evt);'/></g></g></g><g id="337"><path style="stroke:#bdbddf; stroke-width:8px; fill:none;" opacity="0.7" d="M 548,354 V 399 a 12,12 0 0,1 -12,12L 472,411"/><g><path style="stroke:#ff0; stroke-width:8px; fill:none; " opacity="0" d="M 548,354 V 399 a 12,12 0 0,1 -12,12L 472,411"/></g><path style="stroke:black; fill:none;" d="M 548,354 V 399 a 12,12 0 0,1 -12,12L 472,411"/><g><g><path style="stroke:#0ff; stroke-width:8px; fill:none; " opacity="0" d="M 548,354 L 548,411" onmousedown='segmousedown("337","0",evt);' onmouseover='segmouseover("337","0",evt);' onmouseout='segmouseout("337","0",evt);' onclick='segclick("337","0",evt);'/><path style="stroke:#0ff; stroke-width:8px; fill:none; " opacity="0" d="M 548,411 L 472,411" onmousedown='segmousedown("337","1",evt);' onmouseover='segmouseover("337","1",evt);' onmouseout='segmouseout("337","1",evt);' onclick='segclick("337","1",evt);'/></g></g></g></g>
  <g id="nodes"><g id="321" onmousedown="nodemousedown(321,evt);" onmouseover="nodemouseover(321,evt);" onmouseout="nodemouseout(321,evt);" transform="translate(731,231)"><rect x="-21" y="-21" width="42" height="42" fill="#0ff" style="stroke:none; opacity:0.75;" display="none"/><rect x="-15" y="-15" width="30" height="30" fill="#f0f0d2" style="stroke:black; opacity:1;"/></g><g id="323" onmousedown="nodemousedown(323,evt);" onmouseover="nodemouseover(323,evt);" onmouseout="nodemouseout(323,evt);" transform="translate(452,170)"><rect x="-21" y="-21" width="42" height="42" fill="#0ff" style="stroke:none; opacity:0.75;" display="none"/><rect x="-15" y="-15" width="30" height="30" fill="#f0f0d2" style="stroke:black; opacity:1;"/></g><g id="325" onmousedown="nodemousedown(325,evt);" onmouseover="nodemouseover(325,evt);" onmouseout="nodemouseout(325,evt);" transform="translate(560,167)"><rect x="-21" y="-21" width="42" height="42" fill="#0ff" style="stroke:none; opacity:0.75;" display="none"/><rect x="-15" y="-15" width="30" height="30" fill="#f0f0d2" style="stroke:black; opacity:1;"/></g><g id="326" onmousedown="nodemousedown(326,evt);" onmouseover="nodemouseover(326,evt);" onmouseout="nodemouseout(326,evt);" transform="translate(409,118)"><rect x="-21" y="-21" width="42" height="42" fill="#0ff" style="stroke:none; opacity:0.75;" display="none"/><rect x="-15" y="-15" width="30" height="30" fill="#f0f0d2" style="stroke:black; opacity:1;"/></g><g id="318" onmousedown="nodemousedown(318,evt);" onmouseover="nodemouseover(318,evt);" onmouseout="nodemouseout(318,evt);" transform="translate(400,439)"><rect x="-21" y="-21" width="42" height="42" fill="#0ff" style="stroke:none; opacity:0.75;" display="none"/><rect x="-15" y="-15" width="30" height="30" fill="#f0f0d2" style="stroke:black; opacity:1;"/></g><g id="319" onmousedown="nodemousedown(319,evt);" onmouseover="nodemouseover(319,evt);" onmouseout="nodemouseout(319,evt);" transform="translate(671,488)"><rect x="-21" y="-21" width="42" height="42" fill="#0ff" style="stroke:none; opacity:0.75;" display="none"/><rect x="-15" y="-15" width="30" height="30" fill="#f0f0d2" style="stroke:black; opacity:1;"/></g><g id="320" onmousedown="nodemousedown(320,evt);" onmouseover="nodemouseover(320,evt);" onmouseout="nodemouseout(320,evt);" transform="translate(732,295)"><rect x="-21" y="-21" width="42" height="42" fill="#0ff" style="stroke:none; opacity:0.75;" display="none"/><rect x="-15" y="-15" width="30" height="30" fill="#f0f0d2" style="stroke:black; opacity:1;"/></g><g id="327" onmousedown="nodemousedown(327,evt);" onmouseover="nodemouseover(327,evt);" onmouseout="nodemouseout(327,evt);" transform="translate(472,404)"><rect x="-21" y="-21" width="42" height="42" fill="#0ff" style="stroke:none; opacity:0.75;" display="none"/><rect x="-15" y="-15" width="30" height="30" fill="#f0f0d2" style="stroke:black; opacity:1;"/></g><g id="322" onmousedown="nodemousedown(322,evt);" onmouseover="nodemouseover(322,evt);" onmouseout="nodemouseout(322,evt);" transform="translate(548,339)"><rect x="-21" y="-21" width="42" height="42" fill="#0ff" style="stroke:none; opacity:0.75;" display="none"/><rect x="-15" y="-15" width="30" height="30" fill="#f0f0d2" style="stroke:black; opacity:1;"/></g><g id="324" onmousedown="nodemousedown(324,evt);" onmouseover="nodemouseover(324,evt);" onmouseout="nodemouseout(324,evt);" transform="translate(455,306)"><rect x="-21" y="-21" width="42" height="42" fill="#0ff" style="stroke:none; opacity:0.75;" display="none"/><rect x="-15" y="-15" width="30" height="30" fill="#f0f0d2" style="stroke:black; opacity:1;"/></g></g>
  <g id="BPs"><g onmousedown="bpmousedown(340,evt);" onmouseover="bpmouseover(340,evt);" onmouseout="bpmouseout(340,evt);" transform="translate(732,488)" opacity="0"><ellipse cx="0" cy="0" rx="16" ry="16" fill="#0ff" style="stroke:none; opacity:0.75;" display="none"/><ellipse cx="0" cy="0" rx="12.842113914687268" ry="12.842113914687268" fill="#777" style="stroke:black;"/></g><g onmousedown="bpmousedown(347,evt);" onmouseover="bpmouseover(347,evt);" onmouseout="bpmouseout(347,evt);" transform="translate(589,439)" opacity="0"><ellipse cx="0" cy="0" rx="16" ry="16" fill="#0ff" style="stroke:none; opacity:0.75;" display="none"/><ellipse cx="0" cy="0" rx="12.842113914687268" ry="12.842113914687268" fill="#777" style="stroke:black;"/></g><g onmousedown="bpmousedown(348,evt);" onmouseover="bpmouseover(348,evt);" onmouseout="bpmouseout(348,evt);" transform="translate(589,488)" opacity="0"><ellipse cx="0" cy="0" rx="16" ry="16" fill="#0ff" style="stroke:none; opacity:0.75;" display="none"/><ellipse cx="0" cy="0" rx="12.842113914687268" ry="12.842113914687268" fill="#777" style="stroke:black;"/></g><g onmousedown="bpmousedown(351,evt);" onmouseover="bpmouseover(351,evt);" onmouseout="bpmouseout(351,evt);" transform="translate(400,223)" opacity="0"><ellipse cx="0" cy="0" rx="16" ry="16" fill="#0ff" style="stroke:none; opacity:0.75;" display="none"/><ellipse cx="0" cy="0" rx="12.842113914687268" ry="12.842113914687268" fill="#777" style="stroke:black;"/></g><g onmousedown="bpmousedown(354,evt);" onmouseover="bpmouseover(354,evt);" onmouseout="bpmouseout(354,evt);" transform="translate(635,339)" opacity="0"><ellipse cx="0" cy="0" rx="16" ry="16" fill="#0ff" style="stroke:none; opacity:0.75;" display="none"/><ellipse cx="0" cy="0" rx="12.842113914687268" ry="12.842113914687268" fill="#777" style="stroke:black;"/></g><g onmousedown="bpmousedown(355,evt);" onmouseover="bpmouseover(355,evt);" onmouseout="bpmouseout(355,evt);" transform="translate(635,238)" opacity="0"><ellipse cx="0" cy="0" rx="16" ry="16" fill="#0ff" style="stroke:none; opacity:0.75;" display="none"/><ellipse cx="0" cy="0" rx="12.842113914687268" ry="12.842113914687268" fill="#777" style="stroke:black;"/></g><g onmousedown="bpmousedown(358,evt);" onmouseover="bpmouseover(358,evt);" onmouseout="bpmouseout(358,evt);" transform="translate(548,203)" opacity="0"><ellipse cx="0" cy="0" rx="16" ry="16" fill="#0ff" style="stroke:none; opacity:0.75;" display="none"/><ellipse cx="0" cy="0" rx="12.842113914687268" ry="12.842113914687268" fill="#777" style="stroke:black;"/></g><g onmousedown="bpmousedown(359,evt);" onmouseover="bpmouseover(359,evt);" onmouseout="bpmouseout(359,evt);" transform="translate(452,203)" opacity="0"><ellipse cx="0" cy="0" rx="16" ry="16" fill="#0ff" style="stroke:none; opacity:0.75;" display="none"/><ellipse cx="0" cy="0" rx="12.842113914687268" ry="12.842113914687268" fill="#777" style="stroke:black;"/></g><g onmousedown="bpmousedown(364,evt);" onmouseover="bpmouseover(364,evt);" onmouseout="bpmouseout(364,evt);" transform="translate(452,118)" opacity="0"><ellipse cx="0" cy="0" rx="16" ry="16" fill="#0ff" style="stroke:none; opacity:0.75;" display="none"/><ellipse cx="0" cy="0" rx="12.842113914687268" ry="12.842113914687268" fill="#777" style="stroke:black;"/></g><g onmousedown="bpmousedown(370,evt);" onmouseover="bpmouseover(370,evt);" onmouseout="bpmouseout(370,evt);" transform="translate(548,411)" opacity="0"><ellipse cx="0" cy="0" rx="16" ry="16" fill="#0ff" style="stroke:none; opacity:0.75;" display="none"/><ellipse cx="0" cy="0" rx="12.842113914687268" ry="12.842113914687268" fill="#777" style="stroke:black;"/></g><g onmousedown="bpmousedown(394,evt);" onmouseover="bpmouseover(394,evt);" onmouseout="bpmouseout(394,evt);" transform="translate(455,339)" opacity="0"><ellipse cx="0" cy="0" rx="16" ry="16" fill="#0ff" style="stroke:none; opacity:0.75;" display="none"/><ellipse cx="0" cy="0" rx="12.842113914687268" ry="12.842113914687268" fill="#777" style="stroke:black;"/></g></g>
  <g id="ports"/>
</g>
</svg>