<svg xmlns:xlink="http://www.w3.org/1999/xlink" xmlns="http://www.w3.org/2000/svg" height="270px" width="480px" id="SVGCanvas" onmouseup="" onmousemove="">
<rect fill="#bdbddf" width="100%" height="100%" y="0" x="0" id="background" onmousedown="bgmousedown(evt)"/>
<g id="foreground" transform="translate(62.8125,0),scale(0.9375),translate(-291,-73)">
  <g id="edges"><g id="201"><path style="stroke:#bdbddf; stroke-width:8px; fill:none;" opacity="0.7" d="M 484,177L 412,177"/><g><path style="stroke:#ff0; stroke-width:8px; fill:none; " opacity="0" d="M 484,177L 412,177"/></g><path style="stroke:black; fill:none;" d="M 484,177L 412,177"/><g><g><path style="stroke:#0ff; stroke-width:8px; fill:none; " opacity="0" d="M 484,177 L 412,177" onmousedown='segmousedown("201","0",evt);' onmouseover='segmouseover("201","0",evt);' onmouseout='segmouseout("201","0",evt);' onclick='segclick("201","0",evt);'/></g></g></g><g id="202"><path style="stroke:#bdbddf; stroke-width:8px; fill:none;" opacity="0.7" d="M 499,192 V 220 a 12,12 0 0,0 12,12 H 573 a 12,12 0 0,1 12,12L 585,258"/><g><path style="stroke:#ff0; stroke-width:8px; fill:none; " opacity="0" d="M 499,192 V 220 a 12,12 0 0,0 12,12 H 573 a 12,12 0 0,1 12,12L 585,258"/></g><path style="stroke:black; fill:none;" d="M 499,192 V 220 a 12,12 0 0,0 12,12 H 573 a 12,12 0 0,1 12,12L 585,258"/><g><g><path style="stroke:#0ff; stroke-width:8px; fill:none; " opacity="0" d="M 499,192 L 499,232" onmousedown='segmousedown("202","0",evt);' onmouseover='segmouseover("202","0",evt);' onmouseout='segmouseout("202","0",evt);' onclick='segclick("202","0",evt);'/><path style="stroke:#0ff; stroke-width:8px; fill:none; " opacity="0" d="M 499,232 L 585,232" onmousedown='segmousedown("202","1",evt);' onmouseover='segmouseover("202","1",evt);' onmouseout='segmouseout("202","1",evt);' onclick='segclick("202","1",evt);'/><path style="stroke:#0ff; stroke-width:8px; fill:none; " opacity="0" d="M 585,232 L 585,258" onmousedown='segmousedown("202","2",evt);' onmouseover='segmouseover("202","2",evt);' onmouseout='segmouseout("202","2",evt);' onclick='segclick("202","2",evt);'/></g></g></g><g id="203"><path style="stroke:#bdbddf; stroke-width:8px; fill:none;" opacity="0.7" d="M 382,177 H 333 a 12,12 0 0,1 -12,-12L 321,118"/><g><path style="stroke:#ff0; stroke-width:8px; fill:none; " opacity="0" d="M 382,177 H 333 a 12,12 0 0,1 -12,-12L 321,118"/></g><path style="stroke:black; fill:none;" d="M 382,177 H 333 a 12,12 0 0,1 -12,-12L 321,118"/><g><g><path style="stroke:#0ff; stroke-width:8px; fill:none; " opacity="0" d="M 382,177 L 321,177" onmousedown='segmousedown("203","0",evt);' onmouseover='segmouseover("203","0",evt);' onmouseout='segmouseout("203","0",evt);' onclick='segclick("203","0",evt);'/><path style="stroke:#0ff; stroke-width:8px; fill:none; " opacity="0" d="M 321,177 L 321,118" onmousedown='segmousedown("203","1",evt);' onmouseover='segmouseover("203","1",evt);' onmouseout='segmouseout("203","1",evt);' onclick='segclick("203","1",evt);'/></g></g></g><g id="204"><path style="stroke:#bdbddf; stroke-width:8px; fill:none;" opacity="0.7" d="M 397,192L 397,250"/><g><path style="stroke:#ff0; stroke-width:8px; fill:none; " opacity="0" d="M 397,192L 397,250"/></g><path style="stroke:black; fill:none;" d="M 397,192L 397,250"/><g><g><path style="stroke:#0ff; stroke-width:8px; fill:none; " opacity="0" d="M 397,192 L 397,250" onmousedown='segmousedown("204","0",evt);' onmouseover='segmouseover("204","0",evt);' onmouseout='segmouseout("204","0",evt);' onclick='segclick("204","0",evt);'/></g></g></g><g id="205"><path style="stroke:#bdbddf; stroke-width:8px; fill:none;" opacity="0.7" d="M 600,273 H 627 a 12,12 0 0,1 12,12L 639,316"/><g><path style="stroke:#ff0; stroke-width:8px; fill:none; " opacity="0" d="M 600,273 H 627 a 12,12 0 0,1 12,12L 639,316"/></g><path style="stroke:black; fill:none;" d="M 600,273 H 627 a 12,12 0 0,1 12,12L 639,316"/><g><g><path style="stroke:#0ff; stroke-width:8px; fill:none; " opacity="0" d="M 600,273 L 639,273" onmousedown='segmousedown("205","0",evt);' onmouseover='segmouseover("205","0",evt);' onmouseout='segmouseout("205","0",evt);' onclick='segclick("205","0",evt);'/><path style="stroke:#0ff; stroke-width:8px; fill:none; " opacity="0" d="M 639,273 L 639,316" onmousedown='segmousedown("205","1",evt);' onmouseover='segmouseover("205","1",evt);' onmouseout='segmouseout("205","1",evt);' onclick='segclick("205","1",evt);'/></g></g></g><g id="206"><path style="stroke:#bdbddf; stroke-width:8px; fill:none;" opacity="0.7" d="M 570,273 H 539 a 12,12 0 0,0 -12,12L 527,312"/><g><path style="stroke:#ff0; stroke-width:8px; fill:none; " opacity="0" d="M 570,273 H 539 a 12,12 0 0,0 -12,12L 527,312"/></g><path style="stroke:black; fill:none;" d="M 570,273 H 539 a 12,12 0 0,0 -12,12L 527,312"/><g><g><path style="stroke:#0ff; stroke-width:8px; fill:none; " opacity="0" d="M 570,273 L 527,273" onmousedown='segmousedown("206","0",evt);' onmouseover='segmouseover("206","0",evt);' onmouseout='segmouseout("206","0",evt);' onclick='segclick("206","0",evt);'/><path style="stroke:#0ff; stroke-width:8px; fill:none; " opacity="0" d="M 527,273 L 527,312" onmousedown='segmousedown("206","1",evt);' onmouseover='segmouseover("206","1",evt);' onmouseout='segmouseout("206","1",evt);' onclick='segclick("206","1",evt);'/></g></g></g></g>
  <g id="nodes"><g id="194" onmousedown="nodemousedown(194,evt);" onmouseover="nodemouseover(194,evt);" onmouseout="nodemouseout(194,evt);" transform="translate(499,177)"><rect x="-21" y="-21" width="42" height="42" fill="#0ff" style="stroke:none; opacity:0.75;" display="none"/><rect x="-15" y="-15" width="30" height="30" fill="#f0f0d2" style="stroke:black; opacity:1;"/></g><g id="196" onmousedown="nodemousedown(196,evt);" onmouseover="nodemouseover(196,evt);" onmouseout="nodemouseout(196,evt);" transform="translate(585,273)"><rect x="-21" y="-21" width="42" height="42" fill="#0ff" style="stroke:none; opacity:0.75;" display="none"/><rect x="-15" y="-15" width="30" height="30" fill="#f0f0d2" style="stroke:black; opacity:1;"/></g><g id="200" onmousedown="nodemousedown(200,evt);" onmouseover="nodemouseover(200,evt);" onmouseout="nodemouseout(200,evt);" transform="translate(527,327)"><rect x="-21" y="-21" width="42" height="42" fill="#0ff" style="stroke:none; opacity:0.75;" display="none"/><rect x="-15" y="-15" width="30" height="30" fill="#f0f0d2" style="stroke:black; opacity:1;"/></g><g id="199" onmousedown="nodemousedown(199,evt);" onmouseover="nodemouseover(199,evt);" onmouseout="nodemouseout(199,evt);" transform="translate(639,331)"><rect x="-21" y="-21" width="42" height="42" fill="#0ff" style="stroke:none; opacity:0.75;" display="none"/><rect x="-15" y="-15" width="30" height="30" fill="#f0f0d2" style="stroke:black; opacity:1;"/></g><g id="195" onmousedown="nodemousedown(195,evt);" onmouseover="nodemouseover(195,evt);" onmouseout="nodemouseout(195,evt);" transform="translate(397,177)"><rect x="-21" y="-21" width="42" height="42" fill="#0ff" style="stroke:none; opacity:0.75;" display="none"/><rect x="-15" y="-15" width="30" height="30" fill="#f0f0d2" style="stroke:black; opacity:1;"/></g><g id="198" onmousedown="nodemousedown(198,evt);" onmouseover="nodemouseover(198,evt);" onmouseout="nodemouseout(198,evt);" transform="translate(397,265)"><rect x="-21" y="-21" width="42" height="42" fill="#0ff" style="stroke:none; opacity:0.75;" display="none"/><rect x="-15" y="-15" width="30" height="30" fill="#f0f0d2" style="stroke:black; opacity:1;"/></g><g id="197" onmousedown="nodemousedown(197,evt);" onmouseover="nodemouseover(197,evt);" onmouseout="nodemouseout(197,evt);" transform="translate(321,103)"><rect x="-21" y="-21" width="42" height="42" fill="#0ff" style="stroke:none; opacity:0.75;" display="none"/><rect x="-15" y="-15" width="30" height="30" fill="#f0f0d2" style="stroke:black; opacity:1;"/></g></g>
  <g id="BPs"><g onmousedown="bpmousedown(213,evt);" onmouseover="bpmouseover(213,evt);" onmouseout="bpmouseout(213,evt);" transform="translate(499,232)" opacity="0"><ellipse cx="0" cy="0" rx="16" ry="16" fill="#0ff" style="stroke:none; opacity:0.75;" display="none"/><ellipse cx="0" cy="0" rx="10.869565217391306" ry="10.869565217391306" fill="#777" style="stroke:black;"/></g><g onmousedown="bpmousedown(214,evt);" onmouseover="bpmouseover(214,evt);" onmouseout="bpmouseout(214,evt);" transform="translate(585,232)" opacity="0"><ellipse cx="0" cy="0" rx="16" ry="16" fill="#0ff" style="stroke:none; opacity:0.75;" display="none"/><ellipse cx="0" cy="0" rx="10.869565217391306" ry="10.869565217391306" fill="#777" style="stroke:black;"/></g><g onmousedown="bpmousedown(217,evt);" onmouseover="bpmouseover(217,evt);" onmouseout="bpmouseout(217,evt);" transform="translate(321,177)" opacity="0"><ellipse cx="0" cy="0" rx="16" ry="16" fill="#0ff" style="stroke:none; opacity:0.75;" display="none"/><ellipse cx="0" cy="0" rx="13.958819472486168" ry="13.958819472486168" fill="#777" style="stroke:black;"/></g><g onmousedown="bpmousedown(224,evt);" onmouseover="bpmouseover(224,evt);" onmouseout="bpmouseout(224,evt);" transform="translate(639,273)" opacity="0"><ellipse cx="0" cy="0" rx="16" ry="16" fill="#0ff" style="stroke:none; opacity:0.75;" display="none"/><ellipse cx="0" cy="0" rx="10.869565217391306" ry="10.869565217391306" fill="#777" style="stroke:black;"/></g><g onmousedown="bpmousedown(227,evt);" onmouseover="bpmouseover(227,evt);" onmouseout="bpmouseout(227,evt);" transform="translate(527,273)" opacity="0"><ellipse cx="0" cy="0" rx="16" ry="16" fill="#0ff" style="stroke:none; opacity:0.75;" display="none"/><ellipse cx="0" cy="0" rx="10.869565217391306" ry="10.869565217391306" fill="#777" style="stroke:black;"/></g></g>
  <g id="ports"/>
</g>
</svg>