<svg xmlns:xlink="http://www.w3.org/1999/xlink" xmlns="http://www.w3.org/2000/svg" height="270px" width="480px" id="SVGCanvas" onmouseup="" onmousemove="">
<rect fill="#bdbddf" width="100%" height="100%" y="0" x="0" id="background" onmousedown="bgmousedown(evt)"/>
<g id="foreground" transform="translate(136.90012180267965,0),scale(0.6577344701583435),translate(-164,-84.5)">
  <g id="edges"><g id="288"><path style="stroke:#bdbddf; stroke-width:8px; fill:none;" opacity="0.7" d="M 368.5,252 H 413 a 12,12 0 0,1 12,12L 425,289"/><g><path style="stroke:#ff0; stroke-width:8px; fill:none; " opacity="0" d="M 368.5,252 H 413 a 12,12 0 0,1 12,12L 425,289"/></g><path style="stroke:black; fill:none;" d="M 368.5,252 H 413 a 12,12 0 0,1 12,12L 425,289"/><g><g><path style="stroke:#0ff; stroke-width:8px; fill:none; " opacity="0" d="M 368.5,252 L 425,252" onmousedown='segmousedown("288","0",evt);' onmouseover='segmouseover("288","0",evt);' onmouseout='segmouseout("288","0",evt);' onclick='segclick("288","0",evt);'/><path style="stroke:#0ff; stroke-width:8px; fill:none; " opacity="0" d="M 425,252 L 425,289" onmousedown='segmousedown("288","1",evt);' onmouseover='segmouseover("288","1",evt);' onmouseout='segmouseout("288","1",evt);' onclick='segclick("288","1",evt);'/></g></g></g><g id="289"><path style="stroke:#bdbddf; stroke-width:8px; fill:none;" opacity="0.7" d="M 340,268 V 318 a 12,12 0 0,0 12,12 H 367 a 12,12 0 0,1 12,12L 379,388"/><g><path style="stroke:#ff0; stroke-width:8px; fill:none; " opacity="0" d="M 340,268 V 318 a 12,12 0 0,0 12,12 H 367 a 12,12 0 0,1 12,12L 379,388"/></g><path style="stroke:black; fill:none;" d="M 340,268 V 318 a 12,12 0 0,0 12,12 H 367 a 12,12 0 0,1 12,12L 379,388"/><g><g><path style="stroke:#0ff; stroke-width:8px; fill:none; " opacity="0" d="M 340,268 L 340,330" onmousedown='segmousedown("289","0",evt);' onmouseover='segmouseover("289","0",evt);' onmouseout='segmouseout("289","0",evt);' onclick='segclick("289","0",evt);'/><path style="stroke:#0ff; stroke-width:8px; fill:none; " opacity="0" d="M 340,330 L 379,330" onmousedown='segmousedown("289","1",evt);' onmouseover='segmouseover("289","1",evt);' onmouseout='segmouseout("289","1",evt);' onclick='segclick("289","1",evt);'/><path style="stroke:#0ff; stroke-width:8px; fill:none; " opacity="0" d="M 379,330 L 379,388" onmousedown='segmousedown("289","2",evt);' onmouseover='segmouseover("289","2",evt);' onmouseout='segmouseout("289","2",evt);' onclick='segclick("289","2",evt);'/></g></g></g><g id="290"><path style="stroke:#bdbddf; stroke-width:8px; fill:none;" opacity="0.7" d="M 327,152.5L 327,236"/><g><path style="stroke:#ff0; stroke-width:8px; fill:none; " opacity="0" d="M 327,152.5L 327,236"/></g><path style="stroke:black; fill:none;" d="M 327,152.5L 327,236"/><g><g><path style="stroke:#0ff; stroke-width:8px; fill:none; " opacity="0" d="M 327,152.5 L 327,236" onmousedown='segmousedown("290","0",evt);' onmouseover='segmouseover("290","0",evt);' onmouseout='segmouseout("290","0",evt);' onclick='segclick("290","0",evt);'/></g></g></g><g id="291"><path style="stroke:#bdbddf; stroke-width:8px; fill:none;" opacity="0.7" d="M 194,225 V 240 a 12,12 0 0,0 12,12L 327,252"/><g><path style="stroke:#ff0; stroke-width:8px; fill:none; " opacity="0" d="M 194,225 V 240 a 12,12 0 0,0 12,12L 327,252"/></g><path style="stroke:black; fill:none;" d="M 194,225 V 240 a 12,12 0 0,0 12,12L 327,252"/><g><g><path style="stroke:#0ff; stroke-width:8px; fill:none; " opacity="0" d="M 194,225 L 194,252" onmousedown='segmousedown("291","0",evt);' onmouseover='segmouseover("291","0",evt);' onmouseout='segmouseout("291","0",evt);' onclick='segclick("291","0",evt);'/><path style="stroke:#0ff; stroke-width:8px; fill:none; " opacity="0" d="M 194,252 L 327,252" onmousedown='segmousedown("291","1",evt);' onmouseover='segmouseover("291","1",evt);' onmouseout='segmouseout("291","1",evt);' onclick='segclick("291","1",evt);'/></g></g></g><g id="292"><path style="stroke:#bdbddf; stroke-width:8px; fill:none;" opacity="0.7" d="M 338,152.5 V 179 a 12,12 0 0,0 12,12L 373.5,191"/><g><path style="stroke:#ff0; stroke-width:8px; fill:none; " opacity="0" d="M 338,152.5 V 179 a 12,12 0 0,0 12,12L 373.5,191"/></g><path style="stroke:black; fill:none;" d="M 338,152.5 V 179 a 12,12 0 0,0 12,12L 373.5,191"/><g><g><path style="stroke:#0ff; stroke-width:8px; fill:none; " opacity="0" d="M 338,152.5 L 338,191" onmousedown='segmousedown("292","0",evt);' onmouseover='segmouseover("292","0",evt);' onmouseout='segmouseout("292","0",evt);' onclick='segclick("292","0",evt);'/><path style="stroke:#0ff; stroke-width:8px; fill:none; " opacity="0" d="M 338,191 L 373.5,191" onmousedown='segmousedown("292","1",evt);' onmouseover='segmouseover("292","1",evt);' onmouseout='segmouseout("292","1",evt);' onclick='segclick("292","1",evt);'/></g></g></g><g id="287"><path style="stroke:#bdbddf; stroke-width:8px; fill:none;" opacity="0.7" d="M 314,268 V 290 a 12,12 0 0,1 -12,12 H 246.5 a 7.5,7.5 0 0,0 -7.5,7.5L 239,317"/><g><path style="stroke:#ff0; stroke-width:8px; fill:none; " opacity="0" d="M 314,268 V 290 a 12,12 0 0,1 -12,12 H 246.5 a 7.5,7.5 0 0,0 -7.5,7.5L 239,317"/></g><path style="stroke:black; fill:none;" d="M 314,268 V 290 a 12,12 0 0,1 -12,12 H 246.5 a 7.5,7.5 0 0,0 -7.5,7.5L 239,317"/><g><g><path style="stroke:#0ff; stroke-width:8px; fill:none; " opacity="0" d="M 314,268 L 314,302" onmousedown='segmousedown("287","0",evt);' onmouseover='segmouseover("287","0",evt);' onmouseout='segmouseout("287","0",evt);' onclick='segclick("287","0",evt);'/><path style="stroke:#0ff; stroke-width:8px; fill:none; " opacity="0" d="M 314,302 L 239,302" onmousedown='segmousedown("287","1",evt);' onmouseover='segmouseover("287","1",evt);' onmouseout='segmouseout("287","1",evt);' onclick='segclick("287","1",evt);'/><path style="stroke:#0ff; stroke-width:8px; fill:none; " opacity="0" d="M 239,302 L 239,317" onmousedown='segmousedown("287","2",evt);' onmouseover='segmouseover("287","2",evt);' onmouseout='segmouseout("287","2",evt);' onclick='segclick("287","2",evt);'/></g></g></g></g>
  <g id="nodes"><g id="280" onmousedown="nodemousedown(280,evt);" onmouseover="nodemouseover(280,evt);" onmouseout="nodemouseout(280,evt);" transform="translate(327,252)"><rect x="-47.5" y="-22" width="95" height="44" fill="#0ff" style="stroke:none; opacity:0.75;" display="none"/><rect x="-41.5" y="-16" width="83" height="32" fill="#f0f0d2" style="stroke:black; opacity:1;"/></g><g id="285" onmousedown="nodemousedown(285,evt);" onmouseover="nodemouseover(285,evt);" onmouseout="nodemouseout(285,evt);" transform="translate(194,225)"><rect x="-21" y="-21" width="42" height="42" fill="#0ff" style="stroke:none; opacity:0.75;" display="none"/><rect x="-15" y="-15" width="30" height="30" fill="#f0f0d2" style="stroke:black; opacity:1;"/></g><g id="286" onmousedown="nodemousedown(286,evt);" onmouseover="nodemouseover(286,evt);" onmouseout="nodemouseout(286,evt);" transform="translate(418,191)"><rect x="-50.5" y="-21" width="101" height="42" fill="#0ff" style="stroke:none; opacity:0.75;" display="none"/><rect x="-44.5" y="-15" width="89" height="30" fill="#f0f0d2" style="stroke:black; opacity:1;"/></g><g id="281" onmousedown="nodemousedown(281,evt);" onmouseover="nodemouseover(281,evt);" onmouseout="nodemouseout(281,evt);" transform="translate(239,332)"><rect x="-21" y="-21" width="42" height="42" fill="#0ff" style="stroke:none; opacity:0.75;" display="none"/><rect x="-15" y="-15" width="30" height="30" fill="#f0f0d2" style="stroke:black; opacity:1;"/></g><g id="284" onmousedown="nodemousedown(284,evt);" onmouseover="nodemouseover(284,evt);" onmouseout="nodemouseout(284,evt);" transform="translate(331,126)"><rect x="-29.5" y="-32.5" width="59" height="65" fill="#0ff" style="stroke:none; opacity:0.75;" display="none"/><rect x="-23.5" y="-26.5" width="47" height="53" fill="#f0f0d2" style="stroke:black; opacity:1;"/></g><g id="283" onmousedown="nodemousedown(283,evt);" onmouseover="nodemouseover(283,evt);" onmouseout="nodemouseout(283,evt);" transform="translate(379,434)"><rect x="-17.5" y="-52" width="35" height="104" fill="#0ff" style="stroke:none; opacity:0.75;" display="none"/><rect x="-11.5" y="-46" width="23" height="92" fill="#f0f0d2" style="stroke:black; opacity:1;"/></g><g id="282" onmousedown="nodemousedown(282,evt);" onmouseover="nodemouseover(282,evt);" onmouseout="nodemouseout(282,evt);" transform="translate(425,304)"><rect x="-21" y="-21" width="42" height="42" fill="#0ff" style="stroke:none; opacity:0.75;" display="none"/><rect x="-15" y="-15" width="30" height="30" fill="#f0f0d2" style="stroke:black; opacity:1;"/></g></g>
  <g id="BPs"><g onmousedown="bpmousedown(295,evt);" onmouseover="bpmouseover(295,evt);" onmouseout="bpmouseout(295,evt);" transform="translate(425,252)" opacity="0"><ellipse cx="0" cy="0" rx="16" ry="16" fill="#0ff" style="stroke:none; opacity:0.75;" display="none"/><ellipse cx="0" cy="0" rx="9.200000000000001" ry="9.200000000000001" fill="#777" style="stroke:black;"/></g><g onmousedown="bpmousedown(304,evt);" onmouseover="bpmouseover(304,evt);" onmouseout="bpmouseout(304,evt);" transform="translate(194,252)" opacity="0"><ellipse cx="0" cy="0" rx="16" ry="16" fill="#0ff" style="stroke:none; opacity:0.75;" display="none"/><ellipse cx="0" cy="0" rx="9.200000000000001" ry="9.200000000000001" fill="#777" style="stroke:black;"/></g><g onmousedown="bpmousedown(307,evt);" onmouseover="bpmouseover(307,evt);" onmouseout="bpmouseout(307,evt);" transform="translate(338,191)" opacity="0"><ellipse cx="0" cy="0" rx="16" ry="16" fill="#0ff" style="stroke:none; opacity:0.75;" display="none"/><ellipse cx="0" cy="0" rx="9.200000000000001" ry="9.200000000000001" fill="#777" style="stroke:black;"/></g><g onmousedown="bpmousedown(310,evt);" onmouseover="bpmouseover(310,evt);" onmouseout="bpmouseout(310,evt);" transform="translate(314,302)" opacity="0"><ellipse cx="0" cy="0" rx="16" ry="16" fill="#0ff" style="stroke:none; opacity:0.75;" display="none"/><ellipse cx="0" cy="0" rx="9.200000000000001" ry="9.200000000000001" fill="#777" style="stroke:black;"/></g><g onmousedown="bpmousedown(311,evt);" onmouseover="bpmouseover(311,evt);" onmouseout="bpmouseout(311,evt);" transform="translate(239,302)" opacity="0"><ellipse cx="0" cy="0" rx="16" ry="16" fill="#0ff" style="stroke:none; opacity:0.75;" display="none"/><ellipse cx="0" cy="0" rx="9.200000000000001" ry="9.200000000000001" fill="#777" style="stroke:black;"/></g><g onmousedown="bpmousedown(323,evt);" onmouseover="bpmouseover(323,evt);" onmouseout="bpmouseout(323,evt);" transform="translate(340,330)" opacity="0"><ellipse cx="0" cy="0" rx="16" ry="16" fill="#0ff" style="stroke:none; opacity:0.75;" display="none"/><ellipse cx="0" cy="0" rx="9.200000000000001" ry="9.200000000000001" fill="#777" style="stroke:black;"/></g><g onmousedown="bpmousedown(324,evt);" onmouseover="bpmouseover(324,evt);" onmouseout="bpmouseout(324,evt);" transform="translate(379,330)" opacity="0"><ellipse cx="0" cy="0" rx="16" ry="16" fill="#0ff" style="stroke:none; opacity:0.75;" display="none"/><ellipse cx="0" cy="0" rx="9.200000000000001" ry="9.200000000000001" fill="#777" style="stroke:black;"/></g></g>
  <g id="ports"/>
</g>
</svg>