<svg xmlns:xlink="http://www.w3.org/1999/xlink" xmlns="http://www.w3.org/2000/svg" height="270px" width="480px" id="SVGCanvas" onmouseup="" onmousemove="">
<rect fill="#bdbddf" width="100%" height="100%" y="0" x="0" id="background" onmousedown="bgmousedown(evt)"/>
<g id="foreground" transform="translate(97.77202072538861,0),scale(0.9326424870466321),translate(-116,-173)">
  <g id="edges"><g id="169"><path style="stroke:#bdbddf; stroke-width:8px; fill:none;" opacity="0.7" d="M 191,332 H 334 a 12,12 0 0,0 12,-12 V 263 a 12,12 0 0,1 12,-12L 376,251"/><g><path style="stroke:#ff0; stroke-width:8px; fill:none; " opacity="0" d="M 191,332 H 334 a 12,12 0 0,0 12,-12 V 263 a 12,12 0 0,1 12,-12L 376,251"/></g><path style="stroke:black; fill:none;" d="M 191,332 H 334 a 12,12 0 0,0 12,-12 V 263 a 12,12 0 0,1 12,-12L 376,251"/><g><g><path style="stroke:#0ff; stroke-width:8px; fill:none; " opacity="0" d="M 191,332 L 346,332" onmousedown='segmousedown("169","0",evt);' onmouseover='segmouseover("169","0",evt);' onmouseout='segmouseout("169","0",evt);' onclick='segclick("169","0",evt);'/><path style="stroke:#0ff; stroke-width:8px; fill:none; " opacity="0" d="M 346,332 L 346,251" onmousedown='segmousedown("169","1",evt);' onmouseover='segmouseover("169","1",evt);' onmouseout='segmouseout("169","1",evt);' onclick='segclick("169","1",evt);'/><path style="stroke:#0ff; stroke-width:8px; fill:none; " opacity="0" d="M 346,251 L 376,251" onmousedown='segmousedown("169","2",evt);' onmouseover='segmouseover("169","2",evt);' onmouseout='segmouseout("169","2",evt);' onclick='segclick("169","2",evt);'/></g></g></g><g id="170"><path style="stroke:#bdbddf; stroke-width:8px; fill:none;" opacity="0.7" d="M 391,251 V 210 a 12,12 0 0,0 -12,-12 H 276 a 12,12 0 0,0 -12,12L 264,230"/><g><path style="stroke:#ff0; stroke-width:8px; fill:none; " opacity="0" d="M 391,251 V 210 a 12,12 0 0,0 -12,-12 H 276 a 12,12 0 0,0 -12,12L 264,230"/></g><path style="stroke:black; fill:none;" d="M 391,251 V 210 a 12,12 0 0,0 -12,-12 H 276 a 12,12 0 0,0 -12,12L 264,230"/><g><g><path style="stroke:#0ff; stroke-width:8px; fill:none; " opacity="0" d="M 391,251 L 391,198" onmousedown='segmousedown("170","0",evt);' onmouseover='segmouseover("170","0",evt);' onmouseout='segmouseout("170","0",evt);' onclick='segclick("170","0",evt);'/><path style="stroke:#0ff; stroke-width:8px; fill:none; " opacity="0" d="M 391,198 L 264,198" onmousedown='segmousedown("170","1",evt);' onmouseover='segmouseover("170","1",evt);' onmouseout='segmouseout("170","1",evt);' onclick='segclick("170","1",evt);'/><path style="stroke:#0ff; stroke-width:8px; fill:none; " opacity="0" d="M 264,198 L 264,230" onmousedown='segmousedown("170","2",evt);' onmouseover='segmouseover("170","2",evt);' onmouseout='segmouseout("170","2",evt);' onclick='segclick("170","2",evt);'/></g></g></g><g id="171"><path style="stroke:#bdbddf; stroke-width:8px; fill:none;" opacity="0.7" d="M 254,245 V 353 a 12,12 0 0,0 12,12 H 285 a 12,12 0 0,1 12,12L 297,400.5"/><g><path style="stroke:#ff0; stroke-width:8px; fill:none; " opacity="0" d="M 254,245 V 353 a 12,12 0 0,0 12,12 H 285 a 12,12 0 0,1 12,12L 297,400.5"/></g><path style="stroke:black; fill:none;" d="M 254,245 V 353 a 12,12 0 0,0 12,12 H 285 a 12,12 0 0,1 12,12L 297,400.5"/><g><g><path style="stroke:#0ff; stroke-width:8px; fill:none; " opacity="0" d="M 254,245 L 254,365" onmousedown='segmousedown("171","0",evt);' onmouseover='segmouseover("171","0",evt);' onmouseout='segmouseout("171","0",evt);' onclick='segclick("171","0",evt);'/><path style="stroke:#0ff; stroke-width:8px; fill:none; " opacity="0" d="M 254,365 L 297,365" onmousedown='segmousedown("171","1",evt);' onmouseover='segmouseover("171","1",evt);' onmouseout='segmouseout("171","1",evt);' onclick='segclick("171","1",evt);'/><path style="stroke:#0ff; stroke-width:8px; fill:none; " opacity="0" d="M 297,365 L 297,400.5" onmousedown='segmousedown("171","2",evt);' onmouseover='segmouseover("171","2",evt);' onmouseout='segmouseout("171","2",evt);' onclick='segclick("171","2",evt);'/></g></g></g><g id="172"><path style="stroke:#bdbddf; stroke-width:8px; fill:none;" opacity="0.7" d="M 312,424 H 379 a 12,12 0 0,0 12,-12L 391,266"/><g><path style="stroke:#ff0; stroke-width:8px; fill:none; " opacity="0" d="M 312,424 H 379 a 12,12 0 0,0 12,-12L 391,266"/></g><path style="stroke:black; fill:none;" d="M 312,424 H 379 a 12,12 0 0,0 12,-12L 391,266"/><g><g><path style="stroke:#0ff; stroke-width:8px; fill:none; " opacity="0" d="M 312,424 L 391,424" onmousedown='segmousedown("172","0",evt);' onmouseover='segmouseover("172","0",evt);' onmouseout='segmouseout("172","0",evt);' onclick='segclick("172","0",evt);'/><path style="stroke:#0ff; stroke-width:8px; fill:none; " opacity="0" d="M 391,424 L 391,266" onmousedown='segmousedown("172","1",evt);' onmouseover='segmouseover("172","1",evt);' onmouseout='segmouseout("172","1",evt);' onclick='segclick("172","1",evt);'/></g></g></g><g id="173"><path style="stroke:#bdbddf; stroke-width:8px; fill:none;" opacity="0.7" d="M 239,227 H 188 a 12,12 0 0,0 -12,12L 176,317"/><g><path style="stroke:#ff0; stroke-width:8px; fill:none; " opacity="0" d="M 239,227 H 188 a 12,12 0 0,0 -12,12L 176,317"/></g><path style="stroke:black; fill:none;" d="M 239,227 H 188 a 12,12 0 0,0 -12,12L 176,317"/><g><g><path style="stroke:#0ff; stroke-width:8px; fill:none; " opacity="0" d="M 239,227 L 176,227" onmousedown='segmousedown("173","0",evt);' onmouseover='segmouseover("173","0",evt);' onmouseout='segmouseout("173","0",evt);' onclick='segclick("173","0",evt);'/><path style="stroke:#0ff; stroke-width:8px; fill:none; " opacity="0" d="M 176,227 L 176,317" onmousedown='segmousedown("173","1",evt);' onmouseover='segmouseover("173","1",evt);' onmouseout='segmouseout("173","1",evt);' onclick='segclick("173","1",evt);'/></g></g></g><g id="174"><path style="stroke:#bdbddf; stroke-width:8px; fill:none;" opacity="0.7" d="M 176,332 H 153 a 12,12 0 0,0 -12,12 V 412 a 12,12 0 0,0 12,12L 297,424"/><g><path style="stroke:#ff0; stroke-width:8px; fill:none; " opacity="0" d="M 176,332 H 153 a 12,12 0 0,0 -12,12 V 412 a 12,12 0 0,0 12,12L 297,424"/></g><path style="stroke:black; fill:none;" d="M 176,332 H 153 a 12,12 0 0,0 -12,12 V 412 a 12,12 0 0,0 12,12L 297,424"/><g><g><path style="stroke:#0ff; stroke-width:8px; fill:none; " opacity="0" d="M 176,332 L 141,332" onmousedown='segmousedown("174","0",evt);' onmouseover='segmouseover("174","0",evt);' onmouseout='segmouseout("174","0",evt);' onclick='segclick("174","0",evt);'/><path style="stroke:#0ff; stroke-width:8px; fill:none; " opacity="0" d="M 141,332 L 141,424" onmousedown='segmousedown("174","1",evt);' onmouseover='segmouseover("174","1",evt);' onmouseout='segmouseout("174","1",evt);' onclick='segclick("174","1",evt);'/><path style="stroke:#0ff; stroke-width:8px; fill:none; " opacity="0" d="M 141,424 L 297,424" onmousedown='segmousedown("174","2",evt);' onmouseover='segmouseover("174","2",evt);' onmouseout='segmouseout("174","2",evt);' onclick='segclick("174","2",evt);'/></g></g></g></g>
  <g id="nodes"><g id="168" onmousedown="nodemousedown(168,evt);" onmouseover="nodemouseover(168,evt);" onmouseout="nodemouseout(168,evt);" transform="translate(176 332)"><rect x="-21" y="-21" width="42" height="42" fill="#0ff" style="stroke:none; opacity:0.75;" display="none"/><rect x="-15" y="-15" width="30" height="30" fill="#f0f0d2" style="stroke:black; opacity:1;"/></g><g id="165" onmousedown="nodemousedown(165,evt);" onmouseover="nodemouseover(165,evt);" onmouseout="nodemouseout(165,evt);" transform="translate(264 230)"><rect x="-31" y="-21" width="62" height="42" fill="#0ff" style="stroke:none; opacity:0.75;" display="none"/><rect x="-25" y="-15" width="50" height="30" fill="#f0f0d2" style="stroke:black; opacity:1;"/></g><g id="166" onmousedown="nodemousedown(166,evt);" onmouseover="nodemouseover(166,evt);" onmouseout="nodemouseout(166,evt);" transform="translate(297 424)"><rect x="-21" y="-29.5" width="42" height="59" fill="#0ff" style="stroke:none; opacity:0.75;" display="none"/><rect x="-15" y="-23.5" width="30" height="47" fill="#f0f0d2" style="stroke:black; opacity:1;"/></g><g id="167" onmousedown="nodemousedown(167,evt);" onmouseover="nodemouseover(167,evt);" onmouseout="nodemouseout(167,evt);" transform="translate(391 251)"><rect x="-21" y="-21" width="42" height="42" fill="#0ff" style="stroke:none; opacity:0.75;" display="none"/><rect x="-15" y="-15" width="30" height="30" fill="#f0f0d2" style="stroke:black; opacity:1;"/></g></g>
  <g id="BPs"><g onmousedown="bpmousedown(177,evt);" onmouseover="bpmouseover(177,evt);" onmouseout="bpmouseout(177,evt);" transform="translate(346,332)" opacity="0"><ellipse cx="0" cy="0" rx="16" ry="16" fill="#0ff" style="stroke:none; opacity:0.75;" display="none"/><ellipse cx="0" cy="0" rx="7.163929600000001" ry="7.163929600000001" fill="#777" style="stroke:black;"/></g><g onmousedown="bpmousedown(178,evt);" onmouseover="bpmouseover(178,evt);" onmouseout="bpmouseout(178,evt);" transform="translate(346,251)" opacity="0"><ellipse cx="0" cy="0" rx="16" ry="16" fill="#0ff" style="stroke:none; opacity:0.75;" display="none"/><ellipse cx="0" cy="0" rx="7.163929600000001" ry="7.163929600000001" fill="#777" style="stroke:black;"/></g><g onmousedown="bpmousedown(181,evt);" onmouseover="bpmouseover(181,evt);" onmouseout="bpmouseout(181,evt);" transform="translate(391 198)" opacity="0"><ellipse cx="0" cy="0" rx="16" ry="16" fill="#0ff" style="stroke:none; opacity:0.75;" display="none"/><ellipse cx="0" cy="0" rx="10" ry="10" fill="#777" style="stroke:black;"/></g><g onmousedown="bpmousedown(182,evt);" onmouseover="bpmouseover(182,evt);" onmouseout="bpmouseout(182,evt);" transform="translate(264 198)" opacity="0"><ellipse cx="0" cy="0" rx="16" ry="16" fill="#0ff" style="stroke:none; opacity:0.75;" display="none"/><ellipse cx="0" cy="0" rx="10" ry="10" fill="#777" style="stroke:black;"/></g><g onmousedown="bpmousedown(185,evt);" onmouseover="bpmouseover(185,evt);" onmouseout="bpmouseout(185,evt);" transform="translate(254,365)" opacity="0"><ellipse cx="0" cy="0" rx="16" ry="16" fill="#0ff" style="stroke:none; opacity:0.75;" display="none"/><ellipse cx="0" cy="0" rx="7.163929600000001" ry="7.163929600000001" fill="#777" style="stroke:black;"/></g><g onmousedown="bpmousedown(186,evt);" onmouseover="bpmouseover(186,evt);" onmouseout="bpmouseout(186,evt);" transform="translate(297,365)" opacity="0"><ellipse cx="0" cy="0" rx="16" ry="16" fill="#0ff" style="stroke:none; opacity:0.75;" display="none"/><ellipse cx="0" cy="0" rx="7.163929600000001" ry="7.163929600000001" fill="#777" style="stroke:black;"/></g><g onmousedown="bpmousedown(189,evt);" onmouseover="bpmouseover(189,evt);" onmouseout="bpmouseout(189,evt);" transform="translate(391,424)" opacity="0"><ellipse cx="0" cy="0" rx="16" ry="16" fill="#0ff" style="stroke:none; opacity:0.75;" display="none"/><ellipse cx="0" cy="0" rx="7.163929600000001" ry="7.163929600000001" fill="#777" style="stroke:black;"/></g><g onmousedown="bpmousedown(195,evt);" onmouseover="bpmouseover(195,evt);" onmouseout="bpmouseout(195,evt);" transform="translate(176,227)" opacity="0"><ellipse cx="0" cy="0" rx="16" ry="16" fill="#0ff" style="stroke:none; opacity:0.75;" display="none"/><ellipse cx="0" cy="0" rx="7.163929600000001" ry="7.163929600000001" fill="#777" style="stroke:black;"/></g><g onmousedown="bpmousedown(198,evt);" onmouseover="bpmouseover(198,evt);" onmouseout="bpmouseout(198,evt);" transform="translate(141 332)" opacity="0"><ellipse cx="0" cy="0" rx="16" ry="16" fill="#0ff" style="stroke:none; opacity:0.75;" display="none"/><ellipse cx="0" cy="0" rx="7.163929600000001" ry="7.163929600000001" fill="#777" style="stroke:black;"/></g><g onmousedown="bpmousedown(199,evt);" onmouseover="bpmouseover(199,evt);" onmouseout="bpmouseout(199,evt);" transform="translate(141 424)" opacity="0"><ellipse cx="0" cy="0" rx="16" ry="16" fill="#0ff" style="stroke:none; opacity:0.75;" display="none"/><ellipse cx="0" cy="0" rx="10" ry="10" fill="#777" style="stroke:black;"/></g></g>
  <g id="ports"/>
</g>
</svg>