<svg xmlns:xlink="http://www.w3.org/1999/xlink" xmlns="http://www.w3.org/2000/svg" height="270px" width="480px" id="SVGCanvas" onmouseup="" onmousemove="">
<rect fill="#bdbddf" width="100%" height="100%" y="0" x="0" id="background" onmousedown="bgmousedown(evt)"/>
<g id="foreground" transform="translate(4.728260869565219,0),scale(0.9782608695652174),translate(-175,-242)">
  <g id="edges"><g id="192"><path style="stroke:#bdbddf; stroke-width:8px; fill:none;" opacity="0.7" d="M 205,287 V 330 a 12,12 0 0,0 12,12L 245,342"/><g><path style="stroke:#ff0; stroke-width:8px; fill:none; " opacity="0" d="M 205,287 V 330 a 12,12 0 0,0 12,12L 245,342"/></g><path style="stroke:black; fill:none;" d="M 205,287 V 330 a 12,12 0 0,0 12,12L 245,342"/><g><g><path style="stroke:#0ff; stroke-width:8px; fill:none; " opacity="0" d="M 205,287 L 205,342" onmousedown='segmousedown("192","0",evt);' onmouseover='segmouseover("192","0",evt);' onmouseout='segmouseout("192","0",evt);' onclick='segclick("192","0",evt);'/><path style="stroke:#0ff; stroke-width:8px; fill:none; " opacity="0" d="M 205,342 L 245,342" onmousedown='segmousedown("192","1",evt);' onmouseover='segmouseover("192","1",evt);' onmouseout='segmouseout("192","1",evt);' onclick='segclick("192","1",evt);'/></g></g></g><g id="193"><path style="stroke:#bdbddf; stroke-width:8px; fill:none;" opacity="0.7" d="M 336,386L 336,487"/><g><path style="stroke:#ff0; stroke-width:8px; fill:none; " opacity="0" d="M 336,386L 336,487"/></g><path style="stroke:black; fill:none;" d="M 336,386L 336,487"/><g><g><path style="stroke:#0ff; stroke-width:8px; fill:none; " opacity="0" d="M 336,386 L 336,487" onmousedown='segmousedown("193","0",evt);' onmouseover='segmouseover("193","0",evt);' onmouseout='segmouseout("193","0",evt);' onclick='segclick("193","0",evt);'/></g></g></g><g id="184"><path style="stroke:#bdbddf; stroke-width:8px; fill:none;" opacity="0.7" d="M 351,386 H 475 a 12,12 0 0,1 12,12 V 403 a 12,12 0 0,0 12,12L 562,415"/><g><path style="stroke:#ff0; stroke-width:8px; fill:none; " opacity="0" d="M 351,386 H 475 a 12,12 0 0,1 12,12 V 403 a 12,12 0 0,0 12,12L 562,415"/></g><path style="stroke:black; fill:none;" d="M 351,386 H 475 a 12,12 0 0,1 12,12 V 403 a 12,12 0 0,0 12,12L 562,415"/><g><g><path style="stroke:#0ff; stroke-width:8px; fill:none; " opacity="0" d="M 351,386 L 487,386" onmousedown='segmousedown("184","0",evt);' onmouseover='segmouseover("184","0",evt);' onmouseout='segmouseout("184","0",evt);' onclick='segclick("184","0",evt);'/><path style="stroke:#0ff; stroke-width:8px; fill:none; " opacity="0" d="M 487,386 L 487,415" onmousedown='segmousedown("184","1",evt);' onmouseover='segmouseover("184","1",evt);' onmouseout='segmouseout("184","1",evt);' onclick='segclick("184","1",evt);'/><path style="stroke:#0ff; stroke-width:8px; fill:none; " opacity="0" d="M 487,415 L 562,415" onmousedown='segmousedown("184","2",evt);' onmouseover='segmouseover("184","2",evt);' onmouseout='segmouseout("184","2",evt);' onclick='segclick("184","2",evt);'/></g></g></g><g id="185"><path style="stroke:#bdbddf; stroke-width:8px; fill:none;" opacity="0.7" d="M 577,415 V 392 a 12,12 0 0,1 12,-12 H 610 a 12,12 0 0,0 12,-12L 622,344"/><g><path style="stroke:#ff0; stroke-width:8px; fill:none; " opacity="0" d="M 577,415 V 392 a 12,12 0 0,1 12,-12 H 610 a 12,12 0 0,0 12,-12L 622,344"/></g><path style="stroke:black; fill:none;" d="M 577,415 V 392 a 12,12 0 0,1 12,-12 H 610 a 12,12 0 0,0 12,-12L 622,344"/><g><g><path style="stroke:#0ff; stroke-width:8px; fill:none; " opacity="0" d="M 577,415 L 577,380" onmousedown='segmousedown("185","0",evt);' onmouseover='segmouseover("185","0",evt);' onmouseout='segmouseout("185","0",evt);' onclick='segclick("185","0",evt);'/><path style="stroke:#0ff; stroke-width:8px; fill:none; " opacity="0" d="M 577,380 L 622,380" onmousedown='segmousedown("185","1",evt);' onmouseover='segmouseover("185","1",evt);' onmouseout='segmouseout("185","1",evt);' onclick='segclick("185","1",evt);'/><path style="stroke:#0ff; stroke-width:8px; fill:none; " opacity="0" d="M 622,380 L 622,344" onmousedown='segmousedown("185","2",evt);' onmouseover='segmouseover("185","2",evt);' onmouseout='segmouseout("185","2",evt);' onclick='segclick("185","2",evt);'/></g></g></g><g id="186"><path style="stroke:#bdbddf; stroke-width:8px; fill:none;" opacity="0.7" d="M 622,344 V 321 a 12,12 0 0,0 -12,-12 H 589 a 12,12 0 0,1 -12,-12L 577,273"/><g><path style="stroke:#ff0; stroke-width:8px; fill:none; " opacity="0" d="M 622,344 V 321 a 12,12 0 0,0 -12,-12 H 589 a 12,12 0 0,1 -12,-12L 577,273"/></g><path style="stroke:black; fill:none;" d="M 622,344 V 321 a 12,12 0 0,0 -12,-12 H 589 a 12,12 0 0,1 -12,-12L 577,273"/><g><g><path style="stroke:#0ff; stroke-width:8px; fill:none; " opacity="0" d="M 622,344 L 622,309" onmousedown='segmousedown("186","0",evt);' onmouseover='segmouseover("186","0",evt);' onmouseout='segmouseout("186","0",evt);' onclick='segclick("186","0",evt);'/><path style="stroke:#0ff; stroke-width:8px; fill:none; " opacity="0" d="M 622,309 L 577,309" onmousedown='segmousedown("186","1",evt);' onmouseover='segmouseover("186","1",evt);' onmouseout='segmouseout("186","1",evt);' onclick='segclick("186","1",evt);'/><path style="stroke:#0ff; stroke-width:8px; fill:none; " opacity="0" d="M 577,309 L 577,273" onmousedown='segmousedown("186","2",evt);' onmouseover='segmouseover("186","2",evt);' onmouseout='segmouseout("186","2",evt);' onclick='segclick("186","2",evt);'/></g></g></g><g id="187"><path style="stroke:#bdbddf; stroke-width:8px; fill:none;" opacity="0.7" d="M 321,386 H 272 a 12,12 0 0,1 -12,-12L 260,357"/><g><path style="stroke:#ff0; stroke-width:8px; fill:none; " opacity="0" d="M 321,386 H 272 a 12,12 0 0,1 -12,-12L 260,357"/></g><path style="stroke:black; fill:none;" d="M 321,386 H 272 a 12,12 0 0,1 -12,-12L 260,357"/><g><g><path style="stroke:#0ff; stroke-width:8px; fill:none; " opacity="0" d="M 321,386 L 260,386" onmousedown='segmousedown("187","0",evt);' onmouseover='segmouseover("187","0",evt);' onmouseout='segmouseout("187","0",evt);' onclick='segclick("187","0",evt);'/><path style="stroke:#0ff; stroke-width:8px; fill:none; " opacity="0" d="M 260,386 L 260,357" onmousedown='segmousedown("187","1",evt);' onmouseover='segmouseover("187","1",evt);' onmouseout='segmouseout("187","1",evt);' onclick='segclick("187","1",evt);'/></g></g></g><g id="188"><path style="stroke:#bdbddf; stroke-width:8px; fill:none;" opacity="0.7" d="M 626,473 V 464 a 9,9 0 0,0 -9,-9 H 589 a 12,12 0 0,1 -12,-12L 577,430"/><g><path style="stroke:#ff0; stroke-width:8px; fill:none; " opacity="0" d="M 626,473 V 464 a 9,9 0 0,0 -9,-9 H 589 a 12,12 0 0,1 -12,-12L 577,430"/></g><path style="stroke:black; fill:none;" d="M 626,473 V 464 a 9,9 0 0,0 -9,-9 H 589 a 12,12 0 0,1 -12,-12L 577,430"/><g><g><path style="stroke:#0ff; stroke-width:8px; fill:none; " opacity="0" d="M 626,473 L 626,455" onmousedown='segmousedown("188","0",evt);' onmouseover='segmouseover("188","0",evt);' onmouseout='segmouseout("188","0",evt);' onclick='segclick("188","0",evt);'/><path style="stroke:#0ff; stroke-width:8px; fill:none; " opacity="0" d="M 626,455 L 577,455" onmousedown='segmousedown("188","1",evt);' onmouseover='segmouseover("188","1",evt);' onmouseout='segmouseout("188","1",evt);' onclick='segclick("188","1",evt);'/><path style="stroke:#0ff; stroke-width:8px; fill:none; " opacity="0" d="M 577,455 L 577,430" onmousedown='segmousedown("188","2",evt);' onmouseover='segmouseover("188","2",evt);' onmouseout='segmouseout("188","2",evt);' onclick='segclick("188","2",evt);'/></g></g></g><g id="189"><path style="stroke:#bdbddf; stroke-width:8px; fill:none;" opacity="0.7" d="M 562,273 H 494 a 12,12 0 0,0 -12,12 V 297 a 12,12 0 0,1 -12,12L 442,309"/><g><path style="stroke:#ff0; stroke-width:8px; fill:none; " opacity="0" d="M 562,273 H 494 a 12,12 0 0,0 -12,12 V 297 a 12,12 0 0,1 -12,12L 442,309"/></g><path style="stroke:black; fill:none;" d="M 562,273 H 494 a 12,12 0 0,0 -12,12 V 297 a 12,12 0 0,1 -12,12L 442,309"/><g><g><path style="stroke:#0ff; stroke-width:8px; fill:none; " opacity="0" d="M 562,273 L 482,273" onmousedown='segmousedown("189","0",evt);' onmouseover='segmouseover("189","0",evt);' onmouseout='segmouseout("189","0",evt);' onclick='segclick("189","0",evt);'/><path style="stroke:#0ff; stroke-width:8px; fill:none; " opacity="0" d="M 482,273 L 482,309" onmousedown='segmousedown("189","1",evt);' onmouseover='segmouseover("189","1",evt);' onmouseout='segmouseout("189","1",evt);' onclick='segclick("189","1",evt);'/><path style="stroke:#0ff; stroke-width:8px; fill:none; " opacity="0" d="M 482,309 L 442,309" onmousedown='segmousedown("189","2",evt);' onmouseover='segmouseover("189","2",evt);' onmouseout='segmouseout("189","2",evt);' onclick='segclick("189","2",evt);'/></g></g></g><g id="190"><path style="stroke:#bdbddf; stroke-width:8px; fill:none;" opacity="0.7" d="M 427,324 V 333.5 a 9.5,9.5 0 0,1 -9.5,9.5 H 348 a 12,12 0 0,0 -12,12L 336,371"/><g><path style="stroke:#ff0; stroke-width:8px; fill:none; " opacity="0" d="M 427,324 V 333.5 a 9.5,9.5 0 0,1 -9.5,9.5 H 348 a 12,12 0 0,0 -12,12L 336,371"/></g><path style="stroke:black; fill:none;" d="M 427,324 V 333.5 a 9.5,9.5 0 0,1 -9.5,9.5 H 348 a 12,12 0 0,0 -12,12L 336,371"/><g><g><path style="stroke:#0ff; stroke-width:8px; fill:none; " opacity="0" d="M 427,324 L 427,343" onmousedown='segmousedown("190","0",evt);' onmouseover='segmouseover("190","0",evt);' onmouseout='segmouseout("190","0",evt);' onclick='segclick("190","0",evt);'/><path style="stroke:#0ff; stroke-width:8px; fill:none; " opacity="0" d="M 427,343 L 336,343" onmousedown='segmousedown("190","1",evt);' onmouseover='segmouseover("190","1",evt);' onmouseout='segmouseout("190","1",evt);' onclick='segclick("190","1",evt);'/><path style="stroke:#0ff; stroke-width:8px; fill:none; " opacity="0" d="M 336,343 L 336,371" onmousedown='segmousedown("190","2",evt);' onmouseover='segmouseover("190","2",evt);' onmouseout='segmouseout("190","2",evt);' onclick='segclick("190","2",evt);'/></g></g></g><g id="191"><path style="stroke:#bdbddf; stroke-width:8px; fill:none;" opacity="0.7" d="M 412,309 H 284 a 12,12 0 0,1 -12,-12 V 284 a 12,12 0 0,0 -12,-12L 220,272"/><g><path style="stroke:#ff0; stroke-width:8px; fill:none; " opacity="0" d="M 412,309 H 284 a 12,12 0 0,1 -12,-12 V 284 a 12,12 0 0,0 -12,-12L 220,272"/></g><path style="stroke:black; fill:none;" d="M 412,309 H 284 a 12,12 0 0,1 -12,-12 V 284 a 12,12 0 0,0 -12,-12L 220,272"/><g><g><path style="stroke:#0ff; stroke-width:8px; fill:none; " opacity="0" d="M 412,309 L 272,309" onmousedown='segmousedown("191","0",evt);' onmouseover='segmouseover("191","0",evt);' onmouseout='segmouseout("191","0",evt);' onclick='segclick("191","0",evt);'/><path style="stroke:#0ff; stroke-width:8px; fill:none; " opacity="0" d="M 272,309 L 272,272" onmousedown='segmousedown("191","1",evt);' onmouseover='segmouseover("191","1",evt);' onmouseout='segmouseout("191","1",evt);' onclick='segclick("191","1",evt);'/><path style="stroke:#0ff; stroke-width:8px; fill:none; " opacity="0" d="M 272,272 L 220,272" onmousedown='segmousedown("191","2",evt);' onmouseover='segmouseover("191","2",evt);' onmouseout='segmouseout("191","2",evt);' onclick='segclick("191","2",evt);'/></g></g></g></g>
  <g id="nodes"><g id="175" onmousedown="nodemousedown(175,evt);" onmouseover="nodemouseover(175,evt);" onmouseout="nodemouseout(175,evt);" transform="translate(336,386)"><rect x="-21" y="-21" width="42" height="42" fill="#0ff" style="stroke:none; opacity:0.75;" display="none"/><rect x="-15" y="-15" width="30" height="30" fill="#f0f0d2" style="stroke:black; opacity:1;"/></g><g id="179" onmousedown="nodemousedown(179,evt);" onmouseover="nodemouseover(179,evt);" onmouseout="nodemouseout(179,evt);" transform="translate(260,342)"><rect x="-21" y="-21" width="42" height="42" fill="#0ff" style="stroke:none; opacity:0.75;" display="none"/><rect x="-15" y="-15" width="30" height="30" fill="#f0f0d2" style="stroke:black; opacity:1;"/></g><g id="182" onmousedown="nodemousedown(182,evt);" onmouseover="nodemouseover(182,evt);" onmouseout="nodemouseout(182,evt);" transform="translate(626,488)"><rect x="-21" y="-21" width="42" height="42" fill="#0ff" style="stroke:none; opacity:0.75;" display="none"/><rect x="-15" y="-15" width="30" height="30" fill="#f0f0d2" style="stroke:black; opacity:1;"/></g><g id="177" onmousedown="nodemousedown(177,evt);" onmouseover="nodemouseover(177,evt);" onmouseout="nodemouseout(177,evt);" transform="translate(622,344)"><rect x="-21" y="-21" width="42" height="42" fill="#0ff" style="stroke:none; opacity:0.75;" display="none"/><rect x="-15" y="-15" width="30" height="30" fill="#f0f0d2" style="stroke:black; opacity:1;"/></g><g id="178" onmousedown="nodemousedown(178,evt);" onmouseover="nodemouseover(178,evt);" onmouseout="nodemouseout(178,evt);" transform="translate(577,273)"><rect x="-21" y="-21" width="42" height="42" fill="#0ff" style="stroke:none; opacity:0.75;" display="none"/><rect x="-15" y="-15" width="30" height="30" fill="#f0f0d2" style="stroke:black; opacity:1;"/></g><g id="180" onmousedown="nodemousedown(180,evt);" onmouseover="nodemouseover(180,evt);" onmouseout="nodemouseout(180,evt);" transform="translate(427,309)"><rect x="-21" y="-21" width="42" height="42" fill="#0ff" style="stroke:none; opacity:0.75;" display="none"/><rect x="-15" y="-15" width="30" height="30" fill="#f0f0d2" style="stroke:black; opacity:1;"/></g><g id="181" onmousedown="nodemousedown(181,evt);" onmouseover="nodemouseover(181,evt);" onmouseout="nodemouseout(181,evt);" transform="translate(205,272)"><rect x="-21" y="-21" width="42" height="42" fill="#0ff" style="stroke:none; opacity:0.75;" display="none"/><rect x="-15" y="-15" width="30" height="30" fill="#f0f0d2" style="stroke:black; opacity:1;"/></g><g id="183" onmousedown="nodemousedown(183,evt);" onmouseover="nodemouseover(183,evt);" onmouseout="nodemouseout(183,evt);" transform="translate(336,487)"><rect x="-21" y="-21" width="42" height="42" fill="#0ff" style="stroke:none; opacity:0.75;" display="none"/><rect x="-15" y="-15" width="30" height="30" fill="#f0f0d2" style="stroke:black; opacity:1;"/></g><g id="176" onmousedown="nodemousedown(176,evt);" onmouseover="nodemouseover(176,evt);" onmouseout="nodemouseout(176,evt);" transform="translate(577,415)"><rect x="-21" y="-21" width="42" height="42" fill="#0ff" style="stroke:none; opacity:0.75;" display="none"/><rect x="-15" y="-15" width="30" height="30" fill="#f0f0d2" style="stroke:black; opacity:1;"/></g></g>
  <g id="BPs"><g onmousedown="bpmousedown(196,evt);" onmouseover="bpmouseover(196,evt);" onmouseout="bpmouseout(196,evt);" transform="translate(205,342)" opacity="0"><ellipse cx="0" cy="0" rx="16" ry="16" fill="#0ff" style="stroke:none; opacity:0.75;" display="none"/><ellipse cx="0" cy="0" rx="13.95881947248616" ry="13.95881947248616" fill="#777" style="stroke:black;"/></g><g onmousedown="bpmousedown(202,evt);" onmouseover="bpmouseover(202,evt);" onmouseout="bpmouseout(202,evt);" transform="translate(487,386)" opacity="0"><ellipse cx="0" cy="0" rx="16" ry="16" fill="#0ff" style="stroke:none; opacity:0.75;" display="none"/><ellipse cx="0" cy="0" rx="13.95881947248616" ry="13.95881947248616" fill="#777" style="stroke:black;"/></g><g onmousedown="bpmousedown(203,evt);" onmouseover="bpmouseover(203,evt);" onmouseout="bpmouseout(203,evt);" transform="translate(487,415)" opacity="0"><ellipse cx="0" cy="0" rx="16" ry="16" fill="#0ff" style="stroke:none; opacity:0.75;" display="none"/><ellipse cx="0" cy="0" rx="13.95881947248616" ry="13.95881947248616" fill="#777" style="stroke:black;"/></g><g onmousedown="bpmousedown(206,evt);" onmouseover="bpmouseover(206,evt);" onmouseout="bpmouseout(206,evt);" transform="translate(577,380)" opacity="0"><ellipse cx="0" cy="0" rx="16" ry="16" fill="#0ff" style="stroke:none; opacity:0.75;" display="none"/><ellipse cx="0" cy="0" rx="13.95881947248616" ry="13.95881947248616" fill="#777" style="stroke:black;"/></g><g onmousedown="bpmousedown(207,evt);" onmouseover="bpmouseover(207,evt);" onmouseout="bpmouseout(207,evt);" transform="translate(622,380)" opacity="0"><ellipse cx="0" cy="0" rx="16" ry="16" fill="#0ff" style="stroke:none; opacity:0.75;" display="none"/><ellipse cx="0" cy="0" rx="13.95881947248616" ry="13.95881947248616" fill="#777" style="stroke:black;"/></g><g onmousedown="bpmousedown(210,evt);" onmouseover="bpmouseover(210,evt);" onmouseout="bpmouseout(210,evt);" transform="translate(622,309)" opacity="0"><ellipse cx="0" cy="0" rx="16" ry="16" fill="#0ff" style="stroke:none; opacity:0.75;" display="none"/><ellipse cx="0" cy="0" rx="13.95881947248616" ry="13.95881947248616" fill="#777" style="stroke:black;"/></g><g onmousedown="bpmousedown(211,evt);" onmouseover="bpmouseover(211,evt);" onmouseout="bpmouseout(211,evt);" transform="translate(577,309)" opacity="0"><ellipse cx="0" cy="0" rx="16" ry="16" fill="#0ff" style="stroke:none; opacity:0.75;" display="none"/><ellipse cx="0" cy="0" rx="13.95881947248616" ry="13.95881947248616" fill="#777" style="stroke:black;"/></g><g onmousedown="bpmousedown(214,evt);" onmouseover="bpmouseover(214,evt);" onmouseout="bpmouseout(214,evt);" transform="translate(260,386)" opacity="0"><ellipse cx="0" cy="0" rx="16" ry="16" fill="#0ff" style="stroke:none; opacity:0.75;" display="none"/><ellipse cx="0" cy="0" rx="13.95881947248616" ry="13.95881947248616" fill="#777" style="stroke:black;"/></g><g onmousedown="bpmousedown(220,evt);" onmouseover="bpmouseover(220,evt);" onmouseout="bpmouseout(220,evt);" transform="translate(482,273)" opacity="0"><ellipse cx="0" cy="0" rx="16" ry="16" fill="#0ff" style="stroke:none; opacity:0.75;" display="none"/><ellipse cx="0" cy="0" rx="13.95881947248616" ry="13.95881947248616" fill="#777" style="stroke:black;"/></g><g onmousedown="bpmousedown(221,evt);" onmouseover="bpmouseover(221,evt);" onmouseout="bpmouseout(221,evt);" transform="translate(482,309)" opacity="0"><ellipse cx="0" cy="0" rx="16" ry="16" fill="#0ff" style="stroke:none; opacity:0.75;" display="none"/><ellipse cx="0" cy="0" rx="13.95881947248616" ry="13.95881947248616" fill="#777" style="stroke:black;"/></g><g onmousedown="bpmousedown(224,evt);" onmouseover="bpmouseover(224,evt);" onmouseout="bpmouseout(224,evt);" transform="translate(427,343)" opacity="0"><ellipse cx="0" cy="0" rx="16" ry="16" fill="#0ff" style="stroke:none; opacity:0.75;" display="none"/><ellipse cx="0" cy="0" rx="13.95881947248616" ry="13.95881947248616" fill="#777" style="stroke:black;"/></g><g onmousedown="bpmousedown(225,evt);" onmouseover="bpmouseover(225,evt);" onmouseout="bpmouseout(225,evt);" transform="translate(336,343)" opacity="0"><ellipse cx="0" cy="0" rx="16" ry="16" fill="#0ff" style="stroke:none; opacity:0.75;" display="none"/><ellipse cx="0" cy="0" rx="13.95881947248616" ry="13.95881947248616" fill="#777" style="stroke:black;"/></g><g onmousedown="bpmousedown(228,evt);" onmouseover="bpmouseover(228,evt);" onmouseout="bpmouseout(228,evt);" transform="translate(272,309)" opacity="0"><ellipse cx="0" cy="0" rx="16" ry="16" fill="#0ff" style="stroke:none; opacity:0.75;" display="none"/><ellipse cx="0" cy="0" rx="13.95881947248616" ry="13.95881947248616" fill="#777" style="stroke:black;"/></g><g onmousedown="bpmousedown(229,evt);" onmouseover="bpmouseover(229,evt);" onmouseout="bpmouseout(229,evt);" transform="translate(272,272)" opacity="0"><ellipse cx="0" cy="0" rx="16" ry="16" fill="#0ff" style="stroke:none; opacity:0.75;" display="none"/><ellipse cx="0" cy="0" rx="13.95881947248616" ry="13.95881947248616" fill="#777" style="stroke:black;"/></g><g onmousedown="bpmousedown(230,evt);" onmouseover="bpmouseover(230,evt);" onmouseout="bpmouseout(230,evt);" transform="translate(626,455)" opacity="0"><ellipse cx="0" cy="0" rx="16" ry="16" fill="#0ff" style="stroke:none; opacity:0.75;" display="none"/><ellipse cx="0" cy="0" rx="13.95881947248616" ry="13.95881947248616" fill="#777" style="stroke:black;"/></g><g onmousedown="bpmousedown(231,evt);" onmouseover="bpmouseover(231,evt);" onmouseout="bpmouseout(231,evt);" transform="translate(577,455)" opacity="0"><ellipse cx="0" cy="0" rx="16" ry="16" fill="#0ff" style="stroke:none; opacity:0.75;" display="none"/><ellipse cx="0" cy="0" rx="13.95881947248616" ry="13.95881947248616" fill="#777" style="stroke:black;"/></g></g>
  <g id="ports"/>
</g>
</svg>