<svg xmlns:xlink="http://www.w3.org/1999/xlink" xmlns="http://www.w3.org/2000/svg" height="270px" width="480px" id="SVGCanvas" onmouseup="" onmousemove="">
<rect fill="#bdbddf" width="100%" height="100%" y="0" x="0" id="background" onmousedown="bgmousedown(evt)"/>
<g id="foreground" transform="translate(10.83106267029973,0),scale(0.7356948228882834),translate(9,-3)">
  <g id="edges"><g id="241"><path style="stroke:#bdbddf; stroke-width:8px; fill:none;" opacity="0.7" d="M 211,340L 525,340"/><g><path style="stroke:#ff0; stroke-width:8px; fill:none; " opacity="0" d="M 211,340L 525,340"/></g><path style="stroke:black; fill:none;" d="M 211,340L 525,340"/><g><g><path style="stroke:#0ff; stroke-width:8px; fill:none; " opacity="0" d="M 211,340 L 525,340" onmousedown='segmousedown("241","0",evt);' onmouseover='segmouseover("241","0",evt);' onmouseout='segmouseout("241","0",evt);' onclick='segclick("241","0",evt);'/></g></g></g><g id="242"><path style="stroke:#bdbddf; stroke-width:8px; fill:none;" opacity="0.7" d="M 540,339 H 577 a 12,12 0 0,0 12,-12L 589,51"/><g><path style="stroke:#ff0; stroke-width:8px; fill:none; " opacity="0" d="M 540,339 H 577 a 12,12 0 0,0 12,-12L 589,51"/></g><path style="stroke:black; fill:none;" d="M 540,339 H 577 a 12,12 0 0,0 12,-12L 589,51"/><g><g><path style="stroke:#0ff; stroke-width:8px; fill:none; " opacity="0" d="M 540,339 L 589,339" onmousedown='segmousedown("242","0",evt);' onmouseover='segmouseover("242","0",evt);' onmouseout='segmouseout("242","0",evt);' onclick='segclick("242","0",evt);'/><path style="stroke:#0ff; stroke-width:8px; fill:none; " opacity="0" d="M 589,339 L 589,51" onmousedown='segmousedown("242","1",evt);' onmouseover='segmouseover("242","1",evt);' onmouseout='segmouseout("242","1",evt);' onclick='segclick("242","1",evt);'/></g></g></g><g id="243"><path style="stroke:#bdbddf; stroke-width:8px; fill:none;" opacity="0.7" d="M 567,28 H 188 a 12,12 0 0,0 -12,12 V 67 a 12,12 0 0,0 12,12L 211,79"/><g><path style="stroke:#ff0; stroke-width:8px; fill:none; " opacity="0" d="M 567,28 H 188 a 12,12 0 0,0 -12,12 V 67 a 12,12 0 0,0 12,12L 211,79"/></g><path style="stroke:black; fill:none;" d="M 567,28 H 188 a 12,12 0 0,0 -12,12 V 67 a 12,12 0 0,0 12,12L 211,79"/><g><g><path style="stroke:#0ff; stroke-width:8px; fill:none; " opacity="0" d="M 567,28 L 176,28" onmousedown='segmousedown("243","0",evt);' onmouseover='segmouseover("243","0",evt);' onmouseout='segmouseout("243","0",evt);' onclick='segclick("243","0",evt);'/><path style="stroke:#0ff; stroke-width:8px; fill:none; " opacity="0" d="M 176,28 L 176,79" onmousedown='segmousedown("243","1",evt);' onmouseover='segmouseover("243","1",evt);' onmouseout='segmouseout("243","1",evt);' onclick='segclick("243","1",evt);'/><path style="stroke:#0ff; stroke-width:8px; fill:none; " opacity="0" d="M 176,79 L 211,79" onmousedown='segmousedown("243","2",evt);' onmouseover='segmouseover("243","2",evt);' onmouseout='segmouseout("243","2",evt);' onclick='segclick("243","2",evt);'/></g></g></g><g id="244"><path style="stroke:#bdbddf; stroke-width:8px; fill:none;" opacity="0.7" d="M 218,79L 218,340"/><g><path style="stroke:#ff0; stroke-width:8px; fill:none; " opacity="0" d="M 218,79L 218,340"/></g><path style="stroke:black; fill:none;" d="M 218,79L 218,340"/><g><g><path style="stroke:#0ff; stroke-width:8px; fill:none; " opacity="0" d="M 218,79 L 218,340" onmousedown='segmousedown("244","0",evt);' onmouseover='segmouseover("244","0",evt);' onmouseout='segmouseout("244","0",evt);' onclick='segclick("244","0",evt);'/></g></g></g><g id="245"><path style="stroke:#bdbddf; stroke-width:8px; fill:none;" opacity="0.7" d="M 525,319 V 299 a 12,12 0 0,0 -12,-12L 490,287"/><g><path style="stroke:#ff0; stroke-width:8px; fill:none; " opacity="0" d="M 525,319 V 299 a 12,12 0 0,0 -12,-12L 490,287"/></g><path style="stroke:black; fill:none;" d="M 525,319 V 299 a 12,12 0 0,0 -12,-12L 490,287"/><g><g><path style="stroke:#0ff; stroke-width:8px; fill:none; " opacity="0" d="M 525,319 L 525,287" onmousedown='segmousedown("245","0",evt);' onmouseover='segmouseover("245","0",evt);' onmouseout='segmouseout("245","0",evt);' onclick='segclick("245","0",evt);'/><path style="stroke:#0ff; stroke-width:8px; fill:none; " opacity="0" d="M 525,287 L 490,287" onmousedown='segmousedown("245","1",evt);' onmouseover='segmouseover("245","1",evt);' onmouseout='segmouseout("245","1",evt);' onclick='segclick("245","1",evt);'/></g></g></g><g id="246"><path style="stroke:#bdbddf; stroke-width:8px; fill:none;" opacity="0.7" d="M 475,272 V 261.5 a 10.5,10.5 0 0,0 -10.5,-10.5L 417,251"/><g><path style="stroke:#ff0; stroke-width:8px; fill:none; " opacity="0" d="M 475,272 V 261.5 a 10.5,10.5 0 0,0 -10.5,-10.5L 417,251"/></g><path style="stroke:black; fill:none;" d="M 475,272 V 261.5 a 10.5,10.5 0 0,0 -10.5,-10.5L 417,251"/><g><g><path style="stroke:#0ff; stroke-width:8px; fill:none; " opacity="0" d="M 475,272 L 475,251" onmousedown='segmousedown("246","0",evt);' onmouseover='segmouseover("246","0",evt);' onmouseout='segmouseout("246","0",evt);' onclick='segclick("246","0",evt);'/><path style="stroke:#0ff; stroke-width:8px; fill:none; " opacity="0" d="M 475,251 L 417,251" onmousedown='segmousedown("246","1",evt);' onmouseover='segmouseover("246","1",evt);' onmouseout='segmouseout("246","1",evt);' onclick='segclick("246","1",evt);'/></g></g></g><g id="247"><path style="stroke:#bdbddf; stroke-width:8px; fill:none;" opacity="0.7" d="M 387,246 H 365 a 12,12 0 0,1 -12,-12 V 189 a 12,12 0 0,1 12,-12L 384,177"/><g><path style="stroke:#ff0; stroke-width:8px; fill:none; " opacity="0" d="M 387,246 H 365 a 12,12 0 0,1 -12,-12 V 189 a 12,12 0 0,1 12,-12L 384,177"/></g><path style="stroke:black; fill:none;" d="M 387,246 H 365 a 12,12 0 0,1 -12,-12 V 189 a 12,12 0 0,1 12,-12L 384,177"/><g><g><path style="stroke:#0ff; stroke-width:8px; fill:none; " opacity="0" d="M 387,246 L 353,246" onmousedown='segmousedown("247","0",evt);' onmouseover='segmouseover("247","0",evt);' onmouseout='segmouseout("247","0",evt);' onclick='segclick("247","0",evt);'/><path style="stroke:#0ff; stroke-width:8px; fill:none; " opacity="0" d="M 353,246 L 353,177" onmousedown='segmousedown("247","1",evt);' onmouseover='segmouseover("247","1",evt);' onmouseout='segmouseout("247","1",evt);' onclick='segclick("247","1",evt);'/><path style="stroke:#0ff; stroke-width:8px; fill:none; " opacity="0" d="M 353,177 L 384,177" onmousedown='segmousedown("247","2",evt);' onmouseover='segmouseover("247","2",evt);' onmouseout='segmouseout("247","2",evt);' onclick='segclick("247","2",evt);'/></g></g></g><g id="248"><path style="stroke:#bdbddf; stroke-width:8px; fill:none;" opacity="0.7" d="M 414,172 H 437 a 12,12 0 0,0 12,-12 V 146 a 12,12 0 0,0 -12,-12 H 404 a 12,12 0 0,1 -12,-12L 392,109"/><g><path style="stroke:#ff0; stroke-width:8px; fill:none; " opacity="0" d="M 414,172 H 437 a 12,12 0 0,0 12,-12 V 146 a 12,12 0 0,0 -12,-12 H 404 a 12,12 0 0,1 -12,-12L 392,109"/></g><path style="stroke:black; fill:none;" d="M 414,172 H 437 a 12,12 0 0,0 12,-12 V 146 a 12,12 0 0,0 -12,-12 H 404 a 12,12 0 0,1 -12,-12L 392,109"/><g><g><path style="stroke:#0ff; stroke-width:8px; fill:none; " opacity="0" d="M 414,172 L 449,172" onmousedown='segmousedown("248","0",evt);' onmouseover='segmouseover("248","0",evt);' onmouseout='segmouseout("248","0",evt);' onclick='segclick("248","0",evt);'/><path style="stroke:#0ff; stroke-width:8px; fill:none; " opacity="0" d="M 449,172 L 449,134" onmousedown='segmousedown("248","1",evt);' onmouseover='segmouseover("248","1",evt);' onmouseout='segmouseout("248","1",evt);' onclick='segclick("248","1",evt);'/><path style="stroke:#0ff; stroke-width:8px; fill:none; " opacity="0" d="M 449,134 L 392,134" onmousedown='segmousedown("248","2",evt);' onmouseover='segmouseover("248","2",evt);' onmouseout='segmouseout("248","2",evt);' onclick='segclick("248","2",evt);'/><path style="stroke:#0ff; stroke-width:8px; fill:none; " opacity="0" d="M 392,134 L 392,109" onmousedown='segmousedown("248","3",evt);' onmouseover='segmouseover("248","3",evt);' onmouseout='segmouseout("248","3",evt);' onclick='segclick("248","3",evt);'/></g></g></g><g id="249"><path style="stroke:#bdbddf; stroke-width:8px; fill:none;" opacity="0.7" d="M 202,79 V 111 a 12,12 0 0,1 -12,12L 130,123"/><g><path style="stroke:#ff0; stroke-width:8px; fill:none; " opacity="0" d="M 202,79 V 111 a 12,12 0 0,1 -12,12L 130,123"/></g><path style="stroke:black; fill:none;" d="M 202,79 V 111 a 12,12 0 0,1 -12,12L 130,123"/><g><g><path style="stroke:#0ff; stroke-width:8px; fill:none; " opacity="0" d="M 202,79 L 202,123" onmousedown='segmousedown("249","0",evt);' onmouseover='segmouseover("249","0",evt);' onmouseout='segmouseout("249","0",evt);' onclick='segclick("249","0",evt);'/><path style="stroke:#0ff; stroke-width:8px; fill:none; " opacity="0" d="M 202,123 L 130,123" onmousedown='segmousedown("249","1",evt);' onmouseover='segmouseover("249","1",evt);' onmouseout='segmouseout("249","1",evt);' onclick='segclick("249","1",evt);'/></g></g></g><g id="250"><path style="stroke:#bdbddf; stroke-width:8px; fill:none;" opacity="0.7" d="M 130,123 V 64 a 7,7 0 0,0 -7,-7L 116,57"/><g><path style="stroke:#ff0; stroke-width:8px; fill:none; " opacity="0" d="M 130,123 V 64 a 7,7 0 0,0 -7,-7L 116,57"/></g><path style="stroke:black; fill:none;" d="M 130,123 V 64 a 7,7 0 0,0 -7,-7L 116,57"/><g><g><path style="stroke:#0ff; stroke-width:8px; fill:none; " opacity="0" d="M 130,123 L 130,57" onmousedown='segmousedown("250","0",evt);' onmouseover='segmouseover("250","0",evt);' onmouseout='segmouseout("250","0",evt);' onclick='segclick("250","0",evt);'/><path style="stroke:#0ff; stroke-width:8px; fill:none; " opacity="0" d="M 130,57 L 116,57" onmousedown='segmousedown("250","1",evt);' onmouseover='segmouseover("250","1",evt);' onmouseout='segmouseout("250","1",evt);' onclick='segclick("250","1",evt);'/></g></g></g><g id="251"><path style="stroke:#bdbddf; stroke-width:8px; fill:none;" opacity="0.7" d="M 101,57L 36,57"/><g><path style="stroke:#ff0; stroke-width:8px; fill:none; " opacity="0" d="M 101,57L 36,57"/></g><path style="stroke:black; fill:none;" d="M 101,57L 36,57"/><g><g><path style="stroke:#0ff; stroke-width:8px; fill:none; " opacity="0" d="M 101,57 L 36,57" onmousedown='segmousedown("251","0",evt);' onmouseover='segmouseover("251","0",evt);' onmouseout='segmouseout("251","0",evt);' onclick='segclick("251","0",evt);'/></g></g></g><g id="252"><path style="stroke:#bdbddf; stroke-width:8px; fill:none;" opacity="0.7" d="M 130,138 V 194 a 12,12 0 0,0 12,12L 158,206"/><g><path style="stroke:#ff0; stroke-width:8px; fill:none; " opacity="0" d="M 130,138 V 194 a 12,12 0 0,0 12,12L 158,206"/></g><path style="stroke:black; fill:none;" d="M 130,138 V 194 a 12,12 0 0,0 12,12L 158,206"/><g><g><path style="stroke:#0ff; stroke-width:8px; fill:none; " opacity="0" d="M 130,138 L 130,206" onmousedown='segmousedown("252","0",evt);' onmouseover='segmouseover("252","0",evt);' onmouseout='segmouseout("252","0",evt);' onclick='segclick("252","0",evt);'/><path style="stroke:#0ff; stroke-width:8px; fill:none; " opacity="0" d="M 130,206 L 158,206" onmousedown='segmousedown("252","1",evt);' onmouseover='segmouseover("252","1",evt);' onmouseout='segmouseout("252","1",evt);' onclick='segclick("252","1",evt);'/></g></g></g></g>
  <g id="nodes"><g id="229" onmousedown="nodemousedown(229,evt);" onmouseover="nodemouseover(229,evt);" onmouseout="nodemouseout(229,evt);" transform="translate(211,79)"><rect x="-21" y="-21" width="42" height="42" fill="#0ff" style="stroke:none; opacity:0.75;" display="none"/><rect x="-15" y="-15" width="30" height="30" fill="#f0f0d2" style="stroke:black; opacity:1;"/></g><g id="230" onmousedown="nodemousedown(230,evt);" onmouseover="nodemouseover(230,evt);" onmouseout="nodemouseout(230,evt);" transform="translate(211,340)"><rect x="-21" y="-21" width="42" height="42" fill="#0ff" style="stroke:none; opacity:0.75;" display="none"/><rect x="-15" y="-15" width="30" height="30" fill="#f0f0d2" style="stroke:black; opacity:1;"/></g><g id="231" onmousedown="nodemousedown(231,evt);" onmouseover="nodemouseover(231,evt);" onmouseout="nodemouseout(231,evt);" transform="translate(525,334)"><rect x="-21" y="-21" width="42" height="42" fill="#0ff" style="stroke:none; opacity:0.75;" display="none"/><rect x="-15" y="-15" width="30" height="30" fill="#f0f0d2" style="stroke:black; opacity:1;"/></g><g id="237" onmousedown="nodemousedown(237,evt);" onmouseover="nodemouseover(237,evt);" onmouseout="nodemouseout(237,evt);" transform="translate(130,123)"><rect x="-21" y="-21" width="42" height="42" fill="#0ff" style="stroke:none; opacity:0.75;" display="none"/><rect x="-15" y="-15" width="30" height="30" fill="#f0f0d2" style="stroke:black; opacity:1;"/></g><g id="236" onmousedown="nodemousedown(236,evt);" onmouseover="nodemouseover(236,evt);" onmouseout="nodemouseout(236,evt);" transform="translate(392,94)"><rect x="-21" y="-21" width="42" height="42" fill="#0ff" style="stroke:none; opacity:0.75;" display="none"/><rect x="-15" y="-15" width="30" height="30" fill="#f0f0d2" style="stroke:black; opacity:1;"/></g><g id="235" onmousedown="nodemousedown(235,evt);" onmouseover="nodemouseover(235,evt);" onmouseout="nodemouseout(235,evt);" transform="translate(399,172)"><rect x="-21" y="-21" width="42" height="42" fill="#0ff" style="stroke:none; opacity:0.75;" display="none"/><rect x="-15" y="-15" width="30" height="30" fill="#f0f0d2" style="stroke:black; opacity:1;"/></g><g id="234" onmousedown="nodemousedown(234,evt);" onmouseover="nodemouseover(234,evt);" onmouseout="nodemouseout(234,evt);" transform="translate(402,246)"><rect x="-21" y="-21" width="42" height="42" fill="#0ff" style="stroke:none; opacity:0.75;" display="none"/><rect x="-15" y="-15" width="30" height="30" fill="#f0f0d2" style="stroke:black; opacity:1;"/></g><g id="233" onmousedown="nodemousedown(233,evt);" onmouseover="nodemouseover(233,evt);" onmouseout="nodemouseout(233,evt);" transform="translate(475,287)"><rect x="-21" y="-21" width="42" height="42" fill="#0ff" style="stroke:none; opacity:0.75;" display="none"/><rect x="-15" y="-15" width="30" height="30" fill="#f0f0d2" style="stroke:black; opacity:1;"/></g><g id="232" onmousedown="nodemousedown(232,evt);" onmouseover="nodemouseover(232,evt);" onmouseout="nodemouseout(232,evt);" transform="translate(582,36)"><rect x="-21" y="-21" width="42" height="42" fill="#0ff" style="stroke:none; opacity:0.75;" display="none"/><rect x="-15" y="-15" width="30" height="30" fill="#f0f0d2" style="stroke:black; opacity:1;"/></g><g id="239" onmousedown="nodemousedown(239,evt);" onmouseover="nodemouseover(239,evt);" onmouseout="nodemouseout(239,evt);" transform="translate(101,57)"><rect x="-21" y="-21" width="42" height="42" fill="#0ff" style="stroke:none; opacity:0.75;" display="none"/><rect x="-15" y="-15" width="30" height="30" fill="#f0f0d2" style="stroke:black; opacity:1;"/></g><g id="238" onmousedown="nodemousedown(238,evt);" onmouseover="nodemouseover(238,evt);" onmouseout="nodemouseout(238,evt);" transform="translate(173,206)"><rect x="-21" y="-21" width="42" height="42" fill="#0ff" style="stroke:none; opacity:0.75;" display="none"/><rect x="-15" y="-15" width="30" height="30" fill="#f0f0d2" style="stroke:black; opacity:1;"/></g><g id="240" onmousedown="nodemousedown(240,evt);" onmouseover="nodemouseover(240,evt);" onmouseout="nodemouseout(240,evt);" transform="translate(21,57)"><rect x="-21" y="-21" width="42" height="42" fill="#0ff" style="stroke:none; opacity:0.75;" display="none"/><rect x="-15" y="-15" width="30" height="30" fill="#f0f0d2" style="stroke:black; opacity:1;"/></g></g>
  <g id="BPs"><g onmousedown="bpmousedown(257,evt);" onmouseover="bpmouseover(257,evt);" onmouseout="bpmouseout(257,evt);" transform="translate(589,339)" opacity="0"><ellipse cx="0" cy="0" rx="16" ry="16" fill="#0ff" style="stroke:none; opacity:0.75;" display="none"/><ellipse cx="0" cy="0" rx="17.92607497802221" ry="17.92607497802221" fill="#777" style="stroke:black;"/></g><g onmousedown="bpmousedown(262,evt);" onmouseover="bpmouseover(262,evt);" onmouseout="bpmouseout(262,evt);" transform="translate(176,28)" opacity="0"><ellipse cx="0" cy="0" rx="16" ry="16" fill="#0ff" style="stroke:none; opacity:0.75;" display="none"/><ellipse cx="0" cy="0" rx="17.92607497802221" ry="17.92607497802221" fill="#777" style="stroke:black;"/></g><g onmousedown="bpmousedown(263,evt);" onmouseover="bpmouseover(263,evt);" onmouseout="bpmouseout(263,evt);" transform="translate(176,79)" opacity="0"><ellipse cx="0" cy="0" rx="16" ry="16" fill="#0ff" style="stroke:none; opacity:0.75;" display="none"/><ellipse cx="0" cy="0" rx="17.92607497802221" ry="17.92607497802221" fill="#777" style="stroke:black;"/></g><g onmousedown="bpmousedown(273,evt);" onmouseover="bpmouseover(273,evt);" onmouseout="bpmouseout(273,evt);" transform="translate(353,246)" opacity="0"><ellipse cx="0" cy="0" rx="16" ry="16" fill="#0ff" style="stroke:none; opacity:0.75;" display="none"/><ellipse cx="0" cy="0" rx="17.92607497802221" ry="17.92607497802221" fill="#777" style="stroke:black;"/></g><g onmousedown="bpmousedown(274,evt);" onmouseover="bpmouseover(274,evt);" onmouseout="bpmouseout(274,evt);" transform="translate(353,177)" opacity="0"><ellipse cx="0" cy="0" rx="16" ry="16" fill="#0ff" style="stroke:none; opacity:0.75;" display="none"/><ellipse cx="0" cy="0" rx="17.92607497802221" ry="17.92607497802221" fill="#777" style="stroke:black;"/></g><g onmousedown="bpmousedown(277,evt);" onmouseover="bpmouseover(277,evt);" onmouseout="bpmouseout(277,evt);" transform="translate(449,134)" opacity="0"><ellipse cx="0" cy="0" rx="16" ry="16" fill="#0ff" style="stroke:none; opacity:0.75;" display="none"/><ellipse cx="0" cy="0" rx="17.92607497802221" ry="17.92607497802221" fill="#777" style="stroke:black;"/></g><g onmousedown="bpmousedown(281,evt);" onmouseover="bpmouseover(281,evt);" onmouseout="bpmouseout(281,evt);" transform="translate(202,123)" opacity="0"><ellipse cx="0" cy="0" rx="16" ry="16" fill="#0ff" style="stroke:none; opacity:0.75;" display="none"/><ellipse cx="0" cy="0" rx="17.92607497802221" ry="17.92607497802221" fill="#777" style="stroke:black;"/></g><g onmousedown="bpmousedown(284,evt);" onmouseover="bpmouseover(284,evt);" onmouseout="bpmouseout(284,evt);" transform="translate(130,57)" opacity="0"><ellipse cx="0" cy="0" rx="16" ry="16" fill="#0ff" style="stroke:none; opacity:0.75;" display="none"/><ellipse cx="0" cy="0" rx="17.92607497802221" ry="17.92607497802221" fill="#777" style="stroke:black;"/></g><g onmousedown="bpmousedown(291,evt);" onmouseover="bpmouseover(291,evt);" onmouseout="bpmouseout(291,evt);" transform="translate(130,206)" opacity="0"><ellipse cx="0" cy="0" rx="16" ry="16" fill="#0ff" style="stroke:none; opacity:0.75;" display="none"/><ellipse cx="0" cy="0" rx="17.92607497802221" ry="17.92607497802221" fill="#777" style="stroke:black;"/></g><g onmousedown="bpmousedown(293,evt);" onmouseover="bpmouseover(293,evt);" onmouseout="bpmouseout(293,evt);" transform="translate(392,134)" opacity="0"><ellipse cx="0" cy="0" rx="16" ry="16" fill="#0ff" style="stroke:none; opacity:0.75;" display="none"/><ellipse cx="0" cy="0" rx="17.92607497802221" ry="17.92607497802221" fill="#777" style="stroke:black;"/></g><g onmousedown="bpmousedown(295,evt);" onmouseover="bpmouseover(295,evt);" onmouseout="bpmouseout(295,evt);" transform="translate(449,172)" opacity="0"><ellipse cx="0" cy="0" rx="16" ry="16" fill="#0ff" style="stroke:none; opacity:0.75;" display="none"/><ellipse cx="0" cy="0" rx="17.92607497802221" ry="17.92607497802221" fill="#777" style="stroke:black;"/></g><g onmousedown="bpmousedown(299,evt);" onmouseover="bpmouseover(299,evt);" onmouseout="bpmouseout(299,evt);" transform="translate(475,251)" opacity="0"><ellipse cx="0" cy="0" rx="16" ry="16" fill="#0ff" style="stroke:none; opacity:0.75;" display="none"/><ellipse cx="0" cy="0" rx="17.92607497802221" ry="17.92607497802221" fill="#777" style="stroke:black;"/></g><g onmousedown="bpmousedown(300,evt);" onmouseover="bpmouseover(300,evt);" onmouseout="bpmouseout(300,evt);" transform="translate(525,287)" opacity="0"><ellipse cx="0" cy="0" rx="16" ry="16" fill="#0ff" style="stroke:none; opacity:0.75;" display="none"/><ellipse cx="0" cy="0" rx="17.92607497802221" ry="17.92607497802221" fill="#777" style="stroke:black;"/></g></g>
  <g id="ports"/>
</g>
</svg>