<svg xmlns:xlink="http://www.w3.org/1999/xlink" xmlns="http://www.w3.org/2000/svg" height="270px" width="480px" id="SVGCanvas" onmouseup="" onmousemove="">
<rect fill="#bdbddf" width="100%" height="100%" y="0" x="0" id="background" onmousedown="bgmousedown(evt)"/>
<g id="foreground" transform="translate(7.121788772597512,0),scale(0.5137963843958135),translate(-9,-65)">
  <g id="edges"><g id="266"><path style="stroke:#bdbddf; stroke-width:8px; fill:none;" opacity="0.7" d="M 836,90 H 853 a 12,12 0 0,1 12,12L 865,279"/><g><path style="stroke:#ff0; stroke-width:8px; fill:none; " opacity="0" d="M 836,90 H 853 a 12,12 0 0,1 12,12L 865,279"/></g><path style="stroke:black; fill:none;" d="M 836,90 H 853 a 12,12 0 0,1 12,12L 865,279"/><g><g><path style="stroke:#0ff; stroke-width:8px; fill:none; " opacity="0" d="M 836,90 L 865,90" onmousedown='segmousedown("266","0",evt);' onmouseover='segmouseover("266","0",evt);' onmouseout='segmouseout("266","0",evt);' onclick='segclick("266","0",evt);'/><path style="stroke:#0ff; stroke-width:8px; fill:none; " opacity="0" d="M 865,90 L 865,279" onmousedown='segmousedown("266","1",evt);' onmouseover='segmouseover("266","1",evt);' onmouseout='segmouseout("266","1",evt);' onclick='segclick("266","1",evt);'/></g></g></g><g id="267"><path style="stroke:#bdbddf; stroke-width:8px; fill:none;" opacity="0.7" d="M 882,279L 882,429"/><g><path style="stroke:#ff0; stroke-width:8px; fill:none; " opacity="0" d="M 882,279L 882,429"/></g><path style="stroke:black; fill:none;" d="M 882,279L 882,429"/><g><g><path style="stroke:#0ff; stroke-width:8px; fill:none; " opacity="0" d="M 882,279 L 882,429" onmousedown='segmousedown("267","0",evt);' onmouseover='segmouseover("267","0",evt);' onmouseout='segmouseout("267","0",evt);' onclick='segclick("267","0",evt);'/></g></g></g><g id="268"><path style="stroke:#bdbddf; stroke-width:8px; fill:none;" opacity="0.7" d="M 491,258 V 111 a 12,12 0 0,1 12,-12L 836,99"/><g><path style="stroke:#ff0; stroke-width:8px; fill:none; " opacity="0" d="M 491,258 V 111 a 12,12 0 0,1 12,-12L 836,99"/></g><path style="stroke:black; fill:none;" d="M 491,258 V 111 a 12,12 0 0,1 12,-12L 836,99"/><g><g><path style="stroke:#0ff; stroke-width:8px; fill:none; " opacity="0" d="M 491,258 L 491,99" onmousedown='segmousedown("268","0",evt);' onmouseover='segmouseover("268","0",evt);' onmouseout='segmouseout("268","0",evt);' onclick='segclick("268","0",evt);'/><path style="stroke:#0ff; stroke-width:8px; fill:none; " opacity="0" d="M 491,99 L 836,99" onmousedown='segmousedown("268","1",evt);' onmouseover='segmouseover("268","1",evt);' onmouseout='segmouseout("268","1",evt);' onclick='segclick("268","1",evt);'/></g></g></g><g id="269"><path style="stroke:#bdbddf; stroke-width:8px; fill:none;" opacity="0.7" d="M 485,273L 388,273"/><g><path style="stroke:#ff0; stroke-width:8px; fill:none; " opacity="0" d="M 485,273L 388,273"/></g><path style="stroke:black; fill:none;" d="M 485,273L 388,273"/><g><g><path style="stroke:#0ff; stroke-width:8px; fill:none; " opacity="0" d="M 485,273 L 388,273" onmousedown='segmousedown("269","0",evt);' onmouseover='segmouseover("269","0",evt);' onmouseout='segmouseout("269","0",evt);' onclick='segclick("269","0",evt);'/></g></g></g><g id="270"><path style="stroke:#bdbddf; stroke-width:8px; fill:none;" opacity="0.7" d="M 373,288 V 507 a 12,12 0 0,1 -12,12L 142,519"/><g><path style="stroke:#ff0; stroke-width:8px; fill:none; " opacity="0" d="M 373,288 V 507 a 12,12 0 0,1 -12,12L 142,519"/></g><path style="stroke:black; fill:none;" d="M 373,288 V 507 a 12,12 0 0,1 -12,12L 142,519"/><g><g><path style="stroke:#0ff; stroke-width:8px; fill:none; " opacity="0" d="M 373,288 L 373,519" onmousedown='segmousedown("270","0",evt);' onmouseover='segmouseover("270","0",evt);' onmouseout='segmouseout("270","0",evt);' onclick='segclick("270","0",evt);'/><path style="stroke:#0ff; stroke-width:8px; fill:none; " opacity="0" d="M 373,519 L 142,519" onmousedown='segmousedown("270","1",evt);' onmouseover='segmouseover("270","1",evt);' onmouseout='segmouseout("270","1",evt);' onclick='segclick("270","1",evt);'/></g></g></g><g id="271"><path style="stroke:#bdbddf; stroke-width:8px; fill:none;" opacity="0.7" d="M 882,459L 882,524.5"/><g><path style="stroke:#ff0; stroke-width:8px; fill:none; " opacity="0" d="M 882,459L 882,524.5"/></g><path style="stroke:black; fill:none;" d="M 882,459L 882,524.5"/><g><g><path style="stroke:#0ff; stroke-width:8px; fill:none; " opacity="0" d="M 882,459 L 882,524.5" onmousedown='segmousedown("271","0",evt);' onmouseover='segmouseover("271","0",evt);' onmouseout='segmouseout("271","0",evt);' onclick='segclick("271","0",evt);'/></g></g></g>

<g id="272"><path style="stroke:#bdbddf; stroke-width:8px; fill:none;" opacity="0.7" d="M 881,524.5 V 461 a 12,12 0 0,0 -12,-12L 781,449"/><g><path style="stroke:#ff0; stroke-width:8px; fill:none; " opacity="0" d="M 881,524.5 V 461 a 12,12 0 0,0 -12,-12L 781,449"/></g>

<path style="stroke:none; fill:none;" d="M 881,524.5 V 461 a 12,12 0 0,0 -12,-12L 781,449"/>

<g><g><path style="stroke:#0ff; stroke-width:8px; fill:none; " opacity="0" d="M 881,524.5 L 881,449" onmousedown='segmousedown("272","0",evt);' onmouseover='segmouseover("272","0",evt);' onmouseout='segmouseout("272","0",evt);' onclick='segclick("272","0",evt);'/><path style="stroke:#0ff; stroke-width:8px; fill:none; " opacity="0" d="M 881,449 L 781,449" onmousedown='segmousedown("272","1",evt);' onmouseover='segmouseover("272","1",evt);' onmouseout='segmouseout("272","1",evt);' onclick='segclick("272","1",evt);'/></g></g></g>

<g id="273"><path style="stroke:#bdbddf; stroke-width:8px; fill:none;" opacity="0.7" d="M 751,449 H 507 a 12,12 0 0,1 -12,-12L 495,288"/><g><path style="stroke:#ff0; stroke-width:8px; fill:none; " opacity="0" d="M 751,449 H 507 a 12,12 0 0,1 -12,-12L 495,288"/></g><path style="stroke:black; fill:none;" d="M 751,449 H 507 a 12,12 0 0,1 -12,-12L 495,288"/><g><g><path style="stroke:#0ff; stroke-width:8px; fill:none; " opacity="0" d="M 751,449 L 495,449" onmousedown='segmousedown("273","0",evt);' onmouseover='segmouseover("273","0",evt);' onmouseout='segmouseout("273","0",evt);' onclick='segclick("273","0",evt);'/><path style="stroke:#0ff; stroke-width:8px; fill:none; " opacity="0" d="M 495,449 L 495,288" onmousedown='segmousedown("273","1",evt);' onmouseover='segmouseover("273","1",evt);' onmouseout='segmouseout("273","1",evt);' onclick='segclick("273","1",evt);'/></g></g></g><g id="274"><path style="stroke:#bdbddf; stroke-width:8px; fill:none;" opacity="0.7" d="M 157,519 V 214 a 12,12 0 0,0 -12,-12L 132,202"/><g><path style="stroke:#ff0; stroke-width:8px; fill:none; " opacity="0" d="M 157,519 V 214 a 12,12 0 0,0 -12,-12L 132,202"/></g><path style="stroke:black; fill:none;" d="M 157,519 V 214 a 12,12 0 0,0 -12,-12L 132,202"/><g><g><path style="stroke:#0ff; stroke-width:8px; fill:none; " opacity="0" d="M 157,519 L 157,202" onmousedown='segmousedown("274","0",evt);' onmouseover='segmouseover("274","0",evt);' onmouseout='segmouseout("274","0",evt);' onclick='segclick("274","0",evt);'/><path style="stroke:#0ff; stroke-width:8px; fill:none; " opacity="0" d="M 157,202 L 132,202" onmousedown='segmousedown("274","1",evt);' onmouseover='segmouseover("274","1",evt);' onmouseout='segmouseout("274","1",evt);' onclick='segclick("274","1",evt);'/></g></g></g><g id="275"><path style="stroke:#bdbddf; stroke-width:8px; fill:none;" opacity="0.7" d="M 142,519 H 108 a 12,12 0 0,1 -12,-12 V 358 a 12,12 0 0,0 -12,-12L 39,346"/><g><path style="stroke:#ff0; stroke-width:8px; fill:none; " opacity="0" d="M 142,519 H 108 a 12,12 0 0,1 -12,-12 V 358 a 12,12 0 0,0 -12,-12L 39,346"/></g><path style="stroke:black; fill:none;" d="M 142,519 H 108 a 12,12 0 0,1 -12,-12 V 358 a 12,12 0 0,0 -12,-12L 39,346"/><g><g><path style="stroke:#0ff; stroke-width:8px; fill:none; " opacity="0" d="M 142,519 L 96,519" onmousedown='segmousedown("275","0",evt);' onmouseover='segmouseover("275","0",evt);' onmouseout='segmouseout("275","0",evt);' onclick='segclick("275","0",evt);'/><path style="stroke:#0ff; stroke-width:8px; fill:none; " opacity="0" d="M 96,519 L 96,346" onmousedown='segmousedown("275","1",evt);' onmouseover='segmouseover("275","1",evt);' onmouseout='segmouseout("275","1",evt);' onclick='segclick("275","1",evt);'/><path style="stroke:#0ff; stroke-width:8px; fill:none; " opacity="0" d="M 96,346 L 39,346" onmousedown='segmousedown("275","2",evt);' onmouseover='segmouseover("275","2",evt);' onmouseout='segmouseout("275","2",evt);' onclick='segclick("275","2",evt);'/></g></g></g><g id="276"><path style="stroke:#bdbddf; stroke-width:8px; fill:none;" opacity="0.7" d="M 515,262 H 635 a 12,12 0 0,0 12,-12L 647,227"/><g><path style="stroke:#ff0; stroke-width:8px; fill:none; " opacity="0" d="M 515,262 H 635 a 12,12 0 0,0 12,-12L 647,227"/></g><path style="stroke:black; fill:none;" d="M 515,262 H 635 a 12,12 0 0,0 12,-12L 647,227"/><g><g><path style="stroke:#0ff; stroke-width:8px; fill:none; " opacity="0" d="M 515,262 L 647,262" onmousedown='segmousedown("276","0",evt);' onmouseover='segmouseover("276","0",evt);' onmouseout='segmouseout("276","0",evt);' onclick='segclick("276","0",evt);'/><path style="stroke:#0ff; stroke-width:8px; fill:none; " opacity="0" d="M 647,262 L 647,227" onmousedown='segmousedown("276","1",evt);' onmouseover='segmouseover("276","1",evt);' onmouseout='segmouseout("276","1",evt);' onclick='segclick("276","1",evt);'/></g></g></g><g id="277"><path style="stroke:#bdbddf; stroke-width:8px; fill:none;" opacity="0.7" d="M 671,199L 747,199"/><g><path style="stroke:#ff0; stroke-width:8px; fill:none; " opacity="0" d="M 671,199L 747,199"/></g><path style="stroke:black; fill:none;" d="M 671,199L 747,199"/><g><g><path style="stroke:#0ff; stroke-width:8px; fill:none; " opacity="0" d="M 671,199 L 747,199" onmousedown='segmousedown("277","0",evt);' onmouseover='segmouseover("277","0",evt);' onmouseout='segmouseout("277","0",evt);' onclick='segclick("277","0",evt);'/></g></g></g>

<g id="278"><path style="stroke:#bdbddf; stroke-width:8px; fill:none;" opacity="0.7" d="M 762,223 V 431 a 12,12 0 0,1 -12,12 H 706 a 12,12 0 0,1 -12,-12L 694,297"/><g><path style="stroke:#ff0; stroke-width:8px; fill:none; " opacity="0" d="M 762,223 V 431 a 12,12 0 0,1 -12,12 H 706 a 12,12 0 0,1 -12,-12L 694,297"/></g>

<path style="stroke:none; fill:none;" d="M 762,223 V 431 a 12,12 0 0,1 -12,12 H 706 a 12,12 0 0,1 -12,-12L 694,297"/>

<g><g><path style="stroke:#0ff; stroke-width:8px; fill:none; " opacity="0" d="M 762,223 L 762,443" onmousedown='segmousedown("278","0",evt);' onmouseover='segmouseover("278","0",evt);' onmouseout='segmouseout("278","0",evt);' onclick='segclick("278","0",evt);'/><path style="stroke:#0ff; stroke-width:8px; fill:none; " opacity="0" d="M 762,443 L 694,443" onmousedown='segmousedown("278","1",evt);' onmouseover='segmouseover("278","1",evt);' onmouseout='segmouseout("278","1",evt);' onclick='segclick("278","1",evt);'/><path style="stroke:#0ff; stroke-width:8px; fill:none; " opacity="0" d="M 694,443 L 694,297" onmousedown='segmousedown("278","2",evt);' onmouseover='segmouseover("278","2",evt);' onmouseout='segmouseout("278","2",evt);' onclick='segclick("278","2",evt);'/></g></g></g>

<g id="279"><path style="stroke:#bdbddf; stroke-width:8px; fill:none;" opacity="0.7" d="M 679,282L 515,282"/><g><path style="stroke:#ff0; stroke-width:8px; fill:none; " opacity="0" d="M 679,282L 515,282"/></g><path style="stroke:black; fill:none;" d="M 679,282L 515,282"/><g><g><path style="stroke:#0ff; stroke-width:8px; fill:none; " opacity="0" d="M 679,282 L 515,282" onmousedown='segmousedown("279","0",evt);' onmouseover='segmouseover("279","0",evt);' onmouseout='segmouseout("279","0",evt);' onclick='segclick("279","0",evt);'/></g></g></g></g>
  <g id="nodes"><g id="260" onmousedown="nodemousedown(260,evt);" onmouseover="nodemouseover(260,evt);" onmouseout="nodemouseout(260,evt);" transform="translate(132 202)"><rect x="-21" y="-21" width="42" height="42" fill="#0ff" style="stroke:none; opacity:0.75;" display="none"/><rect x="-15" y="-15" width="30" height="30" fill="#f0f0d2" style="stroke:black; opacity:1;"/></g><g id="261" onmousedown="nodemousedown(261,evt);" onmouseover="nodemouseover(261,evt);" onmouseout="nodemouseout(261,evt);" transform="translate(142 519)"><rect x="-31" y="-21" width="62" height="42" fill="#0ff" style="stroke:none; opacity:0.75;" display="none"/><rect x="-25" y="-15" width="50" height="30" fill="#f0f0d2" style="stroke:black; opacity:1;"/></g><g id="262" onmousedown="nodemousedown(262,evt);" onmouseover="nodemouseover(262,evt);" onmouseout="nodemouseout(262,evt);" transform="translate(39 346)"><rect x="-21" y="-21" width="42" height="42" fill="#0ff" style="stroke:none; opacity:0.75;" display="none"/><rect x="-15" y="-15" width="30" height="30" fill="#f0f0d2" style="stroke:black; opacity:1;"/></g><g id="253" onmousedown="nodemousedown(253,evt);" onmouseover="nodemouseover(253,evt);" onmouseout="nodemouseout(253,evt);" transform="translate(851,99)"><rect x="-21" y="-21" width="42" height="42" fill="#0ff" style="stroke:none; opacity:0.75;" display="none"/><rect x="-15" y="-15" width="30" height="30" fill="#f0f0d2" style="stroke:black; opacity:1;"/></g><g id="254" onmousedown="nodemousedown(254,evt);" onmouseover="nodemouseover(254,evt);" onmouseout="nodemouseout(254,evt);" transform="translate(874,294)"><rect x="-32.5" y="-21" width="65" height="42" fill="#0ff" style="stroke:none; opacity:0.75;" display="none"/><rect x="-26.5" y="-15" width="53" height="30" fill="#f0f0d2" style="stroke:black; opacity:1;"/></g><g id="255" onmousedown="nodemousedown(255,evt);" onmouseover="nodemouseover(255,evt);" onmouseout="nodemouseout(255,evt);" transform="translate(882,444)"><rect x="-21" y="-21" width="42" height="42" fill="#0ff" style="stroke:none; opacity:0.75;" display="none"/><rect x="-15" y="-15" width="30" height="30" fill="#f0f0d2" style="stroke:black; opacity:1;"/></g><g id="256" onmousedown="nodemousedown(256,evt);" onmouseover="nodemouseover(256,evt);" onmouseout="nodemouseout(256,evt);" transform="translate(875,550)"><rect x="-27" y="-31.5" width="54" height="63" fill="#0ff" style="stroke:none; opacity:0.75;" display="none"/><rect x="-21" y="-25.5" width="42" height="51" fill="#f0f0d2" style="stroke:black; opacity:1;"/></g><g id="257" onmousedown="nodemousedown(257,evt);" onmouseover="nodemouseover(257,evt);" onmouseout="nodemouseout(257,evt);" transform="translate(766,449)"><rect x="-21" y="-21" width="42" height="42" fill="#0ff" style="stroke:none; opacity:0.75;" display="none"/><rect x="-15" y="-15" width="30" height="30" fill="#f0f0d2" style="stroke:black; opacity:1;"/></g><g id="258" onmousedown="nodemousedown(258,evt);" onmouseover="nodemouseover(258,evt);" onmouseout="nodemouseout(258,evt);" transform="translate(500,273)"><rect x="-21" y="-21" width="42" height="42" fill="#0ff" style="stroke:none; opacity:0.75;" display="none"/><rect x="-15" y="-15" width="30" height="30" fill="#f0f0d2" style="stroke:black; opacity:1;"/></g><g id="263" onmousedown="nodemousedown(263,evt);" onmouseover="nodemouseover(263,evt);" onmouseout="nodemouseout(263,evt);" transform="translate(656,199)"><rect x="-21" y="-34" width="42" height="68" fill="#0ff" style="stroke:none; opacity:0.75;" display="none"/><rect x="-15" y="-28" width="30" height="56" fill="#f0f0d2" style="stroke:black; opacity:1;"/></g><g id="264" onmousedown="nodemousedown(264,evt);" onmouseover="nodemouseover(264,evt);" onmouseout="nodemouseout(264,evt);" transform="translate(762,208)"><rect x="-21" y="-21" width="42" height="42" fill="#0ff" style="stroke:none; opacity:0.75;" display="none"/><rect x="-15" y="-15" width="30" height="30" fill="#f0f0d2" style="stroke:black; opacity:1;"/></g><g id="265" onmousedown="nodemousedown(265,evt);" onmouseover="nodemouseover(265,evt);" onmouseout="nodemouseout(265,evt);" transform="translate(694,282)"><rect x="-21" y="-21" width="42" height="42" fill="#0ff" style="stroke:none; opacity:0.75;" display="none"/><rect x="-15" y="-15" width="30" height="30" fill="#f0f0d2" style="stroke:black; opacity:1;"/></g><g id="259" onmousedown="nodemousedown(259,evt);" onmouseover="nodemouseover(259,evt);" onmouseout="nodemouseout(259,evt);" transform="translate(373,273)"><rect x="-21" y="-21" width="42" height="42" fill="#0ff" style="stroke:none; opacity:0.75;" display="none"/><rect x="-15" y="-15" width="30" height="30" fill="#f0f0d2" style="stroke:black; opacity:1;"/></g></g>
  <g id="BPs"><g onmousedown="bpmousedown(282,evt);" onmouseover="bpmouseover(282,evt);" onmouseout="bpmouseout(282,evt);" transform="translate(865,90)" opacity="0"><ellipse cx="0" cy="0" rx="16" ry="16" fill="#0ff" style="stroke:none; opacity:0.75;" display="none"/><ellipse cx="0" cy="0" rx="6.590815232000002" ry="6.590815232000002" fill="#777" style="stroke:black;"/></g><g onmousedown="bpmousedown(289,evt);" onmouseover="bpmouseover(289,evt);" onmouseout="bpmouseout(289,evt);" transform="translate(491,99)" opacity="0"><ellipse cx="0" cy="0" rx="16" ry="16" fill="#0ff" style="stroke:none; opacity:0.75;" display="none"/><ellipse cx="0" cy="0" rx="6.590815232000002" ry="6.590815232000002" fill="#777" style="stroke:black;"/></g><g onmousedown="bpmousedown(295,evt);" onmouseover="bpmouseover(295,evt);" onmouseout="bpmouseout(295,evt);" transform="translate(373,519)" opacity="0"><ellipse cx="0" cy="0" rx="16" ry="16" fill="#0ff" style="stroke:none; opacity:0.75;" display="none"/><ellipse cx="0" cy="0" rx="6.590815232000002" ry="6.590815232000002" fill="#777" style="stroke:black;"/></g><g onmousedown="bpmousedown(301,evt);" onmouseover="bpmouseover(301,evt);" onmouseout="bpmouseout(301,evt);" transform="translate(881,449)" opacity="0"><ellipse cx="0" cy="0" rx="16" ry="16" fill="#0ff" style="stroke:none; opacity:0.75;" display="none"/><ellipse cx="0" cy="0" rx="6.590815232000002" ry="6.590815232000002" fill="#777" style="stroke:black;"/></g><g onmousedown="bpmousedown(305,evt);" onmouseover="bpmouseover(305,evt);" onmouseout="bpmouseout(305,evt);" transform="translate(495,449)" opacity="0"><ellipse cx="0" cy="0" rx="16" ry="16" fill="#0ff" style="stroke:none; opacity:0.75;" display="none"/><ellipse cx="0" cy="0" rx="6.590815232000002" ry="6.590815232000002" fill="#777" style="stroke:black;"/></g><g onmousedown="bpmousedown(308,evt);" onmouseover="bpmouseover(308,evt);" onmouseout="bpmouseout(308,evt);" transform="translate(157 202)" opacity="0"><ellipse cx="0" cy="0" rx="16" ry="16" fill="#0ff" style="stroke:none; opacity:0.75;" display="none"/><ellipse cx="0" cy="0" rx="10" ry="10" fill="#777" style="stroke:black;"/></g><g onmousedown="bpmousedown(311,evt);" onmouseover="bpmouseover(311,evt);" onmouseout="bpmouseout(311,evt);" transform="translate(96 519)" opacity="0"><ellipse cx="0" cy="0" rx="16" ry="16" fill="#0ff" style="stroke:none; opacity:0.75;" display="none"/><ellipse cx="0" cy="0" rx="6.590815232000002" ry="6.590815232000002" fill="#777" style="stroke:black;"/></g><g onmousedown="bpmousedown(312,evt);" onmouseover="bpmouseover(312,evt);" onmouseout="bpmouseout(312,evt);" transform="translate(96 346)" opacity="0"><ellipse cx="0" cy="0" rx="16" ry="16" fill="#0ff" style="stroke:none; opacity:0.75;" display="none"/><ellipse cx="0" cy="0" rx="10" ry="10" fill="#777" style="stroke:black;"/></g><g onmousedown="bpmousedown(328,evt);" onmouseover="bpmouseover(328,evt);" onmouseout="bpmouseout(328,evt);" transform="translate(647,262)" opacity="0"><ellipse cx="0" cy="0" rx="16" ry="16" fill="#0ff" style="stroke:none; opacity:0.75;" display="none"/><ellipse cx="0" cy="0" rx="6.590815232000002" ry="6.590815232000002" fill="#777" style="stroke:black;"/></g><g onmousedown="bpmousedown(332,evt);" onmouseover="bpmouseover(332,evt);" onmouseout="bpmouseout(332,evt);" transform="translate(762,443)" opacity="0"><ellipse cx="0" cy="0" rx="16" ry="16" fill="#0ff" style="stroke:none; opacity:0.75;" display="none"/><ellipse cx="0" cy="0" rx="6.590815232000002" ry="6.590815232000002" fill="#777" style="stroke:black;"/></g><g onmousedown="bpmousedown(333,evt);" onmouseover="bpmouseover(333,evt);" onmouseout="bpmouseout(333,evt);" transform="translate(694,443)" opacity="0"><ellipse cx="0" cy="0" rx="16" ry="16" fill="#0ff" style="stroke:none; opacity:0.75;" display="none"/><ellipse cx="0" cy="0" rx="6.590815232000002" ry="6.590815232000002" fill="#777" style="stroke:black;"/></g></g>
  <g id="ports"/>
  <path style="stroke:black; fill:none;" d="M 881,524.5 V 461 a 12,12 0 0,0 -12,-12L 781,449"/>
  <path style="stroke:black; fill:none;" d="M 762,223 V 431 a 12,12 0 0,1 -12,12 H 706 a 12,12 0 0,1 -12,-12L 694,297"/>
</g>
</svg>
