<svg xmlns:xlink="http://www.w3.org/1999/xlink" xmlns="http://www.w3.org/2000/svg" height="270px" width="480px" id="SVGCanvas" onmouseup="" onmousemove="">
<rect fill="#bdbddf" width="100%" height="100%" y="0" x="0" id="background" onmousedown="bgmousedown(evt)"/>
<g id="foreground" transform="translate(8.965014577259467,0),scale(0.7871720116618076),translate(-27,-27)">
  <g id="edges"><g id="241"><path style="stroke:#bdbddf; stroke-width:8px; fill:none;" opacity="0.7" d="M 211,340L 525,340"/><g><path style="stroke:#ff0; stroke-width:8px; fill:none; " opacity="0" d="M 211,340L 525,340"/></g><path style="stroke:black; fill:none;" d="M 211,340L 525,340"/><g><g><path style="stroke:#0ff; stroke-width:8px; fill:none; " opacity="0" d="M 211,340 L 525,340" onmousedown='segmousedown("241","0",evt);' onmouseover='segmouseover("241","0",evt);' onmouseout='segmouseout("241","0",evt);' onclick='segclick("241","0",evt);'/></g></g></g><g id="242"><path style="stroke:#bdbddf; stroke-width:8px; fill:none;" opacity="0.7" d="M 525,334 H 577 a 12,12 0 0,0 12,-12 V 91 a 12,12 0 0,0 -12,-12L 554,79"/><g><path style="stroke:#ff0; stroke-width:8px; fill:none; " opacity="0" d="M 525,334 H 577 a 12,12 0 0,0 12,-12 V 91 a 12,12 0 0,0 -12,-12L 554,79"/></g><path style="stroke:black; fill:none;" d="M 525,334 H 577 a 12,12 0 0,0 12,-12 V 91 a 12,12 0 0,0 -12,-12L 554,79"/><g><g><path style="stroke:#0ff; stroke-width:8px; fill:none; " opacity="0" d="M 525,334 L 589,334" onmousedown='segmousedown("242","0",evt);' onmouseover='segmouseover("242","0",evt);' onmouseout='segmouseout("242","0",evt);' onclick='segclick("242","0",evt);'/><path style="stroke:#0ff; stroke-width:8px; fill:none; " opacity="0" d="M 589,334 L 589,79" onmousedown='segmousedown("242","1",evt);' onmouseover='segmouseover("242","1",evt);' onmouseout='segmouseout("242","1",evt);' onclick='segclick("242","1",evt);'/><path style="stroke:#0ff; stroke-width:8px; fill:none; " opacity="0" d="M 589,79 L 554,79" onmousedown='segmousedown("242","2",evt);' onmouseover='segmouseover("242","2",evt);' onmouseout='segmouseout("242","2",evt);' onclick='segclick("242","2",evt);'/></g></g></g><g id="243"><path style="stroke:#bdbddf; stroke-width:8px; fill:none;" opacity="0.7" d="M 524,79L 226,79"/><g><path style="stroke:#ff0; stroke-width:8px; fill:none; " opacity="0" d="M 524,79L 226,79"/></g><path style="stroke:black; fill:none;" d="M 524,79L 226,79"/><g><g><path style="stroke:#0ff; stroke-width:8px; fill:none; " opacity="0" d="M 524,79 L 226,79" onmousedown='segmousedown("243","0",evt);' onmouseover='segmouseover("243","0",evt);' onmouseout='segmouseout("243","0",evt);' onclick='segclick("243","0",evt);'/></g></g></g><g id="244"><path style="stroke:#bdbddf; stroke-width:8px; fill:none;" opacity="0.7" d="M 218,79L 218,340"/><g><path style="stroke:#ff0; stroke-width:8px; fill:none; " opacity="0" d="M 218,79L 218,340"/></g><path style="stroke:black; fill:none;" d="M 218,79L 218,340"/><g><g><path style="stroke:#0ff; stroke-width:8px; fill:none; " opacity="0" d="M 218,79 L 218,340" onmousedown='segmousedown("244","0",evt);' onmouseover='segmouseover("244","0",evt);' onmouseout='segmouseout("244","0",evt);' onclick='segclick("244","0",evt);'/></g></g></g><g id="245"><path style="stroke:#bdbddf; stroke-width:8px; fill:none;" opacity="0.7" d="M 525,319L 525,269"/><g><path style="stroke:#ff0; stroke-width:8px; fill:none; " opacity="0" d="M 525,319L 525,269"/></g><path style="stroke:black; fill:none;" d="M 525,319L 525,269"/><g><g><path style="stroke:#0ff; stroke-width:8px; fill:none; " opacity="0" d="M 525,319 L 525,269" onmousedown='segmousedown("245","0",evt);' onmouseover='segmouseover("245","0",evt);' onmouseout='segmouseout("245","0",evt);' onclick='segclick("245","0",evt);'/></g></g></g><g id="246"><path style="stroke:#bdbddf; stroke-width:8px; fill:none;" opacity="0.7" d="M 525,254L 470,254"/><g><path style="stroke:#ff0; stroke-width:8px; fill:none; " opacity="0" d="M 525,254L 470,254"/></g><path style="stroke:black; fill:none;" d="M 525,254L 470,254"/><g><g><path style="stroke:#0ff; stroke-width:8px; fill:none; " opacity="0" d="M 525,254 L 470,254" onmousedown='segmousedown("246","0",evt);' onmouseover='segmouseover("246","0",evt);' onmouseout='segmouseout("246","0",evt);' onclick='segclick("246","0",evt);'/></g></g></g><g id="247"><path style="stroke:#bdbddf; stroke-width:8px; fill:none;" opacity="0.7" d="M 440,254L 400,254"/><g><path style="stroke:#ff0; stroke-width:8px; fill:none; " opacity="0" d="M 440,254L 400,254"/></g><path style="stroke:black; fill:none;" d="M 440,254L 400,254"/><g><g><path style="stroke:#0ff; stroke-width:8px; fill:none; " opacity="0" d="M 440,254 L 400,254" onmousedown='segmousedown("247","0",evt);' onmouseover='segmouseover("247","0",evt);' onmouseout='segmouseout("247","0",evt);' onclick='segclick("247","0",evt);'/></g></g></g><g id="248"><path style="stroke:#bdbddf; stroke-width:8px; fill:none;" opacity="0.7" d="M 370,254L 338,254"/><g><path style="stroke:#ff0; stroke-width:8px; fill:none; " opacity="0" d="M 370,254L 338,254"/></g><path style="stroke:black; fill:none;" d="M 370,254L 338,254"/><g><g><path style="stroke:#0ff; stroke-width:8px; fill:none; " opacity="0" d="M 370,254 L 338,254" onmousedown='segmousedown("248","0",evt);' onmouseover='segmouseover("248","0",evt);' onmouseout='segmouseout("248","0",evt);' onclick='segclick("248","0",evt);'/></g></g></g><g id="249"><path style="stroke:#bdbddf; stroke-width:8px; fill:none;" opacity="0.7" d="M 202,79 V 111 a 12,12 0 0,1 -12,12L 130,123"/><g><path style="stroke:#ff0; stroke-width:8px; fill:none; " opacity="0" d="M 202,79 V 111 a 12,12 0 0,1 -12,12L 130,123"/></g><path style="stroke:black; fill:none;" d="M 202,79 V 111 a 12,12 0 0,1 -12,12L 130,123"/><g><g><path style="stroke:#0ff; stroke-width:8px; fill:none; " opacity="0" d="M 202,79 L 202,123" onmousedown='segmousedown("249","0",evt);' onmouseover='segmouseover("249","0",evt);' onmouseout='segmouseout("249","0",evt);' onclick='segclick("249","0",evt);'/><path style="stroke:#0ff; stroke-width:8px; fill:none; " opacity="0" d="M 202,123 L 130,123" onmousedown='segmousedown("249","1",evt);' onmouseover='segmouseover("249","1",evt);' onmouseout='segmouseout("249","1",evt);' onclick='segclick("249","1",evt);'/></g></g></g><g id="250"><path style="stroke:#bdbddf; stroke-width:8px; fill:none;" opacity="0.7" d="M 130,123L 130,72"/><g><path style="stroke:#ff0; stroke-width:8px; fill:none; " opacity="0" d="M 130,123L 130,72"/></g><path style="stroke:black; fill:none;" d="M 130,123L 130,72"/><g><g><path style="stroke:#0ff; stroke-width:8px; fill:none; " opacity="0" d="M 130,123 L 130,72" onmousedown='segmousedown("250","0",evt);' onmouseover='segmouseover("250","0",evt);' onmouseout='segmouseout("250","0",evt);' onclick='segclick("250","0",evt);'/></g></g></g><g id="251"><path style="stroke:#bdbddf; stroke-width:8px; fill:none;" opacity="0.7" d="M 115,57L 72,57"/><g><path style="stroke:#ff0; stroke-width:8px; fill:none; " opacity="0" d="M 115,57L 72,57"/></g><path style="stroke:black; fill:none;" d="M 115,57L 72,57"/><g><g><path style="stroke:#0ff; stroke-width:8px; fill:none; " opacity="0" d="M 115,57 L 72,57" onmousedown='segmousedown("251","0",evt);' onmouseover='segmouseover("251","0",evt);' onmouseout='segmouseout("251","0",evt);' onclick='segclick("251","0",evt);'/></g></g></g><g id="252"><path style="stroke:#bdbddf; stroke-width:8px; fill:none;" opacity="0.7" d="M 133,123L 133,191"/><g><path style="stroke:#ff0; stroke-width:8px; fill:none; " opacity="0" d="M 133,123L 133,191"/></g><path style="stroke:black; fill:none;" d="M 133,123L 133,191"/><g><g><path style="stroke:#0ff; stroke-width:8px; fill:none; " opacity="0" d="M 133,123 L 133,191" onmousedown='segmousedown("252","0",evt);' onmouseover='segmouseover("252","0",evt);' onmouseout='segmouseout("252","0",evt);' onclick='segclick("252","0",evt);'/></g></g></g></g>
  <g id="nodes"><g id="229" onmousedown="nodemousedown(229,evt);" onmouseover="nodemouseover(229,evt);" onmouseout="nodemouseout(229,evt);" transform="translate(211 79)"><rect x="-21" y="-21" width="42" height="42" fill="#0ff" style="stroke:none; opacity:0.75;" display="none"/><rect x="-15" y="-15" width="30" height="30" fill="#f0f0d2" style="stroke:black; opacity:1;"/></g><g id="230" onmousedown="nodemousedown(230,evt);" onmouseover="nodemouseover(230,evt);" onmouseout="nodemouseout(230,evt);" transform="translate(211 340)"><rect x="-21" y="-21" width="42" height="42" fill="#0ff" style="stroke:none; opacity:0.75;" display="none"/><rect x="-15" y="-15" width="30" height="30" fill="#f0f0d2" style="stroke:black; opacity:1;"/></g><g id="231" onmousedown="nodemousedown(231,evt);" onmouseover="nodemouseover(231,evt);" onmouseout="nodemouseout(231,evt);" transform="translate(525 334)"><rect x="-21" y="-21" width="42" height="42" fill="#0ff" style="stroke:none; opacity:0.75;" display="none"/><rect x="-15" y="-15" width="30" height="30" fill="#f0f0d2" style="stroke:black; opacity:1;"/></g><g id="237" onmousedown="nodemousedown(237,evt);" onmouseover="nodemouseover(237,evt);" onmouseout="nodemouseout(237,evt);" transform="translate(130 123)"><rect x="-21" y="-21" width="42" height="42" fill="#0ff" style="stroke:none; opacity:0.75;" display="none"/><rect x="-15" y="-15" width="30" height="30" fill="#f0f0d2" style="stroke:black; opacity:1;"/></g><g id="238" onmousedown="nodemousedown(238,evt);" onmouseover="nodemouseover(238,evt);" onmouseout="nodemouseout(238,evt);" transform="translate(138,206)"><rect x="-21" y="-21" width="42" height="42" fill="#0ff" style="stroke:none; opacity:0.75;" display="none"/><rect x="-15" y="-15" width="30" height="30" fill="#f0f0d2" style="stroke:black; opacity:1;"/></g><g id="239" onmousedown="nodemousedown(239,evt);" onmouseover="nodemouseover(239,evt);" onmouseout="nodemouseout(239,evt);" transform="translate(130,57)"><rect x="-21" y="-21" width="42" height="42" fill="#0ff" style="stroke:none; opacity:0.75;" display="none"/><rect x="-15" y="-15" width="30" height="30" fill="#f0f0d2" style="stroke:black; opacity:1;"/></g><g id="240" onmousedown="nodemousedown(240,evt);" onmouseover="nodemouseover(240,evt);" onmouseout="nodemouseout(240,evt);" transform="translate(57,60)"><rect x="-21" y="-21" width="42" height="42" fill="#0ff" style="stroke:none; opacity:0.75;" display="none"/><rect x="-15" y="-15" width="30" height="30" fill="#f0f0d2" style="stroke:black; opacity:1;"/></g><g id="232" onmousedown="nodemousedown(232,evt);" onmouseover="nodemouseover(232,evt);" onmouseout="nodemouseout(232,evt);" transform="translate(539,79)"><rect x="-21" y="-21" width="42" height="42" fill="#0ff" style="stroke:none; opacity:0.75;" display="none"/><rect x="-15" y="-15" width="30" height="30" fill="#f0f0d2" style="stroke:black; opacity:1;"/></g><g id="233" onmousedown="nodemousedown(233,evt);" onmouseover="nodemouseover(233,evt);" onmouseout="nodemouseout(233,evt);" transform="translate(525,254)"><rect x="-21" y="-21" width="42" height="42" fill="#0ff" style="stroke:none; opacity:0.75;" display="none"/><rect x="-15" y="-15" width="30" height="30" fill="#f0f0d2" style="stroke:black; opacity:1;"/></g><g id="234" onmousedown="nodemousedown(234,evt);" onmouseover="nodemouseover(234,evt);" onmouseout="nodemouseout(234,evt);" transform="translate(455,254)"><rect x="-21" y="-21" width="42" height="42" fill="#0ff" style="stroke:none; opacity:0.75;" display="none"/><rect x="-15" y="-15" width="30" height="30" fill="#f0f0d2" style="stroke:black; opacity:1;"/></g><g id="235" onmousedown="nodemousedown(235,evt);" onmouseover="nodemouseover(235,evt);" onmouseout="nodemouseout(235,evt);" transform="translate(385,254)"><rect x="-21" y="-21" width="42" height="42" fill="#0ff" style="stroke:none; opacity:0.75;" display="none"/><rect x="-15" y="-15" width="30" height="30" fill="#f0f0d2" style="stroke:black; opacity:1;"/></g><g id="236" onmousedown="nodemousedown(236,evt);" onmouseover="nodemouseover(236,evt);" onmouseout="nodemouseout(236,evt);" transform="translate(323,254)"><rect x="-21" y="-21" width="42" height="42" fill="#0ff" style="stroke:none; opacity:0.75;" display="none"/><rect x="-15" y="-15" width="30" height="30" fill="#f0f0d2" style="stroke:black; opacity:1;"/></g></g>
  <g id="BPs"><g onmousedown="bpmousedown(257,evt);" onmouseover="bpmouseover(257,evt);" onmouseout="bpmouseout(257,evt);" transform="translate(589 334)" opacity="0"><ellipse cx="0" cy="0" rx="16" ry="16" fill="#0ff" style="stroke:none; opacity:0.75;" display="none"/><ellipse cx="0" cy="0" rx="6.063550013440001" ry="6.063550013440001" fill="#777" style="stroke:black;"/></g><g onmousedown="bpmousedown(258,evt);" onmouseover="bpmouseover(258,evt);" onmouseout="bpmouseout(258,evt);" transform="translate(589,79)" opacity="0"><ellipse cx="0" cy="0" rx="16" ry="16" fill="#0ff" style="stroke:none; opacity:0.75;" display="none"/><ellipse cx="0" cy="0" rx="6.063550013440001" ry="6.063550013440001" fill="#777" style="stroke:black;"/></g><g onmousedown="bpmousedown(281,evt);" onmouseover="bpmouseover(281,evt);" onmouseout="bpmouseout(281,evt);" transform="translate(202 123)" opacity="0"><ellipse cx="0" cy="0" rx="16" ry="16" fill="#0ff" style="stroke:none; opacity:0.75;" display="none"/><ellipse cx="0" cy="0" rx="10" ry="10" fill="#777" style="stroke:black;"/></g></g>
  <g id="ports"/>
</g>
</svg>