<svg xmlns:xlink="http://www.w3.org/1999/xlink" xmlns="http://www.w3.org/2000/svg" height="270px" width="480px" id="SVGCanvas" onmouseup="" onmousemove="">
<rect fill="#bdbddf" width="100%" height="100%" y="0" x="0" id="background" onmousedown="bgmousedown(evt)"/>
<g id="foreground" transform="translate(71.0161662817552,0),scale(0.6235565819861432),translate(-309,-64)">
  <g id="edges"><g id="328"><path style="stroke:#bdbddf; stroke-width:8px; fill:none;" opacity="0.7" d="M 691,452L 691,319"/><g><path style="stroke:#ff0; stroke-width:8px; fill:none; " opacity="0" d="M 691,452L 691,319"/></g><path style="stroke:black; fill:none;" d="M 691,452L 691,319"/><g><g><path style="stroke:#0ff; stroke-width:8px; fill:none; " opacity="0" d="M 691,452 L 691,319" onmousedown='segmousedown("328","0",evt);' onmouseover='segmouseover("328","0",evt);' onmouseout='segmouseout("328","0",evt);' onclick='segclick("328","0",evt);'/></g></g></g><g id="329"><path style="stroke:#bdbddf; stroke-width:8px; fill:none;" opacity="0.7" d="M 694,289L 694,248"/><g><path style="stroke:#ff0; stroke-width:8px; fill:none; " opacity="0" d="M 694,289L 694,248"/></g><path style="stroke:black; fill:none;" d="M 694,289L 694,248"/><g><g><path style="stroke:#0ff; stroke-width:8px; fill:none; " opacity="0" d="M 694,289 L 694,248" onmousedown='segmousedown("329","0",evt);' onmouseover='segmouseover("329","0",evt);' onmouseout='segmouseout("329","0",evt);' onclick='segclick("329","0",evt);'/></g></g></g><g id="330"><path style="stroke:#bdbddf; stroke-width:8px; fill:none;" opacity="0.7" d="M 412,467L 682,467"/><g><path style="stroke:#ff0; stroke-width:8px; fill:none; " opacity="0" d="M 412,467L 682,467"/></g><path style="stroke:black; fill:none;" d="M 412,467L 682,467"/><g><g><path style="stroke:#0ff; stroke-width:8px; fill:none; " opacity="0" d="M 412,467 L 682,467" onmousedown='segmousedown("330","0",evt);' onmouseover='segmouseover("330","0",evt);' onmouseout='segmouseout("330","0",evt);' onclick='segclick("330","0",evt);'/></g></g></g><g id="331"><path style="stroke:#bdbddf; stroke-width:8px; fill:none;" opacity="0.7" d="M 679,225 H 409 a 12,12 0 0,0 -12,12L 397,452"/><g><path style="stroke:#ff0; stroke-width:8px; fill:none; " opacity="0" d="M 679,225 H 409 a 12,12 0 0,0 -12,12L 397,452"/></g><path style="stroke:black; fill:none;" d="M 679,225 H 409 a 12,12 0 0,0 -12,12L 397,452"/><g><g><path style="stroke:#0ff; stroke-width:8px; fill:none; " opacity="0" d="M 679,225 L 397,225" onmousedown='segmousedown("331","0",evt);' onmouseover='segmouseover("331","0",evt);' onmouseout='segmouseout("331","0",evt);' onclick='segclick("331","0",evt);'/><path style="stroke:#0ff; stroke-width:8px; fill:none; " opacity="0" d="M 397,225 L 397,452" onmousedown='segmousedown("331","1",evt);' onmouseover='segmouseover("331","1",evt);' onmouseout='segmouseout("331","1",evt);' onclick='segclick("331","1",evt);'/></g></g></g><g id="332"><path style="stroke:#bdbddf; stroke-width:8px; fill:none;" opacity="0.7" d="M 723,170 V 238 a 7,7 0 0,1 -7,7L 709,245"/><g><path style="stroke:#ff0; stroke-width:8px; fill:none; " opacity="0" d="M 723,170 V 238 a 7,7 0 0,1 -7,7L 709,245"/></g><path style="stroke:black; fill:none;" d="M 723,170 V 238 a 7,7 0 0,1 -7,7L 709,245"/><g><g><path style="stroke:#0ff; stroke-width:8px; fill:none; " opacity="0" d="M 723,170 L 723,170" onmousedown='segmousedown("332","0",evt);' onmouseover='segmouseover("332","0",evt);' onmouseout='segmouseout("332","0",evt);' onclick='segclick("332","0",evt);'/><path style="stroke:#0ff; stroke-width:8px; fill:none; " opacity="0" d="M 723,170 L 723,245" onmousedown='segmousedown("332","1",evt);' onmouseover='segmouseover("332","1",evt);' onmouseout='segmouseout("332","1",evt);' onclick='segclick("332","1",evt);'/><path style="stroke:#0ff; stroke-width:8px; fill:none; " opacity="0" d="M 723,245 L 709,245" onmousedown='segmousedown("332","2",evt);' onmouseover='segmouseover("332","2",evt);' onmouseout='segmouseout("332","2",evt);' onclick='segclick("332","2",evt);'/></g></g></g><g id="333"><path style="stroke:#bdbddf; stroke-width:8px; fill:none;" opacity="0.7" d="M 693,170L 467,170"/><g><path style="stroke:#ff0; stroke-width:8px; fill:none; " opacity="0" d="M 693,170L 467,170"/></g><path style="stroke:black; fill:none;" d="M 693,170L 467,170"/><g><g><path style="stroke:#0ff; stroke-width:8px; fill:none; " opacity="0" d="M 693,170 L 467,170" onmousedown='segmousedown("333","0",evt);' onmouseover='segmouseover("333","0",evt);' onmouseout='segmouseout("333","0",evt);' onclick='segclick("333","0",evt);'/></g></g></g><g id="334"><path style="stroke:#bdbddf; stroke-width:8px; fill:none;" opacity="0.7" d="M 451,155L 451,119"/><g><path style="stroke:#ff0; stroke-width:8px; fill:none; " opacity="0" d="M 451,155L 451,119"/></g><path style="stroke:black; fill:none;" d="M 451,155L 451,119"/><g><g><path style="stroke:#0ff; stroke-width:8px; fill:none; " opacity="0" d="M 451,155 L 451,119" onmousedown='segmousedown("334","0",evt);' onmouseover='segmouseover("334","0",evt);' onmouseout='segmouseout("334","0",evt);' onclick='segclick("334","0",evt);'/></g></g></g><g id="335"><path style="stroke:#bdbddf; stroke-width:8px; fill:none;" opacity="0.7" d="M 459,170 V 170.5 a 0.5,0.5 0 0,1 -0.5,0.5L 354,171"/><g><path style="stroke:#ff0; stroke-width:8px; fill:none; " opacity="0" d="M 459,170 V 170.5 a 0.5,0.5 0 0,1 -0.5,0.5L 354,171"/></g><path style="stroke:black; fill:none;" d="M 459,170 V 170.5 a 0.5,0.5 0 0,1 -0.5,0.5L 354,171"/><g><g><path style="stroke:#0ff; stroke-width:8px; fill:none; " opacity="0" d="M 459,170 L 459,171" onmousedown='segmousedown("335","0",evt);' onmouseover='segmouseover("335","0",evt);' onmouseout='segmouseout("335","0",evt);' onclick='segclick("335","0",evt);'/><path style="stroke:#0ff; stroke-width:8px; fill:none; " opacity="0" d="M 459,171 L 354,171" onmousedown='segmousedown("335","1",evt);' onmouseover='segmouseover("335","1",evt);' onmouseout='segmouseout("335","1",evt);' onclick='segclick("335","1",evt);'/></g></g></g><g id="336"><path style="stroke:#bdbddf; stroke-width:8px; fill:none;" opacity="0.7" d="M 693,170 H 703.5 a 10.5,10.5 0 0,0 10.5,-10.5L 714,109"/><g><path style="stroke:#ff0; stroke-width:8px; fill:none; " opacity="0" d="M 693,170 H 703.5 a 10.5,10.5 0 0,0 10.5,-10.5L 714,109"/></g><path style="stroke:black; fill:none;" d="M 693,170 H 703.5 a 10.5,10.5 0 0,0 10.5,-10.5L 714,109"/><g><g><path style="stroke:#0ff; stroke-width:8px; fill:none; " opacity="0" d="M 693,170 L 714,170" onmousedown='segmousedown("336","0",evt);' onmouseover='segmouseover("336","0",evt);' onmouseout='segmouseout("336","0",evt);' onclick='segclick("336","0",evt);'/><path style="stroke:#0ff; stroke-width:8px; fill:none; " opacity="0" d="M 714,170 L 714,109" onmousedown='segmousedown("336","1",evt);' onmouseover='segmouseover("336","1",evt);' onmouseout='segmouseout("336","1",evt);' onclick='segclick("336","1",evt);'/></g></g></g><g id="337"><path style="stroke:#bdbddf; stroke-width:8px; fill:none;" opacity="0.7" d="M 723,170L 806,170"/><g><path style="stroke:#ff0; stroke-width:8px; fill:none; " opacity="0" d="M 723,170L 806,170"/></g><path style="stroke:black; fill:none;" d="M 723,170L 806,170"/><g><g><path style="stroke:#0ff; stroke-width:8px; fill:none; " opacity="0" d="M 723,170 L 806,170" onmousedown='segmousedown("337","0",evt);' onmouseover='segmouseover("337","0",evt);' onmouseout='segmouseout("337","0",evt);' onclick='segclick("337","0",evt);'/></g></g></g></g>
  <g id="nodes"><g id="323" onmousedown="nodemousedown(323,evt);" onmouseover="nodemouseover(323,evt);" onmouseout="nodemouseout(323,evt);" transform="translate(452 170)"><rect x="-21" y="-21" width="42" height="42" fill="#0ff" style="stroke:none; opacity:0.75;" display="none"/><rect x="-15" y="-15" width="30" height="30" fill="#f0f0d2" style="stroke:black; opacity:1;"/></g><g id="322" onmousedown="nodemousedown(322,evt);" onmouseover="nodemouseover(322,evt);" onmouseout="nodemouseout(322,evt);" transform="translate(708,170)"><rect x="-21" y="-21" width="42" height="42" fill="#0ff" style="stroke:none; opacity:0.75;" display="none"/><rect x="-15" y="-15" width="30" height="30" fill="#f0f0d2" style="stroke:black; opacity:1;"/></g><g id="324" onmousedown="nodemousedown(324,evt);" onmouseover="nodemouseover(324,evt);" onmouseout="nodemouseout(324,evt);" transform="translate(714,94)"><rect x="-21" y="-21" width="42" height="42" fill="#0ff" style="stroke:none; opacity:0.75;" display="none"/><rect x="-15" y="-15" width="30" height="30" fill="#f0f0d2" style="stroke:black; opacity:1;"/></g><g id="321" onmousedown="nodemousedown(321,evt);" onmouseover="nodemouseover(321,evt);" onmouseout="nodemouseout(321,evt);" transform="translate(694,233)"><rect x="-21" y="-21" width="42" height="42" fill="#0ff" style="stroke:none; opacity:0.75;" display="none"/><rect x="-15" y="-15" width="30" height="30" fill="#f0f0d2" style="stroke:black; opacity:1;"/></g><g id="320" onmousedown="nodemousedown(320,evt);" onmouseover="nodemouseover(320,evt);" onmouseout="nodemouseout(320,evt);" transform="translate(691,304)"><rect x="-21" y="-21" width="42" height="42" fill="#0ff" style="stroke:none; opacity:0.75;" display="none"/><rect x="-15" y="-15" width="30" height="30" fill="#f0f0d2" style="stroke:black; opacity:1;"/></g><g id="319" onmousedown="nodemousedown(319,evt);" onmouseover="nodemouseover(319,evt);" onmouseout="nodemouseout(319,evt);" transform="translate(697,467)"><rect x="-21" y="-21" width="42" height="42" fill="#0ff" style="stroke:none; opacity:0.75;" display="none"/><rect x="-15" y="-15" width="30" height="30" fill="#f0f0d2" style="stroke:black; opacity:1;"/></g><g id="318" onmousedown="nodemousedown(318,evt);" onmouseover="nodemouseover(318,evt);" onmouseout="nodemouseout(318,evt);" transform="translate(397,467)"><rect x="-21" y="-21" width="42" height="42" fill="#0ff" style="stroke:none; opacity:0.75;" display="none"/><rect x="-15" y="-15" width="30" height="30" fill="#f0f0d2" style="stroke:black; opacity:1;"/></g><g id="327" onmousedown="nodemousedown(327,evt);" onmouseover="nodemouseover(327,evt);" onmouseout="nodemouseout(327,evt);" transform="translate(821,177)"><rect x="-21" y="-21" width="42" height="42" fill="#0ff" style="stroke:none; opacity:0.75;" display="none"/><rect x="-15" y="-15" width="30" height="30" fill="#f0f0d2" style="stroke:black; opacity:1;"/></g><g id="326" onmousedown="nodemousedown(326,evt);" onmouseover="nodemouseover(326,evt);" onmouseout="nodemouseout(326,evt);" transform="translate(339,171)"><rect x="-21" y="-21" width="42" height="42" fill="#0ff" style="stroke:none; opacity:0.75;" display="none"/><rect x="-15" y="-15" width="30" height="30" fill="#f0f0d2" style="stroke:black; opacity:1;"/></g><g id="325" onmousedown="nodemousedown(325,evt);" onmouseover="nodemouseover(325,evt);" onmouseout="nodemouseout(325,evt);" transform="translate(441,104)"><rect x="-21" y="-21" width="42" height="42" fill="#0ff" style="stroke:none; opacity:0.75;" display="none"/><rect x="-15" y="-15" width="30" height="30" fill="#f0f0d2" style="stroke:black; opacity:1;"/></g></g>
  <g id="BPs"><g onmousedown="bpmousedown(351,evt);" onmouseover="bpmouseover(351,evt);" onmouseout="bpmouseout(351,evt);" transform="translate(397,225)" opacity="0"><ellipse cx="0" cy="0" rx="16" ry="16" fill="#0ff" style="stroke:none; opacity:0.75;" display="none"/><ellipse cx="0" cy="0" rx="6.590815232000002" ry="6.590815232000002" fill="#777" style="stroke:black;"/></g><g onmousedown="bpmousedown(354,evt);" onmouseover="bpmouseover(354,evt);" onmouseout="bpmouseout(354,evt);" transform="translate(723,170)" opacity="0"><ellipse cx="0" cy="0" rx="16" ry="16" fill="#0ff" style="stroke:none; opacity:0.75;" display="none"/><ellipse cx="0" cy="0" rx="6.590815232000002" ry="6.590815232000002" fill="#777" style="stroke:black;"/></g><g onmousedown="bpmousedown(355,evt);" onmouseover="bpmouseover(355,evt);" onmouseout="bpmouseout(355,evt);" transform="translate(723,245)" opacity="0"><ellipse cx="0" cy="0" rx="16" ry="16" fill="#0ff" style="stroke:none; opacity:0.75;" display="none"/><ellipse cx="0" cy="0" rx="6.590815232000002" ry="6.590815232000002" fill="#777" style="stroke:black;"/></g><g onmousedown="bpmousedown(364,evt);" onmouseover="bpmouseover(364,evt);" onmouseout="bpmouseout(364,evt);" transform="translate(459,171)" opacity="0"><ellipse cx="0" cy="0" rx="16" ry="16" fill="#0ff" style="stroke:none; opacity:0.75;" display="none"/><ellipse cx="0" cy="0" rx="6.590815232000002" ry="6.590815232000002" fill="#777" style="stroke:black;"/></g><g onmousedown="bpmousedown(367,evt);" onmouseover="bpmouseover(367,evt);" onmouseout="bpmouseout(367,evt);" transform="translate(714,170)" opacity="0"><ellipse cx="0" cy="0" rx="16" ry="16" fill="#0ff" style="stroke:none; opacity:0.75;" display="none"/><ellipse cx="0" cy="0" rx="6.590815232000002" ry="6.590815232000002" fill="#777" style="stroke:black;"/></g></g>
  <g id="ports"/>
</g>
</svg>