<svg xmlns:xlink="http://www.w3.org/1999/xlink" xmlns="http://www.w3.org/2000/svg" height="270px" width="480px" id="SVGCanvas" onmouseup="" onmousemove="">
<rect fill="#bdbddf" width="100%" height="100%" y="0" x="0" id="background" onmousedown="bgmousedown(evt)"/>
<g id="foreground" transform="translate(120.04341534008684,0),scale(0.7814761215629522),translate(-116,-116)">
  <g id="edges"><g id="169"><path style="stroke:#bdbddf; stroke-width:8px; fill:none;" opacity="0.7" d="M 195,146L 378,146"/><g><path style="stroke:#ff0; stroke-width:8px; fill:none; " opacity="0" d="M 195,146L 378,146"/></g><path style="stroke:black; fill:none;" d="M 195,146L 378,146"/><g><g><path style="stroke:#0ff; stroke-width:8px; fill:none; " opacity="0" d="M 195,146 L 378,146" onmousedown='segmousedown("169","0",evt);' onmouseover='segmouseover("169","0",evt);' onmouseout='segmouseout("169","0",evt);' onclick='segclick("169","0",evt);'/></g></g></g><g id="170"><path style="stroke:#bdbddf; stroke-width:8px; fill:none;" opacity="0.7" d="M 393,161 V 186 a 12,12 0 0,1 -12,12 H 276 a 12,12 0 0,0 -12,12L 264,230"/><g><path style="stroke:#ff0; stroke-width:8px; fill:none; " opacity="0" d="M 393,161 V 186 a 12,12 0 0,1 -12,12 H 276 a 12,12 0 0,0 -12,12L 264,230"/></g><path style="stroke:black; fill:none;" d="M 393,161 V 186 a 12,12 0 0,1 -12,12 H 276 a 12,12 0 0,0 -12,12L 264,230"/><g><g><path style="stroke:#0ff; stroke-width:8px; fill:none; " opacity="0" d="M 393,161 L 393,198" onmousedown='segmousedown("170","0",evt);' onmouseover='segmouseover("170","0",evt);' onmouseout='segmouseout("170","0",evt);' onclick='segclick("170","0",evt);'/><path style="stroke:#0ff; stroke-width:8px; fill:none; " opacity="0" d="M 393,198 L 264,198" onmousedown='segmousedown("170","1",evt);' onmouseover='segmouseover("170","1",evt);' onmouseout='segmouseout("170","1",evt);' onclick='segclick("170","1",evt);'/><path style="stroke:#0ff; stroke-width:8px; fill:none; " opacity="0" d="M 264,198 L 264,230" onmousedown='segmousedown("170","2",evt);' onmouseover='segmouseover("170","2",evt);' onmouseout='segmouseout("170","2",evt);' onclick='segclick("170","2",evt);'/></g></g></g><g id="171"><path style="stroke:#bdbddf; stroke-width:8px; fill:none;" opacity="0.7" d="M 269,245L 269,399.5"/><g><path style="stroke:#ff0; stroke-width:8px; fill:none; " opacity="0" d="M 269,245L 269,399.5"/></g><path style="stroke:black; fill:none;" d="M 269,245L 269,399.5"/><g><g><path style="stroke:#0ff; stroke-width:8px; fill:none; " opacity="0" d="M 269,245 L 269,399.5" onmousedown='segmousedown("171","0",evt);' onmouseover='segmouseover("171","0",evt);' onmouseout='segmouseout("171","0",evt);' onclick='segclick("171","0",evt);'/></g></g></g><g id="172"><path style="stroke:#bdbddf; stroke-width:8px; fill:none;" opacity="0.7" d="M 284,423 H 332 a 12,12 0 0,0 12,-12 V 344 a 12,12 0 0,1 12,-12 H 381 a 12,12 0 0,0 12,-12L 393,161"/><g><path style="stroke:#ff0; stroke-width:8px; fill:none; " opacity="0" d="M 284,423 H 332 a 12,12 0 0,0 12,-12 V 344 a 12,12 0 0,1 12,-12 H 381 a 12,12 0 0,0 12,-12L 393,161"/></g><path style="stroke:black; fill:none;" d="M 284,423 H 332 a 12,12 0 0,0 12,-12 V 344 a 12,12 0 0,1 12,-12 H 381 a 12,12 0 0,0 12,-12L 393,161"/><g><g><path style="stroke:#0ff; stroke-width:8px; fill:none; " opacity="0" d="M 284,423 L 344,423" onmousedown='segmousedown("172","0",evt);' onmouseover='segmouseover("172","0",evt);' onmouseout='segmouseout("172","0",evt);' onclick='segclick("172","0",evt);'/><path style="stroke:#0ff; stroke-width:8px; fill:none; " opacity="0" d="M 344,423 L 344,332" onmousedown='segmousedown("172","1",evt);' onmouseover='segmouseover("172","1",evt);' onmouseout='segmouseout("172","1",evt);' onclick='segclick("172","1",evt);'/><path style="stroke:#0ff; stroke-width:8px; fill:none; " opacity="0" d="M 344,332 L 393,332" onmousedown='segmousedown("172","2",evt);' onmouseover='segmouseover("172","2",evt);' onmouseout='segmouseout("172","2",evt);' onclick='segclick("172","2",evt);'/><path style="stroke:#0ff; stroke-width:8px; fill:none; " opacity="0" d="M 393,332 L 393,161" onmousedown='segmousedown("172","3",evt);' onmouseover='segmouseover("172","3",evt);' onmouseout='segmouseout("172","3",evt);' onclick='segclick("172","3",evt);'/></g></g></g><g id="173"><path style="stroke:#bdbddf; stroke-width:8px; fill:none;" opacity="0.7" d="M 246,215 V 207.5 a 7.5,7.5 0 0,0 -7.5,-7.5 H 192 a 12,12 0 0,1 -12,-12L 180,161"/><g><path style="stroke:#ff0; stroke-width:8px; fill:none; " opacity="0" d="M 246,215 V 207.5 a 7.5,7.5 0 0,0 -7.5,-7.5 H 192 a 12,12 0 0,1 -12,-12L 180,161"/></g><path style="stroke:black; fill:none;" d="M 246,215 V 207.5 a 7.5,7.5 0 0,0 -7.5,-7.5 H 192 a 12,12 0 0,1 -12,-12L 180,161"/><g><g><path style="stroke:#0ff; stroke-width:8px; fill:none; " opacity="0" d="M 246,215 L 246,200" onmousedown='segmousedown("173","0",evt);' onmouseover='segmouseover("173","0",evt);' onmouseout='segmouseout("173","0",evt);' onclick='segclick("173","0",evt);'/><path style="stroke:#0ff; stroke-width:8px; fill:none; " opacity="0" d="M 246,200 L 180,200" onmousedown='segmousedown("173","1",evt);' onmouseover='segmouseover("173","1",evt);' onmouseout='segmouseout("173","1",evt);' onclick='segclick("173","1",evt);'/><path style="stroke:#0ff; stroke-width:8px; fill:none; " opacity="0" d="M 180,200 L 180,161" onmousedown='segmousedown("173","2",evt);' onmouseover='segmouseover("173","2",evt);' onmouseout='segmouseout("173","2",evt);' onclick='segclick("173","2",evt);'/></g></g></g><g id="174"><path style="stroke:#bdbddf; stroke-width:8px; fill:none;" opacity="0.7" d="M 165,146 H 153 a 12,12 0 0,0 -12,12 V 411 a 12,12 0 0,0 12,12L 254,423"/><g><path style="stroke:#ff0; stroke-width:8px; fill:none; " opacity="0" d="M 165,146 H 153 a 12,12 0 0,0 -12,12 V 411 a 12,12 0 0,0 12,12L 254,423"/></g><path style="stroke:black; fill:none;" d="M 165,146 H 153 a 12,12 0 0,0 -12,12 V 411 a 12,12 0 0,0 12,12L 254,423"/><g><g><path style="stroke:#0ff; stroke-width:8px; fill:none; " opacity="0" d="M 165,146 L 141,146" onmousedown='segmousedown("174","0",evt);' onmouseover='segmouseover("174","0",evt);' onmouseout='segmouseout("174","0",evt);' onclick='segclick("174","0",evt);'/><path style="stroke:#0ff; stroke-width:8px; fill:none; " opacity="0" d="M 141,146 L 141,423" onmousedown='segmousedown("174","1",evt);' onmouseover='segmouseover("174","1",evt);' onmouseout='segmouseout("174","1",evt);' onclick='segclick("174","1",evt);'/><path style="stroke:#0ff; stroke-width:8px; fill:none; " opacity="0" d="M 141,423 L 254,423" onmousedown='segmousedown("174","2",evt);' onmouseover='segmouseover("174","2",evt);' onmouseout='segmouseout("174","2",evt);' onclick='segclick("174","2",evt);'/></g></g></g></g>
  <g id="nodes"><g id="165" onmousedown="nodemousedown(165,evt);" onmouseover="nodemouseover(165,evt);" onmouseout="nodemouseout(165,evt);" transform="translate(264 230)"><rect x="-31" y="-21" width="62" height="42" fill="#0ff" style="stroke:none; opacity:0.75;" display="none"/><rect x="-25" y="-15" width="50" height="30" fill="#f0f0d2" style="stroke:black; opacity:1;"/></g><g id="166" onmousedown="nodemousedown(166,evt);" onmouseover="nodemouseover(166,evt);" onmouseout="nodemouseout(166,evt);" transform="translate(269,423)"><rect x="-21" y="-29.5" width="42" height="59" fill="#0ff" style="stroke:none; opacity:0.75;" display="none"/><rect x="-15" y="-23.5" width="30" height="47" fill="#f0f0d2" style="stroke:black; opacity:1;"/></g><g id="168" onmousedown="nodemousedown(168,evt);" onmouseover="nodemouseover(168,evt);" onmouseout="nodemouseout(168,evt);" transform="translate(180,146)"><rect x="-21" y="-21" width="42" height="42" fill="#0ff" style="stroke:none; opacity:0.75;" display="none"/><rect x="-15" y="-15" width="30" height="30" fill="#f0f0d2" style="stroke:black; opacity:1;"/></g><g id="167" onmousedown="nodemousedown(167,evt);" onmouseover="nodemouseover(167,evt);" onmouseout="nodemouseout(167,evt);" transform="translate(393,146)"><rect x="-21" y="-21" width="42" height="42" fill="#0ff" style="stroke:none; opacity:0.75;" display="none"/><rect x="-15" y="-15" width="30" height="30" fill="#f0f0d2" style="stroke:black; opacity:1;"/></g></g>
  <g id="BPs"><g onmousedown="bpmousedown(181,evt);" onmouseover="bpmouseover(181,evt);" onmouseout="bpmouseout(181,evt);" transform="translate(393,198)" opacity="0"><ellipse cx="0" cy="0" rx="16" ry="16" fill="#0ff" style="stroke:none; opacity:0.75;" display="none"/><ellipse cx="0" cy="0" rx="5.132188731375618" ry="5.132188731375618" fill="#777" style="stroke:black;"/></g><g onmousedown="bpmousedown(182,evt);" onmouseover="bpmouseover(182,evt);" onmouseout="bpmouseout(182,evt);" transform="translate(264 198)" opacity="0"><ellipse cx="0" cy="0" rx="16" ry="16" fill="#0ff" style="stroke:none; opacity:0.75;" display="none"/><ellipse cx="0" cy="0" rx="5.132188731375618" ry="5.132188731375618" fill="#777" style="stroke:black;"/></g><g onmousedown="bpmousedown(189,evt);" onmouseover="bpmouseover(189,evt);" onmouseout="bpmouseout(189,evt);" transform="translate(344,423)" opacity="0"><ellipse cx="0" cy="0" rx="16" ry="16" fill="#0ff" style="stroke:none; opacity:0.75;" display="none"/><ellipse cx="0" cy="0" rx="5.132188731375618" ry="5.132188731375618" fill="#777" style="stroke:black;"/></g><g onmousedown="bpmousedown(190,evt);" onmouseover="bpmouseover(190,evt);" onmouseout="bpmouseout(190,evt);" transform="translate(344 332)" opacity="0"><ellipse cx="0" cy="0" rx="16" ry="16" fill="#0ff" style="stroke:none; opacity:0.75;" display="none"/><ellipse cx="0" cy="0" rx="5.132188731375618" ry="5.132188731375618" fill="#777" style="stroke:black;"/></g><g onmousedown="bpmousedown(191,evt);" onmouseover="bpmouseover(191,evt);" onmouseout="bpmouseout(191,evt);" transform="translate(393,332)" opacity="0"><ellipse cx="0" cy="0" rx="16" ry="16" fill="#0ff" style="stroke:none; opacity:0.75;" display="none"/><ellipse cx="0" cy="0" rx="5.132188731375618" ry="5.132188731375618" fill="#777" style="stroke:black;"/></g><g onmousedown="bpmousedown(194,evt);" onmouseover="bpmouseover(194,evt);" onmouseout="bpmouseout(194,evt);" transform="translate(246,200)" opacity="0"><ellipse cx="0" cy="0" rx="16" ry="16" fill="#0ff" style="stroke:none; opacity:0.75;" display="none"/><ellipse cx="0" cy="0" rx="5.132188731375618" ry="5.132188731375618" fill="#777" style="stroke:black;"/></g><g onmousedown="bpmousedown(195,evt);" onmouseover="bpmouseover(195,evt);" onmouseout="bpmouseout(195,evt);" transform="translate(180,200)" opacity="0"><ellipse cx="0" cy="0" rx="16" ry="16" fill="#0ff" style="stroke:none; opacity:0.75;" display="none"/><ellipse cx="0" cy="0" rx="5.132188731375618" ry="5.132188731375618" fill="#777" style="stroke:black;"/></g><g onmousedown="bpmousedown(198,evt);" onmouseover="bpmouseover(198,evt);" onmouseout="bpmouseout(198,evt);" transform="translate(141,146)" opacity="0"><ellipse cx="0" cy="0" rx="16" ry="16" fill="#0ff" style="stroke:none; opacity:0.75;" display="none"/><ellipse cx="0" cy="0" rx="5.132188731375618" ry="5.132188731375618" fill="#777" style="stroke:black;"/></g><g onmousedown="bpmousedown(199,evt);" onmouseover="bpmouseover(199,evt);" onmouseout="bpmouseout(199,evt);" transform="translate(141,423)" opacity="0"><ellipse cx="0" cy="0" rx="16" ry="16" fill="#0ff" style="stroke:none; opacity:0.75;" display="none"/><ellipse cx="0" cy="0" rx="5.132188731375618" ry="5.132188731375618" fill="#777" style="stroke:black;"/></g></g>
  <g id="ports"/>
</g>
</svg>