<svg xmlns:xlink="http://www.w3.org/1999/xlink" xmlns="http://www.w3.org/2000/svg" height="270px" width="480px" id="SVGCanvas" onmouseup="" onmousemove="">
<rect fill="#bdbddf" width="100%" height="100%" y="0" x="0" id="background" onmousedown="bgmousedown(evt)"/>
<g id="foreground" transform="translate(0,19.77064220183486),scale(0.7339449541284404),translate(-122,-250)">
  <g id="edges"><g id="305"><path style="stroke:#bdbddf; stroke-width:8px; fill:none;" opacity="0.7" d="M 152,274L 530,274"/><g><path style="stroke:#ff0; stroke-width:8px; fill:none; " opacity="0" d="M 152,274L 530,274"/></g><path style="stroke:black; fill:none;" d="M 152,274L 530,274"/><g><g><path style="stroke:#0ff; stroke-width:8px; fill:none; " opacity="0" d="M 152,274 L 530,274" onmousedown='segmousedown("305","0",evt);' onmouseover='segmouseover("305","0",evt);' onmouseout='segmouseout("305","0",evt);' onclick='segclick("305","0",evt);'/></g></g></g><g id="306"><path style="stroke:#bdbddf; stroke-width:8px; fill:none;" opacity="0.7" d="M 530,280 V 387.5 a 3.5,3.5 0 0,0 3.5,3.5 H 533.5 a 3.5,3.5 0 0,1 3.5,3.5L 537,517"/><g><path style="stroke:#ff0; stroke-width:8px; fill:none; " opacity="0" d="M 530,280 V 387.5 a 3.5,3.5 0 0,0 3.5,3.5 H 533.5 a 3.5,3.5 0 0,1 3.5,3.5L 537,517"/></g><path style="stroke:black; fill:none;" d="M 530,280 V 387.5 a 3.5,3.5 0 0,0 3.5,3.5 H 533.5 a 3.5,3.5 0 0,1 3.5,3.5L 537,517"/><g><g><path style="stroke:#0ff; stroke-width:8px; fill:none; " opacity="0" d="M 530,280 L 530,391" onmousedown='segmousedown("306","0",evt);' onmouseover='segmouseover("306","0",evt);' onmouseout='segmouseout("306","0",evt);' onclick='segclick("306","0",evt);'/><path style="stroke:#0ff; stroke-width:8px; fill:none; " opacity="0" d="M 530,391 L 537,391" onmousedown='segmousedown("306","1",evt);' onmouseover='segmouseover("306","1",evt);' onmouseout='segmouseout("306","1",evt);' onclick='segclick("306","1",evt);'/><path style="stroke:#0ff; stroke-width:8px; fill:none; " opacity="0" d="M 537,391 L 537,517" onmousedown='segmousedown("306","2",evt);' onmouseover='segmouseover("306","2",evt);' onmouseout='segmouseout("306","2",evt);' onclick='segclick("306","2",evt);'/></g></g></g><g id="307"><path style="stroke:#bdbddf; stroke-width:8px; fill:none;" opacity="0.7" d="M 537,517 H 448.5 a 7.5,7.5 0 0,1 -7.5,-7.5 V 509.5 a 7.5,7.5 0 0,0 -7.5,-7.5L 353,502"/><g><path style="stroke:#ff0; stroke-width:8px; fill:none; " opacity="0" d="M 537,517 H 448.5 a 7.5,7.5 0 0,1 -7.5,-7.5 V 509.5 a 7.5,7.5 0 0,0 -7.5,-7.5L 353,502"/></g><path style="stroke:black; fill:none;" d="M 537,517 H 448.5 a 7.5,7.5 0 0,1 -7.5,-7.5 V 509.5 a 7.5,7.5 0 0,0 -7.5,-7.5L 353,502"/><g><g><path style="stroke:#0ff; stroke-width:8px; fill:none; " opacity="0" d="M 537,517 L 441,517" onmousedown='segmousedown("307","0",evt);' onmouseover='segmouseover("307","0",evt);' onmouseout='segmouseout("307","0",evt);' onclick='segclick("307","0",evt);'/><path style="stroke:#0ff; stroke-width:8px; fill:none; " opacity="0" d="M 441,517 L 441,502" onmousedown='segmousedown("307","1",evt);' onmouseover='segmouseover("307","1",evt);' onmouseout='segmouseout("307","1",evt);' onclick='segclick("307","1",evt);'/><path style="stroke:#0ff; stroke-width:8px; fill:none; " opacity="0" d="M 441,502 L 353,502" onmousedown='segmousedown("307","2",evt);' onmouseover='segmouseover("307","2",evt);' onmouseout='segmouseout("307","2",evt);' onclick='segclick("307","2",evt);'/></g></g></g><g id="308"><path style="stroke:#bdbddf; stroke-width:8px; fill:none;" opacity="0.7" d="M 353,502 H 291.5 a 4.5,4.5 0 0,0 -4.5,4.5 V 506.5 a 4.5,4.5 0 0,1 -4.5,4.5L 222,511"/><g><path style="stroke:#ff0; stroke-width:8px; fill:none; " opacity="0" d="M 353,502 H 291.5 a 4.5,4.5 0 0,0 -4.5,4.5 V 506.5 a 4.5,4.5 0 0,1 -4.5,4.5L 222,511"/></g><path style="stroke:black; fill:none;" d="M 353,502 H 291.5 a 4.5,4.5 0 0,0 -4.5,4.5 V 506.5 a 4.5,4.5 0 0,1 -4.5,4.5L 222,511"/><g><g><path style="stroke:#0ff; stroke-width:8px; fill:none; " opacity="0" d="M 353,502 L 287,502" onmousedown='segmousedown("308","0",evt);' onmouseover='segmouseover("308","0",evt);' onmouseout='segmouseout("308","0",evt);' onclick='segclick("308","0",evt);'/><path style="stroke:#0ff; stroke-width:8px; fill:none; " opacity="0" d="M 287,502 L 287,511" onmousedown='segmousedown("308","1",evt);' onmouseover='segmouseover("308","1",evt);' onmouseout='segmouseout("308","1",evt);' onclick='segclick("308","1",evt);'/><path style="stroke:#0ff; stroke-width:8px; fill:none; " opacity="0" d="M 287,511 L 222,511" onmousedown='segmousedown("308","2",evt);' onmouseover='segmouseover("308","2",evt);' onmouseout='segmouseout("308","2",evt);' onclick='segclick("308","2",evt);'/></g></g></g><g id="309"><path style="stroke:#bdbddf; stroke-width:8px; fill:none;" opacity="0.7" d="M 222,511 V 467 a 10,10 0 0,0 -10,-10 H 212 a 10,10 0 0,1 -10,-10L 202,403"/><g><path style="stroke:#ff0; stroke-width:8px; fill:none; " opacity="0" d="M 222,511 V 467 a 10,10 0 0,0 -10,-10 H 212 a 10,10 0 0,1 -10,-10L 202,403"/></g><path style="stroke:black; fill:none;" d="M 222,511 V 467 a 10,10 0 0,0 -10,-10 H 212 a 10,10 0 0,1 -10,-10L 202,403"/><g><g><path style="stroke:#0ff; stroke-width:8px; fill:none; " opacity="0" d="M 222,511 L 222,457" onmousedown='segmousedown("309","0",evt);' onmouseover='segmouseover("309","0",evt);' onmouseout='segmouseout("309","0",evt);' onclick='segclick("309","0",evt);'/><path style="stroke:#0ff; stroke-width:8px; fill:none; " opacity="0" d="M 222,457 L 202,457" onmousedown='segmousedown("309","1",evt);' onmouseover='segmouseover("309","1",evt);' onmouseout='segmouseout("309","1",evt);' onclick='segclick("309","1",evt);'/><path style="stroke:#0ff; stroke-width:8px; fill:none; " opacity="0" d="M 202,457 L 202,403" onmousedown='segmousedown("309","2",evt);' onmouseover='segmouseover("309","2",evt);' onmouseout='segmouseout("309","2",evt);' onclick='segclick("309","2",evt);'/></g></g></g><g id="310"><path style="stroke:#bdbddf; stroke-width:8px; fill:none;" opacity="0.7" d="M 202,403 V 353 a 12,12 0 0,0 -12,-12 H 164 a 12,12 0 0,1 -12,-12L 152,280"/><g><path style="stroke:#ff0; stroke-width:8px; fill:none; " opacity="0" d="M 202,403 V 353 a 12,12 0 0,0 -12,-12 H 164 a 12,12 0 0,1 -12,-12L 152,280"/></g><path style="stroke:black; fill:none;" d="M 202,403 V 353 a 12,12 0 0,0 -12,-12 H 164 a 12,12 0 0,1 -12,-12L 152,280"/><g><g><path style="stroke:#0ff; stroke-width:8px; fill:none; " opacity="0" d="M 202,403 L 202,341" onmousedown='segmousedown("310","0",evt);' onmouseover='segmouseover("310","0",evt);' onmouseout='segmouseout("310","0",evt);' onclick='segclick("310","0",evt);'/><path style="stroke:#0ff; stroke-width:8px; fill:none; " opacity="0" d="M 202,341 L 152,341" onmousedown='segmousedown("310","1",evt);' onmouseover='segmouseover("310","1",evt);' onmouseout='segmouseout("310","1",evt);' onclick='segclick("310","1",evt);'/><path style="stroke:#0ff; stroke-width:8px; fill:none; " opacity="0" d="M 152,341 L 152,280" onmousedown='segmousedown("310","2",evt);' onmouseover='segmouseover("310","2",evt);' onmouseout='segmouseout("310","2",evt);' onclick='segclick("310","2",evt);'/></g></g></g><g id="311"><path style="stroke:#bdbddf; stroke-width:8px; fill:none;" opacity="0.7" d="M 202,403L 354,403"/><g><path style="stroke:#ff0; stroke-width:8px; fill:none; " opacity="0" d="M 202,403L 354,403"/></g><path style="stroke:black; fill:none;" d="M 202,403L 354,403"/><g><g><path style="stroke:#0ff; stroke-width:8px; fill:none; " opacity="0" d="M 202,403 L 354,403" onmousedown='segmousedown("311","0",evt);' onmouseover='segmouseover("311","0",evt);' onmouseout='segmouseout("311","0",evt);' onclick='segclick("311","0",evt);'/></g></g></g><g id="312"><path style="stroke:#bdbddf; stroke-width:8px; fill:none;" opacity="0.7" d="M 653,295L 653,451"/><g><path style="stroke:#ff0; stroke-width:8px; fill:none; " opacity="0" d="M 653,295L 653,451"/></g><path style="stroke:black; fill:none;" d="M 653,295L 653,451"/><g><g><path style="stroke:#0ff; stroke-width:8px; fill:none; " opacity="0" d="M 653,295 L 653,451" onmousedown='segmousedown("312","0",evt);' onmouseover='segmouseover("312","0",evt);' onmouseout='segmouseout("312","0",evt);' onclick='segclick("312","0",evt);'/></g></g></g><g id="313"><path style="stroke:#bdbddf; stroke-width:8px; fill:none;" opacity="0.7" d="M 668,475L 668,519"/><g><path style="stroke:#ff0; stroke-width:8px; fill:none; " opacity="0" d="M 668,475L 668,519"/></g><path style="stroke:black; fill:none;" d="M 668,475L 668,519"/><g><g><path style="stroke:#0ff; stroke-width:8px; fill:none; " opacity="0" d="M 668,475 L 668,475" onmousedown='segmousedown("313","0",evt);' onmouseover='segmouseover("313","0",evt);' onmouseout='segmouseout("313","0",evt);' onclick='segclick("313","0",evt);'/><path style="stroke:#0ff; stroke-width:8px; fill:none; " opacity="0" d="M 668,475 L 668,519" onmousedown='segmousedown("313","1",evt);' onmouseover='segmouseover("313","1",evt);' onmouseout='segmouseout("313","1",evt);' onclick='segclick("313","1",evt);'/></g></g></g><g id="314"><path style="stroke:#bdbddf; stroke-width:8px; fill:none;" opacity="0.7" d="M 668,280 H 724 a 12,12 0 0,1 12,12L 736,361"/><g><path style="stroke:#ff0; stroke-width:8px; fill:none; " opacity="0" d="M 668,280 H 724 a 12,12 0 0,1 12,12L 736,361"/></g><path style="stroke:black; fill:none;" d="M 668,280 H 724 a 12,12 0 0,1 12,12L 736,361"/><g><g><path style="stroke:#0ff; stroke-width:8px; fill:none; " opacity="0" d="M 668,280 L 736,280" onmousedown='segmousedown("314","0",evt);' onmouseover='segmouseover("314","0",evt);' onmouseout='segmouseout("314","0",evt);' onclick='segclick("314","0",evt);'/><path style="stroke:#0ff; stroke-width:8px; fill:none; " opacity="0" d="M 736,280 L 736,361" onmousedown='segmousedown("314","1",evt);' onmouseover='segmouseover("314","1",evt);' onmouseout='segmouseout("314","1",evt);' onclick='segclick("314","1",evt);'/></g></g></g>

<g id="315"><path style="stroke:#bdbddf; stroke-width:8px; fill:none;" opacity="0.7" d="M 530,286 H 492 a 3,3 0 0,1 -3,-3 V 283 a 3,3 0 0,1 3,-3L 638,280"/><g><path style="stroke:#ff0; stroke-width:8px; fill:none; " opacity="0" d="M 530,286 H 492 a 3,3 0 0,1 -3,-3 V 283 a 3,3 0 0,1 3,-3L 638,280"/></g>

<path style="stroke:none; fill:none;" d="M 530,286 H 492 a 3,3 0 0,1 -3,-3 V 283 a 3,3 0 0,1 3,-3L 638,280"/>

<g><g><path style="stroke:#0ff; stroke-width:8px; fill:none; " opacity="0" d="M 530,286 L 489,286" onmousedown='segmousedown("315","0",evt);' onmouseover='segmouseover("315","0",evt);' onmouseout='segmouseout("315","0",evt);' onclick='segclick("315","0",evt);'/><path style="stroke:#0ff; stroke-width:8px; fill:none; " opacity="0" d="M 489,286 L 489,280" onmousedown='segmousedown("315","1",evt);' onmouseover='segmouseover("315","1",evt);' onmouseout='segmouseout("315","1",evt);' onclick='segclick("315","1",evt);'/><path style="stroke:#0ff; stroke-width:8px; fill:none; " opacity="0" d="M 489,280 L 638,280" onmousedown='segmousedown("315","2",evt);' onmouseover='segmouseover("315","2",evt);' onmouseout='segmouseout("315","2",evt);' onclick='segclick("315","2",evt);'/></g></g></g>

<g id="316"><path style="stroke:#bdbddf; stroke-width:8px; fill:none;" opacity="0.7" d="M 354,403L 354,499"/><g><path style="stroke:#ff0; stroke-width:8px; fill:none; " opacity="0" d="M 354,403L 354,499"/></g><path style="stroke:black; fill:none;" d="M 354,403L 354,499"/><g><g><path style="stroke:#0ff; stroke-width:8px; fill:none; " opacity="0" d="M 354,403 L 354,499" onmousedown='segmousedown("316","0",evt);' onmouseover='segmouseover("316","0",evt);' onmouseout='segmouseout("316","0",evt);' onclick='segclick("316","0",evt);'/></g></g></g><g id="317"><path style="stroke:#bdbddf; stroke-width:8px; fill:none;" opacity="0.7" d="M 668,466L 731,466"/><g><path style="stroke:#ff0; stroke-width:8px; fill:none; " opacity="0" d="M 668,466L 731,466"/></g><path style="stroke:black; fill:none;" d="M 668,466L 731,466"/><g><g><path style="stroke:#0ff; stroke-width:8px; fill:none; " opacity="0" d="M 668,466 L 731,466" onmousedown='segmousedown("317","0",evt);' onmouseover='segmouseover("317","0",evt);' onmouseout='segmouseout("317","0",evt);' onclick='segclick("317","0",evt);'/></g></g></g></g>
  <g id="nodes"><g id="293" onmousedown="nodemousedown(293,evt);" onmouseover="nodemouseover(293,evt);" onmouseout="nodemouseout(293,evt);" transform="translate(152 280)"><rect x="-21" y="-21" width="42" height="42" fill="#0ff" style="stroke:none; opacity:0.75;" display="none"/><rect x="-15" y="-15" width="30" height="30" fill="#f0f0d2" style="stroke:black; opacity:1;"/></g><g id="294" onmousedown="nodemousedown(294,evt);" onmouseover="nodemouseover(294,evt);" onmouseout="nodemouseout(294,evt);" transform="translate(530 280)"><rect x="-21" y="-21" width="42" height="42" fill="#0ff" style="stroke:none; opacity:0.75;" display="none"/><rect x="-15" y="-15" width="30" height="30" fill="#f0f0d2" style="stroke:black; opacity:1;"/></g><g id="295" onmousedown="nodemousedown(295,evt);" onmouseover="nodemouseover(295,evt);" onmouseout="nodemouseout(295,evt);" transform="translate(222 511)"><rect x="-21" y="-21" width="42" height="42" fill="#0ff" style="stroke:none; opacity:0.75;" display="none"/><rect x="-15" y="-15" width="30" height="30" fill="#f0f0d2" style="stroke:black; opacity:1;"/></g><g id="296" onmousedown="nodemousedown(296,evt);" onmouseover="nodemouseover(296,evt);" onmouseout="nodemouseout(296,evt);" transform="translate(537 517)"><rect x="-21" y="-21" width="42" height="42" fill="#0ff" style="stroke:none; opacity:0.75;" display="none"/><rect x="-15" y="-15" width="30" height="30" fill="#f0f0d2" style="stroke:black; opacity:1;"/></g><g id="297" onmousedown="nodemousedown(297,evt);" onmouseover="nodemouseover(297,evt);" onmouseout="nodemouseout(297,evt);" transform="translate(202 403)"><rect x="-21" y="-21" width="42" height="42" fill="#0ff" style="stroke:none; opacity:0.75;" display="none"/><rect x="-15" y="-15" width="30" height="30" fill="#f0f0d2" style="stroke:black; opacity:1;"/></g><g id="298" onmousedown="nodemousedown(298,evt);" onmouseover="nodemouseover(298,evt);" onmouseout="nodemouseout(298,evt);" transform="translate(354 403)"><rect x="-21" y="-21" width="42" height="42" fill="#0ff" style="stroke:none; opacity:0.75;" display="none"/><rect x="-15" y="-15" width="30" height="30" fill="#f0f0d2" style="stroke:black; opacity:1;"/></g><g id="299" onmousedown="nodemousedown(299,evt);" onmouseover="nodemouseover(299,evt);" onmouseout="nodemouseout(299,evt);" transform="translate(353 502)"><rect x="-21" y="-21" width="42" height="42" fill="#0ff" style="stroke:none; opacity:0.75;" display="none"/><rect x="-15" y="-15" width="30" height="30" fill="#f0f0d2" style="stroke:black; opacity:1;"/></g><g id="300" onmousedown="nodemousedown(300,evt);" onmouseover="nodemouseover(300,evt);" onmouseout="nodemouseout(300,evt);" transform="translate(653,280)"><rect x="-21" y="-21" width="42" height="42" fill="#0ff" style="stroke:none; opacity:0.75;" display="none"/><rect x="-15" y="-15" width="30" height="30" fill="#f0f0d2" style="stroke:black; opacity:1;"/></g><g id="301" onmousedown="nodemousedown(301,evt);" onmouseover="nodemouseover(301,evt);" onmouseout="nodemouseout(301,evt);" transform="translate(736,376)"><rect x="-21" y="-21" width="42" height="42" fill="#0ff" style="stroke:none; opacity:0.75;" display="none"/><rect x="-15" y="-15" width="30" height="30" fill="#f0f0d2" style="stroke:black; opacity:1;"/></g><g id="302" onmousedown="nodemousedown(302,evt);" onmouseover="nodemouseover(302,evt);" onmouseout="nodemouseout(302,evt);" transform="translate(653,466)"><rect x="-21" y="-21" width="42" height="42" fill="#0ff" style="stroke:none; opacity:0.75;" display="none"/><rect x="-15" y="-15" width="30" height="30" fill="#f0f0d2" style="stroke:black; opacity:1;"/></g><g id="304" onmousedown="nodemousedown(304,evt);" onmouseover="nodemouseover(304,evt);" onmouseout="nodemouseout(304,evt);" transform="translate(746,460)"><rect x="-21" y="-21" width="42" height="42" fill="#0ff" style="stroke:none; opacity:0.75;" display="none"/><rect x="-15" y="-15" width="30" height="30" fill="#f0f0d2" style="stroke:black; opacity:1;"/></g><g id="303" onmousedown="nodemousedown(303,evt);" onmouseover="nodemouseover(303,evt);" onmouseout="nodemouseout(303,evt);" transform="translate(674,534)"><rect x="-21" y="-21" width="42" height="42" fill="#0ff" style="stroke:none; opacity:0.75;" display="none"/><rect x="-15" y="-15" width="30" height="30" fill="#f0f0d2" style="stroke:black; opacity:1;"/></g></g>
  <g id="BPs"><g onmousedown="bpmousedown(322,evt);" onmouseover="bpmouseover(322,evt);" onmouseout="bpmouseout(322,evt);" transform="translate(530 391)" opacity="0"><ellipse cx="0" cy="0" rx="16" ry="16" fill="#0ff" style="stroke:none; opacity:0.75;" display="none"/><ellipse cx="0" cy="0" rx="10" ry="10" fill="#777" style="stroke:black;"/></g><g onmousedown="bpmousedown(323,evt);" onmouseover="bpmouseover(323,evt);" onmouseout="bpmouseout(323,evt);" transform="translate(537 391)" opacity="0"><ellipse cx="0" cy="0" rx="16" ry="16" fill="#0ff" style="stroke:none; opacity:0.75;" display="none"/><ellipse cx="0" cy="0" rx="10" ry="10" fill="#777" style="stroke:black;"/></g><g onmousedown="bpmousedown(326,evt);" onmouseover="bpmouseover(326,evt);" onmouseout="bpmouseout(326,evt);" transform="translate(441 517)" opacity="0"><ellipse cx="0" cy="0" rx="16" ry="16" fill="#0ff" style="stroke:none; opacity:0.75;" display="none"/><ellipse cx="0" cy="0" rx="5.132188731375618" ry="5.132188731375618" fill="#777" style="stroke:black;"/></g><g onmousedown="bpmousedown(327,evt);" onmouseover="bpmouseover(327,evt);" onmouseout="bpmouseout(327,evt);" transform="translate(441 502)" opacity="0"><ellipse cx="0" cy="0" rx="16" ry="16" fill="#0ff" style="stroke:none; opacity:0.75;" display="none"/><ellipse cx="0" cy="0" rx="5.132188731375618" ry="5.132188731375618" fill="#777" style="stroke:black;"/></g><g onmousedown="bpmousedown(330,evt);" onmouseover="bpmouseover(330,evt);" onmouseout="bpmouseout(330,evt);" transform="translate(287 502)" opacity="0"><ellipse cx="0" cy="0" rx="16" ry="16" fill="#0ff" style="stroke:none; opacity:0.75;" display="none"/><ellipse cx="0" cy="0" rx="10" ry="10" fill="#777" style="stroke:black;"/></g><g onmousedown="bpmousedown(331,evt);" onmouseover="bpmouseover(331,evt);" onmouseout="bpmouseout(331,evt);" transform="translate(287 511)" opacity="0"><ellipse cx="0" cy="0" rx="16" ry="16" fill="#0ff" style="stroke:none; opacity:0.75;" display="none"/><ellipse cx="0" cy="0" rx="10" ry="10" fill="#777" style="stroke:black;"/></g><g onmousedown="bpmousedown(334,evt);" onmouseover="bpmouseover(334,evt);" onmouseout="bpmouseout(334,evt);" transform="translate(222 457)" opacity="0"><ellipse cx="0" cy="0" rx="16" ry="16" fill="#0ff" style="stroke:none; opacity:0.75;" display="none"/><ellipse cx="0" cy="0" rx="10" ry="10" fill="#777" style="stroke:black;"/></g><g onmousedown="bpmousedown(335,evt);" onmouseover="bpmouseover(335,evt);" onmouseout="bpmouseout(335,evt);" transform="translate(202 457)" opacity="0"><ellipse cx="0" cy="0" rx="16" ry="16" fill="#0ff" style="stroke:none; opacity:0.75;" display="none"/><ellipse cx="0" cy="0" rx="10" ry="10" fill="#777" style="stroke:black;"/></g><g onmousedown="bpmousedown(338,evt);" onmouseover="bpmouseover(338,evt);" onmouseout="bpmouseout(338,evt);" transform="translate(202 341)" opacity="0"><ellipse cx="0" cy="0" rx="16" ry="16" fill="#0ff" style="stroke:none; opacity:0.75;" display="none"/><ellipse cx="0" cy="0" rx="10" ry="10" fill="#777" style="stroke:black;"/></g><g onmousedown="bpmousedown(339,evt);" onmouseover="bpmouseover(339,evt);" onmouseout="bpmouseout(339,evt);" transform="translate(152 341)" opacity="0"><ellipse cx="0" cy="0" rx="16" ry="16" fill="#0ff" style="stroke:none; opacity:0.75;" display="none"/><ellipse cx="0" cy="0" rx="10" ry="10" fill="#777" style="stroke:black;"/></g><g onmousedown="bpmousedown(348,evt);" onmouseover="bpmouseover(348,evt);" onmouseout="bpmouseout(348,evt);" transform="translate(668,475)" opacity="0"><ellipse cx="0" cy="0" rx="16" ry="16" fill="#0ff" style="stroke:none; opacity:0.75;" display="none"/><ellipse cx="0" cy="0" rx="5.132188731375618" ry="5.132188731375618" fill="#777" style="stroke:black;"/></g><g onmousedown="bpmousedown(352,evt);" onmouseover="bpmouseover(352,evt);" onmouseout="bpmouseout(352,evt);" transform="translate(736,280)" opacity="0"><ellipse cx="0" cy="0" rx="16" ry="16" fill="#0ff" style="stroke:none; opacity:0.75;" display="none"/><ellipse cx="0" cy="0" rx="5.132188731375618" ry="5.132188731375618" fill="#777" style="stroke:black;"/></g><g onmousedown="bpmousedown(356,evt);" onmouseover="bpmouseover(356,evt);" onmouseout="bpmouseout(356,evt);" transform="translate(489 286)" opacity="0"><ellipse cx="0" cy="0" rx="16" ry="16" fill="#0ff" style="stroke:none; opacity:0.75;" display="none"/><ellipse cx="0" cy="0" rx="5.132188731375618" ry="5.132188731375618" fill="#777" style="stroke:black;"/></g><g onmousedown="bpmousedown(357,evt);" onmouseover="bpmouseover(357,evt);" onmouseout="bpmouseout(357,evt);" transform="translate(489,280)" opacity="0"><ellipse cx="0" cy="0" rx="16" ry="16" fill="#0ff" style="stroke:none; opacity:0.75;" display="none"/><ellipse cx="0" cy="0" rx="5.132188731375618" ry="5.132188731375618" fill="#777" style="stroke:black;"/></g></g>
  <g id="ports"/>
  <path style="stroke:black; fill:none;" d="M 515,286 H 492 a 3,3 0 0,1 -3,-3 V 283 a 3,3 0 0,1 3,-3L 638,280"/>
</g>
</svg>
