<svg xmlns:xlink="http://www.w3.org/1999/xlink" xmlns="http://www.w3.org/2000/svg" height="270px" width="480px" id="SVGCanvas" onmouseup="" onmousemove="">
<rect fill="#bdbddf" width="100%" height="100%" y="0" x="0" id="background" onmousedown="bgmousedown(evt)"/>
<g id="foreground" transform="translate(0,45.171428571428564),scale(0.6857142857142857),translate(-187,-116)">
  <g id="edges"><g id="201"><path style="stroke:#bdbddf; stroke-width:8px; fill:none;" opacity="0.7" d="M 473,146 H 682 a 12,12 0 0,1 12,12L 694,181"/><g><path style="stroke:#ff0; stroke-width:8px; fill:none; " opacity="0" d="M 473,146 H 682 a 12,12 0 0,1 12,12L 694,181"/></g><path style="stroke:black; fill:none;" d="M 473,146 H 682 a 12,12 0 0,1 12,12L 694,181"/><g><g><path style="stroke:#0ff; stroke-width:8px; fill:none; " opacity="0" d="M 473,146 L 694,146" onmousedown='segmousedown("201","0",evt);' onmouseover='segmouseover("201","0",evt);' onmouseout='segmouseout("201","0",evt);' onclick='segclick("201","0",evt);'/><path style="stroke:#0ff; stroke-width:8px; fill:none; " opacity="0" d="M 694,146 L 694,181" onmousedown='segmousedown("201","1",evt);' onmouseover='segmouseover("201","1",evt);' onmouseout='segmouseout("201","1",evt);' onclick='segclick("201","1",evt);'/></g></g></g><g id="202"><path style="stroke:#bdbddf; stroke-width:8px; fill:none;" opacity="0.7" d="M 458,146 H 326 a 12,12 0 0,0 -12,12L 314,259"/><g><path style="stroke:#ff0; stroke-width:8px; fill:none; " opacity="0" d="M 458,146 H 326 a 12,12 0 0,0 -12,12L 314,259"/></g><path style="stroke:black; fill:none;" d="M 458,146 H 326 a 12,12 0 0,0 -12,12L 314,259"/><g><g><path style="stroke:#0ff; stroke-width:8px; fill:none; " opacity="0" d="M 458,146 L 314,146" onmousedown='segmousedown("202","0",evt);' onmouseover='segmouseover("202","0",evt);' onmouseout='segmouseout("202","0",evt);' onclick='segclick("202","0",evt);'/><path style="stroke:#0ff; stroke-width:8px; fill:none; " opacity="0" d="M 314,146 L 314,259" onmousedown='segmousedown("202","1",evt);' onmouseover='segmouseover("202","1",evt);' onmouseout='segmouseout("202","1",evt);' onclick='segclick("202","1",evt);'/></g></g></g><g id="203"><path style="stroke:#bdbddf; stroke-width:8px; fill:none;" opacity="0.7" d="M 701,181 H 854 a 3,3 0 0,1 3,3L 857,187"/><g><path style="stroke:#ff0; stroke-width:8px; fill:none; " opacity="0" d="M 701,181 H 854 a 3,3 0 0,1 3,3L 857,187"/></g><path style="stroke:black; fill:none;" d="M 701,181 H 854 a 3,3 0 0,1 3,3L 857,187"/><g><g><path style="stroke:#0ff; stroke-width:8px; fill:none; " opacity="0" d="M 701,181 L 857,181" onmousedown='segmousedown("203","0",evt);' onmouseover='segmouseover("203","0",evt);' onmouseout='segmouseout("203","0",evt);' onclick='segclick("203","0",evt);'/><path style="stroke:#0ff; stroke-width:8px; fill:none; " opacity="0" d="M 857,181 L 857,187" onmousedown='segmousedown("203","1",evt);' onmouseover='segmouseover("203","1",evt);' onmouseout='segmouseout("203","1",evt);' onclick='segclick("203","1",evt);'/></g></g></g><g id="204"><path style="stroke:#bdbddf; stroke-width:8px; fill:none;" opacity="0.7" d="M 710,196L 710,333"/><g><path style="stroke:#ff0; stroke-width:8px; fill:none; " opacity="0" d="M 710,196L 710,333"/></g><path style="stroke:black; fill:none;" d="M 710,196L 710,333"/><g><g><path style="stroke:#0ff; stroke-width:8px; fill:none; " opacity="0" d="M 710,196 L 710,333" onmousedown='segmousedown("204","0",evt);' onmouseover='segmouseover("204","0",evt);' onmouseout='segmouseout("204","0",evt);' onclick='segclick("204","0",evt);'/></g></g></g><g id="205"><path style="stroke:#bdbddf; stroke-width:8px; fill:none;" opacity="0.7" d="M 314,259L 418,259"/><g><path style="stroke:#ff0; stroke-width:8px; fill:none; " opacity="0" d="M 314,259L 418,259"/></g><path style="stroke:black; fill:none;" d="M 314,259L 418,259"/><g><g><path style="stroke:#0ff; stroke-width:8px; fill:none; " opacity="0" d="M 314,259 L 418,259" onmousedown='segmousedown("205","0",evt);' onmouseover='segmouseover("205","0",evt);' onmouseout='segmouseout("205","0",evt);' onclick='segclick("205","0",evt);'/></g></g></g><g id="206"><path style="stroke:#bdbddf; stroke-width:8px; fill:none;" opacity="0.7" d="M 314,259L 232,259"/><g><path style="stroke:#ff0; stroke-width:8px; fill:none; " opacity="0" d="M 314,259L 232,259"/></g><path style="stroke:black; fill:none;" d="M 314,259L 232,259"/><g><g><path style="stroke:#0ff; stroke-width:8px; fill:none; " opacity="0" d="M 314,259 L 232,259" onmousedown='segmousedown("206","0",evt);' onmouseover='segmouseover("206","0",evt);' onmouseout='segmouseout("206","0",evt);' onclick='segclick("206","0",evt);'/></g></g></g></g>
  <g id="nodes"><g id="194" onmousedown="nodemousedown(194,evt);" onmouseover="nodemouseover(194,evt);" onmouseout="nodemouseout(194,evt);" transform="translate(473 146)"><rect x="-21" y="-21" width="42" height="42" fill="#0ff" style="stroke:none; opacity:0.75;" display="none"/><rect x="-15" y="-15" width="30" height="30" fill="#f0f0d2" style="stroke:black; opacity:1;"/></g><g id="195" onmousedown="nodemousedown(195,evt);" onmouseover="nodemouseover(195,evt);" onmouseout="nodemouseout(195,evt);" transform="translate(701 181)"><rect x="-21" y="-21" width="42" height="42" fill="#0ff" style="stroke:none; opacity:0.75;" display="none"/><rect x="-15" y="-15" width="30" height="30" fill="#f0f0d2" style="stroke:black; opacity:1;"/></g><g id="196" onmousedown="nodemousedown(196,evt);" onmouseover="nodemouseover(196,evt);" onmouseout="nodemouseout(196,evt);" transform="translate(314 259)"><rect x="-21" y="-21" width="42" height="42" fill="#0ff" style="stroke:none; opacity:0.75;" display="none"/><rect x="-15" y="-15" width="30" height="30" fill="#f0f0d2" style="stroke:black; opacity:1;"/></g><g id="197" onmousedown="nodemousedown(197,evt);" onmouseover="nodemouseover(197,evt);" onmouseout="nodemouseout(197,evt);" transform="translate(857,202)"><rect x="-21" y="-21" width="42" height="42" fill="#0ff" style="stroke:none; opacity:0.75;" display="none"/><rect x="-15" y="-15" width="30" height="30" fill="#f0f0d2" style="stroke:black; opacity:1;"/></g><g id="198" onmousedown="nodemousedown(198,evt);" onmouseover="nodemouseover(198,evt);" onmouseout="nodemouseout(198,evt);" transform="translate(710,348)"><rect x="-21" y="-21" width="42" height="42" fill="#0ff" style="stroke:none; opacity:0.75;" display="none"/><rect x="-15" y="-15" width="30" height="30" fill="#f0f0d2" style="stroke:black; opacity:1;"/></g><g id="199" onmousedown="nodemousedown(199,evt);" onmouseover="nodemouseover(199,evt);" onmouseout="nodemouseout(199,evt);" transform="translate(433,264)"><rect x="-21" y="-21" width="42" height="42" fill="#0ff" style="stroke:none; opacity:0.75;" display="none"/><rect x="-15" y="-15" width="30" height="30" fill="#f0f0d2" style="stroke:black; opacity:1;"/></g><g id="200" onmousedown="nodemousedown(200,evt);" onmouseover="nodemouseover(200,evt);" onmouseout="nodemouseout(200,evt);" transform="translate(217,263)"><rect x="-21" y="-21" width="42" height="42" fill="#0ff" style="stroke:none; opacity:0.75;" display="none"/><rect x="-15" y="-15" width="30" height="30" fill="#f0f0d2" style="stroke:black; opacity:1;"/></g></g>
  <g id="BPs"><g onmousedown="bpmousedown(209,evt);" onmouseover="bpmouseover(209,evt);" onmouseout="bpmouseout(209,evt);" transform="translate(694 146)" opacity="0"><ellipse cx="0" cy="0" rx="16" ry="16" fill="#0ff" style="stroke:none; opacity:0.75;" display="none"/><ellipse cx="0" cy="0" rx="10" ry="10" fill="#777" style="stroke:black;"/></g><g onmousedown="bpmousedown(212,evt);" onmouseover="bpmouseover(212,evt);" onmouseout="bpmouseout(212,evt);" transform="translate(314,146)" opacity="0"><ellipse cx="0" cy="0" rx="16" ry="16" fill="#0ff" style="stroke:none; opacity:0.75;" display="none"/><ellipse cx="0" cy="0" rx="6.590815232000002" ry="6.590815232000002" fill="#777" style="stroke:black;"/></g><g onmousedown="bpmousedown(217,evt);" onmouseover="bpmouseover(217,evt);" onmouseout="bpmouseout(217,evt);" transform="translate(857,181)" opacity="0"><ellipse cx="0" cy="0" rx="16" ry="16" fill="#0ff" style="stroke:none; opacity:0.75;" display="none"/><ellipse cx="0" cy="0" rx="6.590815232000002" ry="6.590815232000002" fill="#777" style="stroke:black;"/></g></g>
  <g id="ports"/>
</g>
</svg>