<svg id="SVGCanvas" width="480px" height="270px" xmlns="http://www.w3.org/2000/svg" xmlns:xlink="http://www.w3.org/1999/xlink" onmouseup="null" onmousemove="null">
<rect id="background" x="0" y="0" height="100%" width="100%" fill="#bdbddf" onmousedown="bgmousedown(evt)"></rect>
<g id="foreground" transform="translate(0,85.8),scale(0.8),translate(47,-166)">
  <g id="edges"><g id="241"><path style="stroke:#bdbddf; stroke-width:8px; fill:none;" opacity="0.7" d="M 242,259 H 276 a 12,12 0 0,0 12,-12L 288,213"></path><g><path style="stroke:#ff0; stroke-width:8px; fill:none; " opacity="0" d="M 242,259 H 276 a 12,12 0 0,0 12,-12L 288,213"></path></g><path style="stroke:black; fill:none;" d="M 242,259 H 276 a 12,12 0 0,0 12,-12L 288,213"></path><g><g><path style="stroke:#0ff; stroke-width:8px; fill:none; " opacity="0" d="M 242,259 L 288,259" onmousedown="segmousedown(&quot;241&quot;,&quot;0&quot;,evt);" onmouseover="segmouseover(&quot;241&quot;,&quot;0&quot;,evt);" onmouseout="segmouseout(&quot;241&quot;,&quot;0&quot;,evt);" onclick="segclick(&quot;241&quot;,&quot;0&quot;,evt);"></path><path style="stroke:#0ff; stroke-width:8px; fill:none; " opacity="0" d="M 288,259 L 288,213" onmousedown="segmousedown(&quot;241&quot;,&quot;1&quot;,evt);" onmouseover="segmouseover(&quot;241&quot;,&quot;1&quot;,evt);" onmouseout="segmouseout(&quot;241&quot;,&quot;1&quot;,evt);" onclick="segclick(&quot;241&quot;,&quot;1&quot;,evt);"></path></g></g></g><g id="242"><path style="stroke:#bdbddf; stroke-width:8px; fill:none;" opacity="0.7" d="M 273,198L 241,198"></path><g><path style="stroke:#ff0; stroke-width:8px; fill:none; " opacity="0" d="M 273,198L 241,198"></path></g><path style="stroke:black; fill:none;" d="M 273,198L 241,198"></path><g><g><path style="stroke:#0ff; stroke-width:8px; fill:none; " opacity="0" d="M 273,198 L 241,198" onmousedown="segmousedown(&quot;242&quot;,&quot;0&quot;,evt);" onmouseover="segmouseover(&quot;242&quot;,&quot;0&quot;,evt);" onmouseout="segmouseout(&quot;242&quot;,&quot;0&quot;,evt);" onclick="segclick(&quot;242&quot;,&quot;0&quot;,evt);"></path></g></g></g><g id="243"><path style="stroke:#bdbddf; stroke-width:8px; fill:none;" opacity="0.7" d="M 211,197L 181,197"></path><g><path style="stroke:#ff0; stroke-width:8px; fill:none; " opacity="0" d="M 211,197L 181,197"></path></g><path style="stroke:black; fill:none;" d="M 211,197L 181,197"></path><g><g><path style="stroke:#0ff; stroke-width:8px; fill:none; " opacity="0" d="M 211,197 L 181,197" onmousedown="segmousedown(&quot;243&quot;,&quot;0&quot;,evt);" onmouseover="segmouseover(&quot;243&quot;,&quot;0&quot;,evt);" onmouseout="segmouseout(&quot;243&quot;,&quot;0&quot;,evt);" onclick="segclick(&quot;243&quot;,&quot;0&quot;,evt);"></path></g></g></g><g id="244"><path style="stroke:#bdbddf; stroke-width:8px; fill:none;" opacity="0.7" d="M 173,213 V 250 a 12,12 0 0,0 12,12L 212,262"></path><g><path style="stroke:#ff0; stroke-width:8px; fill:none; " opacity="0" d="M 173,213 V 250 a 12,12 0 0,0 12,12L 212,262"></path></g><path style="stroke:black; fill:none;" d="M 173,213 V 250 a 12,12 0 0,0 12,12L 212,262"></path><g><g><path style="stroke:#0ff; stroke-width:8px; fill:none; " opacity="0" d="M 173,213 L 173,262" onmousedown="segmousedown(&quot;244&quot;,&quot;0&quot;,evt);" onmouseover="segmouseover(&quot;244&quot;,&quot;0&quot;,evt);" onmouseout="segmouseout(&quot;244&quot;,&quot;0&quot;,evt);" onclick="segclick(&quot;244&quot;,&quot;0&quot;,evt);"></path><path style="stroke:#0ff; stroke-width:8px; fill:none; " opacity="0" d="M 173,262 L 212,262" onmousedown="segmousedown(&quot;244&quot;,&quot;1&quot;,evt);" onmouseover="segmouseover(&quot;244&quot;,&quot;1&quot;,evt);" onmouseout="segmouseout(&quot;244&quot;,&quot;1&quot;,evt);" onclick="segclick(&quot;244&quot;,&quot;1&quot;,evt);"></path></g></g></g><g id="245"><path style="stroke:#bdbddf; stroke-width:8px; fill:none;" opacity="0.7" d="M 303,198L 331,198"></path><g><path style="stroke:#ff0; stroke-width:8px; fill:none; " opacity="0" d="M 303,198L 331,198"></path></g><path style="stroke:black; fill:none;" d="M 303,198L 331,198"></path><g><g><path style="stroke:#0ff; stroke-width:8px; fill:none; " opacity="0" d="M 303,198 L 331,198" onmousedown="segmousedown(&quot;245&quot;,&quot;0&quot;,evt);" onmouseover="segmouseover(&quot;245&quot;,&quot;0&quot;,evt);" onmouseout="segmouseout(&quot;245&quot;,&quot;0&quot;,evt);" onclick="segclick(&quot;245&quot;,&quot;0&quot;,evt);"></path></g></g></g><g id="246"><path style="stroke:#bdbddf; stroke-width:8px; fill:none;" opacity="0.7" d="M 361,198L 393,198"></path><g><path style="stroke:#ff0; stroke-width:8px; fill:none; " opacity="0" d="M 361,198L 393,198"></path></g><path style="stroke:black; fill:none;" d="M 361,198L 393,198"></path><g><g><path style="stroke:#0ff; stroke-width:8px; fill:none; " opacity="0" d="M 361,198 L 393,198" onmousedown="segmousedown(&quot;246&quot;,&quot;0&quot;,evt);" onmouseover="segmouseover(&quot;246&quot;,&quot;0&quot;,evt);" onmouseout="segmouseout(&quot;246&quot;,&quot;0&quot;,evt);" onclick="segclick(&quot;246&quot;,&quot;0&quot;,evt);"></path></g></g></g><g id="247"><path style="stroke:#bdbddf; stroke-width:8px; fill:none;" opacity="0.7" d="M 423,198L 453,198"></path><g><path style="stroke:#ff0; stroke-width:8px; fill:none; " opacity="0" d="M 423,198L 453,198"></path></g><path style="stroke:black; fill:none;" d="M 423,198L 453,198"></path><g><g><path style="stroke:#0ff; stroke-width:8px; fill:none; " opacity="0" d="M 423,198 L 453,198" onmousedown="segmousedown(&quot;247&quot;,&quot;0&quot;,evt);" onmouseover="segmouseover(&quot;247&quot;,&quot;0&quot;,evt);" onmouseout="segmouseout(&quot;247&quot;,&quot;0&quot;,evt);" onclick="segclick(&quot;247&quot;,&quot;0&quot;,evt);"></path></g></g></g><g id="248"><path style="stroke:#bdbddf; stroke-width:8px; fill:none;" opacity="0.7" d="M 483,196L 508,196"></path><g><path style="stroke:#ff0; stroke-width:8px; fill:none; " opacity="0" d="M 483,196L 508,196"></path></g><path style="stroke:black; fill:none;" d="M 483,196L 508,196"></path><g><g><path style="stroke:#0ff; stroke-width:8px; fill:none; " opacity="0" d="M 483,196 L 508,196" onmousedown="segmousedown(&quot;248&quot;,&quot;0&quot;,evt);" onmouseover="segmouseover(&quot;248&quot;,&quot;0&quot;,evt);" onmouseout="segmouseout(&quot;248&quot;,&quot;0&quot;,evt);" onclick="segclick(&quot;248&quot;,&quot;0&quot;,evt);"></path></g></g></g><g id="249"><path style="stroke:#bdbddf; stroke-width:8px; fill:none;" opacity="0.7" d="M 151,197L 123,197"></path><g><path style="stroke:#ff0; stroke-width:8px; fill:none; " opacity="0" d="M 151,197L 123,197"></path></g><path style="stroke:black; fill:none;" d="M 151,197L 123,197"></path><g><g><path style="stroke:#0ff; stroke-width:8px; fill:none; " opacity="0" d="M 151,197 L 123,197" onmousedown="segmousedown(&quot;249&quot;,&quot;0&quot;,evt);" onmouseover="segmouseover(&quot;249&quot;,&quot;0&quot;,evt);" onmouseout="segmouseout(&quot;249&quot;,&quot;0&quot;,evt);" onclick="segclick(&quot;249&quot;,&quot;0&quot;,evt);"></path></g></g></g><g id="250"><path style="stroke:#bdbddf; stroke-width:8px; fill:none;" opacity="0.7" d="M 93,197L 60,197"></path><g><path style="stroke:#ff0; stroke-width:8px; fill:none; " opacity="0" d="M 93,197L 60,197"></path></g><path style="stroke:black; fill:none;" d="M 93,197L 60,197"></path><g><g><path style="stroke:#0ff; stroke-width:8px; fill:none; " opacity="0" d="M 93,197 L 60,197" onmousedown="segmousedown(&quot;250&quot;,&quot;0&quot;,evt);" onmouseover="segmouseover(&quot;250&quot;,&quot;0&quot;,evt);" onmouseout="segmouseout(&quot;250&quot;,&quot;0&quot;,evt);" onclick="segclick(&quot;250&quot;,&quot;0&quot;,evt);"></path></g></g></g><g id="251"><path style="stroke:#bdbddf; stroke-width:8px; fill:none;" opacity="0.7" d="M 30,197L -2,197"></path><g><path style="stroke:#ff0; stroke-width:8px; fill:none; " opacity="0" d="M 30,197L -2,197"></path></g><path style="stroke:black; fill:none;" d="M 30,197L -2,197"></path><g><g><path style="stroke:#0ff; stroke-width:8px; fill:none; " opacity="0" d="M 30,197 L -2,197" onmousedown="segmousedown(&quot;251&quot;,&quot;0&quot;,evt);" onmouseover="segmouseover(&quot;251&quot;,&quot;0&quot;,evt);" onmouseout="segmouseout(&quot;251&quot;,&quot;0&quot;,evt);" onclick="segclick(&quot;251&quot;,&quot;0&quot;,evt);"></path></g></g></g><g id="252"><path style="stroke:#bdbddf; stroke-width:8px; fill:none;" opacity="0.7" d="M 111,212L 111,244"></path><g><path style="stroke:#ff0; stroke-width:8px; fill:none; " opacity="0" d="M 111,212L 111,244"></path></g><path style="stroke:black; fill:none;" d="M 111,212L 111,244"></path><g><g><path style="stroke:#0ff; stroke-width:8px; fill:none; " opacity="0" d="M 111,212 L 111,244" onmousedown="segmousedown(&quot;252&quot;,&quot;0&quot;,evt);" onmouseover="segmouseover(&quot;252&quot;,&quot;0&quot;,evt);" onmouseout="segmouseout(&quot;252&quot;,&quot;0&quot;,evt);" onclick="segclick(&quot;252&quot;,&quot;0&quot;,evt);"></path></g></g></g></g>
  <g id="nodes"><g id="240" onmousedown="nodemousedown(240,evt);" onmouseover="nodemouseover(240,evt);" onmouseout="nodemouseout(240,evt);" transform="translate(-17,197)"><rect x="-21" y="-21" width="42" height="42" fill="#0ff" style="stroke:none; opacity:0.75;" display="none"></rect><rect x="-15" y="-15" width="30" height="30" fill="#f0f0d2" style="stroke:black; opacity:1;"></rect></g><g id="239" onmousedown="nodemousedown(239,evt);" onmouseover="nodemouseover(239,evt);" onmouseout="nodemouseout(239,evt);" transform="translate(45,197)"><rect x="-21" y="-21" width="42" height="42" fill="#0ff" style="stroke:none; opacity:0.75;" display="none"></rect><rect x="-15" y="-15" width="30" height="30" fill="#f0f0d2" style="stroke:black; opacity:1;"></rect></g><g id="237" onmousedown="nodemousedown(237,evt);" onmouseover="nodemouseover(237,evt);" onmouseout="nodemouseout(237,evt);" transform="translate(108,197)"><rect x="-21" y="-21" width="42" height="42" fill="#0ff" style="stroke:none; opacity:0.75;" display="none"></rect><rect x="-15" y="-15" width="30" height="30" fill="#f0f0d2" style="stroke:black; opacity:1;"></rect></g><g id="229" onmousedown="nodemousedown(229,evt);" onmouseover="nodemouseover(229,evt);" onmouseout="nodemouseout(229,evt);" transform="translate(166,198)"><rect x="-21" y="-21" width="42" height="42" fill="#0ff" style="stroke:none; opacity:0.75;" display="none"></rect><rect x="-15" y="-15" width="30" height="30" fill="#f0f0d2" style="stroke:black; opacity:1;"></rect></g><g id="232" onmousedown="nodemousedown(232,evt);" onmouseover="nodemouseover(232,evt);" onmouseout="nodemouseout(232,evt);" transform="translate(226,198)"><rect x="-21" y="-21" width="42" height="42" fill="#0ff" style="stroke:none; opacity:0.75;" display="none"></rect><rect x="-15" y="-15" width="30" height="30" fill="#f0f0d2" style="stroke:black; opacity:1;"></rect></g><g id="231" onmousedown="nodemousedown(231,evt);" onmouseover="nodemouseover(231,evt);" onmouseout="nodemouseout(231,evt);" transform="translate(288,198)"><rect x="-21" y="-21" width="42" height="42" fill="#0ff" style="stroke:none; opacity:0.75;" display="none"></rect><rect x="-15" y="-15" width="30" height="30" fill="#f0f0d2" style="stroke:black; opacity:1;"></rect></g><g id="230" onmousedown="nodemousedown(230,evt);" onmouseover="nodemouseover(230,evt);" onmouseout="nodemouseout(230,evt);" transform="translate(227,259)"><rect x="-21" y="-21" width="42" height="42" fill="#0ff" style="stroke:none; opacity:0.75;" display="none"></rect><rect x="-15" y="-15" width="30" height="30" fill="#f0f0d2" style="stroke:black; opacity:1;"></rect></g><g id="233" onmousedown="nodemousedown(233,evt);" onmouseover="nodemouseover(233,evt);" onmouseout="nodemouseout(233,evt);" transform="translate(346,198)"><rect x="-21" y="-21" width="42" height="42" fill="#0ff" style="stroke:none; opacity:0.75;" display="none"></rect><rect x="-15" y="-15" width="30" height="30" fill="#f0f0d2" style="stroke:black; opacity:1;"></rect></g><g id="234" onmousedown="nodemousedown(234,evt);" onmouseover="nodemouseover(234,evt);" onmouseout="nodemouseout(234,evt);" transform="translate(408,198)"><rect x="-21" y="-21" width="42" height="42" fill="#0ff" style="stroke:none; opacity:0.75;" display="none"></rect><rect x="-15" y="-15" width="30" height="30" fill="#f0f0d2" style="stroke:black; opacity:1;"></rect></g><g id="235" onmousedown="nodemousedown(235,evt);" onmouseover="nodemouseover(235,evt);" onmouseout="nodemouseout(235,evt);" transform="translate(468,198)"><rect x="-21" y="-21" width="42" height="42" fill="#0ff" style="stroke:none; opacity:0.75;" display="none"></rect><rect x="-15" y="-15" width="30" height="30" fill="#f0f0d2" style="stroke:black; opacity:1;"></rect></g><g id="236" onmousedown="nodemousedown(236,evt);" onmouseover="nodemouseover(236,evt);" onmouseout="nodemouseout(236,evt);" transform="translate(523,196)"><rect x="-21" y="-21" width="42" height="42" fill="#0ff" style="stroke:none; opacity:0.75;" display="none"></rect><rect x="-15" y="-15" width="30" height="30" fill="#f0f0d2" style="stroke:black; opacity:1;"></rect></g><g id="238" onmousedown="nodemousedown(238,evt);" onmouseover="nodemouseover(238,evt);" onmouseout="nodemouseout(238,evt);" transform="translate(111,259)"><rect x="-21" y="-21" width="42" height="42" fill="#0ff" style="stroke:none; opacity:0.75;" display="none"></rect><rect x="-15" y="-15" width="30" height="30" fill="#f0f0d2" style="stroke:black; opacity:1;"></rect></g></g>
  <g id="BPs"><g onmousedown="bpmousedown(305,evt);" onmouseover="bpmouseover(305,evt);" onmouseout="bpmouseout(305,evt);" transform="translate(288,259)" opacity="0"><ellipse cx="0" cy="0" rx="16" ry="16" fill="#0ff" style="stroke:none; opacity:0.75;" display="none"></ellipse><ellipse cx="0" cy="0" rx="6.063550013440001" ry="6.063550013440001" fill="#777" style="stroke:black;"></ellipse></g><g onmousedown="bpmousedown(317,evt);" onmouseover="bpmouseover(317,evt);" onmouseout="bpmouseout(317,evt);" transform="translate(173,262)" opacity="0"><ellipse cx="0" cy="0" rx="16" ry="16" fill="#0ff" style="stroke:none; opacity:0.75;" display="none"></ellipse><ellipse cx="0" cy="0" rx="6.063550013440001" ry="6.063550013440001" fill="#777" style="stroke:black;"></ellipse></g></g>
  <g id="ports"></g>
</g>
</svg>