<svg id="SVGCanvas" width="480px" height="270px" xmlns="http://www.w3.org/2000/svg" xmlns:xlink="http://www.w3.org/1999/xlink" onmouseup="null" onmousemove="null">
<rect id="background" x="0" y="0" height="100%" width="100%" fill="#bdbddf" onmousedown="bgmousedown(evt)"></rect>
<g id="foreground" transform="translate(120.16438356164385,0),scale(1.4794520547945205),translate(-145,-204)">
  <g id="edges"><g id="169"><path style="stroke:#bdbddf; stroke-width:8px; fill:none;" opacity="0.7" d="M 190,289L 262,289"></path><g><path style="stroke:#ff0; stroke-width:8px; fill:none; " opacity="0" d="M 190,289L 262,289"></path></g><path style="stroke:black; fill:none;" d="M 190,289L 262,289"></path><g><g><path style="stroke:#0ff; stroke-width:8px; fill:none; " opacity="0" d="M 190,289 L 262,289" onmousedown="segmousedown(&quot;169&quot;,&quot;0&quot;,evt);" onmouseover="segmouseover(&quot;169&quot;,&quot;0&quot;,evt);" onmouseout="segmouseout(&quot;169&quot;,&quot;0&quot;,evt);" onclick="segclick(&quot;169&quot;,&quot;0&quot;,evt);"></path></g></g></g><g id="170"><path style="stroke:#bdbddf; stroke-width:8px; fill:none;" opacity="0.7" d="M 277,274 V 246 a 12,12 0 0,0 -12,-12L 251,234"></path><g><path style="stroke:#ff0; stroke-width:8px; fill:none; " opacity="0" d="M 277,274 V 246 a 12,12 0 0,0 -12,-12L 251,234"></path></g><path style="stroke:black; fill:none;" d="M 277,274 V 246 a 12,12 0 0,0 -12,-12L 251,234"></path><g><g><path style="stroke:#0ff; stroke-width:8px; fill:none; " opacity="0" d="M 277,274 L 277,234" onmousedown="segmousedown(&quot;170&quot;,&quot;0&quot;,evt);" onmouseover="segmouseover(&quot;170&quot;,&quot;0&quot;,evt);" onmouseout="segmouseout(&quot;170&quot;,&quot;0&quot;,evt);" onclick="segclick(&quot;170&quot;,&quot;0&quot;,evt);"></path><path style="stroke:#0ff; stroke-width:8px; fill:none; " opacity="0" d="M 277,234 L 251,234" onmousedown="segmousedown(&quot;170&quot;,&quot;1&quot;,evt);" onmouseover="segmouseover(&quot;170&quot;,&quot;1&quot;,evt);" onmouseout="segmouseout(&quot;170&quot;,&quot;1&quot;,evt);" onclick="segclick(&quot;170&quot;,&quot;1&quot;,evt);"></path></g></g></g><g id="171"><path style="stroke:#bdbddf; stroke-width:8px; fill:none;" opacity="0.7" d="M 226,249L 226,324.5"></path><g><path style="stroke:#ff0; stroke-width:8px; fill:none; " opacity="0" d="M 226,249L 226,324.5"></path></g><path style="stroke:black; fill:none;" d="M 226,249L 226,324.5"></path><g><g><path style="stroke:#0ff; stroke-width:8px; fill:none; " opacity="0" d="M 226,249 L 226,324.5" onmousedown="segmousedown(&quot;171&quot;,&quot;0&quot;,evt);" onmouseover="segmouseover(&quot;171&quot;,&quot;0&quot;,evt);" onmouseout="segmouseout(&quot;171&quot;,&quot;0&quot;,evt);" onclick="segclick(&quot;171&quot;,&quot;0&quot;,evt);"></path></g></g></g><g id="172"><path style="stroke:#bdbddf; stroke-width:8px; fill:none;" opacity="0.7" d="M 241,348 H 265 a 12,12 0 0,0 12,-12L 277,304"></path><g><path style="stroke:#ff0; stroke-width:8px; fill:none; " opacity="0" d="M 241,348 H 265 a 12,12 0 0,0 12,-12L 277,304"></path></g><path style="stroke:black; fill:none;" d="M 241,348 H 265 a 12,12 0 0,0 12,-12L 277,304"></path><g><g><path style="stroke:#0ff; stroke-width:8px; fill:none; " opacity="0" d="M 241,348 L 277,348" onmousedown="segmousedown(&quot;172&quot;,&quot;0&quot;,evt);" onmouseover="segmouseover(&quot;172&quot;,&quot;0&quot;,evt);" onmouseout="segmouseout(&quot;172&quot;,&quot;0&quot;,evt);" onclick="segclick(&quot;172&quot;,&quot;0&quot;,evt);"></path><path style="stroke:#0ff; stroke-width:8px; fill:none; " opacity="0" d="M 277,348 L 277,304" onmousedown="segmousedown(&quot;172&quot;,&quot;1&quot;,evt);" onmouseover="segmouseover(&quot;172&quot;,&quot;1&quot;,evt);" onmouseout="segmouseout(&quot;172&quot;,&quot;1&quot;,evt);" onclick="segclick(&quot;172&quot;,&quot;1&quot;,evt);"></path></g></g></g><g id="173"><path style="stroke:#bdbddf; stroke-width:8px; fill:none;" opacity="0.7" d="M 201,234 H 187 a 12,12 0 0,0 -12,12L 175,274"></path><g><path style="stroke:#ff0; stroke-width:8px; fill:none; " opacity="0" d="M 201,234 H 187 a 12,12 0 0,0 -12,12L 175,274"></path></g><path style="stroke:black; fill:none;" d="M 201,234 H 187 a 12,12 0 0,0 -12,12L 175,274"></path><g><g><path style="stroke:#0ff; stroke-width:8px; fill:none; " opacity="0" d="M 201,234 L 175,234" onmousedown="segmousedown(&quot;173&quot;,&quot;0&quot;,evt);" onmouseover="segmouseover(&quot;173&quot;,&quot;0&quot;,evt);" onmouseout="segmouseout(&quot;173&quot;,&quot;0&quot;,evt);" onclick="segclick(&quot;173&quot;,&quot;0&quot;,evt);"></path><path style="stroke:#0ff; stroke-width:8px; fill:none; " opacity="0" d="M 175,234 L 175,274" onmousedown="segmousedown(&quot;173&quot;,&quot;1&quot;,evt);" onmouseover="segmouseover(&quot;173&quot;,&quot;1&quot;,evt);" onmouseout="segmouseout(&quot;173&quot;,&quot;1&quot;,evt);" onclick="segclick(&quot;173&quot;,&quot;1&quot;,evt);"></path></g></g></g><g id="174"><path style="stroke:#bdbddf; stroke-width:8px; fill:none;" opacity="0.7" d="M 175,304 V 336 a 12,12 0 0,0 12,12L 211,348"></path><g><path style="stroke:#ff0; stroke-width:8px; fill:none; " opacity="0" d="M 175,304 V 336 a 12,12 0 0,0 12,12L 211,348"></path></g><path style="stroke:black; fill:none;" d="M 175,304 V 336 a 12,12 0 0,0 12,12L 211,348"></path><g><g><path style="stroke:#0ff; stroke-width:8px; fill:none; " opacity="0" d="M 175,304 L 175,348" onmousedown="segmousedown(&quot;174&quot;,&quot;0&quot;,evt);" onmouseover="segmouseover(&quot;174&quot;,&quot;0&quot;,evt);" onmouseout="segmouseout(&quot;174&quot;,&quot;0&quot;,evt);" onclick="segclick(&quot;174&quot;,&quot;0&quot;,evt);"></path><path style="stroke:#0ff; stroke-width:8px; fill:none; " opacity="0" d="M 175,348 L 211,348" onmousedown="segmousedown(&quot;174&quot;,&quot;1&quot;,evt);" onmouseover="segmouseover(&quot;174&quot;,&quot;1&quot;,evt);" onmouseout="segmouseout(&quot;174&quot;,&quot;1&quot;,evt);" onclick="segclick(&quot;174&quot;,&quot;1&quot;,evt);"></path></g></g></g></g>
  <g id="nodes"><g id="165" onmousedown="nodemousedown(165,evt);" onmouseover="nodemouseover(165,evt);" onmouseout="nodemouseout(165,evt);" transform="translate(226,234)"><rect x="-31" y="-21" width="62" height="42" fill="#0ff" style="stroke:none; opacity:0.75;" display="none"></rect><rect x="-25" y="-15" width="50" height="30" fill="#f0f0d2" style="stroke:black; opacity:1;"></rect></g><g id="166" onmousedown="nodemousedown(166,evt);" onmouseover="nodemouseover(166,evt);" onmouseout="nodemouseout(166,evt);" transform="translate(226,348)"><rect x="-21" y="-29.5" width="42" height="59" fill="#0ff" style="stroke:none; opacity:0.75;" display="none"></rect><rect x="-15" y="-23.5" width="30" height="47" fill="#f0f0d2" style="stroke:black; opacity:1;"></rect></g><g id="168" onmousedown="nodemousedown(168,evt);" onmouseover="nodemouseover(168,evt);" onmouseout="nodemouseout(168,evt);" transform="translate(175,289)"><rect x="-21" y="-21" width="42" height="42" fill="#0ff" style="stroke:none; opacity:0.75;" display="none"></rect><rect x="-15" y="-15" width="30" height="30" fill="#f0f0d2" style="stroke:black; opacity:1;"></rect></g><g id="167" onmousedown="nodemousedown(167,evt);" onmouseover="nodemouseover(167,evt);" onmouseout="nodemouseout(167,evt);" transform="translate(277,289)"><rect x="-21" y="-21" width="42" height="42" fill="#0ff" style="stroke:none; opacity:0.75;" display="none"></rect><rect x="-15" y="-15" width="30" height="30" fill="#f0f0d2" style="stroke:black; opacity:1;"></rect></g></g>
  <g id="BPs"><g onmousedown="bpmousedown(181,evt);" onmouseover="bpmouseover(181,evt);" onmouseout="bpmouseout(181,evt);" transform="translate(277,234)" opacity="0"><ellipse cx="0" cy="0" rx="16" ry="16" fill="#0ff" style="stroke:none; opacity:0.75;" display="none"></ellipse><ellipse cx="0" cy="0" rx="5.132188731375617" ry="5.132188731375617" fill="#777" style="stroke:black;"></ellipse></g><g onmousedown="bpmousedown(189,evt);" onmouseover="bpmouseover(189,evt);" onmouseout="bpmouseout(189,evt);" transform="translate(277,348)" opacity="0"><ellipse cx="0" cy="0" rx="16" ry="16" fill="#0ff" style="stroke:none; opacity:0.75;" display="none"></ellipse><ellipse cx="0" cy="0" rx="5.132188731375617" ry="5.132188731375617" fill="#777" style="stroke:black;"></ellipse></g><g onmousedown="bpmousedown(195,evt);" onmouseover="bpmouseover(195,evt);" onmouseout="bpmouseout(195,evt);" transform="translate(175,234)" opacity="0"><ellipse cx="0" cy="0" rx="16" ry="16" fill="#0ff" style="stroke:none; opacity:0.75;" display="none"></ellipse><ellipse cx="0" cy="0" rx="5.132188731375617" ry="5.132188731375617" fill="#777" style="stroke:black;"></ellipse></g><g onmousedown="bpmousedown(199,evt);" onmouseover="bpmouseover(199,evt);" onmouseout="bpmouseout(199,evt);" transform="translate(175,348)" opacity="0"><ellipse cx="0" cy="0" rx="16" ry="16" fill="#0ff" style="stroke:none; opacity:0.75;" display="none"></ellipse><ellipse cx="0" cy="0" rx="5.132188731375617" ry="5.132188731375617" fill="#777" style="stroke:black;"></ellipse></g></g>
  <g id="ports"></g>
</g>
</svg>