<svg id="SVGCanvas" width="480px" height="270px" xmlns="http://www.w3.org/2000/svg" xmlns:xlink="http://www.w3.org/1999/xlink" onmouseup="null" onmousemove="null">
<rect id="background" x="0" y="0" height="100%" width="100%" fill="#bdbddf" onmousedown="bgmousedown(evt)"></rect>
<g id="foreground" transform="translate(0,43.493617021276606),scale(0.8170212765957446),translate(-29,-259)">
  <g id="edges"><g id="266"><path style="stroke:#bdbddf; stroke-width:8px; fill:none;" opacity="0.7" d="M 432,289 H 563 a 12,12 0 0,1 12,12L 575,332"></path><g><path style="stroke:#ff0; stroke-width:8px; fill:none; " opacity="0" d="M 432,289 H 563 a 12,12 0 0,1 12,12L 575,332"></path></g><path style="stroke:black; fill:none;" d="M 432,289 H 563 a 12,12 0 0,1 12,12L 575,332"></path><g><g><path style="stroke:#0ff; stroke-width:8px; fill:none; " opacity="0" d="M 432,289 L 575,289" onmousedown="segmousedown(&quot;266&quot;,&quot;0&quot;,evt);" onmouseover="segmouseover(&quot;266&quot;,&quot;0&quot;,evt);" onmouseout="segmouseout(&quot;266&quot;,&quot;0&quot;,evt);" onclick="segclick(&quot;266&quot;,&quot;0&quot;,evt);"></path><path style="stroke:#0ff; stroke-width:8px; fill:none; " opacity="0" d="M 575,289 L 575,332" onmousedown="segmousedown(&quot;266&quot;,&quot;1&quot;,evt);" onmouseover="segmouseover(&quot;266&quot;,&quot;1&quot;,evt);" onmouseout="segmouseout(&quot;266&quot;,&quot;1&quot;,evt);" onclick="segclick(&quot;266&quot;,&quot;1&quot;,evt);"></path></g></g></g><g id="267"><path style="stroke:#bdbddf; stroke-width:8px; fill:none;" opacity="0.7" d="M 548.5,347L 510,347"></path><g><path style="stroke:#ff0; stroke-width:8px; fill:none; " opacity="0" d="M 548.5,347L 510,347"></path></g><path style="stroke:black; fill:none;" d="M 548.5,347L 510,347"></path><g><g><path style="stroke:#0ff; stroke-width:8px; fill:none; " opacity="0" d="M 548.5,347 L 510,347" onmousedown="segmousedown(&quot;267&quot;,&quot;0&quot;,evt);" onmouseover="segmouseover(&quot;267&quot;,&quot;0&quot;,evt);" onmouseout="segmouseout(&quot;267&quot;,&quot;0&quot;,evt);" onclick="segclick(&quot;267&quot;,&quot;0&quot;,evt);"></path></g></g></g><g id="268"><path style="stroke:#bdbddf; stroke-width:8px; fill:none;" opacity="0.7" d="M 269,332 V 301 a 12,12 0 0,1 12,-12L 402,289"></path><g><path style="stroke:#ff0; stroke-width:8px; fill:none; " opacity="0" d="M 269,332 V 301 a 12,12 0 0,1 12,-12L 402,289"></path></g><path style="stroke:black; fill:none;" d="M 269,332 V 301 a 12,12 0 0,1 12,-12L 402,289"></path><g><g><path style="stroke:#0ff; stroke-width:8px; fill:none; " opacity="0" d="M 269,332 L 269,289" onmousedown="segmousedown(&quot;268&quot;,&quot;0&quot;,evt);" onmouseover="segmouseover(&quot;268&quot;,&quot;0&quot;,evt);" onmouseout="segmouseout(&quot;268&quot;,&quot;0&quot;,evt);" onclick="segclick(&quot;268&quot;,&quot;0&quot;,evt);"></path><path style="stroke:#0ff; stroke-width:8px; fill:none; " opacity="0" d="M 269,289 L 402,289" onmousedown="segmousedown(&quot;268&quot;,&quot;1&quot;,evt);" onmouseover="segmouseover(&quot;268&quot;,&quot;1&quot;,evt);" onmouseout="segmouseout(&quot;268&quot;,&quot;1&quot;,evt);" onclick="segclick(&quot;268&quot;,&quot;1&quot;,evt);"></path></g></g></g><g id="269"><path style="stroke:#bdbddf; stroke-width:8px; fill:none;" opacity="0.7" d="M 254,342L 218,342"></path><g><path style="stroke:#ff0; stroke-width:8px; fill:none; " opacity="0" d="M 254,342L 218,342"></path></g><path style="stroke:black; fill:none;" d="M 254,342L 218,342"></path><g><g><path style="stroke:#0ff; stroke-width:8px; fill:none; " opacity="0" d="M 254,342 L 218,342" onmousedown="segmousedown(&quot;269&quot;,&quot;0&quot;,evt);" onmouseover="segmouseover(&quot;269&quot;,&quot;0&quot;,evt);" onmouseout="segmouseout(&quot;269&quot;,&quot;0&quot;,evt);" onclick="segclick(&quot;269&quot;,&quot;0&quot;,evt);"></path></g></g></g><g id="270"><path style="stroke:#bdbddf; stroke-width:8px; fill:none;" opacity="0.7" d="M 188,342L 156,342"></path><g><path style="stroke:#ff0; stroke-width:8px; fill:none; " opacity="0" d="M 188,342L 156,342"></path></g><path style="stroke:black; fill:none;" d="M 188,342L 156,342"></path><g><g><path style="stroke:#0ff; stroke-width:8px; fill:none; " opacity="0" d="M 188,342 L 156,342" onmousedown="segmousedown(&quot;270&quot;,&quot;0&quot;,evt);" onmouseover="segmouseover(&quot;270&quot;,&quot;0&quot;,evt);" onmouseout="segmouseout(&quot;270&quot;,&quot;0&quot;,evt);" onclick="segclick(&quot;270&quot;,&quot;0&quot;,evt);"></path></g></g></g><g id="271"><path style="stroke:#bdbddf; stroke-width:8px; fill:none;" opacity="0.7" d="M 480,346L 439,346"></path><g><path style="stroke:#ff0; stroke-width:8px; fill:none; " opacity="0" d="M 480,346L 439,346"></path></g><path style="stroke:black; fill:none;" d="M 480,346L 439,346"></path><g><g><path style="stroke:#0ff; stroke-width:8px; fill:none; " opacity="0" d="M 480,346 L 439,346" onmousedown="segmousedown(&quot;271&quot;,&quot;0&quot;,evt);" onmouseover="segmouseover(&quot;271&quot;,&quot;0&quot;,evt);" onmouseout="segmouseout(&quot;271&quot;,&quot;0&quot;,evt);" onclick="segclick(&quot;271&quot;,&quot;0&quot;,evt);"></path></g></g></g><g id="272"><path style="stroke:#bdbddf; stroke-width:8px; fill:none;" opacity="0.7" d="M 397,343L 360,343"></path><g><path style="stroke:#ff0; stroke-width:8px; fill:none; " opacity="0" d="M 397,343L 360,343"></path></g><path style="stroke:black; fill:none;" d="M 397,343L 360,343"></path><g><g><path style="stroke:#0ff; stroke-width:8px; fill:none; " opacity="0" d="M 397,343 L 360,343" onmousedown="segmousedown(&quot;272&quot;,&quot;0&quot;,evt);" onmouseover="segmouseover(&quot;272&quot;,&quot;0&quot;,evt);" onmouseout="segmouseout(&quot;272&quot;,&quot;0&quot;,evt);" onclick="segclick(&quot;272&quot;,&quot;0&quot;,evt);"></path></g></g></g><g id="273"><path style="stroke:#bdbddf; stroke-width:8px; fill:none;" opacity="0.7" d="M 330,342L 284,342"></path><g><path style="stroke:#ff0; stroke-width:8px; fill:none; " opacity="0" d="M 330,342L 284,342"></path></g><path style="stroke:black; fill:none;" d="M 330,342L 284,342"></path><g><g><path style="stroke:#0ff; stroke-width:8px; fill:none; " opacity="0" d="M 330,342 L 284,342" onmousedown="segmousedown(&quot;273&quot;,&quot;0&quot;,evt);" onmouseover="segmouseover(&quot;273&quot;,&quot;0&quot;,evt);" onmouseout="segmouseout(&quot;273&quot;,&quot;0&quot;,evt);" onclick="segclick(&quot;273&quot;,&quot;0&quot;,evt);"></path></g></g></g><g id="274"><path style="stroke:#bdbddf; stroke-width:8px; fill:none;" opacity="0.7" d="M 131,332L 131,307"></path><g><path style="stroke:#ff0; stroke-width:8px; fill:none; " opacity="0" d="M 131,332L 131,307"></path></g><path style="stroke:black; fill:none;" d="M 131,332L 131,307"></path><g><g><path style="stroke:#0ff; stroke-width:8px; fill:none; " opacity="0" d="M 131,332 L 131,307" onmousedown="segmousedown(&quot;274&quot;,&quot;0&quot;,evt);" onmouseover="segmouseover(&quot;274&quot;,&quot;0&quot;,evt);" onmouseout="segmouseout(&quot;274&quot;,&quot;0&quot;,evt);" onclick="segclick(&quot;274&quot;,&quot;0&quot;,evt);"></path></g></g></g><g id="275"><path style="stroke:#bdbddf; stroke-width:8px; fill:none;" opacity="0.7" d="M 106,342L 74,342"></path><g><path style="stroke:#ff0; stroke-width:8px; fill:none; " opacity="0" d="M 106,342L 74,342"></path></g><path style="stroke:black; fill:none;" d="M 106,342L 74,342"></path><g><g><path style="stroke:#0ff; stroke-width:8px; fill:none; " opacity="0" d="M 106,342 L 74,342" onmousedown="segmousedown(&quot;275&quot;,&quot;0&quot;,evt);" onmouseover="segmouseover(&quot;275&quot;,&quot;0&quot;,evt);" onmouseout="segmouseout(&quot;275&quot;,&quot;0&quot;,evt);" onclick="segclick(&quot;275&quot;,&quot;0&quot;,evt);"></path></g></g></g><g id="276"><path style="stroke:#bdbddf; stroke-width:8px; fill:none;" opacity="0.7" d="M 254,347 H 246.5 a 7.5,7.5 0 0,0 -7.5,7.5 V 429 a 11,11 0 0,0 11,11L 261,440"></path><g><path style="stroke:#ff0; stroke-width:8px; fill:none; " opacity="0" d="M 254,347 H 246.5 a 7.5,7.5 0 0,0 -7.5,7.5 V 429 a 11,11 0 0,0 11,11L 261,440"></path></g><path style="stroke:black; fill:none;" d="M 254,347 H 246.5 a 7.5,7.5 0 0,0 -7.5,7.5 V 429 a 11,11 0 0,0 11,11L 261,440"></path><g><g><path style="stroke:#0ff; stroke-width:8px; fill:none; " opacity="0" d="M 254,347 L 239,347" onmousedown="segmousedown(&quot;276&quot;,&quot;0&quot;,evt);" onmouseover="segmouseover(&quot;276&quot;,&quot;0&quot;,evt);" onmouseout="segmouseout(&quot;276&quot;,&quot;0&quot;,evt);" onclick="segclick(&quot;276&quot;,&quot;0&quot;,evt);"></path><path style="stroke:#0ff; stroke-width:8px; fill:none; " opacity="0" d="M 239,347 L 239,440" onmousedown="segmousedown(&quot;276&quot;,&quot;1&quot;,evt);" onmouseover="segmouseover(&quot;276&quot;,&quot;1&quot;,evt);" onmouseout="segmouseout(&quot;276&quot;,&quot;1&quot;,evt);" onclick="segclick(&quot;276&quot;,&quot;1&quot;,evt);"></path><path style="stroke:#0ff; stroke-width:8px; fill:none; " opacity="0" d="M 239,440 L 261,440" onmousedown="segmousedown(&quot;276&quot;,&quot;2&quot;,evt);" onmouseover="segmouseover(&quot;276&quot;,&quot;2&quot;,evt);" onmouseout="segmouseout(&quot;276&quot;,&quot;2&quot;,evt);" onclick="segclick(&quot;276&quot;,&quot;2&quot;,evt);"></path></g></g></g><g id="277"><path style="stroke:#bdbddf; stroke-width:8px; fill:none;" opacity="0.7" d="M 291,440L 326,440"></path><g><path style="stroke:#ff0; stroke-width:8px; fill:none; " opacity="0" d="M 291,440L 326,440"></path></g><path style="stroke:black; fill:none;" d="M 291,440L 326,440"></path><g><g><path style="stroke:#0ff; stroke-width:8px; fill:none; " opacity="0" d="M 291,440 L 326,440" onmousedown="segmousedown(&quot;277&quot;,&quot;0&quot;,evt);" onmouseover="segmouseover(&quot;277&quot;,&quot;0&quot;,evt);" onmouseout="segmouseout(&quot;277&quot;,&quot;0&quot;,evt);" onclick="segclick(&quot;277&quot;,&quot;0&quot;,evt);"></path></g></g></g><g id="278"><path style="stroke:#bdbddf; stroke-width:8px; fill:none;" opacity="0.7" d="M 356,440L 380,440"></path><g><path style="stroke:#ff0; stroke-width:8px; fill:none; " opacity="0" d="M 356,440L 380,440"></path></g><path style="stroke:black; fill:none;" d="M 356,440L 380,440"></path><g><g><path style="stroke:#0ff; stroke-width:8px; fill:none; " opacity="0" d="M 356,440 L 380,440" onmousedown="segmousedown(&quot;278&quot;,&quot;0&quot;,evt);" onmouseover="segmouseover(&quot;278&quot;,&quot;0&quot;,evt);" onmouseout="segmouseout(&quot;278&quot;,&quot;0&quot;,evt);" onclick="segclick(&quot;278&quot;,&quot;0&quot;,evt);"></path></g></g></g><g id="279"><path style="stroke:#bdbddf; stroke-width:8px; fill:none;" opacity="0.7" d="M 395,424 V 408 a 12,12 0 0,0 -12,-12 H 313 a 12,12 0 0,1 -12,-12 V 355.5 a 8.5,8.5 0 0,0 -8.5,-8.5L 284,347"></path><g><path style="stroke:#ff0; stroke-width:8px; fill:none; " opacity="0" d="M 395,424 V 408 a 12,12 0 0,0 -12,-12 H 313 a 12,12 0 0,1 -12,-12 V 355.5 a 8.5,8.5 0 0,0 -8.5,-8.5L 284,347"></path></g><path style="stroke:black; fill:none;" d="M 395,424 V 408 a 12,12 0 0,0 -12,-12 H 313 a 12,12 0 0,1 -12,-12 V 355.5 a 8.5,8.5 0 0,0 -8.5,-8.5L 284,347"></path><g><g><path style="stroke:#0ff; stroke-width:8px; fill:none; " opacity="0" d="M 395,424 L 395,396" onmousedown="segmousedown(&quot;279&quot;,&quot;0&quot;,evt);" onmouseover="segmouseover(&quot;279&quot;,&quot;0&quot;,evt);" onmouseout="segmouseout(&quot;279&quot;,&quot;0&quot;,evt);" onclick="segclick(&quot;279&quot;,&quot;0&quot;,evt);"></path><path style="stroke:#0ff; stroke-width:8px; fill:none; " opacity="0" d="M 395,396 L 301,396" onmousedown="segmousedown(&quot;279&quot;,&quot;1&quot;,evt);" onmouseover="segmouseover(&quot;279&quot;,&quot;1&quot;,evt);" onmouseout="segmouseout(&quot;279&quot;,&quot;1&quot;,evt);" onclick="segclick(&quot;279&quot;,&quot;1&quot;,evt);"></path><path style="stroke:#0ff; stroke-width:8px; fill:none; " opacity="0" d="M 301,396 L 301,347" onmousedown="segmousedown(&quot;279&quot;,&quot;2&quot;,evt);" onmouseover="segmouseover(&quot;279&quot;,&quot;2&quot;,evt);" onmouseout="segmouseout(&quot;279&quot;,&quot;2&quot;,evt);" onclick="segclick(&quot;279&quot;,&quot;2&quot;,evt);"></path><path style="stroke:#0ff; stroke-width:8px; fill:none; " opacity="0" d="M 301,347 L 284,347" onmousedown="segmousedown(&quot;279&quot;,&quot;3&quot;,evt);" onmouseover="segmouseover(&quot;279&quot;,&quot;3&quot;,evt);" onmouseout="segmouseout(&quot;279&quot;,&quot;3&quot;,evt);" onclick="segclick(&quot;279&quot;,&quot;3&quot;,evt);"></path></g></g></g></g>
  <g id="nodes"><g id="257" onmousedown="nodemousedown(257,evt);" onmouseover="nodemouseover(257,evt);" onmouseout="nodemouseout(257,evt);" transform="translate(345,347)"><rect x="-21" y="-21" width="42" height="42" fill="#0ff" style="stroke:none; opacity:0.75;" display="none"></rect><rect x="-15" y="-15" width="30" height="30" fill="#f0f0d2" style="stroke:black; opacity:1;"></rect></g><g id="253" onmousedown="nodemousedown(253,evt);" onmouseover="nodemouseover(253,evt);" onmouseout="nodemouseout(253,evt);" transform="translate(417,289)"><rect x="-21" y="-21" width="42" height="42" fill="#0ff" style="stroke:none; opacity:0.75;" display="none"></rect><rect x="-15" y="-15" width="30" height="30" fill="#f0f0d2" style="stroke:black; opacity:1;"></rect></g><g id="263" onmousedown="nodemousedown(263,evt);" onmouseover="nodemouseover(263,evt);" onmouseout="nodemouseout(263,evt);" transform="translate(276,440)"><rect x="-21" y="-34" width="42" height="68" fill="#0ff" style="stroke:none; opacity:0.75;" display="none"></rect><rect x="-15" y="-28" width="30" height="56" fill="#f0f0d2" style="stroke:black; opacity:1;"></rect></g><g id="264" onmousedown="nodemousedown(264,evt);" onmouseover="nodemouseover(264,evt);" onmouseout="nodemouseout(264,evt);" transform="translate(341,440)"><rect x="-21" y="-21" width="42" height="42" fill="#0ff" style="stroke:none; opacity:0.75;" display="none"></rect><rect x="-15" y="-15" width="30" height="30" fill="#f0f0d2" style="stroke:black; opacity:1;"></rect></g><g id="265" onmousedown="nodemousedown(265,evt);" onmouseover="nodemouseover(265,evt);" onmouseout="nodemouseout(265,evt);" transform="translate(395,439)"><rect x="-21" y="-21" width="42" height="42" fill="#0ff" style="stroke:none; opacity:0.75;" display="none"></rect><rect x="-15" y="-15" width="30" height="30" fill="#f0f0d2" style="stroke:black; opacity:1;"></rect></g><g id="256" onmousedown="nodemousedown(256,evt);" onmouseover="nodemouseover(256,evt);" onmouseout="nodemouseout(256,evt);" transform="translate(418,352)"><rect x="-27" y="-31.5" width="54" height="63" fill="#0ff" style="stroke:none; opacity:0.75;" display="none"></rect><rect x="-21" y="-25.5" width="42" height="51" fill="#f0f0d2" style="stroke:black; opacity:1;"></rect></g><g id="254" onmousedown="nodemousedown(254,evt);" onmouseover="nodemouseover(254,evt);" onmouseout="nodemouseout(254,evt);" transform="translate(575,347)"><rect x="-32.5" y="-21" width="65" height="42" fill="#0ff" style="stroke:none; opacity:0.75;" display="none"></rect><rect x="-26.5" y="-15" width="53" height="30" fill="#f0f0d2" style="stroke:black; opacity:1;"></rect></g><g id="255" onmousedown="nodemousedown(255,evt);" onmouseover="nodemouseover(255,evt);" onmouseout="nodemouseout(255,evt);" transform="translate(495,352)"><rect x="-21" y="-21" width="42" height="42" fill="#0ff" style="stroke:none; opacity:0.75;" display="none"></rect><rect x="-15" y="-15" width="30" height="30" fill="#f0f0d2" style="stroke:black; opacity:1;"></rect></g><g id="260" onmousedown="nodemousedown(260,evt);" onmouseover="nodemouseover(260,evt);" onmouseout="nodemouseout(260,evt);" transform="translate(131,292)"><rect x="-21" y="-21" width="42" height="42" fill="#0ff" style="stroke:none; opacity:0.75;" display="none"></rect><rect x="-15" y="-15" width="30" height="30" fill="#f0f0d2" style="stroke:black; opacity:1;"></rect></g><g id="258" onmousedown="nodemousedown(258,evt);" onmouseover="nodemouseover(258,evt);" onmouseout="nodemouseout(258,evt);" transform="translate(269,347)"><rect x="-21" y="-21" width="42" height="42" fill="#0ff" style="stroke:none; opacity:0.75;" display="none"></rect><rect x="-15" y="-15" width="30" height="30" fill="#f0f0d2" style="stroke:black; opacity:1;"></rect></g><g id="259" onmousedown="nodemousedown(259,evt);" onmouseover="nodemouseover(259,evt);" onmouseout="nodemouseout(259,evt);" transform="translate(203,347)"><rect x="-21" y="-21" width="42" height="42" fill="#0ff" style="stroke:none; opacity:0.75;" display="none"></rect><rect x="-15" y="-15" width="30" height="30" fill="#f0f0d2" style="stroke:black; opacity:1;"></rect></g><g id="261" onmousedown="nodemousedown(261,evt);" onmouseover="nodemouseover(261,evt);" onmouseout="nodemouseout(261,evt);" transform="translate(131,347)"><rect x="-31" y="-21" width="62" height="42" fill="#0ff" style="stroke:none; opacity:0.75;" display="none"></rect><rect x="-25" y="-15" width="50" height="30" fill="#f0f0d2" style="stroke:black; opacity:1;"></rect></g><g id="262" onmousedown="nodemousedown(262,evt);" onmouseover="nodemouseover(262,evt);" onmouseout="nodemouseout(262,evt);" transform="translate(59,347)"><rect x="-21" y="-21" width="42" height="42" fill="#0ff" style="stroke:none; opacity:0.75;" display="none"></rect><rect x="-15" y="-15" width="30" height="30" fill="#f0f0d2" style="stroke:black; opacity:1;"></rect></g></g>
  <g id="BPs"><g onmousedown="bpmousedown(282,evt);" onmouseover="bpmouseover(282,evt);" onmouseout="bpmouseout(282,evt);" transform="translate(575,289)" opacity="0"><ellipse cx="0" cy="0" rx="16" ry="16" fill="#0ff" style="stroke:none; opacity:0.75;" display="none"></ellipse><ellipse cx="0" cy="0" rx="6.5908152320000015" ry="6.5908152320000015" fill="#777" style="stroke:black;"></ellipse></g><g onmousedown="bpmousedown(289,evt);" onmouseover="bpmouseover(289,evt);" onmouseout="bpmouseout(289,evt);" transform="translate(269,289)" opacity="0"><ellipse cx="0" cy="0" rx="16" ry="16" fill="#0ff" style="stroke:none; opacity:0.75;" display="none"></ellipse><ellipse cx="0" cy="0" rx="6.5908152320000015" ry="6.5908152320000015" fill="#777" style="stroke:black;"></ellipse></g><g onmousedown="bpmousedown(327,evt);" onmouseover="bpmouseover(327,evt);" onmouseout="bpmouseout(327,evt);" transform="translate(395,396)" opacity="0"><ellipse cx="0" cy="0" rx="16" ry="16" fill="#0ff" style="stroke:none; opacity:0.75;" display="none"></ellipse><ellipse cx="0" cy="0" rx="6.5908152320000015" ry="6.5908152320000015" fill="#777" style="stroke:black;"></ellipse></g><g onmousedown="bpmousedown(347,evt);" onmouseover="bpmouseover(347,evt);" onmouseout="bpmouseout(347,evt);" transform="translate(301,396)" opacity="0"><ellipse cx="0" cy="0" rx="16" ry="16" fill="#0ff" style="stroke:none; opacity:0.75;" display="none"></ellipse><ellipse cx="0" cy="0" rx="6.5908152320000015" ry="6.5908152320000015" fill="#777" style="stroke:black;"></ellipse></g><g onmousedown="bpmousedown(349,evt);" onmouseover="bpmouseover(349,evt);" onmouseout="bpmouseout(349,evt);" transform="translate(239,347)" opacity="0"><ellipse cx="0" cy="0" rx="16" ry="16" fill="#0ff" style="stroke:none; opacity:0.75;" display="none"></ellipse><ellipse cx="0" cy="0" rx="6.5908152320000015" ry="6.5908152320000015" fill="#777" style="stroke:black;"></ellipse></g><g onmousedown="bpmousedown(350,evt);" onmouseover="bpmouseover(350,evt);" onmouseout="bpmouseout(350,evt);" transform="translate(239,440)" opacity="0"><ellipse cx="0" cy="0" rx="16" ry="16" fill="#0ff" style="stroke:none; opacity:0.75;" display="none"></ellipse><ellipse cx="0" cy="0" rx="6.5908152320000015" ry="6.5908152320000015" fill="#777" style="stroke:black;"></ellipse></g><g onmousedown="bpmousedown(351,evt);" onmouseover="bpmouseover(351,evt);" onmouseout="bpmouseout(351,evt);" transform="translate(301,347)" opacity="0"><ellipse cx="0" cy="0" rx="16" ry="16" fill="#0ff" style="stroke:none; opacity:0.75;" display="none"></ellipse><ellipse cx="0" cy="0" rx="6.5908152320000015" ry="6.5908152320000015" fill="#777" style="stroke:black;"></ellipse></g></g>
  <g id="ports"></g>
</g>
</svg>