<svg id="SVGCanvas" width="480px" height="270px" xmlns="http://www.w3.org/2000/svg" xmlns:xlink="http://www.w3.org/1999/xlink" onmouseup="null" onmousemove="null">
<rect id="background" x="0" y="0" height="100%" width="100%" fill="#bdbddf" onmousedown="bgmousedown(evt)"></rect>
<g id="foreground" transform="translate(85.96916299559473,0),scale(1.1894273127753303),translate(-229,-244)">
  <g id="edges"><g id="184"><path style="stroke:#bdbddf; stroke-width:8px; fill:none;" opacity="0.7" d="M 350,371L 395,371"></path><g><path style="stroke:#ff0; stroke-width:8px; fill:none; " opacity="0" d="M 350,371L 395,371"></path></g><path style="stroke:black; fill:none;" d="M 350,371L 395,371"></path><g><g><path style="stroke:#0ff; stroke-width:8px; fill:none; " opacity="0" d="M 350,371 L 395,371" onmousedown="segmousedown(&quot;184&quot;,&quot;0&quot;,evt);" onmouseover="segmouseover(&quot;184&quot;,&quot;0&quot;,evt);" onmouseout="segmouseout(&quot;184&quot;,&quot;0&quot;,evt);" onclick="segclick(&quot;184&quot;,&quot;0&quot;,evt);"></path></g></g></g><g id="185"><path style="stroke:#bdbddf; stroke-width:8px; fill:none;" opacity="0.7" d="M 425,371 H 446 a 12,12 0 0,0 12,-12L 458,338"></path><g><path style="stroke:#ff0; stroke-width:8px; fill:none; " opacity="0" d="M 425,371 H 446 a 12,12 0 0,0 12,-12L 458,338"></path></g><path style="stroke:black; fill:none;" d="M 425,371 H 446 a 12,12 0 0,0 12,-12L 458,338"></path><g><g><path style="stroke:#0ff; stroke-width:8px; fill:none; " opacity="0" d="M 425,371 L 458,371" onmousedown="segmousedown(&quot;185&quot;,&quot;0&quot;,evt);" onmouseover="segmouseover(&quot;185&quot;,&quot;0&quot;,evt);" onmouseout="segmouseout(&quot;185&quot;,&quot;0&quot;,evt);" onclick="segclick(&quot;185&quot;,&quot;0&quot;,evt);"></path><path style="stroke:#0ff; stroke-width:8px; fill:none; " opacity="0" d="M 458,371 L 458,338" onmousedown="segmousedown(&quot;185&quot;,&quot;1&quot;,evt);" onmouseover="segmouseover(&quot;185&quot;,&quot;1&quot;,evt);" onmouseout="segmouseout(&quot;185&quot;,&quot;1&quot;,evt);" onclick="segclick(&quot;185&quot;,&quot;1&quot;,evt);"></path></g></g></g><g id="186"><path style="stroke:#bdbddf; stroke-width:8px; fill:none;" opacity="0.7" d="M 458,308 V 286 a 12,12 0 0,0 -12,-12L 425,274"></path><g><path style="stroke:#ff0; stroke-width:8px; fill:none; " opacity="0" d="M 458,308 V 286 a 12,12 0 0,0 -12,-12L 425,274"></path></g><path style="stroke:black; fill:none;" d="M 458,308 V 286 a 12,12 0 0,0 -12,-12L 425,274"></path><g><g><path style="stroke:#0ff; stroke-width:8px; fill:none; " opacity="0" d="M 458,308 L 458,274" onmousedown="segmousedown(&quot;186&quot;,&quot;0&quot;,evt);" onmouseover="segmouseover(&quot;186&quot;,&quot;0&quot;,evt);" onmouseout="segmouseout(&quot;186&quot;,&quot;0&quot;,evt);" onclick="segclick(&quot;186&quot;,&quot;0&quot;,evt);"></path><path style="stroke:#0ff; stroke-width:8px; fill:none; " opacity="0" d="M 458,274 L 425,274" onmousedown="segmousedown(&quot;186&quot;,&quot;1&quot;,evt);" onmouseover="segmouseover(&quot;186&quot;,&quot;1&quot;,evt);" onmouseout="segmouseout(&quot;186&quot;,&quot;1&quot;,evt);" onclick="segclick(&quot;186&quot;,&quot;1&quot;,evt);"></path></g></g></g><g id="187"><path style="stroke:#bdbddf; stroke-width:8px; fill:none;" opacity="0.7" d="M 320,371L 274,371"></path><g><path style="stroke:#ff0; stroke-width:8px; fill:none; " opacity="0" d="M 320,371L 274,371"></path></g><path style="stroke:black; fill:none;" d="M 320,371L 274,371"></path><g><g><path style="stroke:#0ff; stroke-width:8px; fill:none; " opacity="0" d="M 320,371 L 274,371" onmousedown="segmousedown(&quot;187&quot;,&quot;0&quot;,evt);" onmouseover="segmouseover(&quot;187&quot;,&quot;0&quot;,evt);" onmouseout="segmouseout(&quot;187&quot;,&quot;0&quot;,evt);" onclick="segclick(&quot;187&quot;,&quot;0&quot;,evt);"></path></g></g></g><g id="188"><path style="stroke:#bdbddf; stroke-width:8px; fill:none;" opacity="0.7" d="M 410,424L 410,386"></path><g><path style="stroke:#ff0; stroke-width:8px; fill:none; " opacity="0" d="M 410,424L 410,386"></path></g><path style="stroke:black; fill:none;" d="M 410,424L 410,386"></path><g><g><path style="stroke:#0ff; stroke-width:8px; fill:none; " opacity="0" d="M 410,424 L 410,386" onmousedown="segmousedown(&quot;188&quot;,&quot;0&quot;,evt);" onmouseover="segmouseover(&quot;188&quot;,&quot;0&quot;,evt);" onmouseout="segmouseout(&quot;188&quot;,&quot;0&quot;,evt);" onclick="segclick(&quot;188&quot;,&quot;0&quot;,evt);"></path></g></g></g><g id="189"><path style="stroke:#bdbddf; stroke-width:8px; fill:none;" opacity="0.7" d="M 395,274L 350,274"></path><g><path style="stroke:#ff0; stroke-width:8px; fill:none; " opacity="0" d="M 395,274L 350,274"></path></g><path style="stroke:black; fill:none;" d="M 395,274L 350,274"></path><g><g><path style="stroke:#0ff; stroke-width:8px; fill:none; " opacity="0" d="M 395,274 L 350,274" onmousedown="segmousedown(&quot;189&quot;,&quot;0&quot;,evt);" onmouseover="segmouseover(&quot;189&quot;,&quot;0&quot;,evt);" onmouseout="segmouseout(&quot;189&quot;,&quot;0&quot;,evt);" onclick="segclick(&quot;189&quot;,&quot;0&quot;,evt);"></path></g></g></g><g id="190"><path style="stroke:#bdbddf; stroke-width:8px; fill:none;" opacity="0.7" d="M 335,289L 335,356"></path><g><path style="stroke:#ff0; stroke-width:8px; fill:none; " opacity="0" d="M 335,289L 335,356"></path></g><path style="stroke:black; fill:none;" d="M 335,289L 335,356"></path><g><g><path style="stroke:#0ff; stroke-width:8px; fill:none; " opacity="0" d="M 335,289 L 335,356" onmousedown="segmousedown(&quot;190&quot;,&quot;0&quot;,evt);" onmouseover="segmouseover(&quot;190&quot;,&quot;0&quot;,evt);" onmouseout="segmouseout(&quot;190&quot;,&quot;0&quot;,evt);" onclick="segclick(&quot;190&quot;,&quot;0&quot;,evt);"></path></g></g></g><g id="191"><path style="stroke:#bdbddf; stroke-width:8px; fill:none;" opacity="0.7" d="M 320,274L 259,274"></path><g><path style="stroke:#ff0; stroke-width:8px; fill:none; " opacity="0" d="M 320,274L 259,274"></path></g><path style="stroke:black; fill:none;" d="M 320,274L 259,274"></path><g><g><path style="stroke:#0ff; stroke-width:8px; fill:none; " opacity="0" d="M 320,274 L 259,274" onmousedown="segmousedown(&quot;191&quot;,&quot;0&quot;,evt);" onmouseover="segmouseover(&quot;191&quot;,&quot;0&quot;,evt);" onmouseout="segmouseout(&quot;191&quot;,&quot;0&quot;,evt);" onclick="segclick(&quot;191&quot;,&quot;0&quot;,evt);"></path></g></g></g><g id="192"><path style="stroke:#bdbddf; stroke-width:8px; fill:none;" opacity="0.7" d="M 259,289L 259,356"></path><g><path style="stroke:#ff0; stroke-width:8px; fill:none; " opacity="0" d="M 259,289L 259,356"></path></g><path style="stroke:black; fill:none;" d="M 259,289L 259,356"></path><g><g><path style="stroke:#0ff; stroke-width:8px; fill:none; " opacity="0" d="M 259,289 L 259,356" onmousedown="segmousedown(&quot;192&quot;,&quot;0&quot;,evt);" onmouseover="segmouseover(&quot;192&quot;,&quot;0&quot;,evt);" onmouseout="segmouseout(&quot;192&quot;,&quot;0&quot;,evt);" onclick="segclick(&quot;192&quot;,&quot;0&quot;,evt);"></path></g></g></g><g id="193"><path style="stroke:#bdbddf; stroke-width:8px; fill:none;" opacity="0.7" d="M 335,386L 335,426"></path><g><path style="stroke:#ff0; stroke-width:8px; fill:none; " opacity="0" d="M 335,386L 335,426"></path></g><path style="stroke:black; fill:none;" d="M 335,386L 335,426"></path><g><g><path style="stroke:#0ff; stroke-width:8px; fill:none; " opacity="0" d="M 335,386 L 335,426" onmousedown="segmousedown(&quot;193&quot;,&quot;0&quot;,evt);" onmouseover="segmouseover(&quot;193&quot;,&quot;0&quot;,evt);" onmouseout="segmouseout(&quot;193&quot;,&quot;0&quot;,evt);" onclick="segclick(&quot;193&quot;,&quot;0&quot;,evt);"></path></g></g></g></g>
  <g id="nodes"><g id="178" onmousedown="nodemousedown(178,evt);" onmouseover="nodemouseover(178,evt);" onmouseout="nodemouseout(178,evt);" transform="translate(410,274)"><rect x="-21" y="-21" width="42" height="42" fill="#0ff" style="stroke:none; opacity:0.75;" display="none"></rect><rect x="-15" y="-15" width="30" height="30" fill="#f0f0d2" style="stroke:black; opacity:1;"></rect></g><g id="176" onmousedown="nodemousedown(176,evt);" onmouseover="nodemouseover(176,evt);" onmouseout="nodemouseout(176,evt);" transform="translate(410,371)"><rect x="-21" y="-21" width="42" height="42" fill="#0ff" style="stroke:none; opacity:0.75;" display="none"></rect><rect x="-15" y="-15" width="30" height="30" fill="#f0f0d2" style="stroke:black; opacity:1;"></rect></g><g id="182" onmousedown="nodemousedown(182,evt);" onmouseover="nodemouseover(182,evt);" onmouseout="nodemouseout(182,evt);" transform="translate(410,439)"><rect x="-21" y="-21" width="42" height="42" fill="#0ff" style="stroke:none; opacity:0.75;" display="none"></rect><rect x="-15" y="-15" width="30" height="30" fill="#f0f0d2" style="stroke:black; opacity:1;"></rect></g><g id="180" onmousedown="nodemousedown(180,evt);" onmouseover="nodemouseover(180,evt);" onmouseout="nodemouseout(180,evt);" transform="translate(335,274)"><rect x="-21" y="-21" width="42" height="42" fill="#0ff" style="stroke:none; opacity:0.75;" display="none"></rect><rect x="-15" y="-15" width="30" height="30" fill="#f0f0d2" style="stroke:black; opacity:1;"></rect></g><g id="175" onmousedown="nodemousedown(175,evt);" onmouseover="nodemouseover(175,evt);" onmouseout="nodemouseout(175,evt);" transform="translate(335,371)"><rect x="-21" y="-21" width="42" height="42" fill="#0ff" style="stroke:none; opacity:0.75;" display="none"></rect><rect x="-15" y="-15" width="30" height="30" fill="#f0f0d2" style="stroke:black; opacity:1;"></rect></g><g id="183" onmousedown="nodemousedown(183,evt);" onmouseover="nodemouseover(183,evt);" onmouseout="nodemouseout(183,evt);" transform="translate(335,441)"><rect x="-21" y="-21" width="42" height="42" fill="#0ff" style="stroke:none; opacity:0.75;" display="none"></rect><rect x="-15" y="-15" width="30" height="30" fill="#f0f0d2" style="stroke:black; opacity:1;"></rect></g><g id="181" onmousedown="nodemousedown(181,evt);" onmouseover="nodemouseover(181,evt);" onmouseout="nodemouseout(181,evt);" transform="translate(259,274)"><rect x="-21" y="-21" width="42" height="42" fill="#0ff" style="stroke:none; opacity:0.75;" display="none"></rect><rect x="-15" y="-15" width="30" height="30" fill="#f0f0d2" style="stroke:black; opacity:1;"></rect></g><g id="179" onmousedown="nodemousedown(179,evt);" onmouseover="nodemouseover(179,evt);" onmouseout="nodemouseout(179,evt);" transform="translate(259,371)"><rect x="-21" y="-21" width="42" height="42" fill="#0ff" style="stroke:none; opacity:0.75;" display="none"></rect><rect x="-15" y="-15" width="30" height="30" fill="#f0f0d2" style="stroke:black; opacity:1;"></rect></g><g id="177" onmousedown="nodemousedown(177,evt);" onmouseover="nodemouseover(177,evt);" onmouseout="nodemouseout(177,evt);" transform="translate(458,323)"><rect x="-21" y="-21" width="42" height="42" fill="#0ff" style="stroke:none; opacity:0.75;" display="none"></rect><rect x="-15" y="-15" width="30" height="30" fill="#f0f0d2" style="stroke:black; opacity:1;"></rect></g></g>
  <g id="BPs"><g onmousedown="bpmousedown(234,evt);" onmouseover="bpmouseover(234,evt);" onmouseout="bpmouseout(234,evt);" transform="translate(458,274)" opacity="0"><ellipse cx="0" cy="0" rx="16" ry="16" fill="#0ff" style="stroke:none; opacity:0.75;" display="none"></ellipse><ellipse cx="0" cy="0" rx="6.063550013440001" ry="6.063550013440001" fill="#777" style="stroke:black;"></ellipse></g><g onmousedown="bpmousedown(238,evt);" onmouseover="bpmouseover(238,evt);" onmouseout="bpmouseout(238,evt);" transform="translate(458,371)" opacity="0"><ellipse cx="0" cy="0" rx="16" ry="16" fill="#0ff" style="stroke:none; opacity:0.75;" display="none"></ellipse><ellipse cx="0" cy="0" rx="6.063550013440001" ry="6.063550013440001" fill="#777" style="stroke:black;"></ellipse></g></g>
  <g id="ports"></g>
</g>
</svg>