<svg id="SVGCanvas" width="480px" height="270px" xmlns="http://www.w3.org/2000/svg" xmlns:xlink="http://www.w3.org/1999/xlink" onmouseup="null" onmousemove="null">
<rect id="background" x="0" y="0" height="100%" width="100%" fill="#bdbddf" onmousedown="bgmousedown(evt)"></rect>
<g id="foreground" transform="translate(0,42.301587301587304),scale(1.2698412698412698),translate(86.5,-165)">
  <g id="edges"><g id="287"><path style="stroke:#bdbddf; stroke-width:8px; fill:none;" opacity="0.7" d="M 124,241L 124,266"></path><g><path style="stroke:#ff0; stroke-width:8px; fill:none; " opacity="0" d="M 124,241L 124,266"></path></g><path style="stroke:black; fill:none;" d="M 124,241L 124,266"></path><g><g><path style="stroke:#0ff; stroke-width:8px; fill:none; " opacity="0" d="M 124,241 L 124,266" onmousedown="segmousedown(&quot;287&quot;,&quot;0&quot;,evt);" onmouseover="segmouseover(&quot;287&quot;,&quot;0&quot;,evt);" onmouseout="segmouseout(&quot;287&quot;,&quot;0&quot;,evt);" onclick="segclick(&quot;287&quot;,&quot;0&quot;,evt);"></path></g></g></g><g id="288"><path style="stroke:#bdbddf; stroke-width:8px; fill:none;" opacity="0.7" d="M 163,241L 163,265"></path><g><path style="stroke:#ff0; stroke-width:8px; fill:none; " opacity="0" d="M 163,241L 163,265"></path></g><path style="stroke:black; fill:none;" d="M 163,241L 163,265"></path><g><g><path style="stroke:#0ff; stroke-width:8px; fill:none; " opacity="0" d="M 163,241 L 163,265" onmousedown="segmousedown(&quot;288&quot;,&quot;0&quot;,evt);" onmouseover="segmouseover(&quot;288&quot;,&quot;0&quot;,evt);" onmouseout="segmouseout(&quot;288&quot;,&quot;0&quot;,evt);" onclick="segclick(&quot;288&quot;,&quot;0&quot;,evt);"></path></g></g></g><g id="289"><path style="stroke:#bdbddf; stroke-width:8px; fill:none;" opacity="0.7" d="M 201.5,226L 253.5,226"></path><g><path style="stroke:#ff0; stroke-width:8px; fill:none; " opacity="0" d="M 201.5,226L 253.5,226"></path></g><path style="stroke:black; fill:none;" d="M 201.5,226L 253.5,226"></path><g><g><path style="stroke:#0ff; stroke-width:8px; fill:none; " opacity="0" d="M 201.5,226 L 253.5,226" onmousedown="segmousedown(&quot;289&quot;,&quot;0&quot;,evt);" onmouseover="segmouseover(&quot;289&quot;,&quot;0&quot;,evt);" onmouseout="segmouseout(&quot;289&quot;,&quot;0&quot;,evt);" onclick="segclick(&quot;289&quot;,&quot;0&quot;,evt);"></path></g></g></g><g id="290"><path style="stroke:#bdbddf; stroke-width:8px; fill:none;" opacity="0.7" d="M 92.5,228L 118.5,228"></path><g><path style="stroke:#ff0; stroke-width:8px; fill:none; " opacity="0" d="M 92.5,228L 118.5,228"></path></g><path style="stroke:black; fill:none;" d="M 92.5,228L 118.5,228"></path><g><g><path style="stroke:#0ff; stroke-width:8px; fill:none; " opacity="0" d="M 92.5,228 L 118.5,228" onmousedown="segmousedown(&quot;290&quot;,&quot;0&quot;,evt);" onmouseover="segmouseover(&quot;290&quot;,&quot;0&quot;,evt);" onmouseout="segmouseout(&quot;290&quot;,&quot;0&quot;,evt);" onclick="segclick(&quot;290&quot;,&quot;0&quot;,evt);"></path></g></g></g><g id="291"><path style="stroke:#bdbddf; stroke-width:8px; fill:none;" opacity="0.7" d="M 199,265L 199,241"></path><g><path style="stroke:#ff0; stroke-width:8px; fill:none; " opacity="0" d="M 199,265L 199,241"></path></g><path style="stroke:black; fill:none;" d="M 199,265L 199,241"></path><g><g><path style="stroke:#0ff; stroke-width:8px; fill:none; " opacity="0" d="M 199,265 L 199,241" onmousedown="segmousedown(&quot;291&quot;,&quot;0&quot;,evt);" onmouseover="segmouseover(&quot;291&quot;,&quot;0&quot;,evt);" onmouseout="segmouseout(&quot;291&quot;,&quot;0&quot;,evt);" onclick="segclick(&quot;291&quot;,&quot;0&quot;,evt);"></path></g></g></g><g id="292"><path style="stroke:#bdbddf; stroke-width:8px; fill:none;" opacity="0.7" d="M 45.5,228L 17.5,228"></path><g><path style="stroke:#ff0; stroke-width:8px; fill:none; " opacity="0" d="M 45.5,228L 17.5,228"></path></g><path style="stroke:black; fill:none;" d="M 45.5,228L 17.5,228"></path><g><g><path style="stroke:#0ff; stroke-width:8px; fill:none; " opacity="0" d="M 45.5,228 L 17.5,228" onmousedown="segmousedown(&quot;292&quot;,&quot;0&quot;,evt);" onmouseover="segmouseover(&quot;292&quot;,&quot;0&quot;,evt);" onmouseout="segmouseout(&quot;292&quot;,&quot;0&quot;,evt);" onclick="segclick(&quot;292&quot;,&quot;0&quot;,evt);"></path></g></g></g></g>
  <g id="nodes"><g id="286" onmousedown="nodemousedown(286,evt);" onmouseover="nodemouseover(286,evt);" onmouseout="nodemouseout(286,evt);" transform="translate(-27,226)"><rect x="-50.5" y="-21" width="101" height="42" fill="#0ff" style="stroke:none; opacity:0.75;" display="none"></rect><rect x="-44.5" y="-15" width="89" height="30" fill="#f0f0d2" style="stroke:black; opacity:1;"></rect></g><g id="284" onmousedown="nodemousedown(284,evt);" onmouseover="nodemouseover(284,evt);" onmouseout="nodemouseout(284,evt);" transform="translate(69,228)"><rect x="-29.5" y="-32.5" width="59" height="65" fill="#0ff" style="stroke:none; opacity:0.75;" display="none"></rect><rect x="-23.5" y="-26.5" width="47" height="53" fill="#f0f0d2" style="stroke:black; opacity:1;"></rect></g><g id="283" onmousedown="nodemousedown(283,evt);" onmouseover="nodemouseover(283,evt);" onmouseout="nodemouseout(283,evt);" transform="translate(265,226)"><rect x="-17.5" y="-52" width="35" height="104" fill="#0ff" style="stroke:none; opacity:0.75;" display="none"></rect><rect x="-11.5" y="-46" width="23" height="92" fill="#f0f0d2" style="stroke:black; opacity:1;"></rect></g><g id="280" onmousedown="nodemousedown(280,evt);" onmouseover="nodemouseover(280,evt);" onmouseout="nodemouseout(280,evt);" transform="translate(160,225)"><rect x="-47.5" y="-22" width="95" height="44" fill="#0ff" style="stroke:none; opacity:0.75;" display="none"></rect><rect x="-41.5" y="-16" width="83" height="32" fill="#f0f0d2" style="stroke:black; opacity:1;"></rect></g><g id="281" onmousedown="nodemousedown(281,evt);" onmouseover="nodemouseover(281,evt);" onmouseout="nodemouseout(281,evt);" transform="translate(125,281)"><rect x="-21" y="-21" width="42" height="42" fill="#0ff" style="stroke:none; opacity:0.75;" display="none"></rect><rect x="-15" y="-15" width="30" height="30" fill="#f0f0d2" style="stroke:black; opacity:1;"></rect></g><g id="285" onmousedown="nodemousedown(285,evt);" onmouseover="nodemouseover(285,evt);" onmouseout="nodemouseout(285,evt);" transform="translate(199,280)"><rect x="-21" y="-21" width="42" height="42" fill="#0ff" style="stroke:none; opacity:0.75;" display="none"></rect><rect x="-15" y="-15" width="30" height="30" fill="#f0f0d2" style="stroke:black; opacity:1;"></rect></g><g id="282" onmousedown="nodemousedown(282,evt);" onmouseover="nodemouseover(282,evt);" onmouseout="nodemouseout(282,evt);" transform="translate(163,280)"><rect x="-21" y="-21" width="42" height="42" fill="#0ff" style="stroke:none; opacity:0.75;" display="none"></rect><rect x="-15" y="-15" width="30" height="30" fill="#f0f0d2" style="stroke:black; opacity:1;"></rect></g></g>
  <g id="BPs"></g>
  <g id="ports"></g>
</g>
</svg>