<svg xmlns:xlink="http://www.w3.org/1999/xlink" xmlns="http://www.w3.org/2000/svg" height="270px" width="480px" id="SVGCanvas" onmouseup="" onmousemove="">
<rect fill="#bdbddf" width="100%" height="100%" y="0" x="0" id="background" onmousedown="bgmousedown(evt)"/>
<g id="foreground" transform="translate(0,15.842105263157904),scale(0.8421052631578947),translate(5,46)">
  <g id="edges"><g id="241"><path style="stroke:#bdbddf; stroke-width:8px; fill:none;" opacity="0.7" d="M 178,207 H 231 a 12,12 0 0,0 12,-12L 243,148"/><g><path style="stroke:#ff0; stroke-width:8px; fill:none; " opacity="0" d="M 178,207 H 231 a 12,12 0 0,0 12,-12L 243,148"/></g><path style="stroke:black; fill:none;" d="M 178,207 H 231 a 12,12 0 0,0 12,-12L 243,148"/><g><g><path style="stroke:#0ff; stroke-width:8px; fill:none; " opacity="0" d="M 178,207 L 243,207" onmousedown='segmousedown("241","0",evt);' onmouseover='segmouseover("241","0",evt);' onmouseout='segmouseout("241","0",evt);' onclick='segclick("241","0",evt);'/><path style="stroke:#0ff; stroke-width:8px; fill:none; " opacity="0" d="M 243,207 L 243,148" onmousedown='segmousedown("241","1",evt);' onmouseover='segmouseover("241","1",evt);' onmouseout='segmouseout("241","1",evt);' onclick='segclick("241","1",evt);'/></g></g></g><g id="242"><path style="stroke:#bdbddf; stroke-width:8px; fill:none;" opacity="0.7" d="M 243,118 V 70 a 12,12 0 0,0 -12,-12L 178,58"/><g><path style="stroke:#ff0; stroke-width:8px; fill:none; " opacity="0" d="M 243,118 V 70 a 12,12 0 0,0 -12,-12L 178,58"/></g><path style="stroke:black; fill:none;" d="M 243,118 V 70 a 12,12 0 0,0 -12,-12L 178,58"/><g><g><path style="stroke:#0ff; stroke-width:8px; fill:none; " opacity="0" d="M 243,118 L 243,58" onmousedown='segmousedown("242","0",evt);' onmouseover='segmouseover("242","0",evt);' onmouseout='segmouseout("242","0",evt);' onclick='segclick("242","0",evt);'/><path style="stroke:#0ff; stroke-width:8px; fill:none; " opacity="0" d="M 243,58 L 178,58" onmousedown='segmousedown("242","1",evt);' onmouseover='segmouseover("242","1",evt);' onmouseout='segmouseout("242","1",evt);' onclick='segclick("242","1",evt);'/></g></g></g><g id="243"><path style="stroke:#bdbddf; stroke-width:8px; fill:none;" opacity="0.7" d="M 163,73L 163,116"/><g><path style="stroke:#ff0; stroke-width:8px; fill:none; " opacity="0" d="M 163,73L 163,116"/></g><path style="stroke:black; fill:none;" d="M 163,73L 163,116"/><g><g><path style="stroke:#0ff; stroke-width:8px; fill:none; " opacity="0" d="M 163,73 L 163,116" onmousedown='segmousedown("243","0",evt);' onmouseover='segmouseover("243","0",evt);' onmouseout='segmouseout("243","0",evt);' onclick='segclick("243","0",evt);'/></g></g></g><g id="244"><path style="stroke:#bdbddf; stroke-width:8px; fill:none;" opacity="0.7" d="M 163,146L 163,192"/><g><path style="stroke:#ff0; stroke-width:8px; fill:none; " opacity="0" d="M 163,146L 163,192"/></g><path style="stroke:black; fill:none;" d="M 163,146L 163,192"/><g><g><path style="stroke:#0ff; stroke-width:8px; fill:none; " opacity="0" d="M 163,146 L 163,192" onmousedown='segmousedown("244","0",evt);' onmouseover='segmouseover("244","0",evt);' onmouseout='segmouseout("244","0",evt);' onclick='segclick("244","0",evt);'/></g></g></g><g id="245"><path style="stroke:#bdbddf; stroke-width:8px; fill:none;" opacity="0.7" d="M 258,131L 299,131"/><g><path style="stroke:#ff0; stroke-width:8px; fill:none; " opacity="0" d="M 258,131L 299,131"/></g><path style="stroke:black; fill:none;" d="M 258,131L 299,131"/><g><g><path style="stroke:#0ff; stroke-width:8px; fill:none; " opacity="0" d="M 258,131 L 299,131" onmousedown='segmousedown("245","0",evt);' onmouseover='segmouseover("245","0",evt);' onmouseout='segmouseout("245","0",evt);' onclick='segclick("245","0",evt);'/></g></g></g><g id="246"><path style="stroke:#bdbddf; stroke-width:8px; fill:none;" opacity="0.7" d="M 329,131L 370,131"/><g><path style="stroke:#ff0; stroke-width:8px; fill:none; " opacity="0" d="M 329,131L 370,131"/></g><path style="stroke:black; fill:none;" d="M 329,131L 370,131"/><g><g><path style="stroke:#0ff; stroke-width:8px; fill:none; " opacity="0" d="M 329,131 L 370,131" onmousedown='segmousedown("246","0",evt);' onmouseover='segmouseover("246","0",evt);' onmouseout='segmouseout("246","0",evt);' onclick='segclick("246","0",evt);'/></g></g></g><g id="247"><path style="stroke:#bdbddf; stroke-width:8px; fill:none;" opacity="0.7" d="M 400,131L 442,131"/><g><path style="stroke:#ff0; stroke-width:8px; fill:none; " opacity="0" d="M 400,131L 442,131"/></g><path style="stroke:black; fill:none;" d="M 400,131L 442,131"/><g><g><path style="stroke:#0ff; stroke-width:8px; fill:none; " opacity="0" d="M 400,131 L 442,131" onmousedown='segmousedown("247","0",evt);' onmouseover='segmouseover("247","0",evt);' onmouseout='segmouseout("247","0",evt);' onclick='segclick("247","0",evt);'/></g></g></g><g id="248"><path style="stroke:#bdbddf; stroke-width:8px; fill:none;" opacity="0.7" d="M 472,129L 520,129"/><g><path style="stroke:#ff0; stroke-width:8px; fill:none; " opacity="0" d="M 472,129L 520,129"/></g><path style="stroke:black; fill:none;" d="M 472,129L 520,129"/><g><g><path style="stroke:#0ff; stroke-width:8px; fill:none; " opacity="0" d="M 472,129 L 520,129" onmousedown='segmousedown("248","0",evt);' onmouseover='segmouseover("248","0",evt);' onmouseout='segmouseout("248","0",evt);' onclick='segclick("248","0",evt);'/></g></g></g><g id="249"><path style="stroke:#bdbddf; stroke-width:8px; fill:none;" opacity="0.7" d="M 148,136L 107,136"/><g><path style="stroke:#ff0; stroke-width:8px; fill:none; " opacity="0" d="M 148,136L 107,136"/></g><path style="stroke:black; fill:none;" d="M 148,136L 107,136"/><g><g><path style="stroke:#0ff; stroke-width:8px; fill:none; " opacity="0" d="M 148,136 L 107,136" onmousedown='segmousedown("249","0",evt);' onmouseover='segmouseover("249","0",evt);' onmouseout='segmouseout("249","0",evt);' onclick='segclick("249","0",evt);'/></g></g></g><g id="250"><path style="stroke:#bdbddf; stroke-width:8px; fill:none;" opacity="0.7" d="M 92,121L 92,72"/><g><path style="stroke:#ff0; stroke-width:8px; fill:none; " opacity="0" d="M 92,121L 92,72"/></g><path style="stroke:black; fill:none;" d="M 92,121L 92,72"/><g><g><path style="stroke:#0ff; stroke-width:8px; fill:none; " opacity="0" d="M 92,121 L 92,72" onmousedown='segmousedown("250","0",evt);' onmouseover='segmouseover("250","0",evt);' onmouseout='segmouseout("250","0",evt);' onclick='segclick("250","0",evt);'/></g></g></g><g id="251"><path style="stroke:#bdbddf; stroke-width:8px; fill:none;" opacity="0.7" d="M 92,42L 92,-1"/><g><path style="stroke:#ff0; stroke-width:8px; fill:none; " opacity="0" d="M 92,42L 92,-1"/></g><path style="stroke:black; fill:none;" d="M 92,42L 92,-1"/><g><g><path style="stroke:#0ff; stroke-width:8px; fill:none; " opacity="0" d="M 92,42 L 92,-1" onmousedown='segmousedown("251","0",evt);' onmouseover='segmouseover("251","0",evt);' onmouseout='segmouseout("251","0",evt);' onclick='segclick("251","0",evt);'/></g></g></g><g id="252"><path style="stroke:#bdbddf; stroke-width:8px; fill:none;" opacity="0.7" d="M 77,136L 40,136"/><g><path style="stroke:#ff0; stroke-width:8px; fill:none; " opacity="0" d="M 77,136L 40,136"/></g><path style="stroke:black; fill:none;" d="M 77,136L 40,136"/><g><g><path style="stroke:#0ff; stroke-width:8px; fill:none; " opacity="0" d="M 77,136 L 40,136" onmousedown='segmousedown("252","0",evt);' onmouseover='segmouseover("252","0",evt);' onmouseout='segmouseout("252","0",evt);' onclick='segclick("252","0",evt);'/></g></g></g></g>
  <g id="nodes"><g id="232" onmousedown="nodemousedown(232,evt);" onmouseover="nodemouseover(232,evt);" onmouseout="nodemouseout(232,evt);" transform="translate(163,58)"><rect x="-21" y="-21" width="42" height="42" fill="#0ff" style="stroke:none; opacity:0.75;" display="none"/><rect x="-15" y="-15" width="30" height="30" fill="#f0f0d2" style="stroke:black; opacity:1;"/></g><g id="230" onmousedown="nodemousedown(230,evt);" onmouseover="nodemouseover(230,evt);" onmouseout="nodemouseout(230,evt);" transform="translate(163,207)"><rect x="-21" y="-21" width="42" height="42" fill="#0ff" style="stroke:none; opacity:0.75;" display="none"/><rect x="-15" y="-15" width="30" height="30" fill="#f0f0d2" style="stroke:black; opacity:1;"/></g><g id="237" onmousedown="nodemousedown(237,evt);" onmouseover="nodemouseover(237,evt);" onmouseout="nodemouseout(237,evt);" transform="translate(92,136)"><rect x="-21" y="-21" width="42" height="42" fill="#0ff" style="stroke:none; opacity:0.75;" display="none"/><rect x="-15" y="-15" width="30" height="30" fill="#f0f0d2" style="stroke:black; opacity:1;"/></g><g id="238" onmousedown="nodemousedown(238,evt);" onmouseover="nodemouseover(238,evt);" onmouseout="nodemouseout(238,evt);" transform="translate(25,136)"><rect x="-21" y="-21" width="42" height="42" fill="#0ff" style="stroke:none; opacity:0.75;" display="none"/><rect x="-15" y="-15" width="30" height="30" fill="#f0f0d2" style="stroke:black; opacity:1;"/></g><g id="239" onmousedown="nodemousedown(239,evt);" onmouseover="nodemouseover(239,evt);" onmouseout="nodemouseout(239,evt);" transform="translate(92 57)"><rect x="-21" y="-21" width="42" height="42" fill="#0ff" style="stroke:none; opacity:0.75;" display="none"/><rect x="-15" y="-15" width="30" height="30" fill="#f0f0d2" style="stroke:black; opacity:1;"/></g><g id="229" onmousedown="nodemousedown(229,evt);" onmouseover="nodemouseover(229,evt);" onmouseout="nodemouseout(229,evt);" transform="translate(163,131)"><rect x="-21" y="-21" width="42" height="42" fill="#0ff" style="stroke:none; opacity:0.75;" display="none"/><rect x="-15" y="-15" width="30" height="30" fill="#f0f0d2" style="stroke:black; opacity:1;"/></g><g id="231" onmousedown="nodemousedown(231,evt);" onmouseover="nodemouseover(231,evt);" onmouseout="nodemouseout(231,evt);" transform="translate(243,133)"><rect x="-21" y="-21" width="42" height="42" fill="#0ff" style="stroke:none; opacity:0.75;" display="none"/><rect x="-15" y="-15" width="30" height="30" fill="#f0f0d2" style="stroke:black; opacity:1;"/></g><g id="234" onmousedown="nodemousedown(234,evt);" onmouseover="nodemouseover(234,evt);" onmouseout="nodemouseout(234,evt);" transform="translate(385,131)"><rect x="-21" y="-21" width="42" height="42" fill="#0ff" style="stroke:none; opacity:0.75;" display="none"/><rect x="-15" y="-15" width="30" height="30" fill="#f0f0d2" style="stroke:black; opacity:1;"/></g><g id="235" onmousedown="nodemousedown(235,evt);" onmouseover="nodemouseover(235,evt);" onmouseout="nodemouseout(235,evt);" transform="translate(457,129)"><rect x="-21" y="-21" width="42" height="42" fill="#0ff" style="stroke:none; opacity:0.75;" display="none"/><rect x="-15" y="-15" width="30" height="30" fill="#f0f0d2" style="stroke:black; opacity:1;"/></g><g id="233" onmousedown="nodemousedown(233,evt);" onmouseover="nodemouseover(233,evt);" onmouseout="nodemouseout(233,evt);" transform="translate(314,131)"><rect x="-21" y="-21" width="42" height="42" fill="#0ff" style="stroke:none; opacity:0.75;" display="none"/><rect x="-15" y="-15" width="30" height="30" fill="#f0f0d2" style="stroke:black; opacity:1;"/></g><g id="236" onmousedown="nodemousedown(236,evt);" onmouseover="nodemouseover(236,evt);" onmouseout="nodemouseout(236,evt);" transform="translate(535,129)"><rect x="-21" y="-21" width="42" height="42" fill="#0ff" style="stroke:none; opacity:0.75;" display="none"/><rect x="-15" y="-15" width="30" height="30" fill="#f0f0d2" style="stroke:black; opacity:1;"/></g><g id="240" onmousedown="nodemousedown(240,evt);" onmouseover="nodemouseover(240,evt);" onmouseout="nodemouseout(240,evt);" transform="translate(92,-16)"><rect x="-21" y="-21" width="42" height="42" fill="#0ff" style="stroke:none; opacity:0.75;" display="none"/><rect x="-15" y="-15" width="30" height="30" fill="#f0f0d2" style="stroke:black; opacity:1;"/></g></g>
  <g id="BPs"><g onmousedown="bpmousedown(258,evt);" onmouseover="bpmouseover(258,evt);" onmouseout="bpmouseout(258,evt);" transform="translate(243,58)" opacity="0"><ellipse cx="0" cy="0" rx="16" ry="16" fill="#0ff" style="stroke:none; opacity:0.75;" display="none"/><ellipse cx="0" cy="0" rx="7.786880000000001" ry="7.786880000000001" fill="#777" style="stroke:black;"/></g><g onmousedown="bpmousedown(317,evt);" onmouseover="bpmouseover(317,evt);" onmouseout="bpmouseout(317,evt);" transform="translate(243,207)" opacity="0"><ellipse cx="0" cy="0" rx="16" ry="16" fill="#0ff" style="stroke:none; opacity:0.75;" display="none"/><ellipse cx="0" cy="0" rx="7.786880000000001" ry="7.786880000000001" fill="#777" style="stroke:black;"/></g></g>
  <g id="ports"/>
</g>
</svg>