<svg xmlns:xlink="http://www.w3.org/1999/xlink" xmlns="http://www.w3.org/2000/svg" height="270px" width="480px" id="SVGCanvas" onmouseup="" onmousemove="">
<rect fill="#bdbddf" width="100%" height="100%" y="0" x="0" id="background" onmousedown="bgmousedown(evt)"/>
<g id="foreground" transform="translate(138.87931034482756,0),scale(1.0344827586206897),translate(-195.5,-176)">
  <g id="edges"><g id="288"><path style="stroke:#bdbddf; stroke-width:8px; fill:none;" opacity="0.7" d="M 359,250L 359,222"/><g><path style="stroke:#ff0; stroke-width:8px; fill:none; " opacity="0" d="M 359,250L 359,222"/></g><path style="stroke:black; fill:none;" d="M 359,250L 359,222"/><g><g><path style="stroke:#0ff; stroke-width:8px; fill:none; " opacity="0" d="M 359,250 L 359,222" onmousedown='segmousedown("288","0",evt);' onmouseover='segmouseover("288","0",evt);' onmouseout='segmouseout("288","0",evt);' onclick='segclick("288","0",evt);'/></g></g></g><g id="289"><path style="stroke:#bdbddf; stroke-width:8px; fill:none;" opacity="0.7" d="M 282.5,268L 233.5,268"/><g><path style="stroke:#ff0; stroke-width:8px; fill:none; " opacity="0" d="M 282.5,268L 233.5,268"/></g><path style="stroke:black; fill:none;" d="M 282.5,268L 233.5,268"/><g><g><path style="stroke:#0ff; stroke-width:8px; fill:none; " opacity="0" d="M 282.5,268 L 233.5,268" onmousedown='segmousedown("289","0",evt);' onmouseover='segmouseover("289","0",evt);' onmouseout='segmouseout("289","0",evt);' onclick='segclick("289","0",evt);'/></g></g></g><g id="290"><path style="stroke:#bdbddf; stroke-width:8px; fill:none;" opacity="0.7" d="M 324,305.5L 324,282"/><g><path style="stroke:#ff0; stroke-width:8px; fill:none; " opacity="0" d="M 324,305.5L 324,282"/></g><path style="stroke:black; fill:none;" d="M 324,305.5L 324,282"/><g><g><path style="stroke:#0ff; stroke-width:8px; fill:none; " opacity="0" d="M 324,305.5 L 324,282" onmousedown='segmousedown("290","0",evt);' onmouseover='segmouseover("290","0",evt);' onmouseout='segmouseout("290","0",evt);' onclick='segclick("290","0",evt);'/></g></g></g><g id="291"><path style="stroke:#bdbddf; stroke-width:8px; fill:none;" opacity="0.7" d="M 328,221L 328,250"/><g><path style="stroke:#ff0; stroke-width:8px; fill:none; " opacity="0" d="M 328,221L 328,250"/></g><path style="stroke:black; fill:none;" d="M 328,221L 328,250"/><g><g><path style="stroke:#0ff; stroke-width:8px; fill:none; " opacity="0" d="M 328,221 L 328,250" onmousedown='segmousedown("291","0",evt);' onmouseover='segmouseover("291","0",evt);' onmouseout='segmouseout("291","0",evt);' onclick='segclick("291","0",evt);'/></g></g></g><g id="292"><path style="stroke:#bdbddf; stroke-width:8px; fill:none;" opacity="0.7" d="M 324,358.5L 324,392"/><g><path style="stroke:#ff0; stroke-width:8px; fill:none; " opacity="0" d="M 324,358.5L 324,392"/></g><path style="stroke:black; fill:none;" d="M 324,358.5L 324,392"/><g><g><path style="stroke:#0ff; stroke-width:8px; fill:none; " opacity="0" d="M 324,358.5 L 324,392" onmousedown='segmousedown("292","0",evt);' onmouseover='segmouseover("292","0",evt);' onmouseout='segmouseout("292","0",evt);' onclick='segclick("292","0",evt);'/></g></g></g><g id="287"><path style="stroke:#bdbddf; stroke-width:8px; fill:none;" opacity="0.7" d="M 294,250L 294,221"/><g><path style="stroke:#ff0; stroke-width:8px; fill:none; " opacity="0" d="M 294,250L 294,221"/></g><path style="stroke:black; fill:none;" d="M 294,250L 294,221"/><g><g><path style="stroke:#0ff; stroke-width:8px; fill:none; " opacity="0" d="M 294,250 L 294,221" onmousedown='segmousedown("287","0",evt);' onmouseover='segmouseover("287","0",evt);' onmouseout='segmouseout("287","0",evt);' onclick='segclick("287","0",evt);'/></g></g></g></g>
  <g id="nodes"><g id="280" onmousedown="nodemousedown(280,evt);" onmouseover="nodemouseover(280,evt);" onmouseout="nodemouseout(280,evt);" transform="translate(324,266)"><rect x="-47.5" y="-22" width="95" height="44" fill="#0ff" style="stroke:none; opacity:0.75;" display="none"/><rect x="-41.5" y="-16" width="83" height="32" fill="#f0f0d2" style="stroke:black; opacity:1;"/></g><g id="281" onmousedown="nodemousedown(281,evt);" onmouseover="nodemouseover(281,evt);" onmouseout="nodemouseout(281,evt);" transform="translate(294,206)"><rect x="-21" y="-21" width="42" height="42" fill="#0ff" style="stroke:none; opacity:0.75;" display="none"/><rect x="-15" y="-15" width="30" height="30" fill="#f0f0d2" style="stroke:black; opacity:1;"/></g><g id="282" onmousedown="nodemousedown(282,evt);" onmouseover="nodemouseover(282,evt);" onmouseout="nodemouseout(282,evt);" transform="translate(361,207)"><rect x="-21" y="-21" width="42" height="42" fill="#0ff" style="stroke:none; opacity:0.75;" display="none"/><rect x="-15" y="-15" width="30" height="30" fill="#f0f0d2" style="stroke:black; opacity:1;"/></g><g id="285" onmousedown="nodemousedown(285,evt);" onmouseover="nodemouseover(285,evt);" onmouseout="nodemouseout(285,evt);" transform="translate(328,206)"><rect x="-21" y="-21" width="42" height="42" fill="#0ff" style="stroke:none; opacity:0.75;" display="none"/><rect x="-15" y="-15" width="30" height="30" fill="#f0f0d2" style="stroke:black; opacity:1;"/></g><g id="283" onmousedown="nodemousedown(283,evt);" onmouseover="nodemouseover(283,evt);" onmouseout="nodemouseout(283,evt);" transform="translate(222,268)"><rect x="-17.5" y="-52" width="35" height="104" fill="#0ff" style="stroke:none; opacity:0.75;" display="none"/><rect x="-11.5" y="-46" width="23" height="92" fill="#f0f0d2" style="stroke:black; opacity:1;"/></g><g id="284" onmousedown="nodemousedown(284,evt);" onmouseover="nodemouseover(284,evt);" onmouseout="nodemouseout(284,evt);" transform="translate(324,332)"><rect x="-29.5" y="-32.5" width="59" height="65" fill="#0ff" style="stroke:none; opacity:0.75;" display="none"/><rect x="-23.5" y="-26.5" width="47" height="53" fill="#f0f0d2" style="stroke:black; opacity:1;"/></g><g id="286" onmousedown="nodemousedown(286,evt);" onmouseover="nodemouseover(286,evt);" onmouseout="nodemouseout(286,evt);" transform="translate(324,407)"><rect x="-50.5" y="-21" width="101" height="42" fill="#0ff" style="stroke:none; opacity:0.75;" display="none"/><rect x="-44.5" y="-15" width="89" height="30" fill="#f0f0d2" style="stroke:black; opacity:1;"/></g></g>
  <g id="BPs"/>
  <g id="ports"/>
</g>
</svg>

