<svg xmlns:xlink="http://www.w3.org/1999/xlink" xmlns="http://www.w3.org/2000/svg" height="270px" width="480px" id="SVGCanvas" onmouseup="" onmousemove="">
<rect fill="#bdbddf" width="100%" height="100%" y="0" x="0" id="background" onmousedown="bgmousedown(evt)"/>
<g id="foreground" transform="translate(73.63070539419087,0),scale(1.120331950207469),translate(-447,-132)">
  <g id="edges"><g id="328"><path style="stroke:#bdbddf; stroke-width:8px; fill:none;" opacity="0.7" d="M 699,342L 637,342"/><g><path style="stroke:#ff0; stroke-width:8px; fill:none; " opacity="0" d="M 699,342L 637,342"/></g><path style="stroke:black; fill:none;" d="M 699,342L 637,342"/><g><g><path style="stroke:#0ff; stroke-width:8px; fill:none; " opacity="0" d="M 699,342 L 637,342" onmousedown='segmousedown("328","0",evt);' onmouseover='segmouseover("328","0",evt);' onmouseout='segmouseout("328","0",evt);' onclick='segclick("328","0",evt);'/></g></g></g><g id="329"><path style="stroke:#bdbddf; stroke-width:8px; fill:none;" opacity="0.7" d="M 625,322L 625,268"/><g><path style="stroke:#ff0; stroke-width:8px; fill:none; " opacity="0" d="M 625,322L 625,268"/></g><path style="stroke:black; fill:none;" d="M 625,322L 625,268"/><g><g><path style="stroke:#0ff; stroke-width:8px; fill:none; " opacity="0" d="M 625,322 L 625,268" onmousedown='segmousedown("329","0",evt);' onmouseover='segmouseover("329","0",evt);' onmouseout='segmouseout("329","0",evt);' onclick='segclick("329","0",evt);'/></g></g></g><g id="330"><path style="stroke:#bdbddf; stroke-width:8px; fill:none;" opacity="0.7" d="M 714,268L 714,324"/><g><path style="stroke:#ff0; stroke-width:8px; fill:none; " opacity="0" d="M 714,268L 714,324"/></g><path style="stroke:black; fill:none;" d="M 714,268L 714,324"/><g><g><path style="stroke:#0ff; stroke-width:8px; fill:none; " opacity="0" d="M 714,268 L 714,324" onmousedown='segmousedown("330","0",evt);' onmouseover='segmouseover("330","0",evt);' onmouseout='segmouseout("330","0",evt);' onclick='segclick("330","0",evt);'/></g></g></g><g id="331"><path style="stroke:#bdbddf; stroke-width:8px; fill:none;" opacity="0.7" d="M 640,253L 699,253"/><g><path style="stroke:#ff0; stroke-width:8px; fill:none; " opacity="0" d="M 640,253L 699,253"/></g><path style="stroke:black; fill:none;" d="M 640,253L 699,253"/><g><g><path style="stroke:#0ff; stroke-width:8px; fill:none; " opacity="0" d="M 640,253 L 699,253" onmousedown='segmousedown("331","0",evt);' onmouseover='segmouseover("331","0",evt);' onmouseout='segmouseout("331","0",evt);' onclick='segclick("331","0",evt);'/></g></g></g><g id="332"><path style="stroke:#bdbddf; stroke-width:8px; fill:none;" opacity="0.7" d="M 564,253L 610,253"/><g><path style="stroke:#ff0; stroke-width:8px; fill:none; " opacity="0" d="M 564,253L 610,253"/></g><path style="stroke:black; fill:none;" d="M 564,253L 610,253"/><g><g><path style="stroke:#0ff; stroke-width:8px; fill:none; " opacity="0" d="M 564,253 L 610,253" onmousedown='segmousedown("332","0",evt);' onmouseover='segmouseover("332","0",evt);' onmouseout='segmouseout("332","0",evt);' onclick='segclick("332","0",evt);'/></g></g></g><g id="333"><path style="stroke:#bdbddf; stroke-width:8px; fill:none;" opacity="0.7" d="M 549,253L 549,180"/><g><path style="stroke:#ff0; stroke-width:8px; fill:none; " opacity="0" d="M 549,253L 549,180"/></g><path style="stroke:black; fill:none;" d="M 549,253L 549,180"/><g><g><path style="stroke:#0ff; stroke-width:8px; fill:none; " opacity="0" d="M 549,253 L 549,180" onmousedown='segmousedown("333","0",evt);' onmouseover='segmouseover("333","0",evt);' onmouseout='segmouseout("333","0",evt);' onclick='segclick("333","0",evt);'/></g></g></g><g id="334"><path style="stroke:#bdbddf; stroke-width:8px; fill:none;" opacity="0.7" d="M 564,165L 493,165"/><g><path style="stroke:#ff0; stroke-width:8px; fill:none; " opacity="0" d="M 564,165L 493,165"/></g><path style="stroke:black; fill:none;" d="M 564,165L 493,165"/><g><g><path style="stroke:#0ff; stroke-width:8px; fill:none; " opacity="0" d="M 564,165 L 493,165" onmousedown='segmousedown("334","0",evt);' onmouseover='segmouseover("334","0",evt);' onmouseout='segmouseout("334","0",evt);' onclick='segclick("334","0",evt);'/></g></g></g><g id="335"><path style="stroke:#bdbddf; stroke-width:8px; fill:none;" opacity="0.7" d="M 564,163 V 164 a 1,1 0 0,0 1,1L 609,165"/><g><path style="stroke:#ff0; stroke-width:8px; fill:none; " opacity="0" d="M 564,163 V 164 a 1,1 0 0,0 1,1L 609,165"/></g><path style="stroke:black; fill:none;" d="M 564,163 V 164 a 1,1 0 0,0 1,1L 609,165"/><g><g><path style="stroke:#0ff; stroke-width:8px; fill:none; " opacity="0" d="M 564,163 L 556,165" onmousedown='segmousedown("335","0",evt);' onmouseover='segmouseover("335","0",evt);' onmouseout='segmouseout("335","0",evt);' onclick='segclick("335","0",evt);'/><path style="stroke:#0ff; stroke-width:8px; fill:none; " opacity="0" d="M 556,165 L 609,165" onmousedown='segmousedown("335","1",evt);' onmouseover='segmouseover("335","1",evt);' onmouseout='segmouseout("335","1",evt);' onclick='segclick("335","1",evt);'/></g></g></g><g id="336"><path style="stroke:#bdbddf; stroke-width:8px; fill:none;" opacity="0.7" d="M 534,253L 492,253"/><g><path style="stroke:#ff0; stroke-width:8px; fill:none; " opacity="0" d="M 534,253L 492,253"/></g><path style="stroke:black; fill:none;" d="M 534,253L 492,253"/><g><g><path style="stroke:#0ff; stroke-width:8px; fill:none; " opacity="0" d="M 534,253 L 492,253" onmousedown='segmousedown("336","0",evt);' onmouseover='segmouseover("336","0",evt);' onmouseout='segmouseout("336","0",evt);' onclick='segclick("336","0",evt);'/></g></g></g><g id="337"><path style="stroke:#bdbddf; stroke-width:8px; fill:none;" opacity="0.7" d="M 549,268L 549,328"/><g><path style="stroke:#ff0; stroke-width:8px; fill:none; " opacity="0" d="M 549,268L 549,328"/></g><path style="stroke:black; fill:none;" d="M 549,268L 549,328"/><g><g><path style="stroke:#0ff; stroke-width:8px; fill:none; " opacity="0" d="M 549,268 L 549,328" onmousedown='segmousedown("337","0",evt);' onmouseover='segmouseover("337","0",evt);' onmouseout='segmouseout("337","0",evt);' onclick='segclick("337","0",evt);'/></g></g></g></g>
  <g id="nodes"><g id="322" onmousedown="nodemousedown(322,evt);" onmouseover="nodemouseover(322,evt);" onmouseout="nodemouseout(322,evt);" transform="translate(549,253)"><rect x="-21" y="-21" width="42" height="42" fill="#0ff" style="stroke:none; opacity:0.75;" display="none"/><rect x="-15" y="-15" width="30" height="30" fill="#f0f0d2" style="stroke:black; opacity:1;"/></g><g id="324" onmousedown="nodemousedown(324,evt);" onmouseover="nodemouseover(324,evt);" onmouseout="nodemouseout(324,evt);" transform="translate(477,253)"><rect x="-21" y="-21" width="42" height="42" fill="#0ff" style="stroke:none; opacity:0.75;" display="none"/><rect x="-15" y="-15" width="30" height="30" fill="#f0f0d2" style="stroke:black; opacity:1;"/></g><g id="327" onmousedown="nodemousedown(327,evt);" onmouseover="nodemouseover(327,evt);" onmouseout="nodemouseout(327,evt);" transform="translate(549,343)"><rect x="-21" y="-21" width="42" height="42" fill="#0ff" style="stroke:none; opacity:0.75;" display="none"/><rect x="-15" y="-15" width="30" height="30" fill="#f0f0d2" style="stroke:black; opacity:1;"/></g><g id="323" onmousedown="nodemousedown(323,evt);" onmouseover="nodemouseover(323,evt);" onmouseout="nodemouseout(323,evt);" transform="translate(549,165)"><rect x="-21" y="-21" width="42" height="42" fill="#0ff" style="stroke:none; opacity:0.75;" display="none"/><rect x="-15" y="-15" width="30" height="30" fill="#f0f0d2" style="stroke:black; opacity:1;"/></g><g id="326" onmousedown="nodemousedown(326,evt);" onmouseover="nodemouseover(326,evt);" onmouseout="nodemouseout(326,evt);" transform="translate(624,165)"><rect x="-21" y="-21" width="42" height="42" fill="#0ff" style="stroke:none; opacity:0.75;" display="none"/><rect x="-15" y="-15" width="30" height="30" fill="#f0f0d2" style="stroke:black; opacity:1;"/></g><g id="321" onmousedown="nodemousedown(321,evt);" onmouseover="nodemouseover(321,evt);" onmouseout="nodemouseout(321,evt);" transform="translate(625,253)"><rect x="-21" y="-21" width="42" height="42" fill="#0ff" style="stroke:none; opacity:0.75;" display="none"/><rect x="-15" y="-15" width="30" height="30" fill="#f0f0d2" style="stroke:black; opacity:1;"/></g><g id="318" onmousedown="nodemousedown(318,evt);" onmouseover="nodemouseover(318,evt);" onmouseout="nodemouseout(318,evt);" transform="translate(714,253)"><rect x="-21" y="-21" width="42" height="42" fill="#0ff" style="stroke:none; opacity:0.75;" display="none"/><rect x="-15" y="-15" width="30" height="30" fill="#f0f0d2" style="stroke:black; opacity:1;"/></g><g id="319" onmousedown="nodemousedown(319,evt);" onmouseover="nodemouseover(319,evt);" onmouseout="nodemouseout(319,evt);" transform="translate(714,339)"><rect x="-21" y="-21" width="42" height="42" fill="#0ff" style="stroke:none; opacity:0.75;" display="none"/><rect x="-15" y="-15" width="30" height="30" fill="#f0f0d2" style="stroke:black; opacity:1;"/></g><g id="325" onmousedown="nodemousedown(325,evt);" onmouseover="nodemouseover(325,evt);" onmouseout="nodemouseout(325,evt);" transform="translate(478,162)"><rect x="-21" y="-21" width="42" height="42" fill="#0ff" style="stroke:none; opacity:0.75;" display="none"/><rect x="-15" y="-15" width="30" height="30" fill="#f0f0d2" style="stroke:black; opacity:1;"/></g><g id="320" onmousedown="nodemousedown(320,evt);" onmouseover="nodemouseover(320,evt);" onmouseout="nodemouseout(320,evt);" transform="translate(622,337)"><rect x="-21" y="-21" width="42" height="42" fill="#0ff" style="stroke:none; opacity:0.75;" display="none"/><rect x="-15" y="-15" width="30" height="30" fill="#f0f0d2" style="stroke:black; opacity:1;"/></g></g>
  <g id="BPs"><g onmousedown="bpmousedown(364,evt);" onmouseover="bpmouseover(364,evt);" onmouseout="bpmouseout(364,evt);" transform="translate(556,165)" opacity="0"><ellipse cx="0" cy="0" rx="16" ry="16" fill="#0ff" style="stroke:none; opacity:0.75;" display="none"/><ellipse cx="0" cy="0" rx="6.063550013440002" ry="6.063550013440002" fill="#777" style="stroke:black;"/></g></g>
  <g id="ports"/>
</g>
</svg>