<svg xmlns:xlink="http://www.w3.org/1999/xlink" xmlns="http://www.w3.org/2000/svg" height="270px" width="480px" id="SVGCanvas" onmouseup="" onmousemove="">
<rect fill="#bdbddf" width="100%" height="100%" y="0" x="0" id="background" onmousedown="bgmousedown(evt)"/>
<g id="foreground" transform="translate(102.46240601503757,-2.842170943040401e-14),scale(1.0150375939849625),translate(-211,-128)">
  <g id="edges"><g id="169"><path style="stroke:#bdbddf; stroke-width:8px; fill:none;" opacity="0.7" d="M 367,323L 437,323"/><g><path style="stroke:#ff0; stroke-width:8px; fill:none; " opacity="0" d="M 367,323L 437,323"/></g><path style="stroke:black; fill:none;" d="M 367,323L 437,323"/><g><g><path style="stroke:#0ff; stroke-width:8px; fill:none; " opacity="0" d="M 367,323 L 437,323" onmousedown='segmousedown("169","0",evt);' onmouseover='segmouseover("169","0",evt);' onmouseout='segmouseout("169","0",evt);' onclick='segclick("169","0",evt);'/></g></g></g><g id="170"><path style="stroke:#bdbddf; stroke-width:8px; fill:none;" opacity="0.7" d="M 452,308 V 165 a 12,12 0 0,0 -12,-12 H 263 a 12,12 0 0,0 -12,12L 251,194"/><g><path style="stroke:#ff0; stroke-width:8px; fill:none; " opacity="0" d="M 452,308 V 165 a 12,12 0 0,0 -12,-12 H 263 a 12,12 0 0,0 -12,12L 251,194"/></g><path style="stroke:black; fill:none;" d="M 452,308 V 165 a 12,12 0 0,0 -12,-12 H 263 a 12,12 0 0,0 -12,12L 251,194"/><g><g><path style="stroke:#0ff; stroke-width:8px; fill:none; " opacity="0" d="M 452,308 L 452,153" onmousedown='segmousedown("170","0",evt);' onmouseover='segmouseover("170","0",evt);' onmouseout='segmouseout("170","0",evt);' onclick='segclick("170","0",evt);'/><path style="stroke:#0ff; stroke-width:8px; fill:none; " opacity="0" d="M 452,153 L 251,153" onmousedown='segmousedown("170","1",evt);' onmouseover='segmouseover("170","1",evt);' onmouseout='segmouseout("170","1",evt);' onclick='segclick("170","1",evt);'/><path style="stroke:#0ff; stroke-width:8px; fill:none; " opacity="0" d="M 251,153 L 251,194" onmousedown='segmousedown("170","2",evt);' onmouseover='segmouseover("170","2",evt);' onmouseout='segmouseout("170","2",evt);' onclick='segclick("170","2",evt);'/></g></g></g><g id="171"><path style="stroke:#bdbddf; stroke-width:8px; fill:none;" opacity="0.7" d="M 251,224L 251,303.5"/><g><path style="stroke:#ff0; stroke-width:8px; fill:none; " opacity="0" d="M 251,224L 251,303.5"/></g><path style="stroke:black; fill:none;" d="M 251,224L 251,303.5"/><g><g><path style="stroke:#0ff; stroke-width:8px; fill:none; " opacity="0" d="M 251,224 L 251,303.5" onmousedown='segmousedown("171","0",evt);' onmouseover='segmouseover("171","0",evt);' onmouseout='segmouseout("171","0",evt);' onclick='segclick("171","0",evt);'/></g></g></g><g id="172"><path style="stroke:#bdbddf; stroke-width:8px; fill:none;" opacity="0.7" d="M 251,350.5 V 359.75 a 9.25,9.25 0 0,0 9.25,9.25 H 440 a 12,12 0 0,0 12,-12L 452,338"/><g><path style="stroke:#ff0; stroke-width:8px; fill:none; " opacity="0" d="M 251,350.5 V 359.75 a 9.25,9.25 0 0,0 9.25,9.25 H 440 a 12,12 0 0,0 12,-12L 452,338"/></g><path style="stroke:black; fill:none;" d="M 251,350.5 V 359.75 a 9.25,9.25 0 0,0 9.25,9.25 H 440 a 12,12 0 0,0 12,-12L 452,338"/><g><g><path style="stroke:#0ff; stroke-width:8px; fill:none; " opacity="0" d="M 251,350.5 L 251,369" onmousedown='segmousedown("172","0",evt);' onmouseover='segmouseover("172","0",evt);' onmouseout='segmouseout("172","0",evt);' onclick='segclick("172","0",evt);'/><path style="stroke:#0ff; stroke-width:8px; fill:none; " opacity="0" d="M 251,369 L 452,369" onmousedown='segmousedown("172","1",evt);' onmouseover='segmouseover("172","1",evt);' onmouseout='segmouseout("172","1",evt);' onclick='segclick("172","1",evt);'/><path style="stroke:#0ff; stroke-width:8px; fill:none; " opacity="0" d="M 452,369 L 452,338" onmousedown='segmousedown("172","2",evt);' onmouseover='segmouseover("172","2",evt);' onmouseout='segmouseout("172","2",evt);' onclick='segclick("172","2",evt);'/></g></g></g><g id="173"><path style="stroke:#bdbddf; stroke-width:8px; fill:none;" opacity="0.7" d="M 276,209 H 340 a 12,12 0 0,1 12,12L 352,308"/><g><path style="stroke:#ff0; stroke-width:8px; fill:none; " opacity="0" d="M 276,209 H 340 a 12,12 0 0,1 12,12L 352,308"/></g><path style="stroke:black; fill:none;" d="M 276,209 H 340 a 12,12 0 0,1 12,12L 352,308"/><g><g><path style="stroke:#0ff; stroke-width:8px; fill:none; " opacity="0" d="M 276,209 L 352,209" onmousedown='segmousedown("173","0",evt);' onmouseover='segmouseover("173","0",evt);' onmouseout='segmouseout("173","0",evt);' onclick='segclick("173","0",evt);'/><path style="stroke:#0ff; stroke-width:8px; fill:none; " opacity="0" d="M 352,209 L 352,308" onmousedown='segmousedown("173","1",evt);' onmouseover='segmouseover("173","1",evt);' onmouseout='segmouseout("173","1",evt);' onclick='segclick("173","1",evt);'/></g></g></g><g id="174"><path style="stroke:#bdbddf; stroke-width:8px; fill:none;" opacity="0.7" d="M 337,327L 266,327"/><g><path style="stroke:#ff0; stroke-width:8px; fill:none; " opacity="0" d="M 337,327L 266,327"/></g><path style="stroke:black; fill:none;" d="M 337,327L 266,327"/><g><g><path style="stroke:#0ff; stroke-width:8px; fill:none; " opacity="0" d="M 337,327 L 266,327" onmousedown='segmousedown("174","0",evt);' onmouseover='segmouseover("174","0",evt);' onmouseout='segmouseout("174","0",evt);' onclick='segclick("174","0",evt);'/></g></g></g></g>
  <g id="nodes"><g id="165" onmousedown="nodemousedown(165,evt);" onmouseover="nodemouseover(165,evt);" onmouseout="nodemouseout(165,evt);" transform="translate(251,209)"><rect x="-31" y="-21" width="62" height="42" fill="#0ff" style="stroke:none; opacity:0.75;" display="none"/><rect x="-25" y="-15" width="50" height="30" fill="#f0f0d2" style="stroke:black; opacity:1;"/></g><g id="166" onmousedown="nodemousedown(166,evt);" onmouseover="nodemouseover(166,evt);" onmouseout="nodemouseout(166,evt);" transform="translate(251,327)"><rect x="-21" y="-29.5" width="42" height="59" fill="#0ff" style="stroke:none; opacity:0.75;" display="none"/><rect x="-15" y="-23.5" width="30" height="47" fill="#f0f0d2" style="stroke:black; opacity:1;"/></g><g id="167" onmousedown="nodemousedown(167,evt);" onmouseover="nodemouseover(167,evt);" onmouseout="nodemouseout(167,evt);" transform="translate(452,323)"><rect x="-21" y="-21" width="42" height="42" fill="#0ff" style="stroke:none; opacity:0.75;" display="none"/><rect x="-15" y="-15" width="30" height="30" fill="#f0f0d2" style="stroke:black; opacity:1;"/></g><g id="168" onmousedown="nodemousedown(168,evt);" onmouseover="nodemouseover(168,evt);" onmouseout="nodemouseout(168,evt);" transform="translate(352,323)"><rect x="-21" y="-21" width="42" height="42" fill="#0ff" style="stroke:none; opacity:0.75;" display="none"/><rect x="-15" y="-15" width="30" height="30" fill="#f0f0d2" style="stroke:black; opacity:1;"/></g></g>
  <g id="BPs"><g onmousedown="bpmousedown(181,evt);" onmouseover="bpmouseover(181,evt);" onmouseout="bpmouseout(181,evt);" transform="translate(452,153)" opacity="0"><ellipse cx="0" cy="0" rx="16" ry="16" fill="#0ff" style="stroke:none; opacity:0.75;" display="none"/><ellipse cx="0" cy="0" rx="4.7216136328655685" ry="4.7216136328655685" fill="#777" style="stroke:black;"/></g><g onmousedown="bpmousedown(202,evt);" onmouseover="bpmouseover(202,evt);" onmouseout="bpmouseout(202,evt);" transform="translate(251,369)" opacity="0"><ellipse cx="0" cy="0" rx="16" ry="16" fill="#0ff" style="stroke:none; opacity:0.75;" display="none"/><ellipse cx="0" cy="0" rx="4.7216136328655685" ry="4.7216136328655685" fill="#777" style="stroke:black;"/></g><g onmousedown="bpmousedown(205,evt);" onmouseover="bpmouseover(205,evt);" onmouseout="bpmouseout(205,evt);" transform="translate(452,369)" opacity="0"><ellipse cx="0" cy="0" rx="16" ry="16" fill="#0ff" style="stroke:none; opacity:0.75;" display="none"/><ellipse cx="0" cy="0" rx="4.7216136328655685" ry="4.7216136328655685" fill="#777" style="stroke:black;"/></g><g onmousedown="bpmousedown(206,evt);" onmouseover="bpmouseover(206,evt);" onmouseout="bpmouseout(206,evt);" transform="translate(251,153)" opacity="0"><ellipse cx="0" cy="0" rx="16" ry="16" fill="#0ff" style="stroke:none; opacity:0.75;" display="none"/><ellipse cx="0" cy="0" rx="4.7216136328655685" ry="4.7216136328655685" fill="#777" style="stroke:black;"/></g><g onmousedown="bpmousedown(207,evt);" onmouseover="bpmouseover(207,evt);" onmouseout="bpmouseout(207,evt);" transform="translate(352,209)" opacity="0"><ellipse cx="0" cy="0" rx="16" ry="16" fill="#0ff" style="stroke:none; opacity:0.75;" display="none"/><ellipse cx="0" cy="0" rx="4.7216136328655685" ry="4.7216136328655685" fill="#777" style="stroke:black;"/></g></g>
  <g id="ports"/>
</g>
</svg>