<svg xmlns:xlink="http://www.w3.org/1999/xlink" xmlns="http://www.w3.org/2000/svg" height="270px" width="480px" id="SVGCanvas" onmouseup="" onmousemove="">
<rect fill="#bdbddf" width="100%" height="100%" y="0" x="0" id="background" onmousedown="bgmousedown(evt)"/>
<g id="foreground" transform="translate(8.49609375,0),scale(1.0546875),translate(-229,-268)">
  <g id="edges"><g id="192"><path style="stroke:#bdbddf; stroke-width:8px; fill:none;" opacity="0.7" d="M 259,313L 259,391"/><g><path style="stroke:#ff0; stroke-width:8px; fill:none; " opacity="0" d="M 259,313L 259,391"/></g><path style="stroke:black; fill:none;" d="M 259,313L 259,391"/><g><g><path style="stroke:#0ff; stroke-width:8px; fill:none; " opacity="0" d="M 259,313 L 259,391" onmousedown='segmousedown("192","0",evt);' onmouseover='segmouseover("192","0",evt);' onmouseout='segmouseout("192","0",evt);' onclick='segclick("192","0",evt);'/></g></g></g><g id="193"><path style="stroke:#bdbddf; stroke-width:8px; fill:none;" opacity="0.7" d="M 399,406L 399,477"/><g><path style="stroke:#ff0; stroke-width:8px; fill:none; " opacity="0" d="M 399,406L 399,477"/></g><path style="stroke:black; fill:none;" d="M 399,406L 399,477"/><g><g><path style="stroke:#0ff; stroke-width:8px; fill:none; " opacity="0" d="M 399,406 L 399,477" onmousedown='segmousedown("193","0",evt);' onmouseover='segmouseover("193","0",evt);' onmouseout='segmouseout("193","0",evt);' onclick='segclick("193","0",evt);'/></g></g></g><g id="184"><path style="stroke:#bdbddf; stroke-width:8px; fill:none;" opacity="0.7" d="M 414,391L 511,391"/><g><path style="stroke:#ff0; stroke-width:8px; fill:none; " opacity="0" d="M 414,391L 511,391"/></g><path style="stroke:black; fill:none;" d="M 414,391L 511,391"/><g><g><path style="stroke:#0ff; stroke-width:8px; fill:none; " opacity="0" d="M 414,391 L 511,391" onmousedown='segmousedown("184","0",evt);' onmouseover='segmouseover("184","0",evt);' onmouseout='segmouseout("184","0",evt);' onclick='segclick("184","0",evt);'/></g></g></g><g id="185"><path style="stroke:#bdbddf; stroke-width:8px; fill:none;" opacity="0.7" d="M 541,391 H 626 a 12,12 0 0,0 12,-12L 638,365"/><g><path style="stroke:#ff0; stroke-width:8px; fill:none; " opacity="0" d="M 541,391 H 626 a 12,12 0 0,0 12,-12L 638,365"/></g><path style="stroke:black; fill:none;" d="M 541,391 H 626 a 12,12 0 0,0 12,-12L 638,365"/><g><g><path style="stroke:#0ff; stroke-width:8px; fill:none; " opacity="0" d="M 541,391 L 638,391" onmousedown='segmousedown("185","0",evt);' onmouseover='segmouseover("185","0",evt);' onmouseout='segmouseout("185","0",evt);' onclick='segclick("185","0",evt);'/><path style="stroke:#0ff; stroke-width:8px; fill:none; " opacity="0" d="M 638,391 L 638,365" onmousedown='segmousedown("185","1",evt);' onmouseover='segmouseover("185","1",evt);' onmouseout='segmouseout("185","1",evt);' onclick='segclick("185","1",evt);'/></g></g></g><g id="186"><path style="stroke:#bdbddf; stroke-width:8px; fill:none;" opacity="0.7" d="M 638,335 V 310 a 12,12 0 0,0 -12,-12L 539,298"/><g><path style="stroke:#ff0; stroke-width:8px; fill:none; " opacity="0" d="M 638,335 V 310 a 12,12 0 0,0 -12,-12L 539,298"/></g><path style="stroke:black; fill:none;" d="M 638,335 V 310 a 12,12 0 0,0 -12,-12L 539,298"/><g><g><path style="stroke:#0ff; stroke-width:8px; fill:none; " opacity="0" d="M 638,335 L 638,298" onmousedown='segmousedown("186","0",evt);' onmouseover='segmouseover("186","0",evt);' onmouseout='segmouseout("186","0",evt);' onclick='segclick("186","0",evt);'/><path style="stroke:#0ff; stroke-width:8px; fill:none; " opacity="0" d="M 638,298 L 539,298" onmousedown='segmousedown("186","1",evt);' onmouseover='segmouseover("186","1",evt);' onmouseout='segmouseout("186","1",evt);' onclick='segclick("186","1",evt);'/></g></g></g><g id="187"><path style="stroke:#bdbddf; stroke-width:8px; fill:none;" opacity="0.7" d="M 384,391L 274,391"/><g><path style="stroke:#ff0; stroke-width:8px; fill:none; " opacity="0" d="M 384,391L 274,391"/></g><path style="stroke:black; fill:none;" d="M 384,391L 274,391"/><g><g><path style="stroke:#0ff; stroke-width:8px; fill:none; " opacity="0" d="M 384,391 L 274,391" onmousedown='segmousedown("187","0",evt);' onmouseover='segmouseover("187","0",evt);' onmouseout='segmouseout("187","0",evt);' onclick='segclick("187","0",evt);'/></g></g></g><g id="188"><path style="stroke:#bdbddf; stroke-width:8px; fill:none;" opacity="0.7" d="M 526,479L 526,406"/><g><path style="stroke:#ff0; stroke-width:8px; fill:none; " opacity="0" d="M 526,479L 526,406"/></g><path style="stroke:black; fill:none;" d="M 526,479L 526,406"/><g><g><path style="stroke:#0ff; stroke-width:8px; fill:none; " opacity="0" d="M 526,479 L 526,406" onmousedown='segmousedown("188","0",evt);' onmouseover='segmouseover("188","0",evt);' onmouseout='segmouseout("188","0",evt);' onclick='segclick("188","0",evt);'/></g></g></g><g id="189"><path style="stroke:#bdbddf; stroke-width:8px; fill:none;" opacity="0.7" d="M 509,298L 414,298"/><g><path style="stroke:#ff0; stroke-width:8px; fill:none; " opacity="0" d="M 509,298L 414,298"/></g><path style="stroke:black; fill:none;" d="M 509,298L 414,298"/><g><g><path style="stroke:#0ff; stroke-width:8px; fill:none; " opacity="0" d="M 509,298 L 414,298" onmousedown='segmousedown("189","0",evt);' onmouseover='segmouseover("189","0",evt);' onmouseout='segmouseout("189","0",evt);' onclick='segclick("189","0",evt);'/></g></g></g><g id="190"><path style="stroke:#bdbddf; stroke-width:8px; fill:none;" opacity="0.7" d="M 399,313L 399,376"/><g><path style="stroke:#ff0; stroke-width:8px; fill:none; " opacity="0" d="M 399,313L 399,376"/></g><path style="stroke:black; fill:none;" d="M 399,313L 399,376"/><g><g><path style="stroke:#0ff; stroke-width:8px; fill:none; " opacity="0" d="M 399,313 L 399,376" onmousedown='segmousedown("190","0",evt);' onmouseover='segmouseover("190","0",evt);' onmouseout='segmouseout("190","0",evt);' onclick='segclick("190","0",evt);'/></g></g></g><g id="191"><path style="stroke:#bdbddf; stroke-width:8px; fill:none;" opacity="0.7" d="M 384,298L 274,298"/><g><path style="stroke:#ff0; stroke-width:8px; fill:none; " opacity="0" d="M 384,298L 274,298"/></g><path style="stroke:black; fill:none;" d="M 384,298L 274,298"/><g><g><path style="stroke:#0ff; stroke-width:8px; fill:none; " opacity="0" d="M 384,298 L 274,298" onmousedown='segmousedown("191","0",evt);' onmouseover='segmouseover("191","0",evt);' onmouseout='segmouseout("191","0",evt);' onclick='segclick("191","0",evt);'/></g></g></g></g>
  <g id="nodes"><g id="180" onmousedown="nodemousedown(180,evt);" onmouseover="nodemouseover(180,evt);" onmouseout="nodemouseout(180,evt);" transform="translate(399,298)"><rect x="-21" y="-21" width="42" height="42" fill="#0ff" style="stroke:none; opacity:0.75;" display="none"/><rect x="-15" y="-15" width="30" height="30" fill="#f0f0d2" style="stroke:black; opacity:1;"/></g><g id="175" onmousedown="nodemousedown(175,evt);" onmouseover="nodemouseover(175,evt);" onmouseout="nodemouseout(175,evt);" transform="translate(399,391)"><rect x="-21" y="-21" width="42" height="42" fill="#0ff" style="stroke:none; opacity:0.75;" display="none"/><rect x="-15" y="-15" width="30" height="30" fill="#f0f0d2" style="stroke:black; opacity:1;"/></g><g id="181" onmousedown="nodemousedown(181,evt);" onmouseover="nodemouseover(181,evt);" onmouseout="nodemouseout(181,evt);" transform="translate(259,298)"><rect x="-21" y="-21" width="42" height="42" fill="#0ff" style="stroke:none; opacity:0.75;" display="none"/><rect x="-15" y="-15" width="30" height="30" fill="#f0f0d2" style="stroke:black; opacity:1;"/></g><g id="179" onmousedown="nodemousedown(179,evt);" onmouseover="nodemouseover(179,evt);" onmouseout="nodemouseout(179,evt);" transform="translate(259,391)"><rect x="-21" y="-21" width="42" height="42" fill="#0ff" style="stroke:none; opacity:0.75;" display="none"/><rect x="-15" y="-15" width="30" height="30" fill="#f0f0d2" style="stroke:black; opacity:1;"/></g><g id="183" onmousedown="nodemousedown(183,evt);" onmouseover="nodemouseover(183,evt);" onmouseout="nodemouseout(183,evt);" transform="translate(399,492)"><rect x="-21" y="-21" width="42" height="42" fill="#0ff" style="stroke:none; opacity:0.75;" display="none"/><rect x="-15" y="-15" width="30" height="30" fill="#f0f0d2" style="stroke:black; opacity:1;"/></g><g id="178" onmousedown="nodemousedown(178,evt);" onmouseover="nodemouseover(178,evt);" onmouseout="nodemouseout(178,evt);" transform="translate(524,298)"><rect x="-21" y="-21" width="42" height="42" fill="#0ff" style="stroke:none; opacity:0.75;" display="none"/><rect x="-15" y="-15" width="30" height="30" fill="#f0f0d2" style="stroke:black; opacity:1;"/></g><g id="177" onmousedown="nodemousedown(177,evt);" onmouseover="nodemouseover(177,evt);" onmouseout="nodemouseout(177,evt);" transform="translate(638,350)"><rect x="-21" y="-21" width="42" height="42" fill="#0ff" style="stroke:none; opacity:0.75;" display="none"/><rect x="-15" y="-15" width="30" height="30" fill="#f0f0d2" style="stroke:black; opacity:1;"/></g><g id="176" onmousedown="nodemousedown(176,evt);" onmouseover="nodemouseover(176,evt);" onmouseout="nodemouseout(176,evt);" transform="translate(526,391)"><rect x="-21" y="-21" width="42" height="42" fill="#0ff" style="stroke:none; opacity:0.75;" display="none"/><rect x="-15" y="-15" width="30" height="30" fill="#f0f0d2" style="stroke:black; opacity:1;"/></g><g id="182" onmousedown="nodemousedown(182,evt);" onmouseover="nodemouseover(182,evt);" onmouseout="nodemouseout(182,evt);" transform="translate(526,494)"><rect x="-21" y="-21" width="42" height="42" fill="#0ff" style="stroke:none; opacity:0.75;" display="none"/><rect x="-15" y="-15" width="30" height="30" fill="#f0f0d2" style="stroke:black; opacity:1;"/></g></g>
  <g id="BPs"><g onmousedown="bpmousedown(207,evt);" onmouseover="bpmouseover(207,evt);" onmouseout="bpmouseout(207,evt);" transform="translate(638,391)" opacity="0"><ellipse cx="0" cy="0" rx="16" ry="16" fill="#0ff" style="stroke:none; opacity:0.75;" display="none"/><ellipse cx="0" cy="0" rx="7.786880000000001" ry="7.786880000000001" fill="#777" style="stroke:black;"/></g><g onmousedown="bpmousedown(210,evt);" onmouseover="bpmouseover(210,evt);" onmouseout="bpmouseout(210,evt);" transform="translate(638,298)" opacity="0"><ellipse cx="0" cy="0" rx="16" ry="16" fill="#0ff" style="stroke:none; opacity:0.75;" display="none"/><ellipse cx="0" cy="0" rx="7.786880000000001" ry="7.786880000000001" fill="#777" style="stroke:black;"/></g></g>
  <g id="ports"/>
</g>
</svg>