<svg xmlns:xlink="http://www.w3.org/1999/xlink" xmlns="http://www.w3.org/2000/svg" height="270px" width="480px" id="SVGCanvas" onmouseup="" onmousemove="">
<rect fill="#bdbddf" width="100%" height="100%" y="0" x="0" id="background" onmousedown="bgmousedown(evt)"/>
<g id="foreground" transform="translate(0,34.87730061349693),scale(0.9815950920245399),translate(-177,-99)">
  <g id="edges"><g id="305"><path style="stroke:#bdbddf; stroke-width:8px; fill:none;" opacity="0.7" d="M 389,273L 445,273"/><g><path style="stroke:#ff0; stroke-width:8px; fill:none; " opacity="0" d="M 389,273L 445,273"/></g><path style="stroke:black; fill:none;" d="M 389,273L 445,273"/><g><g><path style="stroke:#0ff; stroke-width:8px; fill:none; " opacity="0" d="M 389,273 L 445,273" onmousedown='segmousedown("305","0",evt);' onmouseover='segmouseover("305","0",evt);' onmouseout='segmouseout("305","0",evt);' onclick='segclick("305","0",evt);'/></g></g></g><g id="306"><path style="stroke:#bdbddf; stroke-width:8px; fill:none;" opacity="0.7" d="M 460,288L 460,212"/><g><path style="stroke:#ff0; stroke-width:8px; fill:none; " opacity="0" d="M 460,288L 460,212"/></g><path style="stroke:black; fill:none;" d="M 460,288L 460,212"/><g><g><path style="stroke:#0ff; stroke-width:8px; fill:none; " opacity="0" d="M 460,288 L 460,212" onmousedown='segmousedown("306","0",evt);' onmouseover='segmouseover("306","0",evt);' onmouseout='segmouseout("306","0",evt);' onclick='segclick("306","0",evt);'/></g></g></g>

<g id="307"><path style="stroke:#bdbddf; stroke-width:8px; fill:none;" opacity="0.7" d="M 445,197L 207,197"/><g><path style="stroke:#ff0; stroke-width:8px; fill:none; " opacity="0" d="M 445,197L 207,197"/></g>

<path style="stroke:none; fill:none;" d="M 445,197L 207,197"/>

<g><g><path style="stroke:#0ff; stroke-width:8px; fill:none; " opacity="0" d="M 445,197 L 207,197" onmousedown='segmousedown("307","0",evt);' onmouseover='segmouseover("307","0",evt);' onmouseout='segmouseout("307","0",evt);' onclick='segclick("307","0",evt);'/></g></g></g>

<g id="308"><path style="stroke:#bdbddf; stroke-width:8px; fill:none;" opacity="0.7" d="M 207,197L 309,197"/><g><path style="stroke:#ff0; stroke-width:8px; fill:none; " opacity="0" d="M 207,197L 309,197"/></g><path style="stroke:black; fill:none;" d="M 207,197L 309,197"/><g><g><path style="stroke:#0ff; stroke-width:8px; fill:none; " opacity="0" d="M 207,197 L 309,197" onmousedown='segmousedown("308","0",evt);' onmouseover='segmouseover("308","0",evt);' onmouseout='segmouseout("308","0",evt);' onclick='segclick("308","0",evt);'/></g></g></g><g id="309"><path style="stroke:#bdbddf; stroke-width:8px; fill:none;" opacity="0.7" d="M 294,212L 294,288"/><g><path style="stroke:#ff0; stroke-width:8px; fill:none; " opacity="0" d="M 294,212L 294,288"/></g><path style="stroke:black; fill:none;" d="M 294,212L 294,288"/><g><g><path style="stroke:#0ff; stroke-width:8px; fill:none; " opacity="0" d="M 294,212 L 294,288" onmousedown='segmousedown("309","0",evt);' onmouseover='segmouseover("309","0",evt);' onmouseout='segmouseout("309","0",evt);' onclick='segclick("309","0",evt);'/></g></g></g><g id="310"><path style="stroke:#bdbddf; stroke-width:8px; fill:none;" opacity="0.7" d="M 309,273L 359,273"/><g><path style="stroke:#ff0; stroke-width:8px; fill:none; " opacity="0" d="M 309,273L 359,273"/></g><path style="stroke:black; fill:none;" d="M 309,273L 359,273"/><g><g><path style="stroke:#0ff; stroke-width:8px; fill:none; " opacity="0" d="M 309,273 L 359,273" onmousedown='segmousedown("310","0",evt);' onmouseover='segmouseover("310","0",evt);' onmouseout='segmouseout("310","0",evt);' onclick='segclick("310","0",evt);'/></g></g></g><g id="311"><path style="stroke:#bdbddf; stroke-width:8px; fill:none;" opacity="0.7" d="M 279,273L 223,273"/><g><path style="stroke:#ff0; stroke-width:8px; fill:none; " opacity="0" d="M 279,273L 223,273"/></g><path style="stroke:black; fill:none;" d="M 279,273L 223,273"/><g><g><path style="stroke:#0ff; stroke-width:8px; fill:none; " opacity="0" d="M 279,273 L 223,273" onmousedown='segmousedown("311","0",evt);' onmouseover='segmouseover("311","0",evt);' onmouseout='segmouseout("311","0",evt);' onclick='segclick("311","0",evt);'/></g></g></g><g id="312"><path style="stroke:#bdbddf; stroke-width:8px; fill:none;" opacity="0.7" d="M 548,258L 548,210"/><g><path style="stroke:#ff0; stroke-width:8px; fill:none; " opacity="0" d="M 548,258L 548,210"/></g><path style="stroke:black; fill:none;" d="M 548,258L 548,210"/><g><g><path style="stroke:#0ff; stroke-width:8px; fill:none; " opacity="0" d="M 548,258 L 548,210" onmousedown='segmousedown("312","0",evt);' onmouseover='segmouseover("312","0",evt);' onmouseout='segmouseout("312","0",evt);' onclick='segclick("312","0",evt);'/></g></g></g><g id="313"><path style="stroke:#bdbddf; stroke-width:8px; fill:none;" opacity="0.7" d="M 547,210L 547,144"/><g><path style="stroke:#ff0; stroke-width:8px; fill:none; " opacity="0" d="M 547,210L 547,144"/></g><path style="stroke:black; fill:none;" d="M 547,210L 547,144"/><g><g><path style="stroke:#0ff; stroke-width:8px; fill:none; " opacity="0" d="M 547,210 L 547,144" onmousedown='segmousedown("313","0",evt);' onmouseover='segmouseover("313","0",evt);' onmouseout='segmouseout("313","0",evt);' onclick='segclick("313","0",evt);'/></g></g></g><g id="314"><path style="stroke:#bdbddf; stroke-width:8px; fill:none;" opacity="0.7" d="M 563,273L 619,273"/><g><path style="stroke:#ff0; stroke-width:8px; fill:none; " opacity="0" d="M 563,273L 619,273"/></g><path style="stroke:black; fill:none;" d="M 563,273L 619,273"/><g><g><path style="stroke:#0ff; stroke-width:8px; fill:none; " opacity="0" d="M 563,273 L 619,273" onmousedown='segmousedown("314","0",evt);' onmouseover='segmouseover("314","0",evt);' onmouseout='segmouseout("314","0",evt);' onclick='segclick("314","0",evt);'/></g></g></g><g id="315"><path style="stroke:#bdbddf; stroke-width:8px; fill:none;" opacity="0.7" d="M 475,273L 533,273"/><g><path style="stroke:#ff0; stroke-width:8px; fill:none; " opacity="0" d="M 475,273L 533,273"/></g><path style="stroke:black; fill:none;" d="M 475,273L 533,273"/><g><g><path style="stroke:#0ff; stroke-width:8px; fill:none; " opacity="0" d="M 475,273 L 533,273" onmousedown='segmousedown("315","0",evt);' onmouseover='segmouseover("315","0",evt);' onmouseout='segmouseout("315","0",evt);' onclick='segclick("315","0",evt);'/></g></g></g><g id="316"><path style="stroke:#bdbddf; stroke-width:8px; fill:none;" opacity="0.7" d="M 208,288L 208,212"/><g><path style="stroke:#ff0; stroke-width:8px; fill:none; " opacity="0" d="M 208,288L 208,212"/></g><path style="stroke:black; fill:none;" d="M 208,288L 208,212"/><g><g><path style="stroke:#0ff; stroke-width:8px; fill:none; " opacity="0" d="M 208,288 L 208,212" onmousedown='segmousedown("316","0",evt);' onmouseover='segmouseover("316","0",evt);' onmouseout='segmouseout("316","0",evt);' onclick='segclick("316","0",evt);'/></g></g></g><g id="317"><path style="stroke:#bdbddf; stroke-width:8px; fill:none;" opacity="0.7" d="M 533,196L 651,196"/><g><path style="stroke:#ff0; stroke-width:8px; fill:none; " opacity="0" d="M 533,196L 651,196"/></g><path style="stroke:black; fill:none;" d="M 533,196L 651,196"/><g><g><path style="stroke:#0ff; stroke-width:8px; fill:none; " opacity="0" d="M 533,196 L 651,196" onmousedown='segmousedown("317","0",evt);' onmouseover='segmouseover("317","0",evt);' onmouseout='segmouseout("317","0",evt);' onclick='segclick("317","0",evt);'/></g></g></g></g>
  <g id="nodes"><g id="297" onmousedown="nodemousedown(297,evt);" onmouseover="nodemouseover(297,evt);" onmouseout="nodemouseout(297,evt);" transform="translate(294,273)"><rect x="-21" y="-21" width="42" height="42" fill="#0ff" style="stroke:none; opacity:0.75;" display="none"/><rect x="-15" y="-15" width="30" height="30" fill="#f0f0d2" style="stroke:black; opacity:1;"/></g><g id="293" onmousedown="nodemousedown(293,evt);" onmouseover="nodemouseover(293,evt);" onmouseout="nodemouseout(293,evt);" transform="translate(374,273)"><rect x="-21" y="-21" width="42" height="42" fill="#0ff" style="stroke:none; opacity:0.75;" display="none"/><rect x="-15" y="-15" width="30" height="30" fill="#f0f0d2" style="stroke:black; opacity:1;"/></g><g id="298" onmousedown="nodemousedown(298,evt);" onmouseover="nodemouseover(298,evt);" onmouseout="nodemouseout(298,evt);" transform="translate(208,273)"><rect x="-21" y="-21" width="42" height="42" fill="#0ff" style="stroke:none; opacity:0.75;" display="none"/><rect x="-15" y="-15" width="30" height="30" fill="#f0f0d2" style="stroke:black; opacity:1;"/></g><g id="295" onmousedown="nodemousedown(295,evt);" onmouseover="nodemouseover(295,evt);" onmouseout="nodemouseout(295,evt);" transform="translate(294,197)"><rect x="-21" y="-21" width="42" height="42" fill="#0ff" style="stroke:none; opacity:0.75;" display="none"/><rect x="-15" y="-15" width="30" height="30" fill="#f0f0d2" style="stroke:black; opacity:1;"/></g><g id="299" onmousedown="nodemousedown(299,evt);" onmouseover="nodemouseover(299,evt);" onmouseout="nodemouseout(299,evt);" transform="translate(207,197)"><rect x="-21" y="-21" width="42" height="42" fill="#0ff" style="stroke:none; opacity:0.75;" display="none"/><rect x="-15" y="-15" width="30" height="30" fill="#f0f0d2" style="stroke:black; opacity:1;"/></g><g id="294" onmousedown="nodemousedown(294,evt);" onmouseover="nodemouseover(294,evt);" onmouseout="nodemouseout(294,evt);" transform="translate(460,273)"><rect x="-21" y="-21" width="42" height="42" fill="#0ff" style="stroke:none; opacity:0.75;" display="none"/><rect x="-15" y="-15" width="30" height="30" fill="#f0f0d2" style="stroke:black; opacity:1;"/></g><g id="296" onmousedown="nodemousedown(296,evt);" onmouseover="nodemouseover(296,evt);" onmouseout="nodemouseout(296,evt);" transform="translate(460,197)"><rect x="-21" y="-21" width="42" height="42" fill="#0ff" style="stroke:none; opacity:0.75;" display="none"/><rect x="-15" y="-15" width="30" height="30" fill="#f0f0d2" style="stroke:black; opacity:1;"/></g><g id="302" onmousedown="nodemousedown(302,evt);" onmouseover="nodemouseover(302,evt);" onmouseout="nodemouseout(302,evt);" transform="translate(548,195)"><rect x="-21" y="-21" width="42" height="42" fill="#0ff" style="stroke:none; opacity:0.75;" display="none"/><rect x="-15" y="-15" width="30" height="30" fill="#f0f0d2" style="stroke:black; opacity:1;"/></g><g id="303" onmousedown="nodemousedown(303,evt);" onmouseover="nodemouseover(303,evt);" onmouseout="nodemouseout(303,evt);" transform="translate(547,129)"><rect x="-21" y="-21" width="42" height="42" fill="#0ff" style="stroke:none; opacity:0.75;" display="none"/><rect x="-15" y="-15" width="30" height="30" fill="#f0f0d2" style="stroke:black; opacity:1;"/></g><g id="304" onmousedown="nodemousedown(304,evt);" onmouseover="nodemouseover(304,evt);" onmouseout="nodemouseout(304,evt);" transform="translate(636,197)"><rect x="-21" y="-21" width="42" height="42" fill="#0ff" style="stroke:none; opacity:0.75;" display="none"/><rect x="-15" y="-15" width="30" height="30" fill="#f0f0d2" style="stroke:black; opacity:1;"/></g><g id="301" onmousedown="nodemousedown(301,evt);" onmouseover="nodemouseover(301,evt);" onmouseout="nodemouseout(301,evt);" transform="translate(634,273)"><rect x="-21" y="-21" width="42" height="42" fill="#0ff" style="stroke:none; opacity:0.75;" display="none"/><rect x="-15" y="-15" width="30" height="30" fill="#f0f0d2" style="stroke:black; opacity:1;"/></g><g id="300" onmousedown="nodemousedown(300,evt);" onmouseover="nodemouseover(300,evt);" onmouseout="nodemouseout(300,evt);" transform="translate(548,273)"><rect x="-21" y="-21" width="42" height="42" fill="#0ff" style="stroke:none; opacity:0.75;" display="none"/><rect x="-15" y="-15" width="30" height="30" fill="#f0f0d2" style="stroke:black; opacity:1;"/></g></g>
  <g id="BPs"/>
  <g id="ports"/>
  <path style="stroke:black; fill:none;" d="M 445,197L 222,197"/>
</g>
</svg>
