<svg xmlns:xlink="http://www.w3.org/1999/xlink" xmlns="http://www.w3.org/2000/svg" height="270px" width="480px" id="SVGCanvas" onmouseup="" onmousemove="">
<rect fill="#bdbddf" width="100%" height="100%" y="0" x="0" id="background" onmousedown="bgmousedown(evt)"/>
<g id="foreground" transform="translate(31.434034416826023,0),scale(0.5162523900573613),translate(-120,-130)">
  <g id="edges"><g id="266"><path style="stroke:#bdbddf; stroke-width:8px; fill:none;" opacity="0.7" d="M 741,155L 345.5,155"/><g><path style="stroke:#ff0; stroke-width:8px; fill:none; " opacity="0" d="M 741,155L 345.5,155"/></g><path style="stroke:black; fill:none;" d="M 741,155L 345.5,155"/><g><g><path style="stroke:#0ff; stroke-width:8px; fill:none; " opacity="0" d="M 741,155 L 345.5,155" onmousedown='segmousedown("266","0",evt);' onmouseover='segmouseover("266","0",evt);' onmouseout='segmouseout("266","0",evt);' onclick='segclick("266","0",evt);'/></g></g></g><g id="267"><path style="stroke:#bdbddf; stroke-width:8px; fill:none;" opacity="0.7" d="M 319,175L 319,297"/><g><path style="stroke:#ff0; stroke-width:8px; fill:none; " opacity="0" d="M 319,175L 319,297"/></g><path style="stroke:black; fill:none;" d="M 319,175L 319,297"/><g><g><path style="stroke:#0ff; stroke-width:8px; fill:none; " opacity="0" d="M 319,175 L 319,297" onmousedown='segmousedown("267","0",evt);' onmouseover='segmouseover("267","0",evt);' onmouseout='segmouseout("267","0",evt);' onclick='segclick("267","0",evt);'/></g></g></g><g id="268"><path style="stroke:#bdbddf; stroke-width:8px; fill:none;" opacity="0.7" d="M 756,366L 756,179"/><g><path style="stroke:#ff0; stroke-width:8px; fill:none; " opacity="0" d="M 756,366L 756,179"/></g><path style="stroke:black; fill:none;" d="M 756,366L 756,179"/><g><g><path style="stroke:#0ff; stroke-width:8px; fill:none; " opacity="0" d="M 756,366 L 756,179" onmousedown='segmousedown("268","0",evt);' onmouseover='segmouseover("268","0",evt);' onmouseout='segmouseout("268","0",evt);' onclick='segclick("268","0",evt);'/></g></g></g><g id="269"><path style="stroke:#bdbddf; stroke-width:8px; fill:none;" opacity="0.7" d="M 759,396 V 611 a 12,12 0 0,1 -12,12L 330,623"/><g><path style="stroke:#ff0; stroke-width:8px; fill:none; " opacity="0" d="M 759,396 V 611 a 12,12 0 0,1 -12,12L 330,623"/></g><path style="stroke:black; fill:none;" d="M 759,396 V 611 a 12,12 0 0,1 -12,12L 330,623"/><g><g><path style="stroke:#0ff; stroke-width:8px; fill:none; " opacity="0" d="M 759,396 L 759,623" onmousedown='segmousedown("269","0",evt);' onmouseover='segmouseover("269","0",evt);' onmouseout='segmouseout("269","0",evt);' onclick='segclick("269","0",evt);'/><path style="stroke:#0ff; stroke-width:8px; fill:none; " opacity="0" d="M 759,623 L 330,623" onmousedown='segmousedown("269","1",evt);' onmouseover='segmouseover("269","1",evt);' onmouseout='segmouseout("269","1",evt);' onclick='segclick("269","1",evt);'/></g></g></g>

<g id="270"><path style="stroke:#bdbddf; stroke-width:8px; fill:none;" opacity="0.7" d="M 315,608 V 457 a 12,12 0 0,0 -12,-12L 185,445"/><g><path style="stroke:#ff0; stroke-width:8px; fill:none; " opacity="0" d="M 315,608 V 457 a 12,12 0 0,0 -12,-12L 185,445"/></g>

<path style="stroke:none; fill:none;" d="M 315,608 V 457 a 12,12 0 0,0 -12,-12L 185,445"/>

<g><g><path style="stroke:#0ff; stroke-width:8px; fill:none; " opacity="0" d="M 315,608 L 315,445" onmousedown='segmousedown("270","0",evt);' onmouseover='segmouseover("270","0",evt);' onmouseout='segmouseout("270","0",evt);' onclick='segclick("270","0",evt);'/><path style="stroke:#0ff; stroke-width:8px; fill:none; " opacity="0" d="M 315,445 L 185,445" onmousedown='segmousedown("270","1",evt);' onmouseover='segmouseover("270","1",evt);' onmouseout='segmouseout("270","1",evt);' onclick='segclick("270","1",evt);'/></g></g></g>

<g id="271"><path style="stroke:#bdbddf; stroke-width:8px; fill:none;" opacity="0.7" d="M 319,327L 319,422.5"/><g><path style="stroke:#ff0; stroke-width:8px; fill:none; " opacity="0" d="M 319,327L 319,422.5"/></g><path style="stroke:black; fill:none;" d="M 319,327L 319,422.5"/><g><g><path style="stroke:#0ff; stroke-width:8px; fill:none; " opacity="0" d="M 319,327 L 319,422.5" onmousedown='segmousedown("271","0",evt);' onmouseover='segmouseover("271","0",evt);' onmouseout='segmouseout("271","0",evt);' onclick='segclick("271","0",evt);'/></g></g></g><g id="272"><path style="stroke:#bdbddf; stroke-width:8px; fill:none;" opacity="0.7" d="M 333,447 H 880 a 12,12 0 0,0 12,-12L 892,396"/><g><path style="stroke:#ff0; stroke-width:8px; fill:none; " opacity="0" d="M 333,447 H 880 a 12,12 0 0,0 12,-12L 892,396"/></g><path style="stroke:black; fill:none;" d="M 333,447 H 880 a 12,12 0 0,0 12,-12L 892,396"/><g><g><path style="stroke:#0ff; stroke-width:8px; fill:none; " opacity="0" d="M 333,447 L 892,447" onmousedown='segmousedown("272","0",evt);' onmouseover='segmouseover("272","0",evt);' onmouseout='segmouseout("272","0",evt);' onclick='segclick("272","0",evt);'/><path style="stroke:#0ff; stroke-width:8px; fill:none; " opacity="0" d="M 892,447 L 892,396" onmousedown='segmousedown("272","1",evt);' onmouseover='segmouseover("272","1",evt);' onmouseout='segmouseout("272","1",evt);' onclick='segclick("272","1",evt);'/></g></g></g><g id="273"><path style="stroke:#bdbddf; stroke-width:8px; fill:none;" opacity="0.7" d="M 883,381L 771,381"/><g><path style="stroke:#ff0; stroke-width:8px; fill:none; " opacity="0" d="M 883,381L 771,381"/></g><path style="stroke:black; fill:none;" d="M 883,381L 771,381"/><g><g><path style="stroke:#0ff; stroke-width:8px; fill:none; " opacity="0" d="M 883,381 L 771,381" onmousedown='segmousedown("273","0",evt);' onmouseover='segmouseover("273","0",evt);' onmouseout='segmouseout("273","0",evt);' onclick='segclick("273","0",evt);'/></g></g></g><g id="274"><path style="stroke:#bdbddf; stroke-width:8px; fill:none;" opacity="0.7" d="M 160,435L 160,382"/><g><path style="stroke:#ff0; stroke-width:8px; fill:none; " opacity="0" d="M 160,435L 160,382"/></g><path style="stroke:black; fill:none;" d="M 160,435L 160,382"/><g><g><path style="stroke:#0ff; stroke-width:8px; fill:none; " opacity="0" d="M 160,435 L 160,382" onmousedown='segmousedown("274","0",evt);' onmouseover='segmouseover("274","0",evt);' onmouseout='segmouseout("274","0",evt);' onclick='segclick("274","0",evt);'/></g></g></g><g id="275"><path style="stroke:#bdbddf; stroke-width:8px; fill:none;" opacity="0.7" d="M 160,465L 160,525"/><g><path style="stroke:#ff0; stroke-width:8px; fill:none; " opacity="0" d="M 160,465L 160,525"/></g><path style="stroke:black; fill:none;" d="M 160,465L 160,525"/><g><g><path style="stroke:#0ff; stroke-width:8px; fill:none; " opacity="0" d="M 160,465 L 160,525" onmousedown='segmousedown("275","0",evt);' onmouseover='segmouseover("275","0",evt);' onmouseout='segmouseout("275","0",evt);' onclick='segclick("275","0",evt);'/></g></g></g><g id="276"><path style="stroke:#bdbddf; stroke-width:8px; fill:none;" opacity="0.7" d="M 741,370 H 666 a 12,12 0 0,1 -12,-12L 654,261"/><g><path style="stroke:#ff0; stroke-width:8px; fill:none; " opacity="0" d="M 741,370 H 666 a 12,12 0 0,1 -12,-12L 654,261"/></g><path style="stroke:black; fill:none;" d="M 741,370 H 666 a 12,12 0 0,1 -12,-12L 654,261"/><g><g><path style="stroke:#0ff; stroke-width:8px; fill:none; " opacity="0" d="M 741,370 L 654,370" onmousedown='segmousedown("276","0",evt);' onmouseover='segmouseover("276","0",evt);' onmouseout='segmouseout("276","0",evt);' onclick='segclick("276","0",evt);'/><path style="stroke:#0ff; stroke-width:8px; fill:none; " opacity="0" d="M 654,370 L 654,261" onmousedown='segmousedown("276","1",evt);' onmouseover='segmouseover("276","1",evt);' onmouseout='segmouseout("276","1",evt);' onclick='segclick("276","1",evt);'/></g></g></g><g id="277"><path style="stroke:#bdbddf; stroke-width:8px; fill:none;" opacity="0.7" d="M 639,233L 462,233"/><g><path style="stroke:#ff0; stroke-width:8px; fill:none; " opacity="0" d="M 639,233L 462,233"/></g><path style="stroke:black; fill:none;" d="M 639,233L 462,233"/><g><g><path style="stroke:#0ff; stroke-width:8px; fill:none; " opacity="0" d="M 639,233 L 462,233" onmousedown='segmousedown("277","0",evt);' onmouseover='segmouseover("277","0",evt);' onmouseout='segmouseout("277","0",evt);' onclick='segclick("277","0",evt);'/></g></g></g><g id="278"><path style="stroke:#bdbddf; stroke-width:8px; fill:none;" opacity="0.7" d="M 447,248L 447,375"/><g><path style="stroke:#ff0; stroke-width:8px; fill:none; " opacity="0" d="M 447,248L 447,375"/></g><path style="stroke:black; fill:none;" d="M 447,248L 447,375"/><g><g><path style="stroke:#0ff; stroke-width:8px; fill:none; " opacity="0" d="M 447,248 L 447,375" onmousedown='segmousedown("278","0",evt);' onmouseover='segmouseover("278","0",evt);' onmouseout='segmouseout("278","0",evt);' onclick='segclick("278","0",evt);'/></g></g></g><g id="279"><path style="stroke:#bdbddf; stroke-width:8px; fill:none;" opacity="0.7" d="M 462,390L 741,390"/><g><path style="stroke:#ff0; stroke-width:8px; fill:none; " opacity="0" d="M 462,390L 741,390"/></g><path style="stroke:black; fill:none;" d="M 462,390L 741,390"/><g><g><path style="stroke:#0ff; stroke-width:8px; fill:none; " opacity="0" d="M 462,390 L 741,390" onmousedown='segmousedown("279","0",evt);' onmouseover='segmouseover("279","0",evt);' onmouseout='segmouseout("279","0",evt);' onclick='segclick("279","0",evt);'/></g></g></g></g>
  <g id="nodes"><g id="263" onmousedown="nodemousedown(263,evt);" onmouseover="nodemouseover(263,evt);" onmouseout="nodemouseout(263,evt);" transform="translate(654,233)"><rect x="-21" y="-34" width="42" height="68" fill="#0ff" style="stroke:none; opacity:0.75;" display="none"/><rect x="-15" y="-28" width="30" height="56" fill="#f0f0d2" style="stroke:black; opacity:1;"/></g><g id="258" onmousedown="nodemousedown(258,evt);" onmouseover="nodemouseover(258,evt);" onmouseout="nodemouseout(258,evt);" transform="translate(756,381)"><rect x="-21" y="-21" width="42" height="42" fill="#0ff" style="stroke:none; opacity:0.75;" display="none"/><rect x="-15" y="-15" width="30" height="30" fill="#f0f0d2" style="stroke:black; opacity:1;"/></g><g id="265" onmousedown="nodemousedown(265,evt);" onmouseover="nodemouseover(265,evt);" onmouseout="nodemouseout(265,evt);" transform="translate(447,390)"><rect x="-21" y="-21" width="42" height="42" fill="#0ff" style="stroke:none; opacity:0.75;" display="none"/><rect x="-15" y="-15" width="30" height="30" fill="#f0f0d2" style="stroke:black; opacity:1;"/></g><g id="264" onmousedown="nodemousedown(264,evt);" onmouseover="nodemouseover(264,evt);" onmouseout="nodemouseout(264,evt);" transform="translate(447,233)"><rect x="-21" y="-21" width="42" height="42" fill="#0ff" style="stroke:none; opacity:0.75;" display="none"/><rect x="-15" y="-15" width="30" height="30" fill="#f0f0d2" style="stroke:black; opacity:1;"/></g><g id="257" onmousedown="nodemousedown(257,evt);" onmouseover="nodemouseover(257,evt);" onmouseout="nodemouseout(257,evt);" transform="translate(898,381)"><rect x="-21" y="-21" width="42" height="42" fill="#0ff" style="stroke:none; opacity:0.75;" display="none"/><rect x="-15" y="-15" width="30" height="30" fill="#f0f0d2" style="stroke:black; opacity:1;"/></g><g id="253" onmousedown="nodemousedown(253,evt);" onmouseover="nodemouseover(253,evt);" onmouseout="nodemouseout(253,evt);" transform="translate(756,164)"><rect x="-21" y="-21" width="42" height="42" fill="#0ff" style="stroke:none; opacity:0.75;" display="none"/><rect x="-15" y="-15" width="30" height="30" fill="#f0f0d2" style="stroke:black; opacity:1;"/></g><g id="254" onmousedown="nodemousedown(254,evt);" onmouseover="nodemouseover(254,evt);" onmouseout="nodemouseout(254,evt);" transform="translate(319,160)"><rect x="-32.5" y="-21" width="65" height="42" fill="#0ff" style="stroke:none; opacity:0.75;" display="none"/><rect x="-26.5" y="-15" width="53" height="30" fill="#f0f0d2" style="stroke:black; opacity:1;"/></g><g id="256" onmousedown="nodemousedown(256,evt);" onmouseover="nodemouseover(256,evt);" onmouseout="nodemouseout(256,evt);" transform="translate(312,448)"><rect x="-27" y="-31.5" width="54" height="63" fill="#0ff" style="stroke:none; opacity:0.75;" display="none"/><rect x="-21" y="-25.5" width="42" height="51" fill="#f0f0d2" style="stroke:black; opacity:1;"/></g><g id="259" onmousedown="nodemousedown(259,evt);" onmouseover="nodemouseover(259,evt);" onmouseout="nodemouseout(259,evt);" transform="translate(315,623)"><rect x="-21" y="-21" width="42" height="42" fill="#0ff" style="stroke:none; opacity:0.75;" display="none"/><rect x="-15" y="-15" width="30" height="30" fill="#f0f0d2" style="stroke:black; opacity:1;"/></g><g id="261" onmousedown="nodemousedown(261,evt);" onmouseover="nodemouseover(261,evt);" onmouseout="nodemouseout(261,evt);" transform="translate(160,450)"><rect x="-31" y="-21" width="62" height="42" fill="#0ff" style="stroke:none; opacity:0.75;" display="none"/><rect x="-25" y="-15" width="50" height="30" fill="#f0f0d2" style="stroke:black; opacity:1;"/></g><g id="262" onmousedown="nodemousedown(262,evt);" onmouseover="nodemouseover(262,evt);" onmouseout="nodemouseout(262,evt);" transform="translate(160,540)"><rect x="-21" y="-21" width="42" height="42" fill="#0ff" style="stroke:none; opacity:0.75;" display="none"/><rect x="-15" y="-15" width="30" height="30" fill="#f0f0d2" style="stroke:black; opacity:1;"/></g><g id="260" onmousedown="nodemousedown(260,evt);" onmouseover="nodemouseover(260,evt);" onmouseout="nodemouseout(260,evt);" transform="translate(160,367)"><rect x="-21" y="-21" width="42" height="42" fill="#0ff" style="stroke:none; opacity:0.75;" display="none"/><rect x="-15" y="-15" width="30" height="30" fill="#f0f0d2" style="stroke:black; opacity:1;"/></g><g id="255" onmousedown="nodemousedown(255,evt);" onmouseover="nodemouseover(255,evt);" onmouseout="nodemouseout(255,evt);" transform="translate(319,312)"><rect x="-21" y="-21" width="42" height="42" fill="#0ff" style="stroke:none; opacity:0.75;" display="none"/><rect x="-15" y="-15" width="30" height="30" fill="#f0f0d2" style="stroke:black; opacity:1;"/></g></g>
  <g id="BPs"><g onmousedown="bpmousedown(292,evt);" onmouseover="bpmouseover(292,evt);" onmouseout="bpmouseout(292,evt);" transform="translate(759,623)" opacity="0"><ellipse cx="0" cy="0" rx="16" ry="16" fill="#0ff" style="stroke:none; opacity:0.75;" display="none"/><ellipse cx="0" cy="0" rx="10" ry="10" fill="#777" style="stroke:black;"/></g><g onmousedown="bpmousedown(295,evt);" onmouseover="bpmouseover(295,evt);" onmouseout="bpmouseout(295,evt);" transform="translate(315,445)" opacity="0"><ellipse cx="0" cy="0" rx="16" ry="16" fill="#0ff" style="stroke:none; opacity:0.75;" display="none"/><ellipse cx="0" cy="0" rx="10" ry="10" fill="#777" style="stroke:black;"/></g><g onmousedown="bpmousedown(302,evt);" onmouseover="bpmouseover(302,evt);" onmouseout="bpmouseout(302,evt);" transform="translate(892,447)" opacity="0"><ellipse cx="0" cy="0" rx="16" ry="16" fill="#0ff" style="stroke:none; opacity:0.75;" display="none"/><ellipse cx="0" cy="0" rx="10" ry="10" fill="#777" style="stroke:black;"/></g><g onmousedown="bpmousedown(315,evt);" onmouseover="bpmouseover(315,evt);" onmouseout="bpmouseout(315,evt);" transform="translate(654,370)" opacity="0"><ellipse cx="0" cy="0" rx="16" ry="16" fill="#0ff" style="stroke:none; opacity:0.75;" display="none"/><ellipse cx="0" cy="0" rx="9.200000000000001" ry="9.200000000000001" fill="#777" style="stroke:black;"/></g></g>
  <g id="ports"/>
  <path style="stroke:black; fill:none;" d="M 315,608 V 457 a 12,12 0 0,0 -12,-12L 185,445"/>
</g>
</svg>
