<svg xmlns:xlink="http://www.w3.org/1999/xlink" xmlns="http://www.w3.org/2000/svg" height="270px" width="480px" id="SVGCanvas" onmouseup="" onmousemove="">
<rect fill="#bdbddf" width="100%" height="100%" y="0" x="0" id="background" onmousedown="bgmousedown(evt)"/>
<g id="foreground" transform="translate(118.09701492537314,0),scale(1.007462686567164),translate(-359,-88)">
  <g id="edges"><g id="201"><path style="stroke:#bdbddf; stroke-width:8px; fill:none;" opacity="0.7" d="M 478,208L 478,133"/><g><path style="stroke:#ff0; stroke-width:8px; fill:none; " opacity="0" d="M 478,208L 478,133"/></g><path style="stroke:black; fill:none;" d="M 478,208L 478,133"/><g><g><path style="stroke:#0ff; stroke-width:8px; fill:none; " opacity="0" d="M 478,208 L 478,133" onmousedown='segmousedown("201","0",evt);' onmouseover='segmouseover("201","0",evt);' onmouseout='segmouseout("201","0",evt);' onclick='segclick("201","0",evt);'/></g></g></g><g id="202"><path style="stroke:#bdbddf; stroke-width:8px; fill:none;" opacity="0.7" d="M 478,238L 478,311"/><g><path style="stroke:#ff0; stroke-width:8px; fill:none; " opacity="0" d="M 478,238L 478,311"/></g><path style="stroke:black; fill:none;" d="M 478,238L 478,311"/><g><g><path style="stroke:#0ff; stroke-width:8px; fill:none; " opacity="0" d="M 478,238 L 478,311" onmousedown='segmousedown("202","0",evt);' onmouseover='segmouseover("202","0",evt);' onmouseout='segmouseout("202","0",evt);' onclick='segclick("202","0",evt);'/></g></g></g><g id="203"><path style="stroke:#bdbddf; stroke-width:8px; fill:none;" opacity="0.7" d="M 493,118L 556,118"/><g><path style="stroke:#ff0; stroke-width:8px; fill:none; " opacity="0" d="M 493,118L 556,118"/></g><path style="stroke:black; fill:none;" d="M 493,118L 556,118"/><g><g><path style="stroke:#0ff; stroke-width:8px; fill:none; " opacity="0" d="M 493,118 L 556,118" onmousedown='segmousedown("203","0",evt);' onmouseover='segmouseover("203","0",evt);' onmouseout='segmouseout("203","0",evt);' onclick='segclick("203","0",evt);'/></g></g></g><g id="204"><path style="stroke:#bdbddf; stroke-width:8px; fill:none;" opacity="0.7" d="M 463,118L 404,118"/><g><path style="stroke:#ff0; stroke-width:8px; fill:none; " opacity="0" d="M 463,118L 404,118"/></g><path style="stroke:black; fill:none;" d="M 463,118L 404,118"/><g><g><path style="stroke:#0ff; stroke-width:8px; fill:none; " opacity="0" d="M 463,118 L 404,118" onmousedown='segmousedown("204","0",evt);' onmouseover='segmouseover("204","0",evt);' onmouseout='segmouseout("204","0",evt);' onclick='segclick("204","0",evt);'/></g></g></g><g id="205"><path style="stroke:#bdbddf; stroke-width:8px; fill:none;" opacity="0.7" d="M 478,326L 556,326"/><g><path style="stroke:#ff0; stroke-width:8px; fill:none; " opacity="0" d="M 478,326L 556,326"/></g><path style="stroke:black; fill:none;" d="M 478,326L 556,326"/><g><g><path style="stroke:#0ff; stroke-width:8px; fill:none; " opacity="0" d="M 478,326 L 556,326" onmousedown='segmousedown("205","0",evt);' onmouseover='segmouseover("205","0",evt);' onmouseout='segmouseout("205","0",evt);' onclick='segclick("205","0",evt);'/></g></g></g><g id="206"><path style="stroke:#bdbddf; stroke-width:8px; fill:none;" opacity="0.7" d="M 478,326L 404,326"/><g><path style="stroke:#ff0; stroke-width:8px; fill:none; " opacity="0" d="M 478,326L 404,326"/></g><path style="stroke:black; fill:none;" d="M 478,326L 404,326"/><g><g><path style="stroke:#0ff; stroke-width:8px; fill:none; " opacity="0" d="M 478,326 L 404,326" onmousedown='segmousedown("206","0",evt);' onmouseover='segmouseover("206","0",evt);' onmouseout='segmouseout("206","0",evt);' onclick='segclick("206","0",evt);'/></g></g></g></g>
  <g id="nodes"><g id="194" onmousedown="nodemousedown(194,evt);" onmouseover="nodemouseover(194,evt);" onmouseout="nodemouseout(194,evt);" transform="translate(478,223)"><rect x="-21" y="-21" width="42" height="42" fill="#0ff" style="stroke:none; opacity:0.75;" display="none"/><rect x="-15" y="-15" width="30" height="30" fill="#f0f0d2" style="stroke:black; opacity:1;"/></g><g id="195" onmousedown="nodemousedown(195,evt);" onmouseover="nodemouseover(195,evt);" onmouseout="nodemouseout(195,evt);" transform="translate(478,118)"><rect x="-21" y="-21" width="42" height="42" fill="#0ff" style="stroke:none; opacity:0.75;" display="none"/><rect x="-15" y="-15" width="30" height="30" fill="#f0f0d2" style="stroke:black; opacity:1;"/></g><g id="200" onmousedown="nodemousedown(200,evt);" onmouseover="nodemouseover(200,evt);" onmouseout="nodemouseout(200,evt);" transform="translate(389,323)"><rect x="-21" y="-21" width="42" height="42" fill="#0ff" style="stroke:none; opacity:0.75;" display="none"/><rect x="-15" y="-15" width="30" height="30" fill="#f0f0d2" style="stroke:black; opacity:1;"/></g><g id="197" onmousedown="nodemousedown(197,evt);" onmouseover="nodemouseover(197,evt);" onmouseout="nodemouseout(197,evt);" transform="translate(571,118)"><rect x="-21" y="-21" width="42" height="42" fill="#0ff" style="stroke:none; opacity:0.75;" display="none"/><rect x="-15" y="-15" width="30" height="30" fill="#f0f0d2" style="stroke:black; opacity:1;"/></g><g id="198" onmousedown="nodemousedown(198,evt);" onmouseover="nodemouseover(198,evt);" onmouseout="nodemouseout(198,evt);" transform="translate(389,118)"><rect x="-21" y="-21" width="42" height="42" fill="#0ff" style="stroke:none; opacity:0.75;" display="none"/><rect x="-15" y="-15" width="30" height="30" fill="#f0f0d2" style="stroke:black; opacity:1;"/></g><g id="196" onmousedown="nodemousedown(196,evt);" onmouseover="nodemouseover(196,evt);" onmouseout="nodemouseout(196,evt);" transform="translate(478,326)"><rect x="-21" y="-21" width="42" height="42" fill="#0ff" style="stroke:none; opacity:0.75;" display="none"/><rect x="-15" y="-15" width="30" height="30" fill="#f0f0d2" style="stroke:black; opacity:1;"/></g><g id="199" onmousedown="nodemousedown(199,evt);" onmouseover="nodemouseover(199,evt);" onmouseout="nodemouseout(199,evt);" transform="translate(571,325)"><rect x="-21" y="-21" width="42" height="42" fill="#0ff" style="stroke:none; opacity:0.75;" display="none"/><rect x="-15" y="-15" width="30" height="30" fill="#f0f0d2" style="stroke:black; opacity:1;"/></g></g>
  <g id="BPs"/>
  <g id="ports"/>
</g>
</svg>