<svg xmlns:xlink="http://www.w3.org/1999/xlink" xmlns="http://www.w3.org/2000/svg" height="270px" width="480px" id="SVGCanvas" onmouseup="" onmousemove="">
<rect fill="#bdbddf" width="100%" height="100%" y="0" x="0" id="background" onmousedown="bgmousedown(evt)"/>
<g id="foreground" transform="translate(65.07042253521126,0),scale(0.6338028169014085),translate(-13,-49)">
  <g id="edges"><g id="241"><path style="stroke:#bdbddf; stroke-width:8px; fill:none;" opacity="0.7" d="M 239,185L 520,185"/><g><path style="stroke:#ff0; stroke-width:8px; fill:none; " opacity="0" d="M 239,185L 520,185"/></g><path style="stroke:black; fill:none;" d="M 239,185L 520,185"/><g><g><path style="stroke:#0ff; stroke-width:8px; fill:none; " opacity="0" d="M 239,185 L 520,185" onmousedown='segmousedown("241","0",evt);' onmouseover='segmouseover("241","0",evt);' onmouseout='segmouseout("241","0",evt);' onclick='segclick("241","0",evt);'/></g></g></g><g id="242"><path style="stroke:#bdbddf; stroke-width:8px; fill:none;" opacity="0.7" d="M 535,164L 535,95"/><g><path style="stroke:#ff0; stroke-width:8px; fill:none; " opacity="0" d="M 535,164L 535,95"/></g><path style="stroke:black; fill:none;" d="M 535,164L 535,95"/><g><g><path style="stroke:#0ff; stroke-width:8px; fill:none; " opacity="0" d="M 535,164 L 535,95" onmousedown='segmousedown("242","0",evt);' onmouseover='segmouseover("242","0",evt);' onmouseout='segmouseout("242","0",evt);' onclick='segclick("242","0",evt);'/></g></g></g><g id="243"><path style="stroke:#bdbddf; stroke-width:8px; fill:none;" opacity="0.7" d="M 520,79L 226,79"/><g><path style="stroke:#ff0; stroke-width:8px; fill:none; " opacity="0" d="M 520,79L 226,79"/></g><path style="stroke:black; fill:none;" d="M 520,79L 226,79"/><g><g><path style="stroke:#0ff; stroke-width:8px; fill:none; " opacity="0" d="M 520,79 L 226,79" onmousedown='segmousedown("243","0",evt);' onmouseover='segmouseover("243","0",evt);' onmouseout='segmouseout("243","0",evt);' onclick='segclick("243","0",evt);'/></g></g></g><g id="244"><path style="stroke:#bdbddf; stroke-width:8px; fill:none;" opacity="0.7" d="M 218,79L 218,170"/><g><path style="stroke:#ff0; stroke-width:8px; fill:none; " opacity="0" d="M 218,79L 218,170"/></g><path style="stroke:black; fill:none;" d="M 218,79L 218,170"/><g><g><path style="stroke:#0ff; stroke-width:8px; fill:none; " opacity="0" d="M 218,79 L 218,170" onmousedown='segmousedown("244","0",evt);' onmouseover='segmouseover("244","0",evt);' onmouseout='segmouseout("244","0",evt);' onclick='segclick("244","0",evt);'/></g></g></g><g id="245"><path style="stroke:#bdbddf; stroke-width:8px; fill:none;" opacity="0.7" d="M 535,194L 535,242"/><g><path style="stroke:#ff0; stroke-width:8px; fill:none; " opacity="0" d="M 535,194L 535,242"/></g><path style="stroke:black; fill:none;" d="M 535,194L 535,242"/><g><g><path style="stroke:#0ff; stroke-width:8px; fill:none; " opacity="0" d="M 535,194 L 535,242" onmousedown='segmousedown("245","0",evt);' onmouseover='segmouseover("245","0",evt);' onmouseout='segmouseout("245","0",evt);' onclick='segclick("245","0",evt);'/></g></g></g><g id="246"><path style="stroke:#bdbddf; stroke-width:8px; fill:none;" opacity="0.7" d="M 533,272L 533,306"/><g><path style="stroke:#ff0; stroke-width:8px; fill:none; " opacity="0" d="M 533,272L 533,306"/></g><path style="stroke:black; fill:none;" d="M 533,272L 533,306"/><g><g><path style="stroke:#0ff; stroke-width:8px; fill:none; " opacity="0" d="M 533,272 L 533,306" onmousedown='segmousedown("246","0",evt);' onmouseover='segmouseover("246","0",evt);' onmouseout='segmouseout("246","0",evt);' onclick='segclick("246","0",evt);'/></g></g></g><g id="247"><path style="stroke:#bdbddf; stroke-width:8px; fill:none;" opacity="0.7" d="M 532,336L 532,370"/><g><path style="stroke:#ff0; stroke-width:8px; fill:none; " opacity="0" d="M 532,336L 532,370"/></g><path style="stroke:black; fill:none;" d="M 532,336L 532,370"/><g><g><path style="stroke:#0ff; stroke-width:8px; fill:none; " opacity="0" d="M 532,336 L 532,370" onmousedown='segmousedown("247","0",evt);' onmouseover='segmouseover("247","0",evt);' onmouseout='segmouseout("247","0",evt);' onclick='segclick("247","0",evt);'/></g></g></g><g id="248"><path style="stroke:#bdbddf; stroke-width:8px; fill:none;" opacity="0.7" d="M 534,400L 534,430"/><g><path style="stroke:#ff0; stroke-width:8px; fill:none; " opacity="0" d="M 534,400L 534,430"/></g><path style="stroke:black; fill:none;" d="M 534,400L 534,430"/><g><g><path style="stroke:#0ff; stroke-width:8px; fill:none; " opacity="0" d="M 534,400 L 534,430" onmousedown='segmousedown("248","0",evt);' onmouseover='segmouseover("248","0",evt);' onmouseout='segmouseout("248","0",evt);' onclick='segclick("248","0",evt);'/></g></g></g><g id="249"><path style="stroke:#bdbddf; stroke-width:8px; fill:none;" opacity="0.7" d="M 202,79 V 79.5 a 0.5,0.5 0 0,1 -0.5,0.5L 140,80"/><g><path style="stroke:#ff0; stroke-width:8px; fill:none; " opacity="0" d="M 202,79 V 79.5 a 0.5,0.5 0 0,1 -0.5,0.5L 140,80"/></g><path style="stroke:black; fill:none;" d="M 202,79 V 79.5 a 0.5,0.5 0 0,1 -0.5,0.5L 140,80"/><g><g><path style="stroke:#0ff; stroke-width:8px; fill:none; " opacity="0" d="M 202,79 L 202,80" onmousedown='segmousedown("249","0",evt);' onmouseover='segmouseover("249","0",evt);' onmouseout='segmouseout("249","0",evt);' onclick='segclick("249","0",evt);'/><path style="stroke:#0ff; stroke-width:8px; fill:none; " opacity="0" d="M 202,80 L 140,80" onmousedown='segmousedown("249","1",evt);' onmouseover='segmouseover("249","1",evt);' onmouseout='segmouseout("249","1",evt);' onclick='segclick("249","1",evt);'/></g></g></g><g id="250"><path style="stroke:#bdbddf; stroke-width:8px; fill:none;" opacity="0.7" d="M 124,95L 124,169"/><g><path style="stroke:#ff0; stroke-width:8px; fill:none; " opacity="0" d="M 124,95L 124,169"/></g><path style="stroke:black; fill:none;" d="M 124,95L 124,169"/><g><g><path style="stroke:#0ff; stroke-width:8px; fill:none; " opacity="0" d="M 124,95 L 124,169" onmousedown='segmousedown("250","0",evt);' onmouseover='segmouseover("250","0",evt);' onmouseout='segmouseout("250","0",evt);' onclick='segclick("250","0",evt);'/></g></g></g><g id="251"><path style="stroke:#bdbddf; stroke-width:8px; fill:none;" opacity="0.7" d="M 126,199L 126,236"/><g><path style="stroke:#ff0; stroke-width:8px; fill:none; " opacity="0" d="M 126,199L 126,236"/></g><path style="stroke:black; fill:none;" d="M 126,199L 126,236"/><g><g><path style="stroke:#0ff; stroke-width:8px; fill:none; " opacity="0" d="M 126,199 L 126,236" onmousedown='segmousedown("251","0",evt);' onmouseover='segmouseover("251","0",evt);' onmouseout='segmouseout("251","0",evt);' onclick='segclick("251","0",evt);'/></g></g></g><g id="252"><path style="stroke:#bdbddf; stroke-width:8px; fill:none;" opacity="0.7" d="M 110,80L 58,80"/><g><path style="stroke:#ff0; stroke-width:8px; fill:none; " opacity="0" d="M 110,80L 58,80"/></g><path style="stroke:black; fill:none;" d="M 110,80L 58,80"/><g><g><path style="stroke:#0ff; stroke-width:8px; fill:none; " opacity="0" d="M 110,80 L 58,80" onmousedown='segmousedown("252","0",evt);' onmouseover='segmouseover("252","0",evt);' onmouseout='segmouseout("252","0",evt);' onclick='segclick("252","0",evt);'/></g></g></g></g>
  <g id="nodes"><g id="229" onmousedown="nodemousedown(229,evt);" onmouseover="nodemouseover(229,evt);" onmouseout="nodemouseout(229,evt);" transform="translate(211 79)"><rect x="-21" y="-21" width="42" height="42" fill="#0ff" style="stroke:none; opacity:0.75;" display="none"/><rect x="-15" y="-15" width="30" height="30" fill="#f0f0d2" style="stroke:black; opacity:1;"/></g><g id="230" onmousedown="nodemousedown(230,evt);" onmouseover="nodemouseover(230,evt);" onmouseout="nodemouseout(230,evt);" transform="translate(224,185)"><rect x="-21" y="-21" width="42" height="42" fill="#0ff" style="stroke:none; opacity:0.75;" display="none"/><rect x="-15" y="-15" width="30" height="30" fill="#f0f0d2" style="stroke:black; opacity:1;"/></g><g id="231" onmousedown="nodemousedown(231,evt);" onmouseover="nodemouseover(231,evt);" onmouseout="nodemouseout(231,evt);" transform="translate(535,179)"><rect x="-21" y="-21" width="42" height="42" fill="#0ff" style="stroke:none; opacity:0.75;" display="none"/><rect x="-15" y="-15" width="30" height="30" fill="#f0f0d2" style="stroke:black; opacity:1;"/></g><g id="232" onmousedown="nodemousedown(232,evt);" onmouseover="nodemouseover(232,evt);" onmouseout="nodemouseout(232,evt);" transform="translate(535,80)"><rect x="-21" y="-21" width="42" height="42" fill="#0ff" style="stroke:none; opacity:0.75;" display="none"/><rect x="-15" y="-15" width="30" height="30" fill="#f0f0d2" style="stroke:black; opacity:1;"/></g><g id="233" onmousedown="nodemousedown(233,evt);" onmouseover="nodemouseover(233,evt);" onmouseout="nodemouseout(233,evt);" transform="translate(535,257)"><rect x="-21" y="-21" width="42" height="42" fill="#0ff" style="stroke:none; opacity:0.75;" display="none"/><rect x="-15" y="-15" width="30" height="30" fill="#f0f0d2" style="stroke:black; opacity:1;"/></g><g id="235" onmousedown="nodemousedown(235,evt);" onmouseover="nodemouseover(235,evt);" onmouseout="nodemouseout(235,evt);" transform="translate(534,385)"><rect x="-21" y="-21" width="42" height="42" fill="#0ff" style="stroke:none; opacity:0.75;" display="none"/><rect x="-15" y="-15" width="30" height="30" fill="#f0f0d2" style="stroke:black; opacity:1;"/></g><g id="236" onmousedown="nodemousedown(236,evt);" onmouseover="nodemouseover(236,evt);" onmouseout="nodemouseout(236,evt);" transform="translate(534,445)"><rect x="-21" y="-21" width="42" height="42" fill="#0ff" style="stroke:none; opacity:0.75;" display="none"/><rect x="-15" y="-15" width="30" height="30" fill="#f0f0d2" style="stroke:black; opacity:1;"/></g><g id="234" onmousedown="nodemousedown(234,evt);" onmouseover="nodemouseover(234,evt);" onmouseout="nodemouseout(234,evt);" transform="translate(533,321)"><rect x="-21" y="-21" width="42" height="42" fill="#0ff" style="stroke:none; opacity:0.75;" display="none"/><rect x="-15" y="-15" width="30" height="30" fill="#f0f0d2" style="stroke:black; opacity:1;"/></g><g id="237" onmousedown="nodemousedown(237,evt);" onmouseover="nodemouseover(237,evt);" onmouseout="nodemouseout(237,evt);" transform="translate(125,80)"><rect x="-21" y="-21" width="42" height="42" fill="#0ff" style="stroke:none; opacity:0.75;" display="none"/><rect x="-15" y="-15" width="30" height="30" fill="#f0f0d2" style="stroke:black; opacity:1;"/></g><g id="238" onmousedown="nodemousedown(238,evt);" onmouseover="nodemouseover(238,evt);" onmouseout="nodemouseout(238,evt);" transform="translate(43,80)"><rect x="-21" y="-21" width="42" height="42" fill="#0ff" style="stroke:none; opacity:0.75;" display="none"/><rect x="-15" y="-15" width="30" height="30" fill="#f0f0d2" style="stroke:black; opacity:1;"/></g><g id="239" onmousedown="nodemousedown(239,evt);" onmouseover="nodemouseover(239,evt);" onmouseout="nodemouseout(239,evt);" transform="translate(126,184)"><rect x="-21" y="-21" width="42" height="42" fill="#0ff" style="stroke:none; opacity:0.75;" display="none"/><rect x="-15" y="-15" width="30" height="30" fill="#f0f0d2" style="stroke:black; opacity:1;"/></g><g id="240" onmousedown="nodemousedown(240,evt);" onmouseover="nodemouseover(240,evt);" onmouseout="nodemouseout(240,evt);" transform="translate(126,251)"><rect x="-21" y="-21" width="42" height="42" fill="#0ff" style="stroke:none; opacity:0.75;" display="none"/><rect x="-15" y="-15" width="30" height="30" fill="#f0f0d2" style="stroke:black; opacity:1;"/></g></g>
  <g id="BPs"><g onmousedown="bpmousedown(281,evt);" onmouseover="bpmouseover(281,evt);" onmouseout="bpmouseout(281,evt);" transform="translate(202,80)" opacity="0"><ellipse cx="0" cy="0" rx="16" ry="16" fill="#0ff" style="stroke:none; opacity:0.75;" display="none"/><ellipse cx="0" cy="0" rx="9.200000000000001" ry="9.200000000000001" fill="#777" style="stroke:black;"/></g></g>
  <g id="ports"/>
</g>
</svg>