<svg xmlns:xlink="http://www.w3.org/1999/xlink" xmlns="http://www.w3.org/2000/svg" height="270px" width="480px" id="SVGCanvas" onmouseup="" onmousemove="">
<rect fill="#bdbddf" width="100%" height="100%" y="0" x="0" id="background" onmousedown="bgmousedown(evt)"/>
<g id="foreground" transform="translate(115.75221238938053,0),scale(0.9557522123893806),translate(-114,-114)">
  <g id="edges"><g id="169"><path style="stroke:#bdbddf; stroke-width:8px; fill:none;" opacity="0.7" d="M 163,148L 329,148"/><g><path style="stroke:#ff0; stroke-width:8px; fill:none; " opacity="0" d="M 163,148L 329,148"/></g><path style="stroke:black; fill:none;" d="M 163,148L 329,148"/><g><g><path style="stroke:#0ff; stroke-width:8px; fill:none; " opacity="0" d="M 163,148 L 329,148" onmousedown='segmousedown("169","0",evt);' onmouseover='segmouseover("169","0",evt);' onmouseout='segmouseout("169","0",evt);' onclick='segclick("169","0",evt);'/></g></g></g><g id="170"><path style="stroke:#bdbddf; stroke-width:8px; fill:none;" opacity="0.7" d="M 329,158 H 276 a 12,12 0 0,0 -12,12L 264,215"/><g><path style="stroke:#ff0; stroke-width:8px; fill:none; " opacity="0" d="M 329,158 H 276 a 12,12 0 0,0 -12,12L 264,215"/></g><path style="stroke:black; fill:none;" d="M 329,158 H 276 a 12,12 0 0,0 -12,12L 264,215"/><g><g><path style="stroke:#0ff; stroke-width:8px; fill:none; " opacity="0" d="M 329,158 L 264,158" onmousedown='segmousedown("170","0",evt);' onmouseover='segmouseover("170","0",evt);' onmouseout='segmouseout("170","0",evt);' onclick='segclick("170","0",evt);'/><path style="stroke:#0ff; stroke-width:8px; fill:none; " opacity="0" d="M 264,158 L 264,215" onmousedown='segmousedown("170","1",evt);' onmouseover='segmouseover("170","1",evt);' onmouseout='segmouseout("170","1",evt);' onclick='segclick("170","1",evt);'/></g></g></g><g id="171"><path style="stroke:#bdbddf; stroke-width:8px; fill:none;" opacity="0.7" d="M 264,245L 264,334.5"/><g><path style="stroke:#ff0; stroke-width:8px; fill:none; " opacity="0" d="M 264,245L 264,334.5"/></g><path style="stroke:black; fill:none;" d="M 264,245L 264,334.5"/><g><g><path style="stroke:#0ff; stroke-width:8px; fill:none; " opacity="0" d="M 264,245 L 264,334.5" onmousedown='segmousedown("171","0",evt);' onmouseover='segmouseover("171","0",evt);' onmouseout='segmouseout("171","0",evt);' onclick='segclick("171","0",evt);'/></g></g></g><g id="172"><path style="stroke:#bdbddf; stroke-width:8px; fill:none;" opacity="0.7" d="M 279,358 H 332 a 12,12 0 0,0 12,-12L 344,168"/><g><path style="stroke:#ff0; stroke-width:8px; fill:none; " opacity="0" d="M 279,358 H 332 a 12,12 0 0,0 12,-12L 344,168"/></g><path style="stroke:black; fill:none;" d="M 279,358 H 332 a 12,12 0 0,0 12,-12L 344,168"/><g><g><path style="stroke:#0ff; stroke-width:8px; fill:none; " opacity="0" d="M 279,358 L 344,358" onmousedown='segmousedown("172","0",evt);' onmouseover='segmouseover("172","0",evt);' onmouseout='segmouseout("172","0",evt);' onclick='segclick("172","0",evt);'/><path style="stroke:#0ff; stroke-width:8px; fill:none; " opacity="0" d="M 344,358 L 344,168" onmousedown='segmousedown("172","1",evt);' onmouseover='segmouseover("172","1",evt);' onmouseout='segmouseout("172","1",evt);' onclick='segclick("172","1",evt);'/></g></g></g><g id="173"><path style="stroke:#bdbddf; stroke-width:8px; fill:none;" opacity="0.7" d="M 239,230 H 160 a 12,12 0 0,1 -12,-12L 148,159"/><g><path style="stroke:#ff0; stroke-width:8px; fill:none; " opacity="0" d="M 239,230 H 160 a 12,12 0 0,1 -12,-12L 148,159"/></g><path style="stroke:black; fill:none;" d="M 239,230 H 160 a 12,12 0 0,1 -12,-12L 148,159"/><g><g><path style="stroke:#0ff; stroke-width:8px; fill:none; " opacity="0" d="M 239,230 L 148,230" onmousedown='segmousedown("173","0",evt);' onmouseover='segmouseover("173","0",evt);' onmouseout='segmouseout("173","0",evt);' onclick='segclick("173","0",evt);'/><path style="stroke:#0ff; stroke-width:8px; fill:none; " opacity="0" d="M 148,230 L 148,159" onmousedown='segmousedown("173","1",evt);' onmouseover='segmouseover("173","1",evt);' onmouseout='segmouseout("173","1",evt);' onclick='segclick("173","1",evt);'/></g></g></g><g id="174"><path style="stroke:#bdbddf; stroke-width:8px; fill:none;" opacity="0.7" d="M 139,159 V 346 a 12,12 0 0,0 12,12L 249,358"/><g><path style="stroke:#ff0; stroke-width:8px; fill:none; " opacity="0" d="M 139,159 V 346 a 12,12 0 0,0 12,12L 249,358"/></g><path style="stroke:black; fill:none;" d="M 139,159 V 346 a 12,12 0 0,0 12,12L 249,358"/><g><g><path style="stroke:#0ff; stroke-width:8px; fill:none; " opacity="0" d="M 139,159 L 139,358" onmousedown='segmousedown("174","0",evt);' onmouseover='segmouseover("174","0",evt);' onmouseout='segmouseout("174","0",evt);' onclick='segclick("174","0",evt);'/><path style="stroke:#0ff; stroke-width:8px; fill:none; " opacity="0" d="M 139,358 L 249,358" onmousedown='segmousedown("174","1",evt);' onmouseover='segmouseover("174","1",evt);' onmouseout='segmouseout("174","1",evt);' onclick='segclick("174","1",evt);'/></g></g></g></g>
  <g id="nodes"><g id="165" onmousedown="nodemousedown(165,evt);" onmouseover="nodemouseover(165,evt);" onmouseout="nodemouseout(165,evt);" transform="translate(264 230)"><rect x="-31" y="-21" width="62" height="42" fill="#0ff" style="stroke:none; opacity:0.75;" display="none"/><rect x="-25" y="-15" width="50" height="30" fill="#f0f0d2" style="stroke:black; opacity:1;"/></g><g id="167" onmousedown="nodemousedown(167,evt);" onmouseover="nodemouseover(167,evt);" onmouseout="nodemouseout(167,evt);" transform="translate(344,153)"><rect x="-21" y="-21" width="42" height="42" fill="#0ff" style="stroke:none; opacity:0.75;" display="none"/><rect x="-15" y="-15" width="30" height="30" fill="#f0f0d2" style="stroke:black; opacity:1;"/></g><g id="168" onmousedown="nodemousedown(168,evt);" onmouseover="nodemouseover(168,evt);" onmouseout="nodemouseout(168,evt);" transform="translate(148,144)"><rect x="-21" y="-21" width="42" height="42" fill="#0ff" style="stroke:none; opacity:0.75;" display="none"/><rect x="-15" y="-15" width="30" height="30" fill="#f0f0d2" style="stroke:black; opacity:1;"/></g><g id="166" onmousedown="nodemousedown(166,evt);" onmouseover="nodemouseover(166,evt);" onmouseout="nodemouseout(166,evt);" transform="translate(264,358)"><rect x="-21" y="-29.5" width="42" height="59" fill="#0ff" style="stroke:none; opacity:0.75;" display="none"/><rect x="-15" y="-23.5" width="30" height="47" fill="#f0f0d2" style="stroke:black; opacity:1;"/></g></g>
  <g id="BPs"><g onmousedown="bpmousedown(182,evt);" onmouseover="bpmouseover(182,evt);" onmouseout="bpmouseout(182,evt);" transform="translate(264,158)" opacity="0"><ellipse cx="0" cy="0" rx="16" ry="16" fill="#0ff" style="stroke:none; opacity:0.75;" display="none"/><ellipse cx="0" cy="0" rx="5.578466012364801" ry="5.578466012364801" fill="#777" style="stroke:black;"/></g><g onmousedown="bpmousedown(189,evt);" onmouseover="bpmouseover(189,evt);" onmouseout="bpmouseout(189,evt);" transform="translate(344,358)" opacity="0"><ellipse cx="0" cy="0" rx="16" ry="16" fill="#0ff" style="stroke:none; opacity:0.75;" display="none"/><ellipse cx="0" cy="0" rx="5.578466012364801" ry="5.578466012364801" fill="#777" style="stroke:black;"/></g><g onmousedown="bpmousedown(195,evt);" onmouseover="bpmouseover(195,evt);" onmouseout="bpmouseout(195,evt);" transform="translate(148,230)" opacity="0"><ellipse cx="0" cy="0" rx="16" ry="16" fill="#0ff" style="stroke:none; opacity:0.75;" display="none"/><ellipse cx="0" cy="0" rx="5.578466012364801" ry="5.578466012364801" fill="#777" style="stroke:black;"/></g><g onmousedown="bpmousedown(199,evt);" onmouseover="bpmouseover(199,evt);" onmouseout="bpmouseout(199,evt);" transform="translate(139,358)" opacity="0"><ellipse cx="0" cy="0" rx="16" ry="16" fill="#0ff" style="stroke:none; opacity:0.75;" display="none"/><ellipse cx="0" cy="0" rx="5.578466012364801" ry="5.578466012364801" fill="#777" style="stroke:black;"/></g></g>
  <g id="ports"/>
</g>
</svg>