<svg xmlns:xlink="http://www.w3.org/1999/xlink" xmlns="http://www.w3.org/2000/svg" height="270px" width="480px" id="SVGCanvas" onmouseup="" onmousemove="">
<rect fill="#bdbddf" width="100%" height="100%" y="0" x="0" id="background" onmousedown="bgmousedown(evt)"/>
<g id="foreground" transform="translate(17.948275862068982,0),scale(0.9310344827586207),translate(-312,280)">
  <g id="edges"><g id="328"><path style="stroke:#bdbddf; stroke-width:8px; fill:none;" opacity="0.7" d="M 744,-22L 653,-22"/><g><path style="stroke:#ff0; stroke-width:8px; fill:none; " opacity="0" d="M 744,-22L 653,-22"/></g><path style="stroke:black; fill:none;" d="M 744,-22L 653,-22"/><g><g><path style="stroke:#0ff; stroke-width:8px; fill:none; " opacity="0" d="M 744,-22 L 653,-22" onmousedown='segmousedown("328","0",evt);' onmouseover='segmouseover("328","0",evt);' onmouseout='segmouseout("328","0",evt);' onclick='segclick("328","0",evt);'/></g></g></g><g id="329"><path style="stroke:#bdbddf; stroke-width:8px; fill:none;" opacity="0.7" d="M 641,-37L 641,-145"/><g><path style="stroke:#ff0; stroke-width:8px; fill:none; " opacity="0" d="M 641,-37L 641,-145"/></g><path style="stroke:black; fill:none;" d="M 641,-37L 641,-145"/><g><g><path style="stroke:#0ff; stroke-width:8px; fill:none; " opacity="0" d="M 641,-37 L 641,-145" onmousedown='segmousedown("329","0",evt);' onmouseover='segmouseover("329","0",evt);' onmouseout='segmouseout("329","0",evt);' onclick='segclick("329","0",evt);'/></g></g></g><g id="330"><path style="stroke:#bdbddf; stroke-width:8px; fill:none;" opacity="0.7" d="M 759,-144L 759,-37"/><g><path style="stroke:#ff0; stroke-width:8px; fill:none; " opacity="0" d="M 759,-144L 759,-37"/></g><path style="stroke:black; fill:none;" d="M 759,-144L 759,-37"/><g><g><path style="stroke:#0ff; stroke-width:8px; fill:none; " opacity="0" d="M 759,-144 L 759,-37" onmousedown='segmousedown("330","0",evt);' onmouseover='segmouseover("330","0",evt);' onmouseout='segmouseout("330","0",evt);' onclick='segclick("330","0",evt);'/></g></g></g><g id="331"><path style="stroke:#bdbddf; stroke-width:8px; fill:none;" opacity="0.7" d="M 656,-168L 739,-168"/><g><path style="stroke:#ff0; stroke-width:8px; fill:none; " opacity="0" d="M 656,-168L 739,-168"/></g><path style="stroke:black; fill:none;" d="M 656,-168L 739,-168"/><g><g><path style="stroke:#0ff; stroke-width:8px; fill:none; " opacity="0" d="M 656,-168 L 739,-168" onmousedown='segmousedown("331","0",evt);' onmouseover='segmouseover("331","0",evt);' onmouseout='segmouseout("331","0",evt);' onclick='segclick("331","0",evt);'/></g></g></g><g id="332"><path style="stroke:#bdbddf; stroke-width:8px; fill:none;" opacity="0.7" d="M 560,-163L 626,-163"/><g><path style="stroke:#ff0; stroke-width:8px; fill:none; " opacity="0" d="M 560,-163L 626,-163"/></g><path style="stroke:black; fill:none;" d="M 560,-163L 626,-163"/><g><g><path style="stroke:#0ff; stroke-width:8px; fill:none; " opacity="0" d="M 560,-163 L 626,-163" onmousedown='segmousedown("332","0",evt);' onmouseover='segmouseover("332","0",evt);' onmouseout='segmouseout("332","0",evt);' onclick='segclick("332","0",evt);'/></g></g></g><g id="333"><path style="stroke:#bdbddf; stroke-width:8px; fill:none;" opacity="0.7" d="M 530,-162L 458,-162"/><g><path style="stroke:#ff0; stroke-width:8px; fill:none; " opacity="0" d="M 530,-162L 458,-162"/></g><path style="stroke:black; fill:none;" d="M 530,-162L 458,-162"/><g><g><path style="stroke:#0ff; stroke-width:8px; fill:none; " opacity="0" d="M 530,-162 L 458,-162" onmousedown='segmousedown("333","0",evt);' onmouseover='segmouseover("333","0",evt);' onmouseout='segmouseout("333","0",evt);' onclick='segclick("333","0",evt);'/></g></g></g><g id="334"><path style="stroke:#bdbddf; stroke-width:8px; fill:none;" opacity="0.7" d="M 443,-147L 443,-38"/><g><path style="stroke:#ff0; stroke-width:8px; fill:none; " opacity="0" d="M 443,-147L 443,-38"/></g><path style="stroke:black; fill:none;" d="M 443,-147L 443,-38"/><g><g><path style="stroke:#0ff; stroke-width:8px; fill:none; " opacity="0" d="M 443,-147 L 443,-38" onmousedown='segmousedown("334","0",evt);' onmouseover='segmouseover("334","0",evt);' onmouseout='segmouseout("334","0",evt);' onclick='segclick("334","0",evt);'/></g></g></g><g id="335"><path style="stroke:#bdbddf; stroke-width:8px; fill:none;" opacity="0.7" d="M 428,-162L 357,-162"/><g><path style="stroke:#ff0; stroke-width:8px; fill:none; " opacity="0" d="M 428,-162L 357,-162"/></g><path style="stroke:black; fill:none;" d="M 428,-162L 357,-162"/><g><g><path style="stroke:#0ff; stroke-width:8px; fill:none; " opacity="0" d="M 428,-162 L 357,-162" onmousedown='segmousedown("335","0",evt);' onmouseover='segmouseover("335","0",evt);' onmouseout='segmouseout("335","0",evt);' onclick='segclick("335","0",evt);'/></g></g></g><g id="336"><path style="stroke:#bdbddf; stroke-width:8px; fill:none;" opacity="0.7" d="M 545,-148L 545,-35"/><g><path style="stroke:#ff0; stroke-width:8px; fill:none; " opacity="0" d="M 545,-148L 545,-35"/></g><path style="stroke:black; fill:none;" d="M 545,-148L 545,-35"/><g><g><path style="stroke:#0ff; stroke-width:8px; fill:none; " opacity="0" d="M 545,-148 L 545,-35" onmousedown='segmousedown("336","0",evt);' onmouseover='segmouseover("336","0",evt);' onmouseout='segmouseout("336","0",evt);' onclick='segclick("336","0",evt);'/></g></g></g><g id="337"><path style="stroke:#bdbddf; stroke-width:8px; fill:none;" opacity="0.7" d="M 545,-178L 545,-235"/><g><path style="stroke:#ff0; stroke-width:8px; fill:none; " opacity="0" d="M 545,-178L 545,-235"/></g><path style="stroke:black; fill:none;" d="M 545,-178L 545,-235"/><g><g><path style="stroke:#0ff; stroke-width:8px; fill:none; " opacity="0" d="M 545,-178 L 545,-235" onmousedown='segmousedown("337","0",evt);' onmouseover='segmouseover("337","0",evt);' onmouseout='segmouseout("337","0",evt);' onclick='segclick("337","0",evt);'/></g></g></g></g>
  <g id="nodes"><g id="322" onmousedown="nodemousedown(322,evt);" onmouseover="nodemouseover(322,evt);" onmouseout="nodemouseout(322,evt);" transform="translate(545,-163)"><rect x="-21" y="-21" width="42" height="42" fill="#0ff" style="stroke:none; opacity:0.75;" display="none"/><rect x="-15" y="-15" width="30" height="30" fill="#f0f0d2" style="stroke:black; opacity:1;"/></g><g id="321" onmousedown="nodemousedown(321,evt);" onmouseover="nodemouseover(321,evt);" onmouseout="nodemouseout(321,evt);" transform="translate(641,-160)"><rect x="-21" y="-21" width="42" height="42" fill="#0ff" style="stroke:none; opacity:0.75;" display="none"/><rect x="-15" y="-15" width="30" height="30" fill="#f0f0d2" style="stroke:black; opacity:1;"/></g><g id="318" onmousedown="nodemousedown(318,evt);" onmouseover="nodemouseover(318,evt);" onmouseout="nodemouseout(318,evt);" transform="translate(754,-159)"><rect x="-21" y="-21" width="42" height="42" fill="#0ff" style="stroke:none; opacity:0.75;" display="none"/><rect x="-15" y="-15" width="30" height="30" fill="#f0f0d2" style="stroke:black; opacity:1;"/></g><g id="320" onmousedown="nodemousedown(320,evt);" onmouseover="nodemouseover(320,evt);" onmouseout="nodemouseout(320,evt);" transform="translate(638,-22)"><rect x="-21" y="-21" width="42" height="42" fill="#0ff" style="stroke:none; opacity:0.75;" display="none"/><rect x="-15" y="-15" width="30" height="30" fill="#f0f0d2" style="stroke:black; opacity:1;"/></g><g id="319" onmousedown="nodemousedown(319,evt);" onmouseover="nodemouseover(319,evt);" onmouseout="nodemouseout(319,evt);" transform="translate(759,-22)"><rect x="-21" y="-21" width="42" height="42" fill="#0ff" style="stroke:none; opacity:0.75;" display="none"/><rect x="-15" y="-15" width="30" height="30" fill="#f0f0d2" style="stroke:black; opacity:1;"/></g><g id="327" onmousedown="nodemousedown(327,evt);" onmouseover="nodemouseover(327,evt);" onmouseout="nodemouseout(327,evt);" transform="translate(545,-250)"><rect x="-21" y="-21" width="42" height="42" fill="#0ff" style="stroke:none; opacity:0.75;" display="none"/><rect x="-15" y="-15" width="30" height="30" fill="#f0f0d2" style="stroke:black; opacity:1;"/></g><g id="324" onmousedown="nodemousedown(324,evt);" onmouseover="nodemouseover(324,evt);" onmouseout="nodemouseout(324,evt);" transform="translate(545,-20)"><rect x="-21" y="-21" width="42" height="42" fill="#0ff" style="stroke:none; opacity:0.75;" display="none"/><rect x="-15" y="-15" width="30" height="30" fill="#f0f0d2" style="stroke:black; opacity:1;"/></g><g id="323" onmousedown="nodemousedown(323,evt);" onmouseover="nodemouseover(323,evt);" onmouseout="nodemouseout(323,evt);" transform="translate(443,-162)"><rect x="-21" y="-21" width="42" height="42" fill="#0ff" style="stroke:none; opacity:0.75;" display="none"/><rect x="-15" y="-15" width="30" height="30" fill="#f0f0d2" style="stroke:black; opacity:1;"/></g><g id="325" onmousedown="nodemousedown(325,evt);" onmouseover="nodemouseover(325,evt);" onmouseout="nodemouseout(325,evt);" transform="translate(443,-23)"><rect x="-21" y="-21" width="42" height="42" fill="#0ff" style="stroke:none; opacity:0.75;" display="none"/><rect x="-15" y="-15" width="30" height="30" fill="#f0f0d2" style="stroke:black; opacity:1;"/></g><g id="326" onmousedown="nodemousedown(326,evt);" onmouseover="nodemouseover(326,evt);" onmouseout="nodemouseout(326,evt);" transform="translate(342,-156)"><rect x="-21" y="-21" width="42" height="42" fill="#0ff" style="stroke:none; opacity:0.75;" display="none"/><rect x="-15" y="-15" width="30" height="30" fill="#f0f0d2" style="stroke:black; opacity:1;"/></g></g>
  <g id="BPs"/>
  <g id="ports"/>
</g>
</svg>