<svg xmlns:xlink="http://www.w3.org/1999/xlink" xmlns="http://www.w3.org/2000/svg" height="270px" width="480px" id="SVGCanvas" onmouseup="" onmousemove="">
<rect fill="#bdbddf" width="100%" height="100%" y="0" x="0" id="background" onmousedown="bgmousedown(evt)"/>
<g id="foreground" transform="translate(18.867768595041326,0),scale(0.8925619834710744),translate(-200,42.5)">
  <g id="edges"><g id="288"><path style="stroke:#bdbddf; stroke-width:8px; fill:none;" opacity="0.7" d="M 327,15L 327,215"/><g><path style="stroke:#ff0; stroke-width:8px; fill:none; " opacity="0" d="M 327,15L 327,215"/></g><path style="stroke:black; fill:none;" d="M 327,15L 327,215"/><g><g><path style="stroke:#0ff; stroke-width:8px; fill:none; " opacity="0" d="M 327,15 L 327,215" onmousedown='segmousedown("288","0",evt);' onmouseover='segmouseover("288","0",evt);' onmouseout='segmouseout("288","0",evt);' onclick='segclick("288","0",evt);'/></g></g></g><g id="289"><path style="stroke:#bdbddf; stroke-width:8px; fill:none;" opacity="0.7" d="M 352,15L 352,83"/><g><path style="stroke:#ff0; stroke-width:8px; fill:none; " opacity="0" d="M 352,15L 352,83"/></g><path style="stroke:black; fill:none;" d="M 352,15L 352,83"/><g><g><path style="stroke:#0ff; stroke-width:8px; fill:none; " opacity="0" d="M 352,15 L 352,83" onmousedown='segmousedown("289","0",evt);' onmouseover='segmouseover("289","0",evt);' onmouseout='segmouseout("289","0",evt);' onclick='segclick("289","0",evt);'/></g></g></g><g id="290"><path style="stroke:#bdbddf; stroke-width:8px; fill:none;" opacity="0.7" d="M 469.5,-1L 368.5,-1"/><g><path style="stroke:#ff0; stroke-width:8px; fill:none; " opacity="0" d="M 469.5,-1L 368.5,-1"/></g><path style="stroke:black; fill:none;" d="M 469.5,-1L 368.5,-1"/><g><g><path style="stroke:#0ff; stroke-width:8px; fill:none; " opacity="0" d="M 469.5,-1 L 368.5,-1" onmousedown='segmousedown("290","0",evt);' onmouseover='segmouseover("290","0",evt);' onmouseout='segmouseout("290","0",evt);' onclick='segclick("290","0",evt);'/></g></g></g><g id="291"><path style="stroke:#bdbddf; stroke-width:8px; fill:none;" opacity="0.7" d="M 245,-1L 285.5,-1"/><g><path style="stroke:#ff0; stroke-width:8px; fill:none; " opacity="0" d="M 245,-1L 285.5,-1"/></g><path style="stroke:black; fill:none;" d="M 245,-1L 285.5,-1"/><g><g><path style="stroke:#0ff; stroke-width:8px; fill:none; " opacity="0" d="M 245,-1 L 285.5,-1" onmousedown='segmousedown("291","0",evt);' onmouseover='segmouseover("291","0",evt);' onmouseout='segmouseout("291","0",evt);' onclick='segclick("291","0",evt);'/></g></g></g><g id="292"><path style="stroke:#bdbddf; stroke-width:8px; fill:none;" opacity="0.7" d="M 516.5,-1L 591.5,-1"/><g><path style="stroke:#ff0; stroke-width:8px; fill:none; " opacity="0" d="M 516.5,-1L 591.5,-1"/></g><path style="stroke:black; fill:none;" d="M 516.5,-1L 591.5,-1"/><g><g><path style="stroke:#0ff; stroke-width:8px; fill:none; " opacity="0" d="M 516.5,-1 L 591.5,-1" onmousedown='segmousedown("292","0",evt);' onmouseover='segmouseover("292","0",evt);' onmouseout='segmouseout("292","0",evt);' onclick='segclick("292","0",evt);'/></g></g></g><g id="287"><path style="stroke:#bdbddf; stroke-width:8px; fill:none;" opacity="0.7" d="M 300,15L 300,108"/><g><path style="stroke:#ff0; stroke-width:8px; fill:none; " opacity="0" d="M 300,15L 300,108"/></g><path style="stroke:black; fill:none;" d="M 300,15L 300,108"/><g><g><path style="stroke:#0ff; stroke-width:8px; fill:none; " opacity="0" d="M 300,15 L 300,108" onmousedown='segmousedown("287","0",evt);' onmouseover='segmouseover("287","0",evt);' onmouseout='segmouseout("287","0",evt);' onclick='segclick("287","0",evt);'/></g></g></g></g>
  <g id="nodes"><g id="280" onmousedown="nodemousedown(280,evt);" onmouseover="nodemouseover(280,evt);" onmouseout="nodemouseout(280,evt);" transform="translate(327,-1)"><rect x="-47.5" y="-22" width="95" height="44" fill="#0ff" style="stroke:none; opacity:0.75;" display="none"/><rect x="-41.5" y="-16" width="83" height="32" fill="#f0f0d2" style="stroke:black; opacity:1;"/></g><g id="284" onmousedown="nodemousedown(284,evt);" onmouseover="nodemouseover(284,evt);" onmouseout="nodemouseout(284,evt);" transform="translate(493,-1)"><rect x="-29.5" y="-32.5" width="59" height="65" fill="#0ff" style="stroke:none; opacity:0.75;" display="none"/><rect x="-23.5" y="-26.5" width="47" height="53" fill="#f0f0d2" style="stroke:black; opacity:1;"/></g><g id="286" onmousedown="nodemousedown(286,evt);" onmouseover="nodemouseover(286,evt);" onmouseout="nodemouseout(286,evt);" transform="translate(636,-1)"><rect x="-50.5" y="-21" width="101" height="42" fill="#0ff" style="stroke:none; opacity:0.75;" display="none"/><rect x="-44.5" y="-15" width="89" height="30" fill="#f0f0d2" style="stroke:black; opacity:1;"/></g><g id="283" onmousedown="nodemousedown(283,evt);" onmouseover="nodemouseover(283,evt);" onmouseout="nodemouseout(283,evt);" transform="translate(353,129)"><rect x="-17.5" y="-52" width="35" height="104" fill="#0ff" style="stroke:none; opacity:0.75;" display="none"/><rect x="-11.5" y="-46" width="23" height="92" fill="#f0f0d2" style="stroke:black; opacity:1;"/></g><g id="282" onmousedown="nodemousedown(282,evt);" onmouseover="nodemouseover(282,evt);" onmouseout="nodemouseout(282,evt);" transform="translate(327,230)"><rect x="-21" y="-21" width="42" height="42" fill="#0ff" style="stroke:none; opacity:0.75;" display="none"/><rect x="-15" y="-15" width="30" height="30" fill="#f0f0d2" style="stroke:black; opacity:1;"/></g><g id="285" onmousedown="nodemousedown(285,evt);" onmouseover="nodemouseover(285,evt);" onmouseout="nodemouseout(285,evt);" transform="translate(230,-1)"><rect x="-21" y="-21" width="42" height="42" fill="#0ff" style="stroke:none; opacity:0.75;" display="none"/><rect x="-15" y="-15" width="30" height="30" fill="#f0f0d2" style="stroke:black; opacity:1;"/></g><g id="281" onmousedown="nodemousedown(281,evt);" onmouseover="nodemouseover(281,evt);" onmouseout="nodemouseout(281,evt);" transform="translate(300,123)"><rect x="-21" y="-21" width="42" height="42" fill="#0ff" style="stroke:none; opacity:0.75;" display="none"/><rect x="-15" y="-15" width="30" height="30" fill="#f0f0d2" style="stroke:black; opacity:1;"/></g></g>
  <g id="BPs"/>
  <g id="ports"/>
</g>
</svg>