<svg xmlns:xlink="http://www.w3.org/1999/xlink" xmlns="http://www.w3.org/2000/svg" height="270px" width="480px" id="SVGCanvas" onmouseup="" onmousemove="">
<rect fill="#bdbddf" width="100%" height="100%" y="0" x="0" id="background" onmousedown="bgmousedown(evt)"/>
<g id="foreground" transform="translate(134.5556358381503,0),scale(0.3901734104046243),translate(-324.5,118)">
  <g id="edges"><g id="266"><path style="stroke:#bdbddf; stroke-width:8px; fill:none;" opacity="0.7" d="M 366,95L 366,237"/><g><path style="stroke:#ff0; stroke-width:8px; fill:none; " opacity="0" d="M 366,95L 366,237"/></g><path style="stroke:black; fill:none;" d="M 366,95L 366,237"/><g><g><path style="stroke:#0ff; stroke-width:8px; fill:none; " opacity="0" d="M 366,95 L 366,237" onmousedown='segmousedown("266","0",evt);' onmouseover='segmouseover("266","0",evt);' onmouseout='segmouseout("266","0",evt);' onclick='segclick("266","0",evt);'/></g></g></g><g id="267"><path style="stroke:#bdbddf; stroke-width:8px; fill:none;" opacity="0.7" d="M 366,267L 366,388"/><g><path style="stroke:#ff0; stroke-width:8px; fill:none; " opacity="0" d="M 366,267L 366,388"/></g><path style="stroke:black; fill:none;" d="M 366,267L 366,388"/><g><g><path style="stroke:#0ff; stroke-width:8px; fill:none; " opacity="0" d="M 366,267 L 366,388" onmousedown='segmousedown("267","0",evt);' onmouseover='segmouseover("267","0",evt);' onmouseout='segmouseout("267","0",evt);' onclick='segclick("267","0",evt);'/></g></g></g><g id="268"><path style="stroke:#bdbddf; stroke-width:8px; fill:none;" opacity="0.7" d="M 608,74L 381,74"/><g><path style="stroke:#ff0; stroke-width:8px; fill:none; " opacity="0" d="M 608,74L 381,74"/></g><path style="stroke:black; fill:none;" d="M 608,74L 381,74"/><g><g><path style="stroke:#0ff; stroke-width:8px; fill:none; " opacity="0" d="M 608,74 L 381,74" onmousedown='segmousedown("268","0",evt);' onmouseover='segmouseover("268","0",evt);' onmouseout='segmouseout("268","0",evt);' onclick='segclick("268","0",evt);'/></g></g></g><g id="269"><path style="stroke:#bdbddf; stroke-width:8px; fill:none;" opacity="0.7" d="M 626,89L 626,237"/><g><path style="stroke:#ff0; stroke-width:8px; fill:none; " opacity="0" d="M 626,89L 626,237"/></g><path style="stroke:black; fill:none;" d="M 626,89L 626,237"/><g><g><path style="stroke:#0ff; stroke-width:8px; fill:none; " opacity="0" d="M 626,89 L 626,237" onmousedown='segmousedown("269","0",evt);' onmouseover='segmouseover("269","0",evt);' onmouseout='segmouseout("269","0",evt);' onclick='segclick("269","0",evt);'/></g></g></g><g id="270"><path style="stroke:#bdbddf; stroke-width:8px; fill:none;" opacity="0.7" d="M 628,267L 628,374"/><g><path style="stroke:#ff0; stroke-width:8px; fill:none; " opacity="0" d="M 628,267L 628,374"/></g><path style="stroke:black; fill:none;" d="M 628,267L 628,374"/><g><g><path style="stroke:#0ff; stroke-width:8px; fill:none; " opacity="0" d="M 628,267 L 628,374" onmousedown='segmousedown("270","0",evt);' onmouseover='segmouseover("270","0",evt);' onmouseout='segmouseout("270","0",evt);' onclick='segclick("270","0",evt);'/></g></g></g><g id="271"><path style="stroke:#bdbddf; stroke-width:8px; fill:none;" opacity="0.7" d="M 381,405 H 522 a 12,12 0 0,0 12,-12L 534,344.5"/><g><path style="stroke:#ff0; stroke-width:8px; fill:none; " opacity="0" d="M 381,405 H 522 a 12,12 0 0,0 12,-12L 534,344.5"/></g><path style="stroke:black; fill:none;" d="M 381,405 H 522 a 12,12 0 0,0 12,-12L 534,344.5"/><g><g><path style="stroke:#0ff; stroke-width:8px; fill:none; " opacity="0" d="M 381,405 L 534,405" onmousedown='segmousedown("271","0",evt);' onmouseover='segmouseover("271","0",evt);' onmouseout='segmouseout("271","0",evt);' onclick='segclick("271","0",evt);'/><path style="stroke:#0ff; stroke-width:8px; fill:none; " opacity="0" d="M 534,405 L 534,344.5" onmousedown='segmousedown("271","1",evt);' onmouseover='segmouseover("271","1",evt);' onmouseout='segmouseout("271","1",evt);' onclick='segclick("271","1",evt);'/></g></g></g><g id="272"><path style="stroke:#bdbddf; stroke-width:8px; fill:none;" opacity="0.7" d="M 534,293.5L 534,179"/><g><path style="stroke:#ff0; stroke-width:8px; fill:none; " opacity="0" d="M 534,293.5L 534,179"/></g><path style="stroke:black; fill:none;" d="M 534,293.5L 534,179"/><g><g><path style="stroke:#0ff; stroke-width:8px; fill:none; " opacity="0" d="M 534,293.5 L 534,179" onmousedown='segmousedown("272","0",evt);' onmouseover='segmouseover("272","0",evt);' onmouseout='segmouseout("272","0",evt);' onclick='segclick("272","0",evt);'/></g></g></g><g id="273"><path style="stroke:#bdbddf; stroke-width:8px; fill:none;" opacity="0.7" d="M 549,168 H 606 a 12,12 0 0,0 12,-12L 618,89"/><g><path style="stroke:#ff0; stroke-width:8px; fill:none; " opacity="0" d="M 549,168 H 606 a 12,12 0 0,0 12,-12L 618,89"/></g><path style="stroke:black; fill:none;" d="M 549,168 H 606 a 12,12 0 0,0 12,-12L 618,89"/><g><g><path style="stroke:#0ff; stroke-width:8px; fill:none; " opacity="0" d="M 549,168 L 618,168" onmousedown='segmousedown("273","0",evt);' onmouseover='segmouseover("273","0",evt);' onmouseout='segmouseout("273","0",evt);' onclick='segclick("273","0",evt);'/><path style="stroke:#0ff; stroke-width:8px; fill:none; " opacity="0" d="M 618,168 L 618,89" onmousedown='segmousedown("273","1",evt);' onmouseover='segmouseover("273","1",evt);' onmouseout='segmouseout("273","1",evt);' onclick='segclick("273","1",evt);'/></g></g></g><g id="274"><path style="stroke:#bdbddf; stroke-width:8px; fill:none;" opacity="0.7" d="M 628,404L 628,529"/><g><path style="stroke:#ff0; stroke-width:8px; fill:none; " opacity="0" d="M 628,404L 628,529"/></g><path style="stroke:black; fill:none;" d="M 628,404L 628,529"/><g><g><path style="stroke:#0ff; stroke-width:8px; fill:none; " opacity="0" d="M 628,404 L 628,529" onmousedown='segmousedown("274","0",evt);' onmouseover='segmouseover("274","0",evt);' onmouseout='segmouseout("274","0",evt);' onclick='segclick("274","0",evt);'/></g></g></g><g id="275"><path style="stroke:#bdbddf; stroke-width:8px; fill:none;" opacity="0.7" d="M 653,389L 707,389"/><g><path style="stroke:#ff0; stroke-width:8px; fill:none; " opacity="0" d="M 653,389L 707,389"/></g><path style="stroke:black; fill:none;" d="M 653,389L 707,389"/><g><g><path style="stroke:#0ff; stroke-width:8px; fill:none; " opacity="0" d="M 653,389 L 707,389" onmousedown='segmousedown("275","0",evt);' onmouseover='segmouseover("275","0",evt);' onmouseout='segmouseout("275","0",evt);' onclick='segclick("275","0",evt);'/></g></g></g><g id="276"><path style="stroke:#bdbddf; stroke-width:8px; fill:none;" opacity="0.7" d="M 628,89 V 82 a 7,7 0 0,1 7,-7L 724,75"/><g><path style="stroke:#ff0; stroke-width:8px; fill:none; " opacity="0" d="M 628,89 V 82 a 7,7 0 0,1 7,-7L 724,75"/></g><path style="stroke:black; fill:none;" d="M 628,89 V 82 a 7,7 0 0,1 7,-7L 724,75"/><g><g><path style="stroke:#0ff; stroke-width:8px; fill:none; " opacity="0" d="M 628,89 L 628,75" onmousedown='segmousedown("276","0",evt);' onmouseover='segmouseover("276","0",evt);' onmouseout='segmouseout("276","0",evt);' onclick='segclick("276","0",evt);'/><path style="stroke:#0ff; stroke-width:8px; fill:none; " opacity="0" d="M 628,75 L 724,75" onmousedown='segmousedown("276","1",evt);' onmouseover='segmouseover("276","1",evt);' onmouseout='segmouseout("276","1",evt);' onclick='segclick("276","1",evt);'/></g></g></g><g id="277"><path style="stroke:#bdbddf; stroke-width:8px; fill:none;" opacity="0.7" d="M 754,72L 818,72"/><g><path style="stroke:#ff0; stroke-width:8px; fill:none; " opacity="0" d="M 754,72L 818,72"/></g><path style="stroke:black; fill:none;" d="M 754,72L 818,72"/><g><g><path style="stroke:#0ff; stroke-width:8px; fill:none; " opacity="0" d="M 754,72 L 818,72" onmousedown='segmousedown("277","0",evt);' onmouseover='segmouseover("277","0",evt);' onmouseout='segmouseout("277","0",evt);' onclick='segclick("277","0",evt);'/></g></g></g><g id="278"><path style="stroke:#bdbddf; stroke-width:8px; fill:none;" opacity="0.7" d="M 835,57L 835,-73"/><g><path style="stroke:#ff0; stroke-width:8px; fill:none; " opacity="0" d="M 835,57L 835,-73"/></g><path style="stroke:black; fill:none;" d="M 835,57L 835,-73"/><g><g><path style="stroke:#0ff; stroke-width:8px; fill:none; " opacity="0" d="M 835,57 L 835,-73" onmousedown='segmousedown("278","0",evt);' onmouseover='segmouseover("278","0",evt);' onmouseout='segmouseout("278","0",evt);' onclick='segclick("278","0",evt);'/></g></g></g><g id="279"><path style="stroke:#bdbddf; stroke-width:8px; fill:none;" opacity="0.7" d="M 820,-88 H 635 a 12,12 0 0,0 -12,12L 623,59"/><g><path style="stroke:#ff0; stroke-width:8px; fill:none; " opacity="0" d="M 820,-88 H 635 a 12,12 0 0,0 -12,12L 623,59"/></g><path style="stroke:black; fill:none;" d="M 820,-88 H 635 a 12,12 0 0,0 -12,12L 623,59"/><g><g><path style="stroke:#0ff; stroke-width:8px; fill:none; " opacity="0" d="M 820,-88 L 623,-88" onmousedown='segmousedown("279","0",evt);' onmouseover='segmouseover("279","0",evt);' onmouseout='segmouseout("279","0",evt);' onclick='segclick("279","0",evt);'/><path style="stroke:#0ff; stroke-width:8px; fill:none; " opacity="0" d="M 623,-88 L 623,59" onmousedown='segmousedown("279","1",evt);' onmouseover='segmouseover("279","1",evt);' onmouseout='segmouseout("279","1",evt);' onclick='segclick("279","1",evt);'/></g></g></g></g>
  <g id="nodes"><g id="258" onmousedown="nodemousedown(258,evt);" onmouseover="nodemouseover(258,evt);" onmouseout="nodemouseout(258,evt);" transform="translate(623,74)"><rect x="-21" y="-21" width="42" height="42" fill="#0ff" style="stroke:none; opacity:0.75;" display="none"/><rect x="-15" y="-15" width="30" height="30" fill="#f0f0d2" style="stroke:black; opacity:1;"/></g><g id="257" onmousedown="nodemousedown(257,evt);" onmouseover="nodemouseover(257,evt);" onmouseout="nodemouseout(257,evt);" transform="translate(534,164)"><rect x="-21" y="-21" width="42" height="42" fill="#0ff" style="stroke:none; opacity:0.75;" display="none"/><rect x="-15" y="-15" width="30" height="30" fill="#f0f0d2" style="stroke:black; opacity:1;"/></g><g id="256" onmousedown="nodemousedown(256,evt);" onmouseover="nodemouseover(256,evt);" onmouseout="nodemouseout(256,evt);" transform="translate(534,319)"><rect x="-27" y="-31.5" width="54" height="63" fill="#0ff" style="stroke:none; opacity:0.75;" display="none"/><rect x="-21" y="-25.5" width="42" height="51" fill="#f0f0d2" style="stroke:black; opacity:1;"/></g><g id="263" onmousedown="nodemousedown(263,evt);" onmouseover="nodemouseover(263,evt);" onmouseout="nodemouseout(263,evt);" transform="translate(739,78)"><rect x="-21" y="-34" width="42" height="68" fill="#0ff" style="stroke:none; opacity:0.75;" display="none"/><rect x="-15" y="-28" width="30" height="56" fill="#f0f0d2" style="stroke:black; opacity:1;"/></g><g id="264" onmousedown="nodemousedown(264,evt);" onmouseover="nodemouseover(264,evt);" onmouseout="nodemouseout(264,evt);" transform="translate(833,72)"><rect x="-21" y="-21" width="42" height="42" fill="#0ff" style="stroke:none; opacity:0.75;" display="none"/><rect x="-15" y="-15" width="30" height="30" fill="#f0f0d2" style="stroke:black; opacity:1;"/></g><g id="265" onmousedown="nodemousedown(265,evt);" onmouseover="nodemouseover(265,evt);" onmouseout="nodemouseout(265,evt);" transform="translate(835,-88)"><rect x="-21" y="-21" width="42" height="42" fill="#0ff" style="stroke:none; opacity:0.75;" display="none"/><rect x="-15" y="-15" width="30" height="30" fill="#f0f0d2" style="stroke:black; opacity:1;"/></g><g id="253" onmousedown="nodemousedown(253,evt);" onmouseover="nodemouseover(253,evt);" onmouseout="nodemouseout(253,evt);" transform="translate(366,80)"><rect x="-21" y="-21" width="42" height="42" fill="#0ff" style="stroke:none; opacity:0.75;" display="none"/><rect x="-15" y="-15" width="30" height="30" fill="#f0f0d2" style="stroke:black; opacity:1;"/></g><g id="254" onmousedown="nodemousedown(254,evt);" onmouseover="nodemouseover(254,evt);" onmouseout="nodemouseout(254,evt);" transform="translate(366,252)"><rect x="-32.5" y="-21" width="65" height="42" fill="#0ff" style="stroke:none; opacity:0.75;" display="none"/><rect x="-26.5" y="-15" width="53" height="30" fill="#f0f0d2" style="stroke:black; opacity:1;"/></g><g id="255" onmousedown="nodemousedown(255,evt);" onmouseover="nodemouseover(255,evt);" onmouseout="nodemouseout(255,evt);" transform="translate(366,403)"><rect x="-21" y="-21" width="42" height="42" fill="#0ff" style="stroke:none; opacity:0.75;" display="none"/><rect x="-15" y="-15" width="30" height="30" fill="#f0f0d2" style="stroke:black; opacity:1;"/></g><g id="259" onmousedown="nodemousedown(259,evt);" onmouseover="nodemouseover(259,evt);" onmouseout="nodemouseout(259,evt);" transform="translate(626,252)"><rect x="-21" y="-21" width="42" height="42" fill="#0ff" style="stroke:none; opacity:0.75;" display="none"/><rect x="-15" y="-15" width="30" height="30" fill="#f0f0d2" style="stroke:black; opacity:1;"/></g><g id="261" onmousedown="nodemousedown(261,evt);" onmouseover="nodemouseover(261,evt);" onmouseout="nodemouseout(261,evt);" transform="translate(628,389)"><rect x="-31" y="-21" width="62" height="42" fill="#0ff" style="stroke:none; opacity:0.75;" display="none"/><rect x="-25" y="-15" width="50" height="30" fill="#f0f0d2" style="stroke:black; opacity:1;"/></g><g id="262" onmousedown="nodemousedown(262,evt);" onmouseover="nodemouseover(262,evt);" onmouseout="nodemouseout(262,evt);" transform="translate(722,393)"><rect x="-21" y="-21" width="42" height="42" fill="#0ff" style="stroke:none; opacity:0.75;" display="none"/><rect x="-15" y="-15" width="30" height="30" fill="#f0f0d2" style="stroke:black; opacity:1;"/></g><g id="260" onmousedown="nodemousedown(260,evt);" onmouseover="nodemouseover(260,evt);" onmouseout="nodemouseout(260,evt);" transform="translate(628,544)"><rect x="-21" y="-21" width="42" height="42" fill="#0ff" style="stroke:none; opacity:0.75;" display="none"/><rect x="-15" y="-15" width="30" height="30" fill="#f0f0d2" style="stroke:black; opacity:1;"/></g></g>
  <g id="BPs"><g onmousedown="bpmousedown(373,evt);" onmouseover="bpmouseover(373,evt);" onmouseout="bpmouseout(373,evt);" transform="translate(618,168)" opacity="0"><ellipse cx="0" cy="0" rx="16" ry="16" fill="#0ff" style="stroke:none; opacity:0.75;" display="none"/><ellipse cx="0" cy="0" rx="16.491988979780434" ry="16.491988979780434" fill="#777" style="stroke:black;"/></g><g onmousedown="bpmousedown(374,evt);" onmouseover="bpmouseover(374,evt);" onmouseout="bpmouseout(374,evt);" transform="translate(628,75)" opacity="0"><ellipse cx="0" cy="0" rx="16" ry="16" fill="#0ff" style="stroke:none; opacity:0.75;" display="none"/><ellipse cx="0" cy="0" rx="16.491988979780434" ry="16.491988979780434" fill="#777" style="stroke:black;"/></g><g onmousedown="bpmousedown(405,evt);" onmouseover="bpmouseover(405,evt);" onmouseout="bpmouseout(405,evt);" transform="translate(534,405)" opacity="0"><ellipse cx="0" cy="0" rx="16" ry="16" fill="#0ff" style="stroke:none; opacity:0.75;" display="none"/><ellipse cx="0" cy="0" rx="16.491988979780434" ry="16.491988979780434" fill="#777" style="stroke:black;"/></g><g onmousedown="bpmousedown(414,evt);" onmouseover="bpmouseover(414,evt);" onmouseout="bpmouseout(414,evt);" transform="translate(623,-88)" opacity="0"><ellipse cx="0" cy="0" rx="16" ry="16" fill="#0ff" style="stroke:none; opacity:0.75;" display="none"/><ellipse cx="0" cy="0" rx="16.491988979780434" ry="16.491988979780434" fill="#777" style="stroke:black;"/></g></g>
  <g id="ports"/>
</g>
</svg>