<svg xmlns:xlink="http://www.w3.org/1999/xlink" xmlns="http://www.w3.org/2000/svg" height="270px" width="480px" id="SVGCanvas" onmouseup="" onmousemove="">
<rect fill="#bdbddf" width="100%" height="100%" y="0" x="0" id="background" onmousedown="bgmousedown(evt)"/>
<g id="foreground" transform="translate(17.21098265895955,0),scale(0.7803468208092486),translate(-192,-245)">
  <g id="edges"><g id="305"><path style="stroke:#bdbddf; stroke-width:8px; fill:none;" opacity="0.7" d="M 300,274L 530,274"/><g><path style="stroke:#ff0; stroke-width:8px; fill:none; " opacity="0" d="M 300,274L 530,274"/></g><path style="stroke:black; fill:none;" d="M 300,274L 530,274"/><g><g><path style="stroke:#0ff; stroke-width:8px; fill:none; " opacity="0" d="M 300,274 L 530,274" onmousedown='segmousedown("305","0",evt);' onmouseover='segmouseover("305","0",evt);' onmouseout='segmouseout("305","0",evt);' onclick='segclick("305","0",evt);'/></g></g></g><g id="306"><path style="stroke:#bdbddf; stroke-width:8px; fill:none;" opacity="0.7" d="M 530,280L 530,487"/><g><path style="stroke:#ff0; stroke-width:8px; fill:none; " opacity="0" d="M 530,280L 530,487"/></g><path style="stroke:black; fill:none;" d="M 530,280L 530,487"/><g><g><path style="stroke:#0ff; stroke-width:8px; fill:none; " opacity="0" d="M 530,280 L 530,487" onmousedown='segmousedown("306","0",evt);' onmouseover='segmouseover("306","0",evt);' onmouseout='segmouseout("306","0",evt);' onclick='segclick("306","0",evt);'/></g></g></g><g id="307"><path style="stroke:#bdbddf; stroke-width:8px; fill:none;" opacity="0.7" d="M 515,502L 403,502"/><g><path style="stroke:#ff0; stroke-width:8px; fill:none; " opacity="0" d="M 515,502L 403,502"/></g><path style="stroke:black; fill:none;" d="M 515,502L 403,502"/><g><g><path style="stroke:#0ff; stroke-width:8px; fill:none; " opacity="0" d="M 515,502 L 403,502" onmousedown='segmousedown("307","0",evt);' onmouseover='segmouseover("307","0",evt);' onmouseout='segmouseout("307","0",evt);' onclick='segclick("307","0",evt);'/></g></g></g><g id="308"><path style="stroke:#bdbddf; stroke-width:8px; fill:none;" opacity="0.7" d="M 403,502L 300,502"/><g><path style="stroke:#ff0; stroke-width:8px; fill:none; " opacity="0" d="M 403,502L 300,502"/></g><path style="stroke:black; fill:none;" d="M 403,502L 300,502"/><g><g><path style="stroke:#0ff; stroke-width:8px; fill:none; " opacity="0" d="M 403,502 L 300,502" onmousedown='segmousedown("308","0",evt);' onmouseover='segmouseover("308","0",evt);' onmouseout='segmouseout("308","0",evt);' onclick='segclick("308","0",evt);'/></g></g></g><g id="309"><path style="stroke:#bdbddf; stroke-width:8px; fill:none;" opacity="0.7" d="M 285,487L 285,416"/><g><path style="stroke:#ff0; stroke-width:8px; fill:none; " opacity="0" d="M 285,487L 285,416"/></g><path style="stroke:black; fill:none;" d="M 285,487L 285,416"/><g><g><path style="stroke:#0ff; stroke-width:8px; fill:none; " opacity="0" d="M 285,487 L 285,416" onmousedown='segmousedown("309","0",evt);' onmouseover='segmouseover("309","0",evt);' onmouseout='segmouseout("309","0",evt);' onclick='segclick("309","0",evt);'/></g></g></g><g id="310"><path style="stroke:#bdbddf; stroke-width:8px; fill:none;" opacity="0.7" d="M 285,386L 285,295"/><g><path style="stroke:#ff0; stroke-width:8px; fill:none; " opacity="0" d="M 285,386L 285,295"/></g><path style="stroke:black; fill:none;" d="M 285,386L 285,295"/><g><g><path style="stroke:#0ff; stroke-width:8px; fill:none; " opacity="0" d="M 285,386 L 285,295" onmousedown='segmousedown("310","0",evt);' onmouseover='segmouseover("310","0",evt);' onmouseout='segmouseout("310","0",evt);' onclick='segclick("310","0",evt);'/></g></g></g><g id="311"><path style="stroke:#bdbddf; stroke-width:8px; fill:none;" opacity="0.7" d="M 270,401 H 234 a 12,12 0 0,0 -12,12L 222,546"/><g><path style="stroke:#ff0; stroke-width:8px; fill:none; " opacity="0" d="M 270,401 H 234 a 12,12 0 0,0 -12,12L 222,546"/></g><path style="stroke:black; fill:none;" d="M 270,401 H 234 a 12,12 0 0,0 -12,12L 222,546"/><g><g><path style="stroke:#0ff; stroke-width:8px; fill:none; " opacity="0" d="M 270,401 L 222,401" onmousedown='segmousedown("311","0",evt);' onmouseover='segmouseover("311","0",evt);' onmouseout='segmouseout("311","0",evt);' onclick='segclick("311","0",evt);'/><path style="stroke:#0ff; stroke-width:8px; fill:none; " opacity="0" d="M 222,401 L 222,546" onmousedown='segmousedown("311","1",evt);' onmouseover='segmouseover("311","1",evt);' onmouseout='segmouseout("311","1",evt);' onclick='segclick("311","1",evt);'/></g></g></g><g id="312"><path style="stroke:#bdbddf; stroke-width:8px; fill:none;" opacity="0.7" d="M 651,290L 651,352"/><g><path style="stroke:#ff0; stroke-width:8px; fill:none; " opacity="0" d="M 651,290L 651,352"/></g><path style="stroke:black; fill:none;" d="M 651,290L 651,352"/><g><g><path style="stroke:#0ff; stroke-width:8px; fill:none; " opacity="0" d="M 651,290 L 651,352" onmousedown='segmousedown("312","0",evt);' onmouseover='segmouseover("312","0",evt);' onmouseout='segmouseout("312","0",evt);' onclick='segclick("312","0",evt);'/></g></g></g><g id="313"><path style="stroke:#bdbddf; stroke-width:8px; fill:none;" opacity="0.7" d="M 666,367 H 674.5 a 8.5,8.5 0 0,1 8.5,8.5L 683,470"/><g><path style="stroke:#ff0; stroke-width:8px; fill:none; " opacity="0" d="M 666,367 H 674.5 a 8.5,8.5 0 0,1 8.5,8.5L 683,470"/></g><path style="stroke:black; fill:none;" d="M 666,367 H 674.5 a 8.5,8.5 0 0,1 8.5,8.5L 683,470"/><g><g><path style="stroke:#0ff; stroke-width:8px; fill:none; " opacity="0" d="M 666,367 L 683,367" onmousedown='segmousedown("313","0",evt);' onmouseover='segmouseover("313","0",evt);' onmouseout='segmouseout("313","0",evt);' onclick='segclick("313","0",evt);'/><path style="stroke:#0ff; stroke-width:8px; fill:none; " opacity="0" d="M 683,367 L 683,470" onmousedown='segmousedown("313","1",evt);' onmouseover='segmouseover("313","1",evt);' onmouseout='segmouseout("313","1",evt);' onclick='segclick("313","1",evt);'/></g></g></g><g id="314"><path style="stroke:#bdbddf; stroke-width:8px; fill:none;" opacity="0.7" d="M 651,290 V 304 a 12,12 0 0,0 12,12 H 721 a 12,12 0 0,1 12,12L 733,353"/><g><path style="stroke:#ff0; stroke-width:8px; fill:none; " opacity="0" d="M 651,290 V 304 a 12,12 0 0,0 12,12 H 721 a 12,12 0 0,1 12,12L 733,353"/></g><path style="stroke:black; fill:none;" d="M 651,290 V 304 a 12,12 0 0,0 12,12 H 721 a 12,12 0 0,1 12,12L 733,353"/><g><g><path style="stroke:#0ff; stroke-width:8px; fill:none; " opacity="0" d="M 651,290 L 651,316" onmousedown='segmousedown("314","0",evt);' onmouseover='segmouseover("314","0",evt);' onmouseout='segmouseout("314","0",evt);' onclick='segclick("314","0",evt);'/><path style="stroke:#0ff; stroke-width:8px; fill:none; " opacity="0" d="M 651,316 L 733,316" onmousedown='segmousedown("314","1",evt);' onmouseover='segmouseover("314","1",evt);' onmouseout='segmouseout("314","1",evt);' onclick='segclick("314","1",evt);'/><path style="stroke:#0ff; stroke-width:8px; fill:none; " opacity="0" d="M 733,316 L 733,353" onmousedown='segmousedown("314","2",evt);' onmouseover='segmouseover("314","2",evt);' onmouseout='segmouseout("314","2",evt);' onclick='segclick("314","2",evt);'/></g></g></g><g id="315"><path style="stroke:#bdbddf; stroke-width:8px; fill:none;" opacity="0.7" d="M 545,275L 636,275"/><g><path style="stroke:#ff0; stroke-width:8px; fill:none; " opacity="0" d="M 545,275L 636,275"/></g><path style="stroke:black; fill:none;" d="M 545,275L 636,275"/><g><g><path style="stroke:#0ff; stroke-width:8px; fill:none; " opacity="0" d="M 545,275 L 636,275" onmousedown='segmousedown("315","0",evt);' onmouseover='segmouseover("315","0",evt);' onmouseout='segmouseout("315","0",evt);' onclick='segclick("315","0",evt);'/></g></g></g><g id="316"><path style="stroke:#bdbddf; stroke-width:8px; fill:none;" opacity="0.7" d="M 237,561 H 392 a 12,12 0 0,0 12,-12L 404,517"/><g><path style="stroke:#ff0; stroke-width:8px; fill:none; " opacity="0" d="M 237,561 H 392 a 12,12 0 0,0 12,-12L 404,517"/></g><path style="stroke:black; fill:none;" d="M 237,561 H 392 a 12,12 0 0,0 12,-12L 404,517"/><g><g><path style="stroke:#0ff; stroke-width:8px; fill:none; " opacity="0" d="M 237,561 L 404,561" onmousedown='segmousedown("316","0",evt);' onmouseover='segmouseover("316","0",evt);' onmouseout='segmouseout("316","0",evt);' onclick='segclick("316","0",evt);'/><path style="stroke:#0ff; stroke-width:8px; fill:none; " opacity="0" d="M 404,561 L 404,517" onmousedown='segmousedown("316","1",evt);' onmouseover='segmouseover("316","1",evt);' onmouseout='segmouseout("316","1",evt);' onclick='segclick("316","1",evt);'/></g></g></g><g id="317"><path style="stroke:#bdbddf; stroke-width:8px; fill:none;" opacity="0.7" d="M 636,357 H 625.5 a 10.5,10.5 0 0,0 -10.5,10.5L 615,469"/><g><path style="stroke:#ff0; stroke-width:8px; fill:none; " opacity="0" d="M 636,357 H 625.5 a 10.5,10.5 0 0,0 -10.5,10.5L 615,469"/></g><path style="stroke:black; fill:none;" d="M 636,357 H 625.5 a 10.5,10.5 0 0,0 -10.5,10.5L 615,469"/><g><g><path style="stroke:#0ff; stroke-width:8px; fill:none; " opacity="0" d="M 636,357 L 615,357" onmousedown='segmousedown("317","0",evt);' onmouseover='segmouseover("317","0",evt);' onmouseout='segmouseout("317","0",evt);' onclick='segclick("317","0",evt);'/><path style="stroke:#0ff; stroke-width:8px; fill:none; " opacity="0" d="M 615,357 L 615,469" onmousedown='segmousedown("317","1",evt);' onmouseover='segmouseover("317","1",evt);' onmouseout='segmouseout("317","1",evt);' onclick='segclick("317","1",evt);'/></g></g></g></g>
  <g id="nodes"><g id="294" onmousedown="nodemousedown(294,evt);" onmouseover="nodemouseover(294,evt);" onmouseout="nodemouseout(294,evt);" transform="translate(530 280)"><rect x="-21" y="-21" width="42" height="42" fill="#0ff" style="stroke:none; opacity:0.75;" display="none"/><rect x="-15" y="-15" width="30" height="30" fill="#f0f0d2" style="stroke:black; opacity:1;"/></g><g id="300" onmousedown="nodemousedown(300,evt);" onmouseover="nodemouseover(300,evt);" onmouseout="nodemouseout(300,evt);" transform="translate(651,275)"><rect x="-21" y="-21" width="42" height="42" fill="#0ff" style="stroke:none; opacity:0.75;" display="none"/><rect x="-15" y="-15" width="30" height="30" fill="#f0f0d2" style="stroke:black; opacity:1;"/></g><g id="304" onmousedown="nodemousedown(304,evt);" onmouseover="nodemouseover(304,evt);" onmouseout="nodemouseout(304,evt);" transform="translate(621,484)"><rect x="-21" y="-21" width="42" height="42" fill="#0ff" style="stroke:none; opacity:0.75;" display="none"/><rect x="-15" y="-15" width="30" height="30" fill="#f0f0d2" style="stroke:black; opacity:1;"/></g><g id="303" onmousedown="nodemousedown(303,evt);" onmouseover="nodemouseover(303,evt);" onmouseout="nodemouseout(303,evt);" transform="translate(683,485)"><rect x="-21" y="-21" width="42" height="42" fill="#0ff" style="stroke:none; opacity:0.75;" display="none"/><rect x="-15" y="-15" width="30" height="30" fill="#f0f0d2" style="stroke:black; opacity:1;"/></g><g id="302" onmousedown="nodemousedown(302,evt);" onmouseover="nodemouseover(302,evt);" onmouseout="nodemouseout(302,evt);" transform="translate(651,367)"><rect x="-21" y="-21" width="42" height="42" fill="#0ff" style="stroke:none; opacity:0.75;" display="none"/><rect x="-15" y="-15" width="30" height="30" fill="#f0f0d2" style="stroke:black; opacity:1;"/></g><g id="301" onmousedown="nodemousedown(301,evt);" onmouseover="nodemouseover(301,evt);" onmouseout="nodemouseout(301,evt);" transform="translate(733,368)"><rect x="-21" y="-21" width="42" height="42" fill="#0ff" style="stroke:none; opacity:0.75;" display="none"/><rect x="-15" y="-15" width="30" height="30" fill="#f0f0d2" style="stroke:black; opacity:1;"/></g><g id="296" onmousedown="nodemousedown(296,evt);" onmouseover="nodemouseover(296,evt);" onmouseout="nodemouseout(296,evt);" transform="translate(530,502)"><rect x="-21" y="-21" width="42" height="42" fill="#0ff" style="stroke:none; opacity:0.75;" display="none"/><rect x="-15" y="-15" width="30" height="30" fill="#f0f0d2" style="stroke:black; opacity:1;"/></g><g id="299" onmousedown="nodemousedown(299,evt);" onmouseover="nodemouseover(299,evt);" onmouseout="nodemouseout(299,evt);" transform="translate(403,502)"><rect x="-21" y="-21" width="42" height="42" fill="#0ff" style="stroke:none; opacity:0.75;" display="none"/><rect x="-15" y="-15" width="30" height="30" fill="#f0f0d2" style="stroke:black; opacity:1;"/></g><g id="295" onmousedown="nodemousedown(295,evt);" onmouseover="nodemouseover(295,evt);" onmouseout="nodemouseout(295,evt);" transform="translate(285,502)"><rect x="-21" y="-21" width="42" height="42" fill="#0ff" style="stroke:none; opacity:0.75;" display="none"/><rect x="-15" y="-15" width="30" height="30" fill="#f0f0d2" style="stroke:black; opacity:1;"/></g><g id="297" onmousedown="nodemousedown(297,evt);" onmouseover="nodemouseover(297,evt);" onmouseout="nodemouseout(297,evt);" transform="translate(285,401)"><rect x="-21" y="-21" width="42" height="42" fill="#0ff" style="stroke:none; opacity:0.75;" display="none"/><rect x="-15" y="-15" width="30" height="30" fill="#f0f0d2" style="stroke:black; opacity:1;"/></g><g id="293" onmousedown="nodemousedown(293,evt);" onmouseover="nodemouseover(293,evt);" onmouseout="nodemouseout(293,evt);" transform="translate(285,280)"><rect x="-21" y="-21" width="42" height="42" fill="#0ff" style="stroke:none; opacity:0.75;" display="none"/><rect x="-15" y="-15" width="30" height="30" fill="#f0f0d2" style="stroke:black; opacity:1;"/></g><g id="298" onmousedown="nodemousedown(298,evt);" onmouseover="nodemouseover(298,evt);" onmouseout="nodemouseout(298,evt);" transform="translate(222,561)"><rect x="-21" y="-21" width="42" height="42" fill="#0ff" style="stroke:none; opacity:0.75;" display="none"/><rect x="-15" y="-15" width="30" height="30" fill="#f0f0d2" style="stroke:black; opacity:1;"/></g></g>
  <g id="BPs"><g onmousedown="bpmousedown(348,evt);" onmouseover="bpmouseover(348,evt);" onmouseout="bpmouseout(348,evt);" transform="translate(683,367)" opacity="0"><ellipse cx="0" cy="0" rx="16" ry="16" fill="#0ff" style="stroke:none; opacity:0.75;" display="none"/><ellipse cx="0" cy="0" rx="5.578466012364801" ry="5.578466012364801" fill="#777" style="stroke:black;"/></g><g onmousedown="bpmousedown(362,evt);" onmouseover="bpmouseover(362,evt);" onmouseout="bpmouseout(362,evt);" transform="translate(222,401)" opacity="0"><ellipse cx="0" cy="0" rx="16" ry="16" fill="#0ff" style="stroke:none; opacity:0.75;" display="none"/><ellipse cx="0" cy="0" rx="9.200000000000003" ry="9.200000000000003" fill="#777" style="stroke:black;"/></g><g onmousedown="bpmousedown(365,evt);" onmouseover="bpmouseover(365,evt);" onmouseout="bpmouseout(365,evt);" transform="translate(404,561)" opacity="0"><ellipse cx="0" cy="0" rx="16" ry="16" fill="#0ff" style="stroke:none; opacity:0.75;" display="none"/><ellipse cx="0" cy="0" rx="9.200000000000003" ry="9.200000000000003" fill="#777" style="stroke:black;"/></g><g onmousedown="bpmousedown(373,evt);" onmouseover="bpmouseover(373,evt);" onmouseout="bpmouseout(373,evt);" transform="translate(615,357)" opacity="0"><ellipse cx="0" cy="0" rx="16" ry="16" fill="#0ff" style="stroke:none; opacity:0.75;" display="none"/><ellipse cx="0" cy="0" rx="5.578466012364801" ry="5.578466012364801" fill="#777" style="stroke:black;"/></g><g onmousedown="bpmousedown(378,evt);" onmouseover="bpmouseover(378,evt);" onmouseout="bpmouseout(378,evt);" transform="translate(651,316)" opacity="0"><ellipse cx="0" cy="0" rx="16" ry="16" fill="#0ff" style="stroke:none; opacity:0.75;" display="none"/><ellipse cx="0" cy="0" rx="5.578466012364801" ry="5.578466012364801" fill="#777" style="stroke:black;"/></g><g onmousedown="bpmousedown(379,evt);" onmouseover="bpmouseover(379,evt);" onmouseout="bpmouseout(379,evt);" transform="translate(733,316)" opacity="0"><ellipse cx="0" cy="0" rx="16" ry="16" fill="#0ff" style="stroke:none; opacity:0.75;" display="none"/><ellipse cx="0" cy="0" rx="5.578466012364801" ry="5.578466012364801" fill="#777" style="stroke:black;"/></g></g>
  <g id="ports"/>
</g>
</svg>