<svg xmlns:xlink="http://www.w3.org/1999/xlink" xmlns="http://www.w3.org/2000/svg" height="270px" width="480px" id="SVGCanvas" onmouseup="" onmousemove="">
<rect fill="#bdbddf" width="100%" height="100%" y="0" x="0" id="background" onmousedown="bgmousedown(evt)"/>
<g id="foreground" transform="translate(25.883720930232556,0),scale(1.255813953488372),translate(-231,-74)">
  <g id="edges"><g id="201"><path style="stroke:#bdbddf; stroke-width:8px; fill:none;" opacity="0.7" d="M 419,104 H 474 a 12,12 0 0,1 12,12L 486,152"/><g><path style="stroke:#ff0; stroke-width:8px; fill:none; " opacity="0" d="M 419,104 H 474 a 12,12 0 0,1 12,12L 486,152"/></g><path style="stroke:black; fill:none;" d="M 419,104 H 474 a 12,12 0 0,1 12,12L 486,152"/><g><g><path style="stroke:#0ff; stroke-width:8px; fill:none; " opacity="0" d="M 419,104 L 486,104" onmousedown='segmousedown("201","0",evt);' onmouseover='segmouseover("201","0",evt);' onmouseout='segmouseout("201","0",evt);' onclick='segclick("201","0",evt);'/><path style="stroke:#0ff; stroke-width:8px; fill:none; " opacity="0" d="M 486,104 L 486,152" onmousedown='segmousedown("201","1",evt);' onmouseover='segmouseover("201","1",evt);' onmouseout='segmouseout("201","1",evt);' onclick='segclick("201","1",evt);'/></g></g></g><g id="202"><path style="stroke:#bdbddf; stroke-width:8px; fill:none;" opacity="0.7" d="M 389,104 H 331 a 12,12 0 0,0 -12,12L 319,149"/><g><path style="stroke:#ff0; stroke-width:8px; fill:none; " opacity="0" d="M 389,104 H 331 a 12,12 0 0,0 -12,12L 319,149"/></g><path style="stroke:black; fill:none;" d="M 389,104 H 331 a 12,12 0 0,0 -12,12L 319,149"/><g><g><path style="stroke:#0ff; stroke-width:8px; fill:none; " opacity="0" d="M 389,104 L 319,104" onmousedown='segmousedown("202","0",evt);' onmouseover='segmouseover("202","0",evt);' onmouseout='segmouseout("202","0",evt);' onclick='segclick("202","0",evt);'/><path style="stroke:#0ff; stroke-width:8px; fill:none; " opacity="0" d="M 319,104 L 319,149" onmousedown='segmousedown("202","1",evt);' onmouseover='segmouseover("202","1",evt);' onmouseout='segmouseout("202","1",evt);' onclick='segclick("202","1",evt);'/></g></g></g><g id="203"><path style="stroke:#bdbddf; stroke-width:8px; fill:none;" opacity="0.7" d="M 501,167 H 530 a 12,12 0 0,1 12,12L 542,244"/><g><path style="stroke:#ff0; stroke-width:8px; fill:none; " opacity="0" d="M 501,167 H 530 a 12,12 0 0,1 12,12L 542,244"/></g><path style="stroke:black; fill:none;" d="M 501,167 H 530 a 12,12 0 0,1 12,12L 542,244"/><g><g><path style="stroke:#0ff; stroke-width:8px; fill:none; " opacity="0" d="M 501,167 L 542,167" onmousedown='segmousedown("203","0",evt);' onmouseover='segmouseover("203","0",evt);' onmouseout='segmouseout("203","0",evt);' onclick='segclick("203","0",evt);'/><path style="stroke:#0ff; stroke-width:8px; fill:none; " opacity="0" d="M 542,167 L 542,244" onmousedown='segmousedown("203","1",evt);' onmouseover='segmouseover("203","1",evt);' onmouseout='segmouseout("203","1",evt);' onclick='segclick("203","1",evt);'/></g></g></g><g id="204"><path style="stroke:#bdbddf; stroke-width:8px; fill:none;" opacity="0.7" d="M 471,166 H 453 a 12,12 0 0,0 -12,12L 441,242"/><g><path style="stroke:#ff0; stroke-width:8px; fill:none; " opacity="0" d="M 471,166 H 453 a 12,12 0 0,0 -12,12L 441,242"/></g><path style="stroke:black; fill:none;" d="M 471,166 H 453 a 12,12 0 0,0 -12,12L 441,242"/><g><g><path style="stroke:#0ff; stroke-width:8px; fill:none; " opacity="0" d="M 471,166 L 441,166" onmousedown='segmousedown("204","0",evt);' onmouseover='segmouseover("204","0",evt);' onmouseout='segmouseout("204","0",evt);' onclick='segclick("204","0",evt);'/><path style="stroke:#0ff; stroke-width:8px; fill:none; " opacity="0" d="M 441,166 L 441,242" onmousedown='segmousedown("204","1",evt);' onmouseover='segmouseover("204","1",evt);' onmouseout='segmouseout("204","1",evt);' onclick='segclick("204","1",evt);'/></g></g></g><g id="205"><path style="stroke:#bdbddf; stroke-width:8px; fill:none;" opacity="0.7" d="M 334,164 H 369 a 12,12 0 0,1 12,12L 381,241"/><g><path style="stroke:#ff0; stroke-width:8px; fill:none; " opacity="0" d="M 334,164 H 369 a 12,12 0 0,1 12,12L 381,241"/></g><path style="stroke:black; fill:none;" d="M 334,164 H 369 a 12,12 0 0,1 12,12L 381,241"/><g><g><path style="stroke:#0ff; stroke-width:8px; fill:none; " opacity="0" d="M 334,164 L 381,164" onmousedown='segmousedown("205","0",evt);' onmouseover='segmouseover("205","0",evt);' onmouseout='segmouseout("205","0",evt);' onclick='segclick("205","0",evt);'/><path style="stroke:#0ff; stroke-width:8px; fill:none; " opacity="0" d="M 381,164 L 381,241" onmousedown='segmousedown("205","1",evt);' onmouseover='segmouseover("205","1",evt);' onmouseout='segmouseout("205","1",evt);' onclick='segclick("205","1",evt);'/></g></g></g><g id="206"><path style="stroke:#bdbddf; stroke-width:8px; fill:none;" opacity="0.7" d="M 304,164 H 273 a 12,12 0 0,0 -12,12L 261,236"/><g><path style="stroke:#ff0; stroke-width:8px; fill:none; " opacity="0" d="M 304,164 H 273 a 12,12 0 0,0 -12,12L 261,236"/></g><path style="stroke:black; fill:none;" d="M 304,164 H 273 a 12,12 0 0,0 -12,12L 261,236"/><g><g><path style="stroke:#0ff; stroke-width:8px; fill:none; " opacity="0" d="M 304,164 L 261,164" onmousedown='segmousedown("206","0",evt);' onmouseover='segmouseover("206","0",evt);' onmouseout='segmouseout("206","0",evt);' onclick='segclick("206","0",evt);'/><path style="stroke:#0ff; stroke-width:8px; fill:none; " opacity="0" d="M 261,164 L 261,236" onmousedown='segmousedown("206","1",evt);' onmouseover='segmouseover("206","1",evt);' onmouseout='segmouseout("206","1",evt);' onclick='segclick("206","1",evt);'/></g></g></g></g>
  <g id="nodes"><g id="194" onmousedown="nodemousedown(194,evt);" onmouseover="nodemouseover(194,evt);" onmouseout="nodemouseout(194,evt);" transform="translate(404,104)"><rect x="-21" y="-21" width="42" height="42" fill="#0ff" style="stroke:none; opacity:0.75;" display="none"/><rect x="-15" y="-15" width="30" height="30" fill="#f0f0d2" style="stroke:black; opacity:1;"/></g><g id="196" onmousedown="nodemousedown(196,evt);" onmouseover="nodemouseover(196,evt);" onmouseout="nodemouseout(196,evt);" transform="translate(319,164)"><rect x="-21" y="-21" width="42" height="42" fill="#0ff" style="stroke:none; opacity:0.75;" display="none"/><rect x="-15" y="-15" width="30" height="30" fill="#f0f0d2" style="stroke:black; opacity:1;"/></g><g id="200" onmousedown="nodemousedown(200,evt);" onmouseover="nodemouseover(200,evt);" onmouseout="nodemouseout(200,evt);" transform="translate(261,251)"><rect x="-21" y="-21" width="42" height="42" fill="#0ff" style="stroke:none; opacity:0.75;" display="none"/><rect x="-15" y="-15" width="30" height="30" fill="#f0f0d2" style="stroke:black; opacity:1;"/></g><g id="199" onmousedown="nodemousedown(199,evt);" onmouseover="nodemouseover(199,evt);" onmouseout="nodemouseout(199,evt);" transform="translate(381,256)"><rect x="-21" y="-21" width="42" height="42" fill="#0ff" style="stroke:none; opacity:0.75;" display="none"/><rect x="-15" y="-15" width="30" height="30" fill="#f0f0d2" style="stroke:black; opacity:1;"/></g><g id="195" onmousedown="nodemousedown(195,evt);" onmouseover="nodemouseover(195,evt);" onmouseout="nodemouseout(195,evt);" transform="translate(486,167)"><rect x="-21" y="-21" width="42" height="42" fill="#0ff" style="stroke:none; opacity:0.75;" display="none"/><rect x="-15" y="-15" width="30" height="30" fill="#f0f0d2" style="stroke:black; opacity:1;"/></g><g id="198" onmousedown="nodemousedown(198,evt);" onmouseover="nodemouseover(198,evt);" onmouseout="nodemouseout(198,evt);" transform="translate(441,257)"><rect x="-21" y="-21" width="42" height="42" fill="#0ff" style="stroke:none; opacity:0.75;" display="none"/><rect x="-15" y="-15" width="30" height="30" fill="#f0f0d2" style="stroke:black; opacity:1;"/></g><g id="197" onmousedown="nodemousedown(197,evt);" onmouseover="nodemouseover(197,evt);" onmouseout="nodemouseout(197,evt);" transform="translate(542,259)"><rect x="-21" y="-21" width="42" height="42" fill="#0ff" style="stroke:none; opacity:0.75;" display="none"/><rect x="-15" y="-15" width="30" height="30" fill="#f0f0d2" style="stroke:black; opacity:1;"/></g></g>
  <g id="BPs"><g onmousedown="bpmousedown(228,evt);" onmouseover="bpmouseover(228,evt);" onmouseout="bpmouseout(228,evt);" transform="translate(381,164)" opacity="0"><ellipse cx="0" cy="0" rx="16" ry="16" fill="#0ff" style="stroke:none; opacity:0.75;" display="none"/><ellipse cx="0" cy="0" rx="7.163929600000001" ry="7.163929600000001" fill="#777" style="stroke:black;"/></g><g onmousedown="bpmousedown(230,evt);" onmouseover="bpmouseover(230,evt);" onmouseout="bpmouseout(230,evt);" transform="translate(261,164)" opacity="0"><ellipse cx="0" cy="0" rx="16" ry="16" fill="#0ff" style="stroke:none; opacity:0.75;" display="none"/><ellipse cx="0" cy="0" rx="7.163929600000001" ry="7.163929600000001" fill="#777" style="stroke:black;"/></g><g onmousedown="bpmousedown(233,evt);" onmouseover="bpmouseover(233,evt);" onmouseout="bpmouseout(233,evt);" transform="translate(319,104)" opacity="0"><ellipse cx="0" cy="0" rx="16" ry="16" fill="#0ff" style="stroke:none; opacity:0.75;" display="none"/><ellipse cx="0" cy="0" rx="7.163929600000001" ry="7.163929600000001" fill="#777" style="stroke:black;"/></g><g onmousedown="bpmousedown(235,evt);" onmouseover="bpmouseover(235,evt);" onmouseout="bpmouseout(235,evt);" transform="translate(486,104)" opacity="0"><ellipse cx="0" cy="0" rx="16" ry="16" fill="#0ff" style="stroke:none; opacity:0.75;" display="none"/><ellipse cx="0" cy="0" rx="7.163929600000001" ry="7.163929600000001" fill="#777" style="stroke:black;"/></g><g onmousedown="bpmousedown(237,evt);" onmouseover="bpmouseover(237,evt);" onmouseout="bpmouseout(237,evt);" transform="translate(542,167)" opacity="0"><ellipse cx="0" cy="0" rx="16" ry="16" fill="#0ff" style="stroke:none; opacity:0.75;" display="none"/><ellipse cx="0" cy="0" rx="7.163929600000001" ry="7.163929600000001" fill="#777" style="stroke:black;"/></g><g onmousedown="bpmousedown(240,evt);" onmouseover="bpmouseover(240,evt);" onmouseout="bpmouseout(240,evt);" transform="translate(441,166)" opacity="0"><ellipse cx="0" cy="0" rx="16" ry="16" fill="#0ff" style="stroke:none; opacity:0.75;" display="none"/><ellipse cx="0" cy="0" rx="7.163929600000001" ry="7.163929600000001" fill="#777" style="stroke:black;"/></g></g>
  <g id="ports"/>
</g>
</svg>