<svg xmlns:xlink="http://www.w3.org/1999/xlink" xmlns="http://www.w3.org/2000/svg" height="270px" width="480px" id="SVGCanvas" onmouseup="" onmousemove="">
<rect fill="#bdbddf" width="100%" height="100%" y="0" x="0" id="background" onmousedown="bgmousedown(evt)"/>
<g id="foreground" transform="translate(0,3.579310344827576),scale(0.6620689655172414),translate(-100,-166)">
  <g id="edges"><g id="305"><path style="stroke:#bdbddf; stroke-width:8px; fill:none;" opacity="0.7" d="M 130,274L 530,274"/><g><path style="stroke:#ff0; stroke-width:8px; fill:none; " opacity="0" d="M 130,274L 530,274"/></g><path style="stroke:black; fill:none;" d="M 130,274L 530,274"/><g><g><path style="stroke:#0ff; stroke-width:8px; fill:none; " opacity="0" d="M 130,274 L 530,274" onmousedown='segmousedown("305","0",evt);' onmouseover='segmouseover("305","0",evt);' onmouseout='segmouseout("305","0",evt);' onclick='segclick("305","0",evt);'/></g></g></g><g id="306"><path style="stroke:#bdbddf; stroke-width:8px; fill:none;" opacity="0.7" d="M 530,280L 530,518"/><g><path style="stroke:#ff0; stroke-width:8px; fill:none; " opacity="0" d="M 530,280L 530,518"/></g><path style="stroke:black; fill:none;" d="M 530,280L 530,518"/><g><g><path style="stroke:#0ff; stroke-width:8px; fill:none; " opacity="0" d="M 530,280 L 530,518" onmousedown='segmousedown("306","0",evt);' onmouseover='segmouseover("306","0",evt);' onmouseout='segmouseout("306","0",evt);' onclick='segclick("306","0",evt);'/></g></g></g><g id="307"><path style="stroke:#bdbddf; stroke-width:8px; fill:none;" opacity="0.7" d="M 515,533L 368,533"/><g><path style="stroke:#ff0; stroke-width:8px; fill:none; " opacity="0" d="M 515,533L 368,533"/></g><path style="stroke:black; fill:none;" d="M 515,533L 368,533"/><g><g><path style="stroke:#0ff; stroke-width:8px; fill:none; " opacity="0" d="M 515,533 L 368,533" onmousedown='segmousedown("307","0",evt);' onmouseover='segmouseover("307","0",evt);' onmouseout='segmouseout("307","0",evt);' onclick='segclick("307","0",evt);'/></g></g></g><g id="308"><path style="stroke:#bdbddf; stroke-width:8px; fill:none;" opacity="0.7" d="M 338,533L 145,533"/><g><path style="stroke:#ff0; stroke-width:8px; fill:none; " opacity="0" d="M 338,533L 145,533"/></g><path style="stroke:black; fill:none;" d="M 338,533L 145,533"/><g><g><path style="stroke:#0ff; stroke-width:8px; fill:none; " opacity="0" d="M 338,533 L 145,533" onmousedown='segmousedown("308","0",evt);' onmouseover='segmouseover("308","0",evt);' onmouseout='segmouseout("308","0",evt);' onclick='segclick("308","0",evt);'/></g></g></g><g id="309"><path style="stroke:#bdbddf; stroke-width:8px; fill:none;" opacity="0.7" d="M 130,518L 130,418"/><g><path style="stroke:#ff0; stroke-width:8px; fill:none; " opacity="0" d="M 130,518L 130,418"/></g><path style="stroke:black; fill:none;" d="M 130,518L 130,418"/><g><g><path style="stroke:#0ff; stroke-width:8px; fill:none; " opacity="0" d="M 130,518 L 130,418" onmousedown='segmousedown("309","0",evt);' onmouseover='segmouseover("309","0",evt);' onmouseout='segmouseout("309","0",evt);' onclick='segclick("309","0",evt);'/></g></g></g><g id="310"><path style="stroke:#bdbddf; stroke-width:8px; fill:none;" opacity="0.7" d="M 130,388L 130,295"/><g><path style="stroke:#ff0; stroke-width:8px; fill:none; " opacity="0" d="M 130,388L 130,295"/></g><path style="stroke:black; fill:none;" d="M 130,388L 130,295"/><g><g><path style="stroke:#0ff; stroke-width:8px; fill:none; " opacity="0" d="M 130,388 L 130,295" onmousedown='segmousedown("310","0",evt);' onmouseover='segmouseover("310","0",evt);' onmouseout='segmouseout("310","0",evt);' onclick='segclick("310","0",evt);'/></g></g></g><g id="311"><path style="stroke:#bdbddf; stroke-width:8px; fill:none;" opacity="0.7" d="M 130,403L 354,403"/><g><path style="stroke:#ff0; stroke-width:8px; fill:none; " opacity="0" d="M 130,403L 354,403"/></g><path style="stroke:black; fill:none;" d="M 130,403L 354,403"/><g><g><path style="stroke:#0ff; stroke-width:8px; fill:none; " opacity="0" d="M 130,403 L 354,403" onmousedown='segmousedown("311","0",evt);' onmouseover='segmouseover("311","0",evt);' onmouseout='segmouseout("311","0",evt);' onclick='segclick("311","0",evt);'/></g></g></g><g id="312"><path style="stroke:#bdbddf; stroke-width:8px; fill:none;" opacity="0.7" d="M 633,252 V 300 a 12,12 0 0,0 12,12L 709,312"/><g><path style="stroke:#ff0; stroke-width:8px; fill:none; " opacity="0" d="M 633,252 V 300 a 12,12 0 0,0 12,12L 709,312"/></g><path style="stroke:black; fill:none;" d="M 633,252 V 300 a 12,12 0 0,0 12,12L 709,312"/><g><g><path style="stroke:#0ff; stroke-width:8px; fill:none; " opacity="0" d="M 633,252 L 633,312" onmousedown='segmousedown("312","0",evt);' onmouseover='segmouseover("312","0",evt);' onmouseout='segmouseout("312","0",evt);' onclick='segclick("312","0",evt);'/><path style="stroke:#0ff; stroke-width:8px; fill:none; " opacity="0" d="M 633,312 L 709,312" onmousedown='segmousedown("312","1",evt);' onmouseover='segmouseover("312","1",evt);' onmouseout='segmouseout("312","1",evt);' onclick='segclick("312","1",evt);'/></g></g></g><g id="313"><path style="stroke:#bdbddf; stroke-width:8px; fill:none;" opacity="0.7" d="M 724,327 V 353 a 12,12 0 0,0 12,12L 780,365"/><g><path style="stroke:#ff0; stroke-width:8px; fill:none; " opacity="0" d="M 724,327 V 353 a 12,12 0 0,0 12,12L 780,365"/></g><path style="stroke:black; fill:none;" d="M 724,327 V 353 a 12,12 0 0,0 12,12L 780,365"/><g><g><path style="stroke:#0ff; stroke-width:8px; fill:none; " opacity="0" d="M 724,327 L 724,365" onmousedown='segmousedown("313","0",evt);' onmouseover='segmouseover("313","0",evt);' onmouseout='segmouseout("313","0",evt);' onclick='segclick("313","0",evt);'/><path style="stroke:#0ff; stroke-width:8px; fill:none; " opacity="0" d="M 724,365 L 780,365" onmousedown='segmousedown("313","1",evt);' onmouseover='segmouseover("313","1",evt);' onmouseout='segmouseout("313","1",evt);' onclick='segclick("313","1",evt);'/></g></g></g><g id="314"><path style="stroke:#bdbddf; stroke-width:8px; fill:none;" opacity="0.7" d="M 633,222 V 208 a 12,12 0 0,1 12,-12L 708,196"/><g><path style="stroke:#ff0; stroke-width:8px; fill:none; " opacity="0" d="M 633,222 V 208 a 12,12 0 0,1 12,-12L 708,196"/></g><path style="stroke:black; fill:none;" d="M 633,222 V 208 a 12,12 0 0,1 12,-12L 708,196"/><g><g><path style="stroke:#0ff; stroke-width:8px; fill:none; " opacity="0" d="M 633,222 L 633,196" onmousedown='segmousedown("314","0",evt);' onmouseover='segmouseover("314","0",evt);' onmouseout='segmouseout("314","0",evt);' onclick='segclick("314","0",evt);'/><path style="stroke:#0ff; stroke-width:8px; fill:none; " opacity="0" d="M 633,196 L 708,196" onmousedown='segmousedown("314","1",evt);' onmouseover='segmouseover("314","1",evt);' onmouseout='segmouseout("314","1",evt);' onclick='segclick("314","1",evt);'/></g></g></g><g id="315"><path style="stroke:#bdbddf; stroke-width:8px; fill:none;" opacity="0.7" d="M 530,265 V 249 a 12,12 0 0,1 12,-12L 618,237"/><g><path style="stroke:#ff0; stroke-width:8px; fill:none; " opacity="0" d="M 530,265 V 249 a 12,12 0 0,1 12,-12L 618,237"/></g><path style="stroke:black; fill:none;" d="M 530,265 V 249 a 12,12 0 0,1 12,-12L 618,237"/><g><g><path style="stroke:#0ff; stroke-width:8px; fill:none; " opacity="0" d="M 530,265 L 530,237" onmousedown='segmousedown("315","0",evt);' onmouseover='segmouseover("315","0",evt);' onmouseout='segmouseout("315","0",evt);' onclick='segclick("315","0",evt);'/><path style="stroke:#0ff; stroke-width:8px; fill:none; " opacity="0" d="M 530,237 L 618,237" onmousedown='segmousedown("315","1",evt);' onmouseover='segmouseover("315","1",evt);' onmouseout='segmouseout("315","1",evt);' onclick='segclick("315","1",evt);'/></g></g></g><g id="316"><path style="stroke:#bdbddf; stroke-width:8px; fill:none;" opacity="0.7" d="M 354,403L 354,530"/><g><path style="stroke:#ff0; stroke-width:8px; fill:none; " opacity="0" d="M 354,403L 354,530"/></g><path style="stroke:black; fill:none;" d="M 354,403L 354,530"/><g><g><path style="stroke:#0ff; stroke-width:8px; fill:none; " opacity="0" d="M 354,403 L 354,530" onmousedown='segmousedown("316","0",evt);' onmouseover='segmouseover("316","0",evt);' onmouseout='segmouseout("316","0",evt);' onclick='segclick("316","0",evt);'/></g></g></g><g id="317"><path style="stroke:#bdbddf; stroke-width:8px; fill:none;" opacity="0.7" d="M 724,297 V 281 a 12,12 0 0,1 12,-12L 780,269"/><g><path style="stroke:#ff0; stroke-width:8px; fill:none; " opacity="0" d="M 724,297 V 281 a 12,12 0 0,1 12,-12L 780,269"/></g><path style="stroke:black; fill:none;" d="M 724,297 V 281 a 12,12 0 0,1 12,-12L 780,269"/><g><g><path style="stroke:#0ff; stroke-width:8px; fill:none; " opacity="0" d="M 724,297 L 724,269" onmousedown='segmousedown("317","0",evt);' onmouseover='segmouseover("317","0",evt);' onmouseout='segmouseout("317","0",evt);' onclick='segclick("317","0",evt);'/><path style="stroke:#0ff; stroke-width:8px; fill:none; " opacity="0" d="M 724,269 L 780,269" onmousedown='segmousedown("317","1",evt);' onmouseover='segmouseover("317","1",evt);' onmouseout='segmouseout("317","1",evt);' onclick='segclick("317","1",evt);'/></g></g></g></g>
  <g id="nodes"><g id="294" onmousedown="nodemousedown(294,evt);" onmouseover="nodemouseover(294,evt);" onmouseout="nodemouseout(294,evt);" transform="translate(530,280)"><rect x="-21" y="-21" width="42" height="42" fill="#0ff" style="stroke:none; opacity:0.75;" display="none"/><rect x="-15" y="-15" width="30" height="30" fill="#f0f0d2" style="stroke:black; opacity:1;"/></g><g id="298" onmousedown="nodemousedown(298,evt);" onmouseover="nodemouseover(298,evt);" onmouseout="nodemouseout(298,evt);" transform="translate(354 403)"><rect x="-21" y="-21" width="42" height="42" fill="#0ff" style="stroke:none; opacity:0.75;" display="none"/><rect x="-15" y="-15" width="30" height="30" fill="#f0f0d2" style="stroke:black; opacity:1;"/></g><g id="295" onmousedown="nodemousedown(295,evt);" onmouseover="nodemouseover(295,evt);" onmouseout="nodemouseout(295,evt);" transform="translate(130,533)"><rect x="-21" y="-21" width="42" height="42" fill="#0ff" style="stroke:none; opacity:0.75;" display="none"/><rect x="-15" y="-15" width="30" height="30" fill="#f0f0d2" style="stroke:black; opacity:1;"/></g><g id="297" onmousedown="nodemousedown(297,evt);" onmouseover="nodemouseover(297,evt);" onmouseout="nodemouseout(297,evt);" transform="translate(130,403)"><rect x="-21" y="-21" width="42" height="42" fill="#0ff" style="stroke:none; opacity:0.75;" display="none"/><rect x="-15" y="-15" width="30" height="30" fill="#f0f0d2" style="stroke:black; opacity:1;"/></g><g id="293" onmousedown="nodemousedown(293,evt);" onmouseover="nodemouseover(293,evt);" onmouseout="nodemouseout(293,evt);" transform="translate(130,280)"><rect x="-21" y="-21" width="42" height="42" fill="#0ff" style="stroke:none; opacity:0.75;" display="none"/><rect x="-15" y="-15" width="30" height="30" fill="#f0f0d2" style="stroke:black; opacity:1;"/></g><g id="299" onmousedown="nodemousedown(299,evt);" onmouseover="nodemouseover(299,evt);" onmouseout="nodemouseout(299,evt);" transform="translate(353,533)"><rect x="-21" y="-21" width="42" height="42" fill="#0ff" style="stroke:none; opacity:0.75;" display="none"/><rect x="-15" y="-15" width="30" height="30" fill="#f0f0d2" style="stroke:black; opacity:1;"/></g><g id="296" onmousedown="nodemousedown(296,evt);" onmouseover="nodemouseover(296,evt);" onmouseout="nodemouseout(296,evt);" transform="translate(530,533)"><rect x="-21" y="-21" width="42" height="42" fill="#0ff" style="stroke:none; opacity:0.75;" display="none"/><rect x="-15" y="-15" width="30" height="30" fill="#f0f0d2" style="stroke:black; opacity:1;"/></g><g id="300" onmousedown="nodemousedown(300,evt);" onmouseover="nodemouseover(300,evt);" onmouseout="nodemouseout(300,evt);" transform="translate(633,237)"><rect x="-21" y="-21" width="42" height="42" fill="#0ff" style="stroke:none; opacity:0.75;" display="none"/><rect x="-15" y="-15" width="30" height="30" fill="#f0f0d2" style="stroke:black; opacity:1;"/></g><g id="301" onmousedown="nodemousedown(301,evt);" onmouseover="nodemouseover(301,evt);" onmouseout="nodemouseout(301,evt);" transform="translate(723,196)"><rect x="-21" y="-21" width="42" height="42" fill="#0ff" style="stroke:none; opacity:0.75;" display="none"/><rect x="-15" y="-15" width="30" height="30" fill="#f0f0d2" style="stroke:black; opacity:1;"/></g><g id="302" onmousedown="nodemousedown(302,evt);" onmouseover="nodemouseover(302,evt);" onmouseout="nodemouseout(302,evt);" transform="translate(724,312)"><rect x="-21" y="-21" width="42" height="42" fill="#0ff" style="stroke:none; opacity:0.75;" display="none"/><rect x="-15" y="-15" width="30" height="30" fill="#f0f0d2" style="stroke:black; opacity:1;"/></g><g id="304" onmousedown="nodemousedown(304,evt);" onmouseover="nodemouseover(304,evt);" onmouseout="nodemouseout(304,evt);" transform="translate(795,269)"><rect x="-21" y="-21" width="42" height="42" fill="#0ff" style="stroke:none; opacity:0.75;" display="none"/><rect x="-15" y="-15" width="30" height="30" fill="#f0f0d2" style="stroke:black; opacity:1;"/></g><g id="303" onmousedown="nodemousedown(303,evt);" onmouseover="nodemouseover(303,evt);" onmouseout="nodemouseout(303,evt);" transform="translate(795,365)"><rect x="-21" y="-21" width="42" height="42" fill="#0ff" style="stroke:none; opacity:0.75;" display="none"/><rect x="-15" y="-15" width="30" height="30" fill="#f0f0d2" style="stroke:black; opacity:1;"/></g></g>
  <g id="BPs"><g onmousedown="bpmousedown(391,evt);" onmouseover="bpmouseover(391,evt);" onmouseout="bpmouseout(391,evt);" transform="translate(530,237)" opacity="0"><ellipse cx="0" cy="0" rx="16" ry="16" fill="#0ff" style="stroke:none; opacity:0.75;" display="none"/><ellipse cx="0" cy="0" rx="9.200000000000003" ry="9.200000000000003" fill="#777" style="stroke:black;"/></g><g onmousedown="bpmousedown(408,evt);" onmouseover="bpmouseover(408,evt);" onmouseout="bpmouseout(408,evt);" transform="translate(633,196)" opacity="0"><ellipse cx="0" cy="0" rx="16" ry="16" fill="#0ff" style="stroke:none; opacity:0.75;" display="none"/><ellipse cx="0" cy="0" rx="9.200000000000003" ry="9.200000000000003" fill="#777" style="stroke:black;"/></g><g onmousedown="bpmousedown(410,evt);" onmouseover="bpmouseover(410,evt);" onmouseout="bpmouseout(410,evt);" transform="translate(633,312)" opacity="0"><ellipse cx="0" cy="0" rx="16" ry="16" fill="#0ff" style="stroke:none; opacity:0.75;" display="none"/><ellipse cx="0" cy="0" rx="9.200000000000003" ry="9.200000000000003" fill="#777" style="stroke:black;"/></g><g onmousedown="bpmousedown(412,evt);" onmouseover="bpmouseover(412,evt);" onmouseout="bpmouseout(412,evt);" transform="translate(724,365)" opacity="0"><ellipse cx="0" cy="0" rx="16" ry="16" fill="#0ff" style="stroke:none; opacity:0.75;" display="none"/><ellipse cx="0" cy="0" rx="9.200000000000003" ry="9.200000000000003" fill="#777" style="stroke:black;"/></g><g onmousedown="bpmousedown(417,evt);" onmouseover="bpmouseover(417,evt);" onmouseout="bpmouseout(417,evt);" transform="translate(724,269)" opacity="0"><ellipse cx="0" cy="0" rx="16" ry="16" fill="#0ff" style="stroke:none; opacity:0.75;" display="none"/><ellipse cx="0" cy="0" rx="9.200000000000003" ry="9.200000000000003" fill="#777" style="stroke:black;"/></g></g>
  <g id="ports"/>
</g>
</svg>