<svg xmlns:xlink="http://www.w3.org/1999/xlink" xmlns="http://www.w3.org/2000/svg" height="270px" width="480px" id="SVGCanvas" onmouseup="" onmousemove="">
<rect fill="#bdbddf" width="100%" height="100%" y="0" x="0" id="background" onmousedown="bgmousedown(evt)"/>
<g id="foreground" transform="translate(26.756756756756744,0),scale(0.8108108108108109),translate(18,-16)">
  <g id="edges"><g id="328"><path style="stroke:#bdbddf; stroke-width:8px; fill:none;" opacity="0.7" d="M 33,319L 108,319"/><g><path style="stroke:#ff0; stroke-width:8px; fill:none; " opacity="0" d="M 33,319L 108,319"/></g><path style="stroke:black; fill:none;" d="M 33,319L 108,319"/><g><g><path style="stroke:#0ff; stroke-width:8px; fill:none; " opacity="0" d="M 33,319 L 108,319" onmousedown='segmousedown("328","0",evt);' onmouseover='segmouseover("328","0",evt);' onmouseout='segmouseout("328","0",evt);' onclick='segclick("328","0",evt);'/></g></g></g><g id="329"><path style="stroke:#bdbddf; stroke-width:8px; fill:none;" opacity="0.7" d="M 123,304L 123,154"/><g><path style="stroke:#ff0; stroke-width:8px; fill:none; " opacity="0" d="M 123,304L 123,154"/></g><path style="stroke:black; fill:none;" d="M 123,304L 123,154"/><g><g><path style="stroke:#0ff; stroke-width:8px; fill:none; " opacity="0" d="M 123,304 L 123,154" onmousedown='segmousedown("329","0",evt);' onmouseover='segmouseover("329","0",evt);' onmouseout='segmouseout("329","0",evt);' onclick='segclick("329","0",evt);'/></g></g></g><g id="330"><path style="stroke:#bdbddf; stroke-width:8px; fill:none;" opacity="0.7" d="M 18,154L 18,304"/><g><path style="stroke:#ff0; stroke-width:8px; fill:none; " opacity="0" d="M 18,154L 18,304"/></g><path style="stroke:black; fill:none;" d="M 18,154L 18,304"/><g><g><path style="stroke:#0ff; stroke-width:8px; fill:none; " opacity="0" d="M 18,154 L 18,304" onmousedown='segmousedown("330","0",evt);' onmouseover='segmouseover("330","0",evt);' onmouseout='segmouseout("330","0",evt);' onclick='segclick("330","0",evt);'/></g></g></g><g id="331"><path style="stroke:#bdbddf; stroke-width:8px; fill:none;" opacity="0.7" d="M 108,139L 27,139"/><g><path style="stroke:#ff0; stroke-width:8px; fill:none; " opacity="0" d="M 108,139L 27,139"/></g><path style="stroke:black; fill:none;" d="M 108,139L 27,139"/><g><g><path style="stroke:#0ff; stroke-width:8px; fill:none; " opacity="0" d="M 108,139 L 27,139" onmousedown='segmousedown("331","0",evt);' onmouseover='segmouseover("331","0",evt);' onmouseout='segmouseout("331","0",evt);' onclick='segclick("331","0",evt);'/></g></g></g><g id="332"><path style="stroke:#bdbddf; stroke-width:8px; fill:none;" opacity="0.7" d="M 198,138L 138,138"/><g><path style="stroke:#ff0; stroke-width:8px; fill:none; " opacity="0" d="M 198,138L 138,138"/></g><path style="stroke:black; fill:none;" d="M 198,138L 138,138"/><g><g><path style="stroke:#0ff; stroke-width:8px; fill:none; " opacity="0" d="M 198,138 L 138,138" onmousedown='segmousedown("332","0",evt);' onmouseover='segmouseover("332","0",evt);' onmouseout='segmouseout("332","0",evt);' onclick='segclick("332","0",evt);'/></g></g></g><g id="333"><path style="stroke:#bdbddf; stroke-width:8px; fill:none;" opacity="0.7" d="M 228,137L 349,137"/><g><path style="stroke:#ff0; stroke-width:8px; fill:none; " opacity="0" d="M 228,137L 349,137"/></g><path style="stroke:black; fill:none;" d="M 228,137L 349,137"/><g><g><path style="stroke:#0ff; stroke-width:8px; fill:none; " opacity="0" d="M 228,137 L 349,137" onmousedown='segmousedown("333","0",evt);' onmouseover='segmouseover("333","0",evt);' onmouseout='segmouseout("333","0",evt);' onclick='segclick("333","0",evt);'/></g></g></g><g id="334"><path style="stroke:#bdbddf; stroke-width:8px; fill:none;" opacity="0.7" d="M 364,152 V 174 a 12,12 0 0,0 12,12L 463,186"/><g><path style="stroke:#ff0; stroke-width:8px; fill:none; " opacity="0" d="M 364,152 V 174 a 12,12 0 0,0 12,12L 463,186"/></g><path style="stroke:black; fill:none;" d="M 364,152 V 174 a 12,12 0 0,0 12,12L 463,186"/><g><g><path style="stroke:#0ff; stroke-width:8px; fill:none; " opacity="0" d="M 364,152 L 364,186" onmousedown='segmousedown("334","0",evt);' onmouseover='segmouseover("334","0",evt);' onmouseout='segmouseout("334","0",evt);' onclick='segclick("334","0",evt);'/><path style="stroke:#0ff; stroke-width:8px; fill:none; " opacity="0" d="M 364,186 L 463,186" onmousedown='segmousedown("334","1",evt);' onmouseover='segmouseover("334","1",evt);' onmouseout='segmouseout("334","1",evt);' onclick='segclick("334","1",evt);'/></g></g></g><g id="335"><path style="stroke:#bdbddf; stroke-width:8px; fill:none;" opacity="0.7" d="M 364,122 V 94 a 12,12 0 0,1 12,-12L 462,82"/><g><path style="stroke:#ff0; stroke-width:8px; fill:none; " opacity="0" d="M 364,122 V 94 a 12,12 0 0,1 12,-12L 462,82"/></g><path style="stroke:black; fill:none;" d="M 364,122 V 94 a 12,12 0 0,1 12,-12L 462,82"/><g><g><path style="stroke:#0ff; stroke-width:8px; fill:none; " opacity="0" d="M 364,122 L 364,82" onmousedown='segmousedown("335","0",evt);' onmouseover='segmouseover("335","0",evt);' onmouseout='segmouseout("335","0",evt);' onclick='segclick("335","0",evt);'/><path style="stroke:#0ff; stroke-width:8px; fill:none; " opacity="0" d="M 364,82 L 462,82" onmousedown='segmousedown("335","1",evt);' onmouseover='segmouseover("335","1",evt);' onmouseout='segmouseout("335","1",evt);' onclick='segclick("335","1",evt);'/></g></g></g><g id="336"><path style="stroke:#bdbddf; stroke-width:8px; fill:none;" opacity="0.7" d="M 213,152 V 201 a 12,12 0 0,0 12,12L 288,213"/><g><path style="stroke:#ff0; stroke-width:8px; fill:none; " opacity="0" d="M 213,152 V 201 a 12,12 0 0,0 12,12L 288,213"/></g><path style="stroke:black; fill:none;" d="M 213,152 V 201 a 12,12 0 0,0 12,12L 288,213"/><g><g><path style="stroke:#0ff; stroke-width:8px; fill:none; " opacity="0" d="M 213,152 L 213,213" onmousedown='segmousedown("336","0",evt);' onmouseover='segmouseover("336","0",evt);' onmouseout='segmouseout("336","0",evt);' onclick='segclick("336","0",evt);'/><path style="stroke:#0ff; stroke-width:8px; fill:none; " opacity="0" d="M 213,213 L 288,213" onmousedown='segmousedown("336","1",evt);' onmouseover='segmouseover("336","1",evt);' onmouseout='segmouseout("336","1",evt);' onclick='segclick("336","1",evt);'/></g></g></g><g id="337"><path style="stroke:#bdbddf; stroke-width:8px; fill:none;" opacity="0.7" d="M 213,122 V 65 a 12,12 0 0,1 12,-12L 286,53"/><g><path style="stroke:#ff0; stroke-width:8px; fill:none; " opacity="0" d="M 213,122 V 65 a 12,12 0 0,1 12,-12L 286,53"/></g><path style="stroke:black; fill:none;" d="M 213,122 V 65 a 12,12 0 0,1 12,-12L 286,53"/><g><g><path style="stroke:#0ff; stroke-width:8px; fill:none; " opacity="0" d="M 213,122 L 213,53" onmousedown='segmousedown("337","0",evt);' onmouseover='segmouseover("337","0",evt);' onmouseout='segmouseout("337","0",evt);' onclick='segclick("337","0",evt);'/><path style="stroke:#0ff; stroke-width:8px; fill:none; " opacity="0" d="M 213,53 L 286,53" onmousedown='segmousedown("337","1",evt);' onmouseover='segmouseover("337","1",evt);' onmouseout='segmouseout("337","1",evt);' onclick='segclick("337","1",evt);'/></g></g></g></g>
  <g id="nodes"><g id="322" onmousedown="nodemousedown(322,evt);" onmouseover="nodemouseover(322,evt);" onmouseout="nodemouseout(322,evt);" transform="translate(213,137)"><rect x="-21" y="-21" width="42" height="42" fill="#0ff" style="stroke:none; opacity:0.75;" display="none"/><rect x="-15" y="-15" width="30" height="30" fill="#f0f0d2" style="stroke:black; opacity:1;"/></g><g id="327" onmousedown="nodemousedown(327,evt);" onmouseover="nodemouseover(327,evt);" onmouseout="nodemouseout(327,evt);" transform="translate(301,46)"><rect x="-21" y="-21" width="42" height="42" fill="#0ff" style="stroke:none; opacity:0.75;" display="none"/><rect x="-15" y="-15" width="30" height="30" fill="#f0f0d2" style="stroke:black; opacity:1;"/></g><g id="321" onmousedown="nodemousedown(321,evt);" onmouseover="nodemouseover(321,evt);" onmouseout="nodemouseout(321,evt);" transform="translate(123,139)"><rect x="-21" y="-21" width="42" height="42" fill="#0ff" style="stroke:none; opacity:0.75;" display="none"/><rect x="-15" y="-15" width="30" height="30" fill="#f0f0d2" style="stroke:black; opacity:1;"/></g><g id="320" onmousedown="nodemousedown(320,evt);" onmouseover="nodemouseover(320,evt);" onmouseout="nodemouseout(320,evt);" transform="translate(123,319)"><rect x="-21" y="-21" width="42" height="42" fill="#0ff" style="stroke:none; opacity:0.75;" display="none"/><rect x="-15" y="-15" width="30" height="30" fill="#f0f0d2" style="stroke:black; opacity:1;"/></g><g id="319" onmousedown="nodemousedown(319,evt);" onmouseover="nodemouseover(319,evt);" onmouseout="nodemouseout(319,evt);" transform="translate(18,319)"><rect x="-21" y="-21" width="42" height="42" fill="#0ff" style="stroke:none; opacity:0.75;" display="none"/><rect x="-15" y="-15" width="30" height="30" fill="#f0f0d2" style="stroke:black; opacity:1;"/></g><g id="318" onmousedown="nodemousedown(318,evt);" onmouseover="nodemouseover(318,evt);" onmouseout="nodemouseout(318,evt);" transform="translate(12,139)"><rect x="-21" y="-21" width="42" height="42" fill="#0ff" style="stroke:none; opacity:0.75;" display="none"/><rect x="-15" y="-15" width="30" height="30" fill="#f0f0d2" style="stroke:black; opacity:1;"/></g><g id="326" onmousedown="nodemousedown(326,evt);" onmouseover="nodemouseover(326,evt);" onmouseout="nodemouseout(326,evt);" transform="translate(477,82)"><rect x="-21" y="-21" width="42" height="42" fill="#0ff" style="stroke:none; opacity:0.75;" display="none"/><rect x="-15" y="-15" width="30" height="30" fill="#f0f0d2" style="stroke:black; opacity:1;"/></g><g id="325" onmousedown="nodemousedown(325,evt);" onmouseover="nodemouseover(325,evt);" onmouseout="nodemouseout(325,evt);" transform="translate(478,186)"><rect x="-21" y="-21" width="42" height="42" fill="#0ff" style="stroke:none; opacity:0.75;" display="none"/><rect x="-15" y="-15" width="30" height="30" fill="#f0f0d2" style="stroke:black; opacity:1;"/></g><g id="324" onmousedown="nodemousedown(324,evt);" onmouseover="nodemouseover(324,evt);" onmouseout="nodemouseout(324,evt);" transform="translate(303,213)"><rect x="-21" y="-21" width="42" height="42" fill="#0ff" style="stroke:none; opacity:0.75;" display="none"/><rect x="-15" y="-15" width="30" height="30" fill="#f0f0d2" style="stroke:black; opacity:1;"/></g><g id="323" onmousedown="nodemousedown(323,evt);" onmouseover="nodemouseover(323,evt);" onmouseout="nodemouseout(323,evt);" transform="translate(364,137)"><rect x="-21" y="-21" width="42" height="42" fill="#0ff" style="stroke:none; opacity:0.75;" display="none"/><rect x="-15" y="-15" width="30" height="30" fill="#f0f0d2" style="stroke:black; opacity:1;"/></g></g>
  <g id="BPs"><g onmousedown="bpmousedown(364,evt);" onmouseover="bpmouseover(364,evt);" onmouseout="bpmouseout(364,evt);" transform="translate(364,82)" opacity="0"><ellipse cx="0" cy="0" rx="16" ry="16" fill="#0ff" style="stroke:none; opacity:0.75;" display="none"/><ellipse cx="0" cy="0" rx="12.842113914687268" ry="12.842113914687268" fill="#777" style="stroke:black;"/></g><g onmousedown="bpmousedown(370,evt);" onmouseover="bpmouseover(370,evt);" onmouseout="bpmouseout(370,evt);" transform="translate(213,53)" opacity="0"><ellipse cx="0" cy="0" rx="16" ry="16" fill="#0ff" style="stroke:none; opacity:0.75;" display="none"/><ellipse cx="0" cy="0" rx="12.842113914687268" ry="12.842113914687268" fill="#777" style="stroke:black;"/></g><g onmousedown="bpmousedown(414,evt);" onmouseover="bpmouseover(414,evt);" onmouseout="bpmouseout(414,evt);" transform="translate(213,213)" opacity="0"><ellipse cx="0" cy="0" rx="16" ry="16" fill="#0ff" style="stroke:none; opacity:0.75;" display="none"/><ellipse cx="0" cy="0" rx="12.842113914687268" ry="12.842113914687268" fill="#777" style="stroke:black;"/></g><g onmousedown="bpmousedown(416,evt);" onmouseover="bpmouseover(416,evt);" onmouseout="bpmouseout(416,evt);" transform="translate(364,186)" opacity="0"><ellipse cx="0" cy="0" rx="16" ry="16" fill="#0ff" style="stroke:none; opacity:0.75;" display="none"/><ellipse cx="0" cy="0" rx="12.842113914687268" ry="12.842113914687268" fill="#777" style="stroke:black;"/></g></g>
  <g id="ports"/>
</g>
</svg>