<svg xmlns:xlink="http://www.w3.org/1999/xlink" xmlns="http://www.w3.org/2000/svg" height="270px" width="480px" id="SVGCanvas" onmouseup="" onmousemove="">
<rect fill="#bdbddf" width="100%" height="100%" y="0" x="0" id="background" onmousedown="bgmousedown(evt)"/>
<g id="foreground" transform="translate(102.57381258023108,0),scale(0.693196405648267),translate(-98,-129.5)">
  <g id="edges"><g id="288"><path style="stroke:#bdbddf; stroke-width:8px; fill:none;" opacity="0.7" d="M 368.5,293 H 441 a 12,12 0 0,1 12,12L 453,331"/><g><path style="stroke:#ff0; stroke-width:8px; fill:none; " opacity="0" d="M 368.5,293 H 441 a 12,12 0 0,1 12,12L 453,331"/></g><path style="stroke:black; fill:none;" d="M 368.5,293 H 441 a 12,12 0 0,1 12,12L 453,331"/><g><g><path style="stroke:#0ff; stroke-width:8px; fill:none; " opacity="0" d="M 368.5,293 L 453,293" onmousedown='segmousedown("288","0",evt);' onmouseover='segmouseover("288","0",evt);' onmouseout='segmouseout("288","0",evt);' onclick='segclick("288","0",evt);'/><path style="stroke:#0ff; stroke-width:8px; fill:none; " opacity="0" d="M 453,293 L 453,331" onmousedown='segmousedown("288","1",evt);' onmouseover='segmouseover("288","1",evt);' onmouseout='segmouseout("288","1",evt);' onclick='segclick("288","1",evt);'/></g></g></g><g id="289"><path style="stroke:#bdbddf; stroke-width:8px; fill:none;" opacity="0.7" d="M 327,301 V 446 a 12,12 0 0,1 -12,12L 259.5,458"/><g><path style="stroke:#ff0; stroke-width:8px; fill:none; " opacity="0" d="M 327,301 V 446 a 12,12 0 0,1 -12,12L 259.5,458"/></g><path style="stroke:black; fill:none;" d="M 327,301 V 446 a 12,12 0 0,1 -12,12L 259.5,458"/><g><g><path style="stroke:#0ff; stroke-width:8px; fill:none; " opacity="0" d="M 327,301 L 327,458" onmousedown='segmousedown("289","0",evt);' onmouseover='segmouseover("289","0",evt);' onmouseout='segmouseout("289","0",evt);' onclick='segclick("289","0",evt);'/><path style="stroke:#0ff; stroke-width:8px; fill:none; " opacity="0" d="M 327,458 L 259.5,458" onmousedown='segmousedown("289","1",evt);' onmouseover='segmouseover("289","1",evt);' onmouseout='segmouseout("289","1",evt);' onclick='segclick("289","1",evt);'/></g></g></g><g id="290"><path style="stroke:#bdbddf; stroke-width:8px; fill:none;" opacity="0.7" d="M 313,197.5L 313,285"/><g><path style="stroke:#ff0; stroke-width:8px; fill:none; " opacity="0" d="M 313,197.5L 313,285"/></g><path style="stroke:black; fill:none;" d="M 313,197.5L 313,285"/><g><g><path style="stroke:#0ff; stroke-width:8px; fill:none; " opacity="0" d="M 313,197.5 L 313,285" onmousedown='segmousedown("290","0",evt);' onmouseover='segmouseover("290","0",evt);' onmouseout='segmouseout("290","0",evt);' onclick='segclick("290","0",evt);'/></g></g></g><g id="291"><path style="stroke:#bdbddf; stroke-width:8px; fill:none;" opacity="0.7" d="M 164,227 V 273 a 12,12 0 0,0 12,12L 285.5,285"/><g><path style="stroke:#ff0; stroke-width:8px; fill:none; " opacity="0" d="M 164,227 V 273 a 12,12 0 0,0 12,12L 285.5,285"/></g><path style="stroke:black; fill:none;" d="M 164,227 V 273 a 12,12 0 0,0 12,12L 285.5,285"/><g><g><path style="stroke:#0ff; stroke-width:8px; fill:none; " opacity="0" d="M 164,227 L 164,285" onmousedown='segmousedown("291","0",evt);' onmouseover='segmouseover("291","0",evt);' onmouseout='segmouseout("291","0",evt);' onclick='segclick("291","0",evt);'/><path style="stroke:#0ff; stroke-width:8px; fill:none; " opacity="0" d="M 164,285 L 285.5,285" onmousedown='segmousedown("291","1",evt);' onmouseover='segmouseover("291","1",evt);' onmouseout='segmouseout("291","1",evt);' onclick='segclick("291","1",evt);'/></g></g></g><g id="292"><path style="stroke:#bdbddf; stroke-width:8px; fill:none;" opacity="0.7" d="M 333.5,168L 390.5,168"/><g><path style="stroke:#ff0; stroke-width:8px; fill:none; " opacity="0" d="M 333.5,168L 390.5,168"/></g><path style="stroke:black; fill:none;" d="M 333.5,168L 390.5,168"/><g><g><path style="stroke:#0ff; stroke-width:8px; fill:none; " opacity="0" d="M 333.5,168 L 390.5,168" onmousedown='segmousedown("292","0",evt);' onmouseover='segmouseover("292","0",evt);' onmouseout='segmouseout("292","0",evt);' onclick='segclick("292","0",evt);'/></g></g></g><g id="287"><path style="stroke:#bdbddf; stroke-width:8px; fill:none;" opacity="0.7" d="M 300,285 V 350 a 12,12 0 0,1 -12,12L 143,362"/><g><path style="stroke:#ff0; stroke-width:8px; fill:none; " opacity="0" d="M 300,285 V 350 a 12,12 0 0,1 -12,12L 143,362"/></g><path style="stroke:black; fill:none;" d="M 300,285 V 350 a 12,12 0 0,1 -12,12L 143,362"/><g><g><path style="stroke:#0ff; stroke-width:8px; fill:none; " opacity="0" d="M 300,285 L 300,362" onmousedown='segmousedown("287","0",evt);' onmouseover='segmouseover("287","0",evt);' onmouseout='segmouseout("287","0",evt);' onclick='segclick("287","0",evt);'/><path style="stroke:#0ff; stroke-width:8px; fill:none; " opacity="0" d="M 300,362 L 143,362" onmousedown='segmousedown("287","1",evt);' onmouseover='segmouseover("287","1",evt);' onmouseout='segmouseout("287","1",evt);' onclick='segclick("287","1",evt);'/></g></g></g></g>
  <g id="nodes"><g id="280" onmousedown="nodemousedown(280,evt);" onmouseover="nodemouseover(280,evt);" onmouseout="nodemouseout(280,evt);" transform="translate(327,285)"><rect x="-47.5" y="-22" width="95" height="44" fill="#0ff" style="stroke:none; opacity:0.75;" display="none"/><rect x="-41.5" y="-16" width="83" height="32" fill="#f0f0d2" style="stroke:black; opacity:1;"/></g><g id="281" onmousedown="nodemousedown(281,evt);" onmouseover="nodemouseover(281,evt);" onmouseout="nodemouseout(281,evt);" transform="translate(128,362)"><rect x="-21" y="-21" width="42" height="42" fill="#0ff" style="stroke:none; opacity:0.75;" display="none"/><rect x="-15" y="-15" width="30" height="30" fill="#f0f0d2" style="stroke:black; opacity:1;"/></g><g id="285" onmousedown="nodemousedown(285,evt);" onmouseover="nodemouseover(285,evt);" onmouseout="nodemouseout(285,evt);" transform="translate(164,212)"><rect x="-21" y="-21" width="42" height="42" fill="#0ff" style="stroke:none; opacity:0.75;" display="none"/><rect x="-15" y="-15" width="30" height="30" fill="#f0f0d2" style="stroke:black; opacity:1;"/></g><g id="283" onmousedown="nodemousedown(283,evt);" onmouseover="nodemouseover(283,evt);" onmouseout="nodemouseout(283,evt);" transform="translate(248,458)"><rect x="-17.5" y="-52" width="35" height="104" fill="#0ff" style="stroke:none; opacity:0.75;" display="none"/><rect x="-11.5" y="-46" width="23" height="92" fill="#f0f0d2" style="stroke:black; opacity:1;"/></g><g id="282" onmousedown="nodemousedown(282,evt);" onmouseover="nodemouseover(282,evt);" onmouseout="nodemouseout(282,evt);" transform="translate(453,346)"><rect x="-21" y="-21" width="42" height="42" fill="#0ff" style="stroke:none; opacity:0.75;" display="none"/><rect x="-15" y="-15" width="30" height="30" fill="#f0f0d2" style="stroke:black; opacity:1;"/></g><g id="284" onmousedown="nodemousedown(284,evt);" onmouseover="nodemouseover(284,evt);" onmouseout="nodemouseout(284,evt);" transform="translate(310,171)"><rect x="-29.5" y="-32.5" width="59" height="65" fill="#0ff" style="stroke:none; opacity:0.75;" display="none"/><rect x="-23.5" y="-26.5" width="47" height="53" fill="#f0f0d2" style="stroke:black; opacity:1;"/></g><g id="286" onmousedown="nodemousedown(286,evt);" onmouseover="nodemouseover(286,evt);" onmouseout="nodemouseout(286,evt);" transform="translate(435,168)"><rect x="-50.5" y="-21" width="101" height="42" fill="#0ff" style="stroke:none; opacity:0.75;" display="none"/><rect x="-44.5" y="-15" width="89" height="30" fill="#f0f0d2" style="stroke:black; opacity:1;"/></g></g>
  <g id="BPs"><g onmousedown="bpmousedown(295,evt);" onmouseover="bpmouseover(295,evt);" onmouseout="bpmouseout(295,evt);" transform="translate(453,293)" opacity="0"><ellipse cx="0" cy="0" rx="16" ry="16" fill="#0ff" style="stroke:none; opacity:0.75;" display="none"/><ellipse cx="0" cy="0" rx="8.464" ry="8.464" fill="#777" style="stroke:black;"/></g><g onmousedown="bpmousedown(304,evt);" onmouseover="bpmouseover(304,evt);" onmouseout="bpmouseout(304,evt);" transform="translate(164,285)" opacity="0"><ellipse cx="0" cy="0" rx="16" ry="16" fill="#0ff" style="stroke:none; opacity:0.75;" display="none"/><ellipse cx="0" cy="0" rx="8.464" ry="8.464" fill="#777" style="stroke:black;"/></g><g onmousedown="bpmousedown(312,evt);" onmouseover="bpmouseover(312,evt);" onmouseout="bpmouseout(312,evt);" transform="translate(300,362)" opacity="0"><ellipse cx="0" cy="0" rx="16" ry="16" fill="#0ff" style="stroke:none; opacity:0.75;" display="none"/><ellipse cx="0" cy="0" rx="8.464" ry="8.464" fill="#777" style="stroke:black;"/></g><g onmousedown="bpmousedown(326,evt);" onmouseover="bpmouseover(326,evt);" onmouseout="bpmouseout(326,evt);" transform="translate(327,458)" opacity="0"><ellipse cx="0" cy="0" rx="16" ry="16" fill="#0ff" style="stroke:none; opacity:0.75;" display="none"/><ellipse cx="0" cy="0" rx="8.464" ry="8.464" fill="#777" style="stroke:black;"/></g></g>
  <g id="ports"/>
</g>
</svg>