<svg xmlns:xlink="http://www.w3.org/1999/xlink" xmlns="http://www.w3.org/2000/svg" height="270px" width="480px" id="SVGCanvas" onmouseup="" onmousemove="">
<rect fill="#bdbddf" width="100%" height="100%" y="0" x="0" id="background" onmousedown="bgmousedown(evt)"/>
<g id="foreground" transform="translate(103.29652996845425,0),scale(0.8517350157728707),translate(-48,-134)">
  <g id="edges"><g id="201"><path style="stroke:#bdbddf; stroke-width:8px; fill:none;" opacity="0.7" d="M 188,227L 261,227"/><g><path style="stroke:#ff0; stroke-width:8px; fill:none; " opacity="0" d="M 188,227L 261,227"/></g><path style="stroke:black; fill:none;" d="M 188,227L 261,227"/><g><g><path style="stroke:#0ff; stroke-width:8px; fill:none; " opacity="0" d="M 188,227 L 261,227" onmousedown='segmousedown("201","0",evt);' onmouseover='segmouseover("201","0",evt);' onmouseout='segmouseout("201","0",evt);' onclick='segclick("201","0",evt);'/></g></g></g><g id="202"><path style="stroke:#bdbddf; stroke-width:8px; fill:none;" opacity="0.7" d="M 158,227 H 90 a 12,12 0 0,0 -12,12L 78,318"/><g><path style="stroke:#ff0; stroke-width:8px; fill:none; " opacity="0" d="M 158,227 H 90 a 12,12 0 0,0 -12,12L 78,318"/></g><path style="stroke:black; fill:none;" d="M 158,227 H 90 a 12,12 0 0,0 -12,12L 78,318"/><g><g><path style="stroke:#0ff; stroke-width:8px; fill:none; " opacity="0" d="M 158,227 L 78,227" onmousedown='segmousedown("202","0",evt);' onmouseover='segmouseover("202","0",evt);' onmouseout='segmouseout("202","0",evt);' onclick='segclick("202","0",evt);'/><path style="stroke:#0ff; stroke-width:8px; fill:none; " opacity="0" d="M 78,227 L 78,318" onmousedown='segmousedown("202","1",evt);' onmouseover='segmouseover("202","1",evt);' onmouseout='segmouseout("202","1",evt);' onclick='segclick("202","1",evt);'/></g></g></g><g id="203"><path style="stroke:#bdbddf; stroke-width:8px; fill:none;" opacity="0.7" d="M 291,227 H 286 a 5,5 0 0,1 -5,-5L 281,179"/><g><path style="stroke:#ff0; stroke-width:8px; fill:none; " opacity="0" d="M 291,227 H 286 a 5,5 0 0,1 -5,-5L 281,179"/></g><path style="stroke:black; fill:none;" d="M 291,227 H 286 a 5,5 0 0,1 -5,-5L 281,179"/><g><g><path style="stroke:#0ff; stroke-width:8px; fill:none; " opacity="0" d="M 291,227 L 281,227" onmousedown='segmousedown("203","0",evt);' onmouseover='segmouseover("203","0",evt);' onmouseout='segmouseout("203","0",evt);' onclick='segclick("203","0",evt);'/><path style="stroke:#0ff; stroke-width:8px; fill:none; " opacity="0" d="M 281,227 L 281,179" onmousedown='segmousedown("203","1",evt);' onmouseover='segmouseover("203","1",evt);' onmouseout='segmouseout("203","1",evt);' onclick='segclick("203","1",evt);'/></g></g></g><g id="204"><path style="stroke:#bdbddf; stroke-width:8px; fill:none;" opacity="0.7" d="M 291,227L 324,227"/><g><path style="stroke:#ff0; stroke-width:8px; fill:none; " opacity="0" d="M 291,227L 324,227"/></g><path style="stroke:black; fill:none;" d="M 291,227L 324,227"/><g><g><path style="stroke:#0ff; stroke-width:8px; fill:none; " opacity="0" d="M 291,227 L 324,227" onmousedown='segmousedown("204","0",evt);' onmouseover='segmouseover("204","0",evt);' onmouseout='segmouseout("204","0",evt);' onclick='segclick("204","0",evt);'/></g></g></g><g id="205"><path style="stroke:#bdbddf; stroke-width:8px; fill:none;" opacity="0.7" d="M 93,333L 154,333"/><g><path style="stroke:#ff0; stroke-width:8px; fill:none; " opacity="0" d="M 93,333L 154,333"/></g><path style="stroke:black; fill:none;" d="M 93,333L 154,333"/><g><g><path style="stroke:#0ff; stroke-width:8px; fill:none; " opacity="0" d="M 93,333 L 154,333" onmousedown='segmousedown("205","0",evt);' onmouseover='segmouseover("205","0",evt);' onmouseout='segmouseout("205","0",evt);' onclick='segclick("205","0",evt);'/></g></g></g><g id="206"><path style="stroke:#bdbddf; stroke-width:8px; fill:none;" opacity="0.7" d="M 78,348 V 414 a 12,12 0 0,0 12,12L 150,426"/><g><path style="stroke:#ff0; stroke-width:8px; fill:none; " opacity="0" d="M 78,348 V 414 a 12,12 0 0,0 12,12L 150,426"/></g><path style="stroke:black; fill:none;" d="M 78,348 V 414 a 12,12 0 0,0 12,12L 150,426"/><g><g><path style="stroke:#0ff; stroke-width:8px; fill:none; " opacity="0" d="M 78,348 L 78,426" onmousedown='segmousedown("206","0",evt);' onmouseover='segmouseover("206","0",evt);' onmouseout='segmouseout("206","0",evt);' onclick='segclick("206","0",evt);'/><path style="stroke:#0ff; stroke-width:8px; fill:none; " opacity="0" d="M 78,426 L 150,426" onmousedown='segmousedown("206","1",evt);' onmouseover='segmouseover("206","1",evt);' onmouseout='segmouseout("206","1",evt);' onclick='segclick("206","1",evt);'/></g></g></g></g>
  <g id="nodes"><g id="200" onmousedown="nodemousedown(200,evt);" onmouseover="nodemouseover(200,evt);" onmouseout="nodemouseout(200,evt);" transform="translate(165,419)"><rect x="-21" y="-21" width="42" height="42" fill="#0ff" style="stroke:none; opacity:0.75;" display="none"/><rect x="-15" y="-15" width="30" height="30" fill="#f0f0d2" style="stroke:black; opacity:1;"/></g><g id="194" onmousedown="nodemousedown(194,evt);" onmouseover="nodemouseover(194,evt);" onmouseout="nodemouseout(194,evt);" transform="translate(173,227)"><rect x="-21" y="-21" width="42" height="42" fill="#0ff" style="stroke:none; opacity:0.75;" display="none"/><rect x="-15" y="-15" width="30" height="30" fill="#f0f0d2" style="stroke:black; opacity:1;"/></g><g id="195" onmousedown="nodemousedown(195,evt);" onmouseover="nodemouseover(195,evt);" onmouseout="nodemouseout(195,evt);" transform="translate(276,227)"><rect x="-21" y="-21" width="42" height="42" fill="#0ff" style="stroke:none; opacity:0.75;" display="none"/><rect x="-15" y="-15" width="30" height="30" fill="#f0f0d2" style="stroke:black; opacity:1;"/></g><g id="197" onmousedown="nodemousedown(197,evt);" onmouseover="nodemouseover(197,evt);" onmouseout="nodemouseout(197,evt);" transform="translate(281,164)"><rect x="-21" y="-21" width="42" height="42" fill="#0ff" style="stroke:none; opacity:0.75;" display="none"/><rect x="-15" y="-15" width="30" height="30" fill="#f0f0d2" style="stroke:black; opacity:1;"/></g><g id="199" onmousedown="nodemousedown(199,evt);" onmouseover="nodemouseover(199,evt);" onmouseout="nodemouseout(199,evt);" transform="translate(169,326)"><rect x="-21" y="-21" width="42" height="42" fill="#0ff" style="stroke:none; opacity:0.75;" display="none"/><rect x="-15" y="-15" width="30" height="30" fill="#f0f0d2" style="stroke:black; opacity:1;"/></g><g id="196" onmousedown="nodemousedown(196,evt);" onmouseover="nodemouseover(196,evt);" onmouseout="nodemouseout(196,evt);" transform="translate(78,333)"><rect x="-21" y="-21" width="42" height="42" fill="#0ff" style="stroke:none; opacity:0.75;" display="none"/><rect x="-15" y="-15" width="30" height="30" fill="#f0f0d2" style="stroke:black; opacity:1;"/></g><g id="198" onmousedown="nodemousedown(198,evt);" onmouseover="nodemouseover(198,evt);" onmouseout="nodemouseout(198,evt);" transform="translate(339,230)"><rect x="-21" y="-21" width="42" height="42" fill="#0ff" style="stroke:none; opacity:0.75;" display="none"/><rect x="-15" y="-15" width="30" height="30" fill="#f0f0d2" style="stroke:black; opacity:1;"/></g></g>
  <g id="BPs"><g onmousedown="bpmousedown(214,evt);" onmouseover="bpmouseover(214,evt);" onmouseout="bpmouseout(214,evt);" transform="translate(78,227)" opacity="0"><ellipse cx="0" cy="0" rx="16" ry="16" fill="#0ff" style="stroke:none; opacity:0.75;" display="none"/><ellipse cx="0" cy="0" rx="7.786880000000001" ry="7.786880000000001" fill="#777" style="stroke:black;"/></g><g onmousedown="bpmousedown(217,evt);" onmouseover="bpmouseover(217,evt);" onmouseout="bpmouseout(217,evt);" transform="translate(281,227)" opacity="0"><ellipse cx="0" cy="0" rx="16" ry="16" fill="#0ff" style="stroke:none; opacity:0.75;" display="none"/><ellipse cx="0" cy="0" rx="7.786880000000001" ry="7.786880000000001" fill="#777" style="stroke:black;"/></g><g onmousedown="bpmousedown(228,evt);" onmouseover="bpmouseover(228,evt);" onmouseout="bpmouseout(228,evt);" transform="translate(78,426)" opacity="0"><ellipse cx="0" cy="0" rx="16" ry="16" fill="#0ff" style="stroke:none; opacity:0.75;" display="none"/><ellipse cx="0" cy="0" rx="7.786880000000001" ry="7.786880000000001" fill="#777" style="stroke:black;"/></g></g>
  <g id="ports"/>
</g>
</svg>