<svg xmlns:xlink="http://www.w3.org/1999/xlink" xmlns="http://www.w3.org/2000/svg" height="270px" width="480px" id="SVGCanvas" onmouseup="" onmousemove="">
<rect fill="#bdbddf" width="100%" height="100%" y="0" x="0" id="background" onmousedown="bgmousedown(evt)"/>
<g id="foreground" transform="translate(63.2415254237288,0),scale(1.1440677966101696),translate(-134,-173)">
  <g id="edges"><g id="169"><path style="stroke:#bdbddf; stroke-width:8px; fill:none;" opacity="0.7" d="M 302,379 H 401 a 12,12 0 0,0 12,-12L 413,266"/><g><path style="stroke:#ff0; stroke-width:8px; fill:none; " opacity="0" d="M 302,379 H 401 a 12,12 0 0,0 12,-12L 413,266"/></g><path style="stroke:black; fill:none;" d="M 302,379 H 401 a 12,12 0 0,0 12,-12L 413,266"/><g><g><path style="stroke:#0ff; stroke-width:8px; fill:none; " opacity="0" d="M 302,379 L 413,379" onmousedown='segmousedown("169","0",evt);' onmouseover='segmouseover("169","0",evt);' onmouseout='segmouseout("169","0",evt);' onclick='segclick("169","0",evt);'/><path style="stroke:#0ff; stroke-width:8px; fill:none; " opacity="0" d="M 413,379 L 413,266" onmousedown='segmousedown("169","1",evt);' onmouseover='segmouseover("169","1",evt);' onmouseout='segmouseout("169","1",evt);' onclick='segclick("169","1",evt);'/></g></g></g><g id="170"><path style="stroke:#bdbddf; stroke-width:8px; fill:none;" opacity="0.7" d="M 413,236 V 210 a 12,12 0 0,0 -12,-12 H 186 a 12,12 0 0,0 -12,12L 174,239"/><g><path style="stroke:#ff0; stroke-width:8px; fill:none; " opacity="0" d="M 413,236 V 210 a 12,12 0 0,0 -12,-12 H 186 a 12,12 0 0,0 -12,12L 174,239"/></g><path style="stroke:black; fill:none;" d="M 413,236 V 210 a 12,12 0 0,0 -12,-12 H 186 a 12,12 0 0,0 -12,12L 174,239"/><g><g><path style="stroke:#0ff; stroke-width:8px; fill:none; " opacity="0" d="M 413,236 L 413,198" onmousedown='segmousedown("170","0",evt);' onmouseover='segmouseover("170","0",evt);' onmouseout='segmouseout("170","0",evt);' onclick='segclick("170","0",evt);'/><path style="stroke:#0ff; stroke-width:8px; fill:none; " opacity="0" d="M 413,198 L 174,198" onmousedown='segmousedown("170","1",evt);' onmouseover='segmouseover("170","1",evt);' onmouseout='segmouseout("170","1",evt);' onclick='segclick("170","1",evt);'/><path style="stroke:#0ff; stroke-width:8px; fill:none; " opacity="0" d="M 174,198 L 174,239" onmousedown='segmousedown("170","2",evt);' onmouseover='segmouseover("170","2",evt);' onmouseout='segmouseout("170","2",evt);' onclick='segclick("170","2",evt);'/></g></g></g><g id="171"><path style="stroke:#bdbddf; stroke-width:8px; fill:none;" opacity="0.7" d="M 199,256L 271,256"/><g><path style="stroke:#ff0; stroke-width:8px; fill:none; " opacity="0" d="M 199,256L 271,256"/></g><path style="stroke:black; fill:none;" d="M 199,256L 271,256"/><g><g><path style="stroke:#0ff; stroke-width:8px; fill:none; " opacity="0" d="M 199,256 L 271,256" onmousedown='segmousedown("171","0",evt);' onmouseover='segmouseover("171","0",evt);' onmouseout='segmouseout("171","0",evt);' onclick='segclick("171","0",evt);'/></g></g></g><g id="172"><path style="stroke:#bdbddf; stroke-width:8px; fill:none;" opacity="0.7" d="M 301,256 H 408 a 5,5 0 0,1 5,5L 413,266"/><g><path style="stroke:#ff0; stroke-width:8px; fill:none; " opacity="0" d="M 301,256 H 408 a 5,5 0 0,1 5,5L 413,266"/></g><path style="stroke:black; fill:none;" d="M 301,256 H 408 a 5,5 0 0,1 5,5L 413,266"/><g><g><path style="stroke:#0ff; stroke-width:8px; fill:none; " opacity="0" d="M 301,256 L 413,256" onmousedown='segmousedown("172","0",evt);' onmouseover='segmouseover("172","0",evt);' onmouseout='segmouseout("172","0",evt);' onclick='segclick("172","0",evt);'/><path style="stroke:#0ff; stroke-width:8px; fill:none; " opacity="0" d="M 413,256 L 413,266" onmousedown='segmousedown("172","1",evt);' onmouseover='segmouseover("172","1",evt);' onmouseout='segmouseout("172","1",evt);' onclick='segclick("172","1",evt);'/></g></g></g><g id="173"><path style="stroke:#bdbddf; stroke-width:8px; fill:none;" opacity="0.7" d="M 174,269 V 367 a 12,12 0 0,0 12,12L 272,379"/><g><path style="stroke:#ff0; stroke-width:8px; fill:none; " opacity="0" d="M 174,269 V 367 a 12,12 0 0,0 12,12L 272,379"/></g><path style="stroke:black; fill:none;" d="M 174,269 V 367 a 12,12 0 0,0 12,12L 272,379"/><g><g><path style="stroke:#0ff; stroke-width:8px; fill:none; " opacity="0" d="M 174,269 L 174,379" onmousedown='segmousedown("173","0",evt);' onmouseover='segmouseover("173","0",evt);' onmouseout='segmouseout("173","0",evt);' onclick='segclick("173","0",evt);'/><path style="stroke:#0ff; stroke-width:8px; fill:none; " opacity="0" d="M 174,379 L 272,379" onmousedown='segmousedown("173","1",evt);' onmouseover='segmouseover("173","1",evt);' onmouseout='segmouseout("173","1",evt);' onclick='segclick("173","1",evt);'/></g></g></g><g id="174"><path style="stroke:#bdbddf; stroke-width:8px; fill:none;" opacity="0.7" d="M 286,364L 286,279.5"/><g><path style="stroke:#ff0; stroke-width:8px; fill:none; " opacity="0" d="M 286,364L 286,279.5"/></g><path style="stroke:black; fill:none;" d="M 286,364L 286,279.5"/><g><g><path style="stroke:#0ff; stroke-width:8px; fill:none; " opacity="0" d="M 286,364 L 286,279.5" onmousedown='segmousedown("174","0",evt);' onmouseover='segmouseover("174","0",evt);' onmouseout='segmouseout("174","0",evt);' onclick='segclick("174","0",evt);'/></g></g></g></g>
  <g id="nodes"><g id="165" onmousedown="nodemousedown(165,evt);" onmouseover="nodemouseover(165,evt);" onmouseout="nodemouseout(165,evt);" transform="translate(174,254)"><rect x="-31" y="-21" width="62" height="42" fill="#0ff" style="stroke:none; opacity:0.75;" display="none"/><rect x="-25" y="-15" width="50" height="30" fill="#f0f0d2" style="stroke:black; opacity:1;"/></g><g id="167" onmousedown="nodemousedown(167,evt);" onmouseover="nodemouseover(167,evt);" onmouseout="nodemouseout(167,evt);" transform="translate(413,251)"><rect x="-21" y="-21" width="42" height="42" fill="#0ff" style="stroke:none; opacity:0.75;" display="none"/><rect x="-15" y="-15" width="30" height="30" fill="#f0f0d2" style="stroke:black; opacity:1;"/></g><g id="168" onmousedown="nodemousedown(168,evt);" onmouseover="nodemouseover(168,evt);" onmouseout="nodemouseout(168,evt);" transform="translate(287,379)"><rect x="-21" y="-21" width="42" height="42" fill="#0ff" style="stroke:none; opacity:0.75;" display="none"/><rect x="-15" y="-15" width="30" height="30" fill="#f0f0d2" style="stroke:black; opacity:1;"/></g><g id="166" onmousedown="nodemousedown(166,evt);" onmouseover="nodemouseover(166,evt);" onmouseout="nodemouseout(166,evt);" transform="translate(286,256)"><rect x="-21" y="-29.5" width="42" height="59" fill="#0ff" style="stroke:none; opacity:0.75;" display="none"/><rect x="-15" y="-23.5" width="30" height="47" fill="#f0f0d2" style="stroke:black; opacity:1;"/></g></g>
  <g id="BPs"><g onmousedown="bpmousedown(191,evt);" onmouseover="bpmouseover(191,evt);" onmouseout="bpmouseout(191,evt);" transform="translate(413,256)" opacity="0"><ellipse cx="0" cy="0" rx="16" ry="16" fill="#0ff" style="stroke:none; opacity:0.75;" display="none"/><ellipse cx="0" cy="0" rx="9.200000000000001" ry="9.200000000000001" fill="#777" style="stroke:black;"/></g><g onmousedown="bpmousedown(202,evt);" onmouseover="bpmouseover(202,evt);" onmouseout="bpmouseout(202,evt);" transform="translate(174,379)" opacity="0"><ellipse cx="0" cy="0" rx="16" ry="16" fill="#0ff" style="stroke:none; opacity:0.75;" display="none"/><ellipse cx="0" cy="0" rx="9.200000000000001" ry="9.200000000000001" fill="#777" style="stroke:black;"/></g><g onmousedown="bpmousedown(203,evt);" onmouseover="bpmouseover(203,evt);" onmouseout="bpmouseout(203,evt);" transform="translate(413,379)" opacity="0"><ellipse cx="0" cy="0" rx="16" ry="16" fill="#0ff" style="stroke:none; opacity:0.75;" display="none"/><ellipse cx="0" cy="0" rx="9.200000000000001" ry="9.200000000000001" fill="#777" style="stroke:black;"/></g><g onmousedown="bpmousedown(210,evt);" onmouseover="bpmouseover(210,evt);" onmouseout="bpmouseout(210,evt);" transform="translate(413,198)" opacity="0"><ellipse cx="0" cy="0" rx="16" ry="16" fill="#0ff" style="stroke:none; opacity:0.75;" display="none"/><ellipse cx="0" cy="0" rx="6.5908152320000015" ry="6.5908152320000015" fill="#777" style="stroke:black;"/></g><g onmousedown="bpmousedown(211,evt);" onmouseover="bpmouseover(211,evt);" onmouseout="bpmouseout(211,evt);" transform="translate(174,198)" opacity="0"><ellipse cx="0" cy="0" rx="16" ry="16" fill="#0ff" style="stroke:none; opacity:0.75;" display="none"/><ellipse cx="0" cy="0" rx="6.5908152320000015" ry="6.5908152320000015" fill="#777" style="stroke:black;"/></g></g>
  <g id="ports"/>
</g>
</svg>