<svg xmlns:xlink="http://www.w3.org/1999/xlink" xmlns="http://www.w3.org/2000/svg" height="270px" width="480px" id="SVGCanvas" onmouseup="" onmousemove="">
<rect fill="#bdbddf" width="100%" height="100%" y="0" x="0" id="background" onmousedown="bgmousedown(evt)"/>
<g id="foreground" transform="translate(102.74498886414256,0),scale(0.6013363028953229),translate(49,-85)">
  <g id="edges"><g id="266"><path style="stroke:#bdbddf; stroke-width:8px; fill:none;" opacity="0.7" d="M 259,503L 339.5,503"/><g><path style="stroke:#ff0; stroke-width:8px; fill:none; " opacity="0" d="M 259,503L 339.5,503"/></g><path style="stroke:black; fill:none;" d="M 259,503L 339.5,503"/><g><g><path style="stroke:#0ff; stroke-width:8px; fill:none; " opacity="0" d="M 259,503 L 339.5,503" onmousedown='segmousedown("266","0",evt);' onmouseover='segmouseover("266","0",evt);' onmouseout='segmouseout("266","0",evt);' onclick='segclick("266","0",evt);'/></g></g></g><g id="267"><path style="stroke:#bdbddf; stroke-width:8px; fill:none;" opacity="0.7" d="M 377,480L 377,412"/><g><path style="stroke:#ff0; stroke-width:8px; fill:none; " opacity="0" d="M 377,480L 377,412"/></g><path style="stroke:black; fill:none;" d="M 377,480L 377,412"/><g><g><path style="stroke:#0ff; stroke-width:8px; fill:none; " opacity="0" d="M 377,480 L 377,412" onmousedown='segmousedown("267","0",evt);' onmouseover='segmouseover("267","0",evt);' onmouseout='segmouseout("267","0",evt);' onclick='segclick("267","0",evt);'/></g></g></g><g id="268"><path style="stroke:#bdbddf; stroke-width:8px; fill:none;" opacity="0.7" d="M 149,317 V 492 a 12,12 0 0,0 12,12L 229,504"/><g><path style="stroke:#ff0; stroke-width:8px; fill:none; " opacity="0" d="M 149,317 V 492 a 12,12 0 0,0 12,12L 229,504"/></g><path style="stroke:black; fill:none;" d="M 149,317 V 492 a 12,12 0 0,0 12,12L 229,504"/><g><g><path style="stroke:#0ff; stroke-width:8px; fill:none; " opacity="0" d="M 149,317 L 149,504" onmousedown='segmousedown("268","0",evt);' onmouseover='segmouseover("268","0",evt);' onmouseout='segmouseout("268","0",evt);' onclick='segclick("268","0",evt);'/><path style="stroke:#0ff; stroke-width:8px; fill:none; " opacity="0" d="M 149,504 L 229,504" onmousedown='segmousedown("268","1",evt);' onmouseover='segmouseover("268","1",evt);' onmouseout='segmouseout("268","1",evt);' onclick='segclick("268","1",evt);'/></g></g></g><g id="269"><path style="stroke:#bdbddf; stroke-width:8px; fill:none;" opacity="0.7" d="M 134,307L 88,307"/><g><path style="stroke:#ff0; stroke-width:8px; fill:none; " opacity="0" d="M 134,307L 88,307"/></g><path style="stroke:black; fill:none;" d="M 134,307L 88,307"/><g><g><path style="stroke:#0ff; stroke-width:8px; fill:none; " opacity="0" d="M 134,307 L 88,307" onmousedown='segmousedown("269","0",evt);' onmouseover='segmouseover("269","0",evt);' onmouseout='segmouseout("269","0",evt);' onclick='segclick("269","0",evt);'/></g></g></g><g id="270"><path style="stroke:#bdbddf; stroke-width:8px; fill:none;" opacity="0.7" d="M 58,307L 16,307"/><g><path style="stroke:#ff0; stroke-width:8px; fill:none; " opacity="0" d="M 58,307L 16,307"/></g><path style="stroke:black; fill:none;" d="M 58,307L 16,307"/><g><g><path style="stroke:#0ff; stroke-width:8px; fill:none; " opacity="0" d="M 58,307 L 16,307" onmousedown='segmousedown("270","0",evt);' onmouseover='segmouseover("270","0",evt);' onmouseout='segmouseout("270","0",evt);' onclick='segclick("270","0",evt);'/></g></g></g><g id="271"><path style="stroke:#bdbddf; stroke-width:8px; fill:none;" opacity="0.7" d="M 362,397L 322,397"/><g><path style="stroke:#ff0; stroke-width:8px; fill:none; " opacity="0" d="M 362,397L 322,397"/></g><path style="stroke:black; fill:none;" d="M 362,397L 322,397"/><g><g><path style="stroke:#0ff; stroke-width:8px; fill:none; " opacity="0" d="M 362,397 L 322,397" onmousedown='segmousedown("271","0",evt);' onmouseover='segmouseover("271","0",evt);' onmouseout='segmouseout("271","0",evt);' onclick='segclick("271","0",evt);'/></g></g></g><g id="272"><path style="stroke:#bdbddf; stroke-width:8px; fill:none;" opacity="0.7" d="M 280,400L 228,400"/><g><path style="stroke:#ff0; stroke-width:8px; fill:none; " opacity="0" d="M 280,400L 228,400"/></g><path style="stroke:black; fill:none;" d="M 280,400L 228,400"/><g><g><path style="stroke:#0ff; stroke-width:8px; fill:none; " opacity="0" d="M 280,400 L 228,400" onmousedown='segmousedown("272","0",evt);' onmouseover='segmouseover("272","0",evt);' onmouseout='segmouseout("272","0",evt);' onclick='segclick("272","0",evt);'/></g></g></g><g id="273"><path style="stroke:#bdbddf; stroke-width:8px; fill:none;" opacity="0.7" d="M 198,399 H 169 a 12,12 0 0,1 -12,-12L 157,317"/><g><path style="stroke:#ff0; stroke-width:8px; fill:none; " opacity="0" d="M 198,399 H 169 a 12,12 0 0,1 -12,-12L 157,317"/></g><path style="stroke:black; fill:none;" d="M 198,399 H 169 a 12,12 0 0,1 -12,-12L 157,317"/><g><g><path style="stroke:#0ff; stroke-width:8px; fill:none; " opacity="0" d="M 198,399 L 157,399" onmousedown='segmousedown("273","0",evt);' onmouseover='segmouseover("273","0",evt);' onmouseout='segmouseout("273","0",evt);' onclick='segclick("273","0",evt);'/><path style="stroke:#0ff; stroke-width:8px; fill:none; " opacity="0" d="M 157,399 L 157,317" onmousedown='segmousedown("273","1",evt);' onmouseover='segmouseover("273","1",evt);' onmouseout='segmouseout("273","1",evt);' onclick='segclick("273","1",evt);'/></g></g></g><g id="274"><path style="stroke:#bdbddf; stroke-width:8px; fill:none;" opacity="0.7" d="M -9,292L -9,215"/><g><path style="stroke:#ff0; stroke-width:8px; fill:none; " opacity="0" d="M -9,292L -9,215"/></g><path style="stroke:black; fill:none;" d="M -9,292L -9,215"/><g><g><path style="stroke:#0ff; stroke-width:8px; fill:none; " opacity="0" d="M -9,292 L -9,215" onmousedown='segmousedown("274","0",evt);' onmouseover='segmouseover("274","0",evt);' onmouseout='segmouseout("274","0",evt);' onclick='segclick("274","0",evt);'/></g></g></g><g id="275"><path style="stroke:#bdbddf; stroke-width:8px; fill:none;" opacity="0.7" d="M -9,322L -9,412"/><g><path style="stroke:#ff0; stroke-width:8px; fill:none; " opacity="0" d="M -9,322L -9,412"/></g><path style="stroke:black; fill:none;" d="M -9,322L -9,412"/><g><g><path style="stroke:#0ff; stroke-width:8px; fill:none; " opacity="0" d="M -9,322 L -9,412" onmousedown='segmousedown("275","0",evt);' onmouseover='segmouseover("275","0",evt);' onmouseout='segmouseout("275","0",evt);' onclick='segclick("275","0",evt);'/></g></g></g><g id="276"><path style="stroke:#bdbddf; stroke-width:8px; fill:none;" opacity="0.7" d="M 149,287 V 140 a 12,12 0 0,1 12,-12L 195,128"/><g><path style="stroke:#ff0; stroke-width:8px; fill:none; " opacity="0" d="M 149,287 V 140 a 12,12 0 0,1 12,-12L 195,128"/></g><path style="stroke:black; fill:none;" d="M 149,287 V 140 a 12,12 0 0,1 12,-12L 195,128"/><g><g><path style="stroke:#0ff; stroke-width:8px; fill:none; " opacity="0" d="M 149,287 L 149,128" onmousedown='segmousedown("276","0",evt);' onmouseover='segmouseover("276","0",evt);' onmouseout='segmouseout("276","0",evt);' onclick='segclick("276","0",evt);'/><path style="stroke:#0ff; stroke-width:8px; fill:none; " opacity="0" d="M 149,128 L 195,128" onmousedown='segmousedown("276","1",evt);' onmouseover='segmouseover("276","1",evt);' onmouseout='segmouseout("276","1",evt);' onclick='segclick("276","1",evt);'/></g></g></g><g id="277"><path style="stroke:#bdbddf; stroke-width:8px; fill:none;" opacity="0.7" d="M 225,128 H 293 a 5,5 0 0,1 5,5L 298,138"/><g><path style="stroke:#ff0; stroke-width:8px; fill:none; " opacity="0" d="M 225,128 H 293 a 5,5 0 0,1 5,5L 298,138"/></g><path style="stroke:black; fill:none;" d="M 225,128 H 293 a 5,5 0 0,1 5,5L 298,138"/><g><g><path style="stroke:#0ff; stroke-width:8px; fill:none; " opacity="0" d="M 225,128 L 298,128" onmousedown='segmousedown("277","0",evt);' onmouseover='segmouseover("277","0",evt);' onmouseout='segmouseout("277","0",evt);' onclick='segclick("277","0",evt);'/><path style="stroke:#0ff; stroke-width:8px; fill:none; " opacity="0" d="M 298,128 L 298,138" onmousedown='segmousedown("277","1",evt);' onmouseover='segmouseover("277","1",evt);' onmouseout='segmouseout("277","1",evt);' onclick='segclick("277","1",evt);'/></g></g></g><g id="278"><path style="stroke:#bdbddf; stroke-width:8px; fill:none;" opacity="0.7" d="M 298,138L 298,214"/><g><path style="stroke:#ff0; stroke-width:8px; fill:none; " opacity="0" d="M 298,138L 298,214"/></g><path style="stroke:black; fill:none;" d="M 298,138L 298,214"/><g><g><path style="stroke:#0ff; stroke-width:8px; fill:none; " opacity="0" d="M 298,138 L 298,214" onmousedown='segmousedown("278","0",evt);' onmouseover='segmouseover("278","0",evt);' onmouseout='segmouseout("278","0",evt);' onclick='segclick("278","0",evt);'/></g></g></g><g id="279"><path style="stroke:#bdbddf; stroke-width:8px; fill:none;" opacity="0.7" d="M 283,229 H 168 a 12,12 0 0,0 -12,12L 156,287"/><g><path style="stroke:#ff0; stroke-width:8px; fill:none; " opacity="0" d="M 283,229 H 168 a 12,12 0 0,0 -12,12L 156,287"/></g><path style="stroke:black; fill:none;" d="M 283,229 H 168 a 12,12 0 0,0 -12,12L 156,287"/><g><g><path style="stroke:#0ff; stroke-width:8px; fill:none; " opacity="0" d="M 283,229 L 156,229" onmousedown='segmousedown("279","0",evt);' onmouseover='segmouseover("279","0",evt);' onmouseout='segmouseout("279","0",evt);' onclick='segclick("279","0",evt);'/><path style="stroke:#0ff; stroke-width:8px; fill:none; " opacity="0" d="M 156,229 L 156,287" onmousedown='segmousedown("279","1",evt);' onmouseover='segmouseover("279","1",evt);' onmouseout='segmouseout("279","1",evt);' onclick='segclick("279","1",evt);'/></g></g></g></g>
  <g id="nodes"><g id="261" onmousedown="nodemousedown(261,evt);" onmouseover="nodemouseover(261,evt);" onmouseout="nodemouseout(261,evt);" transform="translate(-9,307)"><rect x="-31" y="-21" width="62" height="42" fill="#0ff" style="stroke:none; opacity:0.75;" display="none"/><rect x="-25" y="-15" width="50" height="30" fill="#f0f0d2" style="stroke:black; opacity:1;"/></g><g id="259" onmousedown="nodemousedown(259,evt);" onmouseover="nodemouseover(259,evt);" onmouseout="nodemouseout(259,evt);" transform="translate(73,307)"><rect x="-21" y="-21" width="42" height="42" fill="#0ff" style="stroke:none; opacity:0.75;" display="none"/><rect x="-15" y="-15" width="30" height="30" fill="#f0f0d2" style="stroke:black; opacity:1;"/></g><g id="264" onmousedown="nodemousedown(264,evt);" onmouseover="nodemouseover(264,evt);" onmouseout="nodemouseout(264,evt);" transform="translate(298,123)"><rect x="-21" y="-21" width="42" height="42" fill="#0ff" style="stroke:none; opacity:0.75;" display="none"/><rect x="-15" y="-15" width="30" height="30" fill="#f0f0d2" style="stroke:black; opacity:1;"/></g><g id="258" onmousedown="nodemousedown(258,evt);" onmouseover="nodemouseover(258,evt);" onmouseout="nodemouseout(258,evt);" transform="translate(149,302)"><rect x="-21" y="-21" width="42" height="42" fill="#0ff" style="stroke:none; opacity:0.75;" display="none"/><rect x="-15" y="-15" width="30" height="30" fill="#f0f0d2" style="stroke:black; opacity:1;"/></g><g id="263" onmousedown="nodemousedown(263,evt);" onmouseover="nodemouseover(263,evt);" onmouseout="nodemouseout(263,evt);" transform="translate(210,128)"><rect x="-21" y="-34" width="42" height="68" fill="#0ff" style="stroke:none; opacity:0.75;" display="none"/><rect x="-15" y="-28" width="30" height="56" fill="#f0f0d2" style="stroke:black; opacity:1;"/></g><g id="265" onmousedown="nodemousedown(265,evt);" onmouseover="nodemouseover(265,evt);" onmouseout="nodemouseout(265,evt);" transform="translate(298,229)"><rect x="-21" y="-21" width="42" height="42" fill="#0ff" style="stroke:none; opacity:0.75;" display="none"/><rect x="-15" y="-15" width="30" height="30" fill="#f0f0d2" style="stroke:black; opacity:1;"/></g><g id="257" onmousedown="nodemousedown(257,evt);" onmouseover="nodemouseover(257,evt);" onmouseout="nodemouseout(257,evt);" transform="translate(213,399)"><rect x="-21" y="-21" width="42" height="42" fill="#0ff" style="stroke:none; opacity:0.75;" display="none"/><rect x="-15" y="-15" width="30" height="30" fill="#f0f0d2" style="stroke:black; opacity:1;"/></g><g id="256" onmousedown="nodemousedown(256,evt);" onmouseover="nodemouseover(256,evt);" onmouseout="nodemouseout(256,evt);" transform="translate(301,404)"><rect x="-27" y="-31.5" width="54" height="63" fill="#0ff" style="stroke:none; opacity:0.75;" display="none"/><rect x="-21" y="-25.5" width="42" height="51" fill="#f0f0d2" style="stroke:black; opacity:1;"/></g><g id="255" onmousedown="nodemousedown(255,evt);" onmouseover="nodemouseover(255,evt);" onmouseout="nodemouseout(255,evt);" transform="translate(377,397)"><rect x="-21" y="-21" width="42" height="42" fill="#0ff" style="stroke:none; opacity:0.75;" display="none"/><rect x="-15" y="-15" width="30" height="30" fill="#f0f0d2" style="stroke:black; opacity:1;"/></g><g id="254" onmousedown="nodemousedown(254,evt);" onmouseover="nodemouseover(254,evt);" onmouseout="nodemouseout(254,evt);" transform="translate(366,495)"><rect x="-32.5" y="-21" width="65" height="42" fill="#0ff" style="stroke:none; opacity:0.75;" display="none"/><rect x="-26.5" y="-15" width="53" height="30" fill="#f0f0d2" style="stroke:black; opacity:1;"/></g><g id="253" onmousedown="nodemousedown(253,evt);" onmouseover="nodemouseover(253,evt);" onmouseout="nodemouseout(253,evt);" transform="translate(244,504)"><rect x="-21" y="-21" width="42" height="42" fill="#0ff" style="stroke:none; opacity:0.75;" display="none"/><rect x="-15" y="-15" width="30" height="30" fill="#f0f0d2" style="stroke:black; opacity:1;"/></g><g id="260" onmousedown="nodemousedown(260,evt);" onmouseover="nodemouseover(260,evt);" onmouseout="nodemouseout(260,evt);" transform="translate(-9,200)"><rect x="-21" y="-21" width="42" height="42" fill="#0ff" style="stroke:none; opacity:0.75;" display="none"/><rect x="-15" y="-15" width="30" height="30" fill="#f0f0d2" style="stroke:black; opacity:1;"/></g><g id="262" onmousedown="nodemousedown(262,evt);" onmouseover="nodemouseover(262,evt);" onmouseout="nodemouseout(262,evt);" transform="translate(-9,427)"><rect x="-21" y="-21" width="42" height="42" fill="#0ff" style="stroke:none; opacity:0.75;" display="none"/><rect x="-15" y="-15" width="30" height="30" fill="#f0f0d2" style="stroke:black; opacity:1;"/></g></g>
  <g id="BPs"><g onmousedown="bpmousedown(289,evt);" onmouseover="bpmouseover(289,evt);" onmouseout="bpmouseout(289,evt);" transform="translate(149,504)" opacity="0"><ellipse cx="0" cy="0" rx="16" ry="16" fill="#0ff" style="stroke:none; opacity:0.75;" display="none"/><ellipse cx="0" cy="0" rx="8.464" ry="8.464" fill="#777" style="stroke:black;"/></g><g onmousedown="bpmousedown(318,evt);" onmouseover="bpmouseover(318,evt);" onmouseout="bpmouseout(318,evt);" transform="translate(298,128)" opacity="0"><ellipse cx="0" cy="0" rx="16" ry="16" fill="#0ff" style="stroke:none; opacity:0.75;" display="none"/><ellipse cx="0" cy="0" rx="8.464" ry="8.464" fill="#777" style="stroke:black;"/></g><g onmousedown="bpmousedown(338,evt);" onmouseover="bpmouseover(338,evt);" onmouseout="bpmouseout(338,evt);" transform="translate(149,128)" opacity="0"><ellipse cx="0" cy="0" rx="16" ry="16" fill="#0ff" style="stroke:none; opacity:0.75;" display="none"/><ellipse cx="0" cy="0" rx="8.464" ry="8.464" fill="#777" style="stroke:black;"/></g><g onmousedown="bpmousedown(339,evt);" onmouseover="bpmouseover(339,evt);" onmouseout="bpmouseout(339,evt);" transform="translate(156,229)" opacity="0"><ellipse cx="0" cy="0" rx="16" ry="16" fill="#0ff" style="stroke:none; opacity:0.75;" display="none"/><ellipse cx="0" cy="0" rx="8.464" ry="8.464" fill="#777" style="stroke:black;"/></g><g onmousedown="bpmousedown(367,evt);" onmouseover="bpmouseover(367,evt);" onmouseout="bpmouseout(367,evt);" transform="translate(157,399)" opacity="0"><ellipse cx="0" cy="0" rx="16" ry="16" fill="#0ff" style="stroke:none; opacity:0.75;" display="none"/><ellipse cx="0" cy="0" rx="8.464" ry="8.464" fill="#777" style="stroke:black;"/></g></g>
  <g id="ports"/>
</g>
</svg>