<svg xmlns:xlink="http://www.w3.org/1999/xlink" xmlns="http://www.w3.org/2000/svg" height="270px" width="480px" id="SVGCanvas" onmouseup="" onmousemove="">
<rect fill="#bdbddf" width="100%" height="100%" y="0" x="0" id="background" onmousedown="bgmousedown(evt)"/>
<g id="foreground" transform="translate(-2.842170943040401e-14,49.542974079126864),scale(0.654843110504775),translate(28,-28)">
  <g id="edges"><g id="241"><path style="stroke:#bdbddf; stroke-width:8px; fill:none;" opacity="0.7" d="M 252,259L 424,259"/><g><path style="stroke:#ff0; stroke-width:8px; fill:none; " opacity="0" d="M 252,259L 424,259"/></g><path style="stroke:black; fill:none;" d="M 252,259L 424,259"/><g><g><path style="stroke:#0ff; stroke-width:8px; fill:none; " opacity="0" d="M 252,259 L 424,259" onmousedown='segmousedown("241","0",evt);' onmouseover='segmouseover("241","0",evt);' onmouseout='segmouseout("241","0",evt);' onclick='segclick("241","0",evt);'/></g></g></g><g id="242"><path style="stroke:#bdbddf; stroke-width:8px; fill:none;" opacity="0.7" d="M 439,238L 439,145"/><g><path style="stroke:#ff0; stroke-width:8px; fill:none; " opacity="0" d="M 439,238L 439,145"/></g><path style="stroke:black; fill:none;" d="M 439,238L 439,145"/><g><g><path style="stroke:#0ff; stroke-width:8px; fill:none; " opacity="0" d="M 439,238 L 439,145" onmousedown='segmousedown("242","0",evt);' onmouseover='segmouseover("242","0",evt);' onmouseout='segmouseout("242","0",evt);' onclick='segclick("242","0",evt);'/></g></g></g><g id="243"><path style="stroke:#bdbddf; stroke-width:8px; fill:none;" opacity="0.7" d="M 424,124L 242,124"/><g><path style="stroke:#ff0; stroke-width:8px; fill:none; " opacity="0" d="M 424,124L 242,124"/></g><path style="stroke:black; fill:none;" d="M 424,124L 242,124"/><g><g><path style="stroke:#0ff; stroke-width:8px; fill:none; " opacity="0" d="M 424,124 L 242,124" onmousedown='segmousedown("243","0",evt);' onmouseover='segmouseover("243","0",evt);' onmouseout='segmouseout("243","0",evt);' onclick='segclick("243","0",evt);'/></g></g></g><g id="244"><path style="stroke:#bdbddf; stroke-width:8px; fill:none;" opacity="0.7" d="M 234,139L 234,244"/><g><path style="stroke:#ff0; stroke-width:8px; fill:none; " opacity="0" d="M 234,139L 234,244"/></g><path style="stroke:black; fill:none;" d="M 234,139L 234,244"/><g><g><path style="stroke:#0ff; stroke-width:8px; fill:none; " opacity="0" d="M 234,139 L 234,244" onmousedown='segmousedown("244","0",evt);' onmouseover='segmouseover("244","0",evt);' onmouseout='segmouseout("244","0",evt);' onclick='segclick("244","0",evt);'/></g></g></g><g id="245"><path style="stroke:#bdbddf; stroke-width:8px; fill:none;" opacity="0.7" d="M 454,253L 482,253"/><g><path style="stroke:#ff0; stroke-width:8px; fill:none; " opacity="0" d="M 454,253L 482,253"/></g><path style="stroke:black; fill:none;" d="M 454,253L 482,253"/><g><g><path style="stroke:#0ff; stroke-width:8px; fill:none; " opacity="0" d="M 454,253 L 482,253" onmousedown='segmousedown("245","0",evt);' onmouseover='segmouseover("245","0",evt);' onmouseout='segmouseout("245","0",evt);' onclick='segclick("245","0",evt);'/></g></g></g><g id="246"><path style="stroke:#bdbddf; stroke-width:8px; fill:none;" opacity="0.7" d="M 512,253L 536,253"/><g><path style="stroke:#ff0; stroke-width:8px; fill:none; " opacity="0" d="M 512,253L 536,253"/></g><path style="stroke:black; fill:none;" d="M 512,253L 536,253"/><g><g><path style="stroke:#0ff; stroke-width:8px; fill:none; " opacity="0" d="M 512,253 L 536,253" onmousedown='segmousedown("246","0",evt);' onmouseover='segmouseover("246","0",evt);' onmouseout='segmouseout("246","0",evt);' onclick='segclick("246","0",evt);'/></g></g></g><g id="247"><path style="stroke:#bdbddf; stroke-width:8px; fill:none;" opacity="0.7" d="M 566,253L 598,253"/><g><path style="stroke:#ff0; stroke-width:8px; fill:none; " opacity="0" d="M 566,253L 598,253"/></g><path style="stroke:black; fill:none;" d="M 566,253L 598,253"/><g><g><path style="stroke:#0ff; stroke-width:8px; fill:none; " opacity="0" d="M 566,253 L 598,253" onmousedown='segmousedown("247","0",evt);' onmouseover='segmouseover("247","0",evt);' onmouseout='segmouseout("247","0",evt);' onclick='segclick("247","0",evt);'/></g></g></g><g id="248"><path style="stroke:#bdbddf; stroke-width:8px; fill:none;" opacity="0.7" d="M 598,253L 660,253"/><g><path style="stroke:#ff0; stroke-width:8px; fill:none; " opacity="0" d="M 598,253L 660,253"/></g><path style="stroke:black; fill:none;" d="M 598,253L 660,253"/><g><g><path style="stroke:#0ff; stroke-width:8px; fill:none; " opacity="0" d="M 598,253 L 660,253" onmousedown='segmousedown("248","0",evt);' onmouseover='segmouseover("248","0",evt);' onmouseout='segmouseout("248","0",evt);' onclick='segclick("248","0",evt);'/></g></g></g><g id="249"><path style="stroke:#bdbddf; stroke-width:8px; fill:none;" opacity="0.7" d="M 212,124L 160,124"/><g><path style="stroke:#ff0; stroke-width:8px; fill:none; " opacity="0" d="M 212,124L 160,124"/></g><path style="stroke:black; fill:none;" d="M 212,124L 160,124"/><g><g><path style="stroke:#0ff; stroke-width:8px; fill:none; " opacity="0" d="M 212,124 L 160,124" onmousedown='segmousedown("249","0",evt);' onmouseover='segmouseover("249","0",evt);' onmouseout='segmouseout("249","0",evt);' onclick='segclick("249","0",evt);'/></g></g></g><g id="250"><path style="stroke:#bdbddf; stroke-width:8px; fill:none;" opacity="0.7" d="M 130,124L 91,124"/><g><path style="stroke:#ff0; stroke-width:8px; fill:none; " opacity="0" d="M 130,124L 91,124"/></g><path style="stroke:black; fill:none;" d="M 130,124L 91,124"/><g><g><path style="stroke:#0ff; stroke-width:8px; fill:none; " opacity="0" d="M 130,124 L 91,124" onmousedown='segmousedown("250","0",evt);' onmouseover='segmouseover("250","0",evt);' onmouseout='segmouseout("250","0",evt);' onclick='segclick("250","0",evt);'/></g></g></g><g id="251"><path style="stroke:#bdbddf; stroke-width:8px; fill:none;" opacity="0.7" d="M 61,124L 17,124"/><g><path style="stroke:#ff0; stroke-width:8px; fill:none; " opacity="0" d="M 61,124L 17,124"/></g><path style="stroke:black; fill:none;" d="M 61,124L 17,124"/><g><g><path style="stroke:#0ff; stroke-width:8px; fill:none; " opacity="0" d="M 61,124 L 17,124" onmousedown='segmousedown("251","0",evt);' onmouseover='segmouseover("251","0",evt);' onmouseout='segmouseout("251","0",evt);' onclick='segclick("251","0",evt);'/></g></g></g><g id="252"><path style="stroke:#bdbddf; stroke-width:8px; fill:none;" opacity="0.7" d="M 145,109L 145,73"/><g><path style="stroke:#ff0; stroke-width:8px; fill:none; " opacity="0" d="M 145,109L 145,73"/></g><path style="stroke:black; fill:none;" d="M 145,109L 145,73"/><g><g><path style="stroke:#0ff; stroke-width:8px; fill:none; " opacity="0" d="M 145,109 L 145,73" onmousedown='segmousedown("252","0",evt);' onmouseover='segmouseover("252","0",evt);' onmouseout='segmouseout("252","0",evt);' onclick='segclick("252","0",evt);'/></g></g></g></g>
  <g id="nodes"><g id="231" onmousedown="nodemousedown(231,evt);" onmouseover="nodemouseover(231,evt);" onmouseout="nodemouseout(231,evt);" transform="translate(439,253)"><rect x="-21" y="-21" width="42" height="42" fill="#0ff" style="stroke:none; opacity:0.75;" display="none"/><rect x="-15" y="-15" width="30" height="30" fill="#f0f0d2" style="stroke:black; opacity:1;"/></g><g id="229" onmousedown="nodemousedown(229,evt);" onmouseover="nodemouseover(229,evt);" onmouseout="nodemouseout(229,evt);" transform="translate(227,124)"><rect x="-21" y="-21" width="42" height="42" fill="#0ff" style="stroke:none; opacity:0.75;" display="none"/><rect x="-15" y="-15" width="30" height="30" fill="#f0f0d2" style="stroke:black; opacity:1;"/></g><g id="232" onmousedown="nodemousedown(232,evt);" onmouseover="nodemouseover(232,evt);" onmouseout="nodemouseout(232,evt);" transform="translate(439,130)"><rect x="-21" y="-21" width="42" height="42" fill="#0ff" style="stroke:none; opacity:0.75;" display="none"/><rect x="-15" y="-15" width="30" height="30" fill="#f0f0d2" style="stroke:black; opacity:1;"/></g><g id="230" onmousedown="nodemousedown(230,evt);" onmouseover="nodemouseover(230,evt);" onmouseout="nodemouseout(230,evt);" transform="translate(237,259)"><rect x="-21" y="-21" width="42" height="42" fill="#0ff" style="stroke:none; opacity:0.75;" display="none"/><rect x="-15" y="-15" width="30" height="30" fill="#f0f0d2" style="stroke:black; opacity:1;"/></g><g id="237" onmousedown="nodemousedown(237,evt);" onmouseover="nodemouseover(237,evt);" onmouseout="nodemouseout(237,evt);" transform="translate(145,124)"><rect x="-21" y="-21" width="42" height="42" fill="#0ff" style="stroke:none; opacity:0.75;" display="none"/><rect x="-15" y="-15" width="30" height="30" fill="#f0f0d2" style="stroke:black; opacity:1;"/></g><g id="239" onmousedown="nodemousedown(239,evt);" onmouseover="nodemouseover(239,evt);" onmouseout="nodemouseout(239,evt);" transform="translate(76,124)"><rect x="-21" y="-21" width="42" height="42" fill="#0ff" style="stroke:none; opacity:0.75;" display="none"/><rect x="-15" y="-15" width="30" height="30" fill="#f0f0d2" style="stroke:black; opacity:1;"/></g><g id="240" onmousedown="nodemousedown(240,evt);" onmouseover="nodemouseover(240,evt);" onmouseout="nodemouseout(240,evt);" transform="translate(2,124)"><rect x="-21" y="-21" width="42" height="42" fill="#0ff" style="stroke:none; opacity:0.75;" display="none"/><rect x="-15" y="-15" width="30" height="30" fill="#f0f0d2" style="stroke:black; opacity:1;"/></g><g id="238" onmousedown="nodemousedown(238,evt);" onmouseover="nodemouseover(238,evt);" onmouseout="nodemouseout(238,evt);" transform="translate(145,58)"><rect x="-21" y="-21" width="42" height="42" fill="#0ff" style="stroke:none; opacity:0.75;" display="none"/><rect x="-15" y="-15" width="30" height="30" fill="#f0f0d2" style="stroke:black; opacity:1;"/></g><g id="233" onmousedown="nodemousedown(233,evt);" onmouseover="nodemouseover(233,evt);" onmouseout="nodemouseout(233,evt);" transform="translate(497,253)"><rect x="-21" y="-21" width="42" height="42" fill="#0ff" style="stroke:none; opacity:0.75;" display="none"/><rect x="-15" y="-15" width="30" height="30" fill="#f0f0d2" style="stroke:black; opacity:1;"/></g><g id="234" onmousedown="nodemousedown(234,evt);" onmouseover="nodemouseover(234,evt);" onmouseout="nodemouseout(234,evt);" transform="translate(551,253)"><rect x="-21" y="-21" width="42" height="42" fill="#0ff" style="stroke:none; opacity:0.75;" display="none"/><rect x="-15" y="-15" width="30" height="30" fill="#f0f0d2" style="stroke:black; opacity:1;"/></g><g id="235" onmousedown="nodemousedown(235,evt);" onmouseover="nodemouseover(235,evt);" onmouseout="nodemouseout(235,evt);" transform="translate(613,253)"><rect x="-21" y="-21" width="42" height="42" fill="#0ff" style="stroke:none; opacity:0.75;" display="none"/><rect x="-15" y="-15" width="30" height="30" fill="#f0f0d2" style="stroke:black; opacity:1;"/></g><g id="236" onmousedown="nodemousedown(236,evt);" onmouseover="nodemouseover(236,evt);" onmouseout="nodemouseout(236,evt);" transform="translate(675,253)"><rect x="-21" y="-21" width="42" height="42" fill="#0ff" style="stroke:none; opacity:0.75;" display="none"/><rect x="-15" y="-15" width="30" height="30" fill="#f0f0d2" style="stroke:black; opacity:1;"/></g></g>
  <g id="BPs"/>
  <g id="ports"/>
</g>
</svg>