<svg xmlns:xlink="http://www.w3.org/1999/xlink" xmlns="http://www.w3.org/2000/svg" height="270px" width="480px" id="SVGCanvas" onmouseup="" onmousemove="">
<rect fill="#bdbddf" width="100%" height="100%" y="0" x="0" id="background" onmousedown="bgmousedown(evt)"/>
<g id="foreground" transform="translate(0,30.567567567567565),scale(0.6486486486486487),translate(126,-48)">
  <g id="edges"><g id="241"><path style="stroke:#bdbddf; stroke-width:8px; fill:none;" opacity="0.7" d="M 211,340L 469,340"/><g><path style="stroke:#ff0; stroke-width:8px; fill:none; " opacity="0" d="M 211,340L 469,340"/></g><path style="stroke:black; fill:none;" d="M 211,340L 469,340"/><g><g><path style="stroke:#0ff; stroke-width:8px; fill:none; " opacity="0" d="M 211,340 L 469,340" onmousedown='segmousedown("241","0",evt);' onmouseover='segmouseover("241","0",evt);' onmouseout='segmouseout("241","0",evt);' onclick='segclick("241","0",evt);'/></g></g></g><g id="242"><path style="stroke:#bdbddf; stroke-width:8px; fill:none;" opacity="0.7" d="M 499,326 H 577 a 12,12 0 0,0 12,-12 V 90 a 12,12 0 0,0 -12,-12L 500,78"/><g><path style="stroke:#ff0; stroke-width:8px; fill:none; " opacity="0" d="M 499,326 H 577 a 12,12 0 0,0 12,-12 V 90 a 12,12 0 0,0 -12,-12L 500,78"/></g><path style="stroke:black; fill:none;" d="M 499,326 H 577 a 12,12 0 0,0 12,-12 V 90 a 12,12 0 0,0 -12,-12L 500,78"/><g><g><path style="stroke:#0ff; stroke-width:8px; fill:none; " opacity="0" d="M 499,326 L 589,326" onmousedown='segmousedown("242","0",evt);' onmouseover='segmouseover("242","0",evt);' onmouseout='segmouseout("242","0",evt);' onclick='segclick("242","0",evt);'/><path style="stroke:#0ff; stroke-width:8px; fill:none; " opacity="0" d="M 589,326 L 589,78" onmousedown='segmousedown("242","1",evt);' onmouseover='segmouseover("242","1",evt);' onmouseout='segmouseout("242","1",evt);' onclick='segclick("242","1",evt);'/><path style="stroke:#0ff; stroke-width:8px; fill:none; " opacity="0" d="M 589,78 L 500,78" onmousedown='segmousedown("242","2",evt);' onmouseover='segmouseover("242","2",evt);' onmouseout='segmouseout("242","2",evt);' onclick='segclick("242","2",evt);'/></g></g></g><g id="243"><path style="stroke:#bdbddf; stroke-width:8px; fill:none;" opacity="0.7" d="M 470,79L 211,79"/><g><path style="stroke:#ff0; stroke-width:8px; fill:none; " opacity="0" d="M 470,79L 211,79"/></g><path style="stroke:black; fill:none;" d="M 470,79L 211,79"/><g><g><path style="stroke:#0ff; stroke-width:8px; fill:none; " opacity="0" d="M 470,79 L 211,79" onmousedown='segmousedown("243","0",evt);' onmouseover='segmouseover("243","0",evt);' onmouseout='segmouseout("243","0",evt);' onclick='segclick("243","0",evt);'/></g></g></g><g id="244"><path style="stroke:#bdbddf; stroke-width:8px; fill:none;" opacity="0.7" d="M 218,79L 218,340"/><g><path style="stroke:#ff0; stroke-width:8px; fill:none; " opacity="0" d="M 218,79L 218,340"/></g><path style="stroke:black; fill:none;" d="M 218,79L 218,340"/><g><g><path style="stroke:#0ff; stroke-width:8px; fill:none; " opacity="0" d="M 218,79 L 218,340" onmousedown='segmousedown("244","0",evt);' onmouseover='segmouseover("244","0",evt);' onmouseout='segmouseout("244","0",evt);' onclick='segclick("244","0",evt);'/></g></g></g><g id="245"><path style="stroke:#bdbddf; stroke-width:8px; fill:none;" opacity="0.7" d="M 484,311L 484,243"/><g><path style="stroke:#ff0; stroke-width:8px; fill:none; " opacity="0" d="M 484,311L 484,243"/></g><path style="stroke:black; fill:none;" d="M 484,311L 484,243"/><g><g><path style="stroke:#0ff; stroke-width:8px; fill:none; " opacity="0" d="M 484,311 L 484,243" onmousedown='segmousedown("245","0",evt);' onmouseover='segmouseover("245","0",evt);' onmouseout='segmouseout("245","0",evt);' onclick='segclick("245","0",evt);'/></g></g></g><g id="246"><path style="stroke:#bdbddf; stroke-width:8px; fill:none;" opacity="0.7" d="M 469,222L 406,222"/><g><path style="stroke:#ff0; stroke-width:8px; fill:none; " opacity="0" d="M 469,222L 406,222"/></g><path style="stroke:black; fill:none;" d="M 469,222L 406,222"/><g><g><path style="stroke:#0ff; stroke-width:8px; fill:none; " opacity="0" d="M 469,222 L 406,222" onmousedown='segmousedown("246","0",evt);' onmouseover='segmouseover("246","0",evt);' onmouseout='segmouseout("246","0",evt);' onclick='segclick("246","0",evt);'/></g></g></g><g id="247"><path style="stroke:#bdbddf; stroke-width:8px; fill:none;" opacity="0.7" d="M 376,227L 311,227"/><g><path style="stroke:#ff0; stroke-width:8px; fill:none; " opacity="0" d="M 376,227L 311,227"/></g><path style="stroke:black; fill:none;" d="M 376,227L 311,227"/><g><g><path style="stroke:#0ff; stroke-width:8px; fill:none; " opacity="0" d="M 376,227 L 311,227" onmousedown='segmousedown("247","0",evt);' onmouseover='segmouseover("247","0",evt);' onmouseout='segmouseout("247","0",evt);' onclick='segclick("247","0",evt);'/></g></g></g><g id="248"><path style="stroke:#bdbddf; stroke-width:8px; fill:none;" opacity="0.7" d="M 296,237L 296,299"/><g><path style="stroke:#ff0; stroke-width:8px; fill:none; " opacity="0" d="M 296,237L 296,299"/></g><path style="stroke:black; fill:none;" d="M 296,237L 296,299"/><g><g><path style="stroke:#0ff; stroke-width:8px; fill:none; " opacity="0" d="M 296,237 L 296,299" onmousedown='segmousedown("248","0",evt);' onmouseover='segmouseover("248","0",evt);' onmouseout='segmouseout("248","0",evt);' onclick='segclick("248","0",evt);'/></g></g></g><g id="249"><path style="stroke:#bdbddf; stroke-width:8px; fill:none;" opacity="0.7" d="M 202,79 V 111 a 12,12 0 0,1 -12,12L 130,123"/><g><path style="stroke:#ff0; stroke-width:8px; fill:none; " opacity="0" d="M 202,79 V 111 a 12,12 0 0,1 -12,12L 130,123"/></g><path style="stroke:black; fill:none;" d="M 202,79 V 111 a 12,12 0 0,1 -12,12L 130,123"/><g><g><path style="stroke:#0ff; stroke-width:8px; fill:none; " opacity="0" d="M 202,79 L 202,123" onmousedown='segmousedown("249","0",evt);' onmouseover='segmouseover("249","0",evt);' onmouseout='segmouseout("249","0",evt);' onclick='segclick("249","0",evt);'/><path style="stroke:#0ff; stroke-width:8px; fill:none; " opacity="0" d="M 202,123 L 130,123" onmousedown='segmousedown("249","1",evt);' onmouseover='segmouseover("249","1",evt);' onmouseout='segmouseout("249","1",evt);' onclick='segclick("249","1",evt);'/></g></g></g><g id="250"><path style="stroke:#bdbddf; stroke-width:8px; fill:none;" opacity="0.7" d="M 115,123L 53,123"/><g><path style="stroke:#ff0; stroke-width:8px; fill:none; " opacity="0" d="M 115,123L 53,123"/></g><path style="stroke:black; fill:none;" d="M 115,123L 53,123"/><g><g><path style="stroke:#0ff; stroke-width:8px; fill:none; " opacity="0" d="M 115,123 L 53,123" onmousedown='segmousedown("250","0",evt);' onmouseover='segmouseover("250","0",evt);' onmouseout='segmouseout("250","0",evt);' onclick='segclick("250","0",evt);'/></g></g></g><g id="251"><path style="stroke:#bdbddf; stroke-width:8px; fill:none;" opacity="0.7" d="M 53,123L -81,123"/><g><path style="stroke:#ff0; stroke-width:8px; fill:none; " opacity="0" d="M 53,123L -81,123"/></g><path style="stroke:black; fill:none;" d="M 53,123L -81,123"/><g><g><path style="stroke:#0ff; stroke-width:8px; fill:none; " opacity="0" d="M 53,123 L -81,123" onmousedown='segmousedown("251","0",evt);' onmouseover='segmouseover("251","0",evt);' onmouseout='segmouseout("251","0",evt);' onclick='segclick("251","0",evt);'/></g></g></g><g id="252"><path style="stroke:#bdbddf; stroke-width:8px; fill:none;" opacity="0.7" d="M 133,123L 133,209"/><g><path style="stroke:#ff0; stroke-width:8px; fill:none; " opacity="0" d="M 133,123L 133,209"/></g><path style="stroke:black; fill:none;" d="M 133,123L 133,209"/><g><g><path style="stroke:#0ff; stroke-width:8px; fill:none; " opacity="0" d="M 133,123 L 133,209" onmousedown='segmousedown("252","0",evt);' onmouseover='segmouseover("252","0",evt);' onmouseout='segmouseout("252","0",evt);' onclick='segclick("252","0",evt);'/></g></g></g></g>
  <g id="nodes"><g id="229" onmousedown="nodemousedown(229,evt);" onmouseover="nodemouseover(229,evt);" onmouseout="nodemouseout(229,evt);" transform="translate(211 79)"><rect x="-21" y="-21" width="42" height="42" fill="#0ff" style="stroke:none; opacity:0.75;" display="none"/><rect x="-15" y="-15" width="30" height="30" fill="#f0f0d2" style="stroke:black; opacity:1;"/></g><g id="230" onmousedown="nodemousedown(230,evt);" onmouseover="nodemouseover(230,evt);" onmouseout="nodemouseout(230,evt);" transform="translate(211 340)"><rect x="-21" y="-21" width="42" height="42" fill="#0ff" style="stroke:none; opacity:0.75;" display="none"/><rect x="-15" y="-15" width="30" height="30" fill="#f0f0d2" style="stroke:black; opacity:1;"/></g><g id="237" onmousedown="nodemousedown(237,evt);" onmouseover="nodemouseover(237,evt);" onmouseout="nodemouseout(237,evt);" transform="translate(130 123)"><rect x="-21" y="-21" width="42" height="42" fill="#0ff" style="stroke:none; opacity:0.75;" display="none"/><rect x="-15" y="-15" width="30" height="30" fill="#f0f0d2" style="stroke:black; opacity:1;"/></g><g id="239" onmousedown="nodemousedown(239,evt);" onmouseover="nodemouseover(239,evt);" onmouseout="nodemouseout(239,evt);" transform="translate(38,123)"><rect x="-21" y="-21" width="42" height="42" fill="#0ff" style="stroke:none; opacity:0.75;" display="none"/><rect x="-15" y="-15" width="30" height="30" fill="#f0f0d2" style="stroke:black; opacity:1;"/></g><g id="240" onmousedown="nodemousedown(240,evt);" onmouseover="nodemouseover(240,evt);" onmouseout="nodemouseout(240,evt);" transform="translate(-96,123)"><rect x="-21" y="-21" width="42" height="42" fill="#0ff" style="stroke:none; opacity:0.75;" display="none"/><rect x="-15" y="-15" width="30" height="30" fill="#f0f0d2" style="stroke:black; opacity:1;"/></g><g id="236" onmousedown="nodemousedown(236,evt);" onmouseover="nodemouseover(236,evt);" onmouseout="nodemouseout(236,evt);" transform="translate(296,299)"><rect x="-21" y="-21" width="42" height="42" fill="#0ff" style="stroke:none; opacity:0.75;" display="none"/><rect x="-15" y="-15" width="30" height="30" fill="#f0f0d2" style="stroke:black; opacity:1;"/></g><g id="238" onmousedown="nodemousedown(238,evt);" onmouseover="nodemouseover(238,evt);" onmouseout="nodemouseout(238,evt);" transform="translate(133,224)"><rect x="-21" y="-21" width="42" height="42" fill="#0ff" style="stroke:none; opacity:0.75;" display="none"/><rect x="-15" y="-15" width="30" height="30" fill="#f0f0d2" style="stroke:black; opacity:1;"/></g><g id="235" onmousedown="nodemousedown(235,evt);" onmouseover="nodemouseover(235,evt);" onmouseout="nodemouseout(235,evt);" transform="translate(296,222)"><rect x="-21" y="-21" width="42" height="42" fill="#0ff" style="stroke:none; opacity:0.75;" display="none"/><rect x="-15" y="-15" width="30" height="30" fill="#f0f0d2" style="stroke:black; opacity:1;"/></g><g id="234" onmousedown="nodemousedown(234,evt);" onmouseover="nodemouseover(234,evt);" onmouseout="nodemouseout(234,evt);" transform="translate(391,227)"><rect x="-21" y="-21" width="42" height="42" fill="#0ff" style="stroke:none; opacity:0.75;" display="none"/><rect x="-15" y="-15" width="30" height="30" fill="#f0f0d2" style="stroke:black; opacity:1;"/></g><g id="233" onmousedown="nodemousedown(233,evt);" onmouseover="nodemouseover(233,evt);" onmouseout="nodemouseout(233,evt);" transform="translate(484,228)"><rect x="-21" y="-21" width="42" height="42" fill="#0ff" style="stroke:none; opacity:0.75;" display="none"/><rect x="-15" y="-15" width="30" height="30" fill="#f0f0d2" style="stroke:black; opacity:1;"/></g><g id="231" onmousedown="nodemousedown(231,evt);" onmouseover="nodemouseover(231,evt);" onmouseout="nodemouseout(231,evt);" transform="translate(484,326)"><rect x="-21" y="-21" width="42" height="42" fill="#0ff" style="stroke:none; opacity:0.75;" display="none"/><rect x="-15" y="-15" width="30" height="30" fill="#f0f0d2" style="stroke:black; opacity:1;"/></g><g id="232" onmousedown="nodemousedown(232,evt);" onmouseover="nodemouseover(232,evt);" onmouseout="nodemouseout(232,evt);" transform="translate(485,78)"><rect x="-21" y="-21" width="42" height="42" fill="#0ff" style="stroke:none; opacity:0.75;" display="none"/><rect x="-15" y="-15" width="30" height="30" fill="#f0f0d2" style="stroke:black; opacity:1;"/></g></g>
  <g id="BPs"><g onmousedown="bpmousedown(257,evt);" onmouseover="bpmouseover(257,evt);" onmouseout="bpmouseout(257,evt);" transform="translate(589,326)" opacity="0"><ellipse cx="0" cy="0" rx="16" ry="16" fill="#0ff" style="stroke:none; opacity:0.75;" display="none"/><ellipse cx="0" cy="0" rx="9.200000000000001" ry="9.200000000000001" fill="#777" style="stroke:black;"/></g><g onmousedown="bpmousedown(258,evt);" onmouseover="bpmouseover(258,evt);" onmouseout="bpmouseout(258,evt);" transform="translate(589,78)" opacity="0"><ellipse cx="0" cy="0" rx="16" ry="16" fill="#0ff" style="stroke:none; opacity:0.75;" display="none"/><ellipse cx="0" cy="0" rx="9.200000000000001" ry="9.200000000000001" fill="#777" style="stroke:black;"/></g><g onmousedown="bpmousedown(281,evt);" onmouseover="bpmouseover(281,evt);" onmouseout="bpmouseout(281,evt);" transform="translate(202 123)" opacity="0"><ellipse cx="0" cy="0" rx="16" ry="16" fill="#0ff" style="stroke:none; opacity:0.75;" display="none"/><ellipse cx="0" cy="0" rx="10" ry="10" fill="#777" style="stroke:black;"/></g></g>
  <g id="ports"/>
</g>
</svg>