<svg xmlns:xlink="http://www.w3.org/1999/xlink" xmlns="http://www.w3.org/2000/svg" height="270px" width="480px" id="SVGCanvas" onmouseup="" onmousemove="">
<rect fill="#bdbddf" width="100%" height="100%" y="0" x="0" id="background" onmousedown="bgmousedown(evt)"/>
<g id="foreground" transform="translate(123.840830449827,0),scale(0.6228373702422145),translate(-165,-86.5)">
  <g id="edges"><g id="288"><path style="stroke:#bdbddf; stroke-width:8px; fill:none;" opacity="0.7" d="M 368.5,252 H 496 a 12,12 0 0,1 12,12L 508,311"/><g><path style="stroke:#ff0; stroke-width:8px; fill:none; " opacity="0" d="M 368.5,252 H 496 a 12,12 0 0,1 12,12L 508,311"/></g><path style="stroke:black; fill:none;" d="M 368.5,252 H 496 a 12,12 0 0,1 12,12L 508,311"/><g><g><path style="stroke:#0ff; stroke-width:8px; fill:none; " opacity="0" d="M 368.5,252 L 508,252" onmousedown='segmousedown("288","0",evt);' onmouseover='segmouseover("288","0",evt);' onmouseout='segmouseout("288","0",evt);' onclick='segclick("288","0",evt);'/><path style="stroke:#0ff; stroke-width:8px; fill:none; " opacity="0" d="M 508,252 L 508,311" onmousedown='segmousedown("288","1",evt);' onmouseover='segmouseover("288","1",evt);' onmouseout='segmouseout("288","1",evt);' onclick='segclick("288","1",evt);'/></g></g></g><g id="289"><path style="stroke:#bdbddf; stroke-width:8px; fill:none;" opacity="0.7" d="M 358,268L 358,413"/><g><path style="stroke:#ff0; stroke-width:8px; fill:none; " opacity="0" d="M 358,268L 358,413"/></g><path style="stroke:black; fill:none;" d="M 358,268L 358,413"/><g><g><path style="stroke:#0ff; stroke-width:8px; fill:none; " opacity="0" d="M 358,268 L 358,413" onmousedown='segmousedown("289","0",evt);' onmouseover='segmouseover("289","0",evt);' onmouseout='segmouseout("289","0",evt);' onclick='segclick("289","0",evt);'/></g></g></g><g id="290"><path style="stroke:#bdbddf; stroke-width:8px; fill:none;" opacity="0.7" d="M 313,128L 313,252"/><g><path style="stroke:#ff0; stroke-width:8px; fill:none; " opacity="0" d="M 313,128L 313,252"/></g><path style="stroke:black; fill:none;" d="M 313,128L 313,252"/><g><g><path style="stroke:#0ff; stroke-width:8px; fill:none; " opacity="0" d="M 313,128 L 313,252" onmousedown='segmousedown("290","0",evt);' onmouseover='segmouseover("290","0",evt);' onmouseout='segmouseout("290","0",evt);' onclick='segclick("290","0",evt);'/></g></g></g><g id="291"><path style="stroke:#bdbddf; stroke-width:8px; fill:none;" opacity="0.7" d="M 210,252L 327,252"/><g><path style="stroke:#ff0; stroke-width:8px; fill:none; " opacity="0" d="M 210,252L 327,252"/></g><path style="stroke:black; fill:none;" d="M 210,252L 327,252"/><g><g><path style="stroke:#0ff; stroke-width:8px; fill:none; " opacity="0" d="M 210,252 L 327,252" onmousedown='segmousedown("291","0",evt);' onmouseover='segmouseover("291","0",evt);' onmouseout='segmouseout("291","0",evt);' onclick='segclick("291","0",evt);'/></g></g></g><g id="292"><path style="stroke:#bdbddf; stroke-width:8px; fill:none;" opacity="0.7" d="M 313,128 V 179 a 12,12 0 0,0 12,12L 418,191"/><g><path style="stroke:#ff0; stroke-width:8px; fill:none; " opacity="0" d="M 313,128 V 179 a 12,12 0 0,0 12,12L 418,191"/></g><path style="stroke:black; fill:none;" d="M 313,128 V 179 a 12,12 0 0,0 12,12L 418,191"/><g><g><path style="stroke:#0ff; stroke-width:8px; fill:none; " opacity="0" d="M 313,128 L 313,191" onmousedown='segmousedown("292","0",evt);' onmouseover='segmouseover("292","0",evt);' onmouseout='segmouseout("292","0",evt);' onclick='segclick("292","0",evt);'/><path style="stroke:#0ff; stroke-width:8px; fill:none; " opacity="0" d="M 313,191 L 418,191" onmousedown='segmousedown("292","1",evt);' onmouseover='segmouseover("292","1",evt);' onmouseout='segmouseout("292","1",evt);' onclick='segclick("292","1",evt);'/></g></g></g><g id="287"><path style="stroke:#bdbddf; stroke-width:8px; fill:none;" opacity="0.7" d="M 300,268L 300,366"/><g><path style="stroke:#ff0; stroke-width:8px; fill:none; " opacity="0" d="M 300,268L 300,366"/></g><path style="stroke:black; fill:none;" d="M 300,268L 300,366"/><g><g><path style="stroke:#0ff; stroke-width:8px; fill:none; " opacity="0" d="M 300,268 L 300,366" onmousedown='segmousedown("287","0",evt);' onmouseover='segmouseover("287","0",evt);' onmouseout='segmouseout("287","0",evt);' onclick='segclick("287","0",evt);'/></g></g></g></g>
  <g id="nodes"><g id="280" onmousedown="nodemousedown(280,evt);" onmouseover="nodemouseover(280,evt);" onmouseout="nodemouseout(280,evt);" transform="translate(327 252)"><rect x="-47.5" y="-22" width="95" height="44" fill="#0ff" style="stroke:none; opacity:0.75;" display="none"/><rect x="-41.5" y="-16" width="83" height="32" fill="#f0f0d2" style="stroke:black; opacity:1;"/></g><g id="281" onmousedown="nodemousedown(281,evt);" onmouseover="nodemouseover(281,evt);" onmouseout="nodemouseout(281,evt);" transform="translate(300 381)"><rect x="-21" y="-21" width="42" height="42" fill="#0ff" style="stroke:none; opacity:0.75;" display="none"/><rect x="-15" y="-15" width="30" height="30" fill="#f0f0d2" style="stroke:black; opacity:1;"/></g><g id="282" onmousedown="nodemousedown(282,evt);" onmouseover="nodemouseover(282,evt);" onmouseout="nodemouseout(282,evt);" transform="translate(508 326)"><rect x="-21" y="-21" width="42" height="42" fill="#0ff" style="stroke:none; opacity:0.75;" display="none"/><rect x="-15" y="-15" width="30" height="30" fill="#f0f0d2" style="stroke:black; opacity:1;"/></g><g id="284" onmousedown="nodemousedown(284,evt);" onmouseover="nodemouseover(284,evt);" onmouseout="nodemouseout(284,evt);" transform="translate(313 128)"><rect x="-29.5" y="-32.5" width="59" height="65" fill="#0ff" style="stroke:none; opacity:0.75;" display="none"/><rect x="-23.5" y="-26.5" width="47" height="53" fill="#f0f0d2" style="stroke:black; opacity:1;"/></g><g id="286" onmousedown="nodemousedown(286,evt);" onmouseover="nodemouseover(286,evt);" onmouseout="nodemouseout(286,evt);" transform="translate(418 191)"><rect x="-50.5" y="-21" width="101" height="42" fill="#0ff" style="stroke:none; opacity:0.75;" display="none"/><rect x="-44.5" y="-15" width="89" height="30" fill="#f0f0d2" style="stroke:black; opacity:1;"/></g><g id="285" onmousedown="nodemousedown(285,evt);" onmouseover="nodemouseover(285,evt);" onmouseout="nodemouseout(285,evt);" transform="translate(195,252)"><rect x="-21" y="-21" width="42" height="42" fill="#0ff" style="stroke:none; opacity:0.75;" display="none"/><rect x="-15" y="-15" width="30" height="30" fill="#f0f0d2" style="stroke:black; opacity:1;"/></g><g id="283" onmousedown="nodemousedown(283,evt);" onmouseover="nodemouseover(283,evt);" onmouseout="nodemouseout(283,evt);" transform="translate(358,459)"><rect x="-17.5" y="-52" width="35" height="104" fill="#0ff" style="stroke:none; opacity:0.75;" display="none"/><rect x="-11.5" y="-46" width="23" height="92" fill="#f0f0d2" style="stroke:black; opacity:1;"/></g></g>
  <g id="BPs"><g onmousedown="bpmousedown(295,evt);" onmouseover="bpmouseover(295,evt);" onmouseout="bpmouseout(295,evt);" transform="translate(508,252)" opacity="0"><ellipse cx="0" cy="0" rx="16" ry="16" fill="#0ff" style="stroke:none; opacity:0.75;" display="none"/><ellipse cx="0" cy="0" rx="10" ry="10" fill="#777" style="stroke:black;"/></g><g onmousedown="bpmousedown(307,evt);" onmouseover="bpmouseover(307,evt);" onmouseout="bpmouseout(307,evt);" transform="translate(313 191)" opacity="0"><ellipse cx="0" cy="0" rx="16" ry="16" fill="#0ff" style="stroke:none; opacity:0.75;" display="none"/><ellipse cx="0" cy="0" rx="10" ry="10" fill="#777" style="stroke:black;"/></g></g>
  <g id="ports"/>
</g>
</svg>