<svg xmlns:xlink="http://www.w3.org/1999/xlink" xmlns="http://www.w3.org/2000/svg" height="270px" width="480px" id="SVGCanvas" onmouseup="" onmousemove="">
<rect fill="#bdbddf" width="100%" height="100%" y="0" x="0" id="background" onmousedown="bgmousedown(evt)"/>
<g id="foreground" transform="translate(10.419161676646695,0),scale(0.8083832335329342),translate(-163,-49)">
  <g id="edges"><g id="201"><path style="stroke:#bdbddf; stroke-width:8px; fill:none;" opacity="0.7" d="M 412,79 H 682 a 12,12 0 0,1 12,12L 694,181"/><g><path style="stroke:#ff0; stroke-width:8px; fill:none; " opacity="0" d="M 412,79 H 682 a 12,12 0 0,1 12,12L 694,181"/></g><path style="stroke:black; fill:none;" d="M 412,79 H 682 a 12,12 0 0,1 12,12L 694,181"/><g><g><path style="stroke:#0ff; stroke-width:8px; fill:none; " opacity="0" d="M 412,79 L 694,79" onmousedown='segmousedown("201","0",evt);' onmouseover='segmouseover("201","0",evt);' onmouseout='segmouseout("201","0",evt);' onclick='segclick("201","0",evt);'/><path style="stroke:#0ff; stroke-width:8px; fill:none; " opacity="0" d="M 694,79 L 694,181" onmousedown='segmousedown("201","1",evt);' onmouseover='segmouseover("201","1",evt);' onmouseout='segmouseout("201","1",evt);' onclick='segclick("201","1",evt);'/></g></g></g><g id="202"><path style="stroke:#bdbddf; stroke-width:8px; fill:none;" opacity="0.7" d="M 412,79 H 506 a 12,12 0 0,1 12,12 V 153 a 12,12 0 0,1 -12,12 H 326 a 12,12 0 0,0 -12,12L 314,259"/><g><path style="stroke:#ff0; stroke-width:8px; fill:none; " opacity="0" d="M 412,79 H 506 a 12,12 0 0,1 12,12 V 153 a 12,12 0 0,1 -12,12 H 326 a 12,12 0 0,0 -12,12L 314,259"/></g><path style="stroke:black; fill:none;" d="M 412,79 H 506 a 12,12 0 0,1 12,12 V 153 a 12,12 0 0,1 -12,12 H 326 a 12,12 0 0,0 -12,12L 314,259"/><g><g><path style="stroke:#0ff; stroke-width:8px; fill:none; " opacity="0" d="M 412,79 L 518,79" onmousedown='segmousedown("202","0",evt);' onmouseover='segmouseover("202","0",evt);' onmouseout='segmouseout("202","0",evt);' onclick='segclick("202","0",evt);'/><path style="stroke:#0ff; stroke-width:8px; fill:none; " opacity="0" d="M 518,79 L 518,165" onmousedown='segmousedown("202","1",evt);' onmouseover='segmouseover("202","1",evt);' onmouseout='segmouseout("202","1",evt);' onclick='segclick("202","1",evt);'/><path style="stroke:#0ff; stroke-width:8px; fill:none; " opacity="0" d="M 518,165 L 314,165" onmousedown='segmousedown("202","2",evt);' onmouseover='segmouseover("202","2",evt);' onmouseout='segmouseout("202","2",evt);' onclick='segclick("202","2",evt);'/><path style="stroke:#0ff; stroke-width:8px; fill:none; " opacity="0" d="M 314,165 L 314,259" onmousedown='segmousedown("202","3",evt);' onmouseover='segmouseover("202","3",evt);' onmouseout='segmouseout("202","3",evt);' onclick='segclick("202","3",evt);'/></g></g></g><g id="203"><path style="stroke:#bdbddf; stroke-width:8px; fill:none;" opacity="0.7" d="M 701,181 H 275 a 12,12 0 0,1 -12,-12L 263,79"/><g><path style="stroke:#ff0; stroke-width:8px; fill:none; " opacity="0" d="M 701,181 H 275 a 12,12 0 0,1 -12,-12L 263,79"/></g><path style="stroke:black; fill:none;" d="M 701,181 H 275 a 12,12 0 0,1 -12,-12L 263,79"/><g><g><path style="stroke:#0ff; stroke-width:8px; fill:none; " opacity="0" d="M 701,181 L 263,181" onmousedown='segmousedown("203","0",evt);' onmouseover='segmouseover("203","0",evt);' onmouseout='segmouseout("203","0",evt);' onclick='segclick("203","0",evt);'/><path style="stroke:#0ff; stroke-width:8px; fill:none; " opacity="0" d="M 263,181 L 263,79" onmousedown='segmousedown("203","1",evt);' onmouseover='segmouseover("203","1",evt);' onmouseout='segmouseout("203","1",evt);' onclick='segclick("203","1",evt);'/></g></g></g><g id="204"><path style="stroke:#bdbddf; stroke-width:8px; fill:none;" opacity="0.7" d="M 701,196L 701,338"/><g><path style="stroke:#ff0; stroke-width:8px; fill:none; " opacity="0" d="M 701,196L 701,338"/></g><path style="stroke:black; fill:none;" d="M 701,196L 701,338"/><g><g><path style="stroke:#0ff; stroke-width:8px; fill:none; " opacity="0" d="M 701,196 L 701,338" onmousedown='segmousedown("204","0",evt);' onmouseover='segmouseover("204","0",evt);' onmouseout='segmouseout("204","0",evt);' onclick='segclick("204","0",evt);'/></g></g></g><g id="205"><path style="stroke:#bdbddf; stroke-width:8px; fill:none;" opacity="0.7" d="M 314,259 H 513 a 12,12 0 0,1 12,12L 525,332"/><g><path style="stroke:#ff0; stroke-width:8px; fill:none; " opacity="0" d="M 314,259 H 513 a 12,12 0 0,1 12,12L 525,332"/></g><path style="stroke:black; fill:none;" d="M 314,259 H 513 a 12,12 0 0,1 12,12L 525,332"/><g><g><path style="stroke:#0ff; stroke-width:8px; fill:none; " opacity="0" d="M 314,259 L 525,259" onmousedown='segmousedown("205","0",evt);' onmouseover='segmouseover("205","0",evt);' onmouseout='segmouseout("205","0",evt);' onclick='segclick("205","0",evt);'/><path style="stroke:#0ff; stroke-width:8px; fill:none; " opacity="0" d="M 525,259 L 525,332" onmousedown='segmousedown("205","1",evt);' onmouseover='segmouseover("205","1",evt);' onmouseout='segmouseout("205","1",evt);' onclick='segclick("205","1",evt);'/></g></g></g><g id="206"><path style="stroke:#bdbddf; stroke-width:8px; fill:none;" opacity="0.7" d="M 314,259 H 200 a 12,12 0 0,0 -12,12L 188,322"/><g><path style="stroke:#ff0; stroke-width:8px; fill:none; " opacity="0" d="M 314,259 H 200 a 12,12 0 0,0 -12,12L 188,322"/></g><path style="stroke:black; fill:none;" d="M 314,259 H 200 a 12,12 0 0,0 -12,12L 188,322"/><g><g><path style="stroke:#0ff; stroke-width:8px; fill:none; " opacity="0" d="M 314,259 L 188,259" onmousedown='segmousedown("206","0",evt);' onmouseover='segmouseover("206","0",evt);' onmouseout='segmouseout("206","0",evt);' onclick='segclick("206","0",evt);'/><path style="stroke:#0ff; stroke-width:8px; fill:none; " opacity="0" d="M 188,259 L 188,322" onmousedown='segmousedown("206","1",evt);' onmouseover='segmouseover("206","1",evt);' onmouseout='segmouseout("206","1",evt);' onclick='segclick("206","1",evt);'/></g></g></g></g>
  <g id="nodes"><g id="195" onmousedown="nodemousedown(195,evt);" onmouseover="nodemouseover(195,evt);" onmouseout="nodemouseout(195,evt);" transform="translate(701 181)"><rect x="-21" y="-21" width="42" height="42" fill="#0ff" style="stroke:none; opacity:0.75;" display="none"/><rect x="-15" y="-15" width="30" height="30" fill="#f0f0d2" style="stroke:black; opacity:1;"/></g><g id="196" onmousedown="nodemousedown(196,evt);" onmouseover="nodemouseover(196,evt);" onmouseout="nodemouseout(196,evt);" transform="translate(314 259)"><rect x="-21" y="-21" width="42" height="42" fill="#0ff" style="stroke:none; opacity:0.75;" display="none"/><rect x="-15" y="-15" width="30" height="30" fill="#f0f0d2" style="stroke:black; opacity:1;"/></g><g id="197" onmousedown="nodemousedown(197,evt);" onmouseover="nodemouseover(197,evt);" onmouseout="nodemouseout(197,evt);" transform="translate(263 79)"><rect x="-21" y="-21" width="42" height="42" fill="#0ff" style="stroke:none; opacity:0.75;" display="none"/><rect x="-15" y="-15" width="30" height="30" fill="#f0f0d2" style="stroke:black; opacity:1;"/></g><g id="194" onmousedown="nodemousedown(194,evt);" onmouseover="nodemouseover(194,evt);" onmouseout="nodemouseout(194,evt);" transform="translate(397,79)"><rect x="-21" y="-21" width="42" height="42" fill="#0ff" style="stroke:none; opacity:0.75;" display="none"/><rect x="-15" y="-15" width="30" height="30" fill="#f0f0d2" style="stroke:black; opacity:1;"/></g><g id="200" onmousedown="nodemousedown(200,evt);" onmouseover="nodemouseover(200,evt);" onmouseout="nodemouseout(200,evt);" transform="translate(200,337)"><rect x="-21" y="-21" width="42" height="42" fill="#0ff" style="stroke:none; opacity:0.75;" display="none"/><rect x="-15" y="-15" width="30" height="30" fill="#f0f0d2" style="stroke:black; opacity:1;"/></g><g id="199" onmousedown="nodemousedown(199,evt);" onmouseover="nodemouseover(199,evt);" onmouseout="nodemouseout(199,evt);" transform="translate(534,347)"><rect x="-21" y="-21" width="42" height="42" fill="#0ff" style="stroke:none; opacity:0.75;" display="none"/><rect x="-15" y="-15" width="30" height="30" fill="#f0f0d2" style="stroke:black; opacity:1;"/></g><g id="198" onmousedown="nodemousedown(198,evt);" onmouseover="nodemouseover(198,evt);" onmouseout="nodemouseout(198,evt);" transform="translate(701,353)"><rect x="-21" y="-21" width="42" height="42" fill="#0ff" style="stroke:none; opacity:0.75;" display="none"/><rect x="-15" y="-15" width="30" height="30" fill="#f0f0d2" style="stroke:black; opacity:1;"/></g></g>
  <g id="BPs"><g onmousedown="bpmousedown(209,evt);" onmouseover="bpmouseover(209,evt);" onmouseout="bpmouseout(209,evt);" transform="translate(694,79)" opacity="0"><ellipse cx="0" cy="0" rx="16" ry="16" fill="#0ff" style="stroke:none; opacity:0.75;" display="none"/><ellipse cx="0" cy="0" rx="10" ry="10" fill="#777" style="stroke:black;"/></g><g onmousedown="bpmousedown(212,evt);" onmouseover="bpmouseover(212,evt);" onmouseout="bpmouseout(212,evt);" transform="translate(518,79)" opacity="0"><ellipse cx="0" cy="0" rx="16" ry="16" fill="#0ff" style="stroke:none; opacity:0.75;" display="none"/><ellipse cx="0" cy="0" rx="10" ry="10" fill="#777" style="stroke:black;"/></g><g onmousedown="bpmousedown(213,evt);" onmouseover="bpmouseover(213,evt);" onmouseout="bpmouseout(213,evt);" transform="translate(518,165)" opacity="0"><ellipse cx="0" cy="0" rx="16" ry="16" fill="#0ff" style="stroke:none; opacity:0.75;" display="none"/><ellipse cx="0" cy="0" rx="10" ry="10" fill="#777" style="stroke:black;"/></g><g onmousedown="bpmousedown(214,evt);" onmouseover="bpmouseover(214,evt);" onmouseout="bpmouseout(214,evt);" transform="translate(314 165)" opacity="0"><ellipse cx="0" cy="0" rx="16" ry="16" fill="#0ff" style="stroke:none; opacity:0.75;" display="none"/><ellipse cx="0" cy="0" rx="10" ry="10" fill="#777" style="stroke:black;"/></g><g onmousedown="bpmousedown(217,evt);" onmouseover="bpmouseover(217,evt);" onmouseout="bpmouseout(217,evt);" transform="translate(263 181)" opacity="0"><ellipse cx="0" cy="0" rx="16" ry="16" fill="#0ff" style="stroke:none; opacity:0.75;" display="none"/><ellipse cx="0" cy="0" rx="10" ry="10" fill="#777" style="stroke:black;"/></g><g onmousedown="bpmousedown(224,evt);" onmouseover="bpmouseover(224,evt);" onmouseout="bpmouseout(224,evt);" transform="translate(525,259)" opacity="0"><ellipse cx="0" cy="0" rx="16" ry="16" fill="#0ff" style="stroke:none; opacity:0.75;" display="none"/><ellipse cx="0" cy="0" rx="10" ry="10" fill="#777" style="stroke:black;"/></g><g onmousedown="bpmousedown(227,evt);" onmouseover="bpmouseover(227,evt);" onmouseout="bpmouseout(227,evt);" transform="translate(188,259)" opacity="0"><ellipse cx="0" cy="0" rx="16" ry="16" fill="#0ff" style="stroke:none; opacity:0.75;" display="none"/><ellipse cx="0" cy="0" rx="10" ry="10" fill="#777" style="stroke:black;"/></g></g>
  <g id="ports"/>
</g>
</svg>