<svg xmlns:xlink="http://www.w3.org/1999/xlink" xmlns="http://www.w3.org/2000/svg" height="270px" width="480px" id="SVGCanvas" onmouseup="" onmousemove="">
<rect fill="#bdbddf" width="100%" height="100%" y="0" x="0" id="background" onmousedown="bgmousedown(evt)"/>
<g id="foreground" transform="translate(114.02147971360382,0),scale(0.6443914081145584),translate(-370,-50)">
  <g id="edges"><g id="328"><path style="stroke:#bdbddf; stroke-width:8px; fill:none;" opacity="0.7" d="M 637,439 H 669 a 12,12 0 0,0 12,-12 V 367 a 12,12 0 0,1 12,-12 H 716 a 12,12 0 0,0 12,-12L 728,302"/><g><path style="stroke:#ff0; stroke-width:8px; fill:none; " opacity="0" d="M 637,439 H 669 a 12,12 0 0,0 12,-12 V 367 a 12,12 0 0,1 12,-12 H 716 a 12,12 0 0,0 12,-12L 728,302"/></g><path style="stroke:black; fill:none;" d="M 637,439 H 669 a 12,12 0 0,0 12,-12 V 367 a 12,12 0 0,1 12,-12 H 716 a 12,12 0 0,0 12,-12L 728,302"/><g><g><path style="stroke:#0ff; stroke-width:8px; fill:none; " opacity="0" d="M 637,439 L 681,439" onmousedown='segmousedown("328","0",evt);' onmouseover='segmouseover("328","0",evt);' onmouseout='segmouseout("328","0",evt);' onclick='segclick("328","0",evt);'/><path style="stroke:#0ff; stroke-width:8px; fill:none; " opacity="0" d="M 681,439 L 681,355" onmousedown='segmousedown("328","1",evt);' onmouseover='segmouseover("328","1",evt);' onmouseout='segmouseout("328","1",evt);' onclick='segclick("328","1",evt);'/><path style="stroke:#0ff; stroke-width:8px; fill:none; " opacity="0" d="M 681,355 L 728,355" onmousedown='segmousedown("328","2",evt);' onmouseover='segmouseover("328","2",evt);' onmouseout='segmouseout("328","2",evt);' onclick='segclick("328","2",evt);'/><path style="stroke:#0ff; stroke-width:8px; fill:none; " opacity="0" d="M 728,355 L 728,302" onmousedown='segmousedown("328","3",evt);' onmouseover='segmouseover("328","3",evt);' onmouseout='segmouseout("328","3",evt);' onclick='segclick("328","3",evt);'/></g></g></g><g id="329"><path style="stroke:#bdbddf; stroke-width:8px; fill:none;" opacity="0.7" d="M 731,302L 731,231"/><g><path style="stroke:#ff0; stroke-width:8px; fill:none; " opacity="0" d="M 731,302L 731,231"/></g><path style="stroke:black; fill:none;" d="M 731,302L 731,231"/><g><g><path style="stroke:#0ff; stroke-width:8px; fill:none; " opacity="0" d="M 731,302 L 731,231" onmousedown='segmousedown("329","0",evt);' onmouseover='segmouseover("329","0",evt);' onmouseout='segmouseout("329","0",evt);' onclick='segclick("329","0",evt);'/></g></g></g><g id="330"><path style="stroke:#bdbddf; stroke-width:8px; fill:none;" opacity="0.7" d="M 400,439L 607,439"/><g><path style="stroke:#ff0; stroke-width:8px; fill:none; " opacity="0" d="M 400,439L 607,439"/></g><path style="stroke:black; fill:none;" d="M 400,439L 607,439"/><g><g><path style="stroke:#0ff; stroke-width:8px; fill:none; " opacity="0" d="M 400,439 L 607,439" onmousedown='segmousedown("330","0",evt);' onmouseover='segmouseover("330","0",evt);' onmouseout='segmouseout("330","0",evt);' onclick='segclick("330","0",evt);'/></g></g></g><g id="331"><path style="stroke:#bdbddf; stroke-width:8px; fill:none;" opacity="0.7" d="M 731,223 H 412 a 12,12 0 0,0 -12,12L 400,439"/><g><path style="stroke:#ff0; stroke-width:8px; fill:none; " opacity="0" d="M 731,223 H 412 a 12,12 0 0,0 -12,12L 400,439"/></g><path style="stroke:black; fill:none;" d="M 731,223 H 412 a 12,12 0 0,0 -12,12L 400,439"/><g><g><path style="stroke:#0ff; stroke-width:8px; fill:none; " opacity="0" d="M 731,223 L 400,223" onmousedown='segmousedown("331","0",evt);' onmouseover='segmouseover("331","0",evt);' onmouseout='segmouseout("331","0",evt);' onclick='segclick("331","0",evt);'/><path style="stroke:#0ff; stroke-width:8px; fill:none; " opacity="0" d="M 400,223 L 400,439" onmousedown='segmousedown("331","1",evt);' onmouseover='segmouseover("331","1",evt);' onmouseout='segmouseout("331","1",evt);' onclick='segclick("331","1",evt);'/></g></g></g><g id="332"><path style="stroke:#bdbddf; stroke-width:8px; fill:none;" opacity="0.7" d="M 549,355 H 623 a 12,12 0 0,0 12,-12 V 255 a 12,12 0 0,1 12,-12L 721,243"/><g><path style="stroke:#ff0; stroke-width:8px; fill:none; " opacity="0" d="M 549,355 H 623 a 12,12 0 0,0 12,-12 V 255 a 12,12 0 0,1 12,-12L 721,243"/></g><path style="stroke:black; fill:none;" d="M 549,355 H 623 a 12,12 0 0,0 12,-12 V 255 a 12,12 0 0,1 12,-12L 721,243"/><g><g><path style="stroke:#0ff; stroke-width:8px; fill:none; " opacity="0" d="M 549,355 L 635,355" onmousedown='segmousedown("332","0",evt);' onmouseover='segmouseover("332","0",evt);' onmouseout='segmouseout("332","0",evt);' onclick='segclick("332","0",evt);'/><path style="stroke:#0ff; stroke-width:8px; fill:none; " opacity="0" d="M 635,355 L 635,243" onmousedown='segmousedown("332","1",evt);' onmouseover='segmouseover("332","1",evt);' onmouseout='segmouseout("332","1",evt);' onclick='segclick("332","1",evt);'/><path style="stroke:#0ff; stroke-width:8px; fill:none; " opacity="0" d="M 635,243 L 721,243" onmousedown='segmousedown("332","2",evt);' onmouseover='segmouseover("332","2",evt);' onmouseout='segmouseout("332","2",evt);' onclick='segclick("332","2",evt);'/></g></g></g><g id="333"><path style="stroke:#bdbddf; stroke-width:8px; fill:none;" opacity="0.7" d="M 549,355L 549,178"/><g><path style="stroke:#ff0; stroke-width:8px; fill:none; " opacity="0" d="M 549,355L 549,178"/></g><path style="stroke:black; fill:none;" d="M 549,355L 549,178"/><g><g><path style="stroke:#0ff; stroke-width:8px; fill:none; " opacity="0" d="M 549,355 L 549,178" onmousedown='segmousedown("333","0",evt);' onmouseover='segmouseover("333","0",evt);' onmouseout='segmouseout("333","0",evt);' onclick='segclick("333","0",evt);'/></g></g></g><g id="334"><path style="stroke:#bdbddf; stroke-width:8px; fill:none;" opacity="0.7" d="M 549,163L 727,163"/><g><path style="stroke:#ff0; stroke-width:8px; fill:none; " opacity="0" d="M 549,163L 727,163"/></g><path style="stroke:black; fill:none;" d="M 549,163L 727,163"/><g><g><path style="stroke:#0ff; stroke-width:8px; fill:none; " opacity="0" d="M 549,163 L 727,163" onmousedown='segmousedown("334","0",evt);' onmouseover='segmouseover("334","0",evt);' onmouseout='segmouseout("334","0",evt);' onclick='segclick("334","0",evt);'/></g></g></g><g id="335"><path style="stroke:#bdbddf; stroke-width:8px; fill:none;" opacity="0.7" d="M 547,148L 547,95"/><g><path style="stroke:#ff0; stroke-width:8px; fill:none; " opacity="0" d="M 547,148L 547,95"/></g><path style="stroke:black; fill:none;" d="M 547,148L 547,95"/><g><g><path style="stroke:#0ff; stroke-width:8px; fill:none; " opacity="0" d="M 547,148 L 547,95" onmousedown='segmousedown("335","0",evt);' onmouseover='segmouseover("335","0",evt);' onmouseout='segmouseout("335","0",evt);' onclick='segclick("335","0",evt);'/></g></g></g><g id="336"><path style="stroke:#bdbddf; stroke-width:8px; fill:none;" opacity="0.7" d="M 549,355L 459,355"/><g><path style="stroke:#ff0; stroke-width:8px; fill:none; " opacity="0" d="M 549,355L 459,355"/></g><path style="stroke:black; fill:none;" d="M 549,355L 459,355"/><g><g><path style="stroke:#0ff; stroke-width:8px; fill:none; " opacity="0" d="M 549,355 L 459,355" onmousedown='segmousedown("336","0",evt);' onmouseover='segmouseover("336","0",evt);' onmouseout='segmouseout("336","0",evt);' onclick='segclick("336","0",evt);'/></g></g></g><g id="337"><path style="stroke:#bdbddf; stroke-width:8px; fill:none;" opacity="0.7" d="M 549,355L 549,391"/><g><path style="stroke:#ff0; stroke-width:8px; fill:none; " opacity="0" d="M 549,355L 549,391"/></g><path style="stroke:black; fill:none;" d="M 549,355L 549,391"/><g><g><path style="stroke:#0ff; stroke-width:8px; fill:none; " opacity="0" d="M 549,355 L 549,391" onmousedown='segmousedown("337","0",evt);' onmouseover='segmouseover("337","0",evt);' onmouseout='segmouseout("337","0",evt);' onclick='segclick("337","0",evt);'/></g></g></g></g>
  <g id="nodes"><g id="320" onmousedown="nodemousedown(320,evt);" onmouseover="nodemouseover(320,evt);" onmouseout="nodemouseout(320,evt);" transform="translate(728 302)"><rect x="-21" y="-21" width="42" height="42" fill="#0ff" style="stroke:none; opacity:0.75;" display="none"/><rect x="-15" y="-15" width="30" height="30" fill="#f0f0d2" style="stroke:black; opacity:1;"/></g><g id="321" onmousedown="nodemousedown(321,evt);" onmouseover="nodemouseover(321,evt);" onmouseout="nodemouseout(321,evt);" transform="translate(731 231)"><rect x="-21" y="-21" width="42" height="42" fill="#0ff" style="stroke:none; opacity:0.75;" display="none"/><rect x="-15" y="-15" width="30" height="30" fill="#f0f0d2" style="stroke:black; opacity:1;"/></g><g id="322" onmousedown="nodemousedown(322,evt);" onmouseover="nodemouseover(322,evt);" onmouseout="nodemouseout(322,evt);" transform="translate(549 355)"><rect x="-21" y="-21" width="42" height="42" fill="#0ff" style="stroke:none; opacity:0.75;" display="none"/><rect x="-15" y="-15" width="30" height="30" fill="#f0f0d2" style="stroke:black; opacity:1;"/></g><g id="318" onmousedown="nodemousedown(318,evt);" onmouseover="nodemouseover(318,evt);" onmouseout="nodemouseout(318,evt);" transform="translate(400 439)"><rect x="-21" y="-21" width="42" height="42" fill="#0ff" style="stroke:none; opacity:0.75;" display="none"/><rect x="-15" y="-15" width="30" height="30" fill="#f0f0d2" style="stroke:black; opacity:1;"/></g><g id="319" onmousedown="nodemousedown(319,evt);" onmouseover="nodemouseover(319,evt);" onmouseout="nodemouseout(319,evt);" transform="translate(622,439)"><rect x="-21" y="-21" width="42" height="42" fill="#0ff" style="stroke:none; opacity:0.75;" display="none"/><rect x="-15" y="-15" width="30" height="30" fill="#f0f0d2" style="stroke:black; opacity:1;"/></g><g id="324" onmousedown="nodemousedown(324,evt);" onmouseover="nodemouseover(324,evt);" onmouseout="nodemouseout(324,evt);" transform="translate(444,355)"><rect x="-21" y="-21" width="42" height="42" fill="#0ff" style="stroke:none; opacity:0.75;" display="none"/><rect x="-15" y="-15" width="30" height="30" fill="#f0f0d2" style="stroke:black; opacity:1;"/></g><g id="327" onmousedown="nodemousedown(327,evt);" onmouseover="nodemouseover(327,evt);" onmouseout="nodemouseout(327,evt);" transform="translate(548,406)"><rect x="-21" y="-21" width="42" height="42" fill="#0ff" style="stroke:none; opacity:0.75;" display="none"/><rect x="-15" y="-15" width="30" height="30" fill="#f0f0d2" style="stroke:black; opacity:1;"/></g><g id="323" onmousedown="nodemousedown(323,evt);" onmouseover="nodemouseover(323,evt);" onmouseout="nodemouseout(323,evt);" transform="translate(549,163)"><rect x="-21" y="-21" width="42" height="42" fill="#0ff" style="stroke:none; opacity:0.75;" display="none"/><rect x="-15" y="-15" width="30" height="30" fill="#f0f0d2" style="stroke:black; opacity:1;"/></g><g id="326" onmousedown="nodemousedown(326,evt);" onmouseover="nodemouseover(326,evt);" onmouseout="nodemouseout(326,evt);" transform="translate(547,80)"><rect x="-21" y="-21" width="42" height="42" fill="#0ff" style="stroke:none; opacity:0.75;" display="none"/><rect x="-15" y="-15" width="30" height="30" fill="#f0f0d2" style="stroke:black; opacity:1;"/></g><g id="325" onmousedown="nodemousedown(325,evt);" onmouseover="nodemouseover(325,evt);" onmouseout="nodemouseout(325,evt);" transform="translate(727,160)"><rect x="-21" y="-21" width="42" height="42" fill="#0ff" style="stroke:none; opacity:0.75;" display="none"/><rect x="-15" y="-15" width="30" height="30" fill="#f0f0d2" style="stroke:black; opacity:1;"/></g></g>
  <g id="BPs"><g onmousedown="bpmousedown(340,evt);" onmouseover="bpmouseover(340,evt);" onmouseout="bpmouseout(340,evt);" transform="translate(681,439)" opacity="0"><ellipse cx="0" cy="0" rx="16" ry="16" fill="#0ff" style="stroke:none; opacity:0.75;" display="none"/><ellipse cx="0" cy="0" rx="10" ry="10" fill="#777" style="stroke:black;"/></g><g onmousedown="bpmousedown(341,evt);" onmouseover="bpmouseover(341,evt);" onmouseout="bpmouseout(341,evt);" transform="translate(681 355)" opacity="0"><ellipse cx="0" cy="0" rx="16" ry="16" fill="#0ff" style="stroke:none; opacity:0.75;" display="none"/><ellipse cx="0" cy="0" rx="10" ry="10" fill="#777" style="stroke:black;"/></g><g onmousedown="bpmousedown(342,evt);" onmouseover="bpmouseover(342,evt);" onmouseout="bpmouseout(342,evt);" transform="translate(728 355)" opacity="0"><ellipse cx="0" cy="0" rx="16" ry="16" fill="#0ff" style="stroke:none; opacity:0.75;" display="none"/><ellipse cx="0" cy="0" rx="10" ry="10" fill="#777" style="stroke:black;"/></g><g onmousedown="bpmousedown(351,evt);" onmouseover="bpmouseover(351,evt);" onmouseout="bpmouseout(351,evt);" transform="translate(400 223)" opacity="0"><ellipse cx="0" cy="0" rx="16" ry="16" fill="#0ff" style="stroke:none; opacity:0.75;" display="none"/><ellipse cx="0" cy="0" rx="10" ry="10" fill="#777" style="stroke:black;"/></g><g onmousedown="bpmousedown(354,evt);" onmouseover="bpmouseover(354,evt);" onmouseout="bpmouseout(354,evt);" transform="translate(635 355)" opacity="0"><ellipse cx="0" cy="0" rx="16" ry="16" fill="#0ff" style="stroke:none; opacity:0.75;" display="none"/><ellipse cx="0" cy="0" rx="10" ry="10" fill="#777" style="stroke:black;"/></g><g onmousedown="bpmousedown(355,evt);" onmouseover="bpmouseover(355,evt);" onmouseout="bpmouseout(355,evt);" transform="translate(635 243)" opacity="0"><ellipse cx="0" cy="0" rx="16" ry="16" fill="#0ff" style="stroke:none; opacity:0.75;" display="none"/><ellipse cx="0" cy="0" rx="10" ry="10" fill="#777" style="stroke:black;"/></g></g>
  <g id="ports"/>
</g>
</svg>