<svg xmlns:xlink="http://www.w3.org/1999/xlink" xmlns="http://www.w3.org/2000/svg" height="270px" width="480px" id="SVGCanvas" onmouseup="" onmousemove="">
<rect fill="#bdbddf" width="100%" height="100%" y="0" x="0" id="background" onmousedown="bgmousedown(evt)"/>
<g id="foreground" transform="translate(34.565217391304344,0),scale(0.6178489702517163),translate(-59,-112)">
  <g id="edges"><g id="266"><path style="stroke:#bdbddf; stroke-width:8px; fill:none;" opacity="0.7" d="M 523,138L 272.5,138"/><g><path style="stroke:#ff0; stroke-width:8px; fill:none; " opacity="0" d="M 523,138L 272.5,138"/></g><path style="stroke:black; fill:none;" d="M 523,138L 272.5,138"/><g><g><path style="stroke:#0ff; stroke-width:8px; fill:none; " opacity="0" d="M 523,138 L 272.5,138" onmousedown='segmousedown("266","0",evt);' onmouseover='segmouseover("266","0",evt);' onmouseout='segmouseout("266","0",evt);' onclick='segclick("266","0",evt);'/></g></g></g><g id="267"><path style="stroke:#bdbddf; stroke-width:8px; fill:none;" opacity="0.7" d="M 254,157L 254,279"/><g><path style="stroke:#ff0; stroke-width:8px; fill:none; " opacity="0" d="M 254,157L 254,279"/></g><path style="stroke:black; fill:none;" d="M 254,157L 254,279"/><g><g><path style="stroke:#0ff; stroke-width:8px; fill:none; " opacity="0" d="M 254,157 L 254,279" onmousedown='segmousedown("267","0",evt);' onmouseover='segmouseover("267","0",evt);' onmouseout='segmouseout("267","0",evt);' onclick='segclick("267","0",evt);'/></g></g></g><g id="268"><path style="stroke:#bdbddf; stroke-width:8px; fill:none;" opacity="0.7" d="M 685,357 V 159 a 12,12 0 0,0 -12,-12L 523,147"/><g><path style="stroke:#ff0; stroke-width:8px; fill:none; " opacity="0" d="M 685,357 V 159 a 12,12 0 0,0 -12,-12L 523,147"/></g><path style="stroke:black; fill:none;" d="M 685,357 V 159 a 12,12 0 0,0 -12,-12L 523,147"/><g><g><path style="stroke:#0ff; stroke-width:8px; fill:none; " opacity="0" d="M 685,357 L 685,147" onmousedown='segmousedown("268","0",evt);' onmouseover='segmouseover("268","0",evt);' onmouseout='segmouseout("268","0",evt);' onclick='segclick("268","0",evt);'/><path style="stroke:#0ff; stroke-width:8px; fill:none; " opacity="0" d="M 685,147 L 523,147" onmousedown='segmousedown("268","1",evt);' onmouseover='segmouseover("268","1",evt);' onmouseout='segmouseout("268","1",evt);' onclick='segclick("268","1",evt);'/></g></g></g><g id="269"><path style="stroke:#bdbddf; stroke-width:8px; fill:none;" opacity="0.7" d="M 697,357 V 334 a 12,12 0 0,0 -12,-12L 374,322"/><g><path style="stroke:#ff0; stroke-width:8px; fill:none; " opacity="0" d="M 697,357 V 334 a 12,12 0 0,0 -12,-12L 374,322"/></g><path style="stroke:black; fill:none;" d="M 697,357 V 334 a 12,12 0 0,0 -12,-12L 374,322"/><g><g><path style="stroke:#0ff; stroke-width:8px; fill:none; " opacity="0" d="M 697,357 L 697,322" onmousedown='segmousedown("269","0",evt);' onmouseover='segmouseover("269","0",evt);' onmouseout='segmouseout("269","0",evt);' onclick='segclick("269","0",evt);'/><path style="stroke:#0ff; stroke-width:8px; fill:none; " opacity="0" d="M 697,322 L 374,322" onmousedown='segmousedown("269","1",evt);' onmouseover='segmouseover("269","1",evt);' onmouseout='segmouseout("269","1",evt);' onclick='segclick("269","1",evt);'/></g></g></g><g id="270"><path style="stroke:#bdbddf; stroke-width:8px; fill:none;" opacity="0.7" d="M 374,322 V 507 a 12,12 0 0,1 -12,12L 142,519"/><g><path style="stroke:#ff0; stroke-width:8px; fill:none; " opacity="0" d="M 374,322 V 507 a 12,12 0 0,1 -12,12L 142,519"/></g><path style="stroke:black; fill:none;" d="M 374,322 V 507 a 12,12 0 0,1 -12,12L 142,519"/><g><g><path style="stroke:#0ff; stroke-width:8px; fill:none; " opacity="0" d="M 374,322 L 374,519" onmousedown='segmousedown("270","0",evt);' onmouseover='segmouseover("270","0",evt);' onmouseout='segmouseout("270","0",evt);' onclick='segclick("270","0",evt);'/><path style="stroke:#0ff; stroke-width:8px; fill:none; " opacity="0" d="M 374,519 L 142,519" onmousedown='segmousedown("270","1",evt);' onmouseover='segmouseover("270","1",evt);' onmouseout='segmouseout("270","1",evt);' onclick='segclick("270","1",evt);'/></g></g></g><g id="271"><path style="stroke:#bdbddf; stroke-width:8px; fill:none;" opacity="0.7" d="M 254,279 H 455 a 12,12 0 0,1 12,12L 467,414"/><g><path style="stroke:#ff0; stroke-width:8px; fill:none; " opacity="0" d="M 254,279 H 455 a 12,12 0 0,1 12,12L 467,414"/></g><path style="stroke:black; fill:none;" d="M 254,279 H 455 a 12,12 0 0,1 12,12L 467,414"/><g><g><path style="stroke:#0ff; stroke-width:8px; fill:none; " opacity="0" d="M 254,279 L 467,279" onmousedown='segmousedown("271","0",evt);' onmouseover='segmouseover("271","0",evt);' onmouseout='segmouseout("271","0",evt);' onclick='segclick("271","0",evt);'/><path style="stroke:#0ff; stroke-width:8px; fill:none; " opacity="0" d="M 467,279 L 467,414" onmousedown='segmousedown("271","1",evt);' onmouseover='segmouseover("271","1",evt);' onmouseout='segmouseout("271","1",evt);' onclick='segclick("271","1",evt);'/></g></g></g><g id="272"><path style="stroke:#bdbddf; stroke-width:8px; fill:none;" opacity="0.7" d="M 466,414L 466,473"/><g><path style="stroke:#ff0; stroke-width:8px; fill:none; " opacity="0" d="M 466,414L 466,473"/></g><path style="stroke:black; fill:none;" d="M 466,414L 466,473"/><g><g><path style="stroke:#0ff; stroke-width:8px; fill:none; " opacity="0" d="M 466,414 L 466,473" onmousedown='segmousedown("272","0",evt);' onmouseover='segmouseover("272","0",evt);' onmouseout='segmouseout("272","0",evt);' onclick='segclick("272","0",evt);'/></g></g></g><g id="273"><path style="stroke:#bdbddf; stroke-width:8px; fill:none;" opacity="0.7" d="M 487,488 H 677 a 12,12 0 0,0 12,-12L 689,359"/><g><path style="stroke:#ff0; stroke-width:8px; fill:none; " opacity="0" d="M 487,488 H 677 a 12,12 0 0,0 12,-12L 689,359"/></g><path style="stroke:black; fill:none;" d="M 487,488 H 677 a 12,12 0 0,0 12,-12L 689,359"/><g><g><path style="stroke:#0ff; stroke-width:8px; fill:none; " opacity="0" d="M 487,488 L 689,488" onmousedown='segmousedown("273","0",evt);' onmouseover='segmouseover("273","0",evt);' onmouseout='segmouseout("273","0",evt);' onclick='segclick("273","0",evt);'/><path style="stroke:#0ff; stroke-width:8px; fill:none; " opacity="0" d="M 689,488 L 689,359" onmousedown='segmousedown("273","1",evt);' onmouseover='segmouseover("273","1",evt);' onmouseout='segmouseout("273","1",evt);' onclick='segclick("273","1",evt);'/></g></g></g><g id="274"><path style="stroke:#bdbddf; stroke-width:8px; fill:none;" opacity="0.7" d="M 157,519L 157,215"/><g><path style="stroke:#ff0; stroke-width:8px; fill:none; " opacity="0" d="M 157,519L 157,215"/></g><path style="stroke:black; fill:none;" d="M 157,519L 157,215"/><g><g><path style="stroke:#0ff; stroke-width:8px; fill:none; " opacity="0" d="M 157,519 L 157,215" onmousedown='segmousedown("274","0",evt);' onmouseover='segmouseover("274","0",evt);' onmouseout='segmouseout("274","0",evt);' onclick='segclick("274","0",evt);'/></g></g></g><g id="275"><path style="stroke:#bdbddf; stroke-width:8px; fill:none;" opacity="0.7" d="M 142,519 H 108 a 12,12 0 0,1 -12,-12L 96,354"/><g><path style="stroke:#ff0; stroke-width:8px; fill:none; " opacity="0" d="M 142,519 H 108 a 12,12 0 0,1 -12,-12L 96,354"/></g><path style="stroke:black; fill:none;" d="M 142,519 H 108 a 12,12 0 0,1 -12,-12L 96,354"/><g><g><path style="stroke:#0ff; stroke-width:8px; fill:none; " opacity="0" d="M 142,519 L 96,519" onmousedown='segmousedown("275","0",evt);' onmouseover='segmouseover("275","0",evt);' onmouseout='segmouseout("275","0",evt);' onclick='segclick("275","0",evt);'/><path style="stroke:#0ff; stroke-width:8px; fill:none; " opacity="0" d="M 96,519 L 96,354" onmousedown='segmousedown("275","1",evt);' onmouseover='segmouseover("275","1",evt);' onmouseout='segmouseout("275","1",evt);' onclick='segclick("275","1",evt);'/></g></g></g><g id="276"><path style="stroke:#bdbddf; stroke-width:8px; fill:none;" opacity="0.7" d="M 694,346 H 645 a 12,12 0 0,1 -12,-12L 633,237"/><g><path style="stroke:#ff0; stroke-width:8px; fill:none; " opacity="0" d="M 694,346 H 645 a 12,12 0 0,1 -12,-12L 633,237"/></g><path style="stroke:black; fill:none;" d="M 694,346 H 645 a 12,12 0 0,1 -12,-12L 633,237"/><g><g><path style="stroke:#0ff; stroke-width:8px; fill:none; " opacity="0" d="M 694,346 L 633,346" onmousedown='segmousedown("276","0",evt);' onmouseover='segmouseover("276","0",evt);' onmouseout='segmouseout("276","0",evt);' onclick='segclick("276","0",evt);'/><path style="stroke:#0ff; stroke-width:8px; fill:none; " opacity="0" d="M 633,346 L 633,237" onmousedown='segmousedown("276","1",evt);' onmouseover='segmouseover("276","1",evt);' onmouseout='segmouseout("276","1",evt);' onclick='segclick("276","1",evt);'/></g></g></g><g id="277"><path style="stroke:#bdbddf; stroke-width:8px; fill:none;" opacity="0.7" d="M 633,237L 546,237"/><g><path style="stroke:#ff0; stroke-width:8px; fill:none; " opacity="0" d="M 633,237L 546,237"/></g><path style="stroke:black; fill:none;" d="M 633,237L 546,237"/><g><g><path style="stroke:#0ff; stroke-width:8px; fill:none; " opacity="0" d="M 633,237 L 546,237" onmousedown='segmousedown("277","0",evt);' onmouseover='segmouseover("277","0",evt);' onmouseout='segmouseout("277","0",evt);' onclick='segclick("277","0",evt);'/></g></g></g><g id="278"><path style="stroke:#bdbddf; stroke-width:8px; fill:none;" opacity="0.7" d="M 531,252L 531,393"/><g><path style="stroke:#ff0; stroke-width:8px; fill:none; " opacity="0" d="M 531,252L 531,393"/></g><path style="stroke:black; fill:none;" d="M 531,252L 531,393"/><g><g><path style="stroke:#0ff; stroke-width:8px; fill:none; " opacity="0" d="M 531,252 L 531,393" onmousedown='segmousedown("278","0",evt);' onmouseover='segmouseover("278","0",evt);' onmouseout='segmouseout("278","0",evt);' onclick='segclick("278","0",evt);'/></g></g></g><g id="279"><path style="stroke:#bdbddf; stroke-width:8px; fill:none;" opacity="0.7" d="M 546,408 H 630 a 12,12 0 0,0 12,-12 V 378 a 12,12 0 0,1 12,-12L 687,366"/><g><path style="stroke:#ff0; stroke-width:8px; fill:none; " opacity="0" d="M 546,408 H 630 a 12,12 0 0,0 12,-12 V 378 a 12,12 0 0,1 12,-12L 687,366"/></g><path style="stroke:black; fill:none;" d="M 546,408 H 630 a 12,12 0 0,0 12,-12 V 378 a 12,12 0 0,1 12,-12L 687,366"/><g><g><path style="stroke:#0ff; stroke-width:8px; fill:none; " opacity="0" d="M 546,408 L 642,408" onmousedown='segmousedown("279","0",evt);' onmouseover='segmouseover("279","0",evt);' onmouseout='segmouseout("279","0",evt);' onclick='segclick("279","0",evt);'/><path style="stroke:#0ff; stroke-width:8px; fill:none; " opacity="0" d="M 642,408 L 642,366" onmousedown='segmousedown("279","1",evt);' onmouseover='segmouseover("279","1",evt);' onmouseout='segmouseout("279","1",evt);' onclick='segclick("279","1",evt);'/><path style="stroke:#0ff; stroke-width:8px; fill:none; " opacity="0" d="M 642,366 L 687,366" onmousedown='segmousedown("279","2",evt);' onmouseover='segmouseover("279","2",evt);' onmouseout='segmouseout("279","2",evt);' onclick='segclick("279","2",evt);'/></g></g></g></g>
  <g id="nodes"><g id="256" onmousedown="nodemousedown(256,evt);" onmouseover="nodemouseover(256,evt);" onmouseout="nodemouseout(256,evt);" transform="translate(460 414)"><rect x="-27" y="-31.5" width="54" height="63" fill="#0ff" style="stroke:none; opacity:0.75;" display="none"/><rect x="-21" y="-25.5" width="42" height="51" fill="#f0f0d2" style="stroke:black; opacity:1;"/></g><g id="258" onmousedown="nodemousedown(258,evt);" onmouseover="nodemouseover(258,evt);" onmouseout="nodemouseout(258,evt);" transform="translate(694 357)"><rect x="-21" y="-21" width="42" height="42" fill="#0ff" style="stroke:none; opacity:0.75;" display="none"/><rect x="-15" y="-15" width="30" height="30" fill="#f0f0d2" style="stroke:black; opacity:1;"/></g><g id="259" onmousedown="nodemousedown(259,evt);" onmouseover="nodemouseover(259,evt);" onmouseout="nodemouseout(259,evt);" transform="translate(374 322)"><rect x="-21" y="-21" width="42" height="42" fill="#0ff" style="stroke:none; opacity:0.75;" display="none"/><rect x="-15" y="-15" width="30" height="30" fill="#f0f0d2" style="stroke:black; opacity:1;"/></g><g id="261" onmousedown="nodemousedown(261,evt);" onmouseover="nodemouseover(261,evt);" onmouseout="nodemouseout(261,evt);" transform="translate(142 519)"><rect x="-31" y="-21" width="62" height="42" fill="#0ff" style="stroke:none; opacity:0.75;" display="none"/><rect x="-25" y="-15" width="50" height="30" fill="#f0f0d2" style="stroke:black; opacity:1;"/></g><g id="263" onmousedown="nodemousedown(263,evt);" onmouseover="nodemouseover(263,evt);" onmouseout="nodemouseout(263,evt);" transform="translate(633 237)"><rect x="-21" y="-34" width="42" height="68" fill="#0ff" style="stroke:none; opacity:0.75;" display="none"/><rect x="-15" y="-28" width="30" height="56" fill="#f0f0d2" style="stroke:black; opacity:1;"/></g><g id="253" onmousedown="nodemousedown(253,evt);" onmouseover="nodemouseover(253,evt);" onmouseout="nodemouseout(253,evt);" transform="translate(523 147)"><rect x="-21" y="-21" width="42" height="42" fill="#0ff" style="stroke:none; opacity:0.75;" display="none"/><rect x="-15" y="-15" width="30" height="30" fill="#f0f0d2" style="stroke:black; opacity:1;"/></g><g id="255" onmousedown="nodemousedown(255,evt);" onmouseover="nodemouseover(255,evt);" onmouseout="nodemouseout(255,evt);" transform="translate(254 279)"><rect x="-21" y="-21" width="42" height="42" fill="#0ff" style="stroke:none; opacity:0.75;" display="none"/><rect x="-15" y="-15" width="30" height="30" fill="#f0f0d2" style="stroke:black; opacity:1;"/></g><g id="264" onmousedown="nodemousedown(264,evt);" onmouseover="nodemouseover(264,evt);" onmouseout="nodemouseout(264,evt);" transform="translate(531,237)"><rect x="-21" y="-21" width="42" height="42" fill="#0ff" style="stroke:none; opacity:0.75;" display="none"/><rect x="-15" y="-15" width="30" height="30" fill="#f0f0d2" style="stroke:black; opacity:1;"/></g><g id="265" onmousedown="nodemousedown(265,evt);" onmouseover="nodemouseover(265,evt);" onmouseout="nodemouseout(265,evt);" transform="translate(531,408)"><rect x="-21" y="-21" width="42" height="42" fill="#0ff" style="stroke:none; opacity:0.75;" display="none"/><rect x="-15" y="-15" width="30" height="30" fill="#f0f0d2" style="stroke:black; opacity:1;"/></g><g id="257" onmousedown="nodemousedown(257,evt);" onmouseover="nodemouseover(257,evt);" onmouseout="nodemouseout(257,evt);" transform="translate(472,488)"><rect x="-21" y="-21" width="42" height="42" fill="#0ff" style="stroke:none; opacity:0.75;" display="none"/><rect x="-15" y="-15" width="30" height="30" fill="#f0f0d2" style="stroke:black; opacity:1;"/></g><g id="254" onmousedown="nodemousedown(254,evt);" onmouseover="nodemouseover(254,evt);" onmouseout="nodemouseout(254,evt);" transform="translate(246,142)"><rect x="-32.5" y="-21" width="65" height="42" fill="#0ff" style="stroke:none; opacity:0.75;" display="none"/><rect x="-26.5" y="-15" width="53" height="30" fill="#f0f0d2" style="stroke:black; opacity:1;"/></g><g id="260" onmousedown="nodemousedown(260,evt);" onmouseover="nodemouseover(260,evt);" onmouseout="nodemouseout(260,evt);" transform="translate(147,200)"><rect x="-21" y="-21" width="42" height="42" fill="#0ff" style="stroke:none; opacity:0.75;" display="none"/><rect x="-15" y="-15" width="30" height="30" fill="#f0f0d2" style="stroke:black; opacity:1;"/></g><g id="262" onmousedown="nodemousedown(262,evt);" onmouseover="nodemouseover(262,evt);" onmouseout="nodemouseout(262,evt);" transform="translate(89,339)"><rect x="-21" y="-21" width="42" height="42" fill="#0ff" style="stroke:none; opacity:0.75;" display="none"/><rect x="-15" y="-15" width="30" height="30" fill="#f0f0d2" style="stroke:black; opacity:1;"/></g></g>
  <g id="BPs"><g onmousedown="bpmousedown(289,evt);" onmouseover="bpmouseover(289,evt);" onmouseout="bpmouseout(289,evt);" transform="translate(685 147)" opacity="0"><ellipse cx="0" cy="0" rx="16" ry="16" fill="#0ff" style="stroke:none; opacity:0.75;" display="none"/><ellipse cx="0" cy="0" rx="10" ry="10" fill="#777" style="stroke:black;"/></g><g onmousedown="bpmousedown(292,evt);" onmouseover="bpmouseover(292,evt);" onmouseout="bpmouseout(292,evt);" transform="translate(697 322)" opacity="0"><ellipse cx="0" cy="0" rx="16" ry="16" fill="#0ff" style="stroke:none; opacity:0.75;" display="none"/><ellipse cx="0" cy="0" rx="10" ry="10" fill="#777" style="stroke:black;"/></g><g onmousedown="bpmousedown(295,evt);" onmouseover="bpmouseover(295,evt);" onmouseout="bpmouseout(295,evt);" transform="translate(374 519)" opacity="0"><ellipse cx="0" cy="0" rx="16" ry="16" fill="#0ff" style="stroke:none; opacity:0.75;" display="none"/><ellipse cx="0" cy="0" rx="10" ry="10" fill="#777" style="stroke:black;"/></g><g onmousedown="bpmousedown(298,evt);" onmouseover="bpmouseover(298,evt);" onmouseout="bpmouseout(298,evt);" transform="translate(467 279)" opacity="0"><ellipse cx="0" cy="0" rx="16" ry="16" fill="#0ff" style="stroke:none; opacity:0.75;" display="none"/><ellipse cx="0" cy="0" rx="10" ry="10" fill="#777" style="stroke:black;"/></g><g onmousedown="bpmousedown(305,evt);" onmouseover="bpmouseover(305,evt);" onmouseout="bpmouseout(305,evt);" transform="translate(689,488)" opacity="0"><ellipse cx="0" cy="0" rx="16" ry="16" fill="#0ff" style="stroke:none; opacity:0.75;" display="none"/><ellipse cx="0" cy="0" rx="10" ry="10" fill="#777" style="stroke:black;"/></g><g onmousedown="bpmousedown(311,evt);" onmouseover="bpmouseover(311,evt);" onmouseout="bpmouseout(311,evt);" transform="translate(96 519)" opacity="0"><ellipse cx="0" cy="0" rx="16" ry="16" fill="#0ff" style="stroke:none; opacity:0.75;" display="none"/><ellipse cx="0" cy="0" rx="10" ry="10" fill="#777" style="stroke:black;"/></g><g onmousedown="bpmousedown(315,evt);" onmouseover="bpmouseover(315,evt);" onmouseout="bpmouseout(315,evt);" transform="translate(633 346)" opacity="0"><ellipse cx="0" cy="0" rx="16" ry="16" fill="#0ff" style="stroke:none; opacity:0.75;" display="none"/><ellipse cx="0" cy="0" rx="10" ry="10" fill="#777" style="stroke:black;"/></g><g onmousedown="bpmousedown(326,evt);" onmouseover="bpmouseover(326,evt);" onmouseout="bpmouseout(326,evt);" transform="translate(642,408)" opacity="0"><ellipse cx="0" cy="0" rx="16" ry="16" fill="#0ff" style="stroke:none; opacity:0.75;" display="none"/><ellipse cx="0" cy="0" rx="10" ry="10" fill="#777" style="stroke:black;"/></g><g onmousedown="bpmousedown(327,evt);" onmouseover="bpmouseover(327,evt);" onmouseout="bpmouseout(327,evt);" transform="translate(642 366)" opacity="0"><ellipse cx="0" cy="0" rx="16" ry="16" fill="#0ff" style="stroke:none; opacity:0.75;" display="none"/><ellipse cx="0" cy="0" rx="10" ry="10" fill="#777" style="stroke:black;"/></g></g>
  <g id="ports"/>
</g>
</svg>