<svg xmlns:xlink="http://www.w3.org/1999/xlink" xmlns="http://www.w3.org/2000/svg" height="270px" width="480px" id="SVGCanvas" onmouseup="" onmousemove="">
<rect fill="#bdbddf" width="100%" height="100%" y="0" x="0" id="background" onmousedown="bgmousedown(evt)"/>
<g id="foreground" transform="translate(169.60548885077185,0),scale(0.9262435677530018),translate(-224,-173)">
  <g id="edges"><g id="169"><path style="stroke:#bdbddf; stroke-width:8px; fill:none;" opacity="0.7" d="M 291,324L 331,324"/><g><path style="stroke:#ff0; stroke-width:8px; fill:none; " opacity="0" d="M 291,324L 331,324"/></g><path style="stroke:black; fill:none;" d="M 291,324L 331,324"/><g><g><path style="stroke:#0ff; stroke-width:8px; fill:none; " opacity="0" d="M 291,324 L 331,324" onmousedown='segmousedown("169","0",evt);' onmouseover='segmouseover("169","0",evt);' onmouseout='segmouseout("169","0",evt);' onclick='segclick("169","0",evt);'/></g></g></g><g id="170"><path style="stroke:#bdbddf; stroke-width:8px; fill:none;" opacity="0.7" d="M 346,309 V 210 a 12,12 0 0,0 -12,-12 H 276 a 12,12 0 0,0 -12,12L 264,230"/><g><path style="stroke:#ff0; stroke-width:8px; fill:none; " opacity="0" d="M 346,309 V 210 a 12,12 0 0,0 -12,-12 H 276 a 12,12 0 0,0 -12,12L 264,230"/></g><path style="stroke:black; fill:none;" d="M 346,309 V 210 a 12,12 0 0,0 -12,-12 H 276 a 12,12 0 0,0 -12,12L 264,230"/><g><g><path style="stroke:#0ff; stroke-width:8px; fill:none; " opacity="0" d="M 346,309 L 346,198" onmousedown='segmousedown("170","0",evt);' onmouseover='segmouseover("170","0",evt);' onmouseout='segmouseout("170","0",evt);' onclick='segclick("170","0",evt);'/><path style="stroke:#0ff; stroke-width:8px; fill:none; " opacity="0" d="M 346,198 L 264,198" onmousedown='segmousedown("170","1",evt);' onmouseover='segmouseover("170","1",evt);' onmouseout='segmouseout("170","1",evt);' onclick='segclick("170","1",evt);'/><path style="stroke:#0ff; stroke-width:8px; fill:none; " opacity="0" d="M 264,198 L 264,230" onmousedown='segmousedown("170","2",evt);' onmouseover='segmouseover("170","2",evt);' onmouseout='segmouseout("170","2",evt);' onclick='segclick("170","2",evt);'/></g></g></g><g id="171"><path style="stroke:#bdbddf; stroke-width:8px; fill:none;" opacity="0.7" d="M 249,245L 249,402.5"/><g><path style="stroke:#ff0; stroke-width:8px; fill:none; " opacity="0" d="M 249,245L 249,402.5"/></g><path style="stroke:black; fill:none;" d="M 249,245L 249,402.5"/><g><g><path style="stroke:#0ff; stroke-width:8px; fill:none; " opacity="0" d="M 249,245 L 249,402.5" onmousedown='segmousedown("171","0",evt);' onmouseover='segmouseover("171","0",evt);' onmouseout='segmouseout("171","0",evt);' onclick='segclick("171","0",evt);'/></g></g></g><g id="172"><path style="stroke:#bdbddf; stroke-width:8px; fill:none;" opacity="0.7" d="M 269,426 H 332 a 12,12 0 0,0 12,-12L 344,339"/><g><path style="stroke:#ff0; stroke-width:8px; fill:none; " opacity="0" d="M 269,426 H 332 a 12,12 0 0,0 12,-12L 344,339"/></g><path style="stroke:black; fill:none;" d="M 269,426 H 332 a 12,12 0 0,0 12,-12L 344,339"/><g><g><path style="stroke:#0ff; stroke-width:8px; fill:none; " opacity="0" d="M 269,426 L 344,426" onmousedown='segmousedown("172","0",evt);' onmouseover='segmouseover("172","0",evt);' onmouseout='segmouseout("172","0",evt);' onclick='segclick("172","0",evt);'/><path style="stroke:#0ff; stroke-width:8px; fill:none; " opacity="0" d="M 344,426 L 344,339" onmousedown='segmousedown("172","1",evt);' onmouseover='segmouseover("172","1",evt);' onmouseout='segmouseout("172","1",evt);' onclick='segclick("172","1",evt);'/></g></g></g><g id="173"><path style="stroke:#bdbddf; stroke-width:8px; fill:none;" opacity="0.7" d="M 276,245L 276,309"/><g><path style="stroke:#ff0; stroke-width:8px; fill:none; " opacity="0" d="M 276,245L 276,309"/></g><path style="stroke:black; fill:none;" d="M 276,245L 276,309"/><g><g><path style="stroke:#0ff; stroke-width:8px; fill:none; " opacity="0" d="M 276,245 L 276,309" onmousedown='segmousedown("173","0",evt);' onmouseover='segmouseover("173","0",evt);' onmouseout='segmouseout("173","0",evt);' onclick='segclick("173","0",evt);'/></g></g></g><g id="174"><path style="stroke:#bdbddf; stroke-width:8px; fill:none;" opacity="0.7" d="M 265,339L 265,402.5"/><g><path style="stroke:#ff0; stroke-width:8px; fill:none; " opacity="0" d="M 265,339L 265,402.5"/></g><path style="stroke:black; fill:none;" d="M 265,339L 265,402.5"/><g><g><path style="stroke:#0ff; stroke-width:8px; fill:none; " opacity="0" d="M 265,339 L 265,402.5" onmousedown='segmousedown("174","0",evt);' onmouseover='segmouseover("174","0",evt);' onmouseout='segmouseout("174","0",evt);' onclick='segclick("174","0",evt);'/></g></g></g></g>
  <g id="nodes"><g id="165" onmousedown="nodemousedown(165,evt);" onmouseover="nodemouseover(165,evt);" onmouseout="nodemouseout(165,evt);" transform="translate(264 230)"><rect x="-31" y="-21" width="62" height="42" fill="#0ff" style="stroke:none; opacity:0.75;" display="none"/><rect x="-25" y="-15" width="50" height="30" fill="#f0f0d2" style="stroke:black; opacity:1;"/></g><g id="168" onmousedown="nodemousedown(168,evt);" onmouseover="nodemouseover(168,evt);" onmouseout="nodemouseout(168,evt);" transform="translate(276,324)"><rect x="-21" y="-21" width="42" height="42" fill="#0ff" style="stroke:none; opacity:0.75;" display="none"/><rect x="-15" y="-15" width="30" height="30" fill="#f0f0d2" style="stroke:black; opacity:1;"/></g><g id="167" onmousedown="nodemousedown(167,evt);" onmouseover="nodemouseover(167,evt);" onmouseout="nodemouseout(167,evt);" transform="translate(346,324)"><rect x="-21" y="-21" width="42" height="42" fill="#0ff" style="stroke:none; opacity:0.75;" display="none"/><rect x="-15" y="-15" width="30" height="30" fill="#f0f0d2" style="stroke:black; opacity:1;"/></g><g id="166" onmousedown="nodemousedown(166,evt);" onmouseover="nodemouseover(166,evt);" onmouseout="nodemouseout(166,evt);" transform="translate(254,426)"><rect x="-21" y="-29.5" width="42" height="59" fill="#0ff" style="stroke:none; opacity:0.75;" display="none"/><rect x="-15" y="-23.5" width="30" height="47" fill="#f0f0d2" style="stroke:black; opacity:1;"/></g></g>
  <g id="BPs"><g onmousedown="bpmousedown(181,evt);" onmouseover="bpmouseover(181,evt);" onmouseout="bpmouseout(181,evt);" transform="translate(346,198)" opacity="0"><ellipse cx="0" cy="0" rx="16" ry="16" fill="#0ff" style="stroke:none; opacity:0.75;" display="none"/><ellipse cx="0" cy="0" rx="7.786880000000001" ry="7.786880000000001" fill="#777" style="stroke:black;"/></g><g onmousedown="bpmousedown(182,evt);" onmouseover="bpmouseover(182,evt);" onmouseout="bpmouseout(182,evt);" transform="translate(264 198)" opacity="0"><ellipse cx="0" cy="0" rx="16" ry="16" fill="#0ff" style="stroke:none; opacity:0.75;" display="none"/><ellipse cx="0" cy="0" rx="7.786880000000001" ry="7.786880000000001" fill="#777" style="stroke:black;"/></g><g onmousedown="bpmousedown(189,evt);" onmouseover="bpmouseover(189,evt);" onmouseout="bpmouseout(189,evt);" transform="translate(344,426)" opacity="0"><ellipse cx="0" cy="0" rx="16" ry="16" fill="#0ff" style="stroke:none; opacity:0.75;" display="none"/><ellipse cx="0" cy="0" rx="7.786880000000001" ry="7.786880000000001" fill="#777" style="stroke:black;"/></g></g>
  <g id="ports"/>
</g>
</svg>