<svg xmlns:xlink="http://www.w3.org/1999/xlink" xmlns="http://www.w3.org/2000/svg" height="270px" width="480px" id="SVGCanvas" onmouseup="" onmousemove="">
<rect fill="#bdbddf" width="100%" height="100%" y="0" x="0" id="background" onmousedown="bgmousedown(evt)"/>
<g id="foreground" transform="translate(32.12802768166091,0),scale(0.9342560553633218),translate(-122,-250)">
  <g id="edges"><g id="305"><path style="stroke:#bdbddf; stroke-width:8px; fill:none;" opacity="0.7" d="M 152,274L 537,274"/><g><path style="stroke:#ff0; stroke-width:8px; fill:none; " opacity="0" d="M 152,274L 537,274"/></g><path style="stroke:black; fill:none;" d="M 152,274L 537,274"/><g><g><path style="stroke:#0ff; stroke-width:8px; fill:none; " opacity="0" d="M 152,274 L 537,274" onmousedown='segmousedown("305","0",evt);' onmouseover='segmouseover("305","0",evt);' onmouseout='segmouseout("305","0",evt);' onclick='segclick("305","0",evt);'/></g></g></g><g id="306"><path style="stroke:#bdbddf; stroke-width:8px; fill:none;" opacity="0.7" d="M 537,295L 537,494"/><g><path style="stroke:#ff0; stroke-width:8px; fill:none; " opacity="0" d="M 537,295L 537,494"/></g><path style="stroke:black; fill:none;" d="M 537,295L 537,494"/><g><g><path style="stroke:#0ff; stroke-width:8px; fill:none; " opacity="0" d="M 537,295 L 537,494" onmousedown='segmousedown("306","0",evt);' onmouseover='segmouseover("306","0",evt);' onmouseout='segmouseout("306","0",evt);' onclick='segclick("306","0",evt);'/></g></g></g><g id="307"><path style="stroke:#bdbddf; stroke-width:8px; fill:none;" opacity="0.7" d="M 522,509L 368,509"/><g><path style="stroke:#ff0; stroke-width:8px; fill:none; " opacity="0" d="M 522,509L 368,509"/></g><path style="stroke:black; fill:none;" d="M 522,509L 368,509"/><g><g><path style="stroke:#0ff; stroke-width:8px; fill:none; " opacity="0" d="M 522,509 L 368,509" onmousedown='segmousedown("307","0",evt);' onmouseover='segmouseover("307","0",evt);' onmouseout='segmouseout("307","0",evt);' onclick='segclick("307","0",evt);'/></g></g></g><g id="308"><path style="stroke:#bdbddf; stroke-width:8px; fill:none;" opacity="0.7" d="M 338,509L 167,509"/><g><path style="stroke:#ff0; stroke-width:8px; fill:none; " opacity="0" d="M 338,509L 167,509"/></g><path style="stroke:black; fill:none;" d="M 338,509L 167,509"/><g><g><path style="stroke:#0ff; stroke-width:8px; fill:none; " opacity="0" d="M 338,509 L 167,509" onmousedown='segmousedown("308","0",evt);' onmouseover='segmouseover("308","0",evt);' onmouseout='segmouseout("308","0",evt);' onclick='segclick("308","0",evt);'/></g></g></g><g id="309"><path style="stroke:#bdbddf; stroke-width:8px; fill:none;" opacity="0.7" d="M 152,494L 152,418"/><g><path style="stroke:#ff0; stroke-width:8px; fill:none; " opacity="0" d="M 152,494L 152,418"/></g><path style="stroke:black; fill:none;" d="M 152,494L 152,418"/><g><g><path style="stroke:#0ff; stroke-width:8px; fill:none; " opacity="0" d="M 152,494 L 152,418" onmousedown='segmousedown("309","0",evt);' onmouseover='segmouseover("309","0",evt);' onmouseout='segmouseout("309","0",evt);' onclick='segclick("309","0",evt);'/></g></g></g><g id="310"><path style="stroke:#bdbddf; stroke-width:8px; fill:none;" opacity="0.7" d="M 152,388L 152,280"/><g><path style="stroke:#ff0; stroke-width:8px; fill:none; " opacity="0" d="M 152,388L 152,280"/></g><path style="stroke:black; fill:none;" d="M 152,388L 152,280"/><g><g><path style="stroke:#0ff; stroke-width:8px; fill:none; " opacity="0" d="M 152,388 L 152,280" onmousedown='segmousedown("310","0",evt);' onmouseover='segmouseover("310","0",evt);' onmouseout='segmouseout("310","0",evt);' onclick='segclick("310","0",evt);'/></g></g></g><g id="311"><path style="stroke:#bdbddf; stroke-width:8px; fill:none;" opacity="0.7" d="M 152,403L 354,403"/><g><path style="stroke:#ff0; stroke-width:8px; fill:none; " opacity="0" d="M 152,403L 354,403"/></g><path style="stroke:black; fill:none;" d="M 152,403L 354,403"/><g><g><path style="stroke:#0ff; stroke-width:8px; fill:none; " opacity="0" d="M 152,403 L 354,403" onmousedown='segmousedown("311","0",evt);' onmouseover='segmouseover("311","0",evt);' onmouseout='segmouseout("311","0",evt);' onclick='segclick("311","0",evt);'/></g></g></g><g id="312"><path style="stroke:#bdbddf; stroke-width:8px; fill:none;" opacity="0.7" d="M 430,353L 430,452"/><g><path style="stroke:#ff0; stroke-width:8px; fill:none; " opacity="0" d="M 430,353L 430,452"/></g><path style="stroke:black; fill:none;" d="M 430,353L 430,452"/><g><g><path style="stroke:#0ff; stroke-width:8px; fill:none; " opacity="0" d="M 430,353 L 430,452" onmousedown='segmousedown("312","0",evt);' onmouseover='segmouseover("312","0",evt);' onmouseout='segmouseout("312","0",evt);' onclick='segclick("312","0",evt);'/></g></g></g><g id="313"><path style="stroke:#bdbddf; stroke-width:8px; fill:none;" opacity="0.7" d="M 415,476L 311,476"/><g><path style="stroke:#ff0; stroke-width:8px; fill:none; " opacity="0" d="M 415,476L 311,476"/></g><path style="stroke:black; fill:none;" d="M 415,476L 311,476"/><g><g><path style="stroke:#0ff; stroke-width:8px; fill:none; " opacity="0" d="M 415,476 L 311,476" onmousedown='segmousedown("313","0",evt);' onmouseover='segmouseover("313","0",evt);' onmouseout='segmouseout("313","0",evt);' onclick='segclick("313","0",evt);'/></g></g></g><g id="314"><path style="stroke:#bdbddf; stroke-width:8px; fill:none;" opacity="0.7" d="M 430,353L 332,353"/><g><path style="stroke:#ff0; stroke-width:8px; fill:none; " opacity="0" d="M 430,353L 332,353"/></g><path style="stroke:black; fill:none;" d="M 430,353L 332,353"/><g><g><path style="stroke:#0ff; stroke-width:8px; fill:none; " opacity="0" d="M 430,353 L 332,353" onmousedown='segmousedown("314","0",evt);' onmouseover='segmouseover("314","0",evt);' onmouseout='segmouseout("314","0",evt);' onclick='segclick("314","0",evt);'/></g></g></g><g id="315"><path style="stroke:#bdbddf; stroke-width:8px; fill:none;" opacity="0.7" d="M 522,286 H 501 a 12,12 0 0,0 -12,12 V 341 a 12,12 0 0,1 -12,12L 430,353"/><g><path style="stroke:#ff0; stroke-width:8px; fill:none; " opacity="0" d="M 522,286 H 501 a 12,12 0 0,0 -12,12 V 341 a 12,12 0 0,1 -12,12L 430,353"/></g><path style="stroke:black; fill:none;" d="M 522,286 H 501 a 12,12 0 0,0 -12,12 V 341 a 12,12 0 0,1 -12,12L 430,353"/><g><g><path style="stroke:#0ff; stroke-width:8px; fill:none; " opacity="0" d="M 522,286 L 489,286" onmousedown='segmousedown("315","0",evt);' onmouseover='segmouseover("315","0",evt);' onmouseout='segmouseout("315","0",evt);' onclick='segclick("315","0",evt);'/><path style="stroke:#0ff; stroke-width:8px; fill:none; " opacity="0" d="M 489,286 L 489,353" onmousedown='segmousedown("315","1",evt);' onmouseover='segmouseover("315","1",evt);' onmouseout='segmouseout("315","1",evt);' onclick='segclick("315","1",evt);'/><path style="stroke:#0ff; stroke-width:8px; fill:none; " opacity="0" d="M 489,353 L 430,353" onmousedown='segmousedown("315","2",evt);' onmouseover='segmouseover("315","2",evt);' onmouseout='segmouseout("315","2",evt);' onclick='segclick("315","2",evt);'/></g></g></g><g id="316"><path style="stroke:#bdbddf; stroke-width:8px; fill:none;" opacity="0.7" d="M 354,403L 354,506"/><g><path style="stroke:#ff0; stroke-width:8px; fill:none; " opacity="0" d="M 354,403L 354,506"/></g><path style="stroke:black; fill:none;" d="M 354,403L 354,506"/><g><g><path style="stroke:#0ff; stroke-width:8px; fill:none; " opacity="0" d="M 354,403 L 354,506" onmousedown='segmousedown("316","0",evt);' onmouseover='segmouseover("316","0",evt);' onmouseout='segmouseout("316","0",evt);' onclick='segclick("316","0",evt);'/></g></g></g><g id="317"><path style="stroke:#bdbddf; stroke-width:8px; fill:none;" opacity="0.7" d="M 415,457 H 406 a 9,9 0 0,1 -9,-9L 397,418"/><g><path style="stroke:#ff0; stroke-width:8px; fill:none; " opacity="0" d="M 415,457 H 406 a 9,9 0 0,1 -9,-9L 397,418"/></g><path style="stroke:black; fill:none;" d="M 415,457 H 406 a 9,9 0 0,1 -9,-9L 397,418"/><g><g><path style="stroke:#0ff; stroke-width:8px; fill:none; " opacity="0" d="M 415,457 L 397,457" onmousedown='segmousedown("317","0",evt);' onmouseover='segmouseover("317","0",evt);' onmouseout='segmouseout("317","0",evt);' onclick='segclick("317","0",evt);'/><path style="stroke:#0ff; stroke-width:8px; fill:none; " opacity="0" d="M 397,457 L 397,418" onmousedown='segmousedown("317","1",evt);' onmouseover='segmouseover("317","1",evt);' onmouseout='segmouseout("317","1",evt);' onclick='segclick("317","1",evt);'/></g></g></g></g>
  <g id="nodes"><g id="293" onmousedown="nodemousedown(293,evt);" onmouseover="nodemouseover(293,evt);" onmouseout="nodemouseout(293,evt);" transform="translate(152 280)"><rect x="-21" y="-21" width="42" height="42" fill="#0ff" style="stroke:none; opacity:0.75;" display="none"/><rect x="-15" y="-15" width="30" height="30" fill="#f0f0d2" style="stroke:black; opacity:1;"/></g><g id="298" onmousedown="nodemousedown(298,evt);" onmouseover="nodemouseover(298,evt);" onmouseout="nodemouseout(298,evt);" transform="translate(354 403)"><rect x="-21" y="-21" width="42" height="42" fill="#0ff" style="stroke:none; opacity:0.75;" display="none"/><rect x="-15" y="-15" width="30" height="30" fill="#f0f0d2" style="stroke:black; opacity:1;"/></g><g id="300" onmousedown="nodemousedown(300,evt);" onmouseover="nodemouseover(300,evt);" onmouseout="nodemouseout(300,evt);" transform="translate(430 353)"><rect x="-21" y="-21" width="42" height="42" fill="#0ff" style="stroke:none; opacity:0.75;" display="none"/><rect x="-15" y="-15" width="30" height="30" fill="#f0f0d2" style="stroke:black; opacity:1;"/></g><g id="297" onmousedown="nodemousedown(297,evt);" onmouseover="nodemouseover(297,evt);" onmouseout="nodemouseout(297,evt);" transform="translate(152,403)"><rect x="-21" y="-21" width="42" height="42" fill="#0ff" style="stroke:none; opacity:0.75;" display="none"/><rect x="-15" y="-15" width="30" height="30" fill="#f0f0d2" style="stroke:black; opacity:1;"/></g><g id="295" onmousedown="nodemousedown(295,evt);" onmouseover="nodemouseover(295,evt);" onmouseout="nodemouseout(295,evt);" transform="translate(152,509)"><rect x="-21" y="-21" width="42" height="42" fill="#0ff" style="stroke:none; opacity:0.75;" display="none"/><rect x="-15" y="-15" width="30" height="30" fill="#f0f0d2" style="stroke:black; opacity:1;"/></g><g id="299" onmousedown="nodemousedown(299,evt);" onmouseover="nodemouseover(299,evt);" onmouseout="nodemouseout(299,evt);" transform="translate(353,509)"><rect x="-21" y="-21" width="42" height="42" fill="#0ff" style="stroke:none; opacity:0.75;" display="none"/><rect x="-15" y="-15" width="30" height="30" fill="#f0f0d2" style="stroke:black; opacity:1;"/></g><g id="296" onmousedown="nodemousedown(296,evt);" onmouseover="nodemouseover(296,evt);" onmouseout="nodemouseout(296,evt);" transform="translate(537,509)"><rect x="-21" y="-21" width="42" height="42" fill="#0ff" style="stroke:none; opacity:0.75;" display="none"/><rect x="-15" y="-15" width="30" height="30" fill="#f0f0d2" style="stroke:black; opacity:1;"/></g><g id="294" onmousedown="nodemousedown(294,evt);" onmouseover="nodemouseover(294,evt);" onmouseout="nodemouseout(294,evt);" transform="translate(537,280)"><rect x="-21" y="-21" width="42" height="42" fill="#0ff" style="stroke:none; opacity:0.75;" display="none"/><rect x="-15" y="-15" width="30" height="30" fill="#f0f0d2" style="stroke:black; opacity:1;"/></g><g id="301" onmousedown="nodemousedown(301,evt);" onmouseover="nodemouseover(301,evt);" onmouseout="nodemouseout(301,evt);" transform="translate(317,353)"><rect x="-21" y="-21" width="42" height="42" fill="#0ff" style="stroke:none; opacity:0.75;" display="none"/><rect x="-15" y="-15" width="30" height="30" fill="#f0f0d2" style="stroke:black; opacity:1;"/></g><g id="302" onmousedown="nodemousedown(302,evt);" onmouseover="nodemouseover(302,evt);" onmouseout="nodemouseout(302,evt);" transform="translate(430,467)"><rect x="-21" y="-21" width="42" height="42" fill="#0ff" style="stroke:none; opacity:0.75;" display="none"/><rect x="-15" y="-15" width="30" height="30" fill="#f0f0d2" style="stroke:black; opacity:1;"/></g><g id="304" onmousedown="nodemousedown(304,evt);" onmouseover="nodemouseover(304,evt);" onmouseout="nodemouseout(304,evt);" transform="translate(397,403)"><rect x="-21" y="-21" width="42" height="42" fill="#0ff" style="stroke:none; opacity:0.75;" display="none"/><rect x="-15" y="-15" width="30" height="30" fill="#f0f0d2" style="stroke:black; opacity:1;"/></g><g id="303" onmousedown="nodemousedown(303,evt);" onmouseover="nodemouseover(303,evt);" onmouseout="nodemouseout(303,evt);" transform="translate(296,476)"><rect x="-21" y="-21" width="42" height="42" fill="#0ff" style="stroke:none; opacity:0.75;" display="none"/><rect x="-15" y="-15" width="30" height="30" fill="#f0f0d2" style="stroke:black; opacity:1;"/></g></g>
  <g id="BPs"><g onmousedown="bpmousedown(356,evt);" onmouseover="bpmouseover(356,evt);" onmouseout="bpmouseout(356,evt);" transform="translate(489 286)" opacity="0"><ellipse cx="0" cy="0" rx="16" ry="16" fill="#0ff" style="stroke:none; opacity:0.75;" display="none"/><ellipse cx="0" cy="0" rx="7.786880000000001" ry="7.786880000000001" fill="#777" style="stroke:black;"/></g><g onmousedown="bpmousedown(357,evt);" onmouseover="bpmouseover(357,evt);" onmouseout="bpmouseout(357,evt);" transform="translate(489 353)" opacity="0"><ellipse cx="0" cy="0" rx="16" ry="16" fill="#0ff" style="stroke:none; opacity:0.75;" display="none"/><ellipse cx="0" cy="0" rx="7.786880000000001" ry="7.786880000000001" fill="#777" style="stroke:black;"/></g><g onmousedown="bpmousedown(362,evt);" onmouseover="bpmouseover(362,evt);" onmouseout="bpmouseout(362,evt);" transform="translate(397,457)" opacity="0"><ellipse cx="0" cy="0" rx="16" ry="16" fill="#0ff" style="stroke:none; opacity:0.75;" display="none"/><ellipse cx="0" cy="0" rx="7.786880000000001" ry="7.786880000000001" fill="#777" style="stroke:black;"/></g></g>
  <g id="ports"/>
</g>
</svg>