<svg xmlns:xlink="http://www.w3.org/1999/xlink" xmlns="http://www.w3.org/2000/svg" height="270px" width="480px" id="SVGCanvas" onmouseup="" onmousemove="">
<rect fill="#bdbddf" width="100%" height="100%" y="0" x="0" id="background" onmousedown="bgmousedown(evt)"/>
<g id="foreground" transform="translate(0,27.50814332247556),scale(0.7817589576547231),translate(-138,-244)">
  <g id="edges"><g id="192"><path style="stroke:#bdbddf; stroke-width:8px; fill:none;" opacity="0.7" d="M 168,274L 168,381"/><g><path style="stroke:#ff0; stroke-width:8px; fill:none; " opacity="0" d="M 168,274L 168,381"/></g><path style="stroke:black; fill:none;" d="M 168,274L 168,381"/><g><g><path style="stroke:#0ff; stroke-width:8px; fill:none; " opacity="0" d="M 168,274 L 168,381" onmousedown='segmousedown("192","0",evt);' onmouseover='segmouseover("192","0",evt);' onmouseout='segmouseout("192","0",evt);' onclick='segclick("192","0",evt);'/></g></g></g><g id="193"><path style="stroke:#bdbddf; stroke-width:8px; fill:none;" opacity="0.7" d="M 296,396L 296,489"/><g><path style="stroke:#ff0; stroke-width:8px; fill:none; " opacity="0" d="M 296,396L 296,489"/></g><path style="stroke:black; fill:none;" d="M 296,396L 296,489"/><g><g><path style="stroke:#0ff; stroke-width:8px; fill:none; " opacity="0" d="M 296,396 L 296,489" onmousedown='segmousedown("193","0",evt);' onmouseover='segmouseover("193","0",evt);' onmouseout='segmouseout("193","0",evt);' onclick='segclick("193","0",evt);'/></g></g></g><g id="184"><path style="stroke:#bdbddf; stroke-width:8px; fill:none;" opacity="0.7" d="M 296,396L 707,396"/><g><path style="stroke:#ff0; stroke-width:8px; fill:none; " opacity="0" d="M 296,396L 707,396"/></g><path style="stroke:black; fill:none;" d="M 296,396L 707,396"/><g><g><path style="stroke:#0ff; stroke-width:8px; fill:none; " opacity="0" d="M 296,396 L 707,396" onmousedown='segmousedown("184","0",evt);' onmouseover='segmouseover("184","0",evt);' onmouseout='segmouseout("184","0",evt);' onclick='segclick("184","0",evt);'/></g></g></g><g id="185"><path style="stroke:#bdbddf; stroke-width:8px; fill:none;" opacity="0.7" d="M 722,381L 722,359"/><g><path style="stroke:#ff0; stroke-width:8px; fill:none; " opacity="0" d="M 722,381L 722,359"/></g><path style="stroke:black; fill:none;" d="M 722,381L 722,359"/><g><g><path style="stroke:#0ff; stroke-width:8px; fill:none; " opacity="0" d="M 722,381 L 722,359" onmousedown='segmousedown("185","0",evt);' onmouseover='segmouseover("185","0",evt);' onmouseout='segmouseout("185","0",evt);' onclick='segclick("185","0",evt);'/></g></g></g><g id="186"><path style="stroke:#bdbddf; stroke-width:8px; fill:none;" opacity="0.7" d="M 722,329L 722,274"/><g><path style="stroke:#ff0; stroke-width:8px; fill:none; " opacity="0" d="M 722,329L 722,274"/></g><path style="stroke:black; fill:none;" d="M 722,329L 722,274"/><g><g><path style="stroke:#0ff; stroke-width:8px; fill:none; " opacity="0" d="M 722,329 L 722,274" onmousedown='segmousedown("186","0",evt);' onmouseover='segmouseover("186","0",evt);' onmouseout='segmouseout("186","0",evt);' onclick='segclick("186","0",evt);'/></g></g></g><g id="187"><path style="stroke:#bdbddf; stroke-width:8px; fill:none;" opacity="0.7" d="M 296,396L 183,396"/><g><path style="stroke:#ff0; stroke-width:8px; fill:none; " opacity="0" d="M 296,396L 183,396"/></g><path style="stroke:black; fill:none;" d="M 296,396L 183,396"/><g><g><path style="stroke:#0ff; stroke-width:8px; fill:none; " opacity="0" d="M 296,396 L 183,396" onmousedown='segmousedown("187","0",evt);' onmouseover='segmouseover("187","0",evt);' onmouseout='segmouseout("187","0",evt);' onclick='segclick("187","0",evt);'/></g></g></g><g id="188"><path style="stroke:#bdbddf; stroke-width:8px; fill:none;" opacity="0.7" d="M 722,487L 722,396"/><g><path style="stroke:#ff0; stroke-width:8px; fill:none; " opacity="0" d="M 722,487L 722,396"/></g><path style="stroke:black; fill:none;" d="M 722,487L 722,396"/><g><g><path style="stroke:#0ff; stroke-width:8px; fill:none; " opacity="0" d="M 722,487 L 722,396" onmousedown='segmousedown("188","0",evt);' onmouseover='segmouseover("188","0",evt);' onmouseout='segmouseout("188","0",evt);' onclick='segclick("188","0",evt);'/></g></g></g><g id="189"><path style="stroke:#bdbddf; stroke-width:8px; fill:none;" opacity="0.7" d="M 722,274L 311,274"/><g><path style="stroke:#ff0; stroke-width:8px; fill:none; " opacity="0" d="M 722,274L 311,274"/></g><path style="stroke:black; fill:none;" d="M 722,274L 311,274"/><g><g><path style="stroke:#0ff; stroke-width:8px; fill:none; " opacity="0" d="M 722,274 L 311,274" onmousedown='segmousedown("189","0",evt);' onmouseover='segmouseover("189","0",evt);' onmouseout='segmouseout("189","0",evt);' onclick='segclick("189","0",evt);'/></g></g></g><g id="190"><path style="stroke:#bdbddf; stroke-width:8px; fill:none;" opacity="0.7" d="M 296,289L 296,396"/><g><path style="stroke:#ff0; stroke-width:8px; fill:none; " opacity="0" d="M 296,289L 296,396"/></g><path style="stroke:black; fill:none;" d="M 296,289L 296,396"/><g><g><path style="stroke:#0ff; stroke-width:8px; fill:none; " opacity="0" d="M 296,289 L 296,396" onmousedown='segmousedown("190","0",evt);' onmouseover='segmouseover("190","0",evt);' onmouseout='segmouseout("190","0",evt);' onclick='segclick("190","0",evt);'/></g></g></g><g id="191"><path style="stroke:#bdbddf; stroke-width:8px; fill:none;" opacity="0.7" d="M 281,274L 168,274"/><g><path style="stroke:#ff0; stroke-width:8px; fill:none; " opacity="0" d="M 281,274L 168,274"/></g><path style="stroke:black; fill:none;" d="M 281,274L 168,274"/><g><g><path style="stroke:#0ff; stroke-width:8px; fill:none; " opacity="0" d="M 281,274 L 168,274" onmousedown='segmousedown("191","0",evt);' onmouseover='segmouseover("191","0",evt);' onmouseout='segmouseout("191","0",evt);' onclick='segclick("191","0",evt);'/></g></g></g></g>
  <g id="nodes"><g id="175" onmousedown="nodemousedown(175,evt);" onmouseover="nodemouseover(175,evt);" onmouseout="nodemouseout(175,evt);" transform="translate(296 396)"><rect x="-21" y="-21" width="42" height="42" fill="#0ff" style="stroke:none; opacity:0.75;" display="none"/><rect x="-15" y="-15" width="30" height="30" fill="#f0f0d2" style="stroke:black; opacity:1;"/></g><g id="178" onmousedown="nodemousedown(178,evt);" onmouseover="nodemouseover(178,evt);" onmouseout="nodemouseout(178,evt);" transform="translate(722,274)"><rect x="-21" y="-21" width="42" height="42" fill="#0ff" style="stroke:none; opacity:0.75;" display="none"/><rect x="-15" y="-15" width="30" height="30" fill="#f0f0d2" style="stroke:black; opacity:1;"/></g><g id="181" onmousedown="nodemousedown(181,evt);" onmouseover="nodemouseover(181,evt);" onmouseout="nodemouseout(181,evt);" transform="translate(168 274)"><rect x="-21" y="-21" width="42" height="42" fill="#0ff" style="stroke:none; opacity:0.75;" display="none"/><rect x="-15" y="-15" width="30" height="30" fill="#f0f0d2" style="stroke:black; opacity:1;"/></g><g id="182" onmousedown="nodemousedown(182,evt);" onmouseover="nodemouseover(182,evt);" onmouseout="nodemouseout(182,evt);" transform="translate(722,487)"><rect x="-21" y="-21" width="42" height="42" fill="#0ff" style="stroke:none; opacity:0.75;" display="none"/><rect x="-15" y="-15" width="30" height="30" fill="#f0f0d2" style="stroke:black; opacity:1;"/></g><g id="179" onmousedown="nodemousedown(179,evt);" onmouseover="nodemouseover(179,evt);" onmouseout="nodemouseout(179,evt);" transform="translate(168,396)"><rect x="-21" y="-21" width="42" height="42" fill="#0ff" style="stroke:none; opacity:0.75;" display="none"/><rect x="-15" y="-15" width="30" height="30" fill="#f0f0d2" style="stroke:black; opacity:1;"/></g><g id="176" onmousedown="nodemousedown(176,evt);" onmouseover="nodemouseover(176,evt);" onmouseout="nodemouseout(176,evt);" transform="translate(722,396)"><rect x="-21" y="-21" width="42" height="42" fill="#0ff" style="stroke:none; opacity:0.75;" display="none"/><rect x="-15" y="-15" width="30" height="30" fill="#f0f0d2" style="stroke:black; opacity:1;"/></g><g id="177" onmousedown="nodemousedown(177,evt);" onmouseover="nodemouseover(177,evt);" onmouseout="nodemouseout(177,evt);" transform="translate(722,344)"><rect x="-21" y="-21" width="42" height="42" fill="#0ff" style="stroke:none; opacity:0.75;" display="none"/><rect x="-15" y="-15" width="30" height="30" fill="#f0f0d2" style="stroke:black; opacity:1;"/></g><g id="183" onmousedown="nodemousedown(183,evt);" onmouseover="nodemouseover(183,evt);" onmouseout="nodemouseout(183,evt);" transform="translate(296,489)"><rect x="-21" y="-21" width="42" height="42" fill="#0ff" style="stroke:none; opacity:0.75;" display="none"/><rect x="-15" y="-15" width="30" height="30" fill="#f0f0d2" style="stroke:black; opacity:1;"/></g><g id="180" onmousedown="nodemousedown(180,evt);" onmouseover="nodemouseover(180,evt);" onmouseout="nodemouseout(180,evt);" transform="translate(296,274)"><rect x="-21" y="-21" width="42" height="42" fill="#0ff" style="stroke:none; opacity:0.75;" display="none"/><rect x="-15" y="-15" width="30" height="30" fill="#f0f0d2" style="stroke:black; opacity:1;"/></g></g>
  <g id="BPs"/>
  <g id="ports"/>
</g>
</svg>