<svg id="SVGCanvas" width="480px" height="270px" xmlns="http://www.w3.org/2000/svg" xmlns:xlink="http://www.w3.org/1999/xlink" onmouseup="null" onmousemove="null">
<rect id="background" x="0" y="0" height="100%" width="100%" fill="#bdbddf" onmousedown="bgmousedown(evt)"></rect>
<g id="foreground" transform="translate(24.9889012208657,0),scale(0.5993340732519423),translate(-0.5,-150)">
  <g id="edges"><g id="266"><path style="stroke:#bdbddf; stroke-width:8px; fill:none;" opacity="0.7" d="M 305,291L 68.5,291"></path><g><path style="stroke:#ff0; stroke-width:8px; fill:none; " opacity="0" d="M 305,291L 68.5,291"></path></g><path style="stroke:black; fill:none;" d="M 305,291L 68.5,291"></path><g><g><path style="stroke:#0ff; stroke-width:8px; fill:none; " opacity="0" d="M 305,291 L 68.5,291" onmousedown="segmousedown(&quot;266&quot;,&quot;0&quot;,evt);" onmouseover="segmouseover(&quot;266&quot;,&quot;0&quot;,evt);" onmouseout="segmouseout(&quot;266&quot;,&quot;0&quot;,evt);" onclick="segclick(&quot;266&quot;,&quot;0&quot;,evt);"></path></g></g></g><g id="267"><path style="stroke:#bdbddf; stroke-width:8px; fill:none;" opacity="0.7" d="M 43,319L 43,552"></path><g><path style="stroke:#ff0; stroke-width:8px; fill:none; " opacity="0" d="M 43,319L 43,552"></path></g><path style="stroke:black; fill:none;" d="M 43,319L 43,552"></path><g><g><path style="stroke:#0ff; stroke-width:8px; fill:none; " opacity="0" d="M 43,319 L 43,552" onmousedown="segmousedown(&quot;267&quot;,&quot;0&quot;,evt);" onmouseover="segmouseover(&quot;267&quot;,&quot;0&quot;,evt);" onmouseout="segmouseout(&quot;267&quot;,&quot;0&quot;,evt);" onclick="segclick(&quot;267&quot;,&quot;0&quot;,evt);"></path></g></g></g><g id="268"><path style="stroke:#bdbddf; stroke-width:8px; fill:none;" opacity="0.7" d="M 312,411L 312,317"></path><g><path style="stroke:#ff0; stroke-width:8px; fill:none; " opacity="0" d="M 312,411L 312,317"></path></g><path style="stroke:black; fill:none;" d="M 312,411L 312,317"></path><g><g><path style="stroke:#0ff; stroke-width:8px; fill:none; " opacity="0" d="M 312,411 L 312,317" onmousedown="segmousedown(&quot;268&quot;,&quot;0&quot;,evt);" onmouseover="segmouseover(&quot;268&quot;,&quot;0&quot;,evt);" onmouseout="segmouseout(&quot;268&quot;,&quot;0&quot;,evt);" onclick="segclick(&quot;268&quot;,&quot;0&quot;,evt);"></path></g></g></g><g id="269"><path style="stroke:#bdbddf; stroke-width:8px; fill:none;" opacity="0.7" d="M 320,411 V 375 a 12,12 0 0,1 12,-12 H 649 a 12,12 0 0,0 12,-12L 661,274"></path><g><path style="stroke:#ff0; stroke-width:8px; fill:none; " opacity="0" d="M 320,411 V 375 a 12,12 0 0,1 12,-12 H 649 a 12,12 0 0,0 12,-12L 661,274"></path></g><path style="stroke:black; fill:none;" d="M 320,411 V 375 a 12,12 0 0,1 12,-12 H 649 a 12,12 0 0,0 12,-12L 661,274"></path><g><g><path style="stroke:#0ff; stroke-width:8px; fill:none; " opacity="0" d="M 320,411 L 320,363" onmousedown="segmousedown(&quot;269&quot;,&quot;0&quot;,evt);" onmouseover="segmouseover(&quot;269&quot;,&quot;0&quot;,evt);" onmouseout="segmouseout(&quot;269&quot;,&quot;0&quot;,evt);" onclick="segclick(&quot;269&quot;,&quot;0&quot;,evt);"></path><path style="stroke:#0ff; stroke-width:8px; fill:none; " opacity="0" d="M 320,363 L 661,363" onmousedown="segmousedown(&quot;269&quot;,&quot;1&quot;,evt);" onmouseover="segmouseover(&quot;269&quot;,&quot;1&quot;,evt);" onmouseout="segmouseout(&quot;269&quot;,&quot;1&quot;,evt);" onclick="segclick(&quot;269&quot;,&quot;1&quot;,evt);"></path><path style="stroke:#0ff; stroke-width:8px; fill:none; " opacity="0" d="M 661,363 L 661,274" onmousedown="segmousedown(&quot;269&quot;,&quot;2&quot;,evt);" onmouseover="segmouseover(&quot;269&quot;,&quot;2&quot;,evt);" onmouseout="segmouseout(&quot;269&quot;,&quot;2&quot;,evt);" onclick="segclick(&quot;269&quot;,&quot;2&quot;,evt);"></path></g></g></g><g id="270"><path style="stroke:#bdbddf; stroke-width:8px; fill:none;" opacity="0.7" d="M 661,244 V 195 a 12,12 0 0,0 -12,-12L 249,183"></path><g><path style="stroke:#ff0; stroke-width:8px; fill:none; " opacity="0" d="M 661,244 V 195 a 12,12 0 0,0 -12,-12L 249,183"></path></g><path style="stroke:black; fill:none;" d="M 661,244 V 195 a 12,12 0 0,0 -12,-12L 249,183"></path><g><g><path style="stroke:#0ff; stroke-width:8px; fill:none; " opacity="0" d="M 661,244 L 661,183" onmousedown="segmousedown(&quot;270&quot;,&quot;0&quot;,evt);" onmouseover="segmouseover(&quot;270&quot;,&quot;0&quot;,evt);" onmouseout="segmouseout(&quot;270&quot;,&quot;0&quot;,evt);" onclick="segclick(&quot;270&quot;,&quot;0&quot;,evt);"></path><path style="stroke:#0ff; stroke-width:8px; fill:none; " opacity="0" d="M 661,183 L 249,183" onmousedown="segmousedown(&quot;270&quot;,&quot;1&quot;,evt);" onmouseover="segmouseover(&quot;270&quot;,&quot;1&quot;,evt);" onmouseout="segmouseout(&quot;270&quot;,&quot;1&quot;,evt);" onclick="segclick(&quot;270&quot;,&quot;1&quot;,evt);"></path></g></g></g><g id="271"><path style="stroke:#bdbddf; stroke-width:8px; fill:none;" opacity="0.7" d="M 51,570L 468,570"></path><g><path style="stroke:#ff0; stroke-width:8px; fill:none; " opacity="0" d="M 51,570L 468,570"></path></g><path style="stroke:black; fill:none;" d="M 51,570L 468,570"></path><g><g><path style="stroke:#0ff; stroke-width:8px; fill:none; " opacity="0" d="M 51,570 L 468,570" onmousedown="segmousedown(&quot;271&quot;,&quot;0&quot;,evt);" onmouseover="segmouseover(&quot;271&quot;,&quot;0&quot;,evt);" onmouseout="segmouseout(&quot;271&quot;,&quot;0&quot;,evt);" onclick="segclick(&quot;271&quot;,&quot;0&quot;,evt);"></path></g></g></g><g id="272"><path style="stroke:#bdbddf; stroke-width:8px; fill:none;" opacity="0.7" d="M 510,570L 673,570"></path><g><path style="stroke:#ff0; stroke-width:8px; fill:none; " opacity="0" d="M 510,570L 673,570"></path></g><path style="stroke:black; fill:none;" d="M 510,570L 673,570"></path><g><g><path style="stroke:#0ff; stroke-width:8px; fill:none; " opacity="0" d="M 510,570 L 673,570" onmousedown="segmousedown(&quot;272&quot;,&quot;0&quot;,evt);" onmouseover="segmouseover(&quot;272&quot;,&quot;0&quot;,evt);" onmouseout="segmouseout(&quot;272&quot;,&quot;0&quot;,evt);" onclick="segclick(&quot;272&quot;,&quot;0&quot;,evt);"></path></g></g></g><g id="273"><path style="stroke:#bdbddf; stroke-width:8px; fill:none;" opacity="0.7" d="M 689,551 V 427 a 12,12 0 0,0 -12,-12L 335,415"></path><g><path style="stroke:#ff0; stroke-width:8px; fill:none; " opacity="0" d="M 689,551 V 427 a 12,12 0 0,0 -12,-12L 335,415"></path></g><path style="stroke:black; fill:none;" d="M 689,551 V 427 a 12,12 0 0,0 -12,-12L 335,415"></path><g><g><path style="stroke:#0ff; stroke-width:8px; fill:none; " opacity="0" d="M 689,551 L 689,415" onmousedown="segmousedown(&quot;273&quot;,&quot;0&quot;,evt);" onmouseover="segmouseover(&quot;273&quot;,&quot;0&quot;,evt);" onmouseout="segmouseout(&quot;273&quot;,&quot;0&quot;,evt);" onclick="segclick(&quot;273&quot;,&quot;0&quot;,evt);"></path><path style="stroke:#0ff; stroke-width:8px; fill:none; " opacity="0" d="M 689,415 L 335,415" onmousedown="segmousedown(&quot;273&quot;,&quot;1&quot;,evt);" onmouseover="segmouseover(&quot;273&quot;,&quot;1&quot;,evt);" onmouseout="segmouseout(&quot;273&quot;,&quot;1&quot;,evt);" onclick="segclick(&quot;273&quot;,&quot;1&quot;,evt);"></path></g></g></g><g id="274"><path style="stroke:#bdbddf; stroke-width:8px; fill:none;" opacity="0.7" d="M 239,198 V 239 a 12,12 0 0,1 -12,12L 120,251"></path><g><path style="stroke:#ff0; stroke-width:8px; fill:none; " opacity="0" d="M 239,198 V 239 a 12,12 0 0,1 -12,12L 120,251"></path></g><path style="stroke:black; fill:none;" d="M 239,198 V 239 a 12,12 0 0,1 -12,12L 120,251"></path><g><g><path style="stroke:#0ff; stroke-width:8px; fill:none; " opacity="0" d="M 239,198 L 239,251" onmousedown="segmousedown(&quot;274&quot;,&quot;0&quot;,evt);" onmouseover="segmouseover(&quot;274&quot;,&quot;0&quot;,evt);" onmouseout="segmouseout(&quot;274&quot;,&quot;0&quot;,evt);" onclick="segclick(&quot;274&quot;,&quot;0&quot;,evt);"></path><path style="stroke:#0ff; stroke-width:8px; fill:none; " opacity="0" d="M 239,251 L 120,251" onmousedown="segmousedown(&quot;274&quot;,&quot;1&quot;,evt);" onmouseover="segmouseover(&quot;274&quot;,&quot;1&quot;,evt);" onmouseout="segmouseout(&quot;274&quot;,&quot;1&quot;,evt);" onclick="segclick(&quot;274&quot;,&quot;1&quot;,evt);"></path></g></g></g><g id="275"><path style="stroke:#bdbddf; stroke-width:8px; fill:none;" opacity="0.7" d="M 217,198 V 189 a 9,9 0 0,0 -9,-9L 121,180"></path><g><path style="stroke:#ff0; stroke-width:8px; fill:none; " opacity="0" d="M 217,198 V 189 a 9,9 0 0,0 -9,-9L 121,180"></path></g><path style="stroke:black; fill:none;" d="M 217,198 V 189 a 9,9 0 0,0 -9,-9L 121,180"></path><g><g><path style="stroke:#0ff; stroke-width:8px; fill:none; " opacity="0" d="M 217,198 L 217,180" onmousedown="segmousedown(&quot;275&quot;,&quot;0&quot;,evt);" onmouseover="segmouseover(&quot;275&quot;,&quot;0&quot;,evt);" onmouseout="segmouseout(&quot;275&quot;,&quot;0&quot;,evt);" onclick="segclick(&quot;275&quot;,&quot;0&quot;,evt);"></path><path style="stroke:#0ff; stroke-width:8px; fill:none; " opacity="0" d="M 217,180 L 121,180" onmousedown="segmousedown(&quot;275&quot;,&quot;1&quot;,evt);" onmouseover="segmouseover(&quot;275&quot;,&quot;1&quot;,evt);" onmouseout="segmouseout(&quot;275&quot;,&quot;1&quot;,evt);" onclick="segclick(&quot;275&quot;,&quot;1&quot;,evt);"></path></g></g></g><g id="276"><path style="stroke:#bdbddf; stroke-width:8px; fill:none;" opacity="0.7" d="M 305,426 H 137 a 12,12 0 0,0 -12,12L 125,479"></path><g><path style="stroke:#ff0; stroke-width:8px; fill:none; " opacity="0" d="M 305,426 H 137 a 12,12 0 0,0 -12,12L 125,479"></path></g><path style="stroke:black; fill:none;" d="M 305,426 H 137 a 12,12 0 0,0 -12,12L 125,479"></path><g><g><path style="stroke:#0ff; stroke-width:8px; fill:none; " opacity="0" d="M 305,426 L 125,426" onmousedown="segmousedown(&quot;276&quot;,&quot;0&quot;,evt);" onmouseover="segmouseover(&quot;276&quot;,&quot;0&quot;,evt);" onmouseout="segmouseout(&quot;276&quot;,&quot;0&quot;,evt);" onclick="segclick(&quot;276&quot;,&quot;0&quot;,evt);"></path><path style="stroke:#0ff; stroke-width:8px; fill:none; " opacity="0" d="M 125,426 L 125,479" onmousedown="segmousedown(&quot;276&quot;,&quot;1&quot;,evt);" onmouseover="segmouseover(&quot;276&quot;,&quot;1&quot;,evt);" onmouseout="segmouseout(&quot;276&quot;,&quot;1&quot;,evt);" onclick="segclick(&quot;276&quot;,&quot;1&quot;,evt);"></path></g></g></g><g id="277"><path style="stroke:#bdbddf; stroke-width:8px; fill:none;" opacity="0.7" d="M 140,514L 262,514"></path><g><path style="stroke:#ff0; stroke-width:8px; fill:none; " opacity="0" d="M 140,514L 262,514"></path></g><path style="stroke:black; fill:none;" d="M 140,514L 262,514"></path><g><g><path style="stroke:#0ff; stroke-width:8px; fill:none; " opacity="0" d="M 140,514 L 262,514" onmousedown="segmousedown(&quot;277&quot;,&quot;0&quot;,evt);" onmouseover="segmouseover(&quot;277&quot;,&quot;0&quot;,evt);" onmouseout="segmouseout(&quot;277&quot;,&quot;0&quot;,evt);" onclick="segclick(&quot;277&quot;,&quot;0&quot;,evt);"></path></g></g></g><g id="278"><path style="stroke:#bdbddf; stroke-width:8px; fill:none;" opacity="0.7" d="M 292,514L 429,514"></path><g><path style="stroke:#ff0; stroke-width:8px; fill:none; " opacity="0" d="M 292,514L 429,514"></path></g><path style="stroke:black; fill:none;" d="M 292,514L 429,514"></path><g><g><path style="stroke:#0ff; stroke-width:8px; fill:none; " opacity="0" d="M 292,514 L 429,514" onmousedown="segmousedown(&quot;278&quot;,&quot;0&quot;,evt);" onmouseover="segmouseover(&quot;278&quot;,&quot;0&quot;,evt);" onmouseout="segmouseout(&quot;278&quot;,&quot;0&quot;,evt);" onclick="segclick(&quot;278&quot;,&quot;0&quot;,evt);"></path></g></g></g><g id="279"><path style="stroke:#bdbddf; stroke-width:8px; fill:none;" opacity="0.7" d="M 454,499 V 447 a 12,12 0 0,0 -12,-12L 335,435"></path><g><path style="stroke:#ff0; stroke-width:8px; fill:none; " opacity="0" d="M 454,499 V 447 a 12,12 0 0,0 -12,-12L 335,435"></path></g><path style="stroke:black; fill:none;" d="M 454,499 V 447 a 12,12 0 0,0 -12,-12L 335,435"></path><g><g><path style="stroke:#0ff; stroke-width:8px; fill:none; " opacity="0" d="M 454,499 L 454,435" onmousedown="segmousedown(&quot;279&quot;,&quot;0&quot;,evt);" onmouseover="segmouseover(&quot;279&quot;,&quot;0&quot;,evt);" onmouseout="segmouseout(&quot;279&quot;,&quot;0&quot;,evt);" onclick="segclick(&quot;279&quot;,&quot;0&quot;,evt);"></path><path style="stroke:#0ff; stroke-width:8px; fill:none; " opacity="0" d="M 454,435 L 335,435" onmousedown="segmousedown(&quot;279&quot;,&quot;1&quot;,evt);" onmouseover="segmouseover(&quot;279&quot;,&quot;1&quot;,evt);" onmouseout="segmouseout(&quot;279&quot;,&quot;1&quot;,evt);" onclick="segclick(&quot;279&quot;,&quot;1&quot;,evt);"></path></g></g></g></g>
  <g id="nodes"><g id="261" onmousedown="nodemousedown(261,evt);" onmouseover="nodemouseover(261,evt);" onmouseout="nodemouseout(261,evt);" transform="translate(224,183)"><rect x="-31" y="-21" width="62" height="42" fill="#0ff" style="stroke:none; opacity:0.75;" display="none"></rect><rect x="-25" y="-15" width="50" height="30" fill="#f0f0d2" style="stroke:black; opacity:1;"></rect></g><g id="258" onmousedown="nodemousedown(258,evt);" onmouseover="nodemouseover(258,evt);" onmouseout="nodemouseout(258,evt);" transform="translate(320,426)"><rect x="-21" y="-21" width="42" height="42" fill="#0ff" style="stroke:none; opacity:0.75;" display="none"></rect><rect x="-15" y="-15" width="30" height="30" fill="#f0f0d2" style="stroke:black; opacity:1;"></rect></g><g id="259" onmousedown="nodemousedown(259,evt);" onmouseover="nodemouseover(259,evt);" onmouseout="nodemouseout(259,evt);" transform="translate(661,259)"><rect x="-21" y="-21" width="42" height="42" fill="#0ff" style="stroke:none; opacity:0.75;" display="none"></rect><rect x="-15" y="-15" width="30" height="30" fill="#f0f0d2" style="stroke:black; opacity:1;"></rect></g><g id="265" onmousedown="nodemousedown(265,evt);" onmouseover="nodemouseover(265,evt);" onmouseout="nodemouseout(265,evt);" transform="translate(444,514)"><rect x="-21" y="-21" width="42" height="42" fill="#0ff" style="stroke:none; opacity:0.75;" display="none"></rect><rect x="-15" y="-15" width="30" height="30" fill="#f0f0d2" style="stroke:black; opacity:1;"></rect></g><g id="264" onmousedown="nodemousedown(264,evt);" onmouseover="nodemouseover(264,evt);" onmouseout="nodemouseout(264,evt);" transform="translate(277,514)"><rect x="-21" y="-21" width="42" height="42" fill="#0ff" style="stroke:none; opacity:0.75;" display="none"></rect><rect x="-15" y="-15" width="30" height="30" fill="#f0f0d2" style="stroke:black; opacity:1;"></rect></g><g id="263" onmousedown="nodemousedown(263,evt);" onmouseover="nodemouseover(263,evt);" onmouseout="nodemouseout(263,evt);" transform="translate(125,507)"><rect x="-21" y="-34" width="42" height="68" fill="#0ff" style="stroke:none; opacity:0.75;" display="none"></rect><rect x="-15" y="-28" width="30" height="56" fill="#f0f0d2" style="stroke:black; opacity:1;"></rect></g><g id="262" onmousedown="nodemousedown(262,evt);" onmouseover="nodemouseover(262,evt);" onmouseout="nodemouseout(262,evt);" transform="translate(106,180)"><rect x="-21" y="-21" width="42" height="42" fill="#0ff" style="stroke:none; opacity:0.75;" display="none"></rect><rect x="-15" y="-15" width="30" height="30" fill="#f0f0d2" style="stroke:black; opacity:1;"></rect></g><g id="260" onmousedown="nodemousedown(260,evt);" onmouseover="nodemouseover(260,evt);" onmouseout="nodemouseout(260,evt);" transform="translate(105,251)"><rect x="-21" y="-21" width="42" height="42" fill="#0ff" style="stroke:none; opacity:0.75;" display="none"></rect><rect x="-15" y="-15" width="30" height="30" fill="#f0f0d2" style="stroke:black; opacity:1;"></rect></g><g id="254" onmousedown="nodemousedown(254,evt);" onmouseover="nodemouseover(254,evt);" onmouseout="nodemouseout(254,evt);" transform="translate(42,304)"><rect x="-32.5" y="-21" width="65" height="42" fill="#0ff" style="stroke:none; opacity:0.75;" display="none"></rect><rect x="-26.5" y="-15" width="53" height="30" fill="#f0f0d2" style="stroke:black; opacity:1;"></rect></g><g id="253" onmousedown="nodemousedown(253,evt);" onmouseover="nodemouseover(253,evt);" onmouseout="nodemouseout(253,evt);" transform="translate(320,302)"><rect x="-21" y="-21" width="42" height="42" fill="#0ff" style="stroke:none; opacity:0.75;" display="none"></rect><rect x="-15" y="-15" width="30" height="30" fill="#f0f0d2" style="stroke:black; opacity:1;"></rect></g><g id="255" onmousedown="nodemousedown(255,evt);" onmouseover="nodemouseover(255,evt);" onmouseout="nodemouseout(255,evt);" transform="translate(36,567)"><rect x="-21" y="-21" width="42" height="42" fill="#0ff" style="stroke:none; opacity:0.75;" display="none"></rect><rect x="-15" y="-15" width="30" height="30" fill="#f0f0d2" style="stroke:black; opacity:1;"></rect></g><g id="256" onmousedown="nodemousedown(256,evt);" onmouseover="nodemouseover(256,evt);" onmouseout="nodemouseout(256,evt);" transform="translate(489,560)"><rect x="-27" y="-31.5" width="54" height="63" fill="#0ff" style="stroke:none; opacity:0.75;" display="none"></rect><rect x="-21" y="-25.5" width="42" height="51" fill="#f0f0d2" style="stroke:black; opacity:1;"></rect></g><g id="257" onmousedown="nodemousedown(257,evt);" onmouseover="nodemouseover(257,evt);" onmouseout="nodemouseout(257,evt);" transform="translate(688,566)"><rect x="-21" y="-21" width="42" height="42" fill="#0ff" style="stroke:none; opacity:0.75;" display="none"></rect><rect x="-15" y="-15" width="30" height="30" fill="#f0f0d2" style="stroke:black; opacity:1;"></rect></g></g>
  <g id="BPs"><g onmousedown="bpmousedown(295,evt);" onmouseover="bpmouseover(295,evt);" onmouseout="bpmouseout(295,evt);" transform="translate(661,183)" opacity="0"><ellipse cx="0" cy="0" rx="16" ry="16" fill="#0ff" style="stroke:none; opacity:0.75;" display="none"></ellipse><ellipse cx="0" cy="0" rx="6.5908152320000015" ry="6.5908152320000015" fill="#777" style="stroke:black;"></ellipse></g><g onmousedown="bpmousedown(308,evt);" onmouseover="bpmouseover(308,evt);" onmouseout="bpmouseout(308,evt);" transform="translate(239,251)" opacity="0"><ellipse cx="0" cy="0" rx="16" ry="16" fill="#0ff" style="stroke:none; opacity:0.75;" display="none"></ellipse><ellipse cx="0" cy="0" rx="6.5908152320000015" ry="6.5908152320000015" fill="#777" style="stroke:black;"></ellipse></g><g onmousedown="bpmousedown(327,evt);" onmouseover="bpmouseover(327,evt);" onmouseout="bpmouseout(327,evt);" transform="translate(454,435)" opacity="0"><ellipse cx="0" cy="0" rx="16" ry="16" fill="#0ff" style="stroke:none; opacity:0.75;" display="none"></ellipse><ellipse cx="0" cy="0" rx="6.5908152320000015" ry="6.5908152320000015" fill="#777" style="stroke:black;"></ellipse></g><g onmousedown="bpmousedown(336,evt);" onmouseover="bpmouseover(336,evt);" onmouseout="bpmouseout(336,evt);" transform="translate(217,180)" opacity="0"><ellipse cx="0" cy="0" rx="16" ry="16" fill="#0ff" style="stroke:none; opacity:0.75;" display="none"></ellipse><ellipse cx="0" cy="0" rx="6.5908152320000015" ry="6.5908152320000015" fill="#777" style="stroke:black;"></ellipse></g><g onmousedown="bpmousedown(341,evt);" onmouseover="bpmouseover(341,evt);" onmouseout="bpmouseout(341,evt);" transform="translate(689,415)" opacity="0"><ellipse cx="0" cy="0" rx="16" ry="16" fill="#0ff" style="stroke:none; opacity:0.75;" display="none"></ellipse><ellipse cx="0" cy="0" rx="6.5908152320000015" ry="6.5908152320000015" fill="#777" style="stroke:black;"></ellipse></g><g onmousedown="bpmousedown(343,evt);" onmouseover="bpmouseover(343,evt);" onmouseout="bpmouseout(343,evt);" transform="translate(661,363)" opacity="0"><ellipse cx="0" cy="0" rx="16" ry="16" fill="#0ff" style="stroke:none; opacity:0.75;" display="none"></ellipse><ellipse cx="0" cy="0" rx="6.5908152320000015" ry="6.5908152320000015" fill="#777" style="stroke:black;"></ellipse></g><g onmousedown="bpmousedown(346,evt);" onmouseover="bpmouseover(346,evt);" onmouseout="bpmouseout(346,evt);" transform="translate(125,426)" opacity="0"><ellipse cx="0" cy="0" rx="16" ry="16" fill="#0ff" style="stroke:none; opacity:0.75;" display="none"></ellipse><ellipse cx="0" cy="0" rx="6.5908152320000015" ry="6.5908152320000015" fill="#777" style="stroke:black;"></ellipse></g><g onmousedown="bpmousedown(371,evt);" onmouseover="bpmouseover(371,evt);" onmouseout="bpmouseout(371,evt);" transform="translate(320,363)" opacity="0"><ellipse cx="0" cy="0" rx="16" ry="16" fill="#0ff" style="stroke:none; opacity:0.75;" display="none"></ellipse><ellipse cx="0" cy="0" rx="6.5908152320000015" ry="6.5908152320000015" fill="#777" style="stroke:black;"></ellipse></g></g>
  <g id="ports"></g>
</g>
</svg>