<svg id="SVGCanvas" width="480px" height="270px" xmlns="http://www.w3.org/2000/svg" xmlns:xlink="http://www.w3.org/1999/xlink" onmouseup="null" onmousemove="null">
<rect id="background" x="0" y="0" height="100%" width="100%" fill="#bdbddf" onmousedown="bgmousedown(evt)"></rect>
<g id="foreground" transform="translate(90.5492957746479,0),scale(0.7605633802816901),translate(-369,-137)">
  <g id="edges"><g id="328"><path style="stroke:#bdbddf; stroke-width:8px; fill:none;" opacity="0.7" d="M 636,462 H 716 a 12,12 0 0,0 12,-12L 728,302"></path><g><path style="stroke:#ff0; stroke-width:8px; fill:none; " opacity="0" d="M 636,462 H 716 a 12,12 0 0,0 12,-12L 728,302"></path></g><path style="stroke:black; fill:none;" d="M 636,462 H 716 a 12,12 0 0,0 12,-12L 728,302"></path><g><g><path style="stroke:#0ff; stroke-width:8px; fill:none; " opacity="0" d="M 636,462 L 728,462" onmousedown="segmousedown(&quot;328&quot;,&quot;0&quot;,evt);" onmouseover="segmouseover(&quot;328&quot;,&quot;0&quot;,evt);" onmouseout="segmouseout(&quot;328&quot;,&quot;0&quot;,evt);" onclick="segclick(&quot;328&quot;,&quot;0&quot;,evt);"></path><path style="stroke:#0ff; stroke-width:8px; fill:none; " opacity="0" d="M 728,462 L 728,302" onmousedown="segmousedown(&quot;328&quot;,&quot;1&quot;,evt);" onmouseover="segmouseover(&quot;328&quot;,&quot;1&quot;,evt);" onmouseout="segmouseout(&quot;328&quot;,&quot;1&quot;,evt);" onclick="segclick(&quot;328&quot;,&quot;1&quot;,evt);"></path></g></g></g><g id="329"><path style="stroke:#bdbddf; stroke-width:8px; fill:none;" opacity="0.7" d="M 731,302L 731,231"></path><g><path style="stroke:#ff0; stroke-width:8px; fill:none; " opacity="0" d="M 731,302L 731,231"></path></g><path style="stroke:black; fill:none;" d="M 731,302L 731,231"></path><g><g><path style="stroke:#0ff; stroke-width:8px; fill:none; " opacity="0" d="M 731,302 L 731,231" onmousedown="segmousedown(&quot;329&quot;,&quot;0&quot;,evt);" onmouseover="segmouseover(&quot;329&quot;,&quot;0&quot;,evt);" onmouseout="segmouseout(&quot;329&quot;,&quot;0&quot;,evt);" onclick="segclick(&quot;329&quot;,&quot;0&quot;,evt);"></path></g></g></g><g id="330"><path style="stroke:#bdbddf; stroke-width:8px; fill:none;" opacity="0.7" d="M 414,462L 621,462"></path><g><path style="stroke:#ff0; stroke-width:8px; fill:none; " opacity="0" d="M 414,462L 621,462"></path></g><path style="stroke:black; fill:none;" d="M 414,462L 621,462"></path><g><g><path style="stroke:#0ff; stroke-width:8px; fill:none; " opacity="0" d="M 414,462 L 621,462" onmousedown="segmousedown(&quot;330&quot;,&quot;0&quot;,evt);" onmouseover="segmouseover(&quot;330&quot;,&quot;0&quot;,evt);" onmouseout="segmouseout(&quot;330&quot;,&quot;0&quot;,evt);" onclick="segclick(&quot;330&quot;,&quot;0&quot;,evt);"></path></g></g></g><g id="331"><path style="stroke:#bdbddf; stroke-width:8px; fill:none;" opacity="0.7" d="M 731,223 H 411 a 12,12 0 0,0 -12,12L 399,447"></path><g><path style="stroke:#ff0; stroke-width:8px; fill:none; " opacity="0" d="M 731,223 H 411 a 12,12 0 0,0 -12,12L 399,447"></path></g><path style="stroke:black; fill:none;" d="M 731,223 H 411 a 12,12 0 0,0 -12,12L 399,447"></path><g><g><path style="stroke:#0ff; stroke-width:8px; fill:none; " opacity="0" d="M 731,223 L 399,223" onmousedown="segmousedown(&quot;331&quot;,&quot;0&quot;,evt);" onmouseover="segmouseover(&quot;331&quot;,&quot;0&quot;,evt);" onmouseout="segmouseout(&quot;331&quot;,&quot;0&quot;,evt);" onclick="segclick(&quot;331&quot;,&quot;0&quot;,evt);"></path><path style="stroke:#0ff; stroke-width:8px; fill:none; " opacity="0" d="M 399,223 L 399,447" onmousedown="segmousedown(&quot;331&quot;,&quot;1&quot;,evt);" onmouseover="segmouseover(&quot;331&quot;,&quot;1&quot;,evt);" onmouseout="segmouseout(&quot;331&quot;,&quot;1&quot;,evt);" onclick="segclick(&quot;331&quot;,&quot;1&quot;,evt);"></path></g></g></g><g id="332"><path style="stroke:#bdbddf; stroke-width:8px; fill:none;" opacity="0.7" d="M 549,355 H 623 a 12,12 0 0,0 12,-12 V 255 a 12,12 0 0,1 12,-12L 721,243"></path><g><path style="stroke:#ff0; stroke-width:8px; fill:none; " opacity="0" d="M 549,355 H 623 a 12,12 0 0,0 12,-12 V 255 a 12,12 0 0,1 12,-12L 721,243"></path></g><path style="stroke:black; fill:none;" d="M 549,355 H 623 a 12,12 0 0,0 12,-12 V 255 a 12,12 0 0,1 12,-12L 721,243"></path><g><g><path style="stroke:#0ff; stroke-width:8px; fill:none; " opacity="0" d="M 549,355 L 635,355" onmousedown="segmousedown(&quot;332&quot;,&quot;0&quot;,evt);" onmouseover="segmouseover(&quot;332&quot;,&quot;0&quot;,evt);" onmouseout="segmouseout(&quot;332&quot;,&quot;0&quot;,evt);" onclick="segclick(&quot;332&quot;,&quot;0&quot;,evt);"></path><path style="stroke:#0ff; stroke-width:8px; fill:none; " opacity="0" d="M 635,355 L 635,243" onmousedown="segmousedown(&quot;332&quot;,&quot;1&quot;,evt);" onmouseover="segmouseover(&quot;332&quot;,&quot;1&quot;,evt);" onmouseout="segmouseout(&quot;332&quot;,&quot;1&quot;,evt);" onclick="segclick(&quot;332&quot;,&quot;1&quot;,evt);"></path><path style="stroke:#0ff; stroke-width:8px; fill:none; " opacity="0" d="M 635,243 L 721,243" onmousedown="segmousedown(&quot;332&quot;,&quot;2&quot;,evt);" onmouseover="segmouseover(&quot;332&quot;,&quot;2&quot;,evt);" onmouseout="segmouseout(&quot;332&quot;,&quot;2&quot;,evt);" onclick="segclick(&quot;332&quot;,&quot;2&quot;,evt);"></path></g></g></g><g id="333"><path style="stroke:#bdbddf; stroke-width:8px; fill:none;" opacity="0.7" d="M 549,355L 549,185"></path><g><path style="stroke:#ff0; stroke-width:8px; fill:none; " opacity="0" d="M 549,355L 549,185"></path></g><path style="stroke:black; fill:none;" d="M 549,355L 549,185"></path><g><g><path style="stroke:#0ff; stroke-width:8px; fill:none; " opacity="0" d="M 549,355 L 549,185" onmousedown="segmousedown(&quot;333&quot;,&quot;0&quot;,evt);" onmouseover="segmouseover(&quot;333&quot;,&quot;0&quot;,evt);" onmouseout="segmouseout(&quot;333&quot;,&quot;0&quot;,evt);" onclick="segclick(&quot;333&quot;,&quot;0&quot;,evt);"></path></g></g></g><g id="334"><path style="stroke:#bdbddf; stroke-width:8px; fill:none;" opacity="0.7" d="M 549,170L 732,170"></path><g><path style="stroke:#ff0; stroke-width:8px; fill:none; " opacity="0" d="M 549,170L 732,170"></path></g><path style="stroke:black; fill:none;" d="M 549,170L 732,170"></path><g><g><path style="stroke:#0ff; stroke-width:8px; fill:none; " opacity="0" d="M 549,170 L 732,170" onmousedown="segmousedown(&quot;334&quot;,&quot;0&quot;,evt);" onmouseover="segmouseover(&quot;334&quot;,&quot;0&quot;,evt);" onmouseout="segmouseout(&quot;334&quot;,&quot;0&quot;,evt);" onclick="segclick(&quot;334&quot;,&quot;0&quot;,evt);"></path></g></g></g><g id="335"><path style="stroke:#bdbddf; stroke-width:8px; fill:none;" opacity="0.7" d="M 556,155 V 161.5 a 6.5,6.5 0 0,1 -6.5,6.5L 423,168"></path><g><path style="stroke:#ff0; stroke-width:8px; fill:none; " opacity="0" d="M 556,155 V 161.5 a 6.5,6.5 0 0,1 -6.5,6.5L 423,168"></path></g><path style="stroke:black; fill:none;" d="M 556,155 V 161.5 a 6.5,6.5 0 0,1 -6.5,6.5L 423,168"></path><g><g><path style="stroke:#0ff; stroke-width:8px; fill:none; " opacity="0" d="M 556,155 L 556,168" onmousedown="segmousedown(&quot;335&quot;,&quot;0&quot;,evt);" onmouseover="segmouseover(&quot;335&quot;,&quot;0&quot;,evt);" onmouseout="segmouseout(&quot;335&quot;,&quot;0&quot;,evt);" onclick="segclick(&quot;335&quot;,&quot;0&quot;,evt);"></path><path style="stroke:#0ff; stroke-width:8px; fill:none; " opacity="0" d="M 556,168 L 423,168" onmousedown="segmousedown(&quot;335&quot;,&quot;1&quot;,evt);" onmouseover="segmouseover(&quot;335&quot;,&quot;1&quot;,evt);" onmouseout="segmouseout(&quot;335&quot;,&quot;1&quot;,evt);" onclick="segclick(&quot;335&quot;,&quot;1&quot;,evt);"></path></g></g></g><g id="336"><path style="stroke:#bdbddf; stroke-width:8px; fill:none;" opacity="0.7" d="M 549,355 H 454 a 12,12 0 0,1 -12,-12L 442,320"></path><g><path style="stroke:#ff0; stroke-width:8px; fill:none; " opacity="0" d="M 549,355 H 454 a 12,12 0 0,1 -12,-12L 442,320"></path></g><path style="stroke:black; fill:none;" d="M 549,355 H 454 a 12,12 0 0,1 -12,-12L 442,320"></path><g><g><path style="stroke:#0ff; stroke-width:8px; fill:none; " opacity="0" d="M 549,355 L 442,355" onmousedown="segmousedown(&quot;336&quot;,&quot;0&quot;,evt);" onmouseover="segmouseover(&quot;336&quot;,&quot;0&quot;,evt);" onmouseout="segmouseout(&quot;336&quot;,&quot;0&quot;,evt);" onclick="segclick(&quot;336&quot;,&quot;0&quot;,evt);"></path><path style="stroke:#0ff; stroke-width:8px; fill:none; " opacity="0" d="M 442,355 L 442,320" onmousedown="segmousedown(&quot;336&quot;,&quot;1&quot;,evt);" onmouseover="segmouseover(&quot;336&quot;,&quot;1&quot;,evt);" onmouseout="segmouseout(&quot;336&quot;,&quot;1&quot;,evt);" onclick="segclick(&quot;336&quot;,&quot;1&quot;,evt);"></path></g></g></g><g id="337"><path style="stroke:#bdbddf; stroke-width:8px; fill:none;" opacity="0.7" d="M 549,355 V 399 a 12,12 0 0,1 -12,12L 472,411"></path><g><path style="stroke:#ff0; stroke-width:8px; fill:none; " opacity="0" d="M 549,355 V 399 a 12,12 0 0,1 -12,12L 472,411"></path></g><path style="stroke:black; fill:none;" d="M 549,355 V 399 a 12,12 0 0,1 -12,12L 472,411"></path><g><g><path style="stroke:#0ff; stroke-width:8px; fill:none; " opacity="0" d="M 549,355 L 549,411" onmousedown="segmousedown(&quot;337&quot;,&quot;0&quot;,evt);" onmouseover="segmouseover(&quot;337&quot;,&quot;0&quot;,evt);" onmouseout="segmouseout(&quot;337&quot;,&quot;0&quot;,evt);" onclick="segclick(&quot;337&quot;,&quot;0&quot;,evt);"></path><path style="stroke:#0ff; stroke-width:8px; fill:none; " opacity="0" d="M 549,411 L 472,411" onmousedown="segmousedown(&quot;337&quot;,&quot;1&quot;,evt);" onmouseover="segmouseover(&quot;337&quot;,&quot;1&quot;,evt);" onmouseout="segmouseout(&quot;337&quot;,&quot;1&quot;,evt);" onclick="segclick(&quot;337&quot;,&quot;1&quot;,evt);"></path></g></g></g></g>
  <g id="nodes"><g id="319" onmousedown="nodemousedown(319,evt);" onmouseover="nodemouseover(319,evt);" onmouseout="nodemouseout(319,evt);" transform="translate(621 462)"><rect x="-21" y="-21" width="42" height="42" fill="#0ff" style="stroke:none; opacity:0.75;" display="none"></rect><rect x="-15" y="-15" width="30" height="30" fill="#f0f0d2" style="stroke:black; opacity:1;"></rect></g><g id="320" onmousedown="nodemousedown(320,evt);" onmouseover="nodemouseover(320,evt);" onmouseout="nodemouseout(320,evt);" transform="translate(728 302)"><rect x="-21" y="-21" width="42" height="42" fill="#0ff" style="stroke:none; opacity:0.75;" display="none"></rect><rect x="-15" y="-15" width="30" height="30" fill="#f0f0d2" style="stroke:black; opacity:1;"></rect></g><g id="321" onmousedown="nodemousedown(321,evt);" onmouseover="nodemouseover(321,evt);" onmouseout="nodemouseout(321,evt);" transform="translate(731 231)"><rect x="-21" y="-21" width="42" height="42" fill="#0ff" style="stroke:none; opacity:0.75;" display="none"></rect><rect x="-15" y="-15" width="30" height="30" fill="#f0f0d2" style="stroke:black; opacity:1;"></rect></g><g id="322" onmousedown="nodemousedown(322,evt);" onmouseover="nodemouseover(322,evt);" onmouseout="nodemouseout(322,evt);" transform="translate(549 355)"><rect x="-21" y="-21" width="42" height="42" fill="#0ff" style="stroke:none; opacity:0.75;" display="none"></rect><rect x="-15" y="-15" width="30" height="30" fill="#f0f0d2" style="stroke:black; opacity:1;"></rect></g><g id="324" onmousedown="nodemousedown(324,evt);" onmouseover="nodemouseover(324,evt);" onmouseout="nodemouseout(324,evt);" transform="translate(442 320)"><rect x="-21" y="-21" width="42" height="42" fill="#0ff" style="stroke:none; opacity:0.75;" display="none"></rect><rect x="-15" y="-15" width="30" height="30" fill="#f0f0d2" style="stroke:black; opacity:1;"></rect></g><g id="327" onmousedown="nodemousedown(327,evt);" onmouseover="nodemouseover(327,evt);" onmouseout="nodemouseout(327,evt);" transform="translate(472 404)"><rect x="-21" y="-21" width="42" height="42" fill="#0ff" style="stroke:none; opacity:0.75;" display="none"></rect><rect x="-15" y="-15" width="30" height="30" fill="#f0f0d2" style="stroke:black; opacity:1;"></rect></g><g id="318" onmousedown="nodemousedown(318,evt);" onmouseover="nodemouseover(318,evt);" onmouseout="nodemouseout(318,evt);" transform="translate(399,462)"><rect x="-21" y="-21" width="42" height="42" fill="#0ff" style="stroke:none; opacity:0.75;" display="none"></rect><rect x="-15" y="-15" width="30" height="30" fill="#f0f0d2" style="stroke:black; opacity:1;"></rect></g><g id="323" onmousedown="nodemousedown(323,evt);" onmouseover="nodemouseover(323,evt);" onmouseout="nodemouseout(323,evt);" transform="translate(549,170)"><rect x="-21" y="-21" width="42" height="42" fill="#0ff" style="stroke:none; opacity:0.75;" display="none"></rect><rect x="-15" y="-15" width="30" height="30" fill="#f0f0d2" style="stroke:black; opacity:1;"></rect></g><g id="325" onmousedown="nodemousedown(325,evt);" onmouseover="nodemouseover(325,evt);" onmouseout="nodemouseout(325,evt);" transform="translate(732,167)"><rect x="-21" y="-21" width="42" height="42" fill="#0ff" style="stroke:none; opacity:0.75;" display="none"></rect><rect x="-15" y="-15" width="30" height="30" fill="#f0f0d2" style="stroke:black; opacity:1;"></rect></g><g id="326" onmousedown="nodemousedown(326,evt);" onmouseover="nodemouseover(326,evt);" onmouseout="nodemouseout(326,evt);" transform="translate(408,168)"><rect x="-21" y="-21" width="42" height="42" fill="#0ff" style="stroke:none; opacity:0.75;" display="none"></rect><rect x="-15" y="-15" width="30" height="30" fill="#f0f0d2" style="stroke:black; opacity:1;"></rect></g></g>
  <g id="BPs"><g onmousedown="bpmousedown(340,evt);" onmouseover="bpmouseover(340,evt);" onmouseout="bpmouseout(340,evt);" transform="translate(728,462)" opacity="0"><ellipse cx="0" cy="0" rx="16" ry="16" fill="#0ff" style="stroke:none; opacity:0.75;" display="none"></ellipse><ellipse cx="0" cy="0" rx="6.5908152320000015" ry="6.5908152320000015" fill="#777" style="stroke:black;"></ellipse></g><g onmousedown="bpmousedown(351,evt);" onmouseover="bpmouseover(351,evt);" onmouseout="bpmouseout(351,evt);" transform="translate(399,223)" opacity="0"><ellipse cx="0" cy="0" rx="16" ry="16" fill="#0ff" style="stroke:none; opacity:0.75;" display="none"></ellipse><ellipse cx="0" cy="0" rx="6.5908152320000015" ry="6.5908152320000015" fill="#777" style="stroke:black;"></ellipse></g><g onmousedown="bpmousedown(354,evt);" onmouseover="bpmouseover(354,evt);" onmouseout="bpmouseout(354,evt);" transform="translate(635 355)" opacity="0"><ellipse cx="0" cy="0" rx="16" ry="16" fill="#0ff" style="stroke:none; opacity:0.75;" display="none"></ellipse><ellipse cx="0" cy="0" rx="10" ry="10" fill="#777" style="stroke:black;"></ellipse></g><g onmousedown="bpmousedown(355,evt);" onmouseover="bpmouseover(355,evt);" onmouseout="bpmouseout(355,evt);" transform="translate(635 243)" opacity="0"><ellipse cx="0" cy="0" rx="16" ry="16" fill="#0ff" style="stroke:none; opacity:0.75;" display="none"></ellipse><ellipse cx="0" cy="0" rx="6.5908152320000015" ry="6.5908152320000015" fill="#777" style="stroke:black;"></ellipse></g><g onmousedown="bpmousedown(364,evt);" onmouseover="bpmouseover(364,evt);" onmouseout="bpmouseout(364,evt);" transform="translate(556,168)" opacity="0"><ellipse cx="0" cy="0" rx="16" ry="16" fill="#0ff" style="stroke:none; opacity:0.75;" display="none"></ellipse><ellipse cx="0" cy="0" rx="6.5908152320000015" ry="6.5908152320000015" fill="#777" style="stroke:black;"></ellipse></g><g onmousedown="bpmousedown(367,evt);" onmouseover="bpmouseover(367,evt);" onmouseout="bpmouseout(367,evt);" transform="translate(442 355)" opacity="0"><ellipse cx="0" cy="0" rx="16" ry="16" fill="#0ff" style="stroke:none; opacity:0.75;" display="none"></ellipse><ellipse cx="0" cy="0" rx="10" ry="10" fill="#777" style="stroke:black;"></ellipse></g><g onmousedown="bpmousedown(370,evt);" onmouseover="bpmouseover(370,evt);" onmouseout="bpmouseout(370,evt);" transform="translate(549 411)" opacity="0"><ellipse cx="0" cy="0" rx="16" ry="16" fill="#0ff" style="stroke:none; opacity:0.75;" display="none"></ellipse><ellipse cx="0" cy="0" rx="10" ry="10" fill="#777" style="stroke:black;"></ellipse></g></g>
  <g id="ports"></g>
</g>
</svg>