<svg id="SVGCanvas" width="480px" height="270px" xmlns="http://www.w3.org/2000/svg" xmlns:xlink="http://www.w3.org/1999/xlink" onmouseup="null" onmousemove="null">
<rect id="background" x="0" y="0" height="100%" width="100%" fill="#bdbddf" onmousedown="bgmousedown(evt)"></rect>
<g id="foreground" transform="translate(117.12074303405574,0),scale(0.8359133126934984),translate(-230,-15)">
  <g id="edges"><g id="201"><path style="stroke:#bdbddf; stroke-width:8px; fill:none;" opacity="0.7" d="M 358,91 H 438 a 12,12 0 0,0 12,-12L 450,60"></path><g><path style="stroke:#ff0; stroke-width:8px; fill:none; " opacity="0" d="M 358,91 H 438 a 12,12 0 0,0 12,-12L 450,60"></path></g><path style="stroke:black; fill:none;" d="M 358,91 H 438 a 12,12 0 0,0 12,-12L 450,60"></path><g><g><path style="stroke:#0ff; stroke-width:8px; fill:none; " opacity="0" d="M 358,91 L 450,91" onmousedown="segmousedown(&quot;201&quot;,&quot;0&quot;,evt);" onmouseover="segmouseover(&quot;201&quot;,&quot;0&quot;,evt);" onmouseout="segmouseout(&quot;201&quot;,&quot;0&quot;,evt);" onclick="segclick(&quot;201&quot;,&quot;0&quot;,evt);"></path><path style="stroke:#0ff; stroke-width:8px; fill:none; " opacity="0" d="M 450,91 L 450,60" onmousedown="segmousedown(&quot;201&quot;,&quot;1&quot;,evt);" onmouseover="segmouseover(&quot;201&quot;,&quot;1&quot;,evt);" onmouseout="segmouseout(&quot;201&quot;,&quot;1&quot;,evt);" onclick="segclick(&quot;201&quot;,&quot;1&quot;,evt);"></path></g></g></g><g id="202"><path style="stroke:#bdbddf; stroke-width:8px; fill:none;" opacity="0.7" d="M 328,91 H 324 a 4,4 0 0,0 -4,4L 320,144"></path><g><path style="stroke:#ff0; stroke-width:8px; fill:none; " opacity="0" d="M 328,91 H 324 a 4,4 0 0,0 -4,4L 320,144"></path></g><path style="stroke:black; fill:none;" d="M 328,91 H 324 a 4,4 0 0,0 -4,4L 320,144"></path><g><g><path style="stroke:#0ff; stroke-width:8px; fill:none; " opacity="0" d="M 328,91 L 320,91" onmousedown="segmousedown(&quot;202&quot;,&quot;0&quot;,evt);" onmouseover="segmouseover(&quot;202&quot;,&quot;0&quot;,evt);" onmouseout="segmouseout(&quot;202&quot;,&quot;0&quot;,evt);" onclick="segclick(&quot;202&quot;,&quot;0&quot;,evt);"></path><path style="stroke:#0ff; stroke-width:8px; fill:none; " opacity="0" d="M 320,91 L 320,144" onmousedown="segmousedown(&quot;202&quot;,&quot;1&quot;,evt);" onmouseover="segmouseover(&quot;202&quot;,&quot;1&quot;,evt);" onmouseout="segmouseout(&quot;202&quot;,&quot;1&quot;,evt);" onclick="segclick(&quot;202&quot;,&quot;1&quot;,evt);"></path></g></g></g><g id="203"><path style="stroke:#bdbddf; stroke-width:8px; fill:none;" opacity="0.7" d="M 442,45 H 275 a 12,12 0 0,0 -12,12L 263,76"></path><g><path style="stroke:#ff0; stroke-width:8px; fill:none; " opacity="0" d="M 442,45 H 275 a 12,12 0 0,0 -12,12L 263,76"></path></g><path style="stroke:black; fill:none;" d="M 442,45 H 275 a 12,12 0 0,0 -12,12L 263,76"></path><g><g><path style="stroke:#0ff; stroke-width:8px; fill:none; " opacity="0" d="M 442,45 L 263,45" onmousedown="segmousedown(&quot;203&quot;,&quot;0&quot;,evt);" onmouseover="segmouseover(&quot;203&quot;,&quot;0&quot;,evt);" onmouseout="segmouseout(&quot;203&quot;,&quot;0&quot;,evt);" onclick="segclick(&quot;203&quot;,&quot;0&quot;,evt);"></path><path style="stroke:#0ff; stroke-width:8px; fill:none; " opacity="0" d="M 263,45 L 263,76" onmousedown="segmousedown(&quot;203&quot;,&quot;1&quot;,evt);" onmouseover="segmouseover(&quot;203&quot;,&quot;1&quot;,evt);" onmouseout="segmouseout(&quot;203&quot;,&quot;1&quot;,evt);" onclick="segclick(&quot;203&quot;,&quot;1&quot;,evt);"></path></g></g></g><g id="204"><path style="stroke:#bdbddf; stroke-width:8px; fill:none;" opacity="0.7" d="M 472,45 H 483 a 11,11 0 0,1 11,11L 494,293"></path><g><path style="stroke:#ff0; stroke-width:8px; fill:none; " opacity="0" d="M 472,45 H 483 a 11,11 0 0,1 11,11L 494,293"></path></g><path style="stroke:black; fill:none;" d="M 472,45 H 483 a 11,11 0 0,1 11,11L 494,293"></path><g><g><path style="stroke:#0ff; stroke-width:8px; fill:none; " opacity="0" d="M 472,45 L 494,45" onmousedown="segmousedown(&quot;204&quot;,&quot;0&quot;,evt);" onmouseover="segmouseover(&quot;204&quot;,&quot;0&quot;,evt);" onmouseout="segmouseout(&quot;204&quot;,&quot;0&quot;,evt);" onclick="segclick(&quot;204&quot;,&quot;0&quot;,evt);"></path><path style="stroke:#0ff; stroke-width:8px; fill:none; " opacity="0" d="M 494,45 L 494,293" onmousedown="segmousedown(&quot;204&quot;,&quot;1&quot;,evt);" onmouseover="segmouseover(&quot;204&quot;,&quot;1&quot;,evt);" onmouseout="segmouseout(&quot;204&quot;,&quot;1&quot;,evt);" onclick="segclick(&quot;204&quot;,&quot;1&quot;,evt);"></path></g></g></g><g id="205"><path style="stroke:#bdbddf; stroke-width:8px; fill:none;" opacity="0.7" d="M 335,159 H 455 a 12,12 0 0,1 12,12 V 295 a 12,12 0 0,1 -12,12L 351,307"></path><g><path style="stroke:#ff0; stroke-width:8px; fill:none; " opacity="0" d="M 335,159 H 455 a 12,12 0 0,1 12,12 V 295 a 12,12 0 0,1 -12,12L 351,307"></path></g><path style="stroke:black; fill:none;" d="M 335,159 H 455 a 12,12 0 0,1 12,12 V 295 a 12,12 0 0,1 -12,12L 351,307"></path><g><g><path style="stroke:#0ff; stroke-width:8px; fill:none; " opacity="0" d="M 335,159 L 467,159" onmousedown="segmousedown(&quot;205&quot;,&quot;0&quot;,evt);" onmouseover="segmouseover(&quot;205&quot;,&quot;0&quot;,evt);" onmouseout="segmouseout(&quot;205&quot;,&quot;0&quot;,evt);" onclick="segclick(&quot;205&quot;,&quot;0&quot;,evt);"></path><path style="stroke:#0ff; stroke-width:8px; fill:none; " opacity="0" d="M 467,159 L 467,307" onmousedown="segmousedown(&quot;205&quot;,&quot;1&quot;,evt);" onmouseover="segmouseover(&quot;205&quot;,&quot;1&quot;,evt);" onmouseout="segmouseout(&quot;205&quot;,&quot;1&quot;,evt);" onclick="segclick(&quot;205&quot;,&quot;1&quot;,evt);"></path><path style="stroke:#0ff; stroke-width:8px; fill:none; " opacity="0" d="M 467,307 L 351,307" onmousedown="segmousedown(&quot;205&quot;,&quot;2&quot;,evt);" onmouseover="segmouseover(&quot;205&quot;,&quot;2&quot;,evt);" onmouseout="segmouseout(&quot;205&quot;,&quot;2&quot;,evt);" onclick="segclick(&quot;205&quot;,&quot;2&quot;,evt);"></path></g></g></g><g id="206"><path style="stroke:#bdbddf; stroke-width:8px; fill:none;" opacity="0.7" d="M 305,159 H 272 a 12,12 0 0,0 -12,12L 260,290"></path><g><path style="stroke:#ff0; stroke-width:8px; fill:none; " opacity="0" d="M 305,159 H 272 a 12,12 0 0,0 -12,12L 260,290"></path></g><path style="stroke:black; fill:none;" d="M 305,159 H 272 a 12,12 0 0,0 -12,12L 260,290"></path><g><g><path style="stroke:#0ff; stroke-width:8px; fill:none; " opacity="0" d="M 305,159 L 260,159" onmousedown="segmousedown(&quot;206&quot;,&quot;0&quot;,evt);" onmouseover="segmouseover(&quot;206&quot;,&quot;0&quot;,evt);" onmouseout="segmouseout(&quot;206&quot;,&quot;0&quot;,evt);" onclick="segclick(&quot;206&quot;,&quot;0&quot;,evt);"></path><path style="stroke:#0ff; stroke-width:8px; fill:none; " opacity="0" d="M 260,159 L 260,290" onmousedown="segmousedown(&quot;206&quot;,&quot;1&quot;,evt);" onmouseover="segmouseover(&quot;206&quot;,&quot;1&quot;,evt);" onmouseout="segmouseout(&quot;206&quot;,&quot;1&quot;,evt);" onclick="segclick(&quot;206&quot;,&quot;1&quot;,evt);"></path></g></g></g></g>
  <g id="nodes"><g id="194" onmousedown="nodemousedown(194,evt);" onmouseover="nodemouseover(194,evt);" onmouseout="nodemouseout(194,evt);" transform="translate(343,91)"><rect x="-21" y="-21" width="42" height="42" fill="#0ff" style="stroke:none; opacity:0.75;" display="none"></rect><rect x="-15" y="-15" width="30" height="30" fill="#f0f0d2" style="stroke:black; opacity:1;"></rect></g><g id="195" onmousedown="nodemousedown(195,evt);" onmouseover="nodemouseover(195,evt);" onmouseout="nodemouseout(195,evt);" transform="translate(457,45)"><rect x="-21" y="-21" width="42" height="42" fill="#0ff" style="stroke:none; opacity:0.75;" display="none"></rect><rect x="-15" y="-15" width="30" height="30" fill="#f0f0d2" style="stroke:black; opacity:1;"></rect></g><g id="197" onmousedown="nodemousedown(197,evt);" onmouseover="nodemouseover(197,evt);" onmouseout="nodemouseout(197,evt);" transform="translate(263,91)"><rect x="-21" y="-21" width="42" height="42" fill="#0ff" style="stroke:none; opacity:0.75;" display="none"></rect><rect x="-15" y="-15" width="30" height="30" fill="#f0f0d2" style="stroke:black; opacity:1;"></rect></g><g id="196" onmousedown="nodemousedown(196,evt);" onmouseover="nodemouseover(196,evt);" onmouseout="nodemouseout(196,evt);" transform="translate(320,159)"><rect x="-21" y="-21" width="42" height="42" fill="#0ff" style="stroke:none; opacity:0.75;" display="none"></rect><rect x="-15" y="-15" width="30" height="30" fill="#f0f0d2" style="stroke:black; opacity:1;"></rect></g><g id="200" onmousedown="nodemousedown(200,evt);" onmouseover="nodemouseover(200,evt);" onmouseout="nodemouseout(200,evt);" transform="translate(260,305)"><rect x="-21" y="-21" width="42" height="42" fill="#0ff" style="stroke:none; opacity:0.75;" display="none"></rect><rect x="-15" y="-15" width="30" height="30" fill="#f0f0d2" style="stroke:black; opacity:1;"></rect></g><g id="199" onmousedown="nodemousedown(199,evt);" onmouseover="nodemouseover(199,evt);" onmouseout="nodemouseout(199,evt);" transform="translate(336,307)"><rect x="-21" y="-21" width="42" height="42" fill="#0ff" style="stroke:none; opacity:0.75;" display="none"></rect><rect x="-15" y="-15" width="30" height="30" fill="#f0f0d2" style="stroke:black; opacity:1;"></rect></g><g id="198" onmousedown="nodemousedown(198,evt);" onmouseover="nodemouseover(198,evt);" onmouseout="nodemouseout(198,evt);" transform="translate(494,308)"><rect x="-21" y="-21" width="42" height="42" fill="#0ff" style="stroke:none; opacity:0.75;" display="none"></rect><rect x="-15" y="-15" width="30" height="30" fill="#f0f0d2" style="stroke:black; opacity:1;"></rect></g></g>
  <g id="BPs"><g onmousedown="bpmousedown(209,evt);" onmouseover="bpmouseover(209,evt);" onmouseout="bpmouseout(209,evt);" transform="translate(450,91)" opacity="0"><ellipse cx="0" cy="0" rx="16" ry="16" fill="#0ff" style="stroke:none; opacity:0.75;" display="none"></ellipse><ellipse cx="0" cy="0" rx="6.5908152320000015" ry="6.5908152320000015" fill="#777" style="stroke:black;"></ellipse></g><g onmousedown="bpmousedown(212,evt);" onmouseover="bpmouseover(212,evt);" onmouseout="bpmouseout(212,evt);" transform="translate(320,91)" opacity="0"><ellipse cx="0" cy="0" rx="16" ry="16" fill="#0ff" style="stroke:none; opacity:0.75;" display="none"></ellipse><ellipse cx="0" cy="0" rx="6.5908152320000015" ry="6.5908152320000015" fill="#777" style="stroke:black;"></ellipse></g><g onmousedown="bpmousedown(217,evt);" onmouseover="bpmouseover(217,evt);" onmouseout="bpmouseout(217,evt);" transform="translate(263,45)" opacity="0"><ellipse cx="0" cy="0" rx="16" ry="16" fill="#0ff" style="stroke:none; opacity:0.75;" display="none"></ellipse><ellipse cx="0" cy="0" rx="6.5908152320000015" ry="6.5908152320000015" fill="#777" style="stroke:black;"></ellipse></g><g onmousedown="bpmousedown(220,evt);" onmouseover="bpmouseover(220,evt);" onmouseout="bpmouseout(220,evt);" transform="translate(494,45)" opacity="0"><ellipse cx="0" cy="0" rx="16" ry="16" fill="#0ff" style="stroke:none; opacity:0.75;" display="none"></ellipse><ellipse cx="0" cy="0" rx="6.5908152320000015" ry="6.5908152320000015" fill="#777" style="stroke:black;"></ellipse></g><g onmousedown="bpmousedown(224,evt);" onmouseover="bpmouseover(224,evt);" onmouseout="bpmouseout(224,evt);" transform="translate(467,159)" opacity="0"><ellipse cx="0" cy="0" rx="16" ry="16" fill="#0ff" style="stroke:none; opacity:0.75;" display="none"></ellipse><ellipse cx="0" cy="0" rx="6.5908152320000015" ry="6.5908152320000015" fill="#777" style="stroke:black;"></ellipse></g><g onmousedown="bpmousedown(227,evt);" onmouseover="bpmouseover(227,evt);" onmouseout="bpmouseout(227,evt);" transform="translate(260,159)" opacity="0"><ellipse cx="0" cy="0" rx="16" ry="16" fill="#0ff" style="stroke:none; opacity:0.75;" display="none"></ellipse><ellipse cx="0" cy="0" rx="6.5908152320000015" ry="6.5908152320000015" fill="#777" style="stroke:black;"></ellipse></g><g onmousedown="bpmousedown(229,evt);" onmouseover="bpmouseover(229,evt);" onmouseout="bpmouseout(229,evt);" transform="translate(467,307)" opacity="0"><ellipse cx="0" cy="0" rx="16" ry="16" fill="#0ff" style="stroke:none; opacity:0.75;" display="none"></ellipse><ellipse cx="0" cy="0" rx="6.5908152320000015" ry="6.5908152320000015" fill="#777" style="stroke:black;"></ellipse></g></g>
  <g id="ports"></g>
</g>
</svg>