<svg id="SVGCanvas" width="480px" height="270px" xmlns="http://www.w3.org/2000/svg" xmlns:xlink="http://www.w3.org/1999/xlink" onmouseup="null" onmousemove="null">
<rect id="background" x="0" y="0" height="100%" width="100%" fill="#bdbddf" onmousedown="bgmousedown(evt)"></rect>
<g id="foreground" transform="translate(38.768267223382026,0),scale(1.1273486430062631),translate(-63,-140)">
  <g id="edges"><g id="169"><path style="stroke:#bdbddf; stroke-width:8px; fill:none;" opacity="0.7" d="M 111,170 H 378 a 12,12 0 0,1 12,12L 390,217"></path><g><path style="stroke:#ff0; stroke-width:8px; fill:none; " opacity="0" d="M 111,170 H 378 a 12,12 0 0,1 12,12L 390,217"></path></g><path style="stroke:black; fill:none;" d="M 111,170 H 378 a 12,12 0 0,1 12,12L 390,217"></path><g><g><path style="stroke:#0ff; stroke-width:8px; fill:none; " opacity="0" d="M 111,170 L 390,170" onmousedown="segmousedown(&quot;169&quot;,&quot;0&quot;,evt);" onmouseover="segmouseover(&quot;169&quot;,&quot;0&quot;,evt);" onmouseout="segmouseout(&quot;169&quot;,&quot;0&quot;,evt);" onclick="segclick(&quot;169&quot;,&quot;0&quot;,evt);"></path><path style="stroke:#0ff; stroke-width:8px; fill:none; " opacity="0" d="M 390,170 L 390,217" onmousedown="segmousedown(&quot;169&quot;,&quot;1&quot;,evt);" onmouseover="segmouseover(&quot;169&quot;,&quot;1&quot;,evt);" onmouseout="segmouseout(&quot;169&quot;,&quot;1&quot;,evt);" onclick="segclick(&quot;169&quot;,&quot;1&quot;,evt);"></path></g></g></g><g id="170"><path style="stroke:#bdbddf; stroke-width:8px; fill:none;" opacity="0.7" d="M 375,232L 270,232"></path><g><path style="stroke:#ff0; stroke-width:8px; fill:none; " opacity="0" d="M 375,232L 270,232"></path></g><path style="stroke:black; fill:none;" d="M 375,232L 270,232"></path><g><g><path style="stroke:#0ff; stroke-width:8px; fill:none; " opacity="0" d="M 375,232 L 270,232" onmousedown="segmousedown(&quot;170&quot;,&quot;0&quot;,evt);" onmouseover="segmouseover(&quot;170&quot;,&quot;0&quot;,evt);" onmouseout="segmouseout(&quot;170&quot;,&quot;0&quot;,evt);" onclick="segclick(&quot;170&quot;,&quot;0&quot;,evt);"></path></g></g></g><g id="171"><path style="stroke:#bdbddf; stroke-width:8px; fill:none;" opacity="0.7" d="M 235,247L 235,317.5"></path><g><path style="stroke:#ff0; stroke-width:8px; fill:none; " opacity="0" d="M 235,247L 235,317.5"></path></g><path style="stroke:black; fill:none;" d="M 235,247L 235,317.5"></path><g><g><path style="stroke:#0ff; stroke-width:8px; fill:none; " opacity="0" d="M 235,247 L 235,317.5" onmousedown="segmousedown(&quot;171&quot;,&quot;0&quot;,evt);" onmouseover="segmouseover(&quot;171&quot;,&quot;0&quot;,evt);" onmouseout="segmouseout(&quot;171&quot;,&quot;0&quot;,evt);" onclick="segclick(&quot;171&quot;,&quot;0&quot;,evt);"></path></g></g></g><g id="172"><path style="stroke:#bdbddf; stroke-width:8px; fill:none;" opacity="0.7" d="M 250,341 H 378 a 12,12 0 0,0 12,-12L 390,247"></path><g><path style="stroke:#ff0; stroke-width:8px; fill:none; " opacity="0" d="M 250,341 H 378 a 12,12 0 0,0 12,-12L 390,247"></path></g><path style="stroke:black; fill:none;" d="M 250,341 H 378 a 12,12 0 0,0 12,-12L 390,247"></path><g><g><path style="stroke:#0ff; stroke-width:8px; fill:none; " opacity="0" d="M 250,341 L 390,341" onmousedown="segmousedown(&quot;172&quot;,&quot;0&quot;,evt);" onmouseover="segmouseover(&quot;172&quot;,&quot;0&quot;,evt);" onmouseout="segmouseout(&quot;172&quot;,&quot;0&quot;,evt);" onclick="segclick(&quot;172&quot;,&quot;0&quot;,evt);"></path><path style="stroke:#0ff; stroke-width:8px; fill:none; " opacity="0" d="M 390,341 L 390,247" onmousedown="segmousedown(&quot;172&quot;,&quot;1&quot;,evt);" onmouseover="segmouseover(&quot;172&quot;,&quot;1&quot;,evt);" onmouseout="segmouseout(&quot;172&quot;,&quot;1&quot;,evt);" onclick="segclick(&quot;172&quot;,&quot;1&quot;,evt);"></path></g></g></g><g id="173"><path style="stroke:#bdbddf; stroke-width:8px; fill:none;" opacity="0.7" d="M 257,217 V 204 a 12,12 0 0,0 -12,-12 H 110.5 a 3.5,3.5 0 0,1 -3.5,-3.5L 107,185"></path><g><path style="stroke:#ff0; stroke-width:8px; fill:none; " opacity="0" d="M 257,217 V 204 a 12,12 0 0,0 -12,-12 H 110.5 a 3.5,3.5 0 0,1 -3.5,-3.5L 107,185"></path></g><path style="stroke:black; fill:none;" d="M 257,217 V 204 a 12,12 0 0,0 -12,-12 H 110.5 a 3.5,3.5 0 0,1 -3.5,-3.5L 107,185"></path><g><g><path style="stroke:#0ff; stroke-width:8px; fill:none; " opacity="0" d="M 257,217 L 257,192" onmousedown="segmousedown(&quot;173&quot;,&quot;0&quot;,evt);" onmouseover="segmouseover(&quot;173&quot;,&quot;0&quot;,evt);" onmouseout="segmouseout(&quot;173&quot;,&quot;0&quot;,evt);" onclick="segclick(&quot;173&quot;,&quot;0&quot;,evt);"></path><path style="stroke:#0ff; stroke-width:8px; fill:none; " opacity="0" d="M 257,192 L 107,192" onmousedown="segmousedown(&quot;173&quot;,&quot;1&quot;,evt);" onmouseover="segmouseover(&quot;173&quot;,&quot;1&quot;,evt);" onmouseout="segmouseout(&quot;173&quot;,&quot;1&quot;,evt);" onclick="segclick(&quot;173&quot;,&quot;1&quot;,evt);"></path><path style="stroke:#0ff; stroke-width:8px; fill:none; " opacity="0" d="M 107,192 L 107,185" onmousedown="segmousedown(&quot;173&quot;,&quot;2&quot;,evt);" onmouseover="segmouseover(&quot;173&quot;,&quot;2&quot;,evt);" onmouseout="segmouseout(&quot;173&quot;,&quot;2&quot;,evt);" onclick="segclick(&quot;173&quot;,&quot;2&quot;,evt);"></path></g></g></g><g id="174"><path style="stroke:#bdbddf; stroke-width:8px; fill:none;" opacity="0.7" d="M 88,185 V 329 a 12,12 0 0,0 12,12L 220,341"></path><g><path style="stroke:#ff0; stroke-width:8px; fill:none; " opacity="0" d="M 88,185 V 329 a 12,12 0 0,0 12,12L 220,341"></path></g><path style="stroke:black; fill:none;" d="M 88,185 V 329 a 12,12 0 0,0 12,12L 220,341"></path><g><g><path style="stroke:#0ff; stroke-width:8px; fill:none; " opacity="0" d="M 88,185 L 88,341" onmousedown="segmousedown(&quot;174&quot;,&quot;0&quot;,evt);" onmouseover="segmouseover(&quot;174&quot;,&quot;0&quot;,evt);" onmouseout="segmouseout(&quot;174&quot;,&quot;0&quot;,evt);" onclick="segclick(&quot;174&quot;,&quot;0&quot;,evt);"></path><path style="stroke:#0ff; stroke-width:8px; fill:none; " opacity="0" d="M 88,341 L 220,341" onmousedown="segmousedown(&quot;174&quot;,&quot;1&quot;,evt);" onmouseover="segmouseover(&quot;174&quot;,&quot;1&quot;,evt);" onmouseout="segmouseout(&quot;174&quot;,&quot;1&quot;,evt);" onclick="segclick(&quot;174&quot;,&quot;1&quot;,evt);"></path></g></g></g></g>
  <g id="nodes"><g id="165" onmousedown="nodemousedown(165,evt);" onmouseover="nodemouseover(165,evt);" onmouseout="nodemouseout(165,evt);" transform="translate(245,232)"><rect x="-31" y="-21" width="62" height="42" fill="#0ff" style="stroke:none; opacity:0.75;" display="none"></rect><rect x="-25" y="-15" width="50" height="30" fill="#f0f0d2" style="stroke:black; opacity:1;"></rect></g><g id="167" onmousedown="nodemousedown(167,evt);" onmouseover="nodemouseover(167,evt);" onmouseout="nodemouseout(167,evt);" transform="translate(390,232)"><rect x="-21" y="-21" width="42" height="42" fill="#0ff" style="stroke:none; opacity:0.75;" display="none"></rect><rect x="-15" y="-15" width="30" height="30" fill="#f0f0d2" style="stroke:black; opacity:1;"></rect></g><g id="168" onmousedown="nodemousedown(168,evt);" onmouseover="nodemouseover(168,evt);" onmouseout="nodemouseout(168,evt);" transform="translate(96,170)"><rect x="-21" y="-21" width="42" height="42" fill="#0ff" style="stroke:none; opacity:0.75;" display="none"></rect><rect x="-15" y="-15" width="30" height="30" fill="#f0f0d2" style="stroke:black; opacity:1;"></rect></g><g id="166" onmousedown="nodemousedown(166,evt);" onmouseover="nodemouseover(166,evt);" onmouseout="nodemouseout(166,evt);" transform="translate(235,341)"><rect x="-21" y="-29.5" width="42" height="59" fill="#0ff" style="stroke:none; opacity:0.75;" display="none"></rect><rect x="-15" y="-23.5" width="30" height="47" fill="#f0f0d2" style="stroke:black; opacity:1;"></rect></g></g>
  <g id="BPs"><g onmousedown="bpmousedown(189,evt);" onmouseover="bpmouseover(189,evt);" onmouseout="bpmouseout(189,evt);" transform="translate(390,341)" opacity="0"><ellipse cx="0" cy="0" rx="16" ry="16" fill="#0ff" style="stroke:none; opacity:0.75;" display="none"></ellipse><ellipse cx="0" cy="0" rx="5.132188731375617" ry="5.132188731375617" fill="#777" style="stroke:black;"></ellipse></g><g onmousedown="bpmousedown(194,evt);" onmouseover="bpmouseover(194,evt);" onmouseout="bpmouseout(194,evt);" transform="translate(257,192)" opacity="0"><ellipse cx="0" cy="0" rx="16" ry="16" fill="#0ff" style="stroke:none; opacity:0.75;" display="none"></ellipse><ellipse cx="0" cy="0" rx="5.132188731375617" ry="5.132188731375617" fill="#777" style="stroke:black;"></ellipse></g><g onmousedown="bpmousedown(195,evt);" onmouseover="bpmouseover(195,evt);" onmouseout="bpmouseout(195,evt);" transform="translate(107,192)" opacity="0"><ellipse cx="0" cy="0" rx="16" ry="16" fill="#0ff" style="stroke:none; opacity:0.75;" display="none"></ellipse><ellipse cx="0" cy="0" rx="5.132188731375617" ry="5.132188731375617" fill="#777" style="stroke:black;"></ellipse></g><g onmousedown="bpmousedown(199,evt);" onmouseover="bpmouseover(199,evt);" onmouseout="bpmouseout(199,evt);" transform="translate(88,341)" opacity="0"><ellipse cx="0" cy="0" rx="16" ry="16" fill="#0ff" style="stroke:none; opacity:0.75;" display="none"></ellipse><ellipse cx="0" cy="0" rx="5.132188731375617" ry="5.132188731375617" fill="#777" style="stroke:black;"></ellipse></g><g onmousedown="bpmousedown(201,evt);" onmouseover="bpmouseover(201,evt);" onmouseout="bpmouseout(201,evt);" transform="translate(390,170)" opacity="0"><ellipse cx="0" cy="0" rx="16" ry="16" fill="#0ff" style="stroke:none; opacity:0.75;" display="none"></ellipse><ellipse cx="0" cy="0" rx="5.132188731375617" ry="5.132188731375617" fill="#777" style="stroke:black;"></ellipse></g></g>
  <g id="ports"></g>
</g>
</svg>