<svg id="SVGCanvas" width="480px" height="270px" xmlns="http://www.w3.org/2000/svg" xmlns:xlink="http://www.w3.org/1999/xlink" onmouseup="null" onmousemove="null">
<rect id="background" x="0" y="0" height="100%" width="100%" fill="#bdbddf" onmousedown="bgmousedown(evt)"></rect>
<g id="foreground" transform="translate(43.88252148997134,0),scale(0.7736389684813754),translate(-38,-21)">
  <g id="edges"><g id="241"><path style="stroke:#bdbddf; stroke-width:8px; fill:none;" opacity="0.7" d="M 211,340L 481,340"></path><g><path style="stroke:#ff0; stroke-width:8px; fill:none; " opacity="0" d="M 211,340L 481,340"></path></g><path style="stroke:black; fill:none;" d="M 211,340L 481,340"></path><g><g><path style="stroke:#0ff; stroke-width:8px; fill:none; " opacity="0" d="M 211,340 L 481,340" onmousedown="segmousedown(&quot;241&quot;,&quot;0&quot;,evt);" onmouseover="segmouseover(&quot;241&quot;,&quot;0&quot;,evt);" onmouseout="segmouseout(&quot;241&quot;,&quot;0&quot;,evt);" onclick="segclick(&quot;241&quot;,&quot;0&quot;,evt);"></path></g></g></g><g id="242"><path style="stroke:#bdbddf; stroke-width:8px; fill:none;" opacity="0.7" d="M 496,334 H 508 a 12,12 0 0,0 12,-12 V 171 a 10,10 0 0,0 -10,-10L 500,161"></path><g><path style="stroke:#ff0; stroke-width:8px; fill:none; " opacity="0" d="M 496,334 H 508 a 12,12 0 0,0 12,-12 V 171 a 10,10 0 0,0 -10,-10L 500,161"></path></g><path style="stroke:black; fill:none;" d="M 496,334 H 508 a 12,12 0 0,0 12,-12 V 171 a 10,10 0 0,0 -10,-10L 500,161"></path><g><g><path style="stroke:#0ff; stroke-width:8px; fill:none; " opacity="0" d="M 496,334 L 520,334" onmousedown="segmousedown(&quot;242&quot;,&quot;0&quot;,evt);" onmouseover="segmouseover(&quot;242&quot;,&quot;0&quot;,evt);" onmouseout="segmouseout(&quot;242&quot;,&quot;0&quot;,evt);" onclick="segclick(&quot;242&quot;,&quot;0&quot;,evt);"></path><path style="stroke:#0ff; stroke-width:8px; fill:none; " opacity="0" d="M 520,334 L 520,161" onmousedown="segmousedown(&quot;242&quot;,&quot;1&quot;,evt);" onmouseover="segmouseover(&quot;242&quot;,&quot;1&quot;,evt);" onmouseout="segmouseout(&quot;242&quot;,&quot;1&quot;,evt);" onclick="segclick(&quot;242&quot;,&quot;1&quot;,evt);"></path><path style="stroke:#0ff; stroke-width:8px; fill:none; " opacity="0" d="M 520,161 L 500,161" onmousedown="segmousedown(&quot;242&quot;,&quot;2&quot;,evt);" onmouseover="segmouseover(&quot;242&quot;,&quot;2&quot;,evt);" onmouseout="segmouseout(&quot;242&quot;,&quot;2&quot;,evt);" onclick="segclick(&quot;242&quot;,&quot;2&quot;,evt);"></path></g></g></g><g id="243"><path style="stroke:#bdbddf; stroke-width:8px; fill:none;" opacity="0.7" d="M 475,146 V 58 a 12,12 0 0,0 -12,-12 H 220 a 9,9 0 0,0 -9,9L 211,64"></path><g><path style="stroke:#ff0; stroke-width:8px; fill:none; " opacity="0" d="M 475,146 V 58 a 12,12 0 0,0 -12,-12 H 220 a 9,9 0 0,0 -9,9L 211,64"></path></g><path style="stroke:black; fill:none;" d="M 475,146 V 58 a 12,12 0 0,0 -12,-12 H 220 a 9,9 0 0,0 -9,9L 211,64"></path><g><g><path style="stroke:#0ff; stroke-width:8px; fill:none; " opacity="0" d="M 475,146 L 475,46" onmousedown="segmousedown(&quot;243&quot;,&quot;0&quot;,evt);" onmouseover="segmouseover(&quot;243&quot;,&quot;0&quot;,evt);" onmouseout="segmouseout(&quot;243&quot;,&quot;0&quot;,evt);" onclick="segclick(&quot;243&quot;,&quot;0&quot;,evt);"></path><path style="stroke:#0ff; stroke-width:8px; fill:none; " opacity="0" d="M 475,46 L 211,46" onmousedown="segmousedown(&quot;243&quot;,&quot;1&quot;,evt);" onmouseover="segmouseover(&quot;243&quot;,&quot;1&quot;,evt);" onmouseout="segmouseout(&quot;243&quot;,&quot;1&quot;,evt);" onclick="segclick(&quot;243&quot;,&quot;1&quot;,evt);"></path><path style="stroke:#0ff; stroke-width:8px; fill:none; " opacity="0" d="M 211,46 L 211,64" onmousedown="segmousedown(&quot;243&quot;,&quot;2&quot;,evt);" onmouseover="segmouseover(&quot;243&quot;,&quot;2&quot;,evt);" onmouseout="segmouseout(&quot;243&quot;,&quot;2&quot;,evt);" onclick="segclick(&quot;243&quot;,&quot;2&quot;,evt);"></path></g></g></g><g id="244"><path style="stroke:#bdbddf; stroke-width:8px; fill:none;" opacity="0.7" d="M 218,79L 218,340"></path><g><path style="stroke:#ff0; stroke-width:8px; fill:none; " opacity="0" d="M 218,79L 218,340"></path></g><path style="stroke:black; fill:none;" d="M 218,79L 218,340"></path><g><g><path style="stroke:#0ff; stroke-width:8px; fill:none; " opacity="0" d="M 218,79 L 218,340" onmousedown="segmousedown(&quot;244&quot;,&quot;0&quot;,evt);" onmouseover="segmouseover(&quot;244&quot;,&quot;0&quot;,evt);" onmouseout="segmouseout(&quot;244&quot;,&quot;0&quot;,evt);" onclick="segclick(&quot;244&quot;,&quot;0&quot;,evt);"></path></g></g></g><g id="245"><path style="stroke:#bdbddf; stroke-width:8px; fill:none;" opacity="0.7" d="M 481,319L 481,226"></path><g><path style="stroke:#ff0; stroke-width:8px; fill:none; " opacity="0" d="M 481,319L 481,226"></path></g><path style="stroke:black; fill:none;" d="M 481,319L 481,226"></path><g><g><path style="stroke:#0ff; stroke-width:8px; fill:none; " opacity="0" d="M 481,319 L 481,226" onmousedown="segmousedown(&quot;245&quot;,&quot;0&quot;,evt);" onmouseover="segmouseover(&quot;245&quot;,&quot;0&quot;,evt);" onmouseout="segmouseout(&quot;245&quot;,&quot;0&quot;,evt);" onclick="segclick(&quot;245&quot;,&quot;0&quot;,evt);"></path></g></g></g><g id="246"><path style="stroke:#bdbddf; stroke-width:8px; fill:none;" opacity="0.7" d="M 466,211L 409,211"></path><g><path style="stroke:#ff0; stroke-width:8px; fill:none; " opacity="0" d="M 466,211L 409,211"></path></g><path style="stroke:black; fill:none;" d="M 466,211L 409,211"></path><g><g><path style="stroke:#0ff; stroke-width:8px; fill:none; " opacity="0" d="M 466,211 L 409,211" onmousedown="segmousedown(&quot;246&quot;,&quot;0&quot;,evt);" onmouseover="segmouseover(&quot;246&quot;,&quot;0&quot;,evt);" onmouseout="segmouseout(&quot;246&quot;,&quot;0&quot;,evt);" onclick="segclick(&quot;246&quot;,&quot;0&quot;,evt);"></path></g></g></g><g id="247"><path style="stroke:#bdbddf; stroke-width:8px; fill:none;" opacity="0.7" d="M 379,206L 289,206"></path><g><path style="stroke:#ff0; stroke-width:8px; fill:none; " opacity="0" d="M 379,206L 289,206"></path></g><path style="stroke:black; fill:none;" d="M 379,206L 289,206"></path><g><g><path style="stroke:#0ff; stroke-width:8px; fill:none; " opacity="0" d="M 379,206 L 289,206" onmousedown="segmousedown(&quot;247&quot;,&quot;0&quot;,evt);" onmouseover="segmouseover(&quot;247&quot;,&quot;0&quot;,evt);" onmouseout="segmouseout(&quot;247&quot;,&quot;0&quot;,evt);" onclick="segclick(&quot;247&quot;,&quot;0&quot;,evt);"></path></g></g></g><g id="248"><path style="stroke:#bdbddf; stroke-width:8px; fill:none;" opacity="0.7" d="M 289,201 V 253 a 12,12 0 0,0 12,12L 378,265"></path><g><path style="stroke:#ff0; stroke-width:8px; fill:none; " opacity="0" d="M 289,201 V 253 a 12,12 0 0,0 12,12L 378,265"></path></g><path style="stroke:black; fill:none;" d="M 289,201 V 253 a 12,12 0 0,0 12,12L 378,265"></path><g><g><path style="stroke:#0ff; stroke-width:8px; fill:none; " opacity="0" d="M 289,201 L 289,265" onmousedown="segmousedown(&quot;248&quot;,&quot;0&quot;,evt);" onmouseover="segmouseover(&quot;248&quot;,&quot;0&quot;,evt);" onmouseout="segmouseout(&quot;248&quot;,&quot;0&quot;,evt);" onclick="segclick(&quot;248&quot;,&quot;0&quot;,evt);"></path><path style="stroke:#0ff; stroke-width:8px; fill:none; " opacity="0" d="M 289,265 L 378,265" onmousedown="segmousedown(&quot;248&quot;,&quot;1&quot;,evt);" onmouseover="segmouseover(&quot;248&quot;,&quot;1&quot;,evt);" onmouseout="segmouseout(&quot;248&quot;,&quot;1&quot;,evt);" onclick="segclick(&quot;248&quot;,&quot;1&quot;,evt);"></path></g></g></g><g id="249"><path style="stroke:#bdbddf; stroke-width:8px; fill:none;" opacity="0.7" d="M 202,79 V 111 a 12,12 0 0,1 -12,12L 130,123"></path><g><path style="stroke:#ff0; stroke-width:8px; fill:none; " opacity="0" d="M 202,79 V 111 a 12,12 0 0,1 -12,12L 130,123"></path></g><path style="stroke:black; fill:none;" d="M 202,79 V 111 a 12,12 0 0,1 -12,12L 130,123"></path><g><g><path style="stroke:#0ff; stroke-width:8px; fill:none; " opacity="0" d="M 202,79 L 202,123" onmousedown="segmousedown(&quot;249&quot;,&quot;0&quot;,evt);" onmouseover="segmouseover(&quot;249&quot;,&quot;0&quot;,evt);" onmouseout="segmouseout(&quot;249&quot;,&quot;0&quot;,evt);" onclick="segclick(&quot;249&quot;,&quot;0&quot;,evt);"></path><path style="stroke:#0ff; stroke-width:8px; fill:none; " opacity="0" d="M 202,123 L 130,123" onmousedown="segmousedown(&quot;249&quot;,&quot;1&quot;,evt);" onmouseover="segmouseover(&quot;249&quot;,&quot;1&quot;,evt);" onmouseout="segmouseout(&quot;249&quot;,&quot;1&quot;,evt);" onclick="segclick(&quot;249&quot;,&quot;1&quot;,evt);"></path></g></g></g><g id="250"><path style="stroke:#bdbddf; stroke-width:8px; fill:none;" opacity="0.7" d="M 130,123 V 70.5 a 11.5,11.5 0 0,0 -11.5,-11.5L 107,59"></path><g><path style="stroke:#ff0; stroke-width:8px; fill:none; " opacity="0" d="M 130,123 V 70.5 a 11.5,11.5 0 0,0 -11.5,-11.5L 107,59"></path></g><path style="stroke:black; fill:none;" d="M 130,123 V 70.5 a 11.5,11.5 0 0,0 -11.5,-11.5L 107,59"></path><g><g><path style="stroke:#0ff; stroke-width:8px; fill:none; " opacity="0" d="M 130,123 L 130,59" onmousedown="segmousedown(&quot;250&quot;,&quot;0&quot;,evt);" onmouseover="segmouseover(&quot;250&quot;,&quot;0&quot;,evt);" onmouseout="segmouseout(&quot;250&quot;,&quot;0&quot;,evt);" onclick="segclick(&quot;250&quot;,&quot;0&quot;,evt);"></path><path style="stroke:#0ff; stroke-width:8px; fill:none; " opacity="0" d="M 130,59 L 107,59" onmousedown="segmousedown(&quot;250&quot;,&quot;1&quot;,evt);" onmouseover="segmouseover(&quot;250&quot;,&quot;1&quot;,evt);" onmouseout="segmouseout(&quot;250&quot;,&quot;1&quot;,evt);" onclick="segclick(&quot;250&quot;,&quot;1&quot;,evt);"></path></g></g></g><g id="251"><path style="stroke:#bdbddf; stroke-width:8px; fill:none;" opacity="0.7" d="M 77,59 H 70 a 7,7 0 0,0 -7,7 V 327 a 12,12 0 0,0 12,12L 130,339"></path><g><path style="stroke:#ff0; stroke-width:8px; fill:none; " opacity="0" d="M 77,59 H 70 a 7,7 0 0,0 -7,7 V 327 a 12,12 0 0,0 12,12L 130,339"></path></g><path style="stroke:black; fill:none;" d="M 77,59 H 70 a 7,7 0 0,0 -7,7 V 327 a 12,12 0 0,0 12,12L 130,339"></path><g><g><path style="stroke:#0ff; stroke-width:8px; fill:none; " opacity="0" d="M 77,59 L 63,59" onmousedown="segmousedown(&quot;251&quot;,&quot;0&quot;,evt);" onmouseover="segmouseover(&quot;251&quot;,&quot;0&quot;,evt);" onmouseout="segmouseout(&quot;251&quot;,&quot;0&quot;,evt);" onclick="segclick(&quot;251&quot;,&quot;0&quot;,evt);"></path><path style="stroke:#0ff; stroke-width:8px; fill:none; " opacity="0" d="M 63,59 L 63,339" onmousedown="segmousedown(&quot;251&quot;,&quot;1&quot;,evt);" onmouseover="segmouseover(&quot;251&quot;,&quot;1&quot;,evt);" onmouseout="segmouseout(&quot;251&quot;,&quot;1&quot;,evt);" onclick="segclick(&quot;251&quot;,&quot;1&quot;,evt);"></path><path style="stroke:#0ff; stroke-width:8px; fill:none; " opacity="0" d="M 63,339 L 130,339" onmousedown="segmousedown(&quot;251&quot;,&quot;2&quot;,evt);" onmouseover="segmouseover(&quot;251&quot;,&quot;2&quot;,evt);" onmouseout="segmouseout(&quot;251&quot;,&quot;2&quot;,evt);" onclick="segclick(&quot;251&quot;,&quot;2&quot;,evt);"></path></g></g></g><g id="252"><path style="stroke:#bdbddf; stroke-width:8px; fill:none;" opacity="0.7" d="M 133,123 V 246 a 12,12 0 0,0 12,12L 177,258"></path><g><path style="stroke:#ff0; stroke-width:8px; fill:none; " opacity="0" d="M 133,123 V 246 a 12,12 0 0,0 12,12L 177,258"></path></g><path style="stroke:black; fill:none;" d="M 133,123 V 246 a 12,12 0 0,0 12,12L 177,258"></path><g><g><path style="stroke:#0ff; stroke-width:8px; fill:none; " opacity="0" d="M 133,123 L 133,258" onmousedown="segmousedown(&quot;252&quot;,&quot;0&quot;,evt);" onmouseover="segmouseover(&quot;252&quot;,&quot;0&quot;,evt);" onmouseout="segmouseout(&quot;252&quot;,&quot;0&quot;,evt);" onclick="segclick(&quot;252&quot;,&quot;0&quot;,evt);"></path><path style="stroke:#0ff; stroke-width:8px; fill:none; " opacity="0" d="M 133,258 L 177,258" onmousedown="segmousedown(&quot;252&quot;,&quot;1&quot;,evt);" onmouseover="segmouseover(&quot;252&quot;,&quot;1&quot;,evt);" onmouseout="segmouseout(&quot;252&quot;,&quot;1&quot;,evt);" onclick="segclick(&quot;252&quot;,&quot;1&quot;,evt);"></path></g></g></g></g>
  <g id="nodes"><g id="229" onmousedown="nodemousedown(229,evt);" onmouseover="nodemouseover(229,evt);" onmouseout="nodemouseout(229,evt);" transform="translate(211 79)"><rect x="-21" y="-21" width="42" height="42" fill="#0ff" style="stroke:none; opacity:0.75;" display="none"></rect><rect x="-15" y="-15" width="30" height="30" fill="#f0f0d2" style="stroke:black; opacity:1;"></rect></g><g id="230" onmousedown="nodemousedown(230,evt);" onmouseover="nodemouseover(230,evt);" onmouseout="nodemouseout(230,evt);" transform="translate(211 340)"><rect x="-21" y="-21" width="42" height="42" fill="#0ff" style="stroke:none; opacity:0.75;" display="none"></rect><rect x="-15" y="-15" width="30" height="30" fill="#f0f0d2" style="stroke:black; opacity:1;"></rect></g><g id="235" onmousedown="nodemousedown(235,evt);" onmouseover="nodemouseover(235,evt);" onmouseout="nodemouseout(235,evt);" transform="translate(289 201)"><rect x="-21" y="-21" width="42" height="42" fill="#0ff" style="stroke:none; opacity:0.75;" display="none"></rect><rect x="-15" y="-15" width="30" height="30" fill="#f0f0d2" style="stroke:black; opacity:1;"></rect></g><g id="237" onmousedown="nodemousedown(237,evt);" onmouseover="nodemouseover(237,evt);" onmouseout="nodemouseout(237,evt);" transform="translate(130 123)"><rect x="-21" y="-21" width="42" height="42" fill="#0ff" style="stroke:none; opacity:0.75;" display="none"></rect><rect x="-15" y="-15" width="30" height="30" fill="#f0f0d2" style="stroke:black; opacity:1;"></rect></g><g id="238" onmousedown="nodemousedown(238,evt);" onmouseover="nodemouseover(238,evt);" onmouseout="nodemouseout(238,evt);" transform="translate(177 258)"><rect x="-21" y="-21" width="42" height="42" fill="#0ff" style="stroke:none; opacity:0.75;" display="none"></rect><rect x="-15" y="-15" width="30" height="30" fill="#f0f0d2" style="stroke:black; opacity:1;"></rect></g><g id="234" onmousedown="nodemousedown(234,evt);" onmouseover="nodemouseover(234,evt);" onmouseout="nodemouseout(234,evt);" transform="translate(394,206)"><rect x="-21" y="-21" width="42" height="42" fill="#0ff" style="stroke:none; opacity:0.75;" display="none"></rect><rect x="-15" y="-15" width="30" height="30" fill="#f0f0d2" style="stroke:black; opacity:1;"></rect></g><g id="233" onmousedown="nodemousedown(233,evt);" onmouseover="nodemouseover(233,evt);" onmouseout="nodemouseout(233,evt);" transform="translate(481,211)"><rect x="-21" y="-21" width="42" height="42" fill="#0ff" style="stroke:none; opacity:0.75;" display="none"></rect><rect x="-15" y="-15" width="30" height="30" fill="#f0f0d2" style="stroke:black; opacity:1;"></rect></g><g id="231" onmousedown="nodemousedown(231,evt);" onmouseover="nodemouseover(231,evt);" onmouseout="nodemouseout(231,evt);" transform="translate(481,334)"><rect x="-21" y="-21" width="42" height="42" fill="#0ff" style="stroke:none; opacity:0.75;" display="none"></rect><rect x="-15" y="-15" width="30" height="30" fill="#f0f0d2" style="stroke:black; opacity:1;"></rect></g><g id="236" onmousedown="nodemousedown(236,evt);" onmouseover="nodemouseover(236,evt);" onmouseout="nodemouseout(236,evt);" transform="translate(393,278)"><rect x="-21" y="-21" width="42" height="42" fill="#0ff" style="stroke:none; opacity:0.75;" display="none"></rect><rect x="-15" y="-15" width="30" height="30" fill="#f0f0d2" style="stroke:black; opacity:1;"></rect></g><g id="232" onmousedown="nodemousedown(232,evt);" onmouseover="nodemouseover(232,evt);" onmouseout="nodemouseout(232,evt);" transform="translate(485,161)"><rect x="-21" y="-21" width="42" height="42" fill="#0ff" style="stroke:none; opacity:0.75;" display="none"></rect><rect x="-15" y="-15" width="30" height="30" fill="#f0f0d2" style="stroke:black; opacity:1;"></rect></g><g id="239" onmousedown="nodemousedown(239,evt);" onmouseover="nodemouseover(239,evt);" onmouseout="nodemouseout(239,evt);" transform="translate(92,59)"><rect x="-21" y="-21" width="42" height="42" fill="#0ff" style="stroke:none; opacity:0.75;" display="none"></rect><rect x="-15" y="-15" width="30" height="30" fill="#f0f0d2" style="stroke:black; opacity:1;"></rect></g><g id="240" onmousedown="nodemousedown(240,evt);" onmouseover="nodemouseover(240,evt);" onmouseout="nodemouseout(240,evt);" transform="translate(145,339)"><rect x="-21" y="-21" width="42" height="42" fill="#0ff" style="stroke:none; opacity:0.75;" display="none"></rect><rect x="-15" y="-15" width="30" height="30" fill="#f0f0d2" style="stroke:black; opacity:1;"></rect></g></g>
  <g id="BPs"><g onmousedown="bpmousedown(257,evt);" onmouseover="bpmouseover(257,evt);" onmouseout="bpmouseout(257,evt);" transform="translate(520,334)" opacity="0"><ellipse cx="0" cy="0" rx="16" ry="16" fill="#0ff" style="stroke:none; opacity:0.75;" display="none"></ellipse><ellipse cx="0" cy="0" rx="6.063550013440001" ry="6.063550013440001" fill="#777" style="stroke:black;"></ellipse></g><g onmousedown="bpmousedown(258,evt);" onmouseover="bpmouseover(258,evt);" onmouseout="bpmouseout(258,evt);" transform="translate(520,161)" opacity="0"><ellipse cx="0" cy="0" rx="16" ry="16" fill="#0ff" style="stroke:none; opacity:0.75;" display="none"></ellipse><ellipse cx="0" cy="0" rx="6.063550013440001" ry="6.063550013440001" fill="#777" style="stroke:black;"></ellipse></g><g onmousedown="bpmousedown(261,evt);" onmouseover="bpmouseover(261,evt);" onmouseout="bpmouseout(261,evt);" transform="translate(475,46)" opacity="0"><ellipse cx="0" cy="0" rx="16" ry="16" fill="#0ff" style="stroke:none; opacity:0.75;" display="none"></ellipse><ellipse cx="0" cy="0" rx="6.063550013440001" ry="6.063550013440001" fill="#777" style="stroke:black;"></ellipse></g><g onmousedown="bpmousedown(262,evt);" onmouseover="bpmouseover(262,evt);" onmouseout="bpmouseout(262,evt);" transform="translate(211,46)" opacity="0"><ellipse cx="0" cy="0" rx="16" ry="16" fill="#0ff" style="stroke:none; opacity:0.75;" display="none"></ellipse><ellipse cx="0" cy="0" rx="6.063550013440001" ry="6.063550013440001" fill="#777" style="stroke:black;"></ellipse></g><g onmousedown="bpmousedown(277,evt);" onmouseover="bpmouseover(277,evt);" onmouseout="bpmouseout(277,evt);" transform="translate(289 265)" opacity="0"><ellipse cx="0" cy="0" rx="16" ry="16" fill="#0ff" style="stroke:none; opacity:0.75;" display="none"></ellipse><ellipse cx="0" cy="0" rx="6.063550013440001" ry="6.063550013440001" fill="#777" style="stroke:black;"></ellipse></g><g onmousedown="bpmousedown(281,evt);" onmouseover="bpmouseover(281,evt);" onmouseout="bpmouseout(281,evt);" transform="translate(202 123)" opacity="0"><ellipse cx="0" cy="0" rx="16" ry="16" fill="#0ff" style="stroke:none; opacity:0.75;" display="none"></ellipse><ellipse cx="0" cy="0" rx="10" ry="10" fill="#777" style="stroke:black;"></ellipse></g><g onmousedown="bpmousedown(284,evt);" onmouseover="bpmouseover(284,evt);" onmouseout="bpmouseout(284,evt);" transform="translate(130,59)" opacity="0"><ellipse cx="0" cy="0" rx="16" ry="16" fill="#0ff" style="stroke:none; opacity:0.75;" display="none"></ellipse><ellipse cx="0" cy="0" rx="6.063550013440001" ry="6.063550013440001" fill="#777" style="stroke:black;"></ellipse></g><g onmousedown="bpmousedown(287,evt);" onmouseover="bpmouseover(287,evt);" onmouseout="bpmouseout(287,evt);" transform="translate(63,59)" opacity="0"><ellipse cx="0" cy="0" rx="16" ry="16" fill="#0ff" style="stroke:none; opacity:0.75;" display="none"></ellipse><ellipse cx="0" cy="0" rx="6.063550013440001" ry="6.063550013440001" fill="#777" style="stroke:black;"></ellipse></g><g onmousedown="bpmousedown(288,evt);" onmouseover="bpmouseover(288,evt);" onmouseout="bpmouseout(288,evt);" transform="translate(63,339)" opacity="0"><ellipse cx="0" cy="0" rx="16" ry="16" fill="#0ff" style="stroke:none; opacity:0.75;" display="none"></ellipse><ellipse cx="0" cy="0" rx="6.063550013440001" ry="6.063550013440001" fill="#777" style="stroke:black;"></ellipse></g><g onmousedown="bpmousedown(291,evt);" onmouseover="bpmouseover(291,evt);" onmouseout="bpmouseout(291,evt);" transform="translate(133 258)" opacity="0"><ellipse cx="0" cy="0" rx="16" ry="16" fill="#0ff" style="stroke:none; opacity:0.75;" display="none"></ellipse><ellipse cx="0" cy="0" rx="10" ry="10" fill="#777" style="stroke:black;"></ellipse></g></g>
  <g id="ports"></g>
</g>
</svg>