<svg id="SVGCanvas" width="480px" height="270px" xmlns="http://www.w3.org/2000/svg" xmlns:xlink="http://www.w3.org/1999/xlink" onmousemove="null" onmouseup="null">
<rect id="background" x="0" y="0" height="100%" width="100%" fill="#bdbddf" onmousedown="bgmousedown(evt)"></rect>
<g id="foreground" transform="translate(0,20.86525759577279),scale(0.6340819022457067),translate(-138,-244)">
  <g id="edges"><g id="184"><path style="stroke:#bdbddf; stroke-width:8px; fill:none;" opacity="0.7" d="M 311,448L 707,448"></path><g><path style="stroke:#ff0; stroke-width:8px; fill:none; " opacity="0" d="M 311,448L 707,448"></path></g><path style="stroke:black; fill:none;" d="M 311,448L 707,448"></path><g><g><path style="stroke:#0ff; stroke-width:8px; fill:none; " opacity="0" d="M 311,448 L 707,448" onmousedown="segmousedown(&quot;184&quot;,&quot;0&quot;,evt);" onmouseover="segmouseover(&quot;184&quot;,&quot;0&quot;,evt);" onmouseout="segmouseout(&quot;184&quot;,&quot;0&quot;,evt);" onclick="segclick(&quot;184&quot;,&quot;0&quot;,evt);"></path></g></g></g><g id="185"><path style="stroke:#bdbddf; stroke-width:8px; fill:none;" opacity="0.7" d="M 722,433 V 393 a 12,12 0 0,1 12,-12 H 855 a 10,10 0 0,0 10,-10L 865,361"></path><g><path style="stroke:#ff0; stroke-width:8px; fill:none; " opacity="0" d="M 722,433 V 393 a 12,12 0 0,1 12,-12 H 855 a 10,10 0 0,0 10,-10L 865,361"></path></g><path style="stroke:black; fill:none;" d="M 722,433 V 393 a 12,12 0 0,1 12,-12 H 855 a 10,10 0 0,0 10,-10L 865,361"></path><g><g><path style="stroke:#0ff; stroke-width:8px; fill:none; " opacity="0" d="M 722,433 L 722,381" onmousedown="segmousedown(&quot;185&quot;,&quot;0&quot;,evt);" onmouseover="segmouseover(&quot;185&quot;,&quot;0&quot;,evt);" onmouseout="segmouseout(&quot;185&quot;,&quot;0&quot;,evt);" onclick="segclick(&quot;185&quot;,&quot;0&quot;,evt);"></path><path style="stroke:#0ff; stroke-width:8px; fill:none; " opacity="0" d="M 722,381 L 865,381" onmousedown="segmousedown(&quot;185&quot;,&quot;1&quot;,evt);" onmouseover="segmouseover(&quot;185&quot;,&quot;1&quot;,evt);" onmouseout="segmouseout(&quot;185&quot;,&quot;1&quot;,evt);" onclick="segclick(&quot;185&quot;,&quot;1&quot;,evt);"></path><path style="stroke:#0ff; stroke-width:8px; fill:none; " opacity="0" d="M 865,381 L 865,361" onmousedown="segmousedown(&quot;185&quot;,&quot;2&quot;,evt);" onmouseover="segmouseover(&quot;185&quot;,&quot;2&quot;,evt);" onmouseout="segmouseout(&quot;185&quot;,&quot;2&quot;,evt);" onclick="segclick(&quot;185&quot;,&quot;2&quot;,evt);"></path></g></g></g><g id="186"><path style="stroke:#bdbddf; stroke-width:8px; fill:none;" opacity="0.7" d="M 865,331 V 320.5 a 10.5,10.5 0 0,0 -10.5,-10.5 H 732.5 a 10.5,10.5 0 0,1 -10.5,-10.5L 722,289"></path><g><path style="stroke:#ff0; stroke-width:8px; fill:none; " opacity="0" d="M 865,331 V 320.5 a 10.5,10.5 0 0,0 -10.5,-10.5 H 732.5 a 10.5,10.5 0 0,1 -10.5,-10.5L 722,289"></path></g><path style="stroke:black; fill:none;" d="M 865,331 V 320.5 a 10.5,10.5 0 0,0 -10.5,-10.5 H 732.5 a 10.5,10.5 0 0,1 -10.5,-10.5L 722,289"></path><g><g><path style="stroke:#0ff; stroke-width:8px; fill:none; " opacity="0" d="M 865,331 L 865,310" onmousedown="segmousedown(&quot;186&quot;,&quot;0&quot;,evt);" onmouseover="segmouseover(&quot;186&quot;,&quot;0&quot;,evt);" onmouseout="segmouseout(&quot;186&quot;,&quot;0&quot;,evt);" onclick="segclick(&quot;186&quot;,&quot;0&quot;,evt);"></path><path style="stroke:#0ff; stroke-width:8px; fill:none; " opacity="0" d="M 865,310 L 722,310" onmousedown="segmousedown(&quot;186&quot;,&quot;1&quot;,evt);" onmouseover="segmouseover(&quot;186&quot;,&quot;1&quot;,evt);" onmouseout="segmouseout(&quot;186&quot;,&quot;1&quot;,evt);" onclick="segclick(&quot;186&quot;,&quot;1&quot;,evt);"></path><path style="stroke:#0ff; stroke-width:8px; fill:none; " opacity="0" d="M 722,310 L 722,289" onmousedown="segmousedown(&quot;186&quot;,&quot;2&quot;,evt);" onmouseover="segmouseover(&quot;186&quot;,&quot;2&quot;,evt);" onmouseout="segmouseout(&quot;186&quot;,&quot;2&quot;,evt);" onclick="segclick(&quot;186&quot;,&quot;2&quot;,evt);"></path></g></g></g><g id="187"><path style="stroke:#bdbddf; stroke-width:8px; fill:none;" opacity="0.7" d="M 281,448 H 244 a 12,12 0 0,1 -12,-12 V 396 a 12,12 0 0,0 -12,-12L 183,384"></path><g><path style="stroke:#ff0; stroke-width:8px; fill:none; " opacity="0" d="M 281,448 H 244 a 12,12 0 0,1 -12,-12 V 396 a 12,12 0 0,0 -12,-12L 183,384"></path></g><path style="stroke:black; fill:none;" d="M 281,448 H 244 a 12,12 0 0,1 -12,-12 V 396 a 12,12 0 0,0 -12,-12L 183,384"></path><g><g><path style="stroke:#0ff; stroke-width:8px; fill:none; " opacity="0" d="M 281,448 L 232,448" onmousedown="segmousedown(&quot;187&quot;,&quot;0&quot;,evt);" onmouseover="segmouseover(&quot;187&quot;,&quot;0&quot;,evt);" onmouseout="segmouseout(&quot;187&quot;,&quot;0&quot;,evt);" onclick="segclick(&quot;187&quot;,&quot;0&quot;,evt);"></path><path style="stroke:#0ff; stroke-width:8px; fill:none; " opacity="0" d="M 232,448 L 232,384" onmousedown="segmousedown(&quot;187&quot;,&quot;1&quot;,evt);" onmouseover="segmouseover(&quot;187&quot;,&quot;1&quot;,evt);" onmouseout="segmouseout(&quot;187&quot;,&quot;1&quot;,evt);" onclick="segclick(&quot;187&quot;,&quot;1&quot;,evt);"></path><path style="stroke:#0ff; stroke-width:8px; fill:none; " opacity="0" d="M 232,384 L 183,384" onmousedown="segmousedown(&quot;187&quot;,&quot;2&quot;,evt);" onmouseover="segmouseover(&quot;187&quot;,&quot;2&quot;,evt);" onmouseout="segmouseout(&quot;187&quot;,&quot;2&quot;,evt);" onclick="segclick(&quot;187&quot;,&quot;2&quot;,evt);"></path></g></g></g><g id="188"><path style="stroke:#bdbddf; stroke-width:8px; fill:none;" opacity="0.7" d="M 722,559L 722,448"></path><g><path style="stroke:#ff0; stroke-width:8px; fill:none; " opacity="0" d="M 722,559L 722,448"></path></g><path style="stroke:black; fill:none;" d="M 722,559L 722,448"></path><g><g><path style="stroke:#0ff; stroke-width:8px; fill:none; " opacity="0" d="M 722,559 L 722,448" onmousedown="segmousedown(&quot;188&quot;,&quot;0&quot;,evt);" onmouseover="segmouseover(&quot;188&quot;,&quot;0&quot;,evt);" onmouseout="segmouseout(&quot;188&quot;,&quot;0&quot;,evt);" onclick="segclick(&quot;188&quot;,&quot;0&quot;,evt);"></path></g></g></g><g id="189"><path style="stroke:#bdbddf; stroke-width:8px; fill:none;" opacity="0.7" d="M 722,274 H 521 a 12,12 0 0,0 -12,12 V 302 a 12,12 0 0,1 -12,12L 311,314"></path><g><path style="stroke:#ff0; stroke-width:8px; fill:none; " opacity="0" d="M 722,274 H 521 a 12,12 0 0,0 -12,12 V 302 a 12,12 0 0,1 -12,12L 311,314"></path></g><path style="stroke:black; fill:none;" d="M 722,274 H 521 a 12,12 0 0,0 -12,12 V 302 a 12,12 0 0,1 -12,12L 311,314"></path><g><g><path style="stroke:#0ff; stroke-width:8px; fill:none; " opacity="0" d="M 722,274 L 509,274" onmousedown="segmousedown(&quot;189&quot;,&quot;0&quot;,evt);" onmouseover="segmouseover(&quot;189&quot;,&quot;0&quot;,evt);" onmouseout="segmouseout(&quot;189&quot;,&quot;0&quot;,evt);" onclick="segclick(&quot;189&quot;,&quot;0&quot;,evt);"></path><path style="stroke:#0ff; stroke-width:8px; fill:none; " opacity="0" d="M 509,274 L 509,314" onmousedown="segmousedown(&quot;189&quot;,&quot;1&quot;,evt);" onmouseover="segmouseover(&quot;189&quot;,&quot;1&quot;,evt);" onmouseout="segmouseout(&quot;189&quot;,&quot;1&quot;,evt);" onclick="segclick(&quot;189&quot;,&quot;1&quot;,evt);"></path><path style="stroke:#0ff; stroke-width:8px; fill:none; " opacity="0" d="M 509,314 L 311,314" onmousedown="segmousedown(&quot;189&quot;,&quot;2&quot;,evt);" onmouseover="segmouseover(&quot;189&quot;,&quot;2&quot;,evt);" onmouseout="segmouseout(&quot;189&quot;,&quot;2&quot;,evt);" onclick="segclick(&quot;189&quot;,&quot;2&quot;,evt);"></path></g></g></g><g id="190"><path style="stroke:#bdbddf; stroke-width:8px; fill:none;" opacity="0.7" d="M 296,329L 296,448"></path><g><path style="stroke:#ff0; stroke-width:8px; fill:none; " opacity="0" d="M 296,329L 296,448"></path></g><path style="stroke:black; fill:none;" d="M 296,329L 296,448"></path><g><g><path style="stroke:#0ff; stroke-width:8px; fill:none; " opacity="0" d="M 296,329 L 296,448" onmousedown="segmousedown(&quot;190&quot;,&quot;0&quot;,evt);" onmouseover="segmouseover(&quot;190&quot;,&quot;0&quot;,evt);" onmouseout="segmouseout(&quot;190&quot;,&quot;0&quot;,evt);" onclick="segclick(&quot;190&quot;,&quot;0&quot;,evt);"></path></g></g></g><g id="191"><path style="stroke:#bdbddf; stroke-width:8px; fill:none;" opacity="0.7" d="M 281,314 H 264 a 12,12 0 0,1 -12,-12 V 286 a 12,12 0 0,0 -12,-12L 183,274"></path><g><path style="stroke:#ff0; stroke-width:8px; fill:none; " opacity="0" d="M 281,314 H 264 a 12,12 0 0,1 -12,-12 V 286 a 12,12 0 0,0 -12,-12L 183,274"></path></g><path style="stroke:black; fill:none;" d="M 281,314 H 264 a 12,12 0 0,1 -12,-12 V 286 a 12,12 0 0,0 -12,-12L 183,274"></path><g><g><path style="stroke:#0ff; stroke-width:8px; fill:none; " opacity="0" d="M 281,314 L 252,314" onmousedown="segmousedown(&quot;191&quot;,&quot;0&quot;,evt);" onmouseover="segmouseover(&quot;191&quot;,&quot;0&quot;,evt);" onmouseout="segmouseout(&quot;191&quot;,&quot;0&quot;,evt);" onclick="segclick(&quot;191&quot;,&quot;0&quot;,evt);"></path><path style="stroke:#0ff; stroke-width:8px; fill:none; " opacity="0" d="M 252,314 L 252,274" onmousedown="segmousedown(&quot;191&quot;,&quot;1&quot;,evt);" onmouseover="segmouseover(&quot;191&quot;,&quot;1&quot;,evt);" onmouseout="segmouseout(&quot;191&quot;,&quot;1&quot;,evt);" onclick="segclick(&quot;191&quot;,&quot;1&quot;,evt);"></path><path style="stroke:#0ff; stroke-width:8px; fill:none; " opacity="0" d="M 252,274 L 183,274" onmousedown="segmousedown(&quot;191&quot;,&quot;2&quot;,evt);" onmouseover="segmouseover(&quot;191&quot;,&quot;2&quot;,evt);" onmouseout="segmouseout(&quot;191&quot;,&quot;2&quot;,evt);" onclick="segclick(&quot;191&quot;,&quot;2&quot;,evt);"></path></g></g></g><g id="192"><path style="stroke:#bdbddf; stroke-width:8px; fill:none;" opacity="0.7" d="M 168,274L 168,369"></path><g><path style="stroke:#ff0; stroke-width:8px; fill:none; " opacity="0" d="M 168,274L 168,369"></path></g><path style="stroke:black; fill:none;" d="M 168,274L 168,369"></path><g><g><path style="stroke:#0ff; stroke-width:8px; fill:none; " opacity="0" d="M 168,274 L 168,369" onmousedown="segmousedown(&quot;192&quot;,&quot;0&quot;,evt);" onmouseover="segmouseover(&quot;192&quot;,&quot;0&quot;,evt);" onmouseout="segmouseout(&quot;192&quot;,&quot;0&quot;,evt);" onclick="segclick(&quot;192&quot;,&quot;0&quot;,evt);"></path></g></g></g><g id="193"><path style="stroke:#bdbddf; stroke-width:8px; fill:none;" opacity="0.7" d="M 296,448L 296,571"></path><g><path style="stroke:#ff0; stroke-width:8px; fill:none; " opacity="0" d="M 296,448L 296,571"></path></g><path style="stroke:black; fill:none;" d="M 296,448L 296,571"></path><g><g><path style="stroke:#0ff; stroke-width:8px; fill:none; " opacity="0" d="M 296,448 L 296,571" onmousedown="segmousedown(&quot;193&quot;,&quot;0&quot;,evt);" onmouseover="segmouseover(&quot;193&quot;,&quot;0&quot;,evt);" onmouseout="segmouseout(&quot;193&quot;,&quot;0&quot;,evt);" onclick="segclick(&quot;193&quot;,&quot;0&quot;,evt);"></path></g></g></g></g>
  <g id="nodes"><g id="178" onmousedown="nodemousedown(178,evt);" onmouseover="nodemouseover(178,evt);" onmouseout="nodemouseout(178,evt);" transform="translate(722 274)"><rect x="-21" y="-21" width="42" height="42" fill="#0ff" style="stroke:none; opacity:0.75;" display="none"></rect><rect x="-15" y="-15" width="30" height="30" fill="#f0f0d2" style="stroke:black; opacity:1;"></rect></g><g id="181" onmousedown="nodemousedown(181,evt);" onmouseover="nodemouseover(181,evt);" onmouseout="nodemouseout(181,evt);" transform="translate(168 274)"><rect x="-21" y="-21" width="42" height="42" fill="#0ff" style="stroke:none; opacity:0.75;" display="none"></rect><rect x="-15" y="-15" width="30" height="30" fill="#f0f0d2" style="stroke:black; opacity:1;"></rect></g><g id="177" onmousedown="nodemousedown(177,evt);" onmouseover="nodemouseover(177,evt);" onmouseout="nodemouseout(177,evt);" transform="translate(865,346)"><rect x="-21" y="-21" width="42" height="42" fill="#0ff" style="stroke:none; opacity:0.75;" display="none"></rect><rect x="-15" y="-15" width="30" height="30" fill="#f0f0d2" style="stroke:black; opacity:1;"></rect></g><g id="180" onmousedown="nodemousedown(180,evt);" onmouseover="nodemouseover(180,evt);" onmouseout="nodemouseout(180,evt);" transform="translate(296,314)"><rect x="-21" y="-21" width="42" height="42" fill="#0ff" style="stroke:none; opacity:0.75;" display="none"></rect><rect x="-15" y="-15" width="30" height="30" fill="#f0f0d2" style="stroke:black; opacity:1;"></rect></g><g id="175" onmousedown="nodemousedown(175,evt);" onmouseover="nodemouseover(175,evt);" onmouseout="nodemouseout(175,evt);" transform="translate(296,448)"><rect x="-21" y="-21" width="42" height="42" fill="#0ff" style="stroke:none; opacity:0.75;" display="none"></rect><rect x="-15" y="-15" width="30" height="30" fill="#f0f0d2" style="stroke:black; opacity:1;"></rect></g><g id="183" onmousedown="nodemousedown(183,evt);" onmouseover="nodemouseover(183,evt);" onmouseout="nodemouseout(183,evt);" transform="translate(296,571)"><rect x="-21" y="-21" width="42" height="42" fill="#0ff" style="stroke:none; opacity:0.75;" display="none"></rect><rect x="-15" y="-15" width="30" height="30" fill="#f0f0d2" style="stroke:black; opacity:1;"></rect></g><g id="176" onmousedown="nodemousedown(176,evt);" onmouseover="nodemouseover(176,evt);" onmouseout="nodemouseout(176,evt);" transform="translate(722,448)"><rect x="-21" y="-21" width="42" height="42" fill="#0ff" style="stroke:none; opacity:0.75;" display="none"></rect><rect x="-15" y="-15" width="30" height="30" fill="#f0f0d2" style="stroke:black; opacity:1;"></rect></g><g id="182" onmousedown="nodemousedown(182,evt);" onmouseover="nodemouseover(182,evt);" onmouseout="nodemouseout(182,evt);" transform="translate(722,574)"><rect x="-21" y="-21" width="42" height="42" fill="#0ff" style="stroke:none; opacity:0.75;" display="none"></rect><rect x="-15" y="-15" width="30" height="30" fill="#f0f0d2" style="stroke:black; opacity:1;"></rect></g><g id="179" onmousedown="nodemousedown(179,evt);" onmouseover="nodemouseover(179,evt);" onmouseout="nodemouseout(179,evt);" transform="translate(168,384)"><rect x="-21" y="-21" width="42" height="42" fill="#0ff" style="stroke:none; opacity:0.75;" display="none"></rect><rect x="-15" y="-15" width="30" height="30" fill="#f0f0d2" style="stroke:black; opacity:1;"></rect></g></g>
  <g id="BPs"><g onmousedown="bpmousedown(200,evt);" onmouseover="bpmouseover(200,evt);" onmouseout="bpmouseout(200,evt);" transform="translate(722 381)" opacity="0"><ellipse cx="0" cy="0" rx="16" ry="16" fill="#0ff" style="stroke:none; opacity:0.75;" display="none"></ellipse><ellipse cx="0" cy="0" rx="3.6766638765488238" ry="3.6766638765488238" fill="#777" style="stroke:black;"></ellipse></g><g onmousedown="bpmousedown(201,evt);" onmouseover="bpmouseover(201,evt);" onmouseout="bpmouseout(201,evt);" transform="translate(865,381)" opacity="0"><ellipse cx="0" cy="0" rx="16" ry="16" fill="#0ff" style="stroke:none; opacity:0.75;" display="none"></ellipse><ellipse cx="0" cy="0" rx="3.6766638765488238" ry="3.6766638765488238" fill="#777" style="stroke:black;"></ellipse></g><g onmousedown="bpmousedown(208,evt);" onmouseover="bpmouseover(208,evt);" onmouseout="bpmouseout(208,evt);" transform="translate(232,448)" opacity="0"><ellipse cx="0" cy="0" rx="16" ry="16" fill="#0ff" style="stroke:none; opacity:0.75;" display="none"></ellipse><ellipse cx="0" cy="0" rx="3.6766638765488238" ry="3.6766638765488238" fill="#777" style="stroke:black;"></ellipse></g><g onmousedown="bpmousedown(209,evt);" onmouseover="bpmouseover(209,evt);" onmouseout="bpmouseout(209,evt);" transform="translate(232,384)" opacity="0"><ellipse cx="0" cy="0" rx="16" ry="16" fill="#0ff" style="stroke:none; opacity:0.75;" display="none"></ellipse><ellipse cx="0" cy="0" rx="3.6766638765488238" ry="3.6766638765488238" fill="#777" style="stroke:black;"></ellipse></g><g onmousedown="bpmousedown(214,evt);" onmouseover="bpmouseover(214,evt);" onmouseout="bpmouseout(214,evt);" transform="translate(509 274)" opacity="0"><ellipse cx="0" cy="0" rx="16" ry="16" fill="#0ff" style="stroke:none; opacity:0.75;" display="none"></ellipse><ellipse cx="0" cy="0" rx="3.6766638765488238" ry="3.6766638765488238" fill="#777" style="stroke:black;"></ellipse></g><g onmousedown="bpmousedown(215,evt);" onmouseover="bpmouseover(215,evt);" onmouseout="bpmouseout(215,evt);" transform="translate(509,314)" opacity="0"><ellipse cx="0" cy="0" rx="16" ry="16" fill="#0ff" style="stroke:none; opacity:0.75;" display="none"></ellipse><ellipse cx="0" cy="0" rx="3.6766638765488238" ry="3.6766638765488238" fill="#777" style="stroke:black;"></ellipse></g><g onmousedown="bpmousedown(222,evt);" onmouseover="bpmouseover(222,evt);" onmouseout="bpmouseout(222,evt);" transform="translate(252,314)" opacity="0"><ellipse cx="0" cy="0" rx="16" ry="16" fill="#0ff" style="stroke:none; opacity:0.75;" display="none"></ellipse><ellipse cx="0" cy="0" rx="3.6766638765488238" ry="3.6766638765488238" fill="#777" style="stroke:black;"></ellipse></g><g onmousedown="bpmousedown(223,evt);" onmouseover="bpmouseover(223,evt);" onmouseout="bpmouseout(223,evt);" transform="translate(252,274)" opacity="0"><ellipse cx="0" cy="0" rx="16" ry="16" fill="#0ff" style="stroke:none; opacity:0.75;" display="none"></ellipse><ellipse cx="0" cy="0" rx="3.6766638765488238" ry="3.6766638765488238" fill="#777" style="stroke:black;"></ellipse></g><g onmousedown="bpmousedown(231,evt);" onmouseover="bpmouseover(231,evt);" onmouseout="bpmouseout(231,evt);" transform="translate(865,310)" opacity="0"><ellipse cx="0" cy="0" rx="16" ry="16" fill="#0ff" style="stroke:none; opacity:0.75;" display="none"></ellipse><ellipse cx="0" cy="0" rx="3.6766638765488238" ry="3.6766638765488238" fill="#777" style="stroke:black;"></ellipse></g><g onmousedown="bpmousedown(232,evt);" onmouseover="bpmouseover(232,evt);" onmouseout="bpmouseout(232,evt);" transform="translate(722,310)" opacity="0"><ellipse cx="0" cy="0" rx="16" ry="16" fill="#0ff" style="stroke:none; opacity:0.75;" display="none"></ellipse><ellipse cx="0" cy="0" rx="3.6766638765488238" ry="3.6766638765488238" fill="#777" style="stroke:black;"></ellipse></g></g>
  <g id="ports"></g>
</g>
</svg>