<svg id="SVGCanvas" width="480px" height="270px" xmlns="http://www.w3.org/2000/svg" xmlns:xlink="http://www.w3.org/1999/xlink" onmouseup="null" onmousemove="null">
<rect id="background" x="0" y="0" height="100%" width="100%" fill="#bdbddf" onmousedown="bgmousedown(evt)"></rect>
<g id="foreground" transform="translate(0,41.62316476345839),scale(0.7830342577487766),translate(99,-77.5)">
  <g id="edges"><g id="169"><path style="stroke:#bdbddf; stroke-width:8px; fill:none;" opacity="0.7" d="M -54,194L 198,194"></path><g><path style="stroke:#ff0; stroke-width:8px; fill:none; " opacity="0" d="M -54,194L 198,194"></path></g><path style="stroke:black; fill:none;" d="M -54,194L 198,194"></path><g><g><path style="stroke:#0ff; stroke-width:8px; fill:none; " opacity="0" d="M -54,194 L 198,194" onmousedown="segmousedown(&quot;169&quot;,&quot;0&quot;,evt);" onmouseover="segmouseover(&quot;169&quot;,&quot;0&quot;,evt);" onmouseout="segmouseout(&quot;169&quot;,&quot;0&quot;,evt);" onclick="segclick(&quot;169&quot;,&quot;0&quot;,evt);"></path></g></g></g><g id="170"><path style="stroke:#bdbddf; stroke-width:8px; fill:none;" opacity="0.7" d="M 228,194L 449,194"></path><g><path style="stroke:#ff0; stroke-width:8px; fill:none; " opacity="0" d="M 228,194L 449,194"></path></g><path style="stroke:black; fill:none;" d="M 228,194L 449,194"></path><g><g><path style="stroke:#0ff; stroke-width:8px; fill:none; " opacity="0" d="M 228,194 L 449,194" onmousedown="segmousedown(&quot;170&quot;,&quot;0&quot;,evt);" onmouseover="segmouseover(&quot;170&quot;,&quot;0&quot;,evt);" onmouseout="segmouseout(&quot;170&quot;,&quot;0&quot;,evt);" onclick="segclick(&quot;170&quot;,&quot;0&quot;,evt);"></path></g></g></g><g id="171"><path style="stroke:#bdbddf; stroke-width:8px; fill:none;" opacity="0.7" d="M 474,179 V 128 a 12,12 0 0,0 -12,-12L 228,116"></path><g><path style="stroke:#ff0; stroke-width:8px; fill:none; " opacity="0" d="M 474,179 V 128 a 12,12 0 0,0 -12,-12L 228,116"></path></g><path style="stroke:black; fill:none;" d="M 474,179 V 128 a 12,12 0 0,0 -12,-12L 228,116"></path><g><g><path style="stroke:#0ff; stroke-width:8px; fill:none; " opacity="0" d="M 474,179 L 474,116" onmousedown="segmousedown(&quot;171&quot;,&quot;0&quot;,evt);" onmouseover="segmouseover(&quot;171&quot;,&quot;0&quot;,evt);" onmouseout="segmouseout(&quot;171&quot;,&quot;0&quot;,evt);" onclick="segclick(&quot;171&quot;,&quot;0&quot;,evt);"></path><path style="stroke:#0ff; stroke-width:8px; fill:none; " opacity="0" d="M 474,116 L 228,116" onmousedown="segmousedown(&quot;171&quot;,&quot;1&quot;,evt);" onmouseover="segmouseover(&quot;171&quot;,&quot;1&quot;,evt);" onmouseout="segmouseout(&quot;171&quot;,&quot;1&quot;,evt);" onclick="segclick(&quot;171&quot;,&quot;1&quot;,evt);"></path></g></g></g><g id="172"><path style="stroke:#bdbddf; stroke-width:8px; fill:none;" opacity="0.7" d="M 213,139.5L 213,179"></path><g><path style="stroke:#ff0; stroke-width:8px; fill:none; " opacity="0" d="M 213,139.5L 213,179"></path></g><path style="stroke:black; fill:none;" d="M 213,139.5L 213,179"></path><g><g><path style="stroke:#0ff; stroke-width:8px; fill:none; " opacity="0" d="M 213,139.5 L 213,179" onmousedown="segmousedown(&quot;172&quot;,&quot;0&quot;,evt);" onmouseover="segmouseover(&quot;172&quot;,&quot;0&quot;,evt);" onmouseout="segmouseout(&quot;172&quot;,&quot;0&quot;,evt);" onclick="segclick(&quot;172&quot;,&quot;0&quot;,evt);"></path></g></g></g><g id="173"><path style="stroke:#bdbddf; stroke-width:8px; fill:none;" opacity="0.7" d="M 474,209 V 279 a 12,12 0 0,1 -12,12 H -57 a 12,12 0 0,1 -12,-12L -69,209"></path><g><path style="stroke:#ff0; stroke-width:8px; fill:none; " opacity="0" d="M 474,209 V 279 a 12,12 0 0,1 -12,12 H -57 a 12,12 0 0,1 -12,-12L -69,209"></path></g><path style="stroke:black; fill:none;" d="M 474,209 V 279 a 12,12 0 0,1 -12,12 H -57 a 12,12 0 0,1 -12,-12L -69,209"></path><g><g><path style="stroke:#0ff; stroke-width:8px; fill:none; " opacity="0" d="M 474,209 L 474,291" onmousedown="segmousedown(&quot;173&quot;,&quot;0&quot;,evt);" onmouseover="segmouseover(&quot;173&quot;,&quot;0&quot;,evt);" onmouseout="segmouseout(&quot;173&quot;,&quot;0&quot;,evt);" onclick="segclick(&quot;173&quot;,&quot;0&quot;,evt);"></path><path style="stroke:#0ff; stroke-width:8px; fill:none; " opacity="0" d="M 474,291 L -69,291" onmousedown="segmousedown(&quot;173&quot;,&quot;1&quot;,evt);" onmouseover="segmouseover(&quot;173&quot;,&quot;1&quot;,evt);" onmouseout="segmouseout(&quot;173&quot;,&quot;1&quot;,evt);" onclick="segclick(&quot;173&quot;,&quot;1&quot;,evt);"></path><path style="stroke:#0ff; stroke-width:8px; fill:none; " opacity="0" d="M -69,291 L -69,209" onmousedown="segmousedown(&quot;173&quot;,&quot;2&quot;,evt);" onmouseover="segmouseover(&quot;173&quot;,&quot;2&quot;,evt);" onmouseout="segmouseout(&quot;173&quot;,&quot;2&quot;,evt);" onclick="segclick(&quot;173&quot;,&quot;2&quot;,evt);"></path></g></g></g><g id="174"><path style="stroke:#bdbddf; stroke-width:8px; fill:none;" opacity="0.7" d="M -69,179 V 128 a 12,12 0 0,1 12,-12L 198,116"></path><g><path style="stroke:#ff0; stroke-width:8px; fill:none; " opacity="0" d="M -69,179 V 128 a 12,12 0 0,1 12,-12L 198,116"></path></g><path style="stroke:black; fill:none;" d="M -69,179 V 128 a 12,12 0 0,1 12,-12L 198,116"></path><g><g><path style="stroke:#0ff; stroke-width:8px; fill:none; " opacity="0" d="M -69,179 L -69,116" onmousedown="segmousedown(&quot;174&quot;,&quot;0&quot;,evt);" onmouseover="segmouseover(&quot;174&quot;,&quot;0&quot;,evt);" onmouseout="segmouseout(&quot;174&quot;,&quot;0&quot;,evt);" onclick="segclick(&quot;174&quot;,&quot;0&quot;,evt);"></path><path style="stroke:#0ff; stroke-width:8px; fill:none; " opacity="0" d="M -69,116 L 198,116" onmousedown="segmousedown(&quot;174&quot;,&quot;1&quot;,evt);" onmouseover="segmouseover(&quot;174&quot;,&quot;1&quot;,evt);" onmouseout="segmouseout(&quot;174&quot;,&quot;1&quot;,evt);" onclick="segclick(&quot;174&quot;,&quot;1&quot;,evt);"></path></g></g></g></g>
  <g id="nodes"><g id="168" onmousedown="nodemousedown(168,evt);" onmouseover="nodemouseover(168,evt);" onmouseout="nodemouseout(168,evt);" transform="translate(-69,194)"><rect x="-21" y="-21" width="42" height="42" fill="#0ff" style="stroke:none; opacity:0.75;" display="none"></rect><rect x="-15" y="-15" width="30" height="30" fill="#f0f0d2" style="stroke:black; opacity:1;"></rect></g><g id="167" onmousedown="nodemousedown(167,evt);" onmouseover="nodemouseover(167,evt);" onmouseout="nodemouseout(167,evt);" transform="translate(213,194)"><rect x="-21" y="-21" width="42" height="42" fill="#0ff" style="stroke:none; opacity:0.75;" display="none"></rect><rect x="-15" y="-15" width="30" height="30" fill="#f0f0d2" style="stroke:black; opacity:1;"></rect></g><g id="166" onmousedown="nodemousedown(166,evt);" onmouseover="nodemouseover(166,evt);" onmouseout="nodemouseout(166,evt);" transform="translate(213,116)"><rect x="-21" y="-29.5" width="42" height="59" fill="#0ff" style="stroke:none; opacity:0.75;" display="none"></rect><rect x="-15" y="-23.5" width="30" height="47" fill="#f0f0d2" style="stroke:black; opacity:1;"></rect></g><g id="165" onmousedown="nodemousedown(165,evt);" onmouseover="nodemouseover(165,evt);" onmouseout="nodemouseout(165,evt);" transform="translate(474,194)"><rect x="-31" y="-21" width="62" height="42" fill="#0ff" style="stroke:none; opacity:0.75;" display="none"></rect><rect x="-25" y="-15" width="50" height="30" fill="#f0f0d2" style="stroke:black; opacity:1;"></rect></g></g>
  <g id="BPs"><g onmousedown="bpmousedown(185,evt);" onmouseover="bpmouseover(185,evt);" onmouseout="bpmouseout(185,evt);" transform="translate(474,116)" opacity="0"><ellipse cx="0" cy="0" rx="16" ry="16" fill="#0ff" style="stroke:none; opacity:0.75;" display="none"></ellipse><ellipse cx="0" cy="0" rx="1.5971003380339115" ry="1.5971003380339115" fill="#777" style="stroke:black;"></ellipse></g><g onmousedown="bpmousedown(194,evt);" onmouseover="bpmouseover(194,evt);" onmouseout="bpmouseout(194,evt);" transform="translate(474,291)" opacity="0"><ellipse cx="0" cy="0" rx="16" ry="16" fill="#0ff" style="stroke:none; opacity:0.75;" display="none"></ellipse><ellipse cx="0" cy="0" rx="1.5971003380339115" ry="1.5971003380339115" fill="#777" style="stroke:black;"></ellipse></g><g onmousedown="bpmousedown(195,evt);" onmouseover="bpmouseover(195,evt);" onmouseout="bpmouseout(195,evt);" transform="translate(-69,291)" opacity="0"><ellipse cx="0" cy="0" rx="16" ry="16" fill="#0ff" style="stroke:none; opacity:0.75;" display="none"></ellipse><ellipse cx="0" cy="0" rx="1.5971003380339115" ry="1.5971003380339115" fill="#777" style="stroke:black;"></ellipse></g><g onmousedown="bpmousedown(199,evt);" onmouseover="bpmouseover(199,evt);" onmouseout="bpmouseout(199,evt);" transform="translate(-69,116)" opacity="0"><ellipse cx="0" cy="0" rx="16" ry="16" fill="#0ff" style="stroke:none; opacity:0.75;" display="none"></ellipse><ellipse cx="0" cy="0" rx="2.423221228050216" ry="2.423221228050216" fill="#777" style="stroke:black;"></ellipse></g></g>
  <g id="ports"></g>
</g>
</svg>