<svg id="SVGCanvas" width="480px" height="270px" xmlns="http://www.w3.org/2000/svg" xmlns:xlink="http://www.w3.org/1999/xlink" onmouseup="null" onmousemove="null">
<rect id="background" x="0" y="0" height="100%" width="100%" fill="#bdbddf" onmousedown="bgmousedown(evt)"></rect>
<g id="foreground" transform="translate(42.01672862453535,0),scale(0.5018587360594795),translate(-50,-84)">
  <g id="edges">

<g id="305"><path style="stroke:#bdbddf; stroke-width:8px; fill:none;" opacity="0.7" d="M 95,569 H 315 a 12,12 0 0,0 12,-12 V 411 a 12,12 0 0,1 12,-12L 601,399"></path><g><path style="stroke:#ff0; stroke-width:8px; fill:none; " opacity="0" d="M 95,569 H 315 a 12,12 0 0,0 12,-12 V 411 a 12,12 0 0,1 12,-12L 601,399"></path></g>

<path style="stroke:none; fill:none;" d="M 95,569 H 315 a 12,12 0 0,0 12,-12 V 411 a 12,12 0 0,1 12,-12L 601,399"></path>

<g><g><path style="stroke:#0ff; stroke-width:8px; fill:none; " opacity="0" d="M 95,569 L 327,569" onmousedown="segmousedown(&quot;305&quot;,&quot;0&quot;,evt);" onmouseover="segmouseover(&quot;305&quot;,&quot;0&quot;,evt);" onmouseout="segmouseout(&quot;305&quot;,&quot;0&quot;,evt);" onclick="segclick(&quot;305&quot;,&quot;0&quot;,evt);"></path><path style="stroke:#0ff; stroke-width:8px; fill:none; " opacity="0" d="M 327,569 L 327,399" onmousedown="segmousedown(&quot;305&quot;,&quot;1&quot;,evt);" onmouseover="segmouseover(&quot;305&quot;,&quot;1&quot;,evt);" onmouseout="segmouseout(&quot;305&quot;,&quot;1&quot;,evt);" onclick="segclick(&quot;305&quot;,&quot;1&quot;,evt);"></path><path style="stroke:#0ff; stroke-width:8px; fill:none; " opacity="0" d="M 327,399 L 601,399" onmousedown="segmousedown(&quot;305&quot;,&quot;2&quot;,evt);" onmouseover="segmouseover(&quot;305&quot;,&quot;2&quot;,evt);" onmouseout="segmouseout(&quot;305&quot;,&quot;2&quot;,evt);" onclick="segclick(&quot;305&quot;,&quot;2&quot;,evt);"></path></g></g></g>

<g id="306"><path style="stroke:#bdbddf; stroke-width:8px; fill:none;" opacity="0.7" d="M 617,386L 617,238"></path><g><path style="stroke:#ff0; stroke-width:8px; fill:none; " opacity="0" d="M 617,386L 617,238"></path></g><path style="stroke:black; fill:none;" d="M 617,386L 617,238"></path><g><g><path style="stroke:#0ff; stroke-width:8px; fill:none; " opacity="0" d="M 617,386 L 617,238" onmousedown="segmousedown(&quot;306&quot;,&quot;0&quot;,evt);" onmouseover="segmouseover(&quot;306&quot;,&quot;0&quot;,evt);" onmouseout="segmouseout(&quot;306&quot;,&quot;0&quot;,evt);" onclick="segclick(&quot;306&quot;,&quot;0&quot;,evt);"></path></g></g></g><g id="307"><path style="stroke:#bdbddf; stroke-width:8px; fill:none;" opacity="0.7" d="M 602,223 H 486 a 12,12 0 0,1 -12,-12 V 126 a 12,12 0 0,0 -12,-12L 341,114"></path><g><path style="stroke:#ff0; stroke-width:8px; fill:none; " opacity="0" d="M 602,223 H 486 a 12,12 0 0,1 -12,-12 V 126 a 12,12 0 0,0 -12,-12L 341,114"></path></g><path style="stroke:black; fill:none;" d="M 602,223 H 486 a 12,12 0 0,1 -12,-12 V 126 a 12,12 0 0,0 -12,-12L 341,114"></path><g><g><path style="stroke:#0ff; stroke-width:8px; fill:none; " opacity="0" d="M 602,223 L 474,223" onmousedown="segmousedown(&quot;307&quot;,&quot;0&quot;,evt);" onmouseover="segmouseover(&quot;307&quot;,&quot;0&quot;,evt);" onmouseout="segmouseout(&quot;307&quot;,&quot;0&quot;,evt);" onclick="segclick(&quot;307&quot;,&quot;0&quot;,evt);"></path><path style="stroke:#0ff; stroke-width:8px; fill:none; " opacity="0" d="M 474,223 L 474,114" onmousedown="segmousedown(&quot;307&quot;,&quot;1&quot;,evt);" onmouseover="segmouseover(&quot;307&quot;,&quot;1&quot;,evt);" onmouseout="segmouseout(&quot;307&quot;,&quot;1&quot;,evt);" onclick="segclick(&quot;307&quot;,&quot;1&quot;,evt);"></path><path style="stroke:#0ff; stroke-width:8px; fill:none; " opacity="0" d="M 474,114 L 341,114" onmousedown="segmousedown(&quot;307&quot;,&quot;2&quot;,evt);" onmouseover="segmouseover(&quot;307&quot;,&quot;2&quot;,evt);" onmouseout="segmouseout(&quot;307&quot;,&quot;2&quot;,evt);" onclick="segclick(&quot;307&quot;,&quot;2&quot;,evt);"></path></g></g></g><g id="308"><path style="stroke:#bdbddf; stroke-width:8px; fill:none;" opacity="0.7" d="M 311,114 H 212 a 12,12 0 0,0 -12,12 V 205 a 12,12 0 0,1 -12,12L 95,217"></path><g><path style="stroke:#ff0; stroke-width:8px; fill:none; " opacity="0" d="M 311,114 H 212 a 12,12 0 0,0 -12,12 V 205 a 12,12 0 0,1 -12,12L 95,217"></path></g><path style="stroke:black; fill:none;" d="M 311,114 H 212 a 12,12 0 0,0 -12,12 V 205 a 12,12 0 0,1 -12,12L 95,217"></path><g><g><path style="stroke:#0ff; stroke-width:8px; fill:none; " opacity="0" d="M 311,114 L 200,114" onmousedown="segmousedown(&quot;308&quot;,&quot;0&quot;,evt);" onmouseover="segmouseover(&quot;308&quot;,&quot;0&quot;,evt);" onmouseout="segmouseout(&quot;308&quot;,&quot;0&quot;,evt);" onclick="segclick(&quot;308&quot;,&quot;0&quot;,evt);"></path><path style="stroke:#0ff; stroke-width:8px; fill:none; " opacity="0" d="M 200,114 L 200,217" onmousedown="segmousedown(&quot;308&quot;,&quot;1&quot;,evt);" onmouseover="segmouseover(&quot;308&quot;,&quot;1&quot;,evt);" onmouseout="segmouseout(&quot;308&quot;,&quot;1&quot;,evt);" onclick="segclick(&quot;308&quot;,&quot;1&quot;,evt);"></path><path style="stroke:#0ff; stroke-width:8px; fill:none; " opacity="0" d="M 200,217 L 95,217" onmousedown="segmousedown(&quot;308&quot;,&quot;2&quot;,evt);" onmouseover="segmouseover(&quot;308&quot;,&quot;2&quot;,evt);" onmouseout="segmouseout(&quot;308&quot;,&quot;2&quot;,evt);" onclick="segclick(&quot;308&quot;,&quot;2&quot;,evt);"></path></g></g></g><g id="309"><path style="stroke:#bdbddf; stroke-width:8px; fill:none;" opacity="0.7" d="M 80,232L 80,383"></path><g><path style="stroke:#ff0; stroke-width:8px; fill:none; " opacity="0" d="M 80,232L 80,383"></path></g><path style="stroke:black; fill:none;" d="M 80,232L 80,383"></path><g><g><path style="stroke:#0ff; stroke-width:8px; fill:none; " opacity="0" d="M 80,232 L 80,383" onmousedown="segmousedown(&quot;309&quot;,&quot;0&quot;,evt);" onmouseover="segmouseover(&quot;309&quot;,&quot;0&quot;,evt);" onmouseout="segmouseout(&quot;309&quot;,&quot;0&quot;,evt);" onclick="segclick(&quot;309&quot;,&quot;0&quot;,evt);"></path></g></g></g><g id="310"><path style="stroke:#bdbddf; stroke-width:8px; fill:none;" opacity="0.7" d="M 95,404 H 87.5 a 7.5,7.5 0 0,0 -7.5,7.5L 80,560"></path><g><path style="stroke:#ff0; stroke-width:8px; fill:none; " opacity="0" d="M 95,404 H 87.5 a 7.5,7.5 0 0,0 -7.5,7.5L 80,560"></path></g><path style="stroke:black; fill:none;" d="M 95,404 H 87.5 a 7.5,7.5 0 0,0 -7.5,7.5L 80,560"></path><g><g><path style="stroke:#0ff; stroke-width:8px; fill:none; " opacity="0" d="M 95,404 L 80,404" onmousedown="segmousedown(&quot;310&quot;,&quot;0&quot;,evt);" onmouseover="segmouseover(&quot;310&quot;,&quot;0&quot;,evt);" onmouseout="segmouseout(&quot;310&quot;,&quot;0&quot;,evt);" onclick="segclick(&quot;310&quot;,&quot;0&quot;,evt);"></path><path style="stroke:#0ff; stroke-width:8px; fill:none; " opacity="0" d="M 80,404 L 80,560" onmousedown="segmousedown(&quot;310&quot;,&quot;1&quot;,evt);" onmouseover="segmouseover(&quot;310&quot;,&quot;1&quot;,evt);" onmouseout="segmouseout(&quot;310&quot;,&quot;1&quot;,evt);" onclick="segclick(&quot;310&quot;,&quot;1&quot;,evt);"></path></g></g></g><g id="311"><path style="stroke:#bdbddf; stroke-width:8px; fill:none;" opacity="0.7" d="M 95,398L 312,398"></path><g><path style="stroke:#ff0; stroke-width:8px; fill:none; " opacity="0" d="M 95,398L 312,398"></path></g><path style="stroke:black; fill:none;" d="M 95,398L 312,398"></path><g><g><path style="stroke:#0ff; stroke-width:8px; fill:none; " opacity="0" d="M 95,398 L 312,398" onmousedown="segmousedown(&quot;311&quot;,&quot;0&quot;,evt);" onmouseover="segmouseover(&quot;311&quot;,&quot;0&quot;,evt);" onmouseout="segmouseout(&quot;311&quot;,&quot;0&quot;,evt);" onclick="segclick(&quot;311&quot;,&quot;0&quot;,evt);"></path></g></g></g>

<g id="312"><path style="stroke:#bdbddf; stroke-width:8px; fill:none;" opacity="0.7" d="M 617,481 V 410 a 12,12 0 0,1 12,-12 H 755 a 12,12 0 0,1 12,12L 767,484"></path><g><path style="stroke:#ff0; stroke-width:8px; fill:none; " opacity="0" d="M 617,481 V 410 a 12,12 0 0,1 12,-12 H 755 a 12,12 0 0,1 12,12L 767,484"></path></g>

<path style="stroke:none; fill:none;" d="M 617,481 V 410 a 12,12 0 0,1 12,-12 H 755 a 12,12 0 0,1 12,12L 767,484"></path>

<g><g><path style="stroke:#0ff; stroke-width:8px; fill:none; " opacity="0" d="M 617,481 L 617,398" onmousedown="segmousedown(&quot;312&quot;,&quot;0&quot;,evt);" onmouseover="segmouseover(&quot;312&quot;,&quot;0&quot;,evt);" onmouseout="segmouseout(&quot;312&quot;,&quot;0&quot;,evt);" onclick="segclick(&quot;312&quot;,&quot;0&quot;,evt);"></path><path style="stroke:#0ff; stroke-width:8px; fill:none; " opacity="0" d="M 617,398 L 767,398" onmousedown="segmousedown(&quot;312&quot;,&quot;1&quot;,evt);" onmouseover="segmouseover(&quot;312&quot;,&quot;1&quot;,evt);" onmouseout="segmouseout(&quot;312&quot;,&quot;1&quot;,evt);" onclick="segclick(&quot;312&quot;,&quot;1&quot;,evt);"></path><path style="stroke:#0ff; stroke-width:8px; fill:none; " opacity="0" d="M 767,398 L 767,484" onmousedown="segmousedown(&quot;312&quot;,&quot;2&quot;,evt);" onmouseover="segmouseover(&quot;312&quot;,&quot;2&quot;,evt);" onmouseout="segmouseout(&quot;312&quot;,&quot;2&quot;,evt);" onclick="segclick(&quot;312&quot;,&quot;2&quot;,evt);"></path></g></g></g>

<g id="313"><path style="stroke:#bdbddf; stroke-width:8px; fill:none;" opacity="0.7" d="M 767,514 V 528 a 12,12 0 0,1 -12,12 H 742 a 12,12 0 0,0 -12,12L 730,577"></path><g><path style="stroke:#ff0; stroke-width:8px; fill:none; " opacity="0" d="M 767,514 V 528 a 12,12 0 0,1 -12,12 H 742 a 12,12 0 0,0 -12,12L 730,577"></path></g><path style="stroke:black; fill:none;" d="M 767,514 V 528 a 12,12 0 0,1 -12,12 H 742 a 12,12 0 0,0 -12,12L 730,577"></path><g><g><path style="stroke:#0ff; stroke-width:8px; fill:none; " opacity="0" d="M 767,514 L 767,540" onmousedown="segmousedown(&quot;313&quot;,&quot;0&quot;,evt);" onmouseover="segmouseover(&quot;313&quot;,&quot;0&quot;,evt);" onmouseout="segmouseout(&quot;313&quot;,&quot;0&quot;,evt);" onclick="segclick(&quot;313&quot;,&quot;0&quot;,evt);"></path><path style="stroke:#0ff; stroke-width:8px; fill:none; " opacity="0" d="M 767,540 L 730,540" onmousedown="segmousedown(&quot;313&quot;,&quot;1&quot;,evt);" onmouseover="segmouseover(&quot;313&quot;,&quot;1&quot;,evt);" onmouseout="segmouseout(&quot;313&quot;,&quot;1&quot;,evt);" onclick="segclick(&quot;313&quot;,&quot;1&quot;,evt);"></path><path style="stroke:#0ff; stroke-width:8px; fill:none; " opacity="0" d="M 730,540 L 730,577" onmousedown="segmousedown(&quot;313&quot;,&quot;2&quot;,evt);" onmouseover="segmouseover(&quot;313&quot;,&quot;2&quot;,evt);" onmouseout="segmouseout(&quot;313&quot;,&quot;2&quot;,evt);" onclick="segclick(&quot;313&quot;,&quot;2&quot;,evt);"></path></g></g></g><g id="314"><path style="stroke:#bdbddf; stroke-width:8px; fill:none;" opacity="0.7" d="M 632,496 H 628 a 4,4 0 0,0 -4,4L 624,576"></path><g><path style="stroke:#ff0; stroke-width:8px; fill:none; " opacity="0" d="M 632,496 H 628 a 4,4 0 0,0 -4,4L 624,576"></path></g><path style="stroke:black; fill:none;" d="M 632,496 H 628 a 4,4 0 0,0 -4,4L 624,576"></path><g><g><path style="stroke:#0ff; stroke-width:8px; fill:none; " opacity="0" d="M 632,496 L 624,496" onmousedown="segmousedown(&quot;314&quot;,&quot;0&quot;,evt);" onmouseover="segmouseover(&quot;314&quot;,&quot;0&quot;,evt);" onmouseout="segmouseout(&quot;314&quot;,&quot;0&quot;,evt);" onclick="segclick(&quot;314&quot;,&quot;0&quot;,evt);"></path><path style="stroke:#0ff; stroke-width:8px; fill:none; " opacity="0" d="M 624,496 L 624,576" onmousedown="segmousedown(&quot;314&quot;,&quot;1&quot;,evt);" onmouseover="segmouseover(&quot;314&quot;,&quot;1&quot;,evt);" onmouseout="segmouseout(&quot;314&quot;,&quot;1&quot;,evt);" onclick="segclick(&quot;314&quot;,&quot;1&quot;,evt);"></path></g></g></g><g id="315"><path style="stroke:#bdbddf; stroke-width:8px; fill:none;" opacity="0.7" d="M 601,407 H 501 a 12,12 0 0,0 -12,12 V 532 a 12,12 0 0,0 12,12 H 599 a 12,12 0 0,0 12,-12L 611,511"></path><g><path style="stroke:#ff0; stroke-width:8px; fill:none; " opacity="0" d="M 601,407 H 501 a 12,12 0 0,0 -12,12 V 532 a 12,12 0 0,0 12,12 H 599 a 12,12 0 0,0 12,-12L 611,511"></path></g><path style="stroke:black; fill:none;" d="M 601,407 H 501 a 12,12 0 0,0 -12,12 V 532 a 12,12 0 0,0 12,12 H 599 a 12,12 0 0,0 12,-12L 611,511"></path><g><g><path style="stroke:#0ff; stroke-width:8px; fill:none; " opacity="0" d="M 601,407 L 489,407" onmousedown="segmousedown(&quot;315&quot;,&quot;0&quot;,evt);" onmouseover="segmouseover(&quot;315&quot;,&quot;0&quot;,evt);" onmouseout="segmouseout(&quot;315&quot;,&quot;0&quot;,evt);" onclick="segclick(&quot;315&quot;,&quot;0&quot;,evt);"></path><path style="stroke:#0ff; stroke-width:8px; fill:none; " opacity="0" d="M 489,407 L 489,544" onmousedown="segmousedown(&quot;315&quot;,&quot;1&quot;,evt);" onmouseover="segmouseover(&quot;315&quot;,&quot;1&quot;,evt);" onmouseout="segmouseout(&quot;315&quot;,&quot;1&quot;,evt);" onclick="segclick(&quot;315&quot;,&quot;1&quot;,evt);"></path><path style="stroke:#0ff; stroke-width:8px; fill:none; " opacity="0" d="M 489,544 L 611,544" onmousedown="segmousedown(&quot;315&quot;,&quot;2&quot;,evt);" onmouseover="segmouseover(&quot;315&quot;,&quot;2&quot;,evt);" onmouseout="segmouseout(&quot;315&quot;,&quot;2&quot;,evt);" onclick="segclick(&quot;315&quot;,&quot;2&quot;,evt);"></path><path style="stroke:#0ff; stroke-width:8px; fill:none; " opacity="0" d="M 611,544 L 611,511" onmousedown="segmousedown(&quot;315&quot;,&quot;3&quot;,evt);" onmouseover="segmouseover(&quot;315&quot;,&quot;3&quot;,evt);" onmouseout="segmouseout(&quot;315&quot;,&quot;3&quot;,evt);" onclick="segclick(&quot;315&quot;,&quot;3&quot;,evt);"></path></g></g></g><g id="316"><path style="stroke:#bdbddf; stroke-width:8px; fill:none;" opacity="0.7" d="M 327,383L 327,129"></path><g><path style="stroke:#ff0; stroke-width:8px; fill:none; " opacity="0" d="M 327,383L 327,129"></path></g><path style="stroke:black; fill:none;" d="M 327,383L 327,129"></path><g><g><path style="stroke:#0ff; stroke-width:8px; fill:none; " opacity="0" d="M 327,383 L 327,129" onmousedown="segmousedown(&quot;316&quot;,&quot;0&quot;,evt);" onmouseover="segmouseover(&quot;316&quot;,&quot;0&quot;,evt);" onmouseout="segmouseout(&quot;316&quot;,&quot;0&quot;,evt);" onclick="segclick(&quot;316&quot;,&quot;0&quot;,evt);"></path></g></g></g><g id="317"><path style="stroke:#bdbddf; stroke-width:8px; fill:none;" opacity="0.7" d="M 767,514 V 528 a 12,12 0 0,0 12,12 H 794 a 12,12 0 0,1 12,12L 806,577"></path><g><path style="stroke:#ff0; stroke-width:8px; fill:none; " opacity="0" d="M 767,514 V 528 a 12,12 0 0,0 12,12 H 794 a 12,12 0 0,1 12,12L 806,577"></path></g><path style="stroke:black; fill:none;" d="M 767,514 V 528 a 12,12 0 0,0 12,12 H 794 a 12,12 0 0,1 12,12L 806,577"></path><g><g><path style="stroke:#0ff; stroke-width:8px; fill:none; " opacity="0" d="M 767,514 L 767,540" onmousedown="segmousedown(&quot;317&quot;,&quot;0&quot;,evt);" onmouseover="segmouseover(&quot;317&quot;,&quot;0&quot;,evt);" onmouseout="segmouseout(&quot;317&quot;,&quot;0&quot;,evt);" onclick="segclick(&quot;317&quot;,&quot;0&quot;,evt);"></path><path style="stroke:#0ff; stroke-width:8px; fill:none; " opacity="0" d="M 767,540 L 806,540" onmousedown="segmousedown(&quot;317&quot;,&quot;1&quot;,evt);" onmouseover="segmouseover(&quot;317&quot;,&quot;1&quot;,evt);" onmouseout="segmouseout(&quot;317&quot;,&quot;1&quot;,evt);" onclick="segclick(&quot;317&quot;,&quot;1&quot;,evt);"></path><path style="stroke:#0ff; stroke-width:8px; fill:none; " opacity="0" d="M 806,540 L 806,577" onmousedown="segmousedown(&quot;317&quot;,&quot;2&quot;,evt);" onmouseover="segmouseover(&quot;317&quot;,&quot;2&quot;,evt);" onmouseout="segmouseout(&quot;317&quot;,&quot;2&quot;,evt);" onclick="segclick(&quot;317&quot;,&quot;2&quot;,evt);"></path></g></g></g></g>
  <g id="nodes"><g id="297" onmousedown="nodemousedown(297,evt);" onmouseover="nodemouseover(297,evt);" onmouseout="nodemouseout(297,evt);" transform="translate(80,398)"><rect x="-21" y="-21" width="42" height="42" fill="#0ff" style="stroke:none; opacity:0.75;" display="none"></rect><rect x="-15" y="-15" width="30" height="30" fill="#f0f0d2" style="stroke:black; opacity:1;"></rect></g><g id="295" onmousedown="nodemousedown(295,evt);" onmouseover="nodemouseover(295,evt);" onmouseout="nodemouseout(295,evt);" transform="translate(80,217)"><rect x="-21" y="-21" width="42" height="42" fill="#0ff" style="stroke:none; opacity:0.75;" display="none"></rect><rect x="-15" y="-15" width="30" height="30" fill="#f0f0d2" style="stroke:black; opacity:1;"></rect></g><g id="299" onmousedown="nodemousedown(299,evt);" onmouseover="nodemouseover(299,evt);" onmouseout="nodemouseout(299,evt);" transform="translate(326,114)"><rect x="-21" y="-21" width="42" height="42" fill="#0ff" style="stroke:none; opacity:0.75;" display="none"></rect><rect x="-15" y="-15" width="30" height="30" fill="#f0f0d2" style="stroke:black; opacity:1;"></rect></g><g id="293" onmousedown="nodemousedown(293,evt);" onmouseover="nodemouseover(293,evt);" onmouseout="nodemouseout(293,evt);" transform="translate(80,575)"><rect x="-21" y="-21" width="42" height="42" fill="#0ff" style="stroke:none; opacity:0.75;" display="none"></rect><rect x="-15" y="-15" width="30" height="30" fill="#f0f0d2" style="stroke:black; opacity:1;"></rect></g><g id="298" onmousedown="nodemousedown(298,evt);" onmouseover="nodemouseover(298,evt);" onmouseout="nodemouseout(298,evt);" transform="translate(327,398)"><rect x="-21" y="-21" width="42" height="42" fill="#0ff" style="stroke:none; opacity:0.75;" display="none"></rect><rect x="-15" y="-15" width="30" height="30" fill="#f0f0d2" style="stroke:black; opacity:1;"></rect></g><g id="300" onmousedown="nodemousedown(300,evt);" onmouseover="nodemouseover(300,evt);" onmouseout="nodemouseout(300,evt);" transform="translate(617,496)"><rect x="-21" y="-21" width="42" height="42" fill="#0ff" style="stroke:none; opacity:0.75;" display="none"></rect><rect x="-15" y="-15" width="30" height="30" fill="#f0f0d2" style="stroke:black; opacity:1;"></rect></g><g id="302" onmousedown="nodemousedown(302,evt);" onmouseover="nodemouseover(302,evt);" onmouseout="nodemouseout(302,evt);" transform="translate(767,499)"><rect x="-21" y="-21" width="42" height="42" fill="#0ff" style="stroke:none; opacity:0.75;" display="none"></rect><rect x="-15" y="-15" width="30" height="30" fill="#f0f0d2" style="stroke:black; opacity:1;"></rect></g><g id="301" onmousedown="nodemousedown(301,evt);" onmouseover="nodemouseover(301,evt);" onmouseout="nodemouseout(301,evt);" transform="translate(624,591)"><rect x="-21" y="-21" width="42" height="42" fill="#0ff" style="stroke:none; opacity:0.75;" display="none"></rect><rect x="-15" y="-15" width="30" height="30" fill="#f0f0d2" style="stroke:black; opacity:1;"></rect></g><g id="303" onmousedown="nodemousedown(303,evt);" onmouseover="nodemouseover(303,evt);" onmouseout="nodemouseout(303,evt);" transform="translate(730,592)"><rect x="-21" y="-21" width="42" height="42" fill="#0ff" style="stroke:none; opacity:0.75;" display="none"></rect><rect x="-15" y="-15" width="30" height="30" fill="#f0f0d2" style="stroke:black; opacity:1;"></rect></g><g id="304" onmousedown="nodemousedown(304,evt);" onmouseover="nodemouseover(304,evt);" onmouseout="nodemouseout(304,evt);" transform="translate(809,592)"><rect x="-21" y="-21" width="42" height="42" fill="#0ff" style="stroke:none; opacity:0.75;" display="none"></rect><rect x="-15" y="-15" width="30" height="30" fill="#f0f0d2" style="stroke:black; opacity:1;"></rect></g><g id="294" onmousedown="nodemousedown(294,evt);" onmouseover="nodemouseover(294,evt);" onmouseout="nodemouseout(294,evt);" transform="translate(616,401)"><rect x="-21" y="-21" width="42" height="42" fill="#0ff" style="stroke:none; opacity:0.75;" display="none"></rect><rect x="-15" y="-15" width="30" height="30" fill="#f0f0d2" style="stroke:black; opacity:1;"></rect></g><g id="296" onmousedown="nodemousedown(296,evt);" onmouseover="nodemouseover(296,evt);" onmouseout="nodemouseout(296,evt);" transform="translate(617,223)"><rect x="-21" y="-21" width="42" height="42" fill="#0ff" style="stroke:none; opacity:0.75;" display="none"></rect><rect x="-15" y="-15" width="30" height="30" fill="#f0f0d2" style="stroke:black; opacity:1;"></rect></g></g>
  <g id="BPs"><g onmousedown="bpmousedown(326,evt);" onmouseover="bpmouseover(326,evt);" onmouseout="bpmouseout(326,evt);" transform="translate(474,223)" opacity="0"><ellipse cx="0" cy="0" rx="16" ry="16" fill="#0ff" style="stroke:none; opacity:0.75;" display="none"></ellipse><ellipse cx="0" cy="0" rx="3.6766638765488238" ry="3.6766638765488238" fill="#777" style="stroke:black;"></ellipse></g><g onmousedown="bpmousedown(327,evt);" onmouseover="bpmouseover(327,evt);" onmouseout="bpmouseout(327,evt);" transform="translate(474,114)" opacity="0"><ellipse cx="0" cy="0" rx="16" ry="16" fill="#0ff" style="stroke:none; opacity:0.75;" display="none"></ellipse><ellipse cx="0" cy="0" rx="3.6766638765488238" ry="3.6766638765488238" fill="#777" style="stroke:black;"></ellipse></g><g onmousedown="bpmousedown(330,evt);" onmouseover="bpmouseover(330,evt);" onmouseout="bpmouseout(330,evt);" transform="translate(200,114)" opacity="0"><ellipse cx="0" cy="0" rx="16" ry="16" fill="#0ff" style="stroke:none; opacity:0.75;" display="none"></ellipse><ellipse cx="0" cy="0" rx="3.6766638765488238" ry="3.6766638765488238" fill="#777" style="stroke:black;"></ellipse></g><g onmousedown="bpmousedown(331,evt);" onmouseover="bpmouseover(331,evt);" onmouseout="bpmouseout(331,evt);" transform="translate(200,217)" opacity="0"><ellipse cx="0" cy="0" rx="16" ry="16" fill="#0ff" style="stroke:none; opacity:0.75;" display="none"></ellipse><ellipse cx="0" cy="0" rx="3.6766638765488238" ry="3.6766638765488238" fill="#777" style="stroke:black;"></ellipse></g><g onmousedown="bpmousedown(339,evt);" onmouseover="bpmouseover(339,evt);" onmouseout="bpmouseout(339,evt);" transform="translate(80,404)" opacity="0"><ellipse cx="0" cy="0" rx="16" ry="16" fill="#0ff" style="stroke:none; opacity:0.75;" display="none"></ellipse><ellipse cx="0" cy="0" rx="3.6766638765488238" ry="3.6766638765488238" fill="#777" style="stroke:black;"></ellipse></g><g onmousedown="bpmousedown(344,evt);" onmouseover="bpmouseover(344,evt);" onmouseout="bpmouseout(344,evt);" transform="translate(617,398)" opacity="0"><ellipse cx="0" cy="0" rx="16" ry="16" fill="#0ff" style="stroke:none; opacity:0.75;" display="none"></ellipse><ellipse cx="0" cy="0" rx="3.6766638765488238" ry="3.6766638765488238" fill="#777" style="stroke:black;"></ellipse></g><g onmousedown="bpmousedown(345,evt);" onmouseover="bpmouseover(345,evt);" onmouseout="bpmouseout(345,evt);" transform="translate(767,398)" opacity="0"><ellipse cx="0" cy="0" rx="16" ry="16" fill="#0ff" style="stroke:none; opacity:0.75;" display="none"></ellipse><ellipse cx="0" cy="0" rx="3.6766638765488238" ry="3.6766638765488238" fill="#777" style="stroke:black;"></ellipse></g><g onmousedown="bpmousedown(356,evt);" onmouseover="bpmouseover(356,evt);" onmouseout="bpmouseout(356,evt);" transform="translate(489,407)" opacity="0"><ellipse cx="0" cy="0" rx="16" ry="16" fill="#0ff" style="stroke:none; opacity:0.75;" display="none"></ellipse><ellipse cx="0" cy="0" rx="3.6766638765488238" ry="3.6766638765488238" fill="#777" style="stroke:black;"></ellipse></g><g onmousedown="bpmousedown(357,evt);" onmouseover="bpmouseover(357,evt);" onmouseout="bpmouseout(357,evt);" transform="translate(489,544)" opacity="0"><ellipse cx="0" cy="0" rx="16" ry="16" fill="#0ff" style="stroke:none; opacity:0.75;" display="none"></ellipse><ellipse cx="0" cy="0" rx="3.6766638765488238" ry="3.6766638765488238" fill="#777" style="stroke:black;"></ellipse></g><g onmousedown="bpmousedown(362,evt);" onmouseover="bpmouseover(362,evt);" onmouseout="bpmouseout(362,evt);" transform="translate(327,569)" opacity="0"><ellipse cx="0" cy="0" rx="16" ry="16" fill="#0ff" style="stroke:none; opacity:0.75;" display="none"></ellipse><ellipse cx="0" cy="0" rx="3.6766638765488238" ry="3.6766638765488238" fill="#777" style="stroke:black;"></ellipse></g><g onmousedown="bpmousedown(363,evt);" onmouseover="bpmouseover(363,evt);" onmouseout="bpmouseout(363,evt);" transform="translate(327,399)" opacity="0"><ellipse cx="0" cy="0" rx="16" ry="16" fill="#0ff" style="stroke:none; opacity:0.75;" display="none"></ellipse><ellipse cx="0" cy="0" rx="3.6766638765488238" ry="3.6766638765488238" fill="#777" style="stroke:black;"></ellipse></g><g onmousedown="bpmousedown(380,evt);" onmouseover="bpmouseover(380,evt);" onmouseout="bpmouseout(380,evt);" transform="translate(730,540)" opacity="0"><ellipse cx="0" cy="0" rx="16" ry="16" fill="#0ff" style="stroke:none; opacity:0.75;" display="none"></ellipse><ellipse cx="0" cy="0" rx="3.6766638765488238" ry="3.6766638765488238" fill="#777" style="stroke:black;"></ellipse></g><g onmousedown="bpmousedown(381,evt);" onmouseover="bpmouseover(381,evt);" onmouseout="bpmouseout(381,evt);" transform="translate(806,540)" opacity="0"><ellipse cx="0" cy="0" rx="16" ry="16" fill="#0ff" style="stroke:none; opacity:0.75;" display="none"></ellipse><ellipse cx="0" cy="0" rx="3.6766638765488238" ry="3.6766638765488238" fill="#777" style="stroke:black;"></ellipse></g><g onmousedown="bpmousedown(383,evt);" onmouseover="bpmouseover(383,evt);" onmouseout="bpmouseout(383,evt);" transform="translate(767,540)" opacity="0"><ellipse cx="0" cy="0" rx="16" ry="16" fill="#0ff" style="stroke:none; opacity:0.75;" display="none"></ellipse><ellipse cx="0" cy="0" rx="3.6766638765488238" ry="3.6766638765488238" fill="#777" style="stroke:black;"></ellipse></g><g onmousedown="bpmousedown(384,evt);" onmouseover="bpmouseover(384,evt);" onmouseout="bpmouseout(384,evt);" transform="translate(767,540)" opacity="0"><ellipse cx="0" cy="0" rx="16" ry="16" fill="#0ff" style="stroke:none; opacity:0.75;" display="none"></ellipse><ellipse cx="0" cy="0" rx="3.6766638765488238" ry="3.6766638765488238" fill="#777" style="stroke:black;"></ellipse></g><g onmousedown="bpmousedown(387,evt);" onmouseover="bpmouseover(387,evt);" onmouseout="bpmouseout(387,evt);" transform="translate(611,544)" opacity="0"><ellipse cx="0" cy="0" rx="16" ry="16" fill="#0ff" style="stroke:none; opacity:0.75;" display="none"></ellipse><ellipse cx="0" cy="0" rx="3.6766638765488238" ry="3.6766638765488238" fill="#777" style="stroke:black;"></ellipse></g><g onmousedown="bpmousedown(401,evt);" onmouseover="bpmouseover(401,evt);" onmouseout="bpmouseout(401,evt);" transform="translate(624,496)" opacity="0"><ellipse cx="0" cy="0" rx="16" ry="16" fill="#0ff" style="stroke:none; opacity:0.75;" display="none"></ellipse><ellipse cx="0" cy="0" rx="3.6766638765488238" ry="3.6766638765488238" fill="#777" style="stroke:black;"></ellipse></g></g>
  <g id="ports"></g>
  <path style="stroke:black; fill:none;" d="M 95,569 H 315 a 12,12 0 0,0 12,-12 V 411 a 12,12 0 0,1 12,-12L 601,399"></path>
  <path style="stroke:black; fill:none;" d="M 617,481 V 410 a 12,12 0 0,1 12,-12 H 755 a 12,12 0 0,1 12,12L 767,484"></path>
</g>
</svg>
