<svg id="SVGCanvas" width="480px" height="270px" xmlns="http://www.w3.org/2000/svg" xmlns:xlink="http://www.w3.org/1999/xlink" onmouseup="null" onmousemove="null">
<rect id="background" x="0" y="0" height="100%" width="100%" fill="#bdbddf" onmousedown="bgmousedown(evt)"></rect>
<g id="foreground" transform="translate(62.88461538461539,0),scale(0.5769230769230769),translate(216,95)">
  <g id="edges"><g id="241"><path style="stroke:#bdbddf; stroke-width:8px; fill:none;" opacity="0.7" d="M -186,267 V 305 a 12,12 0 0,0 12,12L -135,317"></path><g><path style="stroke:#ff0; stroke-width:8px; fill:none; " opacity="0" d="M -186,267 V 305 a 12,12 0 0,0 12,12L -135,317"></path></g><path style="stroke:black; fill:none;" d="M -186,267 V 305 a 12,12 0 0,0 12,12L -135,317"></path><g><g><path style="stroke:#0ff; stroke-width:8px; fill:none; " opacity="0" d="M -186,267 L -186,317" onmousedown="segmousedown(&quot;241&quot;,&quot;0&quot;,evt);" onmouseover="segmouseover(&quot;241&quot;,&quot;0&quot;,evt);" onmouseout="segmouseout(&quot;241&quot;,&quot;0&quot;,evt);" onclick="segclick(&quot;241&quot;,&quot;0&quot;,evt);"></path><path style="stroke:#0ff; stroke-width:8px; fill:none; " opacity="0" d="M -186,317 L -135,317" onmousedown="segmousedown(&quot;241&quot;,&quot;1&quot;,evt);" onmouseover="segmouseover(&quot;241&quot;,&quot;1&quot;,evt);" onmouseout="segmouseout(&quot;241&quot;,&quot;1&quot;,evt);" onclick="segclick(&quot;241&quot;,&quot;1&quot;,evt);"></path></g></g></g><g id="242"><path style="stroke:#bdbddf; stroke-width:8px; fill:none;" opacity="0.7" d="M -105,317 H -65 a 12,12 0 0,0 12,-12L -53,266"></path><g><path style="stroke:#ff0; stroke-width:8px; fill:none; " opacity="0" d="M -105,317 H -65 a 12,12 0 0,0 12,-12L -53,266"></path></g><path style="stroke:black; fill:none;" d="M -105,317 H -65 a 12,12 0 0,0 12,-12L -53,266"></path><g><g><path style="stroke:#0ff; stroke-width:8px; fill:none; " opacity="0" d="M -105,317 L -53,317" onmousedown="segmousedown(&quot;242&quot;,&quot;0&quot;,evt);" onmouseover="segmouseover(&quot;242&quot;,&quot;0&quot;,evt);" onmouseout="segmouseout(&quot;242&quot;,&quot;0&quot;,evt);" onclick="segclick(&quot;242&quot;,&quot;0&quot;,evt);"></path><path style="stroke:#0ff; stroke-width:8px; fill:none; " opacity="0" d="M -53,317 L -53,266" onmousedown="segmousedown(&quot;242&quot;,&quot;1&quot;,evt);" onmouseover="segmouseover(&quot;242&quot;,&quot;1&quot;,evt);" onmouseout="segmouseout(&quot;242&quot;,&quot;1&quot;,evt);" onclick="segclick(&quot;242&quot;,&quot;1&quot;,evt);"></path></g></g></g><g id="243"><path style="stroke:#bdbddf; stroke-width:8px; fill:none;" opacity="0.7" d="M -53,236 V 197 a 12,12 0 0,0 -12,-12 H -103 a 12,12 0 0,1 -12,-12L -115,147"></path><g><path style="stroke:#ff0; stroke-width:8px; fill:none; " opacity="0" d="M -53,236 V 197 a 12,12 0 0,0 -12,-12 H -103 a 12,12 0 0,1 -12,-12L -115,147"></path></g><path style="stroke:black; fill:none;" d="M -53,236 V 197 a 12,12 0 0,0 -12,-12 H -103 a 12,12 0 0,1 -12,-12L -115,147"></path><g><g><path style="stroke:#0ff; stroke-width:8px; fill:none; " opacity="0" d="M -53,236 L -53,185" onmousedown="segmousedown(&quot;243&quot;,&quot;0&quot;,evt);" onmouseover="segmouseover(&quot;243&quot;,&quot;0&quot;,evt);" onmouseout="segmouseout(&quot;243&quot;,&quot;0&quot;,evt);" onclick="segclick(&quot;243&quot;,&quot;0&quot;,evt);"></path><path style="stroke:#0ff; stroke-width:8px; fill:none; " opacity="0" d="M -53,185 L -115,185" onmousedown="segmousedown(&quot;243&quot;,&quot;1&quot;,evt);" onmouseover="segmouseover(&quot;243&quot;,&quot;1&quot;,evt);" onmouseout="segmouseout(&quot;243&quot;,&quot;1&quot;,evt);" onclick="segclick(&quot;243&quot;,&quot;1&quot;,evt);"></path><path style="stroke:#0ff; stroke-width:8px; fill:none; " opacity="0" d="M -115,185 L -115,147" onmousedown="segmousedown(&quot;243&quot;,&quot;2&quot;,evt);" onmouseover="segmouseover(&quot;243&quot;,&quot;2&quot;,evt);" onmouseout="segmouseout(&quot;243&quot;,&quot;2&quot;,evt);" onclick="segclick(&quot;243&quot;,&quot;2&quot;,evt);"></path></g></g></g><g id="244"><path style="stroke:#bdbddf; stroke-width:8px; fill:none;" opacity="0.7" d="M -129,147 V 172 a 12,12 0 0,1 -12,12 H -174 a 12,12 0 0,0 -12,12L -186,237"></path><g><path style="stroke:#ff0; stroke-width:8px; fill:none; " opacity="0" d="M -129,147 V 172 a 12,12 0 0,1 -12,12 H -174 a 12,12 0 0,0 -12,12L -186,237"></path></g><path style="stroke:black; fill:none;" d="M -129,147 V 172 a 12,12 0 0,1 -12,12 H -174 a 12,12 0 0,0 -12,12L -186,237"></path><g><g><path style="stroke:#0ff; stroke-width:8px; fill:none; " opacity="0" d="M -129,147 L -129,184" onmousedown="segmousedown(&quot;244&quot;,&quot;0&quot;,evt);" onmouseover="segmouseover(&quot;244&quot;,&quot;0&quot;,evt);" onmouseout="segmouseout(&quot;244&quot;,&quot;0&quot;,evt);" onclick="segclick(&quot;244&quot;,&quot;0&quot;,evt);"></path><path style="stroke:#0ff; stroke-width:8px; fill:none; " opacity="0" d="M -129,184 L -186,184" onmousedown="segmousedown(&quot;244&quot;,&quot;1&quot;,evt);" onmouseover="segmouseover(&quot;244&quot;,&quot;1&quot;,evt);" onmouseout="segmouseout(&quot;244&quot;,&quot;1&quot;,evt);" onclick="segclick(&quot;244&quot;,&quot;1&quot;,evt);"></path><path style="stroke:#0ff; stroke-width:8px; fill:none; " opacity="0" d="M -186,184 L -186,237" onmousedown="segmousedown(&quot;244&quot;,&quot;2&quot;,evt);" onmouseover="segmouseover(&quot;244&quot;,&quot;2&quot;,evt);" onmouseout="segmouseout(&quot;244&quot;,&quot;2&quot;,evt);" onclick="segclick(&quot;244&quot;,&quot;2&quot;,evt);"></path></g></g></g><g id="245"><path style="stroke:#bdbddf; stroke-width:8px; fill:none;" opacity="0.7" d="M -120,332 V 340 a 8,8 0 0,0 8,8 H 64 a 12,12 0 0,0 12,-12L 76,269"></path><g><path style="stroke:#ff0; stroke-width:8px; fill:none; " opacity="0" d="M -120,332 V 340 a 8,8 0 0,0 8,8 H 64 a 12,12 0 0,0 12,-12L 76,269"></path></g><path style="stroke:black; fill:none;" d="M -120,332 V 340 a 8,8 0 0,0 8,8 H 64 a 12,12 0 0,0 12,-12L 76,269"></path><g><g><path style="stroke:#0ff; stroke-width:8px; fill:none; " opacity="0" d="M -120,332 L -120,348" onmousedown="segmousedown(&quot;245&quot;,&quot;0&quot;,evt);" onmouseover="segmouseover(&quot;245&quot;,&quot;0&quot;,evt);" onmouseout="segmouseout(&quot;245&quot;,&quot;0&quot;,evt);" onclick="segclick(&quot;245&quot;,&quot;0&quot;,evt);"></path><path style="stroke:#0ff; stroke-width:8px; fill:none; " opacity="0" d="M -120,348 L 76,348" onmousedown="segmousedown(&quot;245&quot;,&quot;1&quot;,evt);" onmouseover="segmouseover(&quot;245&quot;,&quot;1&quot;,evt);" onmouseout="segmouseout(&quot;245&quot;,&quot;1&quot;,evt);" onclick="segclick(&quot;245&quot;,&quot;1&quot;,evt);"></path><path style="stroke:#0ff; stroke-width:8px; fill:none; " opacity="0" d="M 76,348 L 76,269" onmousedown="segmousedown(&quot;245&quot;,&quot;2&quot;,evt);" onmouseover="segmouseover(&quot;245&quot;,&quot;2&quot;,evt);" onmouseout="segmouseout(&quot;245&quot;,&quot;2&quot;,evt);" onclick="segclick(&quot;245&quot;,&quot;2&quot;,evt);"></path></g></g></g><g id="246"><path style="stroke:#bdbddf; stroke-width:8px; fill:none;" opacity="0.7" d="M 91,254L 200,254"></path><g><path style="stroke:#ff0; stroke-width:8px; fill:none; " opacity="0" d="M 91,254L 200,254"></path></g><path style="stroke:black; fill:none;" d="M 91,254L 200,254"></path><g><g><path style="stroke:#0ff; stroke-width:8px; fill:none; " opacity="0" d="M 91,254 L 200,254" onmousedown="segmousedown(&quot;246&quot;,&quot;0&quot;,evt);" onmouseover="segmouseover(&quot;246&quot;,&quot;0&quot;,evt);" onmouseout="segmouseout(&quot;246&quot;,&quot;0&quot;,evt);" onclick="segclick(&quot;246&quot;,&quot;0&quot;,evt);"></path></g></g></g><g id="247"><path style="stroke:#bdbddf; stroke-width:8px; fill:none;" opacity="0.7" d="M 230,254L 353,254"></path><g><path style="stroke:#ff0; stroke-width:8px; fill:none; " opacity="0" d="M 230,254L 353,254"></path></g><path style="stroke:black; fill:none;" d="M 230,254L 353,254"></path><g><g><path style="stroke:#0ff; stroke-width:8px; fill:none; " opacity="0" d="M 230,254 L 353,254" onmousedown="segmousedown(&quot;247&quot;,&quot;0&quot;,evt);" onmouseover="segmouseover(&quot;247&quot;,&quot;0&quot;,evt);" onmouseout="segmouseout(&quot;247&quot;,&quot;0&quot;,evt);" onclick="segclick(&quot;247&quot;,&quot;0&quot;,evt);"></path></g></g></g><g id="248"><path style="stroke:#bdbddf; stroke-width:8px; fill:none;" opacity="0.7" d="M 368,272L 368,320"></path><g><path style="stroke:#ff0; stroke-width:8px; fill:none; " opacity="0" d="M 368,272L 368,320"></path></g><path style="stroke:black; fill:none;" d="M 368,272L 368,320"></path><g><g><path style="stroke:#0ff; stroke-width:8px; fill:none; " opacity="0" d="M 368,272 L 368,320" onmousedown="segmousedown(&quot;248&quot;,&quot;0&quot;,evt);" onmouseover="segmouseover(&quot;248&quot;,&quot;0&quot;,evt);" onmouseout="segmouseout(&quot;248&quot;,&quot;0&quot;,evt);" onclick="segclick(&quot;248&quot;,&quot;0&quot;,evt);"></path></g></g></g><g id="249"><path style="stroke:#bdbddf; stroke-width:8px; fill:none;" opacity="0.7" d="M -122,117 V 71 a 12,12 0 0,1 12,-12L 67,59"></path><g><path style="stroke:#ff0; stroke-width:8px; fill:none; " opacity="0" d="M -122,117 V 71 a 12,12 0 0,1 12,-12L 67,59"></path></g><path style="stroke:black; fill:none;" d="M -122,117 V 71 a 12,12 0 0,1 12,-12L 67,59"></path><g><g><path style="stroke:#0ff; stroke-width:8px; fill:none; " opacity="0" d="M -122,117 L -122,59" onmousedown="segmousedown(&quot;249&quot;,&quot;0&quot;,evt);" onmouseover="segmouseover(&quot;249&quot;,&quot;0&quot;,evt);" onmouseout="segmouseout(&quot;249&quot;,&quot;0&quot;,evt);" onclick="segclick(&quot;249&quot;,&quot;0&quot;,evt);"></path><path style="stroke:#0ff; stroke-width:8px; fill:none; " opacity="0" d="M -122,59 L 67,59" onmousedown="segmousedown(&quot;249&quot;,&quot;1&quot;,evt);" onmouseover="segmouseover(&quot;249&quot;,&quot;1&quot;,evt);" onmouseout="segmouseout(&quot;249&quot;,&quot;1&quot;,evt);" onclick="segclick(&quot;249&quot;,&quot;1&quot;,evt);"></path></g></g></g><g id="250"><path style="stroke:#bdbddf; stroke-width:8px; fill:none;" opacity="0.7" d="M 82,44L 82,13"></path><g><path style="stroke:#ff0; stroke-width:8px; fill:none; " opacity="0" d="M 82,44L 82,13"></path></g><path style="stroke:black; fill:none;" d="M 82,44L 82,13"></path><g><g><path style="stroke:#0ff; stroke-width:8px; fill:none; " opacity="0" d="M 82,44 L 82,13" onmousedown="segmousedown(&quot;250&quot;,&quot;0&quot;,evt);" onmouseover="segmouseover(&quot;250&quot;,&quot;0&quot;,evt);" onmouseout="segmouseout(&quot;250&quot;,&quot;0&quot;,evt);" onclick="segclick(&quot;250&quot;,&quot;0&quot;,evt);"></path></g></g></g><g id="251"><path style="stroke:#bdbddf; stroke-width:8px; fill:none;" opacity="0.7" d="M 82,-17L 82,-50"></path><g><path style="stroke:#ff0; stroke-width:8px; fill:none; " opacity="0" d="M 82,-17L 82,-50"></path></g><path style="stroke:black; fill:none;" d="M 82,-17L 82,-50"></path><g><g><path style="stroke:#0ff; stroke-width:8px; fill:none; " opacity="0" d="M 82,-17 L 82,-50" onmousedown="segmousedown(&quot;251&quot;,&quot;0&quot;,evt);" onmouseover="segmouseover(&quot;251&quot;,&quot;0&quot;,evt);" onmouseout="segmouseout(&quot;251&quot;,&quot;0&quot;,evt);" onclick="segclick(&quot;251&quot;,&quot;0&quot;,evt);"></path></g></g></g><g id="252"><path style="stroke:#bdbddf; stroke-width:8px; fill:none;" opacity="0.7" d="M 97,59 H 204 a 12,12 0 0,1 12,12L 216,116"></path><g><path style="stroke:#ff0; stroke-width:8px; fill:none; " opacity="0" d="M 97,59 H 204 a 12,12 0 0,1 12,12L 216,116"></path></g><path style="stroke:black; fill:none;" d="M 97,59 H 204 a 12,12 0 0,1 12,12L 216,116"></path><g><g><path style="stroke:#0ff; stroke-width:8px; fill:none; " opacity="0" d="M 97,59 L 216,59" onmousedown="segmousedown(&quot;252&quot;,&quot;0&quot;,evt);" onmouseover="segmouseover(&quot;252&quot;,&quot;0&quot;,evt);" onmouseout="segmouseout(&quot;252&quot;,&quot;0&quot;,evt);" onclick="segclick(&quot;252&quot;,&quot;0&quot;,evt);"></path><path style="stroke:#0ff; stroke-width:8px; fill:none; " opacity="0" d="M 216,59 L 216,116" onmousedown="segmousedown(&quot;252&quot;,&quot;1&quot;,evt);" onmouseover="segmouseover(&quot;252&quot;,&quot;1&quot;,evt);" onmouseout="segmouseout(&quot;252&quot;,&quot;1&quot;,evt);" onclick="segclick(&quot;252&quot;,&quot;1&quot;,evt);"></path></g></g></g></g>
  <g id="nodes"><g id="229" onmousedown="nodemousedown(229,evt);" onmouseover="nodemouseover(229,evt);" onmouseout="nodemouseout(229,evt);" transform="translate(-122,132)"><rect x="-21" y="-21" width="42" height="42" fill="#0ff" style="stroke:none; opacity:0.75;" display="none"></rect><rect x="-15" y="-15" width="30" height="30" fill="#f0f0d2" style="stroke:black; opacity:1;"></rect></g><g id="230" onmousedown="nodemousedown(230,evt);" onmouseover="nodemouseover(230,evt);" onmouseout="nodemouseout(230,evt);" transform="translate(-186,252)"><rect x="-21" y="-21" width="42" height="42" fill="#0ff" style="stroke:none; opacity:0.75;" display="none"></rect><rect x="-15" y="-15" width="30" height="30" fill="#f0f0d2" style="stroke:black; opacity:1;"></rect></g><g id="232" onmousedown="nodemousedown(232,evt);" onmouseover="nodemouseover(232,evt);" onmouseout="nodemouseout(232,evt);" transform="translate(-53,251)"><rect x="-21" y="-21" width="42" height="42" fill="#0ff" style="stroke:none; opacity:0.75;" display="none"></rect><rect x="-15" y="-15" width="30" height="30" fill="#f0f0d2" style="stroke:black; opacity:1;"></rect></g><g id="231" onmousedown="nodemousedown(231,evt);" onmouseover="nodemouseover(231,evt);" onmouseout="nodemouseout(231,evt);" transform="translate(-120,317)"><rect x="-21" y="-21" width="42" height="42" fill="#0ff" style="stroke:none; opacity:0.75;" display="none"></rect><rect x="-15" y="-15" width="30" height="30" fill="#f0f0d2" style="stroke:black; opacity:1;"></rect></g><g id="233" onmousedown="nodemousedown(233,evt);" onmouseover="nodemouseover(233,evt);" onmouseout="nodemouseout(233,evt);" transform="translate(76,254)"><rect x="-21" y="-21" width="42" height="42" fill="#0ff" style="stroke:none; opacity:0.75;" display="none"></rect><rect x="-15" y="-15" width="30" height="30" fill="#f0f0d2" style="stroke:black; opacity:1;"></rect></g><g id="234" onmousedown="nodemousedown(234,evt);" onmouseover="nodemouseover(234,evt);" onmouseout="nodemouseout(234,evt);" transform="translate(215,254)"><rect x="-21" y="-21" width="42" height="42" fill="#0ff" style="stroke:none; opacity:0.75;" display="none"></rect><rect x="-15" y="-15" width="30" height="30" fill="#f0f0d2" style="stroke:black; opacity:1;"></rect></g><g id="237" onmousedown="nodemousedown(237,evt);" onmouseover="nodemouseover(237,evt);" onmouseout="nodemouseout(237,evt);" transform="translate(82,59)"><rect x="-21" y="-21" width="42" height="42" fill="#0ff" style="stroke:none; opacity:0.75;" display="none"></rect><rect x="-15" y="-15" width="30" height="30" fill="#f0f0d2" style="stroke:black; opacity:1;"></rect></g><g id="240" onmousedown="nodemousedown(240,evt);" onmouseover="nodemouseover(240,evt);" onmouseout="nodemouseout(240,evt);" transform="translate(82,-65)"><rect x="-21" y="-21" width="42" height="42" fill="#0ff" style="stroke:none; opacity:0.75;" display="none"></rect><rect x="-15" y="-15" width="30" height="30" fill="#f0f0d2" style="stroke:black; opacity:1;"></rect></g><g id="238" onmousedown="nodemousedown(238,evt);" onmouseover="nodemouseover(238,evt);" onmouseout="nodemouseout(238,evt);" transform="translate(216,131)"><rect x="-21" y="-21" width="42" height="42" fill="#0ff" style="stroke:none; opacity:0.75;" display="none"></rect><rect x="-15" y="-15" width="30" height="30" fill="#f0f0d2" style="stroke:black; opacity:1;"></rect></g><g id="239" onmousedown="nodemousedown(239,evt);" onmouseover="nodemouseover(239,evt);" onmouseout="nodemouseout(239,evt);" transform="translate(82,-2)"><rect x="-21" y="-21" width="42" height="42" fill="#0ff" style="stroke:none; opacity:0.75;" display="none"></rect><rect x="-15" y="-15" width="30" height="30" fill="#f0f0d2" style="stroke:black; opacity:1;"></rect></g><g id="235" onmousedown="nodemousedown(235,evt);" onmouseover="nodemouseover(235,evt);" onmouseout="nodemouseout(235,evt);" transform="translate(368,257)"><rect x="-21" y="-21" width="42" height="42" fill="#0ff" style="stroke:none; opacity:0.75;" display="none"></rect><rect x="-15" y="-15" width="30" height="30" fill="#f0f0d2" style="stroke:black; opacity:1;"></rect></g><g id="236" onmousedown="nodemousedown(236,evt);" onmouseover="nodemouseover(236,evt);" onmouseout="nodemouseout(236,evt);" transform="translate(367,335)"><rect x="-21" y="-21" width="42" height="42" fill="#0ff" style="stroke:none; opacity:0.75;" display="none"></rect><rect x="-15" y="-15" width="30" height="30" fill="#f0f0d2" style="stroke:black; opacity:1;"></rect></g></g>
  <g id="BPs"><g onmousedown="bpmousedown(268,evt);" onmouseover="bpmouseover(268,evt);" onmouseout="bpmouseout(268,evt);" transform="translate(76,348)" opacity="0"><ellipse cx="0" cy="0" rx="16" ry="16" fill="#0ff" style="stroke:none; opacity:0.75;" display="none"></ellipse><ellipse cx="0" cy="0" rx="2.862974040702052" ry="2.862974040702052" fill="#777" style="stroke:black;"></ellipse></g><g onmousedown="bpmousedown(281,evt);" onmouseover="bpmouseover(281,evt);" onmouseout="bpmouseout(281,evt);" transform="translate(-122,59)" opacity="0"><ellipse cx="0" cy="0" rx="16" ry="16" fill="#0ff" style="stroke:none; opacity:0.75;" display="none"></ellipse><ellipse cx="0" cy="0" rx="2.862974040702052" ry="2.862974040702052" fill="#777" style="stroke:black;"></ellipse></g><g onmousedown="bpmousedown(298,evt);" onmouseover="bpmouseover(298,evt);" onmouseout="bpmouseout(298,evt);" transform="translate(-186,184)" opacity="0"><ellipse cx="0" cy="0" rx="16" ry="16" fill="#0ff" style="stroke:none; opacity:0.75;" display="none"></ellipse><ellipse cx="0" cy="0" rx="2.423221228050217" ry="2.423221228050217" fill="#777" style="stroke:black;"></ellipse></g><g onmousedown="bpmousedown(302,evt);" onmouseover="bpmouseover(302,evt);" onmouseout="bpmouseout(302,evt);" transform="translate(216,59)" opacity="0"><ellipse cx="0" cy="0" rx="16" ry="16" fill="#0ff" style="stroke:none; opacity:0.75;" display="none"></ellipse><ellipse cx="0" cy="0" rx="2.862974040702052" ry="2.862974040702052" fill="#777" style="stroke:black;"></ellipse></g><g onmousedown="bpmousedown(307,evt);" onmouseover="bpmouseover(307,evt);" onmouseout="bpmouseout(307,evt);" transform="translate(-129,184)" opacity="0"><ellipse cx="0" cy="0" rx="16" ry="16" fill="#0ff" style="stroke:none; opacity:0.75;" display="none"></ellipse><ellipse cx="0" cy="0" rx="2.423221228050217" ry="2.423221228050217" fill="#777" style="stroke:black;"></ellipse></g><g onmousedown="bpmousedown(309,evt);" onmouseover="bpmouseover(309,evt);" onmouseout="bpmouseout(309,evt);" transform="translate(-115,185)" opacity="0"><ellipse cx="0" cy="0" rx="16" ry="16" fill="#0ff" style="stroke:none; opacity:0.75;" display="none"></ellipse><ellipse cx="0" cy="0" rx="2.423221228050217" ry="2.423221228050217" fill="#777" style="stroke:black;"></ellipse></g><g onmousedown="bpmousedown(315,evt);" onmouseover="bpmouseover(315,evt);" onmouseout="bpmouseout(315,evt);" transform="translate(-53,317)" opacity="0"><ellipse cx="0" cy="0" rx="16" ry="16" fill="#0ff" style="stroke:none; opacity:0.75;" display="none"></ellipse><ellipse cx="0" cy="0" rx="2.862974040702052" ry="2.862974040702052" fill="#777" style="stroke:black;"></ellipse></g><g onmousedown="bpmousedown(317,evt);" onmouseover="bpmouseover(317,evt);" onmouseout="bpmouseout(317,evt);" transform="translate(-186,317)" opacity="0"><ellipse cx="0" cy="0" rx="16" ry="16" fill="#0ff" style="stroke:none; opacity:0.75;" display="none"></ellipse><ellipse cx="0" cy="0" rx="2.862974040702052" ry="2.862974040702052" fill="#777" style="stroke:black;"></ellipse></g><g onmousedown="bpmousedown(320,evt);" onmouseover="bpmouseover(320,evt);" onmouseout="bpmouseout(320,evt);" transform="translate(-53,185)" opacity="0"><ellipse cx="0" cy="0" rx="16" ry="16" fill="#0ff" style="stroke:none; opacity:0.75;" display="none"></ellipse><ellipse cx="0" cy="0" rx="2.423221228050217" ry="2.423221228050217" fill="#777" style="stroke:black;"></ellipse></g><g onmousedown="bpmousedown(323,evt);" onmouseover="bpmouseover(323,evt);" onmouseout="bpmouseout(323,evt);" transform="translate(-120,348)" opacity="0"><ellipse cx="0" cy="0" rx="16" ry="16" fill="#0ff" style="stroke:none; opacity:0.75;" display="none"></ellipse><ellipse cx="0" cy="0" rx="2.862974040702052" ry="2.862974040702052" fill="#777" style="stroke:black;"></ellipse></g></g>
  <g id="ports"></g>
</g>
</svg>