<svg id="SVGCanvas" width="480px" height="270px" xmlns="http://www.w3.org/2000/svg" xmlns:xlink="http://www.w3.org/1999/xlink" onmouseup="null" onmousemove="null">
<rect id="background" x="0" y="0" height="100%" width="100%" fill="#bdbddf" onmousedown="bgmousedown(evt)"></rect>
<g id="foreground" transform="translate(0,13.787878787878782),scale(0.6060606060606061),translate(-50,-23)">
  <g id="edges"><g id="201"><path style="stroke:#bdbddf; stroke-width:8px; fill:none;" opacity="0.7" d="M 203,68 V 84 a 12,12 0 0,0 12,12 H 682 a 12,12 0 0,1 12,12L 694,166"></path><g><path style="stroke:#ff0; stroke-width:8px; fill:none; " opacity="0" d="M 203,68 V 84 a 12,12 0 0,0 12,12 H 682 a 12,12 0 0,1 12,12L 694,166"></path></g><path style="stroke:black; fill:none;" d="M 203,68 V 84 a 12,12 0 0,0 12,12 H 682 a 12,12 0 0,1 12,12L 694,166"></path><g><g><path style="stroke:#0ff; stroke-width:8px; fill:none; " opacity="0" d="M 203,68 L 203,96" onmousedown="segmousedown(&quot;201&quot;,&quot;0&quot;,evt);" onmouseover="segmouseover(&quot;201&quot;,&quot;0&quot;,evt);" onmouseout="segmouseout(&quot;201&quot;,&quot;0&quot;,evt);" onclick="segclick(&quot;201&quot;,&quot;0&quot;,evt);"></path><path style="stroke:#0ff; stroke-width:8px; fill:none; " opacity="0" d="M 203,96 L 694,96" onmousedown="segmousedown(&quot;201&quot;,&quot;1&quot;,evt);" onmouseover="segmouseover(&quot;201&quot;,&quot;1&quot;,evt);" onmouseout="segmouseout(&quot;201&quot;,&quot;1&quot;,evt);" onclick="segclick(&quot;201&quot;,&quot;1&quot;,evt);"></path><path style="stroke:#0ff; stroke-width:8px; fill:none; " opacity="0" d="M 694,96 L 694,166" onmousedown="segmousedown(&quot;201&quot;,&quot;2&quot;,evt);" onmouseover="segmouseover(&quot;201&quot;,&quot;2&quot;,evt);" onmouseout="segmouseout(&quot;201&quot;,&quot;2&quot;,evt);" onclick="segclick(&quot;201&quot;,&quot;2&quot;,evt);"></path></g></g></g><g id="202"><path style="stroke:#bdbddf; stroke-width:8px; fill:none;" opacity="0.7" d="M 203,68 V 82 a 12,12 0 0,1 -12,12 H 92 a 12,12 0 0,0 -12,12L 80,201"></path><g><path style="stroke:#ff0; stroke-width:8px; fill:none; " opacity="0" d="M 203,68 V 82 a 12,12 0 0,1 -12,12 H 92 a 12,12 0 0,0 -12,12L 80,201"></path></g><path style="stroke:black; fill:none;" d="M 203,68 V 82 a 12,12 0 0,1 -12,12 H 92 a 12,12 0 0,0 -12,12L 80,201"></path><g><g><path style="stroke:#0ff; stroke-width:8px; fill:none; " opacity="0" d="M 203,68 L 203,94" onmousedown="segmousedown(&quot;202&quot;,&quot;0&quot;,evt);" onmouseover="segmouseover(&quot;202&quot;,&quot;0&quot;,evt);" onmouseout="segmouseout(&quot;202&quot;,&quot;0&quot;,evt);" onclick="segclick(&quot;202&quot;,&quot;0&quot;,evt);"></path><path style="stroke:#0ff; stroke-width:8px; fill:none; " opacity="0" d="M 203,94 L 80,94" onmousedown="segmousedown(&quot;202&quot;,&quot;1&quot;,evt);" onmouseover="segmouseover(&quot;202&quot;,&quot;1&quot;,evt);" onmouseout="segmouseout(&quot;202&quot;,&quot;1&quot;,evt);" onclick="segclick(&quot;202&quot;,&quot;1&quot;,evt);"></path><path style="stroke:#0ff; stroke-width:8px; fill:none; " opacity="0" d="M 80,94 L 80,201" onmousedown="segmousedown(&quot;202&quot;,&quot;2&quot;,evt);" onmouseover="segmouseover(&quot;202&quot;,&quot;2&quot;,evt);" onmouseout="segmouseout(&quot;202&quot;,&quot;2&quot;,evt);" onclick="segclick(&quot;202&quot;,&quot;2&quot;,evt);"></path></g></g></g><g id="203"><path style="stroke:#bdbddf; stroke-width:8px; fill:none;" opacity="0.7" d="M 701,181 H 800 a 12,12 0 0,1 12,12L 812,359"></path><g><path style="stroke:#ff0; stroke-width:8px; fill:none; " opacity="0" d="M 701,181 H 800 a 12,12 0 0,1 12,12L 812,359"></path></g><path style="stroke:black; fill:none;" d="M 701,181 H 800 a 12,12 0 0,1 12,12L 812,359"></path><g><g><path style="stroke:#0ff; stroke-width:8px; fill:none; " opacity="0" d="M 701,181 L 812,181" onmousedown="segmousedown(&quot;203&quot;,&quot;0&quot;,evt);" onmouseover="segmouseover(&quot;203&quot;,&quot;0&quot;,evt);" onmouseout="segmouseout(&quot;203&quot;,&quot;0&quot;,evt);" onclick="segclick(&quot;203&quot;,&quot;0&quot;,evt);"></path><path style="stroke:#0ff; stroke-width:8px; fill:none; " opacity="0" d="M 812,181 L 812,359" onmousedown="segmousedown(&quot;203&quot;,&quot;1&quot;,evt);" onmouseover="segmouseover(&quot;203&quot;,&quot;1&quot;,evt);" onmouseout="segmouseout(&quot;203&quot;,&quot;1&quot;,evt);" onclick="segclick(&quot;203&quot;,&quot;1&quot;,evt);"></path></g></g></g><g id="204"><path style="stroke:#bdbddf; stroke-width:8px; fill:none;" opacity="0.7" d="M 701,181 H 507 a 12,12 0 0,0 -12,12L 495,216"></path><g><path style="stroke:#ff0; stroke-width:8px; fill:none; " opacity="0" d="M 701,181 H 507 a 12,12 0 0,0 -12,12L 495,216"></path></g><path style="stroke:black; fill:none;" d="M 701,181 H 507 a 12,12 0 0,0 -12,12L 495,216"></path><g><g><path style="stroke:#0ff; stroke-width:8px; fill:none; " opacity="0" d="M 701,181 L 495,181" onmousedown="segmousedown(&quot;204&quot;,&quot;0&quot;,evt);" onmouseover="segmouseover(&quot;204&quot;,&quot;0&quot;,evt);" onmouseout="segmouseout(&quot;204&quot;,&quot;0&quot;,evt);" onclick="segclick(&quot;204&quot;,&quot;0&quot;,evt);"></path><path style="stroke:#0ff; stroke-width:8px; fill:none; " opacity="0" d="M 495,181 L 495,216" onmousedown="segmousedown(&quot;204&quot;,&quot;1&quot;,evt);" onmouseover="segmouseover(&quot;204&quot;,&quot;1&quot;,evt);" onmouseout="segmouseout(&quot;204&quot;,&quot;1&quot;,evt);" onclick="segclick(&quot;204&quot;,&quot;1&quot;,evt);"></path></g></g></g><g id="205"><path style="stroke:#bdbddf; stroke-width:8px; fill:none;" opacity="0.7" d="M 80,231 V 291 a 12,12 0 0,0 12,12L 292,303"></path><g><path style="stroke:#ff0; stroke-width:8px; fill:none; " opacity="0" d="M 80,231 V 291 a 12,12 0 0,0 12,12L 292,303"></path></g><path style="stroke:black; fill:none;" d="M 80,231 V 291 a 12,12 0 0,0 12,12L 292,303"></path><g><g><path style="stroke:#0ff; stroke-width:8px; fill:none; " opacity="0" d="M 80,231 L 80,303" onmousedown="segmousedown(&quot;205&quot;,&quot;0&quot;,evt);" onmouseover="segmouseover(&quot;205&quot;,&quot;0&quot;,evt);" onmouseout="segmouseout(&quot;205&quot;,&quot;0&quot;,evt);" onclick="segclick(&quot;205&quot;,&quot;0&quot;,evt);"></path><path style="stroke:#0ff; stroke-width:8px; fill:none; " opacity="0" d="M 80,303 L 292,303" onmousedown="segmousedown(&quot;205&quot;,&quot;1&quot;,evt);" onmouseover="segmouseover(&quot;205&quot;,&quot;1&quot;,evt);" onmouseout="segmouseout(&quot;205&quot;,&quot;1&quot;,evt);" onclick="segclick(&quot;205&quot;,&quot;1&quot;,evt);"></path></g></g></g><g id="206"><path style="stroke:#bdbddf; stroke-width:8px; fill:none;" opacity="0.7" d="M 80,231L 80,378"></path><g><path style="stroke:#ff0; stroke-width:8px; fill:none; " opacity="0" d="M 80,231L 80,378"></path></g><path style="stroke:black; fill:none;" d="M 80,231L 80,378"></path><g><g><path style="stroke:#0ff; stroke-width:8px; fill:none; " opacity="0" d="M 80,231 L 80,378" onmousedown="segmousedown(&quot;206&quot;,&quot;0&quot;,evt);" onmouseover="segmouseover(&quot;206&quot;,&quot;0&quot;,evt);" onmouseout="segmouseout(&quot;206&quot;,&quot;0&quot;,evt);" onclick="segclick(&quot;206&quot;,&quot;0&quot;,evt);"></path></g></g></g></g>
  <g id="nodes"><g id="195" onmousedown="nodemousedown(195,evt);" onmouseover="nodemouseover(195,evt);" onmouseout="nodemouseout(195,evt);" transform="translate(701 181)"><rect x="-21" y="-21" width="42" height="42" fill="#0ff" style="stroke:none; opacity:0.75;" display="none"></rect><rect x="-15" y="-15" width="30" height="30" fill="#f0f0d2" style="stroke:black; opacity:1;"></rect></g><g id="194" onmousedown="nodemousedown(194,evt);" onmouseover="nodemouseover(194,evt);" onmouseout="nodemouseout(194,evt);" transform="translate(203,53)"><rect x="-21" y="-21" width="42" height="42" fill="#0ff" style="stroke:none; opacity:0.75;" display="none"></rect><rect x="-15" y="-15" width="30" height="30" fill="#f0f0d2" style="stroke:black; opacity:1;"></rect></g><g id="196" onmousedown="nodemousedown(196,evt);" onmouseover="nodemouseover(196,evt);" onmouseout="nodemouseout(196,evt);" transform="translate(80,216)"><rect x="-21" y="-21" width="42" height="42" fill="#0ff" style="stroke:none; opacity:0.75;" display="none"></rect><rect x="-15" y="-15" width="30" height="30" fill="#f0f0d2" style="stroke:black; opacity:1;"></rect></g><g id="200" onmousedown="nodemousedown(200,evt);" onmouseover="nodemouseover(200,evt);" onmouseout="nodemouseout(200,evt);" transform="translate(92,393)"><rect x="-21" y="-21" width="42" height="42" fill="#0ff" style="stroke:none; opacity:0.75;" display="none"></rect><rect x="-15" y="-15" width="30" height="30" fill="#f0f0d2" style="stroke:black; opacity:1;"></rect></g><g id="198" onmousedown="nodemousedown(198,evt);" onmouseover="nodemouseover(198,evt);" onmouseout="nodemouseout(198,evt);" transform="translate(495,231)"><rect x="-21" y="-21" width="42" height="42" fill="#0ff" style="stroke:none; opacity:0.75;" display="none"></rect><rect x="-15" y="-15" width="30" height="30" fill="#f0f0d2" style="stroke:black; opacity:1;"></rect></g><g id="199" onmousedown="nodemousedown(199,evt);" onmouseover="nodemouseover(199,evt);" onmouseout="nodemouseout(199,evt);" transform="translate(307,299)"><rect x="-21" y="-21" width="42" height="42" fill="#0ff" style="stroke:none; opacity:0.75;" display="none"></rect><rect x="-15" y="-15" width="30" height="30" fill="#f0f0d2" style="stroke:black; opacity:1;"></rect></g><g id="197" onmousedown="nodemousedown(197,evt);" onmouseover="nodemouseover(197,evt);" onmouseout="nodemouseout(197,evt);" transform="translate(812,374)"><rect x="-21" y="-21" width="42" height="42" fill="#0ff" style="stroke:none; opacity:0.75;" display="none"></rect><rect x="-15" y="-15" width="30" height="30" fill="#f0f0d2" style="stroke:black; opacity:1;"></rect></g></g>
  <g id="BPs"><g onmousedown="bpmousedown(209,evt);" onmouseover="bpmouseover(209,evt);" onmouseout="bpmouseout(209,evt);" transform="translate(694,96)" opacity="0"><ellipse cx="0" cy="0" rx="16" ry="16" fill="#0ff" style="stroke:none; opacity:0.75;" display="none"></ellipse><ellipse cx="0" cy="0" rx="4.3438845422363235" ry="4.3438845422363235" fill="#777" style="stroke:black;"></ellipse></g><g onmousedown="bpmousedown(212,evt);" onmouseover="bpmouseover(212,evt);" onmouseout="bpmouseout(212,evt);" transform="translate(80,94)" opacity="0"><ellipse cx="0" cy="0" rx="16" ry="16" fill="#0ff" style="stroke:none; opacity:0.75;" display="none"></ellipse><ellipse cx="0" cy="0" rx="4.3438845422363235" ry="4.3438845422363235" fill="#777" style="stroke:black;"></ellipse></g><g onmousedown="bpmousedown(217,evt);" onmouseover="bpmouseover(217,evt);" onmouseout="bpmouseout(217,evt);" transform="translate(812,181)" opacity="0"><ellipse cx="0" cy="0" rx="16" ry="16" fill="#0ff" style="stroke:none; opacity:0.75;" display="none"></ellipse><ellipse cx="0" cy="0" rx="4.3438845422363235" ry="4.3438845422363235" fill="#777" style="stroke:black;"></ellipse></g><g onmousedown="bpmousedown(228,evt);" onmouseover="bpmouseover(228,evt);" onmouseout="bpmouseout(228,evt);" transform="translate(203,94)" opacity="0"><ellipse cx="0" cy="0" rx="16" ry="16" fill="#0ff" style="stroke:none; opacity:0.75;" display="none"></ellipse><ellipse cx="0" cy="0" rx="4.3438845422363235" ry="4.3438845422363235" fill="#777" style="stroke:black;"></ellipse></g><g onmousedown="bpmousedown(229,evt);" onmouseover="bpmouseover(229,evt);" onmouseout="bpmouseout(229,evt);" transform="translate(203,96)" opacity="0"><ellipse cx="0" cy="0" rx="16" ry="16" fill="#0ff" style="stroke:none; opacity:0.75;" display="none"></ellipse><ellipse cx="0" cy="0" rx="4.3438845422363235" ry="4.3438845422363235" fill="#777" style="stroke:black;"></ellipse></g><g onmousedown="bpmousedown(230,evt);" onmouseover="bpmouseover(230,evt);" onmouseout="bpmouseout(230,evt);" transform="translate(80,303)" opacity="0"><ellipse cx="0" cy="0" rx="16" ry="16" fill="#0ff" style="stroke:none; opacity:0.75;" display="none"></ellipse><ellipse cx="0" cy="0" rx="4.3438845422363235" ry="4.3438845422363235" fill="#777" style="stroke:black;"></ellipse></g><g onmousedown="bpmousedown(231,evt);" onmouseover="bpmouseover(231,evt);" onmouseout="bpmouseout(231,evt);" transform="translate(495,181)" opacity="0"><ellipse cx="0" cy="0" rx="16" ry="16" fill="#0ff" style="stroke:none; opacity:0.75;" display="none"></ellipse><ellipse cx="0" cy="0" rx="4.3438845422363235" ry="4.3438845422363235" fill="#777" style="stroke:black;"></ellipse></g></g>
  <g id="ports"></g>
</g>
</svg>