<svg id="SVGCanvas" width="480px" height="270px" xmlns="http://www.w3.org/2000/svg" xmlns:xlink="http://www.w3.org/1999/xlink" onmouseup="null" onmousemove="null">
<rect id="background" x="0" y="0" height="100%" width="100%" fill="#bdbddf" onmousedown="bgmousedown(evt)"></rect>
<g id="foreground" transform="translate(0,0.6880733944954045),scale(0.6290956749672346),translate(-200,-87)">
  <g id="edges"><g id="328"><path style="stroke:#bdbddf; stroke-width:8px; fill:none;" opacity="0.7" d="M 361,484 H 433 a 12,12 0 0,0 12,-12L 445,348"></path><g><path style="stroke:#ff0; stroke-width:8px; fill:none; " opacity="0" d="M 361,484 H 433 a 12,12 0 0,0 12,-12L 445,348"></path></g><path style="stroke:black; fill:none;" d="M 361,484 H 433 a 12,12 0 0,0 12,-12L 445,348"></path><g><g><path style="stroke:#0ff; stroke-width:8px; fill:none; " opacity="0" d="M 361,484 L 445,484" onmousedown="segmousedown(&quot;328&quot;,&quot;0&quot;,evt);" onmouseover="segmouseover(&quot;328&quot;,&quot;0&quot;,evt);" onmouseout="segmouseout(&quot;328&quot;,&quot;0&quot;,evt);" onclick="segclick(&quot;328&quot;,&quot;0&quot;,evt);"></path><path style="stroke:#0ff; stroke-width:8px; fill:none; " opacity="0" d="M 445,484 L 445,348" onmousedown="segmousedown(&quot;328&quot;,&quot;1&quot;,evt);" onmouseover="segmouseover(&quot;328&quot;,&quot;1&quot;,evt);" onmouseout="segmouseout(&quot;328&quot;,&quot;1&quot;,evt);" onclick="segclick(&quot;328&quot;,&quot;1&quot;,evt);"></path></g></g></g><g id="329"><path style="stroke:#bdbddf; stroke-width:8px; fill:none;" opacity="0.7" d="M 448,318 V 274 a 12,12 0 0,1 12,-12 H 553 a 12,12 0 0,0 12,-12L 565,140"></path><g><path style="stroke:#ff0; stroke-width:8px; fill:none; " opacity="0" d="M 448,318 V 274 a 12,12 0 0,1 12,-12 H 553 a 12,12 0 0,0 12,-12L 565,140"></path></g><path style="stroke:black; fill:none;" d="M 448,318 V 274 a 12,12 0 0,1 12,-12 H 553 a 12,12 0 0,0 12,-12L 565,140"></path><g><g><path style="stroke:#0ff; stroke-width:8px; fill:none; " opacity="0" d="M 448,318 L 448,262" onmousedown="segmousedown(&quot;329&quot;,&quot;0&quot;,evt);" onmouseover="segmouseover(&quot;329&quot;,&quot;0&quot;,evt);" onmouseout="segmouseout(&quot;329&quot;,&quot;0&quot;,evt);" onclick="segclick(&quot;329&quot;,&quot;0&quot;,evt);"></path><path style="stroke:#0ff; stroke-width:8px; fill:none; " opacity="0" d="M 448,262 L 565,262" onmousedown="segmousedown(&quot;329&quot;,&quot;1&quot;,evt);" onmouseover="segmouseover(&quot;329&quot;,&quot;1&quot;,evt);" onmouseout="segmouseout(&quot;329&quot;,&quot;1&quot;,evt);" onclick="segclick(&quot;329&quot;,&quot;1&quot;,evt);"></path><path style="stroke:#0ff; stroke-width:8px; fill:none; " opacity="0" d="M 565,262 L 565,140" onmousedown="segmousedown(&quot;329&quot;,&quot;2&quot;,evt);" onmouseover="segmouseover(&quot;329&quot;,&quot;2&quot;,evt);" onmouseout="segmouseout(&quot;329&quot;,&quot;2&quot;,evt);" onclick="segclick(&quot;329&quot;,&quot;2&quot;,evt);"></path></g></g></g><g id="330"><path style="stroke:#bdbddf; stroke-width:8px; fill:none;" opacity="0.7" d="M 230,132 V 472 a 12,12 0 0,0 12,12L 331,484"></path><g><path style="stroke:#ff0; stroke-width:8px; fill:none; " opacity="0" d="M 230,132 V 472 a 12,12 0 0,0 12,12L 331,484"></path></g><path style="stroke:black; fill:none;" d="M 230,132 V 472 a 12,12 0 0,0 12,12L 331,484"></path><g><g><path style="stroke:#0ff; stroke-width:8px; fill:none; " opacity="0" d="M 230,132 L 230,484" onmousedown="segmousedown(&quot;330&quot;,&quot;0&quot;,evt);" onmouseover="segmouseover(&quot;330&quot;,&quot;0&quot;,evt);" onmouseout="segmouseout(&quot;330&quot;,&quot;0&quot;,evt);" onclick="segclick(&quot;330&quot;,&quot;0&quot;,evt);"></path><path style="stroke:#0ff; stroke-width:8px; fill:none; " opacity="0" d="M 230,484 L 331,484" onmousedown="segmousedown(&quot;330&quot;,&quot;1&quot;,evt);" onmouseover="segmouseover(&quot;330&quot;,&quot;1&quot;,evt);" onmouseout="segmouseout(&quot;330&quot;,&quot;1&quot;,evt);" onclick="segclick(&quot;330&quot;,&quot;1&quot;,evt);"></path></g></g></g><g id="331"><path style="stroke:#bdbddf; stroke-width:8px; fill:none;" opacity="0.7" d="M 550,117L 245,117"></path><g><path style="stroke:#ff0; stroke-width:8px; fill:none; " opacity="0" d="M 550,117L 245,117"></path></g><path style="stroke:black; fill:none;" d="M 550,117L 245,117"></path><g><g><path style="stroke:#0ff; stroke-width:8px; fill:none; " opacity="0" d="M 550,117 L 245,117" onmousedown="segmousedown(&quot;331&quot;,&quot;0&quot;,evt);" onmouseover="segmouseover(&quot;331&quot;,&quot;0&quot;,evt);" onmouseout="segmouseout(&quot;331&quot;,&quot;0&quot;,evt);" onclick="segclick(&quot;331&quot;,&quot;0&quot;,evt);"></path></g></g></g><g id="332"><path style="stroke:#bdbddf; stroke-width:8px; fill:none;" opacity="0.7" d="M 789,125L 580,125"></path><g><path style="stroke:#ff0; stroke-width:8px; fill:none; " opacity="0" d="M 789,125L 580,125"></path></g><path style="stroke:black; fill:none;" d="M 789,125L 580,125"></path><g><g><path style="stroke:#0ff; stroke-width:8px; fill:none; " opacity="0" d="M 789,125 L 580,125" onmousedown="segmousedown(&quot;332&quot;,&quot;0&quot;,evt);" onmouseover="segmouseover(&quot;332&quot;,&quot;0&quot;,evt);" onmouseout="segmouseout(&quot;332&quot;,&quot;0&quot;,evt);" onclick="segclick(&quot;332&quot;,&quot;0&quot;,evt);"></path></g></g></g><g id="333"><path style="stroke:#bdbddf; stroke-width:8px; fill:none;" opacity="0.7" d="M 798,140 V 191 a 12,12 0 0,1 -12,12 H 645 a 12,12 0 0,0 -12,12L 633,316"></path><g><path style="stroke:#ff0; stroke-width:8px; fill:none; " opacity="0" d="M 798,140 V 191 a 12,12 0 0,1 -12,12 H 645 a 12,12 0 0,0 -12,12L 633,316"></path></g><path style="stroke:black; fill:none;" d="M 798,140 V 191 a 12,12 0 0,1 -12,12 H 645 a 12,12 0 0,0 -12,12L 633,316"></path><g><g><path style="stroke:#0ff; stroke-width:8px; fill:none; " opacity="0" d="M 798,140 L 798,203" onmousedown="segmousedown(&quot;333&quot;,&quot;0&quot;,evt);" onmouseover="segmouseover(&quot;333&quot;,&quot;0&quot;,evt);" onmouseout="segmouseout(&quot;333&quot;,&quot;0&quot;,evt);" onclick="segclick(&quot;333&quot;,&quot;0&quot;,evt);"></path><path style="stroke:#0ff; stroke-width:8px; fill:none; " opacity="0" d="M 798,203 L 633,203" onmousedown="segmousedown(&quot;333&quot;,&quot;1&quot;,evt);" onmouseover="segmouseover(&quot;333&quot;,&quot;1&quot;,evt);" onmouseout="segmouseout(&quot;333&quot;,&quot;1&quot;,evt);" onclick="segclick(&quot;333&quot;,&quot;1&quot;,evt);"></path><path style="stroke:#0ff; stroke-width:8px; fill:none; " opacity="0" d="M 633,203 L 633,316" onmousedown="segmousedown(&quot;333&quot;,&quot;2&quot;,evt);" onmouseover="segmouseover(&quot;333&quot;,&quot;2&quot;,evt);" onmouseout="segmouseout(&quot;333&quot;,&quot;2&quot;,evt);" onclick="segclick(&quot;333&quot;,&quot;2&quot;,evt);"></path></g></g></g><g id="334"><path style="stroke:#bdbddf; stroke-width:8px; fill:none;" opacity="0.7" d="M 625,346 V 394 a 12,12 0 0,1 -12,12 H 549 a 12,12 0 0,0 -12,12L 537,437"></path><g><path style="stroke:#ff0; stroke-width:8px; fill:none; " opacity="0" d="M 625,346 V 394 a 12,12 0 0,1 -12,12 H 549 a 12,12 0 0,0 -12,12L 537,437"></path></g><path style="stroke:black; fill:none;" d="M 625,346 V 394 a 12,12 0 0,1 -12,12 H 549 a 12,12 0 0,0 -12,12L 537,437"></path><g><g><path style="stroke:#0ff; stroke-width:8px; fill:none; " opacity="0" d="M 625,346 L 625,406" onmousedown="segmousedown(&quot;334&quot;,&quot;0&quot;,evt);" onmouseover="segmouseover(&quot;334&quot;,&quot;0&quot;,evt);" onmouseout="segmouseout(&quot;334&quot;,&quot;0&quot;,evt);" onclick="segclick(&quot;334&quot;,&quot;0&quot;,evt);"></path><path style="stroke:#0ff; stroke-width:8px; fill:none; " opacity="0" d="M 625,406 L 537,406" onmousedown="segmousedown(&quot;334&quot;,&quot;1&quot;,evt);" onmouseover="segmouseover(&quot;334&quot;,&quot;1&quot;,evt);" onmouseout="segmouseout(&quot;334&quot;,&quot;1&quot;,evt);" onclick="segclick(&quot;334&quot;,&quot;1&quot;,evt);"></path><path style="stroke:#0ff; stroke-width:8px; fill:none; " opacity="0" d="M 537,406 L 537,437" onmousedown="segmousedown(&quot;334&quot;,&quot;2&quot;,evt);" onmouseover="segmouseover(&quot;334&quot;,&quot;2&quot;,evt);" onmouseout="segmouseout(&quot;334&quot;,&quot;2&quot;,evt);" onclick="segclick(&quot;334&quot;,&quot;2&quot;,evt);"></path></g></g></g><g id="335"><path style="stroke:#bdbddf; stroke-width:8px; fill:none;" opacity="0.7" d="M 641,346 V 395 a 12,12 0 0,0 12,12 H 731 a 12,12 0 0,1 12,12L 743,437"></path><g><path style="stroke:#ff0; stroke-width:8px; fill:none; " opacity="0" d="M 641,346 V 395 a 12,12 0 0,0 12,12 H 731 a 12,12 0 0,1 12,12L 743,437"></path></g><path style="stroke:black; fill:none;" d="M 641,346 V 395 a 12,12 0 0,0 12,12 H 731 a 12,12 0 0,1 12,12L 743,437"></path><g><g><path style="stroke:#0ff; stroke-width:8px; fill:none; " opacity="0" d="M 641,346 L 641,407" onmousedown="segmousedown(&quot;335&quot;,&quot;0&quot;,evt);" onmouseover="segmouseover(&quot;335&quot;,&quot;0&quot;,evt);" onmouseout="segmouseout(&quot;335&quot;,&quot;0&quot;,evt);" onclick="segclick(&quot;335&quot;,&quot;0&quot;,evt);"></path><path style="stroke:#0ff; stroke-width:8px; fill:none; " opacity="0" d="M 641,407 L 743,407" onmousedown="segmousedown(&quot;335&quot;,&quot;1&quot;,evt);" onmouseover="segmouseover(&quot;335&quot;,&quot;1&quot;,evt);" onmouseout="segmouseout(&quot;335&quot;,&quot;1&quot;,evt);" onclick="segclick(&quot;335&quot;,&quot;1&quot;,evt);"></path><path style="stroke:#0ff; stroke-width:8px; fill:none; " opacity="0" d="M 743,407 L 743,437" onmousedown="segmousedown(&quot;335&quot;,&quot;2&quot;,evt);" onmouseover="segmouseover(&quot;335&quot;,&quot;2&quot;,evt);" onmouseout="segmouseout(&quot;335&quot;,&quot;2&quot;,evt);" onclick="segclick(&quot;335&quot;,&quot;2&quot;,evt);"></path></g></g></g><g id="336"><path style="stroke:#bdbddf; stroke-width:8px; fill:none;" opacity="0.7" d="M 811,140 V 191 a 12,12 0 0,0 12,12 H 921 a 12,12 0 0,1 12,12L 933,320"></path><g><path style="stroke:#ff0; stroke-width:8px; fill:none; " opacity="0" d="M 811,140 V 191 a 12,12 0 0,0 12,12 H 921 a 12,12 0 0,1 12,12L 933,320"></path></g><path style="stroke:black; fill:none;" d="M 811,140 V 191 a 12,12 0 0,0 12,12 H 921 a 12,12 0 0,1 12,12L 933,320"></path><g><g><path style="stroke:#0ff; stroke-width:8px; fill:none; " opacity="0" d="M 811,140 L 811,203" onmousedown="segmousedown(&quot;336&quot;,&quot;0&quot;,evt);" onmouseover="segmouseover(&quot;336&quot;,&quot;0&quot;,evt);" onmouseout="segmouseout(&quot;336&quot;,&quot;0&quot;,evt);" onclick="segclick(&quot;336&quot;,&quot;0&quot;,evt);"></path><path style="stroke:#0ff; stroke-width:8px; fill:none; " opacity="0" d="M 811,203 L 933,203" onmousedown="segmousedown(&quot;336&quot;,&quot;1&quot;,evt);" onmouseover="segmouseover(&quot;336&quot;,&quot;1&quot;,evt);" onmouseout="segmouseout(&quot;336&quot;,&quot;1&quot;,evt);" onclick="segclick(&quot;336&quot;,&quot;1&quot;,evt);"></path><path style="stroke:#0ff; stroke-width:8px; fill:none; " opacity="0" d="M 933,203 L 933,320" onmousedown="segmousedown(&quot;336&quot;,&quot;2&quot;,evt);" onmouseover="segmouseover(&quot;336&quot;,&quot;2&quot;,evt);" onmouseout="segmouseout(&quot;336&quot;,&quot;2&quot;,evt);" onclick="segclick(&quot;336&quot;,&quot;2&quot;,evt);"></path></g></g></g><g id="337"><path style="stroke:#bdbddf; stroke-width:8px; fill:none;" opacity="0.7" d="M 804,140L 804,319"></path><g><path style="stroke:#ff0; stroke-width:8px; fill:none; " opacity="0" d="M 804,140L 804,319"></path></g><path style="stroke:black; fill:none;" d="M 804,140L 804,319"></path><g><g><path style="stroke:#0ff; stroke-width:8px; fill:none; " opacity="0" d="M 804,140 L 804,319" onmousedown="segmousedown(&quot;337&quot;,&quot;0&quot;,evt);" onmouseover="segmouseover(&quot;337&quot;,&quot;0&quot;,evt);" onmouseout="segmouseout(&quot;337&quot;,&quot;0&quot;,evt);" onclick="segclick(&quot;337&quot;,&quot;0&quot;,evt);"></path></g></g></g></g>
  <g id="nodes"><g id="318" onmousedown="nodemousedown(318,evt);" onmouseover="nodemouseover(318,evt);" onmouseout="nodemouseout(318,evt);" transform="translate(230,117)"><rect x="-21" y="-21" width="42" height="42" fill="#0ff" style="stroke:none; opacity:0.75;" display="none"></rect><rect x="-15" y="-15" width="30" height="30" fill="#f0f0d2" style="stroke:black; opacity:1;"></rect></g><g id="319" onmousedown="nodemousedown(319,evt);" onmouseover="nodemouseover(319,evt);" onmouseout="nodemouseout(319,evt);" transform="translate(346,484)"><rect x="-21" y="-21" width="42" height="42" fill="#0ff" style="stroke:none; opacity:0.75;" display="none"></rect><rect x="-15" y="-15" width="30" height="30" fill="#f0f0d2" style="stroke:black; opacity:1;"></rect></g><g id="321" onmousedown="nodemousedown(321,evt);" onmouseover="nodemouseover(321,evt);" onmouseout="nodemouseout(321,evt);" transform="translate(565,125)"><rect x="-21" y="-21" width="42" height="42" fill="#0ff" style="stroke:none; opacity:0.75;" display="none"></rect><rect x="-15" y="-15" width="30" height="30" fill="#f0f0d2" style="stroke:black; opacity:1;"></rect></g><g id="322" onmousedown="nodemousedown(322,evt);" onmouseover="nodemouseover(322,evt);" onmouseout="nodemouseout(322,evt);" transform="translate(804,125)"><rect x="-21" y="-21" width="42" height="42" fill="#0ff" style="stroke:none; opacity:0.75;" display="none"></rect><rect x="-15" y="-15" width="30" height="30" fill="#f0f0d2" style="stroke:black; opacity:1;"></rect></g><g id="323" onmousedown="nodemousedown(323,evt);" onmouseover="nodemouseover(323,evt);" onmouseout="nodemouseout(323,evt);" transform="translate(633,331)"><rect x="-21" y="-21" width="42" height="42" fill="#0ff" style="stroke:none; opacity:0.75;" display="none"></rect><rect x="-15" y="-15" width="30" height="30" fill="#f0f0d2" style="stroke:black; opacity:1;"></rect></g><g id="320" onmousedown="nodemousedown(320,evt);" onmouseover="nodemouseover(320,evt);" onmouseout="nodemouseout(320,evt);" transform="translate(445,333)"><rect x="-21" y="-21" width="42" height="42" fill="#0ff" style="stroke:none; opacity:0.75;" display="none"></rect><rect x="-15" y="-15" width="30" height="30" fill="#f0f0d2" style="stroke:black; opacity:1;"></rect></g><g id="325" onmousedown="nodemousedown(325,evt);" onmouseover="nodemouseover(325,evt);" onmouseout="nodemouseout(325,evt);" transform="translate(545,452)"><rect x="-21" y="-21" width="42" height="42" fill="#0ff" style="stroke:none; opacity:0.75;" display="none"></rect><rect x="-15" y="-15" width="30" height="30" fill="#f0f0d2" style="stroke:black; opacity:1;"></rect></g><g id="326" onmousedown="nodemousedown(326,evt);" onmouseover="nodemouseover(326,evt);" onmouseout="nodemouseout(326,evt);" transform="translate(743,452)"><rect x="-21" y="-21" width="42" height="42" fill="#0ff" style="stroke:none; opacity:0.75;" display="none"></rect><rect x="-15" y="-15" width="30" height="30" fill="#f0f0d2" style="stroke:black; opacity:1;"></rect></g><g id="327" onmousedown="nodemousedown(327,evt);" onmouseover="nodemouseover(327,evt);" onmouseout="nodemouseout(327,evt);" transform="translate(804,334)"><rect x="-21" y="-21" width="42" height="42" fill="#0ff" style="stroke:none; opacity:0.75;" display="none"></rect><rect x="-15" y="-15" width="30" height="30" fill="#f0f0d2" style="stroke:black; opacity:1;"></rect></g><g id="324" onmousedown="nodemousedown(324,evt);" onmouseover="nodemouseover(324,evt);" onmouseout="nodemouseout(324,evt);" transform="translate(933,335)"><rect x="-21" y="-21" width="42" height="42" fill="#0ff" style="stroke:none; opacity:0.75;" display="none"></rect><rect x="-15" y="-15" width="30" height="30" fill="#f0f0d2" style="stroke:black; opacity:1;"></rect></g></g>
  <g id="BPs"><g onmousedown="bpmousedown(340,evt);" onmouseover="bpmouseover(340,evt);" onmouseout="bpmouseout(340,evt);" transform="translate(445,484)" opacity="0"><ellipse cx="0" cy="0" rx="16" ry="16" fill="#0ff" style="stroke:none; opacity:0.75;" display="none"></ellipse><ellipse cx="0" cy="0" rx="2.633936117445887" ry="2.633936117445887" fill="#777" style="stroke:black;"></ellipse></g><g onmousedown="bpmousedown(348,evt);" onmouseover="bpmouseover(348,evt);" onmouseout="bpmouseout(348,evt);" transform="translate(230,484)" opacity="0"><ellipse cx="0" cy="0" rx="16" ry="16" fill="#0ff" style="stroke:none; opacity:0.75;" display="none"></ellipse><ellipse cx="0" cy="0" rx="3.1119283051109248" ry="3.1119283051109248" fill="#777" style="stroke:black;"></ellipse></g><g onmousedown="bpmousedown(358,evt);" onmouseover="bpmouseover(358,evt);" onmouseout="bpmouseout(358,evt);" transform="translate(798,203)" opacity="0"><ellipse cx="0" cy="0" rx="16" ry="16" fill="#0ff" style="stroke:none; opacity:0.75;" display="none"></ellipse><ellipse cx="0" cy="0" rx="2.633936117445887" ry="2.633936117445887" fill="#777" style="stroke:black;"></ellipse></g><g onmousedown="bpmousedown(359,evt);" onmouseover="bpmouseover(359,evt);" onmouseout="bpmouseout(359,evt);" transform="translate(633,203)" opacity="0"><ellipse cx="0" cy="0" rx="16" ry="16" fill="#0ff" style="stroke:none; opacity:0.75;" display="none"></ellipse><ellipse cx="0" cy="0" rx="2.633936117445887" ry="2.633936117445887" fill="#777" style="stroke:black;"></ellipse></g><g onmousedown="bpmousedown(367,evt);" onmouseover="bpmouseover(367,evt);" onmouseout="bpmouseout(367,evt);" transform="translate(933,203)" opacity="0"><ellipse cx="0" cy="0" rx="16" ry="16" fill="#0ff" style="stroke:none; opacity:0.75;" display="none"></ellipse><ellipse cx="0" cy="0" rx="3.6766638765488238" ry="3.6766638765488238" fill="#777" style="stroke:black;"></ellipse></g><g onmousedown="bpmousedown(373,evt);" onmouseover="bpmouseover(373,evt);" onmouseout="bpmouseout(373,evt);" transform="translate(448,262)" opacity="0"><ellipse cx="0" cy="0" rx="16" ry="16" fill="#0ff" style="stroke:none; opacity:0.75;" display="none"></ellipse><ellipse cx="0" cy="0" rx="2.633936117445887" ry="2.633936117445887" fill="#777" style="stroke:black;"></ellipse></g><g onmousedown="bpmousedown(374,evt);" onmouseover="bpmouseover(374,evt);" onmouseout="bpmouseout(374,evt);" transform="translate(565,262)" opacity="0"><ellipse cx="0" cy="0" rx="16" ry="16" fill="#0ff" style="stroke:none; opacity:0.75;" display="none"></ellipse><ellipse cx="0" cy="0" rx="2.633936117445887" ry="2.633936117445887" fill="#777" style="stroke:black;"></ellipse></g><g onmousedown="bpmousedown(416,evt);" onmouseover="bpmouseover(416,evt);" onmouseout="bpmouseout(416,evt);" transform="translate(811,203)" opacity="0"><ellipse cx="0" cy="0" rx="16" ry="16" fill="#0ff" style="stroke:none; opacity:0.75;" display="none"></ellipse><ellipse cx="0" cy="0" rx="3.6766638765488238" ry="3.6766638765488238" fill="#777" style="stroke:black;"></ellipse></g><g onmousedown="bpmousedown(424,evt);" onmouseover="bpmouseover(424,evt);" onmouseout="bpmouseout(424,evt);" transform="translate(625 406)" opacity="0"><ellipse cx="0" cy="0" rx="16" ry="16" fill="#0ff" style="stroke:none; opacity:0.75;" display="none"></ellipse><ellipse cx="0" cy="0" rx="3.6766638765488238" ry="3.6766638765488238" fill="#777" style="stroke:black;"></ellipse></g><g onmousedown="bpmousedown(425,evt);" onmouseover="bpmouseover(425,evt);" onmouseout="bpmouseout(425,evt);" transform="translate(537,406)" opacity="0"><ellipse cx="0" cy="0" rx="16" ry="16" fill="#0ff" style="stroke:none; opacity:0.75;" display="none"></ellipse><ellipse cx="0" cy="0" rx="3.6766638765488238" ry="3.6766638765488238" fill="#777" style="stroke:black;"></ellipse></g><g onmousedown="bpmousedown(426,evt);" onmouseover="bpmouseover(426,evt);" onmouseout="bpmouseout(426,evt);" transform="translate(641,407)" opacity="0"><ellipse cx="0" cy="0" rx="16" ry="16" fill="#0ff" style="stroke:none; opacity:0.75;" display="none"></ellipse><ellipse cx="0" cy="0" rx="3.6766638765488238" ry="3.6766638765488238" fill="#777" style="stroke:black;"></ellipse></g><g onmousedown="bpmousedown(428,evt);" onmouseover="bpmouseover(428,evt);" onmouseout="bpmouseout(428,evt);" transform="translate(743,407)" opacity="0"><ellipse cx="0" cy="0" rx="16" ry="16" fill="#0ff" style="stroke:none; opacity:0.75;" display="none"></ellipse><ellipse cx="0" cy="0" rx="3.6766638765488238" ry="3.6766638765488238" fill="#777" style="stroke:black;"></ellipse></g></g>
  <g id="ports"></g>
</g>
</svg>