<svg id="SVGCanvas" width="480px" height="270px" xmlns="http://www.w3.org/2000/svg" xmlns:xlink="http://www.w3.org/1999/xlink" onmouseup="null" onmousemove="null">
<rect id="background" x="0" y="0" height="100%" width="100%" fill="#bdbddf" onmousedown="bgmousedown(evt)"></rect>
<g id="foreground" transform="translate(160.63539192399048,0),scale(0.6413301662707839),translate(-45.5,12)">
  <g id="edges"><g id="287"><path style="stroke:#bdbddf; stroke-width:8px; fill:none;" opacity="0.7" d="M 193,201 V 239 a 12,12 0 0,0 12,12 H 251 a 12,12 0 0,1 12,12L 263,364"></path><g><path style="stroke:#ff0; stroke-width:8px; fill:none; " opacity="0" d="M 193,201 V 239 a 12,12 0 0,0 12,12 H 251 a 12,12 0 0,1 12,12L 263,364"></path></g><path style="stroke:black; fill:none;" d="M 193,201 V 239 a 12,12 0 0,0 12,12 H 251 a 12,12 0 0,1 12,12L 263,364"></path><g><g><path style="stroke:#0ff; stroke-width:8px; fill:none; " opacity="0" d="M 193,201 L 193,251" onmousedown="segmousedown(&quot;287&quot;,&quot;0&quot;,evt);" onmouseover="segmouseover(&quot;287&quot;,&quot;0&quot;,evt);" onmouseout="segmouseout(&quot;287&quot;,&quot;0&quot;,evt);" onclick="segclick(&quot;287&quot;,&quot;0&quot;,evt);"></path><path style="stroke:#0ff; stroke-width:8px; fill:none; " opacity="0" d="M 193,251 L 263,251" onmousedown="segmousedown(&quot;287&quot;,&quot;1&quot;,evt);" onmouseover="segmouseover(&quot;287&quot;,&quot;1&quot;,evt);" onmouseout="segmouseout(&quot;287&quot;,&quot;1&quot;,evt);" onclick="segclick(&quot;287&quot;,&quot;1&quot;,evt);"></path><path style="stroke:#0ff; stroke-width:8px; fill:none; " opacity="0" d="M 263,251 L 263,364" onmousedown="segmousedown(&quot;287&quot;,&quot;2&quot;,evt);" onmouseover="segmouseover(&quot;287&quot;,&quot;2&quot;,evt);" onmouseout="segmouseout(&quot;287&quot;,&quot;2&quot;,evt);" onclick="segclick(&quot;287&quot;,&quot;2&quot;,evt);"></path></g></g></g><g id="288"><path style="stroke:#bdbddf; stroke-width:8px; fill:none;" opacity="0.7" d="M 175,201 V 271 a 12,12 0 0,0 12,12 H 187 a 12,12 0 0,1 12,12L 199,363"></path><g><path style="stroke:#ff0; stroke-width:8px; fill:none; " opacity="0" d="M 175,201 V 271 a 12,12 0 0,0 12,12 H 187 a 12,12 0 0,1 12,12L 199,363"></path></g><path style="stroke:black; fill:none;" d="M 175,201 V 271 a 12,12 0 0,0 12,12 H 187 a 12,12 0 0,1 12,12L 199,363"></path><g><g><path style="stroke:#0ff; stroke-width:8px; fill:none; " opacity="0" d="M 175,201 L 175,283" onmousedown="segmousedown(&quot;288&quot;,&quot;0&quot;,evt);" onmouseover="segmouseover(&quot;288&quot;,&quot;0&quot;,evt);" onmouseout="segmouseout(&quot;288&quot;,&quot;0&quot;,evt);" onclick="segclick(&quot;288&quot;,&quot;0&quot;,evt);"></path><path style="stroke:#0ff; stroke-width:8px; fill:none; " opacity="0" d="M 175,283 L 199,283" onmousedown="segmousedown(&quot;288&quot;,&quot;1&quot;,evt);" onmouseover="segmouseover(&quot;288&quot;,&quot;1&quot;,evt);" onmouseout="segmouseout(&quot;288&quot;,&quot;1&quot;,evt);" onclick="segclick(&quot;288&quot;,&quot;1&quot;,evt);"></path><path style="stroke:#0ff; stroke-width:8px; fill:none; " opacity="0" d="M 199,283 L 199,363" onmousedown="segmousedown(&quot;288&quot;,&quot;2&quot;,evt);" onmouseover="segmouseover(&quot;288&quot;,&quot;2&quot;,evt);" onmouseout="segmouseout(&quot;288&quot;,&quot;2&quot;,evt);" onclick="segclick(&quot;288&quot;,&quot;2&quot;,evt);"></path></g></g></g><g id="289"><path style="stroke:#bdbddf; stroke-width:8px; fill:none;" opacity="0.7" d="M 139,201 V 239 a 12,12 0 0,1 -12,12 H 84 a 12,12 0 0,0 -12,12L 72,301"></path><g><path style="stroke:#ff0; stroke-width:8px; fill:none; " opacity="0" d="M 139,201 V 239 a 12,12 0 0,1 -12,12 H 84 a 12,12 0 0,0 -12,12L 72,301"></path></g><path style="stroke:black; fill:none;" d="M 139,201 V 239 a 12,12 0 0,1 -12,12 H 84 a 12,12 0 0,0 -12,12L 72,301"></path><g><g><path style="stroke:#0ff; stroke-width:8px; fill:none; " opacity="0" d="M 139,201 L 139,251" onmousedown="segmousedown(&quot;289&quot;,&quot;0&quot;,evt);" onmouseover="segmouseover(&quot;289&quot;,&quot;0&quot;,evt);" onmouseout="segmouseout(&quot;289&quot;,&quot;0&quot;,evt);" onclick="segclick(&quot;289&quot;,&quot;0&quot;,evt);"></path><path style="stroke:#0ff; stroke-width:8px; fill:none; " opacity="0" d="M 139,251 L 72,251" onmousedown="segmousedown(&quot;289&quot;,&quot;1&quot;,evt);" onmouseover="segmouseover(&quot;289&quot;,&quot;1&quot;,evt);" onmouseout="segmouseout(&quot;289&quot;,&quot;1&quot;,evt);" onclick="segclick(&quot;289&quot;,&quot;1&quot;,evt);"></path><path style="stroke:#0ff; stroke-width:8px; fill:none; " opacity="0" d="M 72,251 L 72,301" onmousedown="segmousedown(&quot;289&quot;,&quot;2&quot;,evt);" onmouseover="segmouseover(&quot;289&quot;,&quot;2&quot;,evt);" onmouseout="segmouseout(&quot;289&quot;,&quot;2&quot;,evt);" onclick="segclick(&quot;289&quot;,&quot;2&quot;,evt);"></path></g></g></g><g id="290"><path style="stroke:#bdbddf; stroke-width:8px; fill:none;" opacity="0.7" d="M 167,137.5L 167,169"></path><g><path style="stroke:#ff0; stroke-width:8px; fill:none; " opacity="0" d="M 167,137.5L 167,169"></path></g><path style="stroke:black; fill:none;" d="M 167,137.5L 167,169"></path><g><g><path style="stroke:#0ff; stroke-width:8px; fill:none; " opacity="0" d="M 167,137.5 L 167,169" onmousedown="segmousedown(&quot;290&quot;,&quot;0&quot;,evt);" onmouseover="segmouseover(&quot;290&quot;,&quot;0&quot;,evt);" onmouseout="segmouseout(&quot;290&quot;,&quot;0&quot;,evt);" onclick="segclick(&quot;290&quot;,&quot;0&quot;,evt);"></path></g></g></g><g id="291"><path style="stroke:#bdbddf; stroke-width:8px; fill:none;" opacity="0.7" d="M 131,362 V 295 a 12,12 0 0,1 12,-12 H 147 a 12,12 0 0,0 12,-12L 159,201"></path><g><path style="stroke:#ff0; stroke-width:8px; fill:none; " opacity="0" d="M 131,362 V 295 a 12,12 0 0,1 12,-12 H 147 a 12,12 0 0,0 12,-12L 159,201"></path></g><path style="stroke:black; fill:none;" d="M 131,362 V 295 a 12,12 0 0,1 12,-12 H 147 a 12,12 0 0,0 12,-12L 159,201"></path><g><g><path style="stroke:#0ff; stroke-width:8px; fill:none; " opacity="0" d="M 131,362 L 131,283" onmousedown="segmousedown(&quot;291&quot;,&quot;0&quot;,evt);" onmouseover="segmouseover(&quot;291&quot;,&quot;0&quot;,evt);" onmouseout="segmouseout(&quot;291&quot;,&quot;0&quot;,evt);" onclick="segclick(&quot;291&quot;,&quot;0&quot;,evt);"></path><path style="stroke:#0ff; stroke-width:8px; fill:none; " opacity="0" d="M 131,283 L 159,283" onmousedown="segmousedown(&quot;291&quot;,&quot;1&quot;,evt);" onmouseover="segmouseover(&quot;291&quot;,&quot;1&quot;,evt);" onmouseout="segmouseout(&quot;291&quot;,&quot;1&quot;,evt);" onclick="segclick(&quot;291&quot;,&quot;1&quot;,evt);"></path><path style="stroke:#0ff; stroke-width:8px; fill:none; " opacity="0" d="M 159,283 L 159,201" onmousedown="segmousedown(&quot;291&quot;,&quot;2&quot;,evt);" onmouseover="segmouseover(&quot;291&quot;,&quot;2&quot;,evt);" onmouseout="segmouseout(&quot;291&quot;,&quot;2&quot;,evt);" onclick="segclick(&quot;291&quot;,&quot;2&quot;,evt);"></path></g></g></g><g id="292"><path style="stroke:#bdbddf; stroke-width:8px; fill:none;" opacity="0.7" d="M 169,84.5L 169,33"></path><g><path style="stroke:#ff0; stroke-width:8px; fill:none; " opacity="0" d="M 169,84.5L 169,33"></path></g><path style="stroke:black; fill:none;" d="M 169,84.5L 169,33"></path><g><g><path style="stroke:#0ff; stroke-width:8px; fill:none; " opacity="0" d="M 169,84.5 L 169,33" onmousedown="segmousedown(&quot;292&quot;,&quot;0&quot;,evt);" onmouseover="segmouseover(&quot;292&quot;,&quot;0&quot;,evt);" onmouseout="segmouseout(&quot;292&quot;,&quot;0&quot;,evt);" onclick="segclick(&quot;292&quot;,&quot;0&quot;,evt);"></path></g></g></g></g>
  <g id="nodes"><g id="280" onmousedown="nodemousedown(280,evt);" onmouseover="nodemouseover(280,evt);" onmouseout="nodemouseout(280,evt);" transform="translate(166,185)"><rect x="-47.5" y="-22" width="95" height="44" fill="#0ff" style="stroke:none; opacity:0.75;" display="none"></rect><rect x="-41.5" y="-16" width="83" height="32" fill="#f0f0d2" style="stroke:black; opacity:1;"></rect></g><g id="283" onmousedown="nodemousedown(283,evt);" onmouseover="nodemouseover(283,evt);" onmouseout="nodemouseout(283,evt);" transform="translate(72,347)"><rect x="-17.5" y="-52" width="35" height="104" fill="#0ff" style="stroke:none; opacity:0.75;" display="none"></rect><rect x="-11.5" y="-46" width="23" height="92" fill="#f0f0d2" style="stroke:black; opacity:1;"></rect></g><g id="285" onmousedown="nodemousedown(285,evt);" onmouseover="nodemouseover(285,evt);" onmouseout="nodemouseout(285,evt);" transform="translate(131,377)"><rect x="-21" y="-21" width="42" height="42" fill="#0ff" style="stroke:none; opacity:0.75;" display="none"></rect><rect x="-15" y="-15" width="30" height="30" fill="#f0f0d2" style="stroke:black; opacity:1;"></rect></g><g id="282" onmousedown="nodemousedown(282,evt);" onmouseover="nodemouseover(282,evt);" onmouseout="nodemouseout(282,evt);" transform="translate(199,378)"><rect x="-21" y="-21" width="42" height="42" fill="#0ff" style="stroke:none; opacity:0.75;" display="none"></rect><rect x="-15" y="-15" width="30" height="30" fill="#f0f0d2" style="stroke:black; opacity:1;"></rect></g><g id="281" onmousedown="nodemousedown(281,evt);" onmouseover="nodemouseover(281,evt);" onmouseout="nodemouseout(281,evt);" transform="translate(263,379)"><rect x="-21" y="-21" width="42" height="42" fill="#0ff" style="stroke:none; opacity:0.75;" display="none"></rect><rect x="-15" y="-15" width="30" height="30" fill="#f0f0d2" style="stroke:black; opacity:1;"></rect></g><g id="286" onmousedown="nodemousedown(286,evt);" onmouseover="nodemouseover(286,evt);" onmouseout="nodemouseout(286,evt);" transform="translate(169,18)"><rect x="-50.5" y="-21" width="101" height="42" fill="#0ff" style="stroke:none; opacity:0.75;" display="none"></rect><rect x="-44.5" y="-15" width="89" height="30" fill="#f0f0d2" style="stroke:black; opacity:1;"></rect></g><g id="284" onmousedown="nodemousedown(284,evt);" onmouseover="nodemouseover(284,evt);" onmouseout="nodemouseout(284,evt);" transform="translate(169,111)"><rect x="-29.5" y="-32.5" width="59" height="65" fill="#0ff" style="stroke:none; opacity:0.75;" display="none"></rect><rect x="-23.5" y="-26.5" width="47" height="53" fill="#f0f0d2" style="stroke:black; opacity:1;"></rect></g></g>
  <g id="BPs"><g onmousedown="bpmousedown(311,evt);" onmouseover="bpmouseover(311,evt);" onmouseout="bpmouseout(311,evt);" transform="translate(193,251)" opacity="0"><ellipse cx="0" cy="0" rx="16" ry="16" fill="#0ff" style="stroke:none; opacity:0.75;" display="none"></ellipse><ellipse cx="0" cy="0" rx="0.8196620357733838" ry="0.8196620357733838" fill="#777" style="stroke:black;"></ellipse></g><g onmousedown="bpmousedown(312,evt);" onmouseover="bpmouseover(312,evt);" onmouseout="bpmouseout(312,evt);" transform="translate(263,251)" opacity="0"><ellipse cx="0" cy="0" rx="16" ry="16" fill="#0ff" style="stroke:none; opacity:0.75;" display="none"></ellipse><ellipse cx="0" cy="0" rx="0.8196620357733838" ry="0.8196620357733838" fill="#777" style="stroke:black;"></ellipse></g><g onmousedown="bpmousedown(320,evt);" onmouseover="bpmouseover(320,evt);" onmouseout="bpmouseout(320,evt);" transform="translate(139,251)" opacity="0"><ellipse cx="0" cy="0" rx="16" ry="16" fill="#0ff" style="stroke:none; opacity:0.75;" display="none"></ellipse><ellipse cx="0" cy="0" rx="0.8196620357733838" ry="0.8196620357733838" fill="#777" style="stroke:black;"></ellipse></g><g onmousedown="bpmousedown(321,evt);" onmouseover="bpmouseover(321,evt);" onmouseout="bpmouseout(321,evt);" transform="translate(72,251)" opacity="0"><ellipse cx="0" cy="0" rx="16" ry="16" fill="#0ff" style="stroke:none; opacity:0.75;" display="none"></ellipse><ellipse cx="0" cy="0" rx="0.8196620357733838" ry="0.8196620357733838" fill="#777" style="stroke:black;"></ellipse></g><g onmousedown="bpmousedown(331,evt);" onmouseover="bpmouseover(331,evt);" onmouseout="bpmouseout(331,evt);" transform="translate(175,283)" opacity="0"><ellipse cx="0" cy="0" rx="16" ry="16" fill="#0ff" style="stroke:none; opacity:0.75;" display="none"></ellipse><ellipse cx="0" cy="0" rx="0.8196620357733838" ry="0.8196620357733838" fill="#777" style="stroke:black;"></ellipse></g><g onmousedown="bpmousedown(332,evt);" onmouseover="bpmouseover(332,evt);" onmouseout="bpmouseout(332,evt);" transform="translate(199,283)" opacity="0"><ellipse cx="0" cy="0" rx="16" ry="16" fill="#0ff" style="stroke:none; opacity:0.75;" display="none"></ellipse><ellipse cx="0" cy="0" rx="0.8196620357733838" ry="0.8196620357733838" fill="#777" style="stroke:black;"></ellipse></g><g onmousedown="bpmousedown(340,evt);" onmouseover="bpmouseover(340,evt);" onmouseout="bpmouseout(340,evt);" transform="translate(131,283)" opacity="0"><ellipse cx="0" cy="0" rx="16" ry="16" fill="#0ff" style="stroke:none; opacity:0.75;" display="none"></ellipse><ellipse cx="0" cy="0" rx="0.8196620357733838" ry="0.8196620357733838" fill="#777" style="stroke:black;"></ellipse></g><g onmousedown="bpmousedown(341,evt);" onmouseover="bpmouseover(341,evt);" onmouseout="bpmouseout(341,evt);" transform="translate(159,283)" opacity="0"><ellipse cx="0" cy="0" rx="16" ry="16" fill="#0ff" style="stroke:none; opacity:0.75;" display="none"></ellipse><ellipse cx="0" cy="0" rx="0.8196620357733838" ry="0.8196620357733838" fill="#777" style="stroke:black;"></ellipse></g></g>
  <g id="ports"></g>
</g>
</svg>