<svg id="SVGCanvas" width="480px" height="270px" xmlns="http://www.w3.org/2000/svg" xlink="http://www.w3.org/1999/xlink" onmouseup="null" onmousemove="null">
<rect id="background" x="0" y="0" height="100%" width="100%" fill="#bdbddf" onmousedown="bgmousedown(evt)"></rect>
<g id="foreground" transform="translate(0,7),scale(0.8),translate(-43,-229)">
  <g id="edges"><g id="266"><path style="stroke:#bdbddf; stroke-width:8px; fill:none;" opacity="0.7" d="M 417,259L 363.5,259"></path><g><path style="stroke:#ff0; stroke-width:8px; fill:none; " opacity="0" d="M 417,259L 363.5,259"></path></g><path style="stroke:black; fill:none;" d="M 417,259L 363.5,259"></path><g><g><path style="stroke:#0ff; stroke-width:8px; fill:none; " opacity="0" d="M 417,259 L 363.5,259" onmousedown="segmousedown(&quot;266&quot;,&quot;0&quot;,evt);" onmouseover="segmouseover(&quot;266&quot;,&quot;0&quot;,evt);" onmouseout="segmouseout(&quot;266&quot;,&quot;0&quot;,evt);" onclick="segclick(&quot;266&quot;,&quot;0&quot;,evt);"></path></g></g></g><g id="267"><path style="stroke:#bdbddf; stroke-width:8px; fill:none;" opacity="0.7" d="M 337,274L 337,304"></path><g><path style="stroke:#ff0; stroke-width:8px; fill:none; " opacity="0" d="M 337,274L 337,304"></path></g><path style="stroke:black; fill:none;" d="M 337,274L 337,304"></path><g><g><path style="stroke:#0ff; stroke-width:8px; fill:none; " opacity="0" d="M 337,274 L 337,304" onmousedown="segmousedown(&quot;267&quot;,&quot;0&quot;,evt);" onmouseover="segmouseover(&quot;267&quot;,&quot;0&quot;,evt);" onmouseout="segmouseout(&quot;267&quot;,&quot;0&quot;,evt);" onclick="segclick(&quot;267&quot;,&quot;0&quot;,evt);"></path></g></g></g><g id="268"><path style="stroke:#bdbddf; stroke-width:8px; fill:none;" opacity="0.7" d="M 489,380 V 271 a 12,12 0 0,0 -12,-12L 447,259"></path><g><path style="stroke:#ff0; stroke-width:8px; fill:none; " opacity="0" d="M 489,380 V 271 a 12,12 0 0,0 -12,-12L 447,259"></path></g><path style="stroke:black; fill:none;" d="M 489,380 V 271 a 12,12 0 0,0 -12,-12L 447,259"></path><g><g><path style="stroke:#0ff; stroke-width:8px; fill:none; " opacity="0" d="M 489,380 L 489,259" onmousedown="segmousedown(&quot;268&quot;,&quot;0&quot;,evt);" onmouseover="segmouseover(&quot;268&quot;,&quot;0&quot;,evt);" onmouseout="segmouseout(&quot;268&quot;,&quot;0&quot;,evt);" onclick="segclick(&quot;268&quot;,&quot;0&quot;,evt);"></path><path style="stroke:#0ff; stroke-width:8px; fill:none; " opacity="0" d="M 489,259 L 447,259" onmousedown="segmousedown(&quot;268&quot;,&quot;1&quot;,evt);" onmouseover="segmouseover(&quot;268&quot;,&quot;1&quot;,evt);" onmouseout="segmouseout(&quot;268&quot;,&quot;1&quot;,evt);" onclick="segclick(&quot;268&quot;,&quot;1&quot;,evt);"></path></g></g></g><g id="269"><path style="stroke:#bdbddf; stroke-width:8px; fill:none;" opacity="0.7" d="M 483,397L 255,397"></path><g><path style="stroke:#ff0; stroke-width:8px; fill:none; " opacity="0" d="M 483,397L 255,397"></path></g><path style="stroke:black; fill:none;" d="M 483,397L 255,397"></path><g><g><path style="stroke:#0ff; stroke-width:8px; fill:none; " opacity="0" d="M 483,397 L 255,397" onmousedown="segmousedown(&quot;269&quot;,&quot;0&quot;,evt);" onmouseover="segmouseover(&quot;269&quot;,&quot;0&quot;,evt);" onmouseout="segmouseout(&quot;269&quot;,&quot;0&quot;,evt);" onclick="segclick(&quot;269&quot;,&quot;0&quot;,evt);"></path></g></g></g><g id="270"><path style="stroke:#bdbddf; stroke-width:8px; fill:none;" opacity="0.7" d="M 240,412 V 507 a 12,12 0 0,1 -12,12L 189,519"></path><g><path style="stroke:#ff0; stroke-width:8px; fill:none; " opacity="0" d="M 240,412 V 507 a 12,12 0 0,1 -12,12L 189,519"></path></g><path style="stroke:black; fill:none;" d="M 240,412 V 507 a 12,12 0 0,1 -12,12L 189,519"></path><g><g><path style="stroke:#0ff; stroke-width:8px; fill:none; " opacity="0" d="M 240,412 L 240,519" onmousedown="segmousedown(&quot;270&quot;,&quot;0&quot;,evt);" onmouseover="segmouseover(&quot;270&quot;,&quot;0&quot;,evt);" onmouseout="segmouseout(&quot;270&quot;,&quot;0&quot;,evt);" onclick="segclick(&quot;270&quot;,&quot;0&quot;,evt);"></path><path style="stroke:#0ff; stroke-width:8px; fill:none; " opacity="0" d="M 240,519 L 189,519" onmousedown="segmousedown(&quot;270&quot;,&quot;1&quot;,evt);" onmouseover="segmouseover(&quot;270&quot;,&quot;1&quot;,evt);" onmouseout="segmouseout(&quot;270&quot;,&quot;1&quot;,evt);" onclick="segclick(&quot;270&quot;,&quot;1&quot;,evt);"></path></g></g></g>

<g id="271"><path style="stroke:#bdbddf; stroke-width:8px; fill:none;" opacity="0.7" d="M 337,334L 337,365.5"></path><g><path style="stroke:#ff0; stroke-width:8px; fill:none; " opacity="0" d="M 337,334L 337,365.5"></path></g>

<path style="stroke:black; fill:none;" d="M 337,334L 337,365.5"></path>

<g><g><path style="stroke:#0ff; stroke-width:8px; fill:none; " opacity="0" d="M 337,334 L 337,365.5" onmousedown="segmousedown(&quot;271&quot;,&quot;0&quot;,evt);" onmouseover="segmouseover(&quot;271&quot;,&quot;0&quot;,evt);" onmouseout="segmouseout(&quot;271&quot;,&quot;0&quot;,evt);" onclick="segclick(&quot;271&quot;,&quot;0&quot;,evt);"></path></g></g></g>

<g id="272"><path style="stroke:#bdbddf; stroke-width:8px; fill:none;" opacity="0.7" d="M 336,416.5 V 499 a 12,12 0 0,0 12,12L 410,511"></path><g><path style="stroke:#ff0; stroke-width:8px; fill:none; " opacity="0" d="M 337,416.5 V 499 a 12,12 0 0,0 12,12L 410,511"></path></g>

<path style="stroke:black; fill:none;" d="M 337,416.5 V 499 a 12,12 0 0,0 12,12L 410,511"></path>

<g><g><path style="stroke:#0ff; stroke-width:8px; fill:none; " opacity="0" d="M 336,416.5 L 336,511" onmousedown="segmousedown(&quot;272&quot;,&quot;0&quot;,evt);" onmouseover="segmouseover(&quot;272&quot;,&quot;0&quot;,evt);" onmouseout="segmouseout(&quot;272&quot;,&quot;0&quot;,evt);" onclick="segclick(&quot;272&quot;,&quot;0&quot;,evt);"></path><path style="stroke:#0ff; stroke-width:8px; fill:none; " opacity="0" d="M 336,511 L 410,511" onmousedown="segmousedown(&quot;272&quot;,&quot;1&quot;,evt);" onmouseover="segmouseover(&quot;272&quot;,&quot;1&quot;,evt);" onmouseout="segmouseout(&quot;272&quot;,&quot;1&quot;,evt);" onclick="segclick(&quot;272&quot;,&quot;1&quot;,evt);"></path></g></g></g>

<g id="273"><path style="stroke:#bdbddf; stroke-width:8px; fill:none;" opacity="0.7" d="M 440,511 H 481 a 12,12 0 0,0 12,-12L 493,410"></path><g><path style="stroke:#ff0; stroke-width:8px; fill:none; " opacity="0" d="M 440,511 H 481 a 12,12 0 0,0 12,-12L 493,410"></path></g><path style="stroke:black; fill:none;" d="M 440,511 H 481 a 12,12 0 0,0 12,-12L 493,410"></path><g><g><path style="stroke:#0ff; stroke-width:8px; fill:none; " opacity="0" d="M 440,511 L 493,511" onmousedown="segmousedown(&quot;273&quot;,&quot;0&quot;,evt);" onmouseover="segmouseover(&quot;273&quot;,&quot;0&quot;,evt);" onmouseout="segmouseout(&quot;273&quot;,&quot;0&quot;,evt);" onclick="segclick(&quot;273&quot;,&quot;0&quot;,evt);"></path><path style="stroke:#0ff; stroke-width:8px; fill:none; " opacity="0" d="M 493,511 L 493,410" onmousedown="segmousedown(&quot;273&quot;,&quot;1&quot;,evt);" onmouseover="segmouseover(&quot;273&quot;,&quot;1&quot;,evt);" onmouseout="segmouseout(&quot;273&quot;,&quot;1&quot;,evt);" onclick="segclick(&quot;273&quot;,&quot;1&quot;,evt);"></path></g></g></g><g id="274"><path style="stroke:#bdbddf; stroke-width:8px; fill:none;" opacity="0.7" d="M 164,504L 164,410"></path><g><path style="stroke:#ff0; stroke-width:8px; fill:none; " opacity="0" d="M 164,504L 164,410"></path></g><path style="stroke:black; fill:none;" d="M 164,504L 164,410"></path><g><g><path style="stroke:#0ff; stroke-width:8px; fill:none; " opacity="0" d="M 164,504 L 164,410" onmousedown="segmousedown(&quot;274&quot;,&quot;0&quot;,evt);" onmouseover="segmouseover(&quot;274&quot;,&quot;0&quot;,evt);" onmouseout="segmouseout(&quot;274&quot;,&quot;0&quot;,evt);" onclick="segclick(&quot;274&quot;,&quot;0&quot;,evt);"></path></g></g></g><g id="275"><path style="stroke:#bdbddf; stroke-width:8px; fill:none;" opacity="0.7" d="M 164,519L 88,519"></path><g><path style="stroke:#ff0; stroke-width:8px; fill:none; " opacity="0" d="M 164,519L 88,519"></path></g><path style="stroke:black; fill:none;" d="M 164,519L 88,519"></path><g><g><path style="stroke:#0ff; stroke-width:8px; fill:none; " opacity="0" d="M 164,519 L 88,519" onmousedown="segmousedown(&quot;275&quot;,&quot;0&quot;,evt);" onmouseover="segmouseover(&quot;275&quot;,&quot;0&quot;,evt);" onmouseout="segmouseout(&quot;275&quot;,&quot;0&quot;,evt);" onclick="segclick(&quot;275&quot;,&quot;0&quot;,evt);"></path></g></g></g><g id="276"><path style="stroke:#bdbddf; stroke-width:8px; fill:none;" opacity="0.7" d="M 513,395 H 517.5 a 4.5,4.5 0 0,0 4.5,-4.5 V 362 a 12,12 0 0,1 12,-12L 546,350"></path><g><path style="stroke:#ff0; stroke-width:8px; fill:none; " opacity="0" d="M 513,395 H 517.5 a 4.5,4.5 0 0,0 4.5,-4.5 V 362 a 12,12 0 0,1 12,-12L 546,350"></path></g><path style="stroke:black; fill:none;" d="M 513,395 H 517.5 a 4.5,4.5 0 0,0 4.5,-4.5 V 362 a 12,12 0 0,1 12,-12L 546,350"></path><g><g><path style="stroke:#0ff; stroke-width:8px; fill:none; " opacity="0" d="M 513,395 L 522,395" onmousedown="segmousedown(&quot;276&quot;,&quot;0&quot;,evt);" onmouseover="segmouseover(&quot;276&quot;,&quot;0&quot;,evt);" onmouseout="segmouseout(&quot;276&quot;,&quot;0&quot;,evt);" onclick="segclick(&quot;276&quot;,&quot;0&quot;,evt);"></path><path style="stroke:#0ff; stroke-width:8px; fill:none; " opacity="0" d="M 522,395 L 522,350" onmousedown="segmousedown(&quot;276&quot;,&quot;1&quot;,evt);" onmouseover="segmouseover(&quot;276&quot;,&quot;1&quot;,evt);" onmouseout="segmouseout(&quot;276&quot;,&quot;1&quot;,evt);" onclick="segclick(&quot;276&quot;,&quot;1&quot;,evt);"></path><path style="stroke:#0ff; stroke-width:8px; fill:none; " opacity="0" d="M 522,350 L 546,350" onmousedown="segmousedown(&quot;276&quot;,&quot;2&quot;,evt);" onmouseover="segmouseover(&quot;276&quot;,&quot;2&quot;,evt);" onmouseout="segmouseout(&quot;276&quot;,&quot;2&quot;,evt);" onclick="segclick(&quot;276&quot;,&quot;2&quot;,evt);"></path></g></g></g><g id="277"><path style="stroke:#bdbddf; stroke-width:8px; fill:none;" opacity="0.7" d="M 576,350 H 601 a 12,12 0 0,1 12,12L 613,384"></path><g><path style="stroke:#ff0; stroke-width:8px; fill:none; " opacity="0" d="M 576,350 H 601 a 12,12 0 0,1 12,12L 613,384"></path></g><path style="stroke:black; fill:none;" d="M 576,350 H 601 a 12,12 0 0,1 12,12L 613,384"></path><g><g><path style="stroke:#0ff; stroke-width:8px; fill:none; " opacity="0" d="M 576,350 L 613,350" onmousedown="segmousedown(&quot;277&quot;,&quot;0&quot;,evt);" onmouseover="segmouseover(&quot;277&quot;,&quot;0&quot;,evt);" onmouseout="segmouseout(&quot;277&quot;,&quot;0&quot;,evt);" onclick="segclick(&quot;277&quot;,&quot;0&quot;,evt);"></path><path style="stroke:#0ff; stroke-width:8px; fill:none; " opacity="0" d="M 613,350 L 613,384" onmousedown="segmousedown(&quot;277&quot;,&quot;1&quot;,evt);" onmouseover="segmouseover(&quot;277&quot;,&quot;1&quot;,evt);" onmouseout="segmouseout(&quot;277&quot;,&quot;1&quot;,evt);" onclick="segclick(&quot;277&quot;,&quot;1&quot;,evt);"></path></g></g></g><g id="278"><path style="stroke:#bdbddf; stroke-width:8px; fill:none;" opacity="0.7" d="M 613,414 V 435 a 12,12 0 0,1 -12,12L 578,447"></path><g><path style="stroke:#ff0; stroke-width:8px; fill:none; " opacity="0" d="M 613,414 V 435 a 12,12 0 0,1 -12,12L 578,447"></path></g><path style="stroke:black; fill:none;" d="M 613,414 V 435 a 12,12 0 0,1 -12,12L 578,447"></path><g><g><path style="stroke:#0ff; stroke-width:8px; fill:none; " opacity="0" d="M 613,414 L 613,447" onmousedown="segmousedown(&quot;278&quot;,&quot;0&quot;,evt);" onmouseover="segmouseover(&quot;278&quot;,&quot;0&quot;,evt);" onmouseout="segmouseout(&quot;278&quot;,&quot;0&quot;,evt);" onclick="segclick(&quot;278&quot;,&quot;0&quot;,evt);"></path><path style="stroke:#0ff; stroke-width:8px; fill:none; " opacity="0" d="M 613,447 L 578,447" onmousedown="segmousedown(&quot;278&quot;,&quot;1&quot;,evt);" onmouseover="segmouseover(&quot;278&quot;,&quot;1&quot;,evt);" onmouseout="segmouseout(&quot;278&quot;,&quot;1&quot;,evt);" onclick="segclick(&quot;278&quot;,&quot;1&quot;,evt);"></path></g></g></g><g id="279"><path style="stroke:#bdbddf; stroke-width:8px; fill:none;" opacity="0.7" d="M 548,439 H 537.5 a 10.5,10.5 0 0,1 -10.5,-10.5 V 414 a 7,7 0 0,0 -7,-7L 513,407"></path><g><path style="stroke:#ff0; stroke-width:8px; fill:none; " opacity="0" d="M 548,439 H 537.5 a 10.5,10.5 0 0,1 -10.5,-10.5 V 414 a 7,7 0 0,0 -7,-7L 513,407"></path></g><path style="stroke:black; fill:none;" d="M 548,439 H 537.5 a 10.5,10.5 0 0,1 -10.5,-10.5 V 414 a 7,7 0 0,0 -7,-7L 513,407"></path><g><g><path style="stroke:#0ff; stroke-width:8px; fill:none; " opacity="0" d="M 548,439 L 527,439" onmousedown="segmousedown(&quot;279&quot;,&quot;0&quot;,evt);" onmouseover="segmouseover(&quot;279&quot;,&quot;0&quot;,evt);" onmouseout="segmouseout(&quot;279&quot;,&quot;0&quot;,evt);" onclick="segclick(&quot;279&quot;,&quot;0&quot;,evt);"></path><path style="stroke:#0ff; stroke-width:8px; fill:none; " opacity="0" d="M 527,439 L 527,407" onmousedown="segmousedown(&quot;279&quot;,&quot;1&quot;,evt);" onmouseover="segmouseover(&quot;279&quot;,&quot;1&quot;,evt);" onmouseout="segmouseout(&quot;279&quot;,&quot;1&quot;,evt);" onclick="segclick(&quot;279&quot;,&quot;1&quot;,evt);"></path><path style="stroke:#0ff; stroke-width:8px; fill:none; " opacity="0" d="M 527,407 L 513,407" onmousedown="segmousedown(&quot;279&quot;,&quot;2&quot;,evt);" onmouseover="segmouseover(&quot;279&quot;,&quot;2&quot;,evt);" onmouseout="segmouseout(&quot;279&quot;,&quot;2&quot;,evt);" onclick="segclick(&quot;279&quot;,&quot;2&quot;,evt);"></path></g></g></g></g>
  <g id="nodes"><g id="261" onmousedown="nodemousedown(261,evt);" onmouseover="nodemouseover(261,evt);" onmouseout="nodemouseout(261,evt);" transform="translate(164,519)"><rect x="-31" y="-21" width="62" height="42" fill="#0ff" style="stroke:none; opacity:0.75;" display="none"></rect><rect x="-25" y="-15" width="50" height="30" fill="#f0f0d2" style="stroke:black; opacity:1;"></rect></g><g id="260" onmousedown="nodemousedown(260,evt);" onmouseover="nodemouseover(260,evt);" onmouseout="nodemouseout(260,evt);" transform="translate(164,395)"><rect x="-21" y="-21" width="42" height="42" fill="#0ff" style="stroke:none; opacity:0.75;" display="none"></rect><rect x="-15" y="-15" width="30" height="30" fill="#f0f0d2" style="stroke:black; opacity:1;"></rect></g><g id="256" onmousedown="nodemousedown(256,evt);" onmouseover="nodemouseover(256,evt);" onmouseout="nodemouseout(256,evt);" transform="translate(330,391)"><rect x="-27" y="-31.5" width="54" height="63" fill="#0ff" style="stroke:none; opacity:0.75;" display="none"></rect><rect x="-21" y="-25.5" width="42" height="51" fill="#f0f0d2" style="stroke:black; opacity:1;"></rect></g><g id="257" onmousedown="nodemousedown(257,evt);" onmouseover="nodemouseover(257,evt);" onmouseout="nodemouseout(257,evt);" transform="translate(425,511)"><rect x="-21" y="-21" width="42" height="42" fill="#0ff" style="stroke:none; opacity:0.75;" display="none"></rect><rect x="-15" y="-15" width="30" height="30" fill="#f0f0d2" style="stroke:black; opacity:1;"></rect></g><g id="259" onmousedown="nodemousedown(259,evt);" onmouseover="nodemouseover(259,evt);" onmouseout="nodemouseout(259,evt);" transform="translate(240,397)"><rect x="-21" y="-21" width="42" height="42" fill="#0ff" style="stroke:none; opacity:0.75;" display="none"></rect><rect x="-15" y="-15" width="30" height="30" fill="#f0f0d2" style="stroke:black; opacity:1;"></rect></g><g id="262" onmousedown="nodemousedown(262,evt);" onmouseover="nodemouseover(262,evt);" onmouseout="nodemouseout(262,evt);" transform="translate(73,519)"><rect x="-21" y="-21" width="42" height="42" fill="#0ff" style="stroke:none; opacity:0.75;" display="none"></rect><rect x="-15" y="-15" width="30" height="30" fill="#f0f0d2" style="stroke:black; opacity:1;"></rect></g><g id="253" onmousedown="nodemousedown(253,evt);" onmouseover="nodemouseover(253,evt);" onmouseout="nodemouseout(253,evt);" transform="translate(432,259)"><rect x="-21" y="-21" width="42" height="42" fill="#0ff" style="stroke:none; opacity:0.75;" display="none"></rect><rect x="-15" y="-15" width="30" height="30" fill="#f0f0d2" style="stroke:black; opacity:1;"></rect></g><g id="255" onmousedown="nodemousedown(255,evt);" onmouseover="nodemouseover(255,evt);" onmouseout="nodemouseout(255,evt);" transform="translate(337,319)"><rect x="-21" y="-21" width="42" height="42" fill="#0ff" style="stroke:none; opacity:0.75;" display="none"></rect><rect x="-15" y="-15" width="30" height="30" fill="#f0f0d2" style="stroke:black; opacity:1;"></rect></g><g id="254" onmousedown="nodemousedown(254,evt);" onmouseover="nodemouseover(254,evt);" onmouseout="nodemouseout(254,evt);" transform="translate(337,259)"><rect x="-32.5" y="-21" width="65" height="42" fill="#0ff" style="stroke:none; opacity:0.75;" display="none"></rect><rect x="-26.5" y="-15" width="53" height="30" fill="#f0f0d2" style="stroke:black; opacity:1;"></rect></g><g id="258" onmousedown="nodemousedown(258,evt);" onmouseover="nodemouseover(258,evt);" onmouseout="nodemouseout(258,evt);" transform="translate(498,395)"><rect x="-21" y="-21" width="42" height="42" fill="#0ff" style="stroke:none; opacity:0.75;" display="none"></rect><rect x="-15" y="-15" width="30" height="30" fill="#f0f0d2" style="stroke:black; opacity:1;"></rect></g><g id="264" onmousedown="nodemousedown(264,evt);" onmouseover="nodemouseover(264,evt);" onmouseout="nodemouseout(264,evt);" transform="translate(613,399)"><rect x="-21" y="-21" width="42" height="42" fill="#0ff" style="stroke:none; opacity:0.75;" display="none"></rect><rect x="-15" y="-15" width="30" height="30" fill="#f0f0d2" style="stroke:black; opacity:1;"></rect></g><g id="263" onmousedown="nodemousedown(263,evt);" onmouseover="nodemouseover(263,evt);" onmouseout="nodemouseout(263,evt);" transform="translate(561,350)"><rect x="-21" y="-34" width="42" height="68" fill="#0ff" style="stroke:none; opacity:0.75;" display="none"></rect><rect x="-15" y="-28" width="30" height="56" fill="#f0f0d2" style="stroke:black; opacity:1;"></rect></g><g id="265" onmousedown="nodemousedown(265,evt);" onmouseover="nodemouseover(265,evt);" onmouseout="nodemouseout(265,evt);" transform="translate(563,447)"><rect x="-21" y="-21" width="42" height="42" fill="#0ff" style="stroke:none; opacity:0.75;" display="none"></rect><rect x="-15" y="-15" width="30" height="30" fill="#f0f0d2" style="stroke:black; opacity:1;"></rect></g></g>
  <g id="BPs"><g onmousedown="bpmousedown(289,evt);" onmouseover="bpmouseover(289,evt);" onmouseout="bpmouseout(289,evt);" transform="translate(489,259)" opacity="0"><ellipse cx="0" cy="0" rx="16" ry="16" fill="#0ff" style="stroke:none; opacity:0.75;" display="none"></ellipse><ellipse cx="0" cy="0" rx="10.869565217391305" ry="10.869565217391305" fill="#777" style="stroke:black;"></ellipse></g><g onmousedown="bpmousedown(295,evt);" onmouseover="bpmouseover(295,evt);" onmouseout="bpmouseout(295,evt);" transform="translate(240,519)" opacity="0"><ellipse cx="0" cy="0" rx="16" ry="16" fill="#0ff" style="stroke:none; opacity:0.75;" display="none"></ellipse><ellipse cx="0" cy="0" rx="9.200000000000001" ry="9.200000000000001" fill="#777" style="stroke:black;"></ellipse></g><g onmousedown="bpmousedown(301,evt);" onmouseover="bpmouseover(301,evt);" onmouseout="bpmouseout(301,evt);" transform="translate(336,511)" opacity="0"><ellipse cx="0" cy="0" rx="16" ry="16" fill="#0ff" style="stroke:none; opacity:0.75;" display="none"></ellipse><ellipse cx="0" cy="0" rx="9.200000000000001" ry="9.200000000000001" fill="#777" style="stroke:black;"></ellipse></g><g onmousedown="bpmousedown(305,evt);" onmouseover="bpmouseover(305,evt);" onmouseout="bpmouseout(305,evt);" transform="translate(493,511)" opacity="0"><ellipse cx="0" cy="0" rx="16" ry="16" fill="#0ff" style="stroke:none; opacity:0.75;" display="none"></ellipse><ellipse cx="0" cy="0" rx="10.869565217391305" ry="10.869565217391305" fill="#777" style="stroke:black;"></ellipse></g><g onmousedown="bpmousedown(361,evt);" onmouseover="bpmouseover(361,evt);" onmouseout="bpmouseout(361,evt);" transform="translate(613,447)" opacity="0"><ellipse cx="0" cy="0" rx="16" ry="16" fill="#0ff" style="stroke:none; opacity:0.75;" display="none"></ellipse><ellipse cx="0" cy="0" rx="10.869565217391305" ry="10.869565217391305" fill="#777" style="stroke:black;"></ellipse></g><g onmousedown="bpmousedown(364,evt);" onmouseover="bpmouseover(364,evt);" onmouseout="bpmouseout(364,evt);" transform="translate(522,350)" opacity="0"><ellipse cx="0" cy="0" rx="16" ry="16" fill="#0ff" style="stroke:none; opacity:0.75;" display="none"></ellipse><ellipse cx="0" cy="0" rx="10.869565217391305" ry="10.869565217391305" fill="#777" style="stroke:black;"></ellipse></g><g onmousedown="bpmousedown(366,evt);" onmouseover="bpmouseover(366,evt);" onmouseout="bpmouseout(366,evt);" transform="translate(522,395)" opacity="0"><ellipse cx="0" cy="0" rx="16" ry="16" fill="#0ff" style="stroke:none; opacity:0.75;" display="none"></ellipse><ellipse cx="0" cy="0" rx="10.869565217391305" ry="10.869565217391305" fill="#777" style="stroke:black;"></ellipse></g><g onmousedown="bpmousedown(367,evt);" onmouseover="bpmouseover(367,evt);" onmouseout="bpmouseout(367,evt);" transform="translate(527,439)" opacity="0"><ellipse cx="0" cy="0" rx="16" ry="16" fill="#0ff" style="stroke:none; opacity:0.75;" display="none"></ellipse><ellipse cx="0" cy="0" rx="10.869565217391305" ry="10.869565217391305" fill="#777" style="stroke:black;"></ellipse></g><g onmousedown="bpmousedown(368,evt);" onmouseover="bpmouseover(368,evt);" onmouseout="bpmouseout(368,evt);" transform="translate(527 407)" opacity="0"><ellipse cx="0" cy="0" rx="16" ry="16" fill="#0ff" style="stroke:none; opacity:0.75;" display="none"></ellipse><ellipse cx="0" cy="0" rx="10.869565217391305" ry="10.869565217391305" fill="#777" style="stroke:black;"></ellipse></g><g onmousedown="bpmousedown(369,evt);" onmouseover="bpmouseover(369,evt);" onmouseout="bpmouseout(369,evt);" transform="translate(613,350)" opacity="0"><ellipse cx="0" cy="0" rx="16" ry="16" fill="#0ff" style="stroke:none; opacity:0.75;" display="none"></ellipse><ellipse cx="0" cy="0" rx="10.869565217391305" ry="10.869565217391305" fill="#777" style="stroke:black;"></ellipse></g></g>
  <g id="ports"></g>
  <path style="stroke:black; fill:none;" d="M 337,334L 337,420"></path>
</g>
</svg>
