<svg id="SVGCanvas" width="480px" height="270px" xmlns="http://www.w3.org/2000/svg" xmlns:xlink="http://www.w3.org/1999/xlink" onmouseup="null" onmousemove="null">
<rect id="background" x="0" y="0" height="100%" width="100%" fill="#bdbddf" onmousedown="bgmousedown(evt)"></rect>
<g id="foreground" transform="translate(40.83650190114071,0),scale(0.6844106463878327),translate(57,-102.5)">
  <g id="edges"><g id="169"><path style="stroke:#bdbddf; stroke-width:8px; fill:none;" opacity="0.7" d="M -12,141 H 285 a 12,12 0 0,1 12,12 V 455 a 12,12 0 0,1 -12,12L 242,467"></path><g><path style="stroke:#ff0; stroke-width:8px; fill:none; " opacity="0" d="M -12,141 H 285 a 12,12 0 0,1 12,12 V 455 a 12,12 0 0,1 -12,12L 242,467"></path></g><path style="stroke:black; fill:none;" d="M -12,141 H 285 a 12,12 0 0,1 12,12 V 455 a 12,12 0 0,1 -12,12L 242,467"></path><g><g><path style="stroke:#0ff; stroke-width:8px; fill:none; " opacity="0" d="M -12,141 L 297,141" onmousedown="segmousedown(&quot;169&quot;,&quot;0&quot;,evt);" onmouseover="segmouseover(&quot;169&quot;,&quot;0&quot;,evt);" onmouseout="segmouseout(&quot;169&quot;,&quot;0&quot;,evt);" onclick="segclick(&quot;169&quot;,&quot;0&quot;,evt);"></path><path style="stroke:#0ff; stroke-width:8px; fill:none; " opacity="0" d="M 297,141 L 297,467" onmousedown="segmousedown(&quot;169&quot;,&quot;1&quot;,evt);" onmouseover="segmouseover(&quot;169&quot;,&quot;1&quot;,evt);" onmouseout="segmouseout(&quot;169&quot;,&quot;1&quot;,evt);" onclick="segclick(&quot;169&quot;,&quot;1&quot;,evt);"></path><path style="stroke:#0ff; stroke-width:8px; fill:none; " opacity="0" d="M 297,467 L 242,467" onmousedown="segmousedown(&quot;169&quot;,&quot;2&quot;,evt);" onmouseover="segmouseover(&quot;169&quot;,&quot;2&quot;,evt);" onmouseout="segmouseout(&quot;169&quot;,&quot;2&quot;,evt);" onclick="segclick(&quot;169&quot;,&quot;2&quot;,evt);"></path></g></g></g><g id="170"><path style="stroke:#bdbddf; stroke-width:8px; fill:none;" opacity="0.7" d="M 212,467 H 49 a 12,12 0 0,1 -12,-12L 37,367"></path><g><path style="stroke:#ff0; stroke-width:8px; fill:none; " opacity="0" d="M 212,467 H 49 a 12,12 0 0,1 -12,-12L 37,367"></path></g><path style="stroke:black; fill:none;" d="M 212,467 H 49 a 12,12 0 0,1 -12,-12L 37,367"></path><g><g><path style="stroke:#0ff; stroke-width:8px; fill:none; " opacity="0" d="M 212,467 L 37,467" onmousedown="segmousedown(&quot;170&quot;,&quot;0&quot;,evt);" onmouseover="segmouseover(&quot;170&quot;,&quot;0&quot;,evt);" onmouseout="segmouseout(&quot;170&quot;,&quot;0&quot;,evt);" onclick="segclick(&quot;170&quot;,&quot;0&quot;,evt);"></path><path style="stroke:#0ff; stroke-width:8px; fill:none; " opacity="0" d="M 37,467 L 37,367" onmousedown="segmousedown(&quot;170&quot;,&quot;1&quot;,evt);" onmouseover="segmouseover(&quot;170&quot;,&quot;1&quot;,evt);" onmouseout="segmouseout(&quot;170&quot;,&quot;1&quot;,evt);" onclick="segclick(&quot;170&quot;,&quot;1&quot;,evt);"></path></g></g></g><g id="171"><path style="stroke:#bdbddf; stroke-width:8px; fill:none;" opacity="0.7" d="M 62,352 H 452 a 12,12 0 0,0 12,-12L 464,164.5"></path><g><path style="stroke:#ff0; stroke-width:8px; fill:none; " opacity="0" d="M 62,352 H 452 a 12,12 0 0,0 12,-12L 464,164.5"></path></g><path style="stroke:black; fill:none;" d="M 62,352 H 452 a 12,12 0 0,0 12,-12L 464,164.5"></path><g><g><path style="stroke:#0ff; stroke-width:8px; fill:none; " opacity="0" d="M 62,352 L 464,352" onmousedown="segmousedown(&quot;171&quot;,&quot;0&quot;,evt);" onmouseover="segmouseover(&quot;171&quot;,&quot;0&quot;,evt);" onmouseout="segmouseout(&quot;171&quot;,&quot;0&quot;,evt);" onclick="segclick(&quot;171&quot;,&quot;0&quot;,evt);"></path><path style="stroke:#0ff; stroke-width:8px; fill:none; " opacity="0" d="M 464,352 L 464,164.5" onmousedown="segmousedown(&quot;171&quot;,&quot;1&quot;,evt);" onmouseover="segmouseover(&quot;171&quot;,&quot;1&quot;,evt);" onmouseout="segmouseout(&quot;171&quot;,&quot;1&quot;,evt);" onclick="segclick(&quot;171&quot;,&quot;1&quot;,evt);"></path></g></g></g><g id="172"><path style="stroke:#bdbddf; stroke-width:8px; fill:none;" opacity="0.7" d="M 479,141 H 489.5 a 10.5,10.5 0 0,1 10.5,10.5 V 455 a 12,12 0 0,1 -12,12L 242,467"></path><g><path style="stroke:#ff0; stroke-width:8px; fill:none; " opacity="0" d="M 479,141 H 489.5 a 10.5,10.5 0 0,1 10.5,10.5 V 455 a 12,12 0 0,1 -12,12L 242,467"></path></g><path style="stroke:black; fill:none;" d="M 479,141 H 489.5 a 10.5,10.5 0 0,1 10.5,10.5 V 455 a 12,12 0 0,1 -12,12L 242,467"></path><g><g><path style="stroke:#0ff; stroke-width:8px; fill:none; " opacity="0" d="M 479,141 L 500,141" onmousedown="segmousedown(&quot;172&quot;,&quot;0&quot;,evt);" onmouseover="segmouseover(&quot;172&quot;,&quot;0&quot;,evt);" onmouseout="segmouseout(&quot;172&quot;,&quot;0&quot;,evt);" onclick="segclick(&quot;172&quot;,&quot;0&quot;,evt);"></path><path style="stroke:#0ff; stroke-width:8px; fill:none; " opacity="0" d="M 500,141 L 500,467" onmousedown="segmousedown(&quot;172&quot;,&quot;1&quot;,evt);" onmouseover="segmouseover(&quot;172&quot;,&quot;1&quot;,evt);" onmouseout="segmouseout(&quot;172&quot;,&quot;1&quot;,evt);" onclick="segclick(&quot;172&quot;,&quot;1&quot;,evt);"></path><path style="stroke:#0ff; stroke-width:8px; fill:none; " opacity="0" d="M 500,467 L 242,467" onmousedown="segmousedown(&quot;172&quot;,&quot;2&quot;,evt);" onmouseover="segmouseover(&quot;172&quot;,&quot;2&quot;,evt);" onmouseout="segmouseout(&quot;172&quot;,&quot;2&quot;,evt);" onclick="segclick(&quot;172&quot;,&quot;2&quot;,evt);"></path></g></g></g><g id="173"><path style="stroke:#bdbddf; stroke-width:8px; fill:none;" opacity="0.7" d="M 12,357 H -15 a 12,12 0 0,1 -12,-12L -27,156"></path><g><path style="stroke:#ff0; stroke-width:8px; fill:none; " opacity="0" d="M 12,357 H -15 a 12,12 0 0,1 -12,-12L -27,156"></path></g><path style="stroke:black; fill:none;" d="M 12,357 H -15 a 12,12 0 0,1 -12,-12L -27,156"></path><g><g><path style="stroke:#0ff; stroke-width:8px; fill:none; " opacity="0" d="M 12,357 L -27,357" onmousedown="segmousedown(&quot;173&quot;,&quot;0&quot;,evt);" onmouseover="segmouseover(&quot;173&quot;,&quot;0&quot;,evt);" onmouseout="segmouseout(&quot;173&quot;,&quot;0&quot;,evt);" onclick="segclick(&quot;173&quot;,&quot;0&quot;,evt);"></path><path style="stroke:#0ff; stroke-width:8px; fill:none; " opacity="0" d="M -27,357 L -27,156" onmousedown="segmousedown(&quot;173&quot;,&quot;1&quot;,evt);" onmouseover="segmouseover(&quot;173&quot;,&quot;1&quot;,evt);" onmouseout="segmouseout(&quot;173&quot;,&quot;1&quot;,evt);" onclick="segclick(&quot;173&quot;,&quot;1&quot;,evt);"></path></g></g></g><g id="174"><path style="stroke:#bdbddf; stroke-width:8px; fill:none;" opacity="0.7" d="M -12,141L 449,141"></path><g><path style="stroke:#ff0; stroke-width:8px; fill:none; " opacity="0" d="M -12,141L 449,141"></path></g><path style="stroke:black; fill:none;" d="M -12,141L 449,141"></path><g><g><path style="stroke:#0ff; stroke-width:8px; fill:none; " opacity="0" d="M -12,141 L 449,141" onmousedown="segmousedown(&quot;174&quot;,&quot;0&quot;,evt);" onmouseover="segmouseover(&quot;174&quot;,&quot;0&quot;,evt);" onmouseout="segmouseout(&quot;174&quot;,&quot;0&quot;,evt);" onclick="segclick(&quot;174&quot;,&quot;0&quot;,evt);"></path></g></g></g></g>
  <g id="nodes"><g id="168" onmousedown="nodemousedown(168,evt);" onmouseover="nodemouseover(168,evt);" onmouseout="nodemouseout(168,evt);" transform="translate(-27,141)"><rect x="-21" y="-21" width="42" height="42" fill="#0ff" style="stroke:none; opacity:0.75;" display="none"></rect><rect x="-15" y="-15" width="30" height="30" fill="#f0f0d2" style="stroke:black; opacity:1;"></rect></g><g id="167" onmousedown="nodemousedown(167,evt);" onmouseover="nodemouseover(167,evt);" onmouseout="nodemouseout(167,evt);" transform="translate(227,467)"><rect x="-21" y="-21" width="42" height="42" fill="#0ff" style="stroke:none; opacity:0.75;" display="none"></rect><rect x="-15" y="-15" width="30" height="30" fill="#f0f0d2" style="stroke:black; opacity:1;"></rect></g><g id="165" onmousedown="nodemousedown(165,evt);" onmouseover="nodemouseover(165,evt);" onmouseout="nodemouseout(165,evt);" transform="translate(37,352)"><rect x="-31" y="-21" width="62" height="42" fill="#0ff" style="stroke:none; opacity:0.75;" display="none"></rect><rect x="-25" y="-15" width="50" height="30" fill="#f0f0d2" style="stroke:black; opacity:1;"></rect></g><g id="166" onmousedown="nodemousedown(166,evt);" onmouseover="nodemouseover(166,evt);" onmouseout="nodemouseout(166,evt);" transform="translate(464,141)"><rect x="-21" y="-29.5" width="42" height="59" fill="#0ff" style="stroke:none; opacity:0.75;" display="none"></rect><rect x="-15" y="-23.5" width="30" height="47" fill="#f0f0d2" style="stroke:black; opacity:1;"></rect></g></g>
  <g id="BPs"><g onmousedown="bpmousedown(177,evt);" onmouseover="bpmouseover(177,evt);" onmouseout="bpmouseout(177,evt);" transform="translate(297,141)" opacity="0"><ellipse cx="0" cy="0" rx="16" ry="16" fill="#0ff" style="stroke:none; opacity:0.75;" display="none"></ellipse><ellipse cx="0" cy="0" rx="5.132188731375618" ry="5.132188731375618" fill="#777" style="stroke:black;"></ellipse></g><g onmousedown="bpmousedown(178,evt);" onmouseover="bpmouseover(178,evt);" onmouseout="bpmouseout(178,evt);" transform="translate(297,467)" opacity="0"><ellipse cx="0" cy="0" rx="16" ry="16" fill="#0ff" style="stroke:none; opacity:0.75;" display="none"></ellipse><ellipse cx="0" cy="0" rx="5.132188731375618" ry="5.132188731375618" fill="#777" style="stroke:black;"></ellipse></g><g onmousedown="bpmousedown(182,evt);" onmouseover="bpmouseover(182,evt);" onmouseout="bpmouseout(182,evt);" transform="translate(37,467)" opacity="0"><ellipse cx="0" cy="0" rx="16" ry="16" fill="#0ff" style="stroke:none; opacity:0.75;" display="none"></ellipse><ellipse cx="0" cy="0" rx="5.132188731375618" ry="5.132188731375618" fill="#777" style="stroke:black;"></ellipse></g><g onmousedown="bpmousedown(186,evt);" onmouseover="bpmouseover(186,evt);" onmouseout="bpmouseout(186,evt);" transform="translate(464,352)" opacity="0"><ellipse cx="0" cy="0" rx="16" ry="16" fill="#0ff" style="stroke:none; opacity:0.75;" display="none"></ellipse><ellipse cx="0" cy="0" rx="5.132188731375618" ry="5.132188731375618" fill="#777" style="stroke:black;"></ellipse></g><g onmousedown="bpmousedown(189,evt);" onmouseover="bpmouseover(189,evt);" onmouseout="bpmouseout(189,evt);" transform="translate(500,141)" opacity="0"><ellipse cx="0" cy="0" rx="16" ry="16" fill="#0ff" style="stroke:none; opacity:0.75;" display="none"></ellipse><ellipse cx="0" cy="0" rx="5.132188731375618" ry="5.132188731375618" fill="#777" style="stroke:black;"></ellipse></g><g onmousedown="bpmousedown(190,evt);" onmouseover="bpmouseover(190,evt);" onmouseout="bpmouseout(190,evt);" transform="translate(500,467)" opacity="0"><ellipse cx="0" cy="0" rx="16" ry="16" fill="#0ff" style="stroke:none; opacity:0.75;" display="none"></ellipse><ellipse cx="0" cy="0" rx="5.132188731375618" ry="5.132188731375618" fill="#777" style="stroke:black;"></ellipse></g><g onmousedown="bpmousedown(195,evt);" onmouseover="bpmouseover(195,evt);" onmouseout="bpmouseout(195,evt);" transform="translate(-27,357)" opacity="0"><ellipse cx="0" cy="0" rx="16" ry="16" fill="#0ff" style="stroke:none; opacity:0.75;" display="none"></ellipse><ellipse cx="0" cy="0" rx="5.132188731375618" ry="5.132188731375618" fill="#777" style="stroke:black;"></ellipse></g></g>
  <g id="ports"></g>
</g>
</svg>