<svg id="SVGCanvas" width="480px" height="270px" xmlns="http://www.w3.org/2000/svg" xmlns:xlink="http://www.w3.org/1999/xlink" onmouseup="null" onmousemove="null">
<rect id="background" x="0" y="0" height="100%" width="100%" fill="#bdbddf" onmousedown="bgmousedown(evt)"></rect>
<g id="foreground" transform="translate(16.444954128440372,0),scale(0.6192660550458715),translate(-33,-113)">
  <g id="edges"><g id="266"><path style="stroke:#bdbddf; stroke-width:8px; fill:none;" opacity="0.7" d="M 510,138 H 478 a 12,12 0 0,0 -12,12L 466,178"></path><g><path style="stroke:#ff0; stroke-width:8px; fill:none; " opacity="0" d="M 510,138 H 478 a 12,12 0 0,0 -12,12L 466,178"></path></g><path style="stroke:black; fill:none;" d="M 510,138 H 478 a 12,12 0 0,0 -12,12L 466,178"></path><g><g><path style="stroke:#0ff; stroke-width:8px; fill:none; " opacity="0" d="M 510,138 L 466,138" onmousedown="segmousedown(&quot;266&quot;,&quot;0&quot;,evt);" onmouseover="segmouseover(&quot;266&quot;,&quot;0&quot;,evt);" onmouseout="segmouseout(&quot;266&quot;,&quot;0&quot;,evt);" onclick="segclick(&quot;266&quot;,&quot;0&quot;,evt);"></path><path style="stroke:#0ff; stroke-width:8px; fill:none; " opacity="0" d="M 466,138 L 466,178" onmousedown="segmousedown(&quot;266&quot;,&quot;1&quot;,evt);" onmouseover="segmouseover(&quot;266&quot;,&quot;1&quot;,evt);" onmouseout="segmouseout(&quot;266&quot;,&quot;1&quot;,evt);" onclick="segclick(&quot;266&quot;,&quot;1&quot;,evt);"></path></g></g></g><g id="267"><path style="stroke:#bdbddf; stroke-width:8px; fill:none;" opacity="0.7" d="M 467,208L 467,262"></path><g><path style="stroke:#ff0; stroke-width:8px; fill:none; " opacity="0" d="M 467,208L 467,262"></path></g><path style="stroke:black; fill:none;" d="M 467,208L 467,262"></path><g><g><path style="stroke:#0ff; stroke-width:8px; fill:none; " opacity="0" d="M 467,208 L 467,262" onmousedown="segmousedown(&quot;267&quot;,&quot;0&quot;,evt);" onmouseover="segmouseover(&quot;267&quot;,&quot;0&quot;,evt);" onmouseout="segmouseout(&quot;267&quot;,&quot;0&quot;,evt);" onclick="segclick(&quot;267&quot;,&quot;0&quot;,evt);"></path></g></g></g><g id="268"><path style="stroke:#bdbddf; stroke-width:8px; fill:none;" opacity="0.7" d="M 716,403 V 159 a 12,12 0 0,0 -12,-12L 540,147"></path><g><path style="stroke:#ff0; stroke-width:8px; fill:none; " opacity="0" d="M 716,403 V 159 a 12,12 0 0,0 -12,-12L 540,147"></path></g><path style="stroke:black; fill:none;" d="M 716,403 V 159 a 12,12 0 0,0 -12,-12L 540,147"></path><g><g><path style="stroke:#0ff; stroke-width:8px; fill:none; " opacity="0" d="M 716,403 L 716,147" onmousedown="segmousedown(&quot;268&quot;,&quot;0&quot;,evt);" onmouseover="segmouseover(&quot;268&quot;,&quot;0&quot;,evt);" onmouseout="segmouseout(&quot;268&quot;,&quot;0&quot;,evt);" onclick="segclick(&quot;268&quot;,&quot;0&quot;,evt);"></path><path style="stroke:#0ff; stroke-width:8px; fill:none; " opacity="0" d="M 716,147 L 540,147" onmousedown="segmousedown(&quot;268&quot;,&quot;1&quot;,evt);" onmouseover="segmouseover(&quot;268&quot;,&quot;1&quot;,evt);" onmouseout="segmouseout(&quot;268&quot;,&quot;1&quot;,evt);" onclick="segclick(&quot;268&quot;,&quot;1&quot;,evt);"></path></g></g></g><g id="269"><path style="stroke:#bdbddf; stroke-width:8px; fill:none;" opacity="0.7" d="M 728,433 V 507 a 12,12 0 0,1 -12,12L 249,519"></path><g><path style="stroke:#ff0; stroke-width:8px; fill:none; " opacity="0" d="M 728,433 V 507 a 12,12 0 0,1 -12,12L 249,519"></path></g><path style="stroke:black; fill:none;" d="M 728,433 V 507 a 12,12 0 0,1 -12,12L 249,519"></path><g><g><path style="stroke:#0ff; stroke-width:8px; fill:none; " opacity="0" d="M 728,433 L 728,519" onmousedown="segmousedown(&quot;269&quot;,&quot;0&quot;,evt);" onmouseover="segmouseover(&quot;269&quot;,&quot;0&quot;,evt);" onmouseout="segmouseout(&quot;269&quot;,&quot;0&quot;,evt);" onclick="segclick(&quot;269&quot;,&quot;0&quot;,evt);"></path><path style="stroke:#0ff; stroke-width:8px; fill:none; " opacity="0" d="M 728,519 L 249,519" onmousedown="segmousedown(&quot;269&quot;,&quot;1&quot;,evt);" onmouseover="segmouseover(&quot;269&quot;,&quot;1&quot;,evt);" onmouseout="segmouseout(&quot;269&quot;,&quot;1&quot;,evt);" onclick="segclick(&quot;269&quot;,&quot;1&quot;,evt);"></path></g></g></g><g id="270"><path style="stroke:#bdbddf; stroke-width:8px; fill:none;" opacity="0.7" d="M 219,519L 142,519"></path><g><path style="stroke:#ff0; stroke-width:8px; fill:none; " opacity="0" d="M 219,519L 142,519"></path></g><path style="stroke:black; fill:none;" d="M 219,519L 142,519"></path><g><g><path style="stroke:#0ff; stroke-width:8px; fill:none; " opacity="0" d="M 219,519 L 142,519" onmousedown="segmousedown(&quot;270&quot;,&quot;0&quot;,evt);" onmouseover="segmouseover(&quot;270&quot;,&quot;0&quot;,evt);" onmouseout="segmouseout(&quot;270&quot;,&quot;0&quot;,evt);" onclick="segclick(&quot;270&quot;,&quot;0&quot;,evt);"></path></g></g></g><g id="271"><path style="stroke:#bdbddf; stroke-width:8px; fill:none;" opacity="0.7" d="M 467,292L 467,414"></path><g><path style="stroke:#ff0; stroke-width:8px; fill:none; " opacity="0" d="M 467,292L 467,414"></path></g><path style="stroke:black; fill:none;" d="M 467,292L 467,414"></path><g><g><path style="stroke:#0ff; stroke-width:8px; fill:none; " opacity="0" d="M 467,292 L 467,414" onmousedown="segmousedown(&quot;271&quot;,&quot;0&quot;,evt);" onmouseover="segmouseover(&quot;271&quot;,&quot;0&quot;,evt);" onmouseout="segmouseout(&quot;271&quot;,&quot;0&quot;,evt);" onclick="segclick(&quot;271&quot;,&quot;0&quot;,evt);"></path></g></g></g><g id="272"><path style="stroke:#bdbddf; stroke-width:8px; fill:none;" opacity="0.7" d="M 466,414L 466,470"></path><g><path style="stroke:#ff0; stroke-width:8px; fill:none; " opacity="0" d="M 466,414L 466,470"></path></g><path style="stroke:black; fill:none;" d="M 466,414L 466,470"></path><g><g><path style="stroke:#0ff; stroke-width:8px; fill:none; " opacity="0" d="M 466,414 L 466,470" onmousedown="segmousedown(&quot;272&quot;,&quot;0&quot;,evt);" onmouseover="segmouseover(&quot;272&quot;,&quot;0&quot;,evt);" onmouseout="segmouseout(&quot;272&quot;,&quot;0&quot;,evt);" onclick="segclick(&quot;272&quot;,&quot;0&quot;,evt);"></path></g></g></g><g id="273"><path style="stroke:#bdbddf; stroke-width:8px; fill:none;" opacity="0.7" d="M 487,485 H 708 a 12,12 0 0,0 12,-12L 720,433"></path><g><path style="stroke:#ff0; stroke-width:8px; fill:none; " opacity="0" d="M 487,485 H 708 a 12,12 0 0,0 12,-12L 720,433"></path></g><path style="stroke:black; fill:none;" d="M 487,485 H 708 a 12,12 0 0,0 12,-12L 720,433"></path><g><g><path style="stroke:#0ff; stroke-width:8px; fill:none; " opacity="0" d="M 487,485 L 720,485" onmousedown="segmousedown(&quot;273&quot;,&quot;0&quot;,evt);" onmouseover="segmouseover(&quot;273&quot;,&quot;0&quot;,evt);" onmouseout="segmouseout(&quot;273&quot;,&quot;0&quot;,evt);" onclick="segclick(&quot;273&quot;,&quot;0&quot;,evt);"></path><path style="stroke:#0ff; stroke-width:8px; fill:none; " opacity="0" d="M 720,485 L 720,433" onmousedown="segmousedown(&quot;273&quot;,&quot;1&quot;,evt);" onmouseover="segmouseover(&quot;273&quot;,&quot;1&quot;,evt);" onmouseout="segmouseout(&quot;273&quot;,&quot;1&quot;,evt);" onclick="segclick(&quot;273&quot;,&quot;1&quot;,evt);"></path></g></g></g><g id="274"><path style="stroke:#bdbddf; stroke-width:8px; fill:none;" opacity="0.7" d="M 150,504L 150,208"></path><g><path style="stroke:#ff0; stroke-width:8px; fill:none; " opacity="0" d="M 150,504L 150,208"></path></g><path style="stroke:black; fill:none;" d="M 150,504L 150,208"></path><g><g><path style="stroke:#0ff; stroke-width:8px; fill:none; " opacity="0" d="M 150,504 L 150,208" onmousedown="segmousedown(&quot;274&quot;,&quot;0&quot;,evt);" onmouseover="segmouseover(&quot;274&quot;,&quot;0&quot;,evt);" onmouseout="segmouseout(&quot;274&quot;,&quot;0&quot;,evt);" onclick="segclick(&quot;274&quot;,&quot;0&quot;,evt);"></path></g></g></g><g id="275"><path style="stroke:#bdbddf; stroke-width:8px; fill:none;" opacity="0.7" d="M 142,519L 78,519"></path><g><path style="stroke:#ff0; stroke-width:8px; fill:none; " opacity="0" d="M 142,519L 78,519"></path></g><path style="stroke:black; fill:none;" d="M 142,519L 78,519"></path><g><g><path style="stroke:#0ff; stroke-width:8px; fill:none; " opacity="0" d="M 142,519 L 78,519" onmousedown="segmousedown(&quot;275&quot;,&quot;0&quot;,evt);" onmouseover="segmouseover(&quot;275&quot;,&quot;0&quot;,evt);" onmouseout="segmouseout(&quot;275&quot;,&quot;0&quot;,evt);" onclick="segclick(&quot;275&quot;,&quot;0&quot;,evt);"></path></g></g></g><g id="276"><path style="stroke:#bdbddf; stroke-width:8px; fill:none;" opacity="0.7" d="M 710,407 H 638 a 12,12 0 0,1 -12,-12L 626,278"></path><g><path style="stroke:#ff0; stroke-width:8px; fill:none; " opacity="0" d="M 710,407 H 638 a 12,12 0 0,1 -12,-12L 626,278"></path></g><path style="stroke:black; fill:none;" d="M 710,407 H 638 a 12,12 0 0,1 -12,-12L 626,278"></path><g><g><path style="stroke:#0ff; stroke-width:8px; fill:none; " opacity="0" d="M 710,407 L 626,407" onmousedown="segmousedown(&quot;276&quot;,&quot;0&quot;,evt);" onmouseover="segmouseover(&quot;276&quot;,&quot;0&quot;,evt);" onmouseout="segmouseout(&quot;276&quot;,&quot;0&quot;,evt);" onclick="segclick(&quot;276&quot;,&quot;0&quot;,evt);"></path><path style="stroke:#0ff; stroke-width:8px; fill:none; " opacity="0" d="M 626,407 L 626,278" onmousedown="segmousedown(&quot;276&quot;,&quot;1&quot;,evt);" onmouseover="segmouseover(&quot;276&quot;,&quot;1&quot;,evt);" onmouseout="segmouseout(&quot;276&quot;,&quot;1&quot;,evt);" onclick="segclick(&quot;276&quot;,&quot;1&quot;,evt);"></path></g></g></g><g id="277"><path style="stroke:#bdbddf; stroke-width:8px; fill:none;" opacity="0.7" d="M 611,250L 532,250"></path><g><path style="stroke:#ff0; stroke-width:8px; fill:none; " opacity="0" d="M 611,250L 532,250"></path></g><path style="stroke:black; fill:none;" d="M 611,250L 532,250"></path><g><g><path style="stroke:#0ff; stroke-width:8px; fill:none; " opacity="0" d="M 611,250 L 532,250" onmousedown="segmousedown(&quot;277&quot;,&quot;0&quot;,evt);" onmouseover="segmouseover(&quot;277&quot;,&quot;0&quot;,evt);" onmouseout="segmouseout(&quot;277&quot;,&quot;0&quot;,evt);" onclick="segclick(&quot;277&quot;,&quot;0&quot;,evt);"></path></g></g></g><g id="278"><path style="stroke:#bdbddf; stroke-width:8px; fill:none;" opacity="0.7" d="M 532,250L 532,412"></path><g><path style="stroke:#ff0; stroke-width:8px; fill:none; " opacity="0" d="M 532,250L 532,412"></path></g><path style="stroke:black; fill:none;" d="M 532,250L 532,412"></path><g><g><path style="stroke:#0ff; stroke-width:8px; fill:none; " opacity="0" d="M 532,250 L 532,412" onmousedown="segmousedown(&quot;278&quot;,&quot;0&quot;,evt);" onmouseover="segmouseover(&quot;278&quot;,&quot;0&quot;,evt);" onmouseout="segmouseout(&quot;278&quot;,&quot;0&quot;,evt);" onclick="segclick(&quot;278&quot;,&quot;0&quot;,evt);"></path></g></g></g><g id="279"><path style="stroke:#bdbddf; stroke-width:8px; fill:none;" opacity="0.7" d="M 532,427L 710,427"></path><g><path style="stroke:#ff0; stroke-width:8px; fill:none; " opacity="0" d="M 532,427L 710,427"></path></g><path style="stroke:black; fill:none;" d="M 532,427L 710,427"></path><g><g><path style="stroke:#0ff; stroke-width:8px; fill:none; " opacity="0" d="M 532,427 L 710,427" onmousedown="segmousedown(&quot;279&quot;,&quot;0&quot;,evt);" onmouseover="segmouseover(&quot;279&quot;,&quot;0&quot;,evt);" onmouseout="segmouseout(&quot;279&quot;,&quot;0&quot;,evt);" onclick="segclick(&quot;279&quot;,&quot;0&quot;,evt);"></path></g></g></g></g>
  <g id="nodes"><g id="256" onmousedown="nodemousedown(256,evt);" onmouseover="nodemouseover(256,evt);" onmouseout="nodemouseout(256,evt);" transform="translate(460 414)"><rect x="-27" y="-31.5" width="54" height="63" fill="#0ff" style="stroke:none; opacity:0.75;" display="none"></rect><rect x="-21" y="-25.5" width="42" height="51" fill="#f0f0d2" style="stroke:black; opacity:1;"></rect></g><g id="264" onmousedown="nodemousedown(264,evt);" onmouseover="nodemouseover(264,evt);" onmouseout="nodemouseout(264,evt);" transform="translate(532 250)"><rect x="-21" y="-21" width="42" height="42" fill="#0ff" style="stroke:none; opacity:0.75;" display="none"></rect><rect x="-15" y="-15" width="30" height="30" fill="#f0f0d2" style="stroke:black; opacity:1;"></rect></g><g id="262" onmousedown="nodemousedown(262,evt);" onmouseover="nodemouseover(262,evt);" onmouseout="nodemouseout(262,evt);" transform="translate(63,519)"><rect x="-21" y="-21" width="42" height="42" fill="#0ff" style="stroke:none; opacity:0.75;" display="none"></rect><rect x="-15" y="-15" width="30" height="30" fill="#f0f0d2" style="stroke:black; opacity:1;"></rect></g><g id="259" onmousedown="nodemousedown(259,evt);" onmouseover="nodemouseover(259,evt);" onmouseout="nodemouseout(259,evt);" transform="translate(234,519)"><rect x="-21" y="-21" width="42" height="42" fill="#0ff" style="stroke:none; opacity:0.75;" display="none"></rect><rect x="-15" y="-15" width="30" height="30" fill="#f0f0d2" style="stroke:black; opacity:1;"></rect></g><g id="258" onmousedown="nodemousedown(258,evt);" onmouseover="nodemouseover(258,evt);" onmouseout="nodemouseout(258,evt);" transform="translate(725,418)"><rect x="-21" y="-21" width="42" height="42" fill="#0ff" style="stroke:none; opacity:0.75;" display="none"></rect><rect x="-15" y="-15" width="30" height="30" fill="#f0f0d2" style="stroke:black; opacity:1;"></rect></g><g id="257" onmousedown="nodemousedown(257,evt);" onmouseover="nodemouseover(257,evt);" onmouseout="nodemouseout(257,evt);" transform="translate(472,485)"><rect x="-21" y="-21" width="42" height="42" fill="#0ff" style="stroke:none; opacity:0.75;" display="none"></rect><rect x="-15" y="-15" width="30" height="30" fill="#f0f0d2" style="stroke:black; opacity:1;"></rect></g><g id="255" onmousedown="nodemousedown(255,evt);" onmouseover="nodemouseover(255,evt);" onmouseout="nodemouseout(255,evt);" transform="translate(467,277)"><rect x="-21" y="-21" width="42" height="42" fill="#0ff" style="stroke:none; opacity:0.75;" display="none"></rect><rect x="-15" y="-15" width="30" height="30" fill="#f0f0d2" style="stroke:black; opacity:1;"></rect></g><g id="254" onmousedown="nodemousedown(254,evt);" onmouseover="nodemouseover(254,evt);" onmouseout="nodemouseout(254,evt);" transform="translate(459,193)"><rect x="-32.5" y="-21" width="65" height="42" fill="#0ff" style="stroke:none; opacity:0.75;" display="none"></rect><rect x="-26.5" y="-15" width="53" height="30" fill="#f0f0d2" style="stroke:black; opacity:1;"></rect></g><g id="253" onmousedown="nodemousedown(253,evt);" onmouseover="nodemouseover(253,evt);" onmouseout="nodemouseout(253,evt);" transform="translate(525,147)"><rect x="-21" y="-21" width="42" height="42" fill="#0ff" style="stroke:none; opacity:0.75;" display="none"></rect><rect x="-15" y="-15" width="30" height="30" fill="#f0f0d2" style="stroke:black; opacity:1;"></rect></g><g id="263" onmousedown="nodemousedown(263,evt);" onmouseover="nodemouseover(263,evt);" onmouseout="nodemouseout(263,evt);" transform="translate(626,250)"><rect x="-21" y="-34" width="42" height="68" fill="#0ff" style="stroke:none; opacity:0.75;" display="none"></rect><rect x="-15" y="-28" width="30" height="56" fill="#f0f0d2" style="stroke:black; opacity:1;"></rect></g><g id="265" onmousedown="nodemousedown(265,evt);" onmouseover="nodemouseover(265,evt);" onmouseout="nodemouseout(265,evt);" transform="translate(532,427)"><rect x="-21" y="-21" width="42" height="42" fill="#0ff" style="stroke:none; opacity:0.75;" display="none"></rect><rect x="-15" y="-15" width="30" height="30" fill="#f0f0d2" style="stroke:black; opacity:1;"></rect></g><g id="261" onmousedown="nodemousedown(261,evt);" onmouseover="nodemouseover(261,evt);" onmouseout="nodemouseout(261,evt);" transform="translate(142,519)"><rect x="-31" y="-21" width="62" height="42" fill="#0ff" style="stroke:none; opacity:0.75;" display="none"></rect><rect x="-25" y="-15" width="50" height="30" fill="#f0f0d2" style="stroke:black; opacity:1;"></rect></g><g id="260" onmousedown="nodemousedown(260,evt);" onmouseover="nodemouseover(260,evt);" onmouseout="nodemouseout(260,evt);" transform="translate(151,193)"><rect x="-21" y="-21" width="42" height="42" fill="#0ff" style="stroke:none; opacity:0.75;" display="none"></rect><rect x="-15" y="-15" width="30" height="30" fill="#f0f0d2" style="stroke:black; opacity:1;"></rect></g></g>
  <g id="BPs"><g onmousedown="bpmousedown(282,evt);" onmouseover="bpmouseover(282,evt);" onmouseout="bpmouseout(282,evt);" transform="translate(466,138)" opacity="0"><ellipse cx="0" cy="0" rx="16" ry="16" fill="#0ff" style="stroke:none; opacity:0.75;" display="none"></ellipse><ellipse cx="0" cy="0" rx="6.5908152320000015" ry="6.5908152320000015" fill="#777" style="stroke:black;"></ellipse></g><g onmousedown="bpmousedown(289,evt);" onmouseover="bpmouseover(289,evt);" onmouseout="bpmouseout(289,evt);" transform="translate(716,147)" opacity="0"><ellipse cx="0" cy="0" rx="16" ry="16" fill="#0ff" style="stroke:none; opacity:0.75;" display="none"></ellipse><ellipse cx="0" cy="0" rx="6.5908152320000015" ry="6.5908152320000015" fill="#777" style="stroke:black;"></ellipse></g><g onmousedown="bpmousedown(292,evt);" onmouseover="bpmouseover(292,evt);" onmouseout="bpmouseout(292,evt);" transform="translate(728,519)" opacity="0"><ellipse cx="0" cy="0" rx="16" ry="16" fill="#0ff" style="stroke:none; opacity:0.75;" display="none"></ellipse><ellipse cx="0" cy="0" rx="6.5908152320000015" ry="6.5908152320000015" fill="#777" style="stroke:black;"></ellipse></g><g onmousedown="bpmousedown(305,evt);" onmouseover="bpmouseover(305,evt);" onmouseout="bpmouseout(305,evt);" transform="translate(720,485)" opacity="0"><ellipse cx="0" cy="0" rx="16" ry="16" fill="#0ff" style="stroke:none; opacity:0.75;" display="none"></ellipse><ellipse cx="0" cy="0" rx="6.5908152320000015" ry="6.5908152320000015" fill="#777" style="stroke:black;"></ellipse></g><g onmousedown="bpmousedown(315,evt);" onmouseover="bpmouseover(315,evt);" onmouseout="bpmouseout(315,evt);" transform="translate(626,407)" opacity="0"><ellipse cx="0" cy="0" rx="16" ry="16" fill="#0ff" style="stroke:none; opacity:0.75;" display="none"></ellipse><ellipse cx="0" cy="0" rx="6.5908152320000015" ry="6.5908152320000015" fill="#777" style="stroke:black;"></ellipse></g></g>
  <g id="ports"></g>
</g>
</svg>