<svg id="SVGCanvas" width="480px" height="270px" xmlns="http://www.w3.org/2000/svg" xmlns:xlink="http://www.w3.org/1999/xlink" onmouseup="null" onmousemove="null">
<rect id="background" x="0" y="0" height="100%" width="100%" fill="#bdbddf" onmousedown="bgmousedown(evt)"></rect>
<g id="foreground" transform="translate(0,13.745644599303134),scale(0.8362369337979094),translate(-159,-4)">
  <g id="edges"><g id="201"><path style="stroke:#bdbddf; stroke-width:8px; fill:none;" opacity="0.7" d="M 329,34 H 684 a 12,12 0 0,1 12,12L 696,181"></path><g><path style="stroke:#ff0; stroke-width:8px; fill:none; " opacity="0" d="M 329,34 H 684 a 12,12 0 0,1 12,12L 696,181"></path></g><path style="stroke:black; fill:none;" d="M 329,34 H 684 a 12,12 0 0,1 12,12L 696,181"></path><g><g><path style="stroke:#0ff; stroke-width:8px; fill:none; " opacity="0" d="M 329,34 L 696,34" onmousedown="segmousedown(&quot;201&quot;,&quot;0&quot;,evt);" onmouseover="segmouseover(&quot;201&quot;,&quot;0&quot;,evt);" onmouseout="segmouseout(&quot;201&quot;,&quot;0&quot;,evt);" onclick="segclick(&quot;201&quot;,&quot;0&quot;,evt);"></path><path style="stroke:#0ff; stroke-width:8px; fill:none; " opacity="0" d="M 696,34 L 696,181" onmousedown="segmousedown(&quot;201&quot;,&quot;1&quot;,evt);" onmouseover="segmouseover(&quot;201&quot;,&quot;1&quot;,evt);" onmouseout="segmouseout(&quot;201&quot;,&quot;1&quot;,evt);" onclick="segclick(&quot;201&quot;,&quot;1&quot;,evt);"></path></g></g></g><g id="202"><path style="stroke:#bdbddf; stroke-width:8px; fill:none;" opacity="0.7" d="M 314,49L 314,259"></path><g><path style="stroke:#ff0; stroke-width:8px; fill:none; " opacity="0" d="M 314,49L 314,259"></path></g><path style="stroke:black; fill:none;" d="M 314,49L 314,259"></path><g><g><path style="stroke:#0ff; stroke-width:8px; fill:none; " opacity="0" d="M 314,49 L 314,259" onmousedown="segmousedown(&quot;202&quot;,&quot;0&quot;,evt);" onmouseover="segmouseover(&quot;202&quot;,&quot;0&quot;,evt);" onmouseout="segmouseout(&quot;202&quot;,&quot;0&quot;,evt);" onclick="segclick(&quot;202&quot;,&quot;0&quot;,evt);"></path></g></g></g><g id="203"><path style="stroke:#bdbddf; stroke-width:8px; fill:none;" opacity="0.7" d="M 703,181L 651,181"></path><g><path style="stroke:#ff0; stroke-width:8px; fill:none; " opacity="0" d="M 703,181L 651,181"></path></g><path style="stroke:black; fill:none;" d="M 703,181L 651,181"></path><g><g><path style="stroke:#0ff; stroke-width:8px; fill:none; " opacity="0" d="M 703,181 L 651,181" onmousedown="segmousedown(&quot;203&quot;,&quot;0&quot;,evt);" onmouseover="segmouseover(&quot;203&quot;,&quot;0&quot;,evt);" onmouseout="segmouseout(&quot;203&quot;,&quot;0&quot;,evt);" onclick="segclick(&quot;203&quot;,&quot;0&quot;,evt);"></path></g></g></g><g id="204"><path style="stroke:#bdbddf; stroke-width:8px; fill:none;" opacity="0.7" d="M 703,196L 703,225"></path><g><path style="stroke:#ff0; stroke-width:8px; fill:none; " opacity="0" d="M 703,196L 703,225"></path></g><path style="stroke:black; fill:none;" d="M 703,196L 703,225"></path><g><g><path style="stroke:#0ff; stroke-width:8px; fill:none; " opacity="0" d="M 703,196 L 703,225" onmousedown="segmousedown(&quot;204&quot;,&quot;0&quot;,evt);" onmouseover="segmouseover(&quot;204&quot;,&quot;0&quot;,evt);" onmouseout="segmouseout(&quot;204&quot;,&quot;0&quot;,evt);" onclick="segclick(&quot;204&quot;,&quot;0&quot;,evt);"></path></g></g></g><g id="205"><path style="stroke:#bdbddf; stroke-width:8px; fill:none;" opacity="0.7" d="M 314,259L 494,259"></path><g><path style="stroke:#ff0; stroke-width:8px; fill:none; " opacity="0" d="M 314,259L 494,259"></path></g><path style="stroke:black; fill:none;" d="M 314,259L 494,259"></path><g><g><path style="stroke:#0ff; stroke-width:8px; fill:none; " opacity="0" d="M 314,259 L 494,259" onmousedown="segmousedown(&quot;205&quot;,&quot;0&quot;,evt);" onmouseover="segmouseover(&quot;205&quot;,&quot;0&quot;,evt);" onmouseout="segmouseout(&quot;205&quot;,&quot;0&quot;,evt);" onclick="segclick(&quot;205&quot;,&quot;0&quot;,evt);"></path></g></g></g><g id="206"><path style="stroke:#bdbddf; stroke-width:8px; fill:none;" opacity="0.7" d="M 314,259L 204,259"></path><g><path style="stroke:#ff0; stroke-width:8px; fill:none; " opacity="0" d="M 314,259L 204,259"></path></g><path style="stroke:black; fill:none;" d="M 314,259L 204,259"></path><g><g><path style="stroke:#0ff; stroke-width:8px; fill:none; " opacity="0" d="M 314,259 L 204,259" onmousedown="segmousedown(&quot;206&quot;,&quot;0&quot;,evt);" onmouseover="segmouseover(&quot;206&quot;,&quot;0&quot;,evt);" onmouseout="segmouseout(&quot;206&quot;,&quot;0&quot;,evt);" onclick="segclick(&quot;206&quot;,&quot;0&quot;,evt);"></path></g></g></g></g>
  <g id="nodes"><g id="195" onmousedown="nodemousedown(195,evt);" onmouseover="nodemouseover(195,evt);" onmouseout="nodemouseout(195,evt);" transform="translate(703,181)"><rect x="-21" y="-21" width="42" height="42" fill="#0ff" style="stroke:none; opacity:0.75;" display="none"></rect><rect x="-15" y="-15" width="30" height="30" fill="#f0f0d2" style="stroke:black; opacity:1;"></rect></g><g id="196" onmousedown="nodemousedown(196,evt);" onmouseover="nodemouseover(196,evt);" onmouseout="nodemouseout(196,evt);" transform="translate(314 259)"><rect x="-21" y="-21" width="42" height="42" fill="#0ff" style="stroke:none; opacity:0.75;" display="none"></rect><rect x="-15" y="-15" width="30" height="30" fill="#f0f0d2" style="stroke:black; opacity:1;"></rect></g><g id="200" onmousedown="nodemousedown(200,evt);" onmouseover="nodemouseover(200,evt);" onmouseout="nodemouseout(200,evt);" transform="translate(189,264)"><rect x="-21" y="-21" width="42" height="42" fill="#0ff" style="stroke:none; opacity:0.75;" display="none"></rect><rect x="-15" y="-15" width="30" height="30" fill="#f0f0d2" style="stroke:black; opacity:1;"></rect></g><g id="199" onmousedown="nodemousedown(199,evt);" onmouseover="nodemouseover(199,evt);" onmouseout="nodemouseout(199,evt);" transform="translate(509,262)"><rect x="-21" y="-21" width="42" height="42" fill="#0ff" style="stroke:none; opacity:0.75;" display="none"></rect><rect x="-15" y="-15" width="30" height="30" fill="#f0f0d2" style="stroke:black; opacity:1;"></rect></g><g id="198" onmousedown="nodemousedown(198,evt);" onmouseover="nodemouseover(198,evt);" onmouseout="nodemouseout(198,evt);" transform="translate(703,240)"><rect x="-21" y="-21" width="42" height="42" fill="#0ff" style="stroke:none; opacity:0.75;" display="none"></rect><rect x="-15" y="-15" width="30" height="30" fill="#f0f0d2" style="stroke:black; opacity:1;"></rect></g><g id="197" onmousedown="nodemousedown(197,evt);" onmouseover="nodemouseover(197,evt);" onmouseout="nodemouseout(197,evt);" transform="translate(636,181)"><rect x="-21" y="-21" width="42" height="42" fill="#0ff" style="stroke:none; opacity:0.75;" display="none"></rect><rect x="-15" y="-15" width="30" height="30" fill="#f0f0d2" style="stroke:black; opacity:1;"></rect></g><g id="194" onmousedown="nodemousedown(194,evt);" onmouseover="nodemouseover(194,evt);" onmouseout="nodemouseout(194,evt);" transform="translate(314,34)"><rect x="-21" y="-21" width="42" height="42" fill="#0ff" style="stroke:none; opacity:0.75;" display="none"></rect><rect x="-15" y="-15" width="30" height="30" fill="#f0f0d2" style="stroke:black; opacity:1;"></rect></g></g>
  <g id="BPs"><g onmousedown="bpmousedown(209,evt);" onmouseover="bpmouseover(209,evt);" onmouseout="bpmouseout(209,evt);" transform="translate(696,34)" opacity="0"><ellipse cx="0" cy="0" rx="16" ry="16" fill="#0ff" style="stroke:none; opacity:0.75;" display="none"></ellipse><ellipse cx="0" cy="0" rx="6.5908152320000015" ry="6.5908152320000015" fill="#777" style="stroke:black;"></ellipse></g></g>
  <g id="ports"></g>
</g>
</svg>