<svg id="SVGCanvas" width="480px" height="270px" xmlns="http://www.w3.org/2000/svg" xmlns:xlink="http://www.w3.org/1999/xlink" onmouseup="null" onmousemove="null">
<rect id="background" x="0" y="0" height="100%" width="100%" fill="#bdbddf" onmousedown="bgmousedown(evt)"></rect>
<g id="foreground" transform="translate(47.5,0),scale(0.7142857142857143),translate(-28,-169)">
  <g id="edges"><g id="305"><path style="stroke:#bdbddf; stroke-width:8px; fill:none;" opacity="0.7" d="M 73,193L 522,193"></path><g><path style="stroke:#ff0; stroke-width:8px; fill:none; " opacity="0" d="M 73,193L 522,193"></path></g><path style="stroke:black; fill:none;" d="M 73,193L 522,193"></path><g><g><path style="stroke:#0ff; stroke-width:8px; fill:none; " opacity="0" d="M 73,193 L 522,193" onmousedown="segmousedown(&quot;305&quot;,&quot;0&quot;,evt);" onmouseover="segmouseover(&quot;305&quot;,&quot;0&quot;,evt);" onmouseout="segmouseout(&quot;305&quot;,&quot;0&quot;,evt);" onclick="segclick(&quot;305&quot;,&quot;0&quot;,evt);"></path></g></g></g><g id="306"><path style="stroke:#bdbddf; stroke-width:8px; fill:none;" opacity="0.7" d="M 537,214L 537,517"></path><g><path style="stroke:#ff0; stroke-width:8px; fill:none; " opacity="0" d="M 537,214L 537,517"></path></g><path style="stroke:black; fill:none;" d="M 537,214L 537,517"></path><g><g><path style="stroke:#0ff; stroke-width:8px; fill:none; " opacity="0" d="M 537,214 L 537,517" onmousedown="segmousedown(&quot;306&quot;,&quot;0&quot;,evt);" onmouseover="segmouseover(&quot;306&quot;,&quot;0&quot;,evt);" onmouseout="segmouseout(&quot;306&quot;,&quot;0&quot;,evt);" onclick="segclick(&quot;306&quot;,&quot;0&quot;,evt);"></path></g></g></g><g id="307"><path style="stroke:#bdbddf; stroke-width:8px; fill:none;" opacity="0.7" d="M 537,517L 368,517"></path><g><path style="stroke:#ff0; stroke-width:8px; fill:none; " opacity="0" d="M 537,517L 368,517"></path></g><path style="stroke:black; fill:none;" d="M 537,517L 368,517"></path><g><g><path style="stroke:#0ff; stroke-width:8px; fill:none; " opacity="0" d="M 537,517 L 368,517" onmousedown="segmousedown(&quot;307&quot;,&quot;0&quot;,evt);" onmouseover="segmouseover(&quot;307&quot;,&quot;0&quot;,evt);" onmouseout="segmouseout(&quot;307&quot;,&quot;0&quot;,evt);" onclick="segclick(&quot;307&quot;,&quot;0&quot;,evt);"></path></g></g></g><g id="308"><path style="stroke:#bdbddf; stroke-width:8px; fill:none;" opacity="0.7" d="M 338,517L 73,517"></path><g><path style="stroke:#ff0; stroke-width:8px; fill:none; " opacity="0" d="M 338,517L 73,517"></path></g><path style="stroke:black; fill:none;" d="M 338,517L 73,517"></path><g><g><path style="stroke:#0ff; stroke-width:8px; fill:none; " opacity="0" d="M 338,517 L 73,517" onmousedown="segmousedown(&quot;308&quot;,&quot;0&quot;,evt);" onmouseover="segmouseover(&quot;308&quot;,&quot;0&quot;,evt);" onmouseout="segmouseout(&quot;308&quot;,&quot;0&quot;,evt);" onclick="segclick(&quot;308&quot;,&quot;0&quot;,evt);"></path></g></g></g><g id="309"><path style="stroke:#bdbddf; stroke-width:8px; fill:none;" opacity="0.7" d="M 58,502L 58,404"></path><g><path style="stroke:#ff0; stroke-width:8px; fill:none; " opacity="0" d="M 58,502L 58,404"></path></g><path style="stroke:black; fill:none;" d="M 58,502L 58,404"></path><g><g><path style="stroke:#0ff; stroke-width:8px; fill:none; " opacity="0" d="M 58,502 L 58,404" onmousedown="segmousedown(&quot;309&quot;,&quot;0&quot;,evt);" onmouseover="segmouseover(&quot;309&quot;,&quot;0&quot;,evt);" onmouseout="segmouseout(&quot;309&quot;,&quot;0&quot;,evt);" onclick="segclick(&quot;309&quot;,&quot;0&quot;,evt);"></path></g></g></g><g id="310"><path style="stroke:#bdbddf; stroke-width:8px; fill:none;" opacity="0.7" d="M 58,374L 58,214"></path><g><path style="stroke:#ff0; stroke-width:8px; fill:none; " opacity="0" d="M 58,374L 58,214"></path></g><path style="stroke:black; fill:none;" d="M 58,374L 58,214"></path><g><g><path style="stroke:#0ff; stroke-width:8px; fill:none; " opacity="0" d="M 58,374 L 58,214" onmousedown="segmousedown(&quot;310&quot;,&quot;0&quot;,evt);" onmouseover="segmouseover(&quot;310&quot;,&quot;0&quot;,evt);" onmouseout="segmouseout(&quot;310&quot;,&quot;0&quot;,evt);" onclick="segclick(&quot;310&quot;,&quot;0&quot;,evt);"></path></g></g></g><g id="311"><path style="stroke:#bdbddf; stroke-width:8px; fill:none;" opacity="0.7" d="M 73,389L 339,389"></path><g><path style="stroke:#ff0; stroke-width:8px; fill:none; " opacity="0" d="M 73,389L 339,389"></path></g><path style="stroke:black; fill:none;" d="M 73,389L 339,389"></path><g><g><path style="stroke:#0ff; stroke-width:8px; fill:none; " opacity="0" d="M 73,389 L 339,389" onmousedown="segmousedown(&quot;311&quot;,&quot;0&quot;,evt);" onmouseover="segmouseover(&quot;311&quot;,&quot;0&quot;,evt);" onmouseout="segmouseout(&quot;311&quot;,&quot;0&quot;,evt);" onclick="segclick(&quot;311&quot;,&quot;0&quot;,evt);"></path></g></g></g><g id="312"><path style="stroke:#bdbddf; stroke-width:8px; fill:none;" opacity="0.7" d="M 384,249 V 386 a 12,12 0 0,0 12,12 H 443 a 12,12 0 0,1 12,12L 455,467"></path><g><path style="stroke:#ff0; stroke-width:8px; fill:none; " opacity="0" d="M 384,249 V 386 a 12,12 0 0,0 12,12 H 443 a 12,12 0 0,1 12,12L 455,467"></path></g><path style="stroke:black; fill:none;" d="M 384,249 V 386 a 12,12 0 0,0 12,12 H 443 a 12,12 0 0,1 12,12L 455,467"></path><g><g><path style="stroke:#0ff; stroke-width:8px; fill:none; " opacity="0" d="M 384,249 L 384,398" onmousedown="segmousedown(&quot;312&quot;,&quot;0&quot;,evt);" onmouseover="segmouseover(&quot;312&quot;,&quot;0&quot;,evt);" onmouseout="segmouseout(&quot;312&quot;,&quot;0&quot;,evt);" onclick="segclick(&quot;312&quot;,&quot;0&quot;,evt);"></path><path style="stroke:#0ff; stroke-width:8px; fill:none; " opacity="0" d="M 384,398 L 455,398" onmousedown="segmousedown(&quot;312&quot;,&quot;1&quot;,evt);" onmouseover="segmouseover(&quot;312&quot;,&quot;1&quot;,evt);" onmouseout="segmouseout(&quot;312&quot;,&quot;1&quot;,evt);" onclick="segclick(&quot;312&quot;,&quot;1&quot;,evt);"></path><path style="stroke:#0ff; stroke-width:8px; fill:none; " opacity="0" d="M 455,398 L 455,467" onmousedown="segmousedown(&quot;312&quot;,&quot;2&quot;,evt);" onmouseover="segmouseover(&quot;312&quot;,&quot;2&quot;,evt);" onmouseout="segmouseout(&quot;312&quot;,&quot;2&quot;,evt);" onclick="segclick(&quot;312&quot;,&quot;2&quot;,evt);"></path></g></g></g><g id="313"><path style="stroke:#bdbddf; stroke-width:8px; fill:none;" opacity="0.7" d="M 455,476L 291,476"></path><g><path style="stroke:#ff0; stroke-width:8px; fill:none; " opacity="0" d="M 455,476L 291,476"></path></g><path style="stroke:black; fill:none;" d="M 455,476L 291,476"></path><g><g><path style="stroke:#0ff; stroke-width:8px; fill:none; " opacity="0" d="M 455,476 L 291,476" onmousedown="segmousedown(&quot;313&quot;,&quot;0&quot;,evt);" onmouseover="segmouseover(&quot;313&quot;,&quot;0&quot;,evt);" onmouseout="segmouseout(&quot;313&quot;,&quot;0&quot;,evt);" onclick="segclick(&quot;313&quot;,&quot;0&quot;,evt);"></path></g></g></g><g id="314"><path style="stroke:#bdbddf; stroke-width:8px; fill:none;" opacity="0.7" d="M 383,249 V 244.5 a 4.5,4.5 0 0,0 -4.5,-4.5L 277,240"></path><g><path style="stroke:#ff0; stroke-width:8px; fill:none; " opacity="0" d="M 383,249 V 244.5 a 4.5,4.5 0 0,0 -4.5,-4.5L 277,240"></path></g><path style="stroke:black; fill:none;" d="M 383,249 V 244.5 a 4.5,4.5 0 0,0 -4.5,-4.5L 277,240"></path><g><g><path style="stroke:#0ff; stroke-width:8px; fill:none; " opacity="0" d="M 383,249 L 383,240" onmousedown="segmousedown(&quot;314&quot;,&quot;0&quot;,evt);" onmouseover="segmouseover(&quot;314&quot;,&quot;0&quot;,evt);" onmouseout="segmouseout(&quot;314&quot;,&quot;0&quot;,evt);" onclick="segclick(&quot;314&quot;,&quot;0&quot;,evt);"></path><path style="stroke:#0ff; stroke-width:8px; fill:none; " opacity="0" d="M 383,240 L 277,240" onmousedown="segmousedown(&quot;314&quot;,&quot;1&quot;,evt);" onmouseover="segmouseover(&quot;314&quot;,&quot;1&quot;,evt);" onmouseout="segmouseout(&quot;314&quot;,&quot;1&quot;,evt);" onclick="segclick(&quot;314&quot;,&quot;1&quot;,evt);"></path></g></g></g><g id="315"><path style="stroke:#bdbddf; stroke-width:8px; fill:none;" opacity="0.7" d="M 522,205 H 473 a 12,12 0 0,0 -12,12 V 222 a 12,12 0 0,1 -12,12L 399,234"></path><g><path style="stroke:#ff0; stroke-width:8px; fill:none; " opacity="0" d="M 522,205 H 473 a 12,12 0 0,0 -12,12 V 222 a 12,12 0 0,1 -12,12L 399,234"></path></g><path style="stroke:black; fill:none;" d="M 522,205 H 473 a 12,12 0 0,0 -12,12 V 222 a 12,12 0 0,1 -12,12L 399,234"></path><g><g><path style="stroke:#0ff; stroke-width:8px; fill:none; " opacity="0" d="M 522,205 L 461,205" onmousedown="segmousedown(&quot;315&quot;,&quot;0&quot;,evt);" onmouseover="segmouseover(&quot;315&quot;,&quot;0&quot;,evt);" onmouseout="segmouseout(&quot;315&quot;,&quot;0&quot;,evt);" onclick="segclick(&quot;315&quot;,&quot;0&quot;,evt);"></path><path style="stroke:#0ff; stroke-width:8px; fill:none; " opacity="0" d="M 461,205 L 461,234" onmousedown="segmousedown(&quot;315&quot;,&quot;1&quot;,evt);" onmouseover="segmouseover(&quot;315&quot;,&quot;1&quot;,evt);" onmouseout="segmouseout(&quot;315&quot;,&quot;1&quot;,evt);" onclick="segclick(&quot;315&quot;,&quot;1&quot;,evt);"></path><path style="stroke:#0ff; stroke-width:8px; fill:none; " opacity="0" d="M 461,234 L 399,234" onmousedown="segmousedown(&quot;315&quot;,&quot;2&quot;,evt);" onmouseover="segmouseover(&quot;315&quot;,&quot;2&quot;,evt);" onmouseout="segmouseout(&quot;315&quot;,&quot;2&quot;,evt);" onclick="segclick(&quot;315&quot;,&quot;2&quot;,evt);"></path></g></g></g><g id="316"><path style="stroke:#bdbddf; stroke-width:8px; fill:none;" opacity="0.7" d="M 354,404L 354,514"></path><g><path style="stroke:#ff0; stroke-width:8px; fill:none; " opacity="0" d="M 354,404L 354,514"></path></g><path style="stroke:black; fill:none;" d="M 354,404L 354,514"></path><g><g><path style="stroke:#0ff; stroke-width:8px; fill:none; " opacity="0" d="M 354,404 L 354,514" onmousedown="segmousedown(&quot;316&quot;,&quot;0&quot;,evt);" onmouseover="segmouseover(&quot;316&quot;,&quot;0&quot;,evt);" onmouseout="segmouseout(&quot;316&quot;,&quot;0&quot;,evt);" onclick="segclick(&quot;316&quot;,&quot;0&quot;,evt);"></path></g></g></g><g id="317"><path style="stroke:#bdbddf; stroke-width:8px; fill:none;" opacity="0.7" d="M 455,457L 390,457"></path><g><path style="stroke:#ff0; stroke-width:8px; fill:none; " opacity="0" d="M 455,457L 390,457"></path></g><path style="stroke:black; fill:none;" d="M 455,457L 390,457"></path><g><g><path style="stroke:#0ff; stroke-width:8px; fill:none; " opacity="0" d="M 455,457 L 390,457" onmousedown="segmousedown(&quot;317&quot;,&quot;0&quot;,evt);" onmouseover="segmouseover(&quot;317&quot;,&quot;0&quot;,evt);" onmouseout="segmouseout(&quot;317&quot;,&quot;0&quot;,evt);" onclick="segclick(&quot;317&quot;,&quot;0&quot;,evt);"></path></g></g></g></g>
  <g id="nodes"><g id="296" onmousedown="nodemousedown(296,evt);" onmouseover="nodemouseover(296,evt);" onmouseout="nodemouseout(296,evt);" transform="translate(537 517)"><rect x="-21" y="-21" width="42" height="42" fill="#0ff" style="stroke:none; opacity:0.75;" display="none"></rect><rect x="-15" y="-15" width="30" height="30" fill="#f0f0d2" style="stroke:black; opacity:1;"></rect></g><g id="302" onmousedown="nodemousedown(302,evt);" onmouseover="nodemouseover(302,evt);" onmouseout="nodemouseout(302,evt);" transform="translate(455 467)"><rect x="-21" y="-21" width="42" height="42" fill="#0ff" style="stroke:none; opacity:0.75;" display="none"></rect><rect x="-15" y="-15" width="30" height="30" fill="#f0f0d2" style="stroke:black; opacity:1;"></rect></g><g id="299" onmousedown="nodemousedown(299,evt);" onmouseover="nodemouseover(299,evt);" onmouseout="nodemouseout(299,evt);" transform="translate(353,517)"><rect x="-21" y="-21" width="42" height="42" fill="#0ff" style="stroke:none; opacity:0.75;" display="none"></rect><rect x="-15" y="-15" width="30" height="30" fill="#f0f0d2" style="stroke:black; opacity:1;"></rect></g><g id="300" onmousedown="nodemousedown(300,evt);" onmouseover="nodemouseover(300,evt);" onmouseout="nodemouseout(300,evt);" transform="translate(384,234)"><rect x="-21" y="-21" width="42" height="42" fill="#0ff" style="stroke:none; opacity:0.75;" display="none"></rect><rect x="-15" y="-15" width="30" height="30" fill="#f0f0d2" style="stroke:black; opacity:1;"></rect></g><g id="301" onmousedown="nodemousedown(301,evt);" onmouseover="nodemouseover(301,evt);" onmouseout="nodemouseout(301,evt);" transform="translate(262,240)"><rect x="-21" y="-21" width="42" height="42" fill="#0ff" style="stroke:none; opacity:0.75;" display="none"></rect><rect x="-15" y="-15" width="30" height="30" fill="#f0f0d2" style="stroke:black; opacity:1;"></rect></g><g id="294" onmousedown="nodemousedown(294,evt);" onmouseover="nodemouseover(294,evt);" onmouseout="nodemouseout(294,evt);" transform="translate(537,199)"><rect x="-21" y="-21" width="42" height="42" fill="#0ff" style="stroke:none; opacity:0.75;" display="none"></rect><rect x="-15" y="-15" width="30" height="30" fill="#f0f0d2" style="stroke:black; opacity:1;"></rect></g><g id="293" onmousedown="nodemousedown(293,evt);" onmouseover="nodemouseover(293,evt);" onmouseout="nodemouseout(293,evt);" transform="translate(58,199)"><rect x="-21" y="-21" width="42" height="42" fill="#0ff" style="stroke:none; opacity:0.75;" display="none"></rect><rect x="-15" y="-15" width="30" height="30" fill="#f0f0d2" style="stroke:black; opacity:1;"></rect></g><g id="297" onmousedown="nodemousedown(297,evt);" onmouseover="nodemouseover(297,evt);" onmouseout="nodemouseout(297,evt);" transform="translate(58,389)"><rect x="-21" y="-21" width="42" height="42" fill="#0ff" style="stroke:none; opacity:0.75;" display="none"></rect><rect x="-15" y="-15" width="30" height="30" fill="#f0f0d2" style="stroke:black; opacity:1;"></rect></g><g id="295" onmousedown="nodemousedown(295,evt);" onmouseover="nodemouseover(295,evt);" onmouseout="nodemouseout(295,evt);" transform="translate(58,517)"><rect x="-21" y="-21" width="42" height="42" fill="#0ff" style="stroke:none; opacity:0.75;" display="none"></rect><rect x="-15" y="-15" width="30" height="30" fill="#f0f0d2" style="stroke:black; opacity:1;"></rect></g><g id="298" onmousedown="nodemousedown(298,evt);" onmouseover="nodemouseover(298,evt);" onmouseout="nodemouseout(298,evt);" transform="translate(354,389)"><rect x="-21" y="-21" width="42" height="42" fill="#0ff" style="stroke:none; opacity:0.75;" display="none"></rect><rect x="-15" y="-15" width="30" height="30" fill="#f0f0d2" style="stroke:black; opacity:1;"></rect></g><g id="303" onmousedown="nodemousedown(303,evt);" onmouseover="nodemouseover(303,evt);" onmouseout="nodemouseout(303,evt);" transform="translate(276,476)"><rect x="-21" y="-21" width="42" height="42" fill="#0ff" style="stroke:none; opacity:0.75;" display="none"></rect><rect x="-15" y="-15" width="30" height="30" fill="#f0f0d2" style="stroke:black; opacity:1;"></rect></g><g id="304" onmousedown="nodemousedown(304,evt);" onmouseover="nodemouseover(304,evt);" onmouseout="nodemouseout(304,evt);" transform="translate(390,451)"><rect x="-21" y="-21" width="42" height="42" fill="#0ff" style="stroke:none; opacity:0.75;" display="none"></rect><rect x="-15" y="-15" width="30" height="30" fill="#f0f0d2" style="stroke:black; opacity:1;"></rect></g></g>
  <g id="BPs"><g onmousedown="bpmousedown(344,evt);" onmouseover="bpmouseover(344,evt);" onmouseout="bpmouseout(344,evt);" transform="translate(384,398)" opacity="0"><ellipse cx="0" cy="0" rx="16" ry="16" fill="#0ff" style="stroke:none; opacity:0.75;" display="none"></ellipse><ellipse cx="0" cy="0" rx="5.132188731375618" ry="5.132188731375618" fill="#777" style="stroke:black;"></ellipse></g><g onmousedown="bpmousedown(345,evt);" onmouseover="bpmouseover(345,evt);" onmouseout="bpmouseout(345,evt);" transform="translate(455 398)" opacity="0"><ellipse cx="0" cy="0" rx="16" ry="16" fill="#0ff" style="stroke:none; opacity:0.75;" display="none"></ellipse><ellipse cx="0" cy="0" rx="5.132188731375618" ry="5.132188731375618" fill="#777" style="stroke:black;"></ellipse></g><g onmousedown="bpmousedown(353,evt);" onmouseover="bpmouseover(353,evt);" onmouseout="bpmouseout(353,evt);" transform="translate(383,240)" opacity="0"><ellipse cx="0" cy="0" rx="16" ry="16" fill="#0ff" style="stroke:none; opacity:0.75;" display="none"></ellipse><ellipse cx="0" cy="0" rx="5.132188731375618" ry="5.132188731375618" fill="#777" style="stroke:black;"></ellipse></g><g onmousedown="bpmousedown(368,evt);" onmouseover="bpmouseover(368,evt);" onmouseout="bpmouseout(368,evt);" transform="translate(461,205)" opacity="0"><ellipse cx="0" cy="0" rx="16" ry="16" fill="#0ff" style="stroke:none; opacity:0.75;" display="none"></ellipse><ellipse cx="0" cy="0" rx="5.132188731375618" ry="5.132188731375618" fill="#777" style="stroke:black;"></ellipse></g><g onmousedown="bpmousedown(369,evt);" onmouseover="bpmouseover(369,evt);" onmouseout="bpmouseout(369,evt);" transform="translate(461 234)" opacity="0"><ellipse cx="0" cy="0" rx="16" ry="16" fill="#0ff" style="stroke:none; opacity:0.75;" display="none"></ellipse><ellipse cx="0" cy="0" rx="5.132188731375618" ry="5.132188731375618" fill="#777" style="stroke:black;"></ellipse></g></g>
  <g id="ports"></g>
</g>
</svg>