<svg id="SVGCanvas" width="480px" height="270px" xmlns="http://www.w3.org/2000/svg" xmlns:xlink="http://www.w3.org/1999/xlink" onmouseup="null" onmousemove="null">
<rect id="background" x="0" y="0" height="100%" width="100%" fill="#bdbddf" onmousedown="bgmousedown(evt)"></rect>
<g id="foreground" transform="translate(72.08053691275168,0),scale(0.6040268456375839),translate(-205,-45)">
  <g id="edges"><g id="328"><path style="stroke:#bdbddf; stroke-width:8px; fill:none;" opacity="0.7" d="M 636,462L 713,462"></path><g><path style="stroke:#ff0; stroke-width:8px; fill:none; " opacity="0" d="M 636,462L 713,462"></path></g><path style="stroke:black; fill:none;" d="M 636,462L 713,462"></path><g><g><path style="stroke:#0ff; stroke-width:8px; fill:none; " opacity="0" d="M 636,462 L 713,462" onmousedown="segmousedown(&quot;328&quot;,&quot;0&quot;,evt);" onmouseover="segmouseover(&quot;328&quot;,&quot;0&quot;,evt);" onmouseout="segmouseout(&quot;328&quot;,&quot;0&quot;,evt);" onclick="segclick(&quot;328&quot;,&quot;0&quot;,evt);"></path></g></g></g><g id="329"><path style="stroke:#bdbddf; stroke-width:8px; fill:none;" opacity="0.7" d="M 731,447L 731,242"></path><g><path style="stroke:#ff0; stroke-width:8px; fill:none; " opacity="0" d="M 731,447L 731,242"></path></g><path style="stroke:black; fill:none;" d="M 731,447L 731,242"></path><g><g><path style="stroke:#0ff; stroke-width:8px; fill:none; " opacity="0" d="M 731,447 L 731,242" onmousedown="segmousedown(&quot;329&quot;,&quot;0&quot;,evt);" onmouseover="segmouseover(&quot;329&quot;,&quot;0&quot;,evt);" onmouseout="segmouseout(&quot;329&quot;,&quot;0&quot;,evt);" onclick="segclick(&quot;329&quot;,&quot;0&quot;,evt);"></path></g></g></g><g id="330"><path style="stroke:#bdbddf; stroke-width:8px; fill:none;" opacity="0.7" d="M 250,462L 621,462"></path><g><path style="stroke:#ff0; stroke-width:8px; fill:none; " opacity="0" d="M 250,462L 621,462"></path></g><path style="stroke:black; fill:none;" d="M 250,462L 621,462"></path><g><g><path style="stroke:#0ff; stroke-width:8px; fill:none; " opacity="0" d="M 250,462 L 621,462" onmousedown="segmousedown(&quot;330&quot;,&quot;0&quot;,evt);" onmouseover="segmouseover(&quot;330&quot;,&quot;0&quot;,evt);" onmouseout="segmouseout(&quot;330&quot;,&quot;0&quot;,evt);" onclick="segclick(&quot;330&quot;,&quot;0&quot;,evt);"></path></g></g></g><g id="331"><path style="stroke:#bdbddf; stroke-width:8px; fill:none;" opacity="0.7" d="M 716,219 H 247 a 12,12 0 0,0 -12,12L 235,447"></path><g><path style="stroke:#ff0; stroke-width:8px; fill:none; " opacity="0" d="M 716,219 H 247 a 12,12 0 0,0 -12,12L 235,447"></path></g><path style="stroke:black; fill:none;" d="M 716,219 H 247 a 12,12 0 0,0 -12,12L 235,447"></path><g><g><path style="stroke:#0ff; stroke-width:8px; fill:none; " opacity="0" d="M 716,219 L 235,219" onmousedown="segmousedown(&quot;331&quot;,&quot;0&quot;,evt);" onmouseover="segmouseover(&quot;331&quot;,&quot;0&quot;,evt);" onmouseout="segmouseout(&quot;331&quot;,&quot;0&quot;,evt);" onclick="segclick(&quot;331&quot;,&quot;0&quot;,evt);"></path><path style="stroke:#0ff; stroke-width:8px; fill:none; " opacity="0" d="M 235,219 L 235,447" onmousedown="segmousedown(&quot;331&quot;,&quot;1&quot;,evt);" onmouseover="segmouseover(&quot;331&quot;,&quot;1&quot;,evt);" onmouseout="segmouseout(&quot;331&quot;,&quot;1&quot;,evt);" onclick="segclick(&quot;331&quot;,&quot;1&quot;,evt);"></path></g></g></g><g id="332"><path style="stroke:#bdbddf; stroke-width:8px; fill:none;" opacity="0.7" d="M 549,355 H 623 a 12,12 0 0,0 12,-12 V 251 a 12,12 0 0,1 12,-12L 716,239"></path><g><path style="stroke:#ff0; stroke-width:8px; fill:none; " opacity="0" d="M 549,355 H 623 a 12,12 0 0,0 12,-12 V 251 a 12,12 0 0,1 12,-12L 716,239"></path></g><path style="stroke:black; fill:none;" d="M 549,355 H 623 a 12,12 0 0,0 12,-12 V 251 a 12,12 0 0,1 12,-12L 716,239"></path><g><g><path style="stroke:#0ff; stroke-width:8px; fill:none; " opacity="0" d="M 549,355 L 635,355" onmousedown="segmousedown(&quot;332&quot;,&quot;0&quot;,evt);" onmouseover="segmouseover(&quot;332&quot;,&quot;0&quot;,evt);" onmouseout="segmouseout(&quot;332&quot;,&quot;0&quot;,evt);" onclick="segclick(&quot;332&quot;,&quot;0&quot;,evt);"></path><path style="stroke:#0ff; stroke-width:8px; fill:none; " opacity="0" d="M 635,355 L 635,239" onmousedown="segmousedown(&quot;332&quot;,&quot;1&quot;,evt);" onmouseover="segmouseover(&quot;332&quot;,&quot;1&quot;,evt);" onmouseout="segmouseout(&quot;332&quot;,&quot;1&quot;,evt);" onclick="segclick(&quot;332&quot;,&quot;1&quot;,evt);"></path><path style="stroke:#0ff; stroke-width:8px; fill:none; " opacity="0" d="M 635,239 L 716,239" onmousedown="segmousedown(&quot;332&quot;,&quot;2&quot;,evt);" onmouseover="segmouseover(&quot;332&quot;,&quot;2&quot;,evt);" onmouseout="segmouseout(&quot;332&quot;,&quot;2&quot;,evt);" onclick="segclick(&quot;332&quot;,&quot;2&quot;,evt);"></path></g></g></g><g id="333"><path style="stroke:#bdbddf; stroke-width:8px; fill:none;" opacity="0.7" d="M 549,355L 549,93"></path><g><path style="stroke:#ff0; stroke-width:8px; fill:none; " opacity="0" d="M 549,355L 549,93"></path></g><path style="stroke:black; fill:none;" d="M 549,355L 549,93"></path><g><g><path style="stroke:#0ff; stroke-width:8px; fill:none; " opacity="0" d="M 549,355 L 549,93" onmousedown="segmousedown(&quot;333&quot;,&quot;0&quot;,evt);" onmouseover="segmouseover(&quot;333&quot;,&quot;0&quot;,evt);" onmouseout="segmouseout(&quot;333&quot;,&quot;0&quot;,evt);" onclick="segclick(&quot;333&quot;,&quot;0&quot;,evt);"></path></g></g></g><g id="334"><path style="stroke:#bdbddf; stroke-width:8px; fill:none;" opacity="0.7" d="M 564,78L 695,78"></path><g><path style="stroke:#ff0; stroke-width:8px; fill:none; " opacity="0" d="M 564,78L 695,78"></path></g><path style="stroke:black; fill:none;" d="M 564,78L 695,78"></path><g><g><path style="stroke:#0ff; stroke-width:8px; fill:none; " opacity="0" d="M 564,78 L 695,78" onmousedown="segmousedown(&quot;334&quot;,&quot;0&quot;,evt);" onmouseover="segmouseover(&quot;334&quot;,&quot;0&quot;,evt);" onmouseout="segmouseout(&quot;334&quot;,&quot;0&quot;,evt);" onclick="segclick(&quot;334&quot;,&quot;0&quot;,evt);"></path></g></g></g><g id="335"><path style="stroke:#bdbddf; stroke-width:8px; fill:none;" opacity="0.7" d="M 534,78L 259,78"></path><g><path style="stroke:#ff0; stroke-width:8px; fill:none; " opacity="0" d="M 534,78L 259,78"></path></g><path style="stroke:black; fill:none;" d="M 534,78L 259,78"></path><g><g><path style="stroke:#0ff; stroke-width:8px; fill:none; " opacity="0" d="M 534,78 L 259,78" onmousedown="segmousedown(&quot;335&quot;,&quot;0&quot;,evt);" onmouseover="segmouseover(&quot;335&quot;,&quot;0&quot;,evt);" onmouseout="segmouseout(&quot;335&quot;,&quot;0&quot;,evt);" onclick="segclick(&quot;335&quot;,&quot;0&quot;,evt);"></path></g></g></g><g id="336"><path style="stroke:#bdbddf; stroke-width:8px; fill:none;" opacity="0.7" d="M 549,355L 429,355"></path><g><path style="stroke:#ff0; stroke-width:8px; fill:none; " opacity="0" d="M 549,355L 429,355"></path></g><path style="stroke:black; fill:none;" d="M 549,355L 429,355"></path><g><g><path style="stroke:#0ff; stroke-width:8px; fill:none; " opacity="0" d="M 549,355 L 429,355" onmousedown="segmousedown(&quot;336&quot;,&quot;0&quot;,evt);" onmouseover="segmouseover(&quot;336&quot;,&quot;0&quot;,evt);" onmouseout="segmouseout(&quot;336&quot;,&quot;0&quot;,evt);" onclick="segclick(&quot;336&quot;,&quot;0&quot;,evt);"></path></g></g></g><g id="337"><path style="stroke:#bdbddf; stroke-width:8px; fill:none;" opacity="0.7" d="M 549,355L 549,403"></path><g><path style="stroke:#ff0; stroke-width:8px; fill:none; " opacity="0" d="M 549,355L 549,403"></path></g><path style="stroke:black; fill:none;" d="M 549,355L 549,403"></path><g><g><path style="stroke:#0ff; stroke-width:8px; fill:none; " opacity="0" d="M 549,355 L 549,403" onmousedown="segmousedown(&quot;337&quot;,&quot;0&quot;,evt);" onmouseover="segmouseover(&quot;337&quot;,&quot;0&quot;,evt);" onmouseout="segmouseout(&quot;337&quot;,&quot;0&quot;,evt);" onclick="segclick(&quot;337&quot;,&quot;0&quot;,evt);"></path></g></g></g></g>
  <g id="nodes"><g id="319" onmousedown="nodemousedown(319,evt);" onmouseover="nodemouseover(319,evt);" onmouseout="nodemouseout(319,evt);" transform="translate(621 462)"><rect x="-21" y="-21" width="42" height="42" fill="#0ff" style="stroke:none; opacity:0.75;" display="none"></rect><rect x="-15" y="-15" width="30" height="30" fill="#f0f0d2" style="stroke:black; opacity:1;"></rect></g><g id="322" onmousedown="nodemousedown(322,evt);" onmouseover="nodemouseover(322,evt);" onmouseout="nodemouseout(322,evt);" transform="translate(549 355)"><rect x="-21" y="-21" width="42" height="42" fill="#0ff" style="stroke:none; opacity:0.75;" display="none"></rect><rect x="-15" y="-15" width="30" height="30" fill="#f0f0d2" style="stroke:black; opacity:1;"></rect></g><g id="326" onmousedown="nodemousedown(326,evt);" onmouseover="nodemouseover(326,evt);" onmouseout="nodemouseout(326,evt);" transform="translate(244,78)"><rect x="-21" y="-21" width="42" height="42" fill="#0ff" style="stroke:none; opacity:0.75;" display="none"></rect><rect x="-15" y="-15" width="30" height="30" fill="#f0f0d2" style="stroke:black; opacity:1;"></rect></g><g id="318" onmousedown="nodemousedown(318,evt);" onmouseover="nodemouseover(318,evt);" onmouseout="nodemouseout(318,evt);" transform="translate(235,462)"><rect x="-21" y="-21" width="42" height="42" fill="#0ff" style="stroke:none; opacity:0.75;" display="none"></rect><rect x="-15" y="-15" width="30" height="30" fill="#f0f0d2" style="stroke:black; opacity:1;"></rect></g><g id="324" onmousedown="nodemousedown(324,evt);" onmouseover="nodemouseover(324,evt);" onmouseout="nodemouseout(324,evt);" transform="translate(414,355)"><rect x="-21" y="-21" width="42" height="42" fill="#0ff" style="stroke:none; opacity:0.75;" display="none"></rect><rect x="-15" y="-15" width="30" height="30" fill="#f0f0d2" style="stroke:black; opacity:1;"></rect></g><g id="327" onmousedown="nodemousedown(327,evt);" onmouseover="nodemouseover(327,evt);" onmouseout="nodemouseout(327,evt);" transform="translate(550,418)"><rect x="-21" y="-21" width="42" height="42" fill="#0ff" style="stroke:none; opacity:0.75;" display="none"></rect><rect x="-15" y="-15" width="30" height="30" fill="#f0f0d2" style="stroke:black; opacity:1;"></rect></g><g id="323" onmousedown="nodemousedown(323,evt);" onmouseover="nodemouseover(323,evt);" onmouseout="nodemouseout(323,evt);" transform="translate(549,78)"><rect x="-21" y="-21" width="42" height="42" fill="#0ff" style="stroke:none; opacity:0.75;" display="none"></rect><rect x="-15" y="-15" width="30" height="30" fill="#f0f0d2" style="stroke:black; opacity:1;"></rect></g><g id="325" onmousedown="nodemousedown(325,evt);" onmouseover="nodemouseover(325,evt);" onmouseout="nodemouseout(325,evt);" transform="translate(710,75)"><rect x="-21" y="-21" width="42" height="42" fill="#0ff" style="stroke:none; opacity:0.75;" display="none"></rect><rect x="-15" y="-15" width="30" height="30" fill="#f0f0d2" style="stroke:black; opacity:1;"></rect></g><g id="320" onmousedown="nodemousedown(320,evt);" onmouseover="nodemouseover(320,evt);" onmouseout="nodemouseout(320,evt);" transform="translate(728,462)"><rect x="-21" y="-21" width="42" height="42" fill="#0ff" style="stroke:none; opacity:0.75;" display="none"></rect><rect x="-15" y="-15" width="30" height="30" fill="#f0f0d2" style="stroke:black; opacity:1;"></rect></g><g id="321" onmousedown="nodemousedown(321,evt);" onmouseover="nodemouseover(321,evt);" onmouseout="nodemouseout(321,evt);" transform="translate(731,227)"><rect x="-21" y="-21" width="42" height="42" fill="#0ff" style="stroke:none; opacity:0.75;" display="none"></rect><rect x="-15" y="-15" width="30" height="30" fill="#f0f0d2" style="stroke:black; opacity:1;"></rect></g></g>
  <g id="BPs"><g onmousedown="bpmousedown(351,evt);" onmouseover="bpmouseover(351,evt);" onmouseout="bpmouseout(351,evt);" transform="translate(235,219)" opacity="0"><ellipse cx="0" cy="0" rx="16" ry="16" fill="#0ff" style="stroke:none; opacity:0.75;" display="none"></ellipse><ellipse cx="0" cy="0" rx="6.5908152320000015" ry="6.5908152320000015" fill="#777" style="stroke:black;"></ellipse></g><g onmousedown="bpmousedown(354,evt);" onmouseover="bpmouseover(354,evt);" onmouseout="bpmouseout(354,evt);" transform="translate(635 355)" opacity="0"><ellipse cx="0" cy="0" rx="16" ry="16" fill="#0ff" style="stroke:none; opacity:0.75;" display="none"></ellipse><ellipse cx="0" cy="0" rx="6.5908152320000015" ry="6.5908152320000015" fill="#777" style="stroke:black;"></ellipse></g><g onmousedown="bpmousedown(355,evt);" onmouseover="bpmouseover(355,evt);" onmouseout="bpmouseout(355,evt);" transform="translate(635,239)" opacity="0"><ellipse cx="0" cy="0" rx="16" ry="16" fill="#0ff" style="stroke:none; opacity:0.75;" display="none"></ellipse><ellipse cx="0" cy="0" rx="6.5908152320000015" ry="6.5908152320000015" fill="#777" style="stroke:black;"></ellipse></g></g>
  <g id="ports"></g>
</g>
</svg>