<svg id="SVGCanvas" width="480px" height="270px" xmlns="http://www.w3.org/2000/svg" xmlns:xlink="http://www.w3.org/1999/xlink" onmouseup="null" onmousemove="null">
<rect id="background" x="0" y="0" height="100%" width="100%" fill="#bdbddf" onmousedown="bgmousedown(evt)"></rect>
<g id="foreground" transform="translate(31.851464435146454,0),scale(0.5648535564853556),translate(123,75)">
  <g id="edges">
<g id="241"><path style="stroke:#bdbddf; stroke-width:8px; fill:none;" opacity="0.7" d="M 150,322 H 341 a 12,12 0 0,1 12,12 V 366 a 12,12 0 0,0 12,12L 508,378"></path><g><path style="stroke:#ff0; stroke-width:8px; fill:none; " opacity="0" d="M 150,322 H 341 a 12,12 0 0,1 12,12 V 366 a 12,12 0 0,0 12,12L 508,378"></path></g>

<path style="stroke:black; fill:none;" d="M 150,322 H 341 a 12,12 0 0,1 12,12 V 366 a 12,12 0 0,0 12,12L 508,378"></path>

<g><g><path style="stroke:#0ff; stroke-width:8px; fill:none; " opacity="0" d="M 150,322 L 353,322" onmousedown="segmousedown(&quot;241&quot;,&quot;0&quot;,evt);" onmouseover="segmouseover(&quot;241&quot;,&quot;0&quot;,evt);" onmouseout="segmouseout(&quot;241&quot;,&quot;0&quot;,evt);" onclick="segclick(&quot;241&quot;,&quot;0&quot;,evt);"></path><path style="stroke:#0ff; stroke-width:8px; fill:none; " opacity="0" d="M 353,322 L 353,378" onmousedown="segmousedown(&quot;241&quot;,&quot;1&quot;,evt);" onmouseover="segmouseover(&quot;241&quot;,&quot;1&quot;,evt);" onmouseout="segmouseout(&quot;241&quot;,&quot;1&quot;,evt);" onclick="segclick(&quot;241&quot;,&quot;1&quot;,evt);"></path><path style="stroke:#0ff; stroke-width:8px; fill:none; " opacity="0" d="M 353,378 L 508,378" onmousedown="segmousedown(&quot;241&quot;,&quot;2&quot;,evt);" onmouseover="segmouseover(&quot;241&quot;,&quot;2&quot;,evt);" onmouseout="segmouseout(&quot;241&quot;,&quot;2&quot;,evt);" onclick="segclick(&quot;241&quot;,&quot;2&quot;,evt);"></path></g></g></g><g id="242"><path style="stroke:#bdbddf; stroke-width:8px; fill:none;" opacity="0.7" d="M 538,372 H 577 a 12,12 0 0,0 12,-12 V 75 a 12,12 0 0,0 -12,-12L 535,63"></path><g><path style="stroke:#ff0; stroke-width:8px; fill:none; " opacity="0" d="M 538,372 H 577 a 12,12 0 0,0 12,-12 V 75 a 12,12 0 0,0 -12,-12L 535,63"></path></g><path style="stroke:black; fill:none;" d="M 538,372 H 577 a 12,12 0 0,0 12,-12 V 75 a 12,12 0 0,0 -12,-12L 535,63"></path><g><g><path style="stroke:#0ff; stroke-width:8px; fill:none; " opacity="0" d="M 538,372 L 589,372" onmousedown="segmousedown(&quot;242&quot;,&quot;0&quot;,evt);" onmouseover="segmouseover(&quot;242&quot;,&quot;0&quot;,evt);" onmouseout="segmouseout(&quot;242&quot;,&quot;0&quot;,evt);" onclick="segclick(&quot;242&quot;,&quot;0&quot;,evt);"></path><path style="stroke:#0ff; stroke-width:8px; fill:none; " opacity="0" d="M 589,372 L 589,63" onmousedown="segmousedown(&quot;242&quot;,&quot;1&quot;,evt);" onmouseover="segmouseover(&quot;242&quot;,&quot;1&quot;,evt);" onmouseout="segmouseout(&quot;242&quot;,&quot;1&quot;,evt);" onclick="segclick(&quot;242&quot;,&quot;1&quot;,evt);"></path><path style="stroke:#0ff; stroke-width:8px; fill:none; " opacity="0" d="M 589,63 L 535,63" onmousedown="segmousedown(&quot;242&quot;,&quot;2&quot;,evt);" onmouseover="segmouseover(&quot;242&quot;,&quot;2&quot;,evt);" onmouseout="segmouseout(&quot;242&quot;,&quot;2&quot;,evt);" onclick="segclick(&quot;242&quot;,&quot;2&quot;,evt);"></path></g></g></g><g id="243"><path style="stroke:#bdbddf; stroke-width:8px; fill:none;" opacity="0.7" d="M 525,63 V 40 a 12,12 0 0,0 -12,-12L 150,28"></path><g><path style="stroke:#ff0; stroke-width:8px; fill:none; " opacity="0" d="M 525,63 V 40 a 12,12 0 0,0 -12,-12L 150,28"></path></g><path style="stroke:black; fill:none;" d="M 525,63 V 40 a 12,12 0 0,0 -12,-12L 150,28"></path><g><g><path style="stroke:#0ff; stroke-width:8px; fill:none; " opacity="0" d="M 525,63 L 525,28" onmousedown="segmousedown(&quot;243&quot;,&quot;0&quot;,evt);" onmouseover="segmouseover(&quot;243&quot;,&quot;0&quot;,evt);" onmouseout="segmouseout(&quot;243&quot;,&quot;0&quot;,evt);" onclick="segclick(&quot;243&quot;,&quot;0&quot;,evt);"></path><path style="stroke:#0ff; stroke-width:8px; fill:none; " opacity="0" d="M 525,28 L 150,28" onmousedown="segmousedown(&quot;243&quot;,&quot;1&quot;,evt);" onmouseover="segmouseover(&quot;243&quot;,&quot;1&quot;,evt);" onmouseout="segmouseout(&quot;243&quot;,&quot;1&quot;,evt);" onclick="segclick(&quot;243&quot;,&quot;1&quot;,evt);"></path></g></g></g><g id="244"><path style="stroke:#bdbddf; stroke-width:8px; fill:none;" opacity="0.7" d="M 142,43L 142,307"></path><g><path style="stroke:#ff0; stroke-width:8px; fill:none; " opacity="0" d="M 142,43L 142,307"></path></g><path style="stroke:black; fill:none;" d="M 142,43L 142,307"></path><g><g><path style="stroke:#0ff; stroke-width:8px; fill:none; " opacity="0" d="M 142,43 L 142,307" onmousedown="segmousedown(&quot;244&quot;,&quot;0&quot;,evt);" onmouseover="segmouseover(&quot;244&quot;,&quot;0&quot;,evt);" onmouseout="segmouseout(&quot;244&quot;,&quot;0&quot;,evt);" onclick="segclick(&quot;244&quot;,&quot;0&quot;,evt);"></path></g></g></g><g id="245"><path style="stroke:#bdbddf; stroke-width:8px; fill:none;" opacity="0.7" d="M 508,372 H 447 a 12,12 0 0,1 -12,-12L 435,256"></path><g><path style="stroke:#ff0; stroke-width:8px; fill:none; " opacity="0" d="M 508,372 H 447 a 12,12 0 0,1 -12,-12L 435,256"></path></g><path style="stroke:black; fill:none;" d="M 508,372 H 447 a 12,12 0 0,1 -12,-12L 435,256"></path><g><g><path style="stroke:#0ff; stroke-width:8px; fill:none; " opacity="0" d="M 508,372 L 435,372" onmousedown="segmousedown(&quot;245&quot;,&quot;0&quot;,evt);" onmouseover="segmouseover(&quot;245&quot;,&quot;0&quot;,evt);" onmouseout="segmouseout(&quot;245&quot;,&quot;0&quot;,evt);" onclick="segclick(&quot;245&quot;,&quot;0&quot;,evt);"></path><path style="stroke:#0ff; stroke-width:8px; fill:none; " opacity="0" d="M 435,372 L 435,256" onmousedown="segmousedown(&quot;245&quot;,&quot;1&quot;,evt);" onmouseover="segmouseover(&quot;245&quot;,&quot;1&quot;,evt);" onmouseout="segmouseout(&quot;245&quot;,&quot;1&quot;,evt);" onclick="segclick(&quot;245&quot;,&quot;1&quot;,evt);"></path></g></g></g><g id="246"><path style="stroke:#bdbddf; stroke-width:8px; fill:none;" opacity="0.7" d="M 435,226 V 100 a 12,12 0 0,0 -12,-12L 346,88"></path><g><path style="stroke:#ff0; stroke-width:8px; fill:none; " opacity="0" d="M 435,226 V 100 a 12,12 0 0,0 -12,-12L 346,88"></path></g><path style="stroke:black; fill:none;" d="M 435,226 V 100 a 12,12 0 0,0 -12,-12L 346,88"></path><g><g><path style="stroke:#0ff; stroke-width:8px; fill:none; " opacity="0" d="M 435,226 L 435,88" onmousedown="segmousedown(&quot;246&quot;,&quot;0&quot;,evt);" onmouseover="segmouseover(&quot;246&quot;,&quot;0&quot;,evt);" onmouseout="segmouseout(&quot;246&quot;,&quot;0&quot;,evt);" onclick="segclick(&quot;246&quot;,&quot;0&quot;,evt);"></path><path style="stroke:#0ff; stroke-width:8px; fill:none; " opacity="0" d="M 435,88 L 346,88" onmousedown="segmousedown(&quot;246&quot;,&quot;1&quot;,evt);" onmouseover="segmouseover(&quot;246&quot;,&quot;1&quot;,evt);" onmouseout="segmouseout(&quot;246&quot;,&quot;1&quot;,evt);" onclick="segclick(&quot;246&quot;,&quot;1&quot;,evt);"></path></g></g></g><g id="247"><path style="stroke:#bdbddf; stroke-width:8px; fill:none;" opacity="0.7" d="M 316,83L 205,83"></path><g><path style="stroke:#ff0; stroke-width:8px; fill:none; " opacity="0" d="M 316,83L 205,83"></path></g><path style="stroke:black; fill:none;" d="M 316,83L 205,83"></path><g><g><path style="stroke:#0ff; stroke-width:8px; fill:none; " opacity="0" d="M 316,83 L 205,83" onmousedown="segmousedown(&quot;247&quot;,&quot;0&quot;,evt);" onmouseover="segmouseover(&quot;247&quot;,&quot;0&quot;,evt);" onmouseout="segmouseout(&quot;247&quot;,&quot;0&quot;,evt);" onclick="segclick(&quot;247&quot;,&quot;0&quot;,evt);"></path></g></g></g><g id="248"><path style="stroke:#bdbddf; stroke-width:8px; fill:none;" opacity="0.7" d="M 205,93L 205,304"></path><g><path style="stroke:#ff0; stroke-width:8px; fill:none; " opacity="0" d="M 205,93L 205,304"></path></g><path style="stroke:black; fill:none;" d="M 205,93L 205,304"></path><g><g><path style="stroke:#0ff; stroke-width:8px; fill:none; " opacity="0" d="M 205,93 L 205,304" onmousedown="segmousedown(&quot;248&quot;,&quot;0&quot;,evt);" onmouseover="segmouseover(&quot;248&quot;,&quot;0&quot;,evt);" onmouseout="segmouseout(&quot;248&quot;,&quot;0&quot;,evt);" onclick="segclick(&quot;248&quot;,&quot;0&quot;,evt);"></path></g></g></g><g id="249"><path style="stroke:#bdbddf; stroke-width:8px; fill:none;" opacity="0.7" d="M 126,43 V 112 a 12,12 0 0,1 -12,12L 69,124"></path><g><path style="stroke:#ff0; stroke-width:8px; fill:none; " opacity="0" d="M 126,43 V 112 a 12,12 0 0,1 -12,12L 69,124"></path></g><path style="stroke:black; fill:none;" d="M 126,43 V 112 a 12,12 0 0,1 -12,12L 69,124"></path><g><g><path style="stroke:#0ff; stroke-width:8px; fill:none; " opacity="0" d="M 126,43 L 126,124" onmousedown="segmousedown(&quot;249&quot;,&quot;0&quot;,evt);" onmouseover="segmouseover(&quot;249&quot;,&quot;0&quot;,evt);" onmouseout="segmouseout(&quot;249&quot;,&quot;0&quot;,evt);" onclick="segclick(&quot;249&quot;,&quot;0&quot;,evt);"></path><path style="stroke:#0ff; stroke-width:8px; fill:none; " opacity="0" d="M 126,124 L 69,124" onmousedown="segmousedown(&quot;249&quot;,&quot;1&quot;,evt);" onmouseover="segmouseover(&quot;249&quot;,&quot;1&quot;,evt);" onmouseout="segmouseout(&quot;249&quot;,&quot;1&quot;,evt);" onclick="segclick(&quot;249&quot;,&quot;1&quot;,evt);"></path></g></g></g><g id="250"><path style="stroke:#bdbddf; stroke-width:8px; fill:none;" opacity="0.7" d="M 54,109 V 25 a 12,12 0 0,0 -12,-12L 9,13"></path><g><path style="stroke:#ff0; stroke-width:8px; fill:none; " opacity="0" d="M 54,109 V 25 a 12,12 0 0,0 -12,-12L 9,13"></path></g><path style="stroke:black; fill:none;" d="M 54,109 V 25 a 12,12 0 0,0 -12,-12L 9,13"></path><g><g><path style="stroke:#0ff; stroke-width:8px; fill:none; " opacity="0" d="M 54,109 L 54,13" onmousedown="segmousedown(&quot;250&quot;,&quot;0&quot;,evt);" onmouseover="segmouseover(&quot;250&quot;,&quot;0&quot;,evt);" onmouseout="segmouseout(&quot;250&quot;,&quot;0&quot;,evt);" onclick="segclick(&quot;250&quot;,&quot;0&quot;,evt);"></path><path style="stroke:#0ff; stroke-width:8px; fill:none; " opacity="0" d="M 54,13 L 9,13" onmousedown="segmousedown(&quot;250&quot;,&quot;1&quot;,evt);" onmouseover="segmouseover(&quot;250&quot;,&quot;1&quot;,evt);" onmouseout="segmouseout(&quot;250&quot;,&quot;1&quot;,evt);" onclick="segclick(&quot;250&quot;,&quot;1&quot;,evt);"></path></g></g></g><g id="251"><path style="stroke:#bdbddf; stroke-width:8px; fill:none;" opacity="0.7" d="M -1,-2 V -33 a 12,12 0 0,0 -12,-12L -78,-45"></path><g><path style="stroke:#ff0; stroke-width:8px; fill:none; " opacity="0" d="M -1,-2 V -33 a 12,12 0 0,0 -12,-12L -78,-45"></path></g><path style="stroke:black; fill:none;" d="M -1,-2 V -33 a 12,12 0 0,0 -12,-12L -78,-45"></path><g><g><path style="stroke:#0ff; stroke-width:8px; fill:none; " opacity="0" d="M -1,-2 L -1,-45" onmousedown="segmousedown(&quot;251&quot;,&quot;0&quot;,evt);" onmouseover="segmouseover(&quot;251&quot;,&quot;0&quot;,evt);" onmouseout="segmouseout(&quot;251&quot;,&quot;0&quot;,evt);" onclick="segclick(&quot;251&quot;,&quot;0&quot;,evt);"></path><path style="stroke:#0ff; stroke-width:8px; fill:none; " opacity="0" d="M -1,-45 L -78,-45" onmousedown="segmousedown(&quot;251&quot;,&quot;1&quot;,evt);" onmouseover="segmouseover(&quot;251&quot;,&quot;1&quot;,evt);" onmouseout="segmouseout(&quot;251&quot;,&quot;1&quot;,evt);" onclick="segclick(&quot;251&quot;,&quot;1&quot;,evt);"></path></g></g></g><g id="252"><path style="stroke:#bdbddf; stroke-width:8px; fill:none;" opacity="0.7" d="M 57,139L 57,184"></path><g><path style="stroke:#ff0; stroke-width:8px; fill:none; " opacity="0" d="M 57,139L 57,184"></path></g><path style="stroke:black; fill:none;" d="M 57,139L 57,184"></path><g><g><path style="stroke:#0ff; stroke-width:8px; fill:none; " opacity="0" d="M 57,139 L 57,184" onmousedown="segmousedown(&quot;252&quot;,&quot;0&quot;,evt);" onmouseover="segmouseover(&quot;252&quot;,&quot;0&quot;,evt);" onmouseout="segmouseout(&quot;252&quot;,&quot;0&quot;,evt);" onclick="segclick(&quot;252&quot;,&quot;0&quot;,evt);"></path></g></g></g></g>
  <g id="nodes"><g id="232" onmousedown="nodemousedown(232,evt);" onmouseover="nodemouseover(232,evt);" onmouseout="nodemouseout(232,evt);" transform="translate(535 63)"><rect x="-21" y="-21" width="42" height="42" fill="#0ff" style="stroke:none; opacity:0.75;" display="none"></rect><rect x="-15" y="-15" width="30" height="30" fill="#f0f0d2" style="stroke:black; opacity:1;"></rect></g><g id="240" onmousedown="nodemousedown(240,evt);" onmouseover="nodemouseover(240,evt);" onmouseout="nodemouseout(240,evt);" transform="translate(-93,-45)"><rect x="-21" y="-21" width="42" height="42" fill="#0ff" style="stroke:none; opacity:0.75;" display="none"></rect><rect x="-15" y="-15" width="30" height="30" fill="#f0f0d2" style="stroke:black; opacity:1;"></rect></g><g id="239" onmousedown="nodemousedown(239,evt);" onmouseover="nodemouseover(239,evt);" onmouseout="nodemouseout(239,evt);" transform="translate(-6,13)"><rect x="-21" y="-21" width="42" height="42" fill="#0ff" style="stroke:none; opacity:0.75;" display="none"></rect><rect x="-15" y="-15" width="30" height="30" fill="#f0f0d2" style="stroke:black; opacity:1;"></rect></g><g id="237" onmousedown="nodemousedown(237,evt);" onmouseover="nodemouseover(237,evt);" onmouseout="nodemouseout(237,evt);" transform="translate(54,124)"><rect x="-21" y="-21" width="42" height="42" fill="#0ff" style="stroke:none; opacity:0.75;" display="none"></rect><rect x="-15" y="-15" width="30" height="30" fill="#f0f0d2" style="stroke:black; opacity:1;"></rect></g><g id="238" onmousedown="nodemousedown(238,evt);" onmouseover="nodemouseover(238,evt);" onmouseout="nodemouseout(238,evt);" transform="translate(57,199)"><rect x="-21" y="-21" width="42" height="42" fill="#0ff" style="stroke:none; opacity:0.75;" display="none"></rect><rect x="-15" y="-15" width="30" height="30" fill="#f0f0d2" style="stroke:black; opacity:1;"></rect></g><g id="229" onmousedown="nodemousedown(229,evt);" onmouseover="nodemouseover(229,evt);" onmouseout="nodemouseout(229,evt);" transform="translate(135,28)"><rect x="-21" y="-21" width="42" height="42" fill="#0ff" style="stroke:none; opacity:0.75;" display="none"></rect><rect x="-15" y="-15" width="30" height="30" fill="#f0f0d2" style="stroke:black; opacity:1;"></rect></g><g id="230" onmousedown="nodemousedown(230,evt);" onmouseover="nodemouseover(230,evt);" onmouseout="nodemouseout(230,evt);" transform="translate(135,322)"><rect x="-21" y="-21" width="42" height="42" fill="#0ff" style="stroke:none; opacity:0.75;" display="none"></rect><rect x="-15" y="-15" width="30" height="30" fill="#f0f0d2" style="stroke:black; opacity:1;"></rect></g><g id="236" onmousedown="nodemousedown(236,evt);" onmouseover="nodemouseover(236,evt);" onmouseout="nodemouseout(236,evt);" transform="translate(205,319)"><rect x="-21" y="-21" width="42" height="42" fill="#0ff" style="stroke:none; opacity:0.75;" display="none"></rect><rect x="-15" y="-15" width="30" height="30" fill="#f0f0d2" style="stroke:black; opacity:1;"></rect></g><g id="235" onmousedown="nodemousedown(235,evt);" onmouseover="nodemouseover(235,evt);" onmouseout="nodemouseout(235,evt);" transform="translate(205,78)"><rect x="-21" y="-21" width="42" height="42" fill="#0ff" style="stroke:none; opacity:0.75;" display="none"></rect><rect x="-15" y="-15" width="30" height="30" fill="#f0f0d2" style="stroke:black; opacity:1;"></rect></g><g id="234" onmousedown="nodemousedown(234,evt);" onmouseover="nodemouseover(234,evt);" onmouseout="nodemouseout(234,evt);" transform="translate(331,83)"><rect x="-21" y="-21" width="42" height="42" fill="#0ff" style="stroke:none; opacity:0.75;" display="none"></rect><rect x="-15" y="-15" width="30" height="30" fill="#f0f0d2" style="stroke:black; opacity:1;"></rect></g><g id="233" onmousedown="nodemousedown(233,evt);" onmouseover="nodemouseover(233,evt);" onmouseout="nodemouseout(233,evt);" transform="translate(435,241)"><rect x="-21" y="-21" width="42" height="42" fill="#0ff" style="stroke:none; opacity:0.75;" display="none"></rect><rect x="-15" y="-15" width="30" height="30" fill="#f0f0d2" style="stroke:black; opacity:1;"></rect></g><g id="231" onmousedown="nodemousedown(231,evt);" onmouseover="nodemouseover(231,evt);" onmouseout="nodemouseout(231,evt);" transform="translate(523,372)"><rect x="-21" y="-21" width="42" height="42" fill="#0ff" style="stroke:none; opacity:0.75;" display="none"></rect><rect x="-15" y="-15" width="30" height="30" fill="#f0f0d2" style="stroke:black; opacity:1;"></rect></g></g>
  <g id="BPs"><g onmousedown="bpmousedown(257,evt);" onmouseover="bpmouseover(257,evt);" onmouseout="bpmouseout(257,evt);" transform="translate(589,372)" opacity="0"><ellipse cx="0" cy="0" rx="16" ry="16" fill="#0ff" style="stroke:none; opacity:0.75;" display="none"></ellipse><ellipse cx="0" cy="0" rx="6.063550013440002" ry="6.063550013440002" fill="#777" style="stroke:black;"></ellipse></g><g onmousedown="bpmousedown(258,evt);" onmouseover="bpmouseover(258,evt);" onmouseout="bpmouseout(258,evt);" transform="translate(589 63)" opacity="0"><ellipse cx="0" cy="0" rx="16" ry="16" fill="#0ff" style="stroke:none; opacity:0.75;" display="none"></ellipse><ellipse cx="0" cy="0" rx="6.063550013440002" ry="6.063550013440002" fill="#777" style="stroke:black;"></ellipse></g><g onmousedown="bpmousedown(261,evt);" onmouseover="bpmouseover(261,evt);" onmouseout="bpmouseout(261,evt);" transform="translate(525 28)" opacity="0"><ellipse cx="0" cy="0" rx="16" ry="16" fill="#0ff" style="stroke:none; opacity:0.75;" display="none"></ellipse><ellipse cx="0" cy="0" rx="6.063550013440002" ry="6.063550013440002" fill="#777" style="stroke:black;"></ellipse></g><g onmousedown="bpmousedown(268,evt);" onmouseover="bpmouseover(268,evt);" onmouseout="bpmouseout(268,evt);" transform="translate(435,372)" opacity="0"><ellipse cx="0" cy="0" rx="16" ry="16" fill="#0ff" style="stroke:none; opacity:0.75;" display="none"></ellipse><ellipse cx="0" cy="0" rx="6.063550013440002" ry="6.063550013440002" fill="#777" style="stroke:black;"></ellipse></g><g onmousedown="bpmousedown(281,evt);" onmouseover="bpmouseover(281,evt);" onmouseout="bpmouseout(281,evt);" transform="translate(126,124)" opacity="0"><ellipse cx="0" cy="0" rx="16" ry="16" fill="#0ff" style="stroke:none; opacity:0.75;" display="none"></ellipse><ellipse cx="0" cy="0" rx="6.063550013440002" ry="6.063550013440002" fill="#777" style="stroke:black;"></ellipse></g><g onmousedown="bpmousedown(284,evt);" onmouseover="bpmouseover(284,evt);" onmouseout="bpmouseout(284,evt);" transform="translate(54,13)" opacity="0"><ellipse cx="0" cy="0" rx="16" ry="16" fill="#0ff" style="stroke:none; opacity:0.75;" display="none"></ellipse><ellipse cx="0" cy="0" rx="6.063550013440002" ry="6.063550013440002" fill="#777" style="stroke:black;"></ellipse></g><g onmousedown="bpmousedown(288,evt);" onmouseover="bpmouseover(288,evt);" onmouseout="bpmouseout(288,evt);" transform="translate(-1,-45)" opacity="0"><ellipse cx="0" cy="0" rx="16" ry="16" fill="#0ff" style="stroke:none; opacity:0.75;" display="none"></ellipse><ellipse cx="0" cy="0" rx="6.063550013440002" ry="6.063550013440002" fill="#777" style="stroke:black;"></ellipse></g><g onmousedown="bpmousedown(294,evt);" onmouseover="bpmouseover(294,evt);" onmouseout="bpmouseout(294,evt);" transform="translate(353,322)" opacity="0"><ellipse cx="0" cy="0" rx="16" ry="16" fill="#0ff" style="stroke:none; opacity:0.75;" display="none"></ellipse><ellipse cx="0" cy="0" rx="6.063550013440002" ry="6.063550013440002" fill="#777" style="stroke:black;"></ellipse></g><g onmousedown="bpmousedown(295,evt);" onmouseover="bpmouseover(295,evt);" onmouseout="bpmouseout(295,evt);" transform="translate(353,378)" opacity="0"><ellipse cx="0" cy="0" rx="16" ry="16" fill="#0ff" style="stroke:none; opacity:0.75;" display="none"></ellipse><ellipse cx="0" cy="0" rx="6.063550013440002" ry="6.063550013440002" fill="#777" style="stroke:black;"></ellipse></g><g onmousedown="bpmousedown(297,evt);" onmouseover="bpmouseover(297,evt);" onmouseout="bpmouseout(297,evt);" transform="translate(435,88)" opacity="0"><ellipse cx="0" cy="0" rx="16" ry="16" fill="#0ff" style="stroke:none; opacity:0.75;" display="none"></ellipse><ellipse cx="0" cy="0" rx="6.063550013440002" ry="6.063550013440002" fill="#777" style="stroke:black;"></ellipse></g></g>
  <g id="ports"></g>
  <path style="stroke:black; fill:none;" d="M 150,322 H 341"></path>
</g>
</svg>
