<svg id="SVGCanvas" width="480px" height="270px" xmlns="http://www.w3.org/2000/svg" xmlns:xlink="http://www.w3.org/1999/xlink" onmouseup="null" onmousemove="null">
<rect id="background" x="0" y="0" height="100%" width="100%" fill="#bdbddf" onmousedown="bgmousedown(evt)"></rect>
<g id="foreground" transform="translate(0,17.85714285714286),scale(0.6349206349206349),translate(142,-1)">
  <g id="edges"><g id="241"><path style="stroke:#bdbddf; stroke-width:8px; fill:none;" opacity="0.7" d="M 211,340L 569,340"></path><g><path style="stroke:#ff0; stroke-width:8px; fill:none; " opacity="0" d="M 211,340L 569,340"></path></g><path style="stroke:black; fill:none;" d="M 211,340L 569,340"></path><g><g><path style="stroke:#0ff; stroke-width:8px; fill:none; " opacity="0" d="M 211,340 L 569,340" onmousedown="segmousedown(&quot;241&quot;,&quot;0&quot;,evt);" onmouseover="segmouseover(&quot;241&quot;,&quot;0&quot;,evt);" onmouseout="segmouseout(&quot;241&quot;,&quot;0&quot;,evt);" onclick="segclick(&quot;241&quot;,&quot;0&quot;,evt);"></path></g></g></g><g id="242"><path style="stroke:#bdbddf; stroke-width:8px; fill:none;" opacity="0.7" d="M 584,334 H 586.5 a 2.5,2.5 0 0,0 2.5,-2.5 V 37 a 6,6 0 0,0 -6,-6L 577,31"></path><g><path style="stroke:#ff0; stroke-width:8px; fill:none; " opacity="0" d="M 584,334 H 586.5 a 2.5,2.5 0 0,0 2.5,-2.5 V 37 a 6,6 0 0,0 -6,-6L 577,31"></path></g><path style="stroke:black; fill:none;" d="M 584,334 H 586.5 a 2.5,2.5 0 0,0 2.5,-2.5 V 37 a 6,6 0 0,0 -6,-6L 577,31"></path><g><g><path style="stroke:#0ff; stroke-width:8px; fill:none; " opacity="0" d="M 584,334 L 589,334" onmousedown="segmousedown(&quot;242&quot;,&quot;0&quot;,evt);" onmouseover="segmouseover(&quot;242&quot;,&quot;0&quot;,evt);" onmouseout="segmouseout(&quot;242&quot;,&quot;0&quot;,evt);" onclick="segclick(&quot;242&quot;,&quot;0&quot;,evt);"></path><path style="stroke:#0ff; stroke-width:8px; fill:none; " opacity="0" d="M 589,334 L 589,31" onmousedown="segmousedown(&quot;242&quot;,&quot;1&quot;,evt);" onmouseover="segmouseover(&quot;242&quot;,&quot;1&quot;,evt);" onmouseout="segmouseout(&quot;242&quot;,&quot;1&quot;,evt);" onclick="segclick(&quot;242&quot;,&quot;1&quot;,evt);"></path><path style="stroke:#0ff; stroke-width:8px; fill:none; " opacity="0" d="M 589,31 L 577,31" onmousedown="segmousedown(&quot;242&quot;,&quot;2&quot;,evt);" onmouseover="segmouseover(&quot;242&quot;,&quot;2&quot;,evt);" onmouseout="segmouseout(&quot;242&quot;,&quot;2&quot;,evt);" onclick="segclick(&quot;242&quot;,&quot;2&quot;,evt);"></path></g></g></g><g id="243"><path style="stroke:#bdbddf; stroke-width:8px; fill:none;" opacity="0.7" d="M 547,28 H 223 a 12,12 0 0,0 -12,12L 211,64"></path><g><path style="stroke:#ff0; stroke-width:8px; fill:none; " opacity="0" d="M 547,28 H 223 a 12,12 0 0,0 -12,12L 211,64"></path></g><path style="stroke:black; fill:none;" d="M 547,28 H 223 a 12,12 0 0,0 -12,12L 211,64"></path><g><g><path style="stroke:#0ff; stroke-width:8px; fill:none; " opacity="0" d="M 547,28 L 211,28" onmousedown="segmousedown(&quot;243&quot;,&quot;0&quot;,evt);" onmouseover="segmouseover(&quot;243&quot;,&quot;0&quot;,evt);" onmouseout="segmouseout(&quot;243&quot;,&quot;0&quot;,evt);" onclick="segclick(&quot;243&quot;,&quot;0&quot;,evt);"></path><path style="stroke:#0ff; stroke-width:8px; fill:none; " opacity="0" d="M 211,28 L 211,64" onmousedown="segmousedown(&quot;243&quot;,&quot;1&quot;,evt);" onmouseover="segmouseover(&quot;243&quot;,&quot;1&quot;,evt);" onmouseout="segmouseout(&quot;243&quot;,&quot;1&quot;,evt);" onclick="segclick(&quot;243&quot;,&quot;1&quot;,evt);"></path></g></g></g><g id="244"><path style="stroke:#bdbddf; stroke-width:8px; fill:none;" opacity="0.7" d="M 211,94L 211,325"></path><g><path style="stroke:#ff0; stroke-width:8px; fill:none; " opacity="0" d="M 211,94L 211,325"></path></g><path style="stroke:black; fill:none;" d="M 211,94L 211,325"></path><g><g><path style="stroke:#0ff; stroke-width:8px; fill:none; " opacity="0" d="M 211,94 L 211,325" onmousedown="segmousedown(&quot;244&quot;,&quot;0&quot;,evt);" onmouseover="segmouseover(&quot;244&quot;,&quot;0&quot;,evt);" onmouseout="segmouseout(&quot;244&quot;,&quot;0&quot;,evt);" onclick="segclick(&quot;244&quot;,&quot;0&quot;,evt);"></path></g></g></g><g id="245"><path style="stroke:#bdbddf; stroke-width:8px; fill:none;" opacity="0.7" d="M 554,334 H 546 a 8,8 0 0,1 -8,-8L 538,202"></path><g><path style="stroke:#ff0; stroke-width:8px; fill:none; " opacity="0" d="M 554,334 H 546 a 8,8 0 0,1 -8,-8L 538,202"></path></g><path style="stroke:black; fill:none;" d="M 554,334 H 546 a 8,8 0 0,1 -8,-8L 538,202"></path><g><g><path style="stroke:#0ff; stroke-width:8px; fill:none; " opacity="0" d="M 554,334 L 538,334" onmousedown="segmousedown(&quot;245&quot;,&quot;0&quot;,evt);" onmouseover="segmouseover(&quot;245&quot;,&quot;0&quot;,evt);" onmouseout="segmouseout(&quot;245&quot;,&quot;0&quot;,evt);" onclick="segclick(&quot;245&quot;,&quot;0&quot;,evt);"></path><path style="stroke:#0ff; stroke-width:8px; fill:none; " opacity="0" d="M 538,334 L 538,202" onmousedown="segmousedown(&quot;245&quot;,&quot;1&quot;,evt);" onmouseover="segmouseover(&quot;245&quot;,&quot;1&quot;,evt);" onmouseout="segmouseout(&quot;245&quot;,&quot;1&quot;,evt);" onclick="segclick(&quot;245&quot;,&quot;1&quot;,evt);"></path></g></g></g><g id="246"><path style="stroke:#bdbddf; stroke-width:8px; fill:none;" opacity="0.7" d="M 523,182L 428,182"></path><g><path style="stroke:#ff0; stroke-width:8px; fill:none; " opacity="0" d="M 523,182L 428,182"></path></g><path style="stroke:black; fill:none;" d="M 523,182L 428,182"></path><g><g><path style="stroke:#0ff; stroke-width:8px; fill:none; " opacity="0" d="M 523,182 L 428,182" onmousedown="segmousedown(&quot;246&quot;,&quot;0&quot;,evt);" onmouseover="segmouseover(&quot;246&quot;,&quot;0&quot;,evt);" onmouseout="segmouseout(&quot;246&quot;,&quot;0&quot;,evt);" onclick="segclick(&quot;246&quot;,&quot;0&quot;,evt);"></path></g></g></g><g id="247"><path style="stroke:#bdbddf; stroke-width:8px; fill:none;" opacity="0.7" d="M 398,182L 311,182"></path><g><path style="stroke:#ff0; stroke-width:8px; fill:none; " opacity="0" d="M 398,182L 311,182"></path></g><path style="stroke:black; fill:none;" d="M 398,182L 311,182"></path><g><g><path style="stroke:#0ff; stroke-width:8px; fill:none; " opacity="0" d="M 398,182 L 311,182" onmousedown="segmousedown(&quot;247&quot;,&quot;0&quot;,evt);" onmouseover="segmouseover(&quot;247&quot;,&quot;0&quot;,evt);" onmouseout="segmouseout(&quot;247&quot;,&quot;0&quot;,evt);" onclick="segclick(&quot;247&quot;,&quot;0&quot;,evt);"></path></g></g></g><g id="248"><path style="stroke:#bdbddf; stroke-width:8px; fill:none;" opacity="0.7" d="M 296,192L 296,267"></path><g><path style="stroke:#ff0; stroke-width:8px; fill:none; " opacity="0" d="M 296,192L 296,267"></path></g><path style="stroke:black; fill:none;" d="M 296,192L 296,267"></path><g><g><path style="stroke:#0ff; stroke-width:8px; fill:none; " opacity="0" d="M 296,192 L 296,267" onmousedown="segmousedown(&quot;248&quot;,&quot;0&quot;,evt);" onmouseover="segmouseover(&quot;248&quot;,&quot;0&quot;,evt);" onmouseout="segmouseout(&quot;248&quot;,&quot;0&quot;,evt);" onclick="segclick(&quot;248&quot;,&quot;0&quot;,evt);"></path></g></g></g><g id="249"><path style="stroke:#bdbddf; stroke-width:8px; fill:none;" opacity="0.7" d="M 196,79 H 188.5 a 7.5,7.5 0 0,0 -7.5,7.5 V 141 a 12,12 0 0,1 -12,12L 90,153"></path><g><path style="stroke:#ff0; stroke-width:8px; fill:none; " opacity="0" d="M 196,79 H 188.5 a 7.5,7.5 0 0,0 -7.5,7.5 V 141 a 12,12 0 0,1 -12,12L 90,153"></path></g><path style="stroke:black; fill:none;" d="M 196,79 H 188.5 a 7.5,7.5 0 0,0 -7.5,7.5 V 141 a 12,12 0 0,1 -12,12L 90,153"></path><g><g><path style="stroke:#0ff; stroke-width:8px; fill:none; " opacity="0" d="M 196,79 L 181,79" onmousedown="segmousedown(&quot;249&quot;,&quot;0&quot;,evt);" onmouseover="segmouseover(&quot;249&quot;,&quot;0&quot;,evt);" onmouseout="segmouseout(&quot;249&quot;,&quot;0&quot;,evt);" onclick="segclick(&quot;249&quot;,&quot;0&quot;,evt);"></path><path style="stroke:#0ff; stroke-width:8px; fill:none; " opacity="0" d="M 181,79 L 181,153" onmousedown="segmousedown(&quot;249&quot;,&quot;1&quot;,evt);" onmouseover="segmouseover(&quot;249&quot;,&quot;1&quot;,evt);" onmouseout="segmouseout(&quot;249&quot;,&quot;1&quot;,evt);" onclick="segclick(&quot;249&quot;,&quot;1&quot;,evt);"></path><path style="stroke:#0ff; stroke-width:8px; fill:none; " opacity="0" d="M 181,153 L 90,153" onmousedown="segmousedown(&quot;249&quot;,&quot;2&quot;,evt);" onmouseover="segmouseover(&quot;249&quot;,&quot;2&quot;,evt);" onmouseout="segmouseout(&quot;249&quot;,&quot;2&quot;,evt);" onclick="segclick(&quot;249&quot;,&quot;2&quot;,evt);"></path></g></g></g><g id="250"><path style="stroke:#bdbddf; stroke-width:8px; fill:none;" opacity="0.7" d="M 60,153L 6,153"></path><g><path style="stroke:#ff0; stroke-width:8px; fill:none; " opacity="0" d="M 60,153L 6,153"></path></g><path style="stroke:black; fill:none;" d="M 60,153L 6,153"></path><g><g><path style="stroke:#0ff; stroke-width:8px; fill:none; " opacity="0" d="M 60,153 L 6,153" onmousedown="segmousedown(&quot;250&quot;,&quot;0&quot;,evt);" onmouseover="segmouseover(&quot;250&quot;,&quot;0&quot;,evt);" onmouseout="segmouseout(&quot;250&quot;,&quot;0&quot;,evt);" onclick="segclick(&quot;250&quot;,&quot;0&quot;,evt);"></path></g></g></g><g id="251"><path style="stroke:#bdbddf; stroke-width:8px; fill:none;" opacity="0.7" d="M -24,153L -97,153"></path><g><path style="stroke:#ff0; stroke-width:8px; fill:none; " opacity="0" d="M -24,153L -97,153"></path></g><path style="stroke:black; fill:none;" d="M -24,153L -97,153"></path><g><g><path style="stroke:#0ff; stroke-width:8px; fill:none; " opacity="0" d="M -24,153 L -97,153" onmousedown="segmousedown(&quot;251&quot;,&quot;0&quot;,evt);" onmouseover="segmouseover(&quot;251&quot;,&quot;0&quot;,evt);" onmouseout="segmouseout(&quot;251&quot;,&quot;0&quot;,evt);" onclick="segclick(&quot;251&quot;,&quot;0&quot;,evt);"></path></g></g></g><g id="252"><path style="stroke:#bdbddf; stroke-width:8px; fill:none;" opacity="0.7" d="M 78,168 V 232 a 12,12 0 0,0 12,12L 102,244"></path><g><path style="stroke:#ff0; stroke-width:8px; fill:none; " opacity="0" d="M 78,168 V 232 a 12,12 0 0,0 12,12L 102,244"></path></g><path style="stroke:black; fill:none;" d="M 78,168 V 232 a 12,12 0 0,0 12,12L 102,244"></path><g><g><path style="stroke:#0ff; stroke-width:8px; fill:none; " opacity="0" d="M 78,168 L 78,244" onmousedown="segmousedown(&quot;252&quot;,&quot;0&quot;,evt);" onmouseover="segmouseover(&quot;252&quot;,&quot;0&quot;,evt);" onmouseout="segmouseout(&quot;252&quot;,&quot;0&quot;,evt);" onclick="segclick(&quot;252&quot;,&quot;0&quot;,evt);"></path><path style="stroke:#0ff; stroke-width:8px; fill:none; " opacity="0" d="M 78,244 L 102,244" onmousedown="segmousedown(&quot;252&quot;,&quot;1&quot;,evt);" onmouseover="segmouseover(&quot;252&quot;,&quot;1&quot;,evt);" onmouseout="segmouseout(&quot;252&quot;,&quot;1&quot;,evt);" onclick="segclick(&quot;252&quot;,&quot;1&quot;,evt);"></path></g></g></g></g>
  <g id="nodes"><g id="229" onmousedown="nodemousedown(229,evt);" onmouseover="nodemouseover(229,evt);" onmouseout="nodemouseout(229,evt);" transform="translate(211 79)"><rect x="-21" y="-21" width="42" height="42" fill="#0ff" style="stroke:none; opacity:0.75;" display="none"></rect><rect x="-15" y="-15" width="30" height="30" fill="#f0f0d2" style="stroke:black; opacity:1;"></rect></g><g id="230" onmousedown="nodemousedown(230,evt);" onmouseover="nodemouseover(230,evt);" onmouseout="nodemouseout(230,evt);" transform="translate(211 340)"><rect x="-21" y="-21" width="42" height="42" fill="#0ff" style="stroke:none; opacity:0.75;" display="none"></rect><rect x="-15" y="-15" width="30" height="30" fill="#f0f0d2" style="stroke:black; opacity:1;"></rect></g><g id="240" onmousedown="nodemousedown(240,evt);" onmouseover="nodemouseover(240,evt);" onmouseout="nodemouseout(240,evt);" transform="translate(-112,153)"><rect x="-21" y="-21" width="42" height="42" fill="#0ff" style="stroke:none; opacity:0.75;" display="none"></rect><rect x="-15" y="-15" width="30" height="30" fill="#f0f0d2" style="stroke:black; opacity:1;"></rect></g><g id="239" onmousedown="nodemousedown(239,evt);" onmouseover="nodemouseover(239,evt);" onmouseout="nodemouseout(239,evt);" transform="translate(-9,153)"><rect x="-21" y="-21" width="42" height="42" fill="#0ff" style="stroke:none; opacity:0.75;" display="none"></rect><rect x="-15" y="-15" width="30" height="30" fill="#f0f0d2" style="stroke:black; opacity:1;"></rect></g><g id="237" onmousedown="nodemousedown(237,evt);" onmouseover="nodemouseover(237,evt);" onmouseout="nodemouseout(237,evt);" transform="translate(75,153)"><rect x="-21" y="-21" width="42" height="42" fill="#0ff" style="stroke:none; opacity:0.75;" display="none"></rect><rect x="-15" y="-15" width="30" height="30" fill="#f0f0d2" style="stroke:black; opacity:1;"></rect></g><g id="238" onmousedown="nodemousedown(238,evt);" onmouseover="nodemouseover(238,evt);" onmouseout="nodemouseout(238,evt);" transform="translate(117,244)"><rect x="-21" y="-21" width="42" height="42" fill="#0ff" style="stroke:none; opacity:0.75;" display="none"></rect><rect x="-15" y="-15" width="30" height="30" fill="#f0f0d2" style="stroke:black; opacity:1;"></rect></g><g id="232" onmousedown="nodemousedown(232,evt);" onmouseover="nodemouseover(232,evt);" onmouseout="nodemouseout(232,evt);" transform="translate(562,31)"><rect x="-21" y="-21" width="42" height="42" fill="#0ff" style="stroke:none; opacity:0.75;" display="none"></rect><rect x="-15" y="-15" width="30" height="30" fill="#f0f0d2" style="stroke:black; opacity:1;"></rect></g><g id="231" onmousedown="nodemousedown(231,evt);" onmouseover="nodemouseover(231,evt);" onmouseout="nodemouseout(231,evt);" transform="translate(569,334)"><rect x="-21" y="-21" width="42" height="42" fill="#0ff" style="stroke:none; opacity:0.75;" display="none"></rect><rect x="-15" y="-15" width="30" height="30" fill="#f0f0d2" style="stroke:black; opacity:1;"></rect></g><g id="234" onmousedown="nodemousedown(234,evt);" onmouseover="nodemouseover(234,evt);" onmouseout="nodemouseout(234,evt);" transform="translate(413,182)"><rect x="-21" y="-21" width="42" height="42" fill="#0ff" style="stroke:none; opacity:0.75;" display="none"></rect><rect x="-15" y="-15" width="30" height="30" fill="#f0f0d2" style="stroke:black; opacity:1;"></rect></g><g id="235" onmousedown="nodemousedown(235,evt);" onmouseover="nodemouseover(235,evt);" onmouseout="nodemouseout(235,evt);" transform="translate(296,177)"><rect x="-21" y="-21" width="42" height="42" fill="#0ff" style="stroke:none; opacity:0.75;" display="none"></rect><rect x="-15" y="-15" width="30" height="30" fill="#f0f0d2" style="stroke:black; opacity:1;"></rect></g><g id="236" onmousedown="nodemousedown(236,evt);" onmouseover="nodemouseover(236,evt);" onmouseout="nodemouseout(236,evt);" transform="translate(296,282)"><rect x="-21" y="-21" width="42" height="42" fill="#0ff" style="stroke:none; opacity:0.75;" display="none"></rect><rect x="-15" y="-15" width="30" height="30" fill="#f0f0d2" style="stroke:black; opacity:1;"></rect></g><g id="233" onmousedown="nodemousedown(233,evt);" onmouseover="nodemouseover(233,evt);" onmouseout="nodemouseout(233,evt);" transform="translate(538,187)"><rect x="-21" y="-21" width="42" height="42" fill="#0ff" style="stroke:none; opacity:0.75;" display="none"></rect><rect x="-15" y="-15" width="30" height="30" fill="#f0f0d2" style="stroke:black; opacity:1;"></rect></g></g>
  <g id="BPs"><g onmousedown="bpmousedown(257,evt);" onmouseover="bpmouseover(257,evt);" onmouseout="bpmouseout(257,evt);" transform="translate(589 334)" opacity="0"><ellipse cx="0" cy="0" rx="16" ry="16" fill="#0ff" style="stroke:none; opacity:0.75;" display="none"></ellipse><ellipse cx="0" cy="0" rx="7.163929600000001" ry="7.163929600000001" fill="#777" style="stroke:black;"></ellipse></g><g onmousedown="bpmousedown(258,evt);" onmouseover="bpmouseover(258,evt);" onmouseout="bpmouseout(258,evt);" transform="translate(589,31)" opacity="0"><ellipse cx="0" cy="0" rx="16" ry="16" fill="#0ff" style="stroke:none; opacity:0.75;" display="none"></ellipse><ellipse cx="0" cy="0" rx="7.163929600000001" ry="7.163929600000001" fill="#777" style="stroke:black;"></ellipse></g><g onmousedown="bpmousedown(262,evt);" onmouseover="bpmouseover(262,evt);" onmouseout="bpmouseout(262,evt);" transform="translate(211,28)" opacity="0"><ellipse cx="0" cy="0" rx="16" ry="16" fill="#0ff" style="stroke:none; opacity:0.75;" display="none"></ellipse><ellipse cx="0" cy="0" rx="7.163929600000001" ry="7.163929600000001" fill="#777" style="stroke:black;"></ellipse></g><g onmousedown="bpmousedown(268,evt);" onmouseover="bpmouseover(268,evt);" onmouseout="bpmouseout(268,evt);" transform="translate(538,334)" opacity="0"><ellipse cx="0" cy="0" rx="16" ry="16" fill="#0ff" style="stroke:none; opacity:0.75;" display="none"></ellipse><ellipse cx="0" cy="0" rx="7.163929600000001" ry="7.163929600000001" fill="#777" style="stroke:black;"></ellipse></g><g onmousedown="bpmousedown(281,evt);" onmouseover="bpmouseover(281,evt);" onmouseout="bpmouseout(281,evt);" transform="translate(181,153)" opacity="0"><ellipse cx="0" cy="0" rx="16" ry="16" fill="#0ff" style="stroke:none; opacity:0.75;" display="none"></ellipse><ellipse cx="0" cy="0" rx="7.163929600000001" ry="7.163929600000001" fill="#777" style="stroke:black;"></ellipse></g><g onmousedown="bpmousedown(291,evt);" onmouseover="bpmouseover(291,evt);" onmouseout="bpmouseout(291,evt);" transform="translate(78,244)" opacity="0"><ellipse cx="0" cy="0" rx="16" ry="16" fill="#0ff" style="stroke:none; opacity:0.75;" display="none"></ellipse><ellipse cx="0" cy="0" rx="7.163929600000001" ry="7.163929600000001" fill="#777" style="stroke:black;"></ellipse></g><g onmousedown="bpmousedown(297,evt);" onmouseover="bpmouseover(297,evt);" onmouseout="bpmouseout(297,evt);" transform="translate(181,79)" opacity="0"><ellipse cx="0" cy="0" rx="16" ry="16" fill="#0ff" style="stroke:none; opacity:0.75;" display="none"></ellipse><ellipse cx="0" cy="0" rx="7.163929600000001" ry="7.163929600000001" fill="#777" style="stroke:black;"></ellipse></g></g>
  <g id="ports"></g>
</g>
</svg>