<svg id="SVGCanvas" width="480px" height="270px" xmlns="http://www.w3.org/2000/svg" xmlns:xlink="http://www.w3.org/1999/xlink" onmouseup="null" onmousemove="null">
<rect id="background" x="0" y="0" height="100%" width="100%" fill="#bdbddf" onmousedown="bgmousedown(evt)"></rect>
<g id="foreground" transform="translate(31.23711340206185,0),scale(0.5567010309278351),translate(-9,-62)">
  <g id="edges"><g id="266"><path style="stroke:#bdbddf; stroke-width:8px; fill:none;" opacity="0.7" d="M 515,87 H 356 a 12,12 0 0,0 -12,12L 344,173"></path><g><path style="stroke:#ff0; stroke-width:8px; fill:none; " opacity="0" d="M 515,87 H 356 a 12,12 0 0,0 -12,12L 344,173"></path></g><path style="stroke:black; fill:none;" d="M 515,87 H 356 a 12,12 0 0,0 -12,12L 344,173"></path><g><g><path style="stroke:#0ff; stroke-width:8px; fill:none; " opacity="0" d="M 515,87 L 344,87" onmousedown="segmousedown(&quot;266&quot;,&quot;0&quot;,evt);" onmouseover="segmouseover(&quot;266&quot;,&quot;0&quot;,evt);" onmouseout="segmouseout(&quot;266&quot;,&quot;0&quot;,evt);" onclick="segclick(&quot;266&quot;,&quot;0&quot;,evt);"></path><path style="stroke:#0ff; stroke-width:8px; fill:none; " opacity="0" d="M 344,87 L 344,173" onmousedown="segmousedown(&quot;266&quot;,&quot;1&quot;,evt);" onmouseover="segmouseover(&quot;266&quot;,&quot;1&quot;,evt);" onmouseout="segmouseout(&quot;266&quot;,&quot;1&quot;,evt);" onclick="segclick(&quot;266&quot;,&quot;1&quot;,evt);"></path></g></g></g><g id="267"><path style="stroke:#bdbddf; stroke-width:8px; fill:none;" opacity="0.7" d="M 361,173 V 215 a 12,12 0 0,1 -12,12 H 301 a 12,12 0 0,0 -12,12L 289,255"></path><g><path style="stroke:#ff0; stroke-width:8px; fill:none; " opacity="0" d="M 361,173 V 215 a 12,12 0 0,1 -12,12 H 301 a 12,12 0 0,0 -12,12L 289,255"></path></g><path style="stroke:black; fill:none;" d="M 361,173 V 215 a 12,12 0 0,1 -12,12 H 301 a 12,12 0 0,0 -12,12L 289,255"></path><g><g><path style="stroke:#0ff; stroke-width:8px; fill:none; " opacity="0" d="M 361,173 L 361,227" onmousedown="segmousedown(&quot;267&quot;,&quot;0&quot;,evt);" onmouseover="segmouseover(&quot;267&quot;,&quot;0&quot;,evt);" onmouseout="segmouseout(&quot;267&quot;,&quot;0&quot;,evt);" onclick="segclick(&quot;267&quot;,&quot;0&quot;,evt);"></path><path style="stroke:#0ff; stroke-width:8px; fill:none; " opacity="0" d="M 361,227 L 289,227" onmousedown="segmousedown(&quot;267&quot;,&quot;1&quot;,evt);" onmouseover="segmouseover(&quot;267&quot;,&quot;1&quot;,evt);" onmouseout="segmouseout(&quot;267&quot;,&quot;1&quot;,evt);" onclick="segclick(&quot;267&quot;,&quot;1&quot;,evt);"></path><path style="stroke:#0ff; stroke-width:8px; fill:none; " opacity="0" d="M 289,227 L 289,255" onmousedown="segmousedown(&quot;267&quot;,&quot;2&quot;,evt);" onmouseover="segmouseover(&quot;267&quot;,&quot;2&quot;,evt);" onmouseout="segmouseout(&quot;267&quot;,&quot;2&quot;,evt);" onclick="segclick(&quot;267&quot;,&quot;2&quot;,evt);"></path></g></g></g><g id="268"><path style="stroke:#bdbddf; stroke-width:8px; fill:none;" opacity="0.7" d="M 720,338 V 99 a 12,12 0 0,0 -12,-12L 545,87"></path><g><path style="stroke:#ff0; stroke-width:8px; fill:none; " opacity="0" d="M 720,338 V 99 a 12,12 0 0,0 -12,-12L 545,87"></path></g><path style="stroke:black; fill:none;" d="M 720,338 V 99 a 12,12 0 0,0 -12,-12L 545,87"></path><g><g><path style="stroke:#0ff; stroke-width:8px; fill:none; " opacity="0" d="M 720,338 L 720,87" onmousedown="segmousedown(&quot;268&quot;,&quot;0&quot;,evt);" onmouseover="segmouseover(&quot;268&quot;,&quot;0&quot;,evt);" onmouseout="segmouseout(&quot;268&quot;,&quot;0&quot;,evt);" onclick="segclick(&quot;268&quot;,&quot;0&quot;,evt);"></path><path style="stroke:#0ff; stroke-width:8px; fill:none; " opacity="0" d="M 720,87 L 545,87" onmousedown="segmousedown(&quot;268&quot;,&quot;1&quot;,evt);" onmouseover="segmouseover(&quot;268&quot;,&quot;1&quot;,evt);" onmouseout="segmouseout(&quot;268&quot;,&quot;1&quot;,evt);" onclick="segclick(&quot;268&quot;,&quot;1&quot;,evt);"></path></g></g></g><g id="269"><path style="stroke:#bdbddf; stroke-width:8px; fill:none;" opacity="0.7" d="M 732,338 V 330.5 a 7.5,7.5 0 0,0 -7.5,-7.5L 303,323"></path><g><path style="stroke:#ff0; stroke-width:8px; fill:none; " opacity="0" d="M 732,338 V 330.5 a 7.5,7.5 0 0,0 -7.5,-7.5L 303,323"></path></g><path style="stroke:black; fill:none;" d="M 732,338 V 330.5 a 7.5,7.5 0 0,0 -7.5,-7.5L 303,323"></path><g><g><path style="stroke:#0ff; stroke-width:8px; fill:none; " opacity="0" d="M 732,338 L 732,323" onmousedown="segmousedown(&quot;269&quot;,&quot;0&quot;,evt);" onmouseover="segmouseover(&quot;269&quot;,&quot;0&quot;,evt);" onmouseout="segmouseout(&quot;269&quot;,&quot;0&quot;,evt);" onclick="segclick(&quot;269&quot;,&quot;0&quot;,evt);"></path><path style="stroke:#0ff; stroke-width:8px; fill:none; " opacity="0" d="M 732,323 L 303,323" onmousedown="segmousedown(&quot;269&quot;,&quot;1&quot;,evt);" onmouseover="segmouseover(&quot;269&quot;,&quot;1&quot;,evt);" onmouseout="segmouseout(&quot;269&quot;,&quot;1&quot;,evt);" onclick="segclick(&quot;269&quot;,&quot;1&quot;,evt);"></path></g></g></g><g id="270"><path style="stroke:#bdbddf; stroke-width:8px; fill:none;" opacity="0.7" d="M 288,338 V 505 a 12,12 0 0,1 -12,12L 167,517"></path><g><path style="stroke:#ff0; stroke-width:8px; fill:none; " opacity="0" d="M 288,338 V 505 a 12,12 0 0,1 -12,12L 167,517"></path></g><path style="stroke:black; fill:none;" d="M 288,338 V 505 a 12,12 0 0,1 -12,12L 167,517"></path><g><g><path style="stroke:#0ff; stroke-width:8px; fill:none; " opacity="0" d="M 288,338 L 288,517" onmousedown="segmousedown(&quot;270&quot;,&quot;0&quot;,evt);" onmouseover="segmouseover(&quot;270&quot;,&quot;0&quot;,evt);" onmouseout="segmouseout(&quot;270&quot;,&quot;0&quot;,evt);" onclick="segclick(&quot;270&quot;,&quot;0&quot;,evt);"></path><path style="stroke:#0ff; stroke-width:8px; fill:none; " opacity="0" d="M 288,517 L 167,517" onmousedown="segmousedown(&quot;270&quot;,&quot;1&quot;,evt);" onmouseover="segmouseover(&quot;270&quot;,&quot;1&quot;,evt);" onmouseout="segmouseout(&quot;270&quot;,&quot;1&quot;,evt);" onclick="segclick(&quot;270&quot;,&quot;1&quot;,evt);"></path></g></g></g><g id="271"><path style="stroke:#bdbddf; stroke-width:8px; fill:none;" opacity="0.7" d="M 304,270 H 383 a 12,12 0 0,1 12,12L 395,389.5"></path><g><path style="stroke:#ff0; stroke-width:8px; fill:none; " opacity="0" d="M 304,270 H 383 a 12,12 0 0,1 12,12L 395,389.5"></path></g><path style="stroke:black; fill:none;" d="M 304,270 H 383 a 12,12 0 0,1 12,12L 395,389.5"></path><g><g><path style="stroke:#0ff; stroke-width:8px; fill:none; " opacity="0" d="M 304,270 L 395,270" onmousedown="segmousedown(&quot;271&quot;,&quot;0&quot;,evt);" onmouseover="segmouseover(&quot;271&quot;,&quot;0&quot;,evt);" onmouseout="segmouseout(&quot;271&quot;,&quot;0&quot;,evt);" onclick="segclick(&quot;271&quot;,&quot;0&quot;,evt);"></path><path style="stroke:#0ff; stroke-width:8px; fill:none; " opacity="0" d="M 395,270 L 395,389.5" onmousedown="segmousedown(&quot;271&quot;,&quot;1&quot;,evt);" onmouseover="segmouseover(&quot;271&quot;,&quot;1&quot;,evt);" onmouseout="segmouseout(&quot;271&quot;,&quot;1&quot;,evt);" onclick="segclick(&quot;271&quot;,&quot;1&quot;,evt);"></path></g></g></g><g id="272"><path style="stroke:#bdbddf; stroke-width:8px; fill:none;" opacity="0.7" d="M 394,440.5 V 444.75 a 4.25,4.25 0 0,0 4.25,4.25 H 424 a 12,12 0 0,1 12,12L 436,473"></path><g><path style="stroke:#ff0; stroke-width:8px; fill:none; " opacity="0" d="M 394,440.5 V 444.75 a 4.25,4.25 0 0,0 4.25,4.25 H 424 a 12,12 0 0,1 12,12L 436,473"></path></g><path style="stroke:black; fill:none;" d="M 394,440.5 V 444.75 a 4.25,4.25 0 0,0 4.25,4.25 H 424 a 12,12 0 0,1 12,12L 436,473"></path><g><g><path style="stroke:#0ff; stroke-width:8px; fill:none; " opacity="0" d="M 394,440.5 L 394,449" onmousedown="segmousedown(&quot;272&quot;,&quot;0&quot;,evt);" onmouseover="segmouseover(&quot;272&quot;,&quot;0&quot;,evt);" onmouseout="segmouseout(&quot;272&quot;,&quot;0&quot;,evt);" onclick="segclick(&quot;272&quot;,&quot;0&quot;,evt);"></path><path style="stroke:#0ff; stroke-width:8px; fill:none; " opacity="0" d="M 394,449 L 436,449" onmousedown="segmousedown(&quot;272&quot;,&quot;1&quot;,evt);" onmouseover="segmouseover(&quot;272&quot;,&quot;1&quot;,evt);" onmouseout="segmouseout(&quot;272&quot;,&quot;1&quot;,evt);" onclick="segclick(&quot;272&quot;,&quot;1&quot;,evt);"></path><path style="stroke:#0ff; stroke-width:8px; fill:none; " opacity="0" d="M 436,449 L 436,473" onmousedown="segmousedown(&quot;272&quot;,&quot;2&quot;,evt);" onmouseover="segmouseover(&quot;272&quot;,&quot;2&quot;,evt);" onmouseout="segmouseout(&quot;272&quot;,&quot;2&quot;,evt);" onclick="segclick(&quot;272&quot;,&quot;2&quot;,evt);"></path></g></g></g><g id="273"><path style="stroke:#bdbddf; stroke-width:8px; fill:none;" opacity="0.7" d="M 457,488 H 712 a 12,12 0 0,0 12,-12L 724,368"></path><g><path style="stroke:#ff0; stroke-width:8px; fill:none; " opacity="0" d="M 457,488 H 712 a 12,12 0 0,0 12,-12L 724,368"></path></g><path style="stroke:black; fill:none;" d="M 457,488 H 712 a 12,12 0 0,0 12,-12L 724,368"></path><g><g><path style="stroke:#0ff; stroke-width:8px; fill:none; " opacity="0" d="M 457,488 L 724,488" onmousedown="segmousedown(&quot;273&quot;,&quot;0&quot;,evt);" onmouseover="segmouseover(&quot;273&quot;,&quot;0&quot;,evt);" onmouseout="segmouseout(&quot;273&quot;,&quot;0&quot;,evt);" onclick="segclick(&quot;273&quot;,&quot;0&quot;,evt);"></path><path style="stroke:#0ff; stroke-width:8px; fill:none; " opacity="0" d="M 724,488 L 724,368" onmousedown="segmousedown(&quot;273&quot;,&quot;1&quot;,evt);" onmouseover="segmouseover(&quot;273&quot;,&quot;1&quot;,evt);" onmouseout="segmouseout(&quot;273&quot;,&quot;1&quot;,evt);" onclick="segclick(&quot;273&quot;,&quot;1&quot;,evt);"></path></g></g></g><g id="274"><path style="stroke:#bdbddf; stroke-width:8px; fill:none;" opacity="0.7" d="M 149,502L 149,217"></path><g><path style="stroke:#ff0; stroke-width:8px; fill:none; " opacity="0" d="M 149,502L 149,217"></path></g><path style="stroke:black; fill:none;" d="M 149,502L 149,217"></path><g><g><path style="stroke:#0ff; stroke-width:8px; fill:none; " opacity="0" d="M 149,502 L 149,217" onmousedown="segmousedown(&quot;274&quot;,&quot;0&quot;,evt);" onmouseover="segmouseover(&quot;274&quot;,&quot;0&quot;,evt);" onmouseout="segmouseout(&quot;274&quot;,&quot;0&quot;,evt);" onclick="segclick(&quot;274&quot;,&quot;0&quot;,evt);"></path></g></g></g><g id="275"><path style="stroke:#bdbddf; stroke-width:8px; fill:none;" opacity="0.7" d="M 117,517 H 106.5 a 10.5,10.5 0 0,1 -10.5,-10.5 V 358 a 12,12 0 0,0 -12,-12L 39,346"></path><g><path style="stroke:#ff0; stroke-width:8px; fill:none; " opacity="0" d="M 117,517 H 106.5 a 10.5,10.5 0 0,1 -10.5,-10.5 V 358 a 12,12 0 0,0 -12,-12L 39,346"></path></g><path style="stroke:black; fill:none;" d="M 117,517 H 106.5 a 10.5,10.5 0 0,1 -10.5,-10.5 V 358 a 12,12 0 0,0 -12,-12L 39,346"></path><g><g><path style="stroke:#0ff; stroke-width:8px; fill:none; " opacity="0" d="M 117,517 L 96,517" onmousedown="segmousedown(&quot;275&quot;,&quot;0&quot;,evt);" onmouseover="segmouseover(&quot;275&quot;,&quot;0&quot;,evt);" onmouseout="segmouseout(&quot;275&quot;,&quot;0&quot;,evt);" onclick="segclick(&quot;275&quot;,&quot;0&quot;,evt);"></path><path style="stroke:#0ff; stroke-width:8px; fill:none; " opacity="0" d="M 96,517 L 96,346" onmousedown="segmousedown(&quot;275&quot;,&quot;1&quot;,evt);" onmouseover="segmouseover(&quot;275&quot;,&quot;1&quot;,evt);" onmouseout="segmouseout(&quot;275&quot;,&quot;1&quot;,evt);" onclick="segclick(&quot;275&quot;,&quot;1&quot;,evt);"></path><path style="stroke:#0ff; stroke-width:8px; fill:none; " opacity="0" d="M 96,346 L 39,346" onmousedown="segmousedown(&quot;275&quot;,&quot;2&quot;,evt);" onmouseover="segmouseover(&quot;275&quot;,&quot;2&quot;,evt);" onmouseout="segmouseout(&quot;275&quot;,&quot;2&quot;,evt);" onclick="segclick(&quot;275&quot;,&quot;2&quot;,evt);"></path></g></g></g><g id="276"><path style="stroke:#bdbddf; stroke-width:8px; fill:none;" opacity="0.7" d="M 714,342 H 642 a 12,12 0 0,1 -12,-12L 630,223"></path><g><path style="stroke:#ff0; stroke-width:8px; fill:none; " opacity="0" d="M 714,342 H 642 a 12,12 0 0,1 -12,-12L 630,223"></path></g><path style="stroke:black; fill:none;" d="M 714,342 H 642 a 12,12 0 0,1 -12,-12L 630,223"></path><g><g><path style="stroke:#0ff; stroke-width:8px; fill:none; " opacity="0" d="M 714,342 L 630,342" onmousedown="segmousedown(&quot;276&quot;,&quot;0&quot;,evt);" onmouseover="segmouseover(&quot;276&quot;,&quot;0&quot;,evt);" onmouseout="segmouseout(&quot;276&quot;,&quot;0&quot;,evt);" onclick="segclick(&quot;276&quot;,&quot;0&quot;,evt);"></path><path style="stroke:#0ff; stroke-width:8px; fill:none; " opacity="0" d="M 630,342 L 630,223" onmousedown="segmousedown(&quot;276&quot;,&quot;1&quot;,evt);" onmouseover="segmouseover(&quot;276&quot;,&quot;1&quot;,evt);" onmouseout="segmouseout(&quot;276&quot;,&quot;1&quot;,evt);" onclick="segclick(&quot;276&quot;,&quot;1&quot;,evt);"></path></g></g></g><g id="277"><path style="stroke:#bdbddf; stroke-width:8px; fill:none;" opacity="0.7" d="M 615,195L 548,195"></path><g><path style="stroke:#ff0; stroke-width:8px; fill:none; " opacity="0" d="M 615,195L 548,195"></path></g><path style="stroke:black; fill:none;" d="M 615,195L 548,195"></path><g><g><path style="stroke:#0ff; stroke-width:8px; fill:none; " opacity="0" d="M 615,195 L 548,195" onmousedown="segmousedown(&quot;277&quot;,&quot;0&quot;,evt);" onmouseover="segmouseover(&quot;277&quot;,&quot;0&quot;,evt);" onmouseout="segmouseout(&quot;277&quot;,&quot;0&quot;,evt);" onclick="segclick(&quot;277&quot;,&quot;0&quot;,evt);"></path></g></g></g><g id="278"><path style="stroke:#bdbddf; stroke-width:8px; fill:none;" opacity="0.7" d="M 533,210L 533,394"></path><g><path style="stroke:#ff0; stroke-width:8px; fill:none; " opacity="0" d="M 533,210L 533,394"></path></g><path style="stroke:black; fill:none;" d="M 533,210L 533,394"></path><g><g><path style="stroke:#0ff; stroke-width:8px; fill:none; " opacity="0" d="M 533,210 L 533,394" onmousedown="segmousedown(&quot;278&quot;,&quot;0&quot;,evt);" onmouseover="segmouseover(&quot;278&quot;,&quot;0&quot;,evt);" onmouseout="segmouseout(&quot;278&quot;,&quot;0&quot;,evt);" onclick="segclick(&quot;278&quot;,&quot;0&quot;,evt);"></path></g></g></g><g id="279"><path style="stroke:#bdbddf; stroke-width:8px; fill:none;" opacity="0.7" d="M 548,409 H 630 a 12,12 0 0,0 12,-12 V 374 a 12,12 0 0,1 12,-12L 714,362"></path><g><path style="stroke:#ff0; stroke-width:8px; fill:none; " opacity="0" d="M 548,409 H 630 a 12,12 0 0,0 12,-12 V 374 a 12,12 0 0,1 12,-12L 714,362"></path></g><path style="stroke:black; fill:none;" d="M 548,409 H 630 a 12,12 0 0,0 12,-12 V 374 a 12,12 0 0,1 12,-12L 714,362"></path><g><g><path style="stroke:#0ff; stroke-width:8px; fill:none; " opacity="0" d="M 548,409 L 642,409" onmousedown="segmousedown(&quot;279&quot;,&quot;0&quot;,evt);" onmouseover="segmouseover(&quot;279&quot;,&quot;0&quot;,evt);" onmouseout="segmouseout(&quot;279&quot;,&quot;0&quot;,evt);" onclick="segclick(&quot;279&quot;,&quot;0&quot;,evt);"></path><path style="stroke:#0ff; stroke-width:8px; fill:none; " opacity="0" d="M 642,409 L 642,362" onmousedown="segmousedown(&quot;279&quot;,&quot;1&quot;,evt);" onmouseover="segmouseover(&quot;279&quot;,&quot;1&quot;,evt);" onmouseout="segmouseout(&quot;279&quot;,&quot;1&quot;,evt);" onclick="segclick(&quot;279&quot;,&quot;1&quot;,evt);"></path><path style="stroke:#0ff; stroke-width:8px; fill:none; " opacity="0" d="M 642,362 L 714,362" onmousedown="segmousedown(&quot;279&quot;,&quot;2&quot;,evt);" onmouseover="segmouseover(&quot;279&quot;,&quot;2&quot;,evt);" onmouseout="segmouseout(&quot;279&quot;,&quot;2&quot;,evt);" onclick="segclick(&quot;279&quot;,&quot;2&quot;,evt);"></path></g></g></g></g>
  <g id="nodes"><g id="254" onmousedown="nodemousedown(254,evt);" onmouseover="nodemouseover(254,evt);" onmouseout="nodemouseout(254,evt);" transform="translate(353 173)"><rect x="-32.5" y="-21" width="65" height="42" fill="#0ff" style="stroke:none; opacity:0.75;" display="none"></rect><rect x="-26.5" y="-15" width="53" height="30" fill="#f0f0d2" style="stroke:black; opacity:1;"></rect></g><g id="262" onmousedown="nodemousedown(262,evt);" onmouseover="nodemouseover(262,evt);" onmouseout="nodemouseout(262,evt);" transform="translate(39 346)"><rect x="-21" y="-21" width="42" height="42" fill="#0ff" style="stroke:none; opacity:0.75;" display="none"></rect><rect x="-15" y="-15" width="30" height="30" fill="#f0f0d2" style="stroke:black; opacity:1;"></rect></g><g id="260" onmousedown="nodemousedown(260,evt);" onmouseover="nodemouseover(260,evt);" onmouseout="nodemouseout(260,evt);" transform="translate(151,202)"><rect x="-21" y="-21" width="42" height="42" fill="#0ff" style="stroke:none; opacity:0.75;" display="none"></rect><rect x="-15" y="-15" width="30" height="30" fill="#f0f0d2" style="stroke:black; opacity:1;"></rect></g><g id="261" onmousedown="nodemousedown(261,evt);" onmouseover="nodemouseover(261,evt);" onmouseout="nodemouseout(261,evt);" transform="translate(142,517)"><rect x="-31" y="-21" width="62" height="42" fill="#0ff" style="stroke:none; opacity:0.75;" display="none"></rect><rect x="-25" y="-15" width="50" height="30" fill="#f0f0d2" style="stroke:black; opacity:1;"></rect></g><g id="259" onmousedown="nodemousedown(259,evt);" onmouseover="nodemouseover(259,evt);" onmouseout="nodemouseout(259,evt);" transform="translate(288,323)"><rect x="-21" y="-21" width="42" height="42" fill="#0ff" style="stroke:none; opacity:0.75;" display="none"></rect><rect x="-15" y="-15" width="30" height="30" fill="#f0f0d2" style="stroke:black; opacity:1;"></rect></g><g id="256" onmousedown="nodemousedown(256,evt);" onmouseover="nodemouseover(256,evt);" onmouseout="nodemouseout(256,evt);" transform="translate(388,415)"><rect x="-27" y="-31.5" width="54" height="63" fill="#0ff" style="stroke:none; opacity:0.75;" display="none"></rect><rect x="-21" y="-25.5" width="42" height="51" fill="#f0f0d2" style="stroke:black; opacity:1;"></rect></g><g id="257" onmousedown="nodemousedown(257,evt);" onmouseover="nodemouseover(257,evt);" onmouseout="nodemouseout(257,evt);" transform="translate(442,488)"><rect x="-21" y="-21" width="42" height="42" fill="#0ff" style="stroke:none; opacity:0.75;" display="none"></rect><rect x="-15" y="-15" width="30" height="30" fill="#f0f0d2" style="stroke:black; opacity:1;"></rect></g><g id="255" onmousedown="nodemousedown(255,evt);" onmouseover="nodemouseover(255,evt);" onmouseout="nodemouseout(255,evt);" transform="translate(289,270)"><rect x="-21" y="-21" width="42" height="42" fill="#0ff" style="stroke:none; opacity:0.75;" display="none"></rect><rect x="-15" y="-15" width="30" height="30" fill="#f0f0d2" style="stroke:black; opacity:1;"></rect></g><g id="253" onmousedown="nodemousedown(253,evt);" onmouseover="nodemouseover(253,evt);" onmouseout="nodemouseout(253,evt);" transform="translate(530,96)"><rect x="-21" y="-21" width="42" height="42" fill="#0ff" style="stroke:none; opacity:0.75;" display="none"></rect><rect x="-15" y="-15" width="30" height="30" fill="#f0f0d2" style="stroke:black; opacity:1;"></rect></g><g id="263" onmousedown="nodemousedown(263,evt);" onmouseover="nodemouseover(263,evt);" onmouseout="nodemouseout(263,evt);" transform="translate(630,195)"><rect x="-21" y="-34" width="42" height="68" fill="#0ff" style="stroke:none; opacity:0.75;" display="none"></rect><rect x="-15" y="-28" width="30" height="56" fill="#f0f0d2" style="stroke:black; opacity:1;"></rect></g><g id="264" onmousedown="nodemousedown(264,evt);" onmouseover="nodemouseover(264,evt);" onmouseout="nodemouseout(264,evt);" transform="translate(533,195)"><rect x="-21" y="-21" width="42" height="42" fill="#0ff" style="stroke:none; opacity:0.75;" display="none"></rect><rect x="-15" y="-15" width="30" height="30" fill="#f0f0d2" style="stroke:black; opacity:1;"></rect></g><g id="265" onmousedown="nodemousedown(265,evt);" onmouseover="nodemouseover(265,evt);" onmouseout="nodemouseout(265,evt);" transform="translate(533,409)"><rect x="-21" y="-21" width="42" height="42" fill="#0ff" style="stroke:none; opacity:0.75;" display="none"></rect><rect x="-15" y="-15" width="30" height="30" fill="#f0f0d2" style="stroke:black; opacity:1;"></rect></g><g id="258" onmousedown="nodemousedown(258,evt);" onmouseover="nodemouseover(258,evt);" onmouseout="nodemouseout(258,evt);" transform="translate(729,353)"><rect x="-21" y="-21" width="42" height="42" fill="#0ff" style="stroke:none; opacity:0.75;" display="none"></rect><rect x="-15" y="-15" width="30" height="30" fill="#f0f0d2" style="stroke:black; opacity:1;"></rect></g></g>
  <g id="BPs"><g onmousedown="bpmousedown(282,evt);" onmouseover="bpmouseover(282,evt);" onmouseout="bpmouseout(282,evt);" transform="translate(344,87)" opacity="0"><ellipse cx="0" cy="0" rx="16" ry="16" fill="#0ff" style="stroke:none; opacity:0.75;" display="none"></ellipse><ellipse cx="0" cy="0" rx="7.1639296" ry="7.1639296" fill="#777" style="stroke:black;"></ellipse></g><g onmousedown="bpmousedown(285,evt);" onmouseover="bpmouseover(285,evt);" onmouseout="bpmouseout(285,evt);" transform="translate(361 227)" opacity="0"><ellipse cx="0" cy="0" rx="16" ry="16" fill="#0ff" style="stroke:none; opacity:0.75;" display="none"></ellipse><ellipse cx="0" cy="0" rx="7.1639296" ry="7.1639296" fill="#777" style="stroke:black;"></ellipse></g><g onmousedown="bpmousedown(286,evt);" onmouseover="bpmouseover(286,evt);" onmouseout="bpmouseout(286,evt);" transform="translate(289,227)" opacity="0"><ellipse cx="0" cy="0" rx="16" ry="16" fill="#0ff" style="stroke:none; opacity:0.75;" display="none"></ellipse><ellipse cx="0" cy="0" rx="7.1639296" ry="7.1639296" fill="#777" style="stroke:black;"></ellipse></g><g onmousedown="bpmousedown(289,evt);" onmouseover="bpmouseover(289,evt);" onmouseout="bpmouseout(289,evt);" transform="translate(720,87)" opacity="0"><ellipse cx="0" cy="0" rx="16" ry="16" fill="#0ff" style="stroke:none; opacity:0.75;" display="none"></ellipse><ellipse cx="0" cy="0" rx="7.1639296" ry="7.1639296" fill="#777" style="stroke:black;"></ellipse></g><g onmousedown="bpmousedown(292,evt);" onmouseover="bpmouseover(292,evt);" onmouseout="bpmouseout(292,evt);" transform="translate(732,323)" opacity="0"><ellipse cx="0" cy="0" rx="16" ry="16" fill="#0ff" style="stroke:none; opacity:0.75;" display="none"></ellipse><ellipse cx="0" cy="0" rx="7.1639296" ry="7.1639296" fill="#777" style="stroke:black;"></ellipse></g><g onmousedown="bpmousedown(295,evt);" onmouseover="bpmouseover(295,evt);" onmouseout="bpmouseout(295,evt);" transform="translate(288,517)" opacity="0"><ellipse cx="0" cy="0" rx="16" ry="16" fill="#0ff" style="stroke:none; opacity:0.75;" display="none"></ellipse><ellipse cx="0" cy="0" rx="7.1639296" ry="7.1639296" fill="#777" style="stroke:black;"></ellipse></g><g onmousedown="bpmousedown(298,evt);" onmouseover="bpmouseover(298,evt);" onmouseout="bpmouseout(298,evt);" transform="translate(395,270)" opacity="0"><ellipse cx="0" cy="0" rx="16" ry="16" fill="#0ff" style="stroke:none; opacity:0.75;" display="none"></ellipse><ellipse cx="0" cy="0" rx="7.1639296" ry="7.1639296" fill="#777" style="stroke:black;"></ellipse></g><g onmousedown="bpmousedown(301,evt);" onmouseover="bpmouseover(301,evt);" onmouseout="bpmouseout(301,evt);" transform="translate(394,449)" opacity="0"><ellipse cx="0" cy="0" rx="16" ry="16" fill="#0ff" style="stroke:none; opacity:0.75;" display="none"></ellipse><ellipse cx="0" cy="0" rx="7.1639296" ry="7.1639296" fill="#777" style="stroke:black;"></ellipse></g><g onmousedown="bpmousedown(302,evt);" onmouseover="bpmouseover(302,evt);" onmouseout="bpmouseout(302,evt);" transform="translate(436,449)" opacity="0"><ellipse cx="0" cy="0" rx="16" ry="16" fill="#0ff" style="stroke:none; opacity:0.75;" display="none"></ellipse><ellipse cx="0" cy="0" rx="7.1639296" ry="7.1639296" fill="#777" style="stroke:black;"></ellipse></g><g onmousedown="bpmousedown(305,evt);" onmouseover="bpmouseover(305,evt);" onmouseout="bpmouseout(305,evt);" transform="translate(724,488)" opacity="0"><ellipse cx="0" cy="0" rx="16" ry="16" fill="#0ff" style="stroke:none; opacity:0.75;" display="none"></ellipse><ellipse cx="0" cy="0" rx="7.1639296" ry="7.1639296" fill="#777" style="stroke:black;"></ellipse></g><g onmousedown="bpmousedown(311,evt);" onmouseover="bpmouseover(311,evt);" onmouseout="bpmouseout(311,evt);" transform="translate(96,517)" opacity="0"><ellipse cx="0" cy="0" rx="16" ry="16" fill="#0ff" style="stroke:none; opacity:0.75;" display="none"></ellipse><ellipse cx="0" cy="0" rx="7.1639296" ry="7.1639296" fill="#777" style="stroke:black;"></ellipse></g><g onmousedown="bpmousedown(312,evt);" onmouseover="bpmouseover(312,evt);" onmouseout="bpmouseout(312,evt);" transform="translate(96 346)" opacity="0"><ellipse cx="0" cy="0" rx="16" ry="16" fill="#0ff" style="stroke:none; opacity:0.75;" display="none"></ellipse><ellipse cx="0" cy="0" rx="7.1639296" ry="7.1639296" fill="#777" style="stroke:black;"></ellipse></g><g onmousedown="bpmousedown(315,evt);" onmouseover="bpmouseover(315,evt);" onmouseout="bpmouseout(315,evt);" transform="translate(630,342)" opacity="0"><ellipse cx="0" cy="0" rx="16" ry="16" fill="#0ff" style="stroke:none; opacity:0.75;" display="none"></ellipse><ellipse cx="0" cy="0" rx="7.1639296" ry="7.1639296" fill="#777" style="stroke:black;"></ellipse></g><g onmousedown="bpmousedown(326,evt);" onmouseover="bpmouseover(326,evt);" onmouseout="bpmouseout(326,evt);" transform="translate(642,409)" opacity="0"><ellipse cx="0" cy="0" rx="16" ry="16" fill="#0ff" style="stroke:none; opacity:0.75;" display="none"></ellipse><ellipse cx="0" cy="0" rx="7.1639296" ry="7.1639296" fill="#777" style="stroke:black;"></ellipse></g><g onmousedown="bpmousedown(327,evt);" onmouseover="bpmouseover(327,evt);" onmouseout="bpmouseout(327,evt);" transform="translate(642,362)" opacity="0"><ellipse cx="0" cy="0" rx="16" ry="16" fill="#0ff" style="stroke:none; opacity:0.75;" display="none"></ellipse><ellipse cx="0" cy="0" rx="7.1639296" ry="7.1639296" fill="#777" style="stroke:black;"></ellipse></g></g>
  <g id="ports"></g>
</g>
</svg>