<svg id="SVGCanvas" width="480px" height="270px" xmlns="http://www.w3.org/2000/svg" xlink="http://www.w3.org/1999/xlink" onmouseup="null" onmousemove="null">
<rect id="background" x="0" y="0" height="100%" width="100%" fill="#bdbddf" onmousedown="bgmousedown(evt)"></rect>
<g id="foreground" transform="translate(102.92307692307693,0),scale(0.6923076923076923),translate(138,34)">
  <g id="edges"><g id="241"><path style="stroke:#bdbddf; stroke-width:8px; fill:none;" opacity="0.7" d="M 117,75L 207,75"></path><g><path style="stroke:#ff0; stroke-width:8px; fill:none; " opacity="0" d="M 117,75L 207,75"></path></g><path style="stroke:black; fill:none;" d="M 117,75L 207,75"></path><g><g><path style="stroke:#0ff; stroke-width:8px; fill:none; " opacity="0" d="M 117,75 L 207,75" onmousedown="segmousedown(&quot;241&quot;,&quot;0&quot;,evt);" onmouseover="segmouseover(&quot;241&quot;,&quot;0&quot;,evt);" onmouseout="segmouseout(&quot;241&quot;,&quot;0&quot;,evt);" onclick="segclick(&quot;241&quot;,&quot;0&quot;,evt);"></path></g></g></g><g id="242"><path style="stroke:#bdbddf; stroke-width:8px; fill:none;" opacity="0.7" d="M 216,54 V 53 a 1,1 0 0,1 1,-1 H 219 a 3,3 0 0,0 3,-3L 222,41"></path><g><path style="stroke:#ff0; stroke-width:8px; fill:none; " opacity="0" d="M 216,54 V 53 a 1,1 0 0,1 1,-1 H 219 a 3,3 0 0,0 3,-3L 222,41"></path></g><path style="stroke:black; fill:none;" d="M 216,54 V 53 a 1,1 0 0,1 1,-1 H 219 a 3,3 0 0,0 3,-3L 222,41"></path><g><g><path style="stroke:#0ff; stroke-width:8px; fill:none; " opacity="0" d="M 216,54 L 216,52" onmousedown="segmousedown(&quot;242&quot;,&quot;0&quot;,evt);" onmouseover="segmouseover(&quot;242&quot;,&quot;0&quot;,evt);" onmouseout="segmouseout(&quot;242&quot;,&quot;0&quot;,evt);" onclick="segclick(&quot;242&quot;,&quot;0&quot;,evt);"></path><path style="stroke:#0ff; stroke-width:8px; fill:none; " opacity="0" d="M 216,52 L 222,52" onmousedown="segmousedown(&quot;242&quot;,&quot;1&quot;,evt);" onmouseover="segmouseover(&quot;242&quot;,&quot;1&quot;,evt);" onmouseout="segmouseout(&quot;242&quot;,&quot;1&quot;,evt);" onclick="segclick(&quot;242&quot;,&quot;1&quot;,evt);"></path><path style="stroke:#0ff; stroke-width:8px; fill:none; " opacity="0" d="M 222,52 L 222,41" onmousedown="segmousedown(&quot;242&quot;,&quot;2&quot;,evt);" onmouseover="segmouseover(&quot;242&quot;,&quot;2&quot;,evt);" onmouseout="segmouseout(&quot;242&quot;,&quot;2&quot;,evt);" onclick="segclick(&quot;242&quot;,&quot;2&quot;,evt);"></path></g></g></g><g id="243"><path style="stroke:#bdbddf; stroke-width:8px; fill:none;" opacity="0.7" d="M 212,11 V 1 a 10,10 0 0,0 -10,-10 H -2 a 11,11 0 0,0 -11,11L -13,13"></path><g><path style="stroke:#ff0; stroke-width:8px; fill:none; " opacity="0" d="M 212,11 V 1 a 10,10 0 0,0 -10,-10 H -2 a 11,11 0 0,0 -11,11L -13,13"></path></g><path style="stroke:black; fill:none;" d="M 212,11 V 1 a 10,10 0 0,0 -10,-10 H -2 a 11,11 0 0,0 -11,11L -13,13"></path><g><g><path style="stroke:#0ff; stroke-width:8px; fill:none; " opacity="0" d="M 212,11 L 212,-9" onmousedown="segmousedown(&quot;243&quot;,&quot;0&quot;,evt);" onmouseover="segmouseover(&quot;243&quot;,&quot;0&quot;,evt);" onmouseout="segmouseout(&quot;243&quot;,&quot;0&quot;,evt);" onclick="segclick(&quot;243&quot;,&quot;0&quot;,evt);"></path><path style="stroke:#0ff; stroke-width:8px; fill:none; " opacity="0" d="M 212,-9 L -13,-9" onmousedown="segmousedown(&quot;243&quot;,&quot;1&quot;,evt);" onmouseover="segmouseover(&quot;243&quot;,&quot;1&quot;,evt);" onmouseout="segmouseout(&quot;243&quot;,&quot;1&quot;,evt);" onclick="segclick(&quot;243&quot;,&quot;1&quot;,evt);"></path><path style="stroke:#0ff; stroke-width:8px; fill:none; " opacity="0" d="M -13,-9 L -13,13" onmousedown="segmousedown(&quot;243&quot;,&quot;2&quot;,evt);" onmouseover="segmouseover(&quot;243&quot;,&quot;2&quot;,evt);" onmouseout="segmouseout(&quot;243&quot;,&quot;2&quot;,evt);" onclick="segclick(&quot;243&quot;,&quot;2&quot;,evt);"></path></g></g></g><g id="244"><path style="stroke:#bdbddf; stroke-width:8px; fill:none;" opacity="0.7" d="M -6,43 V 64 a 12,12 0 0,0 12,12L 87,76"></path><g><path style="stroke:#ff0; stroke-width:8px; fill:none; " opacity="0" d="M -6,43 V 64 a 12,12 0 0,0 12,12L 87,76"></path></g><path style="stroke:black; fill:none;" d="M -6,43 V 64 a 12,12 0 0,0 12,12L 87,76"></path><g><g><path style="stroke:#0ff; stroke-width:8px; fill:none; " opacity="0" d="M -6,43 L -6,76" onmousedown="segmousedown(&quot;244&quot;,&quot;0&quot;,evt);" onmouseover="segmouseover(&quot;244&quot;,&quot;0&quot;,evt);" onmouseout="segmouseout(&quot;244&quot;,&quot;0&quot;,evt);" onclick="segclick(&quot;244&quot;,&quot;0&quot;,evt);"></path><path style="stroke:#0ff; stroke-width:8px; fill:none; " opacity="0" d="M -6,76 L 87,76" onmousedown="segmousedown(&quot;244&quot;,&quot;1&quot;,evt);" onmouseover="segmouseover(&quot;244&quot;,&quot;1&quot;,evt);" onmouseout="segmouseout(&quot;244&quot;,&quot;1&quot;,evt);" onclick="segclick(&quot;244&quot;,&quot;1&quot;,evt);"></path></g></g></g><g id="245"><path style="stroke:#bdbddf; stroke-width:8px; fill:none;" opacity="0.7" d="M 222,84L 222,116"></path><g><path style="stroke:#ff0; stroke-width:8px; fill:none; " opacity="0" d="M 222,84L 222,116"></path></g><path style="stroke:black; fill:none;" d="M 222,84L 222,116"></path><g><g><path style="stroke:#0ff; stroke-width:8px; fill:none; " opacity="0" d="M 222,84 L 222,116" onmousedown="segmousedown(&quot;245&quot;,&quot;0&quot;,evt);" onmouseover="segmouseover(&quot;245&quot;,&quot;0&quot;,evt);" onmouseout="segmouseout(&quot;245&quot;,&quot;0&quot;,evt);" onclick="segclick(&quot;245&quot;,&quot;0&quot;,evt);"></path></g></g></g><g id="246"><path style="stroke:#bdbddf; stroke-width:8px; fill:none;" opacity="0.7" d="M 228,146L 228,190"></path><g><path style="stroke:#ff0; stroke-width:8px; fill:none; " opacity="0" d="M 228,146L 228,190"></path></g><path style="stroke:black; fill:none;" d="M 228,146L 228,190"></path><g><g><path style="stroke:#0ff; stroke-width:8px; fill:none; " opacity="0" d="M 228,146 L 228,190" onmousedown="segmousedown(&quot;246&quot;,&quot;0&quot;,evt);" onmouseover="segmouseover(&quot;246&quot;,&quot;0&quot;,evt);" onmouseout="segmouseout(&quot;246&quot;,&quot;0&quot;,evt);" onclick="segclick(&quot;246&quot;,&quot;0&quot;,evt);"></path></g></g></g><g id="247"><path style="stroke:#bdbddf; stroke-width:8px; fill:none;" opacity="0.7" d="M 228,220L 228,243"></path><g><path style="stroke:#ff0; stroke-width:8px; fill:none; " opacity="0" d="M 228,220L 228,243"></path></g><path style="stroke:black; fill:none;" d="M 228,220L 228,243"></path><g><g><path style="stroke:#0ff; stroke-width:8px; fill:none; " opacity="0" d="M 228,220 L 228,243" onmousedown="segmousedown(&quot;247&quot;,&quot;0&quot;,evt);" onmouseover="segmouseover(&quot;247&quot;,&quot;0&quot;,evt);" onmouseout="segmouseout(&quot;247&quot;,&quot;0&quot;,evt);" onclick="segclick(&quot;247&quot;,&quot;0&quot;,evt);"></path></g></g></g><g id="248"><path style="stroke:#bdbddf; stroke-width:8px; fill:none;" opacity="0.7" d="M 226,273L 226,311"></path><g><path style="stroke:#ff0; stroke-width:8px; fill:none; " opacity="0" d="M 226,273L 226,311"></path></g><path style="stroke:black; fill:none;" d="M 226,273L 226,311"></path><g><g><path style="stroke:#0ff; stroke-width:8px; fill:none; " opacity="0" d="M 226,273 L 226,311" onmousedown="segmousedown(&quot;248&quot;,&quot;0&quot;,evt);" onmouseover="segmouseover(&quot;248&quot;,&quot;0&quot;,evt);" onmouseout="segmouseout(&quot;248&quot;,&quot;0&quot;,evt);" onclick="segclick(&quot;248&quot;,&quot;0&quot;,evt);"></path></g></g></g><g id="249"><path style="stroke:#bdbddf; stroke-width:8px; fill:none;" opacity="0.7" d="M -22,43 V 63 a 12,12 0 0,1 -12,12L -58,75"></path><g><path style="stroke:#ff0; stroke-width:8px; fill:none; " opacity="0" d="M -22,43 V 63 a 12,12 0 0,1 -12,12L -58,75"></path></g><path style="stroke:black; fill:none;" d="M -22,43 V 63 a 12,12 0 0,1 -12,12L -58,75"></path><g><g><path style="stroke:#0ff; stroke-width:8px; fill:none; " opacity="0" d="M -22,43 L -22,75" onmousedown="segmousedown(&quot;249&quot;,&quot;0&quot;,evt);" onmouseover="segmouseover(&quot;249&quot;,&quot;0&quot;,evt);" onmouseout="segmouseout(&quot;249&quot;,&quot;0&quot;,evt);" onclick="segclick(&quot;249&quot;,&quot;0&quot;,evt);"></path><path style="stroke:#0ff; stroke-width:8px; fill:none; " opacity="0" d="M -22,75 L -58,75" onmousedown="segmousedown(&quot;249&quot;,&quot;1&quot;,evt);" onmouseover="segmouseover(&quot;249&quot;,&quot;1&quot;,evt);" onmouseout="segmouseout(&quot;249&quot;,&quot;1&quot;,evt);" onclick="segclick(&quot;249&quot;,&quot;1&quot;,evt);"></path></g></g></g><g id="250"><path style="stroke:#bdbddf; stroke-width:8px; fill:none;" opacity="0.7" d="M -73,90 V 132 a 10,10 0 0,1 -10,10L -93,142"></path><g><path style="stroke:#ff0; stroke-width:8px; fill:none; " opacity="0" d="M -73,90 V 132 a 10,10 0 0,1 -10,10L -93,142"></path></g><path style="stroke:black; fill:none;" d="M -73,90 V 132 a 10,10 0 0,1 -10,10L -93,142"></path><g><g><path style="stroke:#0ff; stroke-width:8px; fill:none; " opacity="0" d="M -73,90 L -73,142" onmousedown="segmousedown(&quot;250&quot;,&quot;0&quot;,evt);" onmouseover="segmouseover(&quot;250&quot;,&quot;0&quot;,evt);" onmouseout="segmouseout(&quot;250&quot;,&quot;0&quot;,evt);" onclick="segclick(&quot;250&quot;,&quot;0&quot;,evt);"></path><path style="stroke:#0ff; stroke-width:8px; fill:none; " opacity="0" d="M -73,142 L -93,142" onmousedown="segmousedown(&quot;250&quot;,&quot;1&quot;,evt);" onmouseover="segmouseover(&quot;250&quot;,&quot;1&quot;,evt);" onmouseout="segmouseout(&quot;250&quot;,&quot;1&quot;,evt);" onclick="segclick(&quot;250&quot;,&quot;1&quot;,evt);"></path></g></g></g><g id="251"><path style="stroke:#bdbddf; stroke-width:8px; fill:none;" opacity="0.7" d="M -103,157L -103,191"></path><g><path style="stroke:#ff0; stroke-width:8px; fill:none; " opacity="0" d="M -103,157L -103,191"></path></g><path style="stroke:black; fill:none;" d="M -103,157L -103,191"></path><g><g><path style="stroke:#0ff; stroke-width:8px; fill:none; " opacity="0" d="M -103,157 L -103,191" onmousedown="segmousedown(&quot;251&quot;,&quot;0&quot;,evt);" onmouseover="segmouseover(&quot;251&quot;,&quot;0&quot;,evt);" onmouseout="segmouseout(&quot;251&quot;,&quot;0&quot;,evt);" onclick="segclick(&quot;251&quot;,&quot;0&quot;,evt);"></path></g></g></g><g id="252"><path style="stroke:#bdbddf; stroke-width:8px; fill:none;" opacity="0.7" d="M -70,90 V 131 a 10,10 0 0,0 10,10L -50,141"></path><g><path style="stroke:#ff0; stroke-width:8px; fill:none; " opacity="0" d="M -70,90 V 131 a 10,10 0 0,0 10,10L -50,141"></path></g><path style="stroke:black; fill:none;" d="M -70,90 V 131 a 10,10 0 0,0 10,10L -50,141"></path><g><g><path style="stroke:#0ff; stroke-width:8px; fill:none; " opacity="0" d="M -70,90 L -70,141" onmousedown="segmousedown(&quot;252&quot;,&quot;0&quot;,evt);" onmouseover="segmouseover(&quot;252&quot;,&quot;0&quot;,evt);" onmouseout="segmouseout(&quot;252&quot;,&quot;0&quot;,evt);" onclick="segclick(&quot;252&quot;,&quot;0&quot;,evt);"></path><path style="stroke:#0ff; stroke-width:8px; fill:none; " opacity="0" d="M -70,141 L -50,141" onmousedown="segmousedown(&quot;252&quot;,&quot;1&quot;,evt);" onmouseover="segmouseover(&quot;252&quot;,&quot;1&quot;,evt);" onmouseout="segmouseout(&quot;252&quot;,&quot;1&quot;,evt);" onclick="segclick(&quot;252&quot;,&quot;1&quot;,evt);"></path></g></g></g></g>
  <g id="nodes"><g id="229" onmousedown="nodemousedown(229,evt);" onmouseover="nodemouseover(229,evt);" onmouseout="nodemouseout(229,evt);" transform="translate(-13,28)"><rect x="-21" y="-21" width="42" height="42" fill="#0ff" style="stroke:none; opacity:0.75;" display="none"></rect><rect x="-15" y="-15" width="30" height="30" fill="#f0f0d2" style="stroke:black; opacity:1;"></rect></g><g id="237" onmousedown="nodemousedown(237,evt);" onmouseover="nodemouseover(237,evt);" onmouseout="nodemouseout(237,evt);" transform="translate(-73,75)"><rect x="-21" y="-21" width="42" height="42" fill="#0ff" style="stroke:none; opacity:0.75;" display="none"></rect><rect x="-15" y="-15" width="30" height="30" fill="#f0f0d2" style="stroke:black; opacity:1;"></rect></g><g id="239" onmousedown="nodemousedown(239,evt);" onmouseover="nodemouseover(239,evt);" onmouseout="nodemouseout(239,evt);" transform="translate(-108,142)"><rect x="-21" y="-21" width="42" height="42" fill="#0ff" style="stroke:none; opacity:0.75;" display="none"></rect><rect x="-15" y="-15" width="30" height="30" fill="#f0f0d2" style="stroke:black; opacity:1;"></rect></g><g id="240" onmousedown="nodemousedown(240,evt);" onmouseover="nodemouseover(240,evt);" onmouseout="nodemouseout(240,evt);" transform="translate(-102,206)"><rect x="-21" y="-21" width="42" height="42" fill="#0ff" style="stroke:none; opacity:0.75;" display="none"></rect><rect x="-15" y="-15" width="30" height="30" fill="#f0f0d2" style="stroke:black; opacity:1;"></rect></g><g id="238" onmousedown="nodemousedown(238,evt);" onmouseover="nodemouseover(238,evt);" onmouseout="nodemouseout(238,evt);" transform="translate(-35,141)"><rect x="-21" y="-21" width="42" height="42" fill="#0ff" style="stroke:none; opacity:0.75;" display="none"></rect><rect x="-15" y="-15" width="30" height="30" fill="#f0f0d2" style="stroke:black; opacity:1;"></rect></g><g id="232" onmousedown="nodemousedown(232,evt);" onmouseover="nodemouseover(232,evt);" onmouseout="nodemouseout(232,evt);" transform="translate(222,26)"><rect x="-21" y="-21" width="42" height="42" fill="#0ff" style="stroke:none; opacity:0.75;" display="none"></rect><rect x="-15" y="-15" width="30" height="30" fill="#f0f0d2" style="stroke:black; opacity:1;"></rect></g><g id="233" onmousedown="nodemousedown(233,evt);" onmouseover="nodemouseover(233,evt);" onmouseout="nodemouseout(233,evt);" transform="translate(228,131)"><rect x="-21" y="-21" width="42" height="42" fill="#0ff" style="stroke:none; opacity:0.75;" display="none"></rect><rect x="-15" y="-15" width="30" height="30" fill="#f0f0d2" style="stroke:black; opacity:1;"></rect></g><g id="234" onmousedown="nodemousedown(234,evt);" onmouseover="nodemouseover(234,evt);" onmouseout="nodemouseout(234,evt);" transform="translate(228,205)"><rect x="-21" y="-21" width="42" height="42" fill="#0ff" style="stroke:none; opacity:0.75;" display="none"></rect><rect x="-15" y="-15" width="30" height="30" fill="#f0f0d2" style="stroke:black; opacity:1;"></rect></g><g id="235" onmousedown="nodemousedown(235,evt);" onmouseover="nodemouseover(235,evt);" onmouseout="nodemouseout(235,evt);" transform="translate(224,258)"><rect x="-21" y="-21" width="42" height="42" fill="#0ff" style="stroke:none; opacity:0.75;" display="none"></rect><rect x="-15" y="-15" width="30" height="30" fill="#f0f0d2" style="stroke:black; opacity:1;"></rect></g><g id="236" onmousedown="nodemousedown(236,evt);" onmouseover="nodemouseover(236,evt);" onmouseout="nodemouseout(236,evt);" transform="translate(226,326)"><rect x="-21" y="-21" width="42" height="42" fill="#0ff" style="stroke:none; opacity:0.75;" display="none"></rect><rect x="-15" y="-15" width="30" height="30" fill="#f0f0d2" style="stroke:black; opacity:1;"></rect></g><g id="230" onmousedown="nodemousedown(230,evt);" onmouseover="nodemouseover(230,evt);" onmouseout="nodemouseout(230,evt);" transform="translate(102,75)"><rect x="-21" y="-21" width="42" height="42" fill="#0ff" style="stroke:none; opacity:0.75;" display="none"></rect><rect x="-15" y="-15" width="30" height="30" fill="#f0f0d2" style="stroke:black; opacity:1;"></rect></g><g id="231" onmousedown="nodemousedown(231,evt);" onmouseover="nodemouseover(231,evt);" onmouseout="nodemouseout(231,evt);" transform="translate(222,69)"><rect x="-21" y="-21" width="42" height="42" fill="#0ff" style="stroke:none; opacity:0.75;" display="none"></rect><rect x="-15" y="-15" width="30" height="30" fill="#f0f0d2" style="stroke:black; opacity:1;"></rect></g></g>
  <g id="BPs"><g onmousedown="bpmousedown(261,evt);" onmouseover="bpmouseover(261,evt);" onmouseout="bpmouseout(261,evt);" transform="translate(212,-9)" opacity="0"><ellipse cx="0" cy="0" rx="16" ry="16" fill="#0ff" style="stroke:none; opacity:0.75;" display="none"></ellipse><ellipse cx="0" cy="0" rx="9.200000000000003" ry="9.200000000000003" fill="#777" style="stroke:black;"></ellipse></g><g onmousedown="bpmousedown(281,evt);" onmouseover="bpmouseover(281,evt);" onmouseout="bpmouseout(281,evt);" transform="translate(-22,75)" opacity="0"><ellipse cx="0" cy="0" rx="16" ry="16" fill="#0ff" style="stroke:none; opacity:0.75;" display="none"></ellipse><ellipse cx="0" cy="0" rx="6.063550013440002" ry="6.063550013440002" fill="#777" style="stroke:black;"></ellipse></g><g onmousedown="bpmousedown(284,evt);" onmouseover="bpmouseover(284,evt);" onmouseout="bpmouseout(284,evt);" transform="translate(-73,142)" opacity="0"><ellipse cx="0" cy="0" rx="16" ry="16" fill="#0ff" style="stroke:none; opacity:0.75;" display="none"></ellipse><ellipse cx="0" cy="0" rx="6.063550013440002" ry="6.063550013440002" fill="#777" style="stroke:black;"></ellipse></g><g onmousedown="bpmousedown(292,evt);" onmouseover="bpmouseover(292,evt);" onmouseout="bpmouseout(292,evt);" transform="translate(-6,76)" opacity="0"><ellipse cx="0" cy="0" rx="16" ry="16" fill="#0ff" style="stroke:none; opacity:0.75;" display="none"></ellipse><ellipse cx="0" cy="0" rx="9.200000000000003" ry="9.200000000000003" fill="#777" style="stroke:black;"></ellipse></g><g onmousedown="bpmousedown(294,evt);" onmouseover="bpmouseover(294,evt);" onmouseout="bpmouseout(294,evt);" transform="translate(-13,-9)" opacity="0"><ellipse cx="0" cy="0" rx="16" ry="16" fill="#0ff" style="stroke:none; opacity:0.75;" display="none"></ellipse><ellipse cx="0" cy="0" rx="9.200000000000003" ry="9.200000000000003" fill="#777" style="stroke:black;"></ellipse></g><g onmousedown="bpmousedown(297,evt);" onmouseover="bpmouseover(297,evt);" onmouseout="bpmouseout(297,evt);" transform="translate(-70,141)" opacity="0"><ellipse cx="0" cy="0" rx="16" ry="16" fill="#0ff" style="stroke:none; opacity:0.75;" display="none"></ellipse><ellipse cx="0" cy="0" rx="6.063550013440002" ry="6.063550013440002" fill="#777" style="stroke:black;"></ellipse></g><g onmousedown="bpmousedown(330,evt);" onmouseover="bpmouseover(330,evt);" onmouseout="bpmouseout(330,evt);" transform="translate(216,52)" opacity="0"><ellipse cx="0" cy="0" rx="16" ry="16" fill="#0ff" style="stroke:none; opacity:0.75;" display="none"></ellipse><ellipse cx="0" cy="0" rx="9.200000000000003" ry="9.200000000000003" fill="#777" style="stroke:black;"></ellipse></g><g onmousedown="bpmousedown(331,evt);" onmouseover="bpmouseover(331,evt);" onmouseout="bpmouseout(331,evt);" transform="translate(222,52)" opacity="0"><ellipse cx="0" cy="0" rx="16" ry="16" fill="#0ff" style="stroke:none; opacity:0.75;" display="none"></ellipse><ellipse cx="0" cy="0" rx="9.200000000000003" ry="9.200000000000003" fill="#777" style="stroke:black;"></ellipse></g></g>
  <g id="ports"></g>
</g>
</svg>