<svg id="SVGCanvas" width="480px" height="270px" xmlns="http://www.w3.org/2000/svg" xlink="http://www.w3.org/1999/xlink" onmouseup="null" onmousemove="null">
<rect id="background" x="0" y="0" height="100%" width="100%" fill="#bdbddf" onmousedown="bgmousedown(evt)"></rect>
<g id="foreground" transform="translate(0,28.289902280130292),scale(0.7817589576547231),translate(-138,-244)">
  <g id="edges"><g id="184"><path style="stroke:#bdbddf; stroke-width:8px; fill:none;" opacity="0.7" d="M 466,387L 707,387"></path><g><path style="stroke:#ff0; stroke-width:8px; fill:none; " opacity="0" d="M 466,387L 707,387"></path></g><path style="stroke:black; fill:none;" d="M 466,387L 707,387"></path><g><g><path style="stroke:#0ff; stroke-width:8px; fill:none; " opacity="0" d="M 466,387 L 707,387" onmousedown="segmousedown(&quot;184&quot;,&quot;0&quot;,evt);" onmouseover="segmouseover(&quot;184&quot;,&quot;0&quot;,evt);" onmouseout="segmouseout(&quot;184&quot;,&quot;0&quot;,evt);" onclick="segclick(&quot;184&quot;,&quot;0&quot;,evt);"></path></g></g></g><g id="185"><path style="stroke:#bdbddf; stroke-width:8px; fill:none;" opacity="0.7" d="M 737,381 H 729.5 a 7.5,7.5 0 0,1 -7.5,-7.5L 722,351"></path><g><path style="stroke:#ff0; stroke-width:8px; fill:none; " opacity="0" d="M 737,381 H 729.5 a 7.5,7.5 0 0,1 -7.5,-7.5L 722,351"></path></g><path style="stroke:black; fill:none;" d="M 737,381 H 729.5 a 7.5,7.5 0 0,1 -7.5,-7.5L 722,351"></path><g><g><path style="stroke:#0ff; stroke-width:8px; fill:none; " opacity="0" d="M 737,381 L 722,381" onmousedown="segmousedown(&quot;185&quot;,&quot;0&quot;,evt);" onmouseover="segmouseover(&quot;185&quot;,&quot;0&quot;,evt);" onmouseout="segmouseout(&quot;185&quot;,&quot;0&quot;,evt);" onclick="segclick(&quot;185&quot;,&quot;0&quot;,evt);"></path><path style="stroke:#0ff; stroke-width:8px; fill:none; " opacity="0" d="M 722,381 L 722,351" onmousedown="segmousedown(&quot;185&quot;,&quot;1&quot;,evt);" onmouseover="segmouseover(&quot;185&quot;,&quot;1&quot;,evt);" onmouseout="segmouseout(&quot;185&quot;,&quot;1&quot;,evt);" onclick="segclick(&quot;185&quot;,&quot;1&quot;,evt);"></path></g></g></g><g id="186"><path style="stroke:#bdbddf; stroke-width:8px; fill:none;" opacity="0.7" d="M 722,321L 722,274"></path><g><path style="stroke:#ff0; stroke-width:8px; fill:none; " opacity="0" d="M 722,321L 722,274"></path></g><path style="stroke:black; fill:none;" d="M 722,321L 722,274"></path><g><g><path style="stroke:#0ff; stroke-width:8px; fill:none; " opacity="0" d="M 722,321 L 722,274" onmousedown="segmousedown(&quot;186&quot;,&quot;0&quot;,evt);" onmouseover="segmouseover(&quot;186&quot;,&quot;0&quot;,evt);" onmouseout="segmouseout(&quot;186&quot;,&quot;0&quot;,evt);" onclick="segclick(&quot;186&quot;,&quot;0&quot;,evt);"></path></g></g></g><g id="187"><path style="stroke:#bdbddf; stroke-width:8px; fill:none;" opacity="0.7" d="M 436,386L 189,386"></path><g><path style="stroke:#ff0; stroke-width:8px; fill:none; " opacity="0" d="M 436,386L 189,386"></path></g><path style="stroke:black; fill:none;" d="M 436,386L 189,386"></path><g><g><path style="stroke:#0ff; stroke-width:8px; fill:none; " opacity="0" d="M 436,386 L 189,386" onmousedown="segmousedown(&quot;187&quot;,&quot;0&quot;,evt);" onmouseover="segmouseover(&quot;187&quot;,&quot;0&quot;,evt);" onmouseout="segmouseout(&quot;187&quot;,&quot;0&quot;,evt);" onclick="segclick(&quot;187&quot;,&quot;0&quot;,evt);"></path></g></g></g><g id="188"><path style="stroke:#bdbddf; stroke-width:8px; fill:none;" opacity="0.7" d="M 722,487L 722,387"></path><g><path style="stroke:#ff0; stroke-width:8px; fill:none; " opacity="0" d="M 722,487L 722,387"></path></g><path style="stroke:black; fill:none;" d="M 722,487L 722,387"></path><g><g><path style="stroke:#0ff; stroke-width:8px; fill:none; " opacity="0" d="M 722,487 L 722,387" onmousedown="segmousedown(&quot;188&quot;,&quot;0&quot;,evt);" onmouseover="segmouseover(&quot;188&quot;,&quot;0&quot;,evt);" onmouseout="segmouseout(&quot;188&quot;,&quot;0&quot;,evt);" onclick="segclick(&quot;188&quot;,&quot;0&quot;,evt);"></path></g></g></g><g id="189"><path style="stroke:#bdbddf; stroke-width:8px; fill:none;" opacity="0.7" d="M 722,274L 466,274"></path><g><path style="stroke:#ff0; stroke-width:8px; fill:none; " opacity="0" d="M 722,274L 466,274"></path></g><path style="stroke:black; fill:none;" d="M 722,274L 466,274"></path><g><g><path style="stroke:#0ff; stroke-width:8px; fill:none; " opacity="0" d="M 722,274 L 466,274" onmousedown="segmousedown(&quot;189&quot;,&quot;0&quot;,evt);" onmouseover="segmouseover(&quot;189&quot;,&quot;0&quot;,evt);" onmouseout="segmouseout(&quot;189&quot;,&quot;0&quot;,evt);" onclick="segclick(&quot;189&quot;,&quot;0&quot;,evt);"></path></g></g></g><g id="190"><path style="stroke:#bdbddf; stroke-width:8px; fill:none;" opacity="0.7" d="M 451,289L 451,372"></path><g><path style="stroke:#ff0; stroke-width:8px; fill:none; " opacity="0" d="M 451,289L 451,372"></path></g><path style="stroke:black; fill:none;" d="M 451,289L 451,372"></path><g><g><path style="stroke:#0ff; stroke-width:8px; fill:none; " opacity="0" d="M 451,289 L 451,372" onmousedown="segmousedown(&quot;190&quot;,&quot;0&quot;,evt);" onmouseover="segmouseover(&quot;190&quot;,&quot;0&quot;,evt);" onmouseout="segmouseout(&quot;190&quot;,&quot;0&quot;,evt);" onclick="segclick(&quot;190&quot;,&quot;0&quot;,evt);"></path></g></g></g><g id="191"><path style="stroke:#bdbddf; stroke-width:8px; fill:none;" opacity="0.7" d="M 436,274L 168,274"></path><g><path style="stroke:#ff0; stroke-width:8px; fill:none; " opacity="0" d="M 436,274L 168,274"></path></g><path style="stroke:black; fill:none;" d="M 436,274L 168,274"></path><g><g><path style="stroke:#0ff; stroke-width:8px; fill:none; " opacity="0" d="M 436,274 L 168,274" onmousedown="segmousedown(&quot;191&quot;,&quot;0&quot;,evt);" onmouseover="segmouseover(&quot;191&quot;,&quot;0&quot;,evt);" onmouseout="segmouseout(&quot;191&quot;,&quot;0&quot;,evt);" onclick="segclick(&quot;191&quot;,&quot;0&quot;,evt);"></path></g></g></g><g id="192"><path style="stroke:#bdbddf; stroke-width:8px; fill:none;" opacity="0.7" d="M 168,289L 168,380"></path><g><path style="stroke:#ff0; stroke-width:8px; fill:none; " opacity="0" d="M 168,289L 168,380"></path></g><path style="stroke:black; fill:none;" d="M 168,289L 168,380"></path><g><g><path style="stroke:#0ff; stroke-width:8px; fill:none; " opacity="0" d="M 168,289 L 168,380" onmousedown="segmousedown(&quot;192&quot;,&quot;0&quot;,evt);" onmouseover="segmouseover(&quot;192&quot;,&quot;0&quot;,evt);" onmouseout="segmouseout(&quot;192&quot;,&quot;0&quot;,evt);" onclick="segclick(&quot;192&quot;,&quot;0&quot;,evt);"></path></g></g></g><g id="193"><path style="stroke:#bdbddf; stroke-width:8px; fill:none;" opacity="0.7" d="M 450,402L 450,469"></path><g><path style="stroke:#ff0; stroke-width:8px; fill:none; " opacity="0" d="M 450,402L 450,469"></path></g><path style="stroke:black; fill:none;" d="M 450,402L 450,469"></path><g><g><path style="stroke:#0ff; stroke-width:8px; fill:none; " opacity="0" d="M 450,402 L 450,469" onmousedown="segmousedown(&quot;193&quot;,&quot;0&quot;,evt);" onmouseover="segmouseover(&quot;193&quot;,&quot;0&quot;,evt);" onmouseout="segmouseout(&quot;193&quot;,&quot;0&quot;,evt);" onclick="segclick(&quot;193&quot;,&quot;0&quot;,evt);"></path></g></g></g></g>
  <g id="nodes"><g id="178" onmousedown="nodemousedown(178,evt);" onmouseover="nodemouseover(178,evt);" onmouseout="nodemouseout(178,evt);" transform="translate(722,274)"><rect x="-21" y="-21" width="42" height="42" fill="#0ff" style="stroke:none; opacity:0.75;" display="none"></rect><rect x="-15" y="-15" width="30" height="30" fill="#f0f0d2" style="stroke:black; opacity:1;"></rect></g><g id="181" onmousedown="nodemousedown(181,evt);" onmouseover="nodemouseover(181,evt);" onmouseout="nodemouseout(181,evt);" transform="translate(168 274)"><rect x="-21" y="-21" width="42" height="42" fill="#0ff" style="stroke:none; opacity:0.75;" display="none"></rect><rect x="-15" y="-15" width="30" height="30" fill="#f0f0d2" style="stroke:black; opacity:1;"></rect></g><g id="182" onmousedown="nodemousedown(182,evt);" onmouseover="nodemouseover(182,evt);" onmouseout="nodemouseout(182,evt);" transform="translate(722 487)"><rect x="-21" y="-21" width="42" height="42" fill="#0ff" style="stroke:none; opacity:0.75;" display="none"></rect><rect x="-15" y="-15" width="30" height="30" fill="#f0f0d2" style="stroke:black; opacity:1;"></rect></g><g id="180" onmousedown="nodemousedown(180,evt);" onmouseover="nodemouseover(180,evt);" onmouseout="nodemouseout(180,evt);" transform="translate(451,274)"><rect x="-21" y="-21" width="42" height="42" fill="#0ff" style="stroke:none; opacity:0.75;" display="none"></rect><rect x="-15" y="-15" width="30" height="30" fill="#f0f0d2" style="stroke:black; opacity:1;"></rect></g><g id="175" onmousedown="nodemousedown(175,evt);" onmouseover="nodemouseover(175,evt);" onmouseout="nodemouseout(175,evt);" transform="translate(451,387)"><rect x="-21" y="-21" width="42" height="42" fill="#0ff" style="stroke:none; opacity:0.75;" display="none"></rect><rect x="-15" y="-15" width="30" height="30" fill="#f0f0d2" style="stroke:black; opacity:1;"></rect></g><g id="179" onmousedown="nodemousedown(179,evt);" onmouseover="nodemouseover(179,evt);" onmouseout="nodemouseout(179,evt);" transform="translate(174,395)"><rect x="-21" y="-21" width="42" height="42" fill="#0ff" style="stroke:none; opacity:0.75;" display="none"></rect><rect x="-15" y="-15" width="30" height="30" fill="#f0f0d2" style="stroke:black; opacity:1;"></rect></g><g id="176" onmousedown="nodemousedown(176,evt);" onmouseover="nodemouseover(176,evt);" onmouseout="nodemouseout(176,evt);" transform="translate(722,387)"><rect x="-21" y="-21" width="42" height="42" fill="#0ff" style="stroke:none; opacity:0.75;" display="none"></rect><rect x="-15" y="-15" width="30" height="30" fill="#f0f0d2" style="stroke:black; opacity:1;"></rect></g><g id="177" onmousedown="nodemousedown(177,evt);" onmouseover="nodemouseover(177,evt);" onmouseout="nodemouseout(177,evt);" transform="translate(722,336)"><rect x="-21" y="-21" width="42" height="42" fill="#0ff" style="stroke:none; opacity:0.75;" display="none"></rect><rect x="-15" y="-15" width="30" height="30" fill="#f0f0d2" style="stroke:black; opacity:1;"></rect></g><g id="183" onmousedown="nodemousedown(183,evt);" onmouseover="nodemouseover(183,evt);" onmouseout="nodemouseout(183,evt);" transform="translate(450,484)"><rect x="-21" y="-21" width="42" height="42" fill="#0ff" style="stroke:none; opacity:0.75;" display="none"></rect><rect x="-15" y="-15" width="30" height="30" fill="#f0f0d2" style="stroke:black; opacity:1;"></rect></g></g>
  <g id="BPs"><g onmousedown="bpmousedown(201,evt);" onmouseover="bpmouseover(201,evt);" onmouseout="bpmouseout(201,evt);" transform="translate(722,381)" opacity="0"><ellipse cx="0" cy="0" rx="16" ry="16" fill="#0ff" style="stroke:none; opacity:0.75;" display="none"></ellipse><ellipse cx="0" cy="0" rx="17.926074978022218" ry="17.926074978022218" fill="#777" style="stroke:black;"></ellipse></g></g>
  <g id="ports"></g>
</g>
</svg>