<svg id="SVGCanvas" width="480px" height="270px" xmlns="http://www.w3.org/2000/svg" xlink="http://www.w3.org/1999/xlink" onmouseup="null" onmousemove="null">
<rect id="background" x="0" y="0" height="100%" width="100%" fill="#bdbddf" onmousedown="bgmousedown(evt)"></rect>
<g id="foreground" transform="translate(18.61238532110093,0),scale(0.6192660550458715),translate(-9,-113)">
  <g id="edges"><g id="266"><path style="stroke:#bdbddf; stroke-width:8px; fill:none;" opacity="0.7" d="M 523,138 H 356 a 12,12 0 0,0 -12,12L 344,173"></path><g><path style="stroke:#ff0; stroke-width:8px; fill:none; " opacity="0" d="M 523,138 H 356 a 12,12 0 0,0 -12,12L 344,173"></path></g><path style="stroke:black; fill:none;" d="M 523,138 H 356 a 12,12 0 0,0 -12,12L 344,173"></path><g><g><path style="stroke:#0ff; stroke-width:8px; fill:none; " opacity="0" d="M 523,138 L 344,138" onmousedown="segmousedown(&quot;266&quot;,&quot;0&quot;,evt);" onmouseover="segmouseover(&quot;266&quot;,&quot;0&quot;,evt);" onmouseout="segmouseout(&quot;266&quot;,&quot;0&quot;,evt);" onclick="segclick(&quot;266&quot;,&quot;0&quot;,evt);"></path><path style="stroke:#0ff; stroke-width:8px; fill:none; " opacity="0" d="M 344,138 L 344,173" onmousedown="segmousedown(&quot;266&quot;,&quot;1&quot;,evt);" onmouseover="segmouseover(&quot;266&quot;,&quot;1&quot;,evt);" onmouseout="segmouseout(&quot;266&quot;,&quot;1&quot;,evt);" onclick="segclick(&quot;266&quot;,&quot;1&quot;,evt);"></path></g></g></g><g id="267"><path style="stroke:#bdbddf; stroke-width:8px; fill:none;" opacity="0.7" d="M 361,173 V 215 a 12,12 0 0,1 -12,12 H 266 a 12,12 0 0,0 -12,12L 254,279"></path><g><path style="stroke:#ff0; stroke-width:8px; fill:none; " opacity="0" d="M 361,173 V 215 a 12,12 0 0,1 -12,12 H 266 a 12,12 0 0,0 -12,12L 254,279"></path></g><path style="stroke:black; fill:none;" d="M 361,173 V 215 a 12,12 0 0,1 -12,12 H 266 a 12,12 0 0,0 -12,12L 254,279"></path><g><g><path style="stroke:#0ff; stroke-width:8px; fill:none; " opacity="0" d="M 361,173 L 361,227" onmousedown="segmousedown(&quot;267&quot;,&quot;0&quot;,evt);" onmouseover="segmouseover(&quot;267&quot;,&quot;0&quot;,evt);" onmouseout="segmouseout(&quot;267&quot;,&quot;0&quot;,evt);" onclick="segclick(&quot;267&quot;,&quot;0&quot;,evt);"></path><path style="stroke:#0ff; stroke-width:8px; fill:none; " opacity="0" d="M 361,227 L 254,227" onmousedown="segmousedown(&quot;267&quot;,&quot;1&quot;,evt);" onmouseover="segmouseover(&quot;267&quot;,&quot;1&quot;,evt);" onmouseout="segmouseout(&quot;267&quot;,&quot;1&quot;,evt);" onclick="segclick(&quot;267&quot;,&quot;1&quot;,evt);"></path><path style="stroke:#0ff; stroke-width:8px; fill:none; " opacity="0" d="M 254,227 L 254,279" onmousedown="segmousedown(&quot;267&quot;,&quot;2&quot;,evt);" onmouseover="segmouseover(&quot;267&quot;,&quot;2&quot;,evt);" onmouseout="segmouseout(&quot;267&quot;,&quot;2&quot;,evt);" onclick="segclick(&quot;267&quot;,&quot;2&quot;,evt);"></path></g></g></g><g id="268"><path style="stroke:#bdbddf; stroke-width:8px; fill:none;" opacity="0.7" d="M 685,357 V 159 a 12,12 0 0,0 -12,-12L 523,147"></path><g><path style="stroke:#ff0; stroke-width:8px; fill:none; " opacity="0" d="M 685,357 V 159 a 12,12 0 0,0 -12,-12L 523,147"></path></g><path style="stroke:black; fill:none;" d="M 685,357 V 159 a 12,12 0 0,0 -12,-12L 523,147"></path><g><g><path style="stroke:#0ff; stroke-width:8px; fill:none; " opacity="0" d="M 685,357 L 685,147" onmousedown="segmousedown(&quot;268&quot;,&quot;0&quot;,evt);" onmouseover="segmouseover(&quot;268&quot;,&quot;0&quot;,evt);" onmouseout="segmouseout(&quot;268&quot;,&quot;0&quot;,evt);" onclick="segclick(&quot;268&quot;,&quot;0&quot;,evt);"></path><path style="stroke:#0ff; stroke-width:8px; fill:none; " opacity="0" d="M 685,147 L 523,147" onmousedown="segmousedown(&quot;268&quot;,&quot;1&quot;,evt);" onmouseover="segmouseover(&quot;268&quot;,&quot;1&quot;,evt);" onmouseout="segmouseout(&quot;268&quot;,&quot;1&quot;,evt);" onclick="segclick(&quot;268&quot;,&quot;1&quot;,evt);"></path></g></g></g><g id="269"><path style="stroke:#bdbddf; stroke-width:8px; fill:none;" opacity="0.7" d="M 697,342 V 334.5 a 7.5,7.5 0 0,0 -7.5,-7.5L 389,327"></path><g><path style="stroke:#ff0; stroke-width:8px; fill:none; " opacity="0" d="M 697,342 V 334.5 a 7.5,7.5 0 0,0 -7.5,-7.5L 389,327"></path></g><path style="stroke:black; fill:none;" d="M 697,342 V 334.5 a 7.5,7.5 0 0,0 -7.5,-7.5L 389,327"></path><g><g><path style="stroke:#0ff; stroke-width:8px; fill:none; " opacity="0" d="M 697,342 L 697,327" onmousedown="segmousedown(&quot;269&quot;,&quot;0&quot;,evt);" onmouseover="segmouseover(&quot;269&quot;,&quot;0&quot;,evt);" onmouseout="segmouseout(&quot;269&quot;,&quot;0&quot;,evt);" onclick="segclick(&quot;269&quot;,&quot;0&quot;,evt);"></path><path style="stroke:#0ff; stroke-width:8px; fill:none; " opacity="0" d="M 697,327 L 389,327" onmousedown="segmousedown(&quot;269&quot;,&quot;1&quot;,evt);" onmouseover="segmouseover(&quot;269&quot;,&quot;1&quot;,evt);" onmouseout="segmouseout(&quot;269&quot;,&quot;1&quot;,evt);" onclick="segclick(&quot;269&quot;,&quot;1&quot;,evt);"></path></g></g></g><g id="270"><path style="stroke:#bdbddf; stroke-width:8px; fill:none;" opacity="0.7" d="M 374,322 V 507 a 12,12 0 0,1 -12,12L 142,519"></path><g><path style="stroke:#ff0; stroke-width:8px; fill:none; " opacity="0" d="M 374,322 V 507 a 12,12 0 0,1 -12,12L 142,519"></path></g><path style="stroke:black; fill:none;" d="M 374,322 V 507 a 12,12 0 0,1 -12,12L 142,519"></path><g><g><path style="stroke:#0ff; stroke-width:8px; fill:none; " opacity="0" d="M 374,322 L 374,519" onmousedown="segmousedown(&quot;270&quot;,&quot;0&quot;,evt);" onmouseover="segmouseover(&quot;270&quot;,&quot;0&quot;,evt);" onmouseout="segmouseout(&quot;270&quot;,&quot;0&quot;,evt);" onclick="segclick(&quot;270&quot;,&quot;0&quot;,evt);"></path><path style="stroke:#0ff; stroke-width:8px; fill:none; " opacity="0" d="M 374,519 L 142,519" onmousedown="segmousedown(&quot;270&quot;,&quot;1&quot;,evt);" onmouseover="segmouseover(&quot;270&quot;,&quot;1&quot;,evt);" onmouseout="segmouseout(&quot;270&quot;,&quot;1&quot;,evt);" onclick="segclick(&quot;270&quot;,&quot;1&quot;,evt);"></path></g></g></g><g id="271"><path style="stroke:#bdbddf; stroke-width:8px; fill:none;" opacity="0.7" d="M 254,279 H 455 a 12,12 0 0,1 12,12L 467,414"></path><g><path style="stroke:#ff0; stroke-width:8px; fill:none; " opacity="0" d="M 254,279 H 455 a 12,12 0 0,1 12,12L 467,414"></path></g><path style="stroke:black; fill:none;" d="M 254,279 H 455 a 12,12 0 0,1 12,12L 467,414"></path><g><g><path style="stroke:#0ff; stroke-width:8px; fill:none; " opacity="0" d="M 254,279 L 467,279" onmousedown="segmousedown(&quot;271&quot;,&quot;0&quot;,evt);" onmouseover="segmouseover(&quot;271&quot;,&quot;0&quot;,evt);" onmouseout="segmouseout(&quot;271&quot;,&quot;0&quot;,evt);" onclick="segclick(&quot;271&quot;,&quot;0&quot;,evt);"></path><path style="stroke:#0ff; stroke-width:8px; fill:none; " opacity="0" d="M 467,279 L 467,414" onmousedown="segmousedown(&quot;271&quot;,&quot;1&quot;,evt);" onmouseover="segmouseover(&quot;271&quot;,&quot;1&quot;,evt);" onmouseout="segmouseout(&quot;271&quot;,&quot;1&quot;,evt);" onclick="segclick(&quot;271&quot;,&quot;1&quot;,evt);"></path></g></g></g><g id="272"><path style="stroke:#bdbddf; stroke-width:8px; fill:none;" opacity="0.7" d="M 466,439.5 V 472 a 12,12 0 0,0 12,12L 499,484"></path><g><path style="stroke:#ff0; stroke-width:8px; fill:none; " opacity="0" d="M 466,439.5 V 472 a 12,12 0 0,0 12,12L 499,484"></path></g><path style="stroke:black; fill:none;" d="M 466,439.5 V 472 a 12,12 0 0,0 12,12L 499,484"></path><g><g><path style="stroke:#0ff; stroke-width:8px; fill:none; " opacity="0" d="M 466,439.5 L 466,484" onmousedown="segmousedown(&quot;272&quot;,&quot;0&quot;,evt);" onmouseover="segmouseover(&quot;272&quot;,&quot;0&quot;,evt);" onmouseout="segmouseout(&quot;272&quot;,&quot;0&quot;,evt);" onclick="segclick(&quot;272&quot;,&quot;0&quot;,evt);"></path><path style="stroke:#0ff; stroke-width:8px; fill:none; " opacity="0" d="M 466,484 L 499,484" onmousedown="segmousedown(&quot;272&quot;,&quot;1&quot;,evt);" onmouseover="segmouseover(&quot;272&quot;,&quot;1&quot;,evt);" onmouseout="segmouseout(&quot;272&quot;,&quot;1&quot;,evt);" onclick="segclick(&quot;272&quot;,&quot;1&quot;,evt);"></path></g></g></g><g id="273"><path style="stroke:#bdbddf; stroke-width:8px; fill:none;" opacity="0.7" d="M 514,499 V 506 a 7,7 0 0,0 7,7 H 682 a 12,12 0 0,0 12,-12L 694,372"></path><g><path style="stroke:#ff0; stroke-width:8px; fill:none; " opacity="0" d="M 514,499 V 506 a 7,7 0 0,0 7,7 H 682 a 12,12 0 0,0 12,-12L 694,372"></path></g><path style="stroke:black; fill:none;" d="M 514,499 V 506 a 7,7 0 0,0 7,7 H 682 a 12,12 0 0,0 12,-12L 694,372"></path><g><g><path style="stroke:#0ff; stroke-width:8px; fill:none; " opacity="0" d="M 514,499 L 514,513" onmousedown="segmousedown(&quot;273&quot;,&quot;0&quot;,evt);" onmouseover="segmouseover(&quot;273&quot;,&quot;0&quot;,evt);" onmouseout="segmouseout(&quot;273&quot;,&quot;0&quot;,evt);" onclick="segclick(&quot;273&quot;,&quot;0&quot;,evt);"></path><path style="stroke:#0ff; stroke-width:8px; fill:none; " opacity="0" d="M 514,513 L 694,513" onmousedown="segmousedown(&quot;273&quot;,&quot;1&quot;,evt);" onmouseover="segmouseover(&quot;273&quot;,&quot;1&quot;,evt);" onmouseout="segmouseout(&quot;273&quot;,&quot;1&quot;,evt);" onclick="segclick(&quot;273&quot;,&quot;1&quot;,evt);"></path><path style="stroke:#0ff; stroke-width:8px; fill:none; " opacity="0" d="M 694,513 L 694,372" onmousedown="segmousedown(&quot;273&quot;,&quot;2&quot;,evt);" onmouseover="segmouseover(&quot;273&quot;,&quot;2&quot;,evt);" onmouseout="segmouseout(&quot;273&quot;,&quot;2&quot;,evt);" onclick="segclick(&quot;273&quot;,&quot;2&quot;,evt);"></path></g></g></g><g id="274"><path style="stroke:#bdbddf; stroke-width:8px; fill:none;" opacity="0.7" d="M 157,519 V 214 a 12,12 0 0,0 -12,-12L 132,202"></path><g><path style="stroke:#ff0; stroke-width:8px; fill:none; " opacity="0" d="M 157,519 V 214 a 12,12 0 0,0 -12,-12L 132,202"></path></g><path style="stroke:black; fill:none;" d="M 157,519 V 214 a 12,12 0 0,0 -12,-12L 132,202"></path><g><g><path style="stroke:#0ff; stroke-width:8px; fill:none; " opacity="0" d="M 157,519 L 157,202" onmousedown="segmousedown(&quot;274&quot;,&quot;0&quot;,evt);" onmouseover="segmouseover(&quot;274&quot;,&quot;0&quot;,evt);" onmouseout="segmouseout(&quot;274&quot;,&quot;0&quot;,evt);" onclick="segclick(&quot;274&quot;,&quot;0&quot;,evt);"></path><path style="stroke:#0ff; stroke-width:8px; fill:none; " opacity="0" d="M 157,202 L 132,202" onmousedown="segmousedown(&quot;274&quot;,&quot;1&quot;,evt);" onmouseover="segmouseover(&quot;274&quot;,&quot;1&quot;,evt);" onmouseout="segmouseout(&quot;274&quot;,&quot;1&quot;,evt);" onclick="segclick(&quot;274&quot;,&quot;1&quot;,evt);"></path></g></g></g><g id="275"><path style="stroke:#bdbddf; stroke-width:8px; fill:none;" opacity="0.7" d="M 142,519 H 108 a 12,12 0 0,1 -12,-12 V 358 a 12,12 0 0,0 -12,-12L 39,346"></path><g><path style="stroke:#ff0; stroke-width:8px; fill:none; " opacity="0" d="M 142,519 H 108 a 12,12 0 0,1 -12,-12 V 358 a 12,12 0 0,0 -12,-12L 39,346"></path></g><path style="stroke:black; fill:none;" d="M 142,519 H 108 a 12,12 0 0,1 -12,-12 V 358 a 12,12 0 0,0 -12,-12L 39,346"></path><g><g><path style="stroke:#0ff; stroke-width:8px; fill:none; " opacity="0" d="M 142,519 L 96,519" onmousedown="segmousedown(&quot;275&quot;,&quot;0&quot;,evt);" onmouseover="segmouseover(&quot;275&quot;,&quot;0&quot;,evt);" onmouseout="segmouseout(&quot;275&quot;,&quot;0&quot;,evt);" onclick="segclick(&quot;275&quot;,&quot;0&quot;,evt);"></path><path style="stroke:#0ff; stroke-width:8px; fill:none; " opacity="0" d="M 96,519 L 96,346" onmousedown="segmousedown(&quot;275&quot;,&quot;1&quot;,evt);" onmouseover="segmouseover(&quot;275&quot;,&quot;1&quot;,evt);" onmouseout="segmouseout(&quot;275&quot;,&quot;1&quot;,evt);" onclick="segclick(&quot;275&quot;,&quot;1&quot;,evt);"></path><path style="stroke:#0ff; stroke-width:8px; fill:none; " opacity="0" d="M 96,346 L 39,346" onmousedown="segmousedown(&quot;275&quot;,&quot;2&quot;,evt);" onmouseover="segmouseover(&quot;275&quot;,&quot;2&quot;,evt);" onmouseout="segmouseout(&quot;275&quot;,&quot;2&quot;,evt);" onclick="segclick(&quot;275&quot;,&quot;2&quot;,evt);"></path></g></g></g><g id="276"><path style="stroke:#bdbddf; stroke-width:8px; fill:none;" opacity="0.7" d="M 694,342 V 249 a 12,12 0 0,0 -12,-12L 648,237"></path><g><path style="stroke:#ff0; stroke-width:8px; fill:none; " opacity="0" d="M 694,342 V 249 a 12,12 0 0,0 -12,-12L 648,237"></path></g><path style="stroke:black; fill:none;" d="M 694,342 V 249 a 12,12 0 0,0 -12,-12L 648,237"></path><g><g><path style="stroke:#0ff; stroke-width:8px; fill:none; " opacity="0" d="M 694,342 L 694,237" onmousedown="segmousedown(&quot;276&quot;,&quot;0&quot;,evt);" onmouseover="segmouseover(&quot;276&quot;,&quot;0&quot;,evt);" onmouseout="segmouseout(&quot;276&quot;,&quot;0&quot;,evt);" onclick="segclick(&quot;276&quot;,&quot;0&quot;,evt);"></path><path style="stroke:#0ff; stroke-width:8px; fill:none; " opacity="0" d="M 694,237 L 648,237" onmousedown="segmousedown(&quot;276&quot;,&quot;1&quot;,evt);" onmouseover="segmouseover(&quot;276&quot;,&quot;1&quot;,evt);" onmouseout="segmouseout(&quot;276&quot;,&quot;1&quot;,evt);" onclick="segclick(&quot;276&quot;,&quot;1&quot;,evt);"></path></g></g></g><g id="277"><path style="stroke:#bdbddf; stroke-width:8px; fill:none;" opacity="0.7" d="M 618,237L 547,237"></path><g><path style="stroke:#ff0; stroke-width:8px; fill:none; " opacity="0" d="M 618,237L 547,237"></path></g><path style="stroke:black; fill:none;" d="M 618,237L 547,237"></path><g><g><path style="stroke:#0ff; stroke-width:8px; fill:none; " opacity="0" d="M 618,237 L 547,237" onmousedown="segmousedown(&quot;277&quot;,&quot;0&quot;,evt);" onmouseover="segmouseover(&quot;277&quot;,&quot;0&quot;,evt);" onmouseout="segmouseout(&quot;277&quot;,&quot;0&quot;,evt);" onclick="segclick(&quot;277&quot;,&quot;0&quot;,evt);"></path></g></g></g><g id="278"><path style="stroke:#bdbddf; stroke-width:8px; fill:none;" opacity="0.7" d="M 532,265 V 415 a 12,12 0 0,0 12,12L 571,427"></path><g><path style="stroke:#ff0; stroke-width:8px; fill:none; " opacity="0" d="M 532,265 V 415 a 12,12 0 0,0 12,12L 571,427"></path></g><path style="stroke:black; fill:none;" d="M 532,265 V 415 a 12,12 0 0,0 12,12L 571,427"></path><g><g><path style="stroke:#0ff; stroke-width:8px; fill:none; " opacity="0" d="M 532,265 L 532,427" onmousedown="segmousedown(&quot;278&quot;,&quot;0&quot;,evt);" onmouseover="segmouseover(&quot;278&quot;,&quot;0&quot;,evt);" onmouseout="segmouseout(&quot;278&quot;,&quot;0&quot;,evt);" onclick="segclick(&quot;278&quot;,&quot;0&quot;,evt);"></path><path style="stroke:#0ff; stroke-width:8px; fill:none; " opacity="0" d="M 532,427 L 571,427" onmousedown="segmousedown(&quot;278&quot;,&quot;1&quot;,evt);" onmouseover="segmouseover(&quot;278&quot;,&quot;1&quot;,evt);" onmouseout="segmouseout(&quot;278&quot;,&quot;1&quot;,evt);" onclick="segclick(&quot;278&quot;,&quot;1&quot;,evt);"></path></g></g></g><g id="279"><path style="stroke:#bdbddf; stroke-width:8px; fill:none;" opacity="0.7" d="M 601,427 H 682 a 12,12 0 0,0 12,-12L 694,372"></path><g><path style="stroke:#ff0; stroke-width:8px; fill:none; " opacity="0" d="M 601,427 H 682 a 12,12 0 0,0 12,-12L 694,372"></path></g><path style="stroke:black; fill:none;" d="M 601,427 H 682 a 12,12 0 0,0 12,-12L 694,372"></path><g><g><path style="stroke:#0ff; stroke-width:8px; fill:none; " opacity="0" d="M 601,427 L 694,427" onmousedown="segmousedown(&quot;279&quot;,&quot;0&quot;,evt);" onmouseover="segmouseover(&quot;279&quot;,&quot;0&quot;,evt);" onmouseout="segmouseout(&quot;279&quot;,&quot;0&quot;,evt);" onclick="segclick(&quot;279&quot;,&quot;0&quot;,evt);"></path><path style="stroke:#0ff; stroke-width:8px; fill:none; " opacity="0" d="M 694,427 L 694,372" onmousedown="segmousedown(&quot;279&quot;,&quot;1&quot;,evt);" onmouseover="segmouseover(&quot;279&quot;,&quot;1&quot;,evt);" onmouseout="segmouseout(&quot;279&quot;,&quot;1&quot;,evt);" onclick="segclick(&quot;279&quot;,&quot;1&quot;,evt);"></path></g></g></g></g>
  <g id="nodes"><g id="253" onmousedown="nodemousedown(253,evt);" onmouseover="nodemouseover(253,evt);" onmouseout="nodemouseout(253,evt);" transform="translate(523 147)"><rect x="-21" y="-21" width="42" height="42" fill="#0ff" style="stroke:none; opacity:0.75;" display="none"></rect><rect x="-15" y="-15" width="30" height="30" fill="#f0f0d2" style="stroke:black; opacity:1;"></rect></g><g id="254" onmousedown="nodemousedown(254,evt);" onmouseover="nodemouseover(254,evt);" onmouseout="nodemouseout(254,evt);" transform="translate(353 173)"><rect x="-32.5" y="-21" width="65" height="42" fill="#0ff" style="stroke:none; opacity:0.75;" display="none"></rect><rect x="-26.5" y="-15" width="53" height="30" fill="#f0f0d2" style="stroke:black; opacity:1;"></rect></g><g id="255" onmousedown="nodemousedown(255,evt);" onmouseover="nodemouseover(255,evt);" onmouseout="nodemouseout(255,evt);" transform="translate(254 279)"><rect x="-21" y="-21" width="42" height="42" fill="#0ff" style="stroke:none; opacity:0.75;" display="none"></rect><rect x="-15" y="-15" width="30" height="30" fill="#f0f0d2" style="stroke:black; opacity:1;"></rect></g><g id="256" onmousedown="nodemousedown(256,evt);" onmouseover="nodemouseover(256,evt);" onmouseout="nodemouseout(256,evt);" transform="translate(460 414)"><rect x="-27" y="-31.5" width="54" height="63" fill="#0ff" style="stroke:none; opacity:0.75;" display="none"></rect><rect x="-21" y="-25.5" width="42" height="51" fill="#f0f0d2" style="stroke:black; opacity:1;"></rect></g><g id="257" onmousedown="nodemousedown(257,evt);" onmouseover="nodemouseover(257,evt);" onmouseout="nodemouseout(257,evt);" transform="translate(514 484)"><rect x="-21" y="-21" width="42" height="42" fill="#0ff" style="stroke:none; opacity:0.75;" display="none"></rect><rect x="-15" y="-15" width="30" height="30" fill="#f0f0d2" style="stroke:black; opacity:1;"></rect></g><g id="258" onmousedown="nodemousedown(258,evt);" onmouseover="nodemouseover(258,evt);" onmouseout="nodemouseout(258,evt);" transform="translate(694 357)"><rect x="-21" y="-21" width="42" height="42" fill="#0ff" style="stroke:none; opacity:0.75;" display="none"></rect><rect x="-15" y="-15" width="30" height="30" fill="#f0f0d2" style="stroke:black; opacity:1;"></rect></g><g id="259" onmousedown="nodemousedown(259,evt);" onmouseover="nodemouseover(259,evt);" onmouseout="nodemouseout(259,evt);" transform="translate(374 322)"><rect x="-21" y="-21" width="42" height="42" fill="#0ff" style="stroke:none; opacity:0.75;" display="none"></rect><rect x="-15" y="-15" width="30" height="30" fill="#f0f0d2" style="stroke:black; opacity:1;"></rect></g><g id="260" onmousedown="nodemousedown(260,evt);" onmouseover="nodemouseover(260,evt);" onmouseout="nodemouseout(260,evt);" transform="translate(132 202)"><rect x="-21" y="-21" width="42" height="42" fill="#0ff" style="stroke:none; opacity:0.75;" display="none"></rect><rect x="-15" y="-15" width="30" height="30" fill="#f0f0d2" style="stroke:black; opacity:1;"></rect></g><g id="261" onmousedown="nodemousedown(261,evt);" onmouseover="nodemouseover(261,evt);" onmouseout="nodemouseout(261,evt);" transform="translate(142 519)"><rect x="-31" y="-21" width="62" height="42" fill="#0ff" style="stroke:none; opacity:0.75;" display="none"></rect><rect x="-25" y="-15" width="50" height="30" fill="#f0f0d2" style="stroke:black; opacity:1;"></rect></g><g id="262" onmousedown="nodemousedown(262,evt);" onmouseover="nodemouseover(262,evt);" onmouseout="nodemouseout(262,evt);" transform="translate(39 346)"><rect x="-21" y="-21" width="42" height="42" fill="#0ff" style="stroke:none; opacity:0.75;" display="none"></rect><rect x="-15" y="-15" width="30" height="30" fill="#f0f0d2" style="stroke:black; opacity:1;"></rect></g><g id="263" onmousedown="nodemousedown(263,evt);" onmouseover="nodemouseover(263,evt);" onmouseout="nodemouseout(263,evt);" transform="translate(633 237)"><rect x="-21" y="-34" width="42" height="68" fill="#0ff" style="stroke:none; opacity:0.75;" display="none"></rect><rect x="-15" y="-28" width="30" height="56" fill="#f0f0d2" style="stroke:black; opacity:1;"></rect></g><g id="264" onmousedown="nodemousedown(264,evt);" onmouseover="nodemouseover(264,evt);" onmouseout="nodemouseout(264,evt);" transform="translate(532 250)"><rect x="-21" y="-21" width="42" height="42" fill="#0ff" style="stroke:none; opacity:0.75;" display="none"></rect><rect x="-15" y="-15" width="30" height="30" fill="#f0f0d2" style="stroke:black; opacity:1;"></rect></g><g id="265" onmousedown="nodemousedown(265,evt);" onmouseover="nodemouseover(265,evt);" onmouseout="nodemouseout(265,evt);" transform="translate(586 427)"><rect x="-21" y="-21" width="42" height="42" fill="#0ff" style="stroke:none; opacity:0.75;" display="none"></rect><rect x="-15" y="-15" width="30" height="30" fill="#f0f0d2" style="stroke:black; opacity:1;"></rect></g></g>
  <g id="BPs"><g onmousedown="bpmousedown(282,evt);" onmouseover="bpmouseover(282,evt);" onmouseout="bpmouseout(282,evt);" transform="translate(344 138)" opacity="0"><ellipse cx="0" cy="0" rx="16" ry="16" fill="#0ff" style="stroke:none; opacity:0.75;" display="none"></ellipse><ellipse cx="0" cy="0" rx="10" ry="10" fill="#777" style="stroke:black;"></ellipse></g><g onmousedown="bpmousedown(285,evt);" onmouseover="bpmouseover(285,evt);" onmouseout="bpmouseout(285,evt);" transform="translate(361 227)" opacity="0"><ellipse cx="0" cy="0" rx="16" ry="16" fill="#0ff" style="stroke:none; opacity:0.75;" display="none"></ellipse><ellipse cx="0" cy="0" rx="6.5908152320000015" ry="6.5908152320000015" fill="#777" style="stroke:black;"></ellipse></g><g onmousedown="bpmousedown(286,evt);" onmouseover="bpmouseover(286,evt);" onmouseout="bpmouseout(286,evt);" transform="translate(254 227)" opacity="0"><ellipse cx="0" cy="0" rx="16" ry="16" fill="#0ff" style="stroke:none; opacity:0.75;" display="none"></ellipse><ellipse cx="0" cy="0" rx="6.5908152320000015" ry="6.5908152320000015" fill="#777" style="stroke:black;"></ellipse></g><g onmousedown="bpmousedown(289,evt);" onmouseover="bpmouseover(289,evt);" onmouseout="bpmouseout(289,evt);" transform="translate(685 147)" opacity="0"><ellipse cx="0" cy="0" rx="16" ry="16" fill="#0ff" style="stroke:none; opacity:0.75;" display="none"></ellipse><ellipse cx="0" cy="0" rx="10" ry="10" fill="#777" style="stroke:black;"></ellipse></g><g onmousedown="bpmousedown(292,evt);" onmouseover="bpmouseover(292,evt);" onmouseout="bpmouseout(292,evt);" transform="translate(697,327)" opacity="0"><ellipse cx="0" cy="0" rx="16" ry="16" fill="#0ff" style="stroke:none; opacity:0.75;" display="none"></ellipse><ellipse cx="0" cy="0" rx="6.5908152320000015" ry="6.5908152320000015" fill="#777" style="stroke:black;"></ellipse></g><g onmousedown="bpmousedown(295,evt);" onmouseover="bpmouseover(295,evt);" onmouseout="bpmouseout(295,evt);" transform="translate(374 519)" opacity="0"><ellipse cx="0" cy="0" rx="16" ry="16" fill="#0ff" style="stroke:none; opacity:0.75;" display="none"></ellipse><ellipse cx="0" cy="0" rx="6.5908152320000015" ry="6.5908152320000015" fill="#777" style="stroke:black;"></ellipse></g><g onmousedown="bpmousedown(298,evt);" onmouseover="bpmouseover(298,evt);" onmouseout="bpmouseout(298,evt);" transform="translate(467 279)" opacity="0"><ellipse cx="0" cy="0" rx="16" ry="16" fill="#0ff" style="stroke:none; opacity:0.75;" display="none"></ellipse><ellipse cx="0" cy="0" rx="6.5908152320000015" ry="6.5908152320000015" fill="#777" style="stroke:black;"></ellipse></g><g onmousedown="bpmousedown(301,evt);" onmouseover="bpmouseover(301,evt);" onmouseout="bpmouseout(301,evt);" transform="translate(466,484)" opacity="0"><ellipse cx="0" cy="0" rx="16" ry="16" fill="#0ff" style="stroke:none; opacity:0.75;" display="none"></ellipse><ellipse cx="0" cy="0" rx="6.5908152320000015" ry="6.5908152320000015" fill="#777" style="stroke:black;"></ellipse></g><g onmousedown="bpmousedown(305,evt);" onmouseover="bpmouseover(305,evt);" onmouseout="bpmouseout(305,evt);" transform="translate(694,513)" opacity="0"><ellipse cx="0" cy="0" rx="16" ry="16" fill="#0ff" style="stroke:none; opacity:0.75;" display="none"></ellipse><ellipse cx="0" cy="0" rx="6.5908152320000015" ry="6.5908152320000015" fill="#777" style="stroke:black;"></ellipse></g><g onmousedown="bpmousedown(308,evt);" onmouseover="bpmouseover(308,evt);" onmouseout="bpmouseout(308,evt);" transform="translate(157 202)" opacity="0"><ellipse cx="0" cy="0" rx="16" ry="16" fill="#0ff" style="stroke:none; opacity:0.75;" display="none"></ellipse><ellipse cx="0" cy="0" rx="10" ry="10" fill="#777" style="stroke:black;"></ellipse></g><g onmousedown="bpmousedown(311,evt);" onmouseover="bpmouseover(311,evt);" onmouseout="bpmouseout(311,evt);" transform="translate(96 519)" opacity="0"><ellipse cx="0" cy="0" rx="16" ry="16" fill="#0ff" style="stroke:none; opacity:0.75;" display="none"></ellipse><ellipse cx="0" cy="0" rx="10" ry="10" fill="#777" style="stroke:black;"></ellipse></g><g onmousedown="bpmousedown(312,evt);" onmouseover="bpmouseover(312,evt);" onmouseout="bpmouseout(312,evt);" transform="translate(96 346)" opacity="0"><ellipse cx="0" cy="0" rx="16" ry="16" fill="#0ff" style="stroke:none; opacity:0.75;" display="none"></ellipse><ellipse cx="0" cy="0" rx="10" ry="10" fill="#777" style="stroke:black;"></ellipse></g><g onmousedown="bpmousedown(322,evt);" onmouseover="bpmouseover(322,evt);" onmouseout="bpmouseout(322,evt);" transform="translate(532,427)" opacity="0"><ellipse cx="0" cy="0" rx="16" ry="16" fill="#0ff" style="stroke:none; opacity:0.75;" display="none"></ellipse><ellipse cx="0" cy="0" rx="6.5908152320000015" ry="6.5908152320000015" fill="#777" style="stroke:black;"></ellipse></g><g onmousedown="bpmousedown(329,evt);" onmouseover="bpmouseover(329,evt);" onmouseout="bpmouseout(329,evt);" transform="translate(514,513)" opacity="0"><ellipse cx="0" cy="0" rx="16" ry="16" fill="#0ff" style="stroke:none; opacity:0.75;" display="none"></ellipse><ellipse cx="0" cy="0" rx="6.5908152320000015" ry="6.5908152320000015" fill="#777" style="stroke:black;"></ellipse></g><g onmousedown="bpmousedown(330,evt);" onmouseover="bpmouseover(330,evt);" onmouseout="bpmouseout(330,evt);" transform="translate(694,427)" opacity="0"><ellipse cx="0" cy="0" rx="16" ry="16" fill="#0ff" style="stroke:none; opacity:0.75;" display="none"></ellipse><ellipse cx="0" cy="0" rx="6.5908152320000015" ry="6.5908152320000015" fill="#777" style="stroke:black;"></ellipse></g><g onmousedown="bpmousedown(331,evt);" onmouseover="bpmouseover(331,evt);" onmouseout="bpmouseout(331,evt);" transform="translate(694,237)" opacity="0"><ellipse cx="0" cy="0" rx="16" ry="16" fill="#0ff" style="stroke:none; opacity:0.75;" display="none"></ellipse><ellipse cx="0" cy="0" rx="6.5908152320000015" ry="6.5908152320000015" fill="#777" style="stroke:black;"></ellipse></g></g>
  <g id="ports"></g>
</g>
</svg>