<svg id="SVGCanvas" width="480px" height="270px" xmlns="http://www.w3.org/2000/svg" xlink="http://www.w3.org/1999/xlink" onmouseup="null" onmousemove="null">
<rect id="background" x="0" y="0" height="100%" width="100%" fill="#bdbddf" onmousedown="bgmousedown(evt)"></rect>
<g id="foreground" transform="translate(119.6103896103896,0),scale(0.7792207792207793),translate(-116,-116)">
  <g id="edges"><g id="169"><path style="stroke:#bdbddf; stroke-width:8px; fill:none;" opacity="0.7" d="M 180,347 V 360 a 12,12 0 0,0 12,12 H 285 a 12,12 0 0,0 12,-12 V 196 a 12,12 0 0,1 12,-12 H 368.5 a 11.5,11.5 0 0,0 11.5,-11.5L 380,161"></path><g><path style="stroke:#ff0; stroke-width:8px; fill:none; " opacity="0" d="M 180,347 V 360 a 12,12 0 0,0 12,12 H 285 a 12,12 0 0,0 12,-12 V 196 a 12,12 0 0,1 12,-12 H 368.5 a 11.5,11.5 0 0,0 11.5,-11.5L 380,161"></path></g><path style="stroke:black; fill:none;" d="M 180,347 V 360 a 12,12 0 0,0 12,12 H 285 a 12,12 0 0,0 12,-12 V 196 a 12,12 0 0,1 12,-12 H 368.5 a 11.5,11.5 0 0,0 11.5,-11.5L 380,161"></path><g><g><path style="stroke:#0ff; stroke-width:8px; fill:none; " opacity="0" d="M 180,347 L 180,372" onmousedown="segmousedown(&quot;169&quot;,&quot;0&quot;,evt);" onmouseover="segmouseover(&quot;169&quot;,&quot;0&quot;,evt);" onmouseout="segmouseout(&quot;169&quot;,&quot;0&quot;,evt);" onclick="segclick(&quot;169&quot;,&quot;0&quot;,evt);"></path><path style="stroke:#0ff; stroke-width:8px; fill:none; " opacity="0" d="M 180,372 L 297,372" onmousedown="segmousedown(&quot;169&quot;,&quot;1&quot;,evt);" onmouseover="segmouseover(&quot;169&quot;,&quot;1&quot;,evt);" onmouseout="segmouseout(&quot;169&quot;,&quot;1&quot;,evt);" onclick="segclick(&quot;169&quot;,&quot;1&quot;,evt);"></path><path style="stroke:#0ff; stroke-width:8px; fill:none; " opacity="0" d="M 297,372 L 297,184" onmousedown="segmousedown(&quot;169&quot;,&quot;2&quot;,evt);" onmouseover="segmouseover(&quot;169&quot;,&quot;2&quot;,evt);" onmouseout="segmouseout(&quot;169&quot;,&quot;2&quot;,evt);" onclick="segclick(&quot;169&quot;,&quot;2&quot;,evt);"></path><path style="stroke:#0ff; stroke-width:8px; fill:none; " opacity="0" d="M 297,184 L 380,184" onmousedown="segmousedown(&quot;169&quot;,&quot;3&quot;,evt);" onmouseover="segmouseover(&quot;169&quot;,&quot;3&quot;,evt);" onmouseout="segmouseout(&quot;169&quot;,&quot;3&quot;,evt);" onclick="segclick(&quot;169&quot;,&quot;3&quot;,evt);"></path><path style="stroke:#0ff; stroke-width:8px; fill:none; " opacity="0" d="M 380,184 L 380,161" onmousedown="segmousedown(&quot;169&quot;,&quot;4&quot;,evt);" onmouseover="segmouseover(&quot;169&quot;,&quot;4&quot;,evt);" onmouseout="segmouseout(&quot;169&quot;,&quot;4&quot;,evt);" onclick="segclick(&quot;169&quot;,&quot;4&quot;,evt);"></path></g></g></g><g id="170"><path style="stroke:#bdbddf; stroke-width:8px; fill:none;" opacity="0.7" d="M 390,161 V 183 a 12,12 0 0,1 -12,12 H 244 a 12,12 0 0,1 -12,-12L 232,162"></path><g><path style="stroke:#ff0; stroke-width:8px; fill:none; " opacity="0" d="M 390,161 V 183 a 12,12 0 0,1 -12,12 H 244 a 12,12 0 0,1 -12,-12L 232,162"></path></g><path style="stroke:black; fill:none;" d="M 390,161 V 183 a 12,12 0 0,1 -12,12 H 244 a 12,12 0 0,1 -12,-12L 232,162"></path><g><g><path style="stroke:#0ff; stroke-width:8px; fill:none; " opacity="0" d="M 390,161 L 390,195" onmousedown="segmousedown(&quot;170&quot;,&quot;0&quot;,evt);" onmouseover="segmouseover(&quot;170&quot;,&quot;0&quot;,evt);" onmouseout="segmouseout(&quot;170&quot;,&quot;0&quot;,evt);" onclick="segclick(&quot;170&quot;,&quot;0&quot;,evt);"></path><path style="stroke:#0ff; stroke-width:8px; fill:none; " opacity="0" d="M 390,195 L 232,195" onmousedown="segmousedown(&quot;170&quot;,&quot;1&quot;,evt);" onmouseover="segmouseover(&quot;170&quot;,&quot;1&quot;,evt);" onmouseout="segmouseout(&quot;170&quot;,&quot;1&quot;,evt);" onclick="segclick(&quot;170&quot;,&quot;1&quot;,evt);"></path><path style="stroke:#0ff; stroke-width:8px; fill:none; " opacity="0" d="M 232,195 L 232,162" onmousedown="segmousedown(&quot;170&quot;,&quot;2&quot;,evt);" onmouseover="segmouseover(&quot;170&quot;,&quot;2&quot;,evt);" onmouseout="segmouseout(&quot;170&quot;,&quot;2&quot;,evt);" onclick="segclick(&quot;170&quot;,&quot;2&quot;,evt);"></path></g></g></g><g id="171"><path style="stroke:#bdbddf; stroke-width:8px; fill:none;" opacity="0.7" d="M 222,162 V 340 a 12,12 0 0,0 12,12 H 248 a 12,12 0 0,1 12,12 V 424 a 11,11 0 0,0 11,11L 282,435"></path><g><path style="stroke:#ff0; stroke-width:8px; fill:none; " opacity="0" d="M 222,162 V 340 a 12,12 0 0,0 12,12 H 248 a 12,12 0 0,1 12,12 V 424 a 11,11 0 0,0 11,11L 282,435"></path></g><path style="stroke:black; fill:none;" d="M 222,162 V 340 a 12,12 0 0,0 12,12 H 248 a 12,12 0 0,1 12,12 V 424 a 11,11 0 0,0 11,11L 282,435"></path><g><g><path style="stroke:#0ff; stroke-width:8px; fill:none; " opacity="0" d="M 222,162 L 222,352" onmousedown="segmousedown(&quot;171&quot;,&quot;0&quot;,evt);" onmouseover="segmouseover(&quot;171&quot;,&quot;0&quot;,evt);" onmouseout="segmouseout(&quot;171&quot;,&quot;0&quot;,evt);" onclick="segclick(&quot;171&quot;,&quot;0&quot;,evt);"></path><path style="stroke:#0ff; stroke-width:8px; fill:none; " opacity="0" d="M 222,352 L 260,352" onmousedown="segmousedown(&quot;171&quot;,&quot;1&quot;,evt);" onmouseover="segmouseover(&quot;171&quot;,&quot;1&quot;,evt);" onmouseout="segmouseout(&quot;171&quot;,&quot;1&quot;,evt);" onclick="segclick(&quot;171&quot;,&quot;1&quot;,evt);"></path><path style="stroke:#0ff; stroke-width:8px; fill:none; " opacity="0" d="M 260,352 L 260,435" onmousedown="segmousedown(&quot;171&quot;,&quot;2&quot;,evt);" onmouseover="segmouseover(&quot;171&quot;,&quot;2&quot;,evt);" onmouseout="segmouseout(&quot;171&quot;,&quot;2&quot;,evt);" onclick="segclick(&quot;171&quot;,&quot;2&quot;,evt);"></path><path style="stroke:#0ff; stroke-width:8px; fill:none; " opacity="0" d="M 260,435 L 282,435" onmousedown="segmousedown(&quot;171&quot;,&quot;3&quot;,evt);" onmouseover="segmouseover(&quot;171&quot;,&quot;3&quot;,evt);" onmouseout="segmouseout(&quot;171&quot;,&quot;3&quot;,evt);" onclick="segclick(&quot;171&quot;,&quot;3&quot;,evt);"></path></g></g></g><g id="172"><path style="stroke:#bdbddf; stroke-width:8px; fill:none;" opacity="0.7" d="M 282,424 H 275 a 7,7 0 0,1 -7,-7 V 395 a 12,12 0 0,1 12,-12 H 332 a 12,12 0 0,0 12,-12 V 344 a 12,12 0 0,1 12,-12 H 388 a 12,12 0 0,0 12,-12L 400,161"></path><g><path style="stroke:#ff0; stroke-width:8px; fill:none; " opacity="0" d="M 282,424 H 275 a 7,7 0 0,1 -7,-7 V 395 a 12,12 0 0,1 12,-12 H 332 a 12,12 0 0,0 12,-12 V 344 a 12,12 0 0,1 12,-12 H 388 a 12,12 0 0,0 12,-12L 400,161"></path></g><path style="stroke:black; fill:none;" d="M 282,424 H 275 a 7,7 0 0,1 -7,-7 V 395 a 12,12 0 0,1 12,-12 H 332 a 12,12 0 0,0 12,-12 V 344 a 12,12 0 0,1 12,-12 H 388 a 12,12 0 0,0 12,-12L 400,161"></path><g><g><path style="stroke:#0ff; stroke-width:8px; fill:none; " opacity="0" d="M 282,424 L 268,424" onmousedown="segmousedown(&quot;172&quot;,&quot;0&quot;,evt);" onmouseover="segmouseover(&quot;172&quot;,&quot;0&quot;,evt);" onmouseout="segmouseout(&quot;172&quot;,&quot;0&quot;,evt);" onclick="segclick(&quot;172&quot;,&quot;0&quot;,evt);"></path><path style="stroke:#0ff; stroke-width:8px; fill:none; " opacity="0" d="M 268,424 L 268,383" onmousedown="segmousedown(&quot;172&quot;,&quot;1&quot;,evt);" onmouseover="segmouseover(&quot;172&quot;,&quot;1&quot;,evt);" onmouseout="segmouseout(&quot;172&quot;,&quot;1&quot;,evt);" onclick="segclick(&quot;172&quot;,&quot;1&quot;,evt);"></path><path style="stroke:#0ff; stroke-width:8px; fill:none; " opacity="0" d="M 268,383 L 344,383" onmousedown="segmousedown(&quot;172&quot;,&quot;2&quot;,evt);" onmouseover="segmouseover(&quot;172&quot;,&quot;2&quot;,evt);" onmouseout="segmouseout(&quot;172&quot;,&quot;2&quot;,evt);" onclick="segclick(&quot;172&quot;,&quot;2&quot;,evt);"></path><path style="stroke:#0ff; stroke-width:8px; fill:none; " opacity="0" d="M 344,383 L 344,332" onmousedown="segmousedown(&quot;172&quot;,&quot;3&quot;,evt);" onmouseover="segmouseover(&quot;172&quot;,&quot;3&quot;,evt);" onmouseout="segmouseout(&quot;172&quot;,&quot;3&quot;,evt);" onclick="segclick(&quot;172&quot;,&quot;3&quot;,evt);"></path><path style="stroke:#0ff; stroke-width:8px; fill:none; " opacity="0" d="M 344,332 L 400,332" onmousedown="segmousedown(&quot;172&quot;,&quot;4&quot;,evt);" onmouseover="segmouseover(&quot;172&quot;,&quot;4&quot;,evt);" onmouseout="segmouseout(&quot;172&quot;,&quot;4&quot;,evt);" onclick="segclick(&quot;172&quot;,&quot;4&quot;,evt);"></path><path style="stroke:#0ff; stroke-width:8px; fill:none; " opacity="0" d="M 400,332 L 400,161" onmousedown="segmousedown(&quot;172&quot;,&quot;5&quot;,evt);" onmouseover="segmouseover(&quot;172&quot;,&quot;5&quot;,evt);" onmouseout="segmouseout(&quot;172&quot;,&quot;5&quot;,evt);" onclick="segclick(&quot;172&quot;,&quot;5&quot;,evt);"></path></g></g></g><g id="173"><path style="stroke:#bdbddf; stroke-width:8px; fill:none;" opacity="0.7" d="M 244,162 V 279 a 12,12 0 0,1 -12,12 H 214 a 12,12 0 0,0 -12,12 V 361 a 12,12 0 0,1 -12,12 H 182 a 12,12 0 0,1 -12,-12L 170,347"></path><g><path style="stroke:#ff0; stroke-width:8px; fill:none; " opacity="0" d="M 244,162 V 279 a 12,12 0 0,1 -12,12 H 214 a 12,12 0 0,0 -12,12 V 361 a 12,12 0 0,1 -12,12 H 182 a 12,12 0 0,1 -12,-12L 170,347"></path></g><path style="stroke:black; fill:none;" d="M 244,162 V 279 a 12,12 0 0,1 -12,12 H 214 a 12,12 0 0,0 -12,12 V 361 a 12,12 0 0,1 -12,12 H 182 a 12,12 0 0,1 -12,-12L 170,347"></path><g><g><path style="stroke:#0ff; stroke-width:8px; fill:none; " opacity="0" d="M 244,162 L 244,291" onmousedown="segmousedown(&quot;173&quot;,&quot;0&quot;,evt);" onmouseover="segmouseover(&quot;173&quot;,&quot;0&quot;,evt);" onmouseout="segmouseout(&quot;173&quot;,&quot;0&quot;,evt);" onclick="segclick(&quot;173&quot;,&quot;0&quot;,evt);"></path><path style="stroke:#0ff; stroke-width:8px; fill:none; " opacity="0" d="M 244,291 L 202,291" onmousedown="segmousedown(&quot;173&quot;,&quot;1&quot;,evt);" onmouseover="segmouseover(&quot;173&quot;,&quot;1&quot;,evt);" onmouseout="segmouseout(&quot;173&quot;,&quot;1&quot;,evt);" onclick="segclick(&quot;173&quot;,&quot;1&quot;,evt);"></path><path style="stroke:#0ff; stroke-width:8px; fill:none; " opacity="0" d="M 202,291 L 202,373" onmousedown="segmousedown(&quot;173&quot;,&quot;2&quot;,evt);" onmouseover="segmouseover(&quot;173&quot;,&quot;2&quot;,evt);" onmouseout="segmouseout(&quot;173&quot;,&quot;2&quot;,evt);" onclick="segclick(&quot;173&quot;,&quot;2&quot;,evt);"></path><path style="stroke:#0ff; stroke-width:8px; fill:none; " opacity="0" d="M 202,373 L 170,373" onmousedown="segmousedown(&quot;173&quot;,&quot;3&quot;,evt);" onmouseover="segmouseover(&quot;173&quot;,&quot;3&quot;,evt);" onmouseout="segmouseout(&quot;173&quot;,&quot;3&quot;,evt);" onclick="segclick(&quot;173&quot;,&quot;3&quot;,evt);"></path><path style="stroke:#0ff; stroke-width:8px; fill:none; " opacity="0" d="M 170,373 L 170,347" onmousedown="segmousedown(&quot;173&quot;,&quot;4&quot;,evt);" onmouseover="segmouseover(&quot;173&quot;,&quot;4&quot;,evt);" onmouseout="segmouseout(&quot;173&quot;,&quot;4&quot;,evt);" onclick="segclick(&quot;173&quot;,&quot;4&quot;,evt);"></path></g></g></g><g id="174"><path style="stroke:#bdbddf; stroke-width:8px; fill:none;" opacity="0.7" d="M 166,347 V 358 a 11,11 0 0,1 -11,11 H 153 a 12,12 0 0,0 -12,12 V 401 a 12,12 0 0,0 12,12L 282,413"></path><g><path style="stroke:#ff0; stroke-width:8px; fill:none; " opacity="0" d="M 166,347 V 358 a 11,11 0 0,1 -11,11 H 153 a 12,12 0 0,0 -12,12 V 401 a 12,12 0 0,0 12,12L 282,413"></path></g><path style="stroke:black; fill:none;" d="M 166,347 V 358 a 11,11 0 0,1 -11,11 H 153 a 12,12 0 0,0 -12,12 V 401 a 12,12 0 0,0 12,12L 282,413"></path><g><g><path style="stroke:#0ff; stroke-width:8px; fill:none; " opacity="0" d="M 166,347 L 166,369" onmousedown="segmousedown(&quot;174&quot;,&quot;0&quot;,evt);" onmouseover="segmouseover(&quot;174&quot;,&quot;0&quot;,evt);" onmouseout="segmouseout(&quot;174&quot;,&quot;0&quot;,evt);" onclick="segclick(&quot;174&quot;,&quot;0&quot;,evt);"></path><path style="stroke:#0ff; stroke-width:8px; fill:none; " opacity="0" d="M 166,369 L 141,369" onmousedown="segmousedown(&quot;174&quot;,&quot;1&quot;,evt);" onmouseover="segmouseover(&quot;174&quot;,&quot;1&quot;,evt);" onmouseout="segmouseout(&quot;174&quot;,&quot;1&quot;,evt);" onclick="segclick(&quot;174&quot;,&quot;1&quot;,evt);"></path><path style="stroke:#0ff; stroke-width:8px; fill:none; " opacity="0" d="M 141,369 L 141,413" onmousedown="segmousedown(&quot;174&quot;,&quot;2&quot;,evt);" onmouseover="segmouseover(&quot;174&quot;,&quot;2&quot;,evt);" onmouseout="segmouseout(&quot;174&quot;,&quot;2&quot;,evt);" onclick="segclick(&quot;174&quot;,&quot;2&quot;,evt);"></path><path style="stroke:#0ff; stroke-width:8px; fill:none; " opacity="0" d="M 141,413 L 282,413" onmousedown="segmousedown(&quot;174&quot;,&quot;3&quot;,evt);" onmouseover="segmouseover(&quot;174&quot;,&quot;3&quot;,evt);" onmouseout="segmouseout(&quot;174&quot;,&quot;3&quot;,evt);" onclick="segclick(&quot;174&quot;,&quot;3&quot;,evt);"></path></g></g></g></g>
  <g id="nodes"><g id="166" onmousedown="nodemousedown(166,evt);" onmouseover="nodemouseover(166,evt);" onmouseout="nodemouseout(166,evt);" transform="translate(297 424)"><rect x="-21" y="-29.5" width="42" height="59" fill="#0ff" style="stroke:none; opacity:0.75;" display="none"></rect><rect x="-15" y="-23.5" width="30" height="47" fill="#f0f0d2" style="stroke:black; opacity:1;"></rect></g><g id="168" onmousedown="nodemousedown(168,evt);" onmouseover="nodemouseover(168,evt);" onmouseout="nodemouseout(168,evt);" transform="translate(176 332)"><rect x="-21" y="-21" width="42" height="42" fill="#0ff" style="stroke:none; opacity:0.75;" display="none"></rect><rect x="-15" y="-15" width="30" height="30" fill="#f0f0d2" style="stroke:black; opacity:1;"></rect></g><g id="165" onmousedown="nodemousedown(165,evt);" onmouseover="nodemouseover(165,evt);" onmouseout="nodemouseout(165,evt);" transform="translate(232,147)"><rect x="-31" y="-21" width="62" height="42" fill="#0ff" style="stroke:none; opacity:0.75;" display="none"></rect><rect x="-25" y="-15" width="50" height="30" fill="#f0f0d2" style="stroke:black; opacity:1;"></rect></g><g id="167" onmousedown="nodemousedown(167,evt);" onmouseover="nodemouseover(167,evt);" onmouseout="nodemouseout(167,evt);" transform="translate(390,146)"><rect x="-21" y="-21" width="42" height="42" fill="#0ff" style="stroke:none; opacity:0.75;" display="none"></rect><rect x="-15" y="-15" width="30" height="30" fill="#f0f0d2" style="stroke:black; opacity:1;"></rect></g></g>
  <g id="BPs"><g onmousedown="bpmousedown(177,evt);" onmouseover="bpmouseover(177,evt);" onmouseout="bpmouseout(177,evt);" transform="translate(297,372)" opacity="0"><ellipse cx="0" cy="0" rx="16" ry="16" fill="#0ff" style="stroke:none; opacity:0.75;" display="none"></ellipse><ellipse cx="0" cy="0" rx="5.132188731375618" ry="5.132188731375618" fill="#777" style="stroke:black;"></ellipse></g><g onmousedown="bpmousedown(178,evt);" onmouseover="bpmouseover(178,evt);" onmouseout="bpmouseout(178,evt);" transform="translate(297,184)" opacity="0"><ellipse cx="0" cy="0" rx="16" ry="16" fill="#0ff" style="stroke:none; opacity:0.75;" display="none"></ellipse><ellipse cx="0" cy="0" rx="5.132188731375618" ry="5.132188731375618" fill="#777" style="stroke:black;"></ellipse></g><g onmousedown="bpmousedown(181,evt);" onmouseover="bpmouseover(181,evt);" onmouseout="bpmouseout(181,evt);" transform="translate(390,195)" opacity="0"><ellipse cx="0" cy="0" rx="16" ry="16" fill="#0ff" style="stroke:none; opacity:0.75;" display="none"></ellipse><ellipse cx="0" cy="0" rx="5.132188731375618" ry="5.132188731375618" fill="#777" style="stroke:black;"></ellipse></g><g onmousedown="bpmousedown(182,evt);" onmouseover="bpmouseover(182,evt);" onmouseout="bpmouseout(182,evt);" transform="translate(232,195)" opacity="0"><ellipse cx="0" cy="0" rx="16" ry="16" fill="#0ff" style="stroke:none; opacity:0.75;" display="none"></ellipse><ellipse cx="0" cy="0" rx="5.132188731375618" ry="5.132188731375618" fill="#777" style="stroke:black;"></ellipse></g><g onmousedown="bpmousedown(185,evt);" onmouseover="bpmouseover(185,evt);" onmouseout="bpmouseout(185,evt);" transform="translate(222,352)" opacity="0"><ellipse cx="0" cy="0" rx="16" ry="16" fill="#0ff" style="stroke:none; opacity:0.75;" display="none"></ellipse><ellipse cx="0" cy="0" rx="5.132188731375618" ry="5.132188731375618" fill="#777" style="stroke:black;"></ellipse></g><g onmousedown="bpmousedown(186,evt);" onmouseover="bpmouseover(186,evt);" onmouseout="bpmouseout(186,evt);" transform="translate(260,352)" opacity="0"><ellipse cx="0" cy="0" rx="16" ry="16" fill="#0ff" style="stroke:none; opacity:0.75;" display="none"></ellipse><ellipse cx="0" cy="0" rx="5.132188731375618" ry="5.132188731375618" fill="#777" style="stroke:black;"></ellipse></g><g onmousedown="bpmousedown(189,evt);" onmouseover="bpmouseover(189,evt);" onmouseout="bpmouseout(189,evt);" transform="translate(344,383)" opacity="0"><ellipse cx="0" cy="0" rx="16" ry="16" fill="#0ff" style="stroke:none; opacity:0.75;" display="none"></ellipse><ellipse cx="0" cy="0" rx="5.132188731375618" ry="5.132188731375618" fill="#777" style="stroke:black;"></ellipse></g><g onmousedown="bpmousedown(190,evt);" onmouseover="bpmouseover(190,evt);" onmouseout="bpmouseout(190,evt);" transform="translate(344 332)" opacity="0"><ellipse cx="0" cy="0" rx="16" ry="16" fill="#0ff" style="stroke:none; opacity:0.75;" display="none"></ellipse><ellipse cx="0" cy="0" rx="5.132188731375618" ry="5.132188731375618" fill="#777" style="stroke:black;"></ellipse></g><g onmousedown="bpmousedown(191,evt);" onmouseover="bpmouseover(191,evt);" onmouseout="bpmouseout(191,evt);" transform="translate(400,332)" opacity="0"><ellipse cx="0" cy="0" rx="16" ry="16" fill="#0ff" style="stroke:none; opacity:0.75;" display="none"></ellipse><ellipse cx="0" cy="0" rx="5.132188731375618" ry="5.132188731375618" fill="#777" style="stroke:black;"></ellipse></g><g onmousedown="bpmousedown(194,evt);" onmouseover="bpmouseover(194,evt);" onmouseout="bpmouseout(194,evt);" transform="translate(244,291)" opacity="0"><ellipse cx="0" cy="0" rx="16" ry="16" fill="#0ff" style="stroke:none; opacity:0.75;" display="none"></ellipse><ellipse cx="0" cy="0" rx="5.132188731375618" ry="5.132188731375618" fill="#777" style="stroke:black;"></ellipse></g><g onmousedown="bpmousedown(195,evt);" onmouseover="bpmouseover(195,evt);" onmouseout="bpmouseout(195,evt);" transform="translate(202,291)" opacity="0"><ellipse cx="0" cy="0" rx="16" ry="16" fill="#0ff" style="stroke:none; opacity:0.75;" display="none"></ellipse><ellipse cx="0" cy="0" rx="5.132188731375618" ry="5.132188731375618" fill="#777" style="stroke:black;"></ellipse></g><g onmousedown="bpmousedown(198,evt);" onmouseover="bpmouseover(198,evt);" onmouseout="bpmouseout(198,evt);" transform="translate(141,369)" opacity="0"><ellipse cx="0" cy="0" rx="16" ry="16" fill="#0ff" style="stroke:none; opacity:0.75;" display="none"></ellipse><ellipse cx="0" cy="0" rx="5.132188731375618" ry="5.132188731375618" fill="#777" style="stroke:black;"></ellipse></g><g onmousedown="bpmousedown(199,evt);" onmouseover="bpmouseover(199,evt);" onmouseout="bpmouseout(199,evt);" transform="translate(141,413)" opacity="0"><ellipse cx="0" cy="0" rx="16" ry="16" fill="#0ff" style="stroke:none; opacity:0.75;" display="none"></ellipse><ellipse cx="0" cy="0" rx="5.132188731375618" ry="5.132188731375618" fill="#777" style="stroke:black;"></ellipse></g><g onmousedown="bpmousedown(200,evt);" onmouseover="bpmouseover(200,evt);" onmouseout="bpmouseout(200,evt);" transform="translate(380,184)" opacity="0"><ellipse cx="0" cy="0" rx="16" ry="16" fill="#0ff" style="stroke:none; opacity:0.75;" display="none"></ellipse><ellipse cx="0" cy="0" rx="5.132188731375618" ry="5.132188731375618" fill="#777" style="stroke:black;"></ellipse></g><g onmousedown="bpmousedown(203,evt);" onmouseover="bpmouseover(203,evt);" onmouseout="bpmouseout(203,evt);" transform="translate(260,435)" opacity="0"><ellipse cx="0" cy="0" rx="16" ry="16" fill="#0ff" style="stroke:none; opacity:0.75;" display="none"></ellipse><ellipse cx="0" cy="0" rx="5.132188731375618" ry="5.132188731375618" fill="#777" style="stroke:black;"></ellipse></g><g onmousedown="bpmousedown(210,evt);" onmouseover="bpmouseover(210,evt);" onmouseout="bpmouseout(210,evt);" transform="translate(268,383)" opacity="0"><ellipse cx="0" cy="0" rx="16" ry="16" fill="#0ff" style="stroke:none; opacity:0.75;" display="none"></ellipse><ellipse cx="0" cy="0" rx="5.132188731375618" ry="5.132188731375618" fill="#777" style="stroke:black;"></ellipse></g><g onmousedown="bpmousedown(211,evt);" onmouseover="bpmouseover(211,evt);" onmouseout="bpmouseout(211,evt);" transform="translate(268,424)" opacity="0"><ellipse cx="0" cy="0" rx="16" ry="16" fill="#0ff" style="stroke:none; opacity:0.75;" display="none"></ellipse><ellipse cx="0" cy="0" rx="5.132188731375618" ry="5.132188731375618" fill="#777" style="stroke:black;"></ellipse></g><g onmousedown="bpmousedown(213,evt);" onmouseover="bpmouseover(213,evt);" onmouseout="bpmouseout(213,evt);" transform="translate(166,369)" opacity="0"><ellipse cx="0" cy="0" rx="16" ry="16" fill="#0ff" style="stroke:none; opacity:0.75;" display="none"></ellipse><ellipse cx="0" cy="0" rx="5.132188731375618" ry="5.132188731375618" fill="#777" style="stroke:black;"></ellipse></g><g onmousedown="bpmousedown(215,evt);" onmouseover="bpmouseover(215,evt);" onmouseout="bpmouseout(215,evt);" transform="translate(202,373)" opacity="0"><ellipse cx="0" cy="0" rx="16" ry="16" fill="#0ff" style="stroke:none; opacity:0.75;" display="none"></ellipse><ellipse cx="0" cy="0" rx="5.132188731375618" ry="5.132188731375618" fill="#777" style="stroke:black;"></ellipse></g><g onmousedown="bpmousedown(216,evt);" onmouseover="bpmouseover(216,evt);" onmouseout="bpmouseout(216,evt);" transform="translate(170,373)" opacity="0"><ellipse cx="0" cy="0" rx="16" ry="16" fill="#0ff" style="stroke:none; opacity:0.75;" display="none"></ellipse><ellipse cx="0" cy="0" rx="5.132188731375618" ry="5.132188731375618" fill="#777" style="stroke:black;"></ellipse></g><g onmousedown="bpmousedown(217,evt);" onmouseover="bpmouseover(217,evt);" onmouseout="bpmouseout(217,evt);" transform="translate(180,372)" opacity="0"><ellipse cx="0" cy="0" rx="16" ry="16" fill="#0ff" style="stroke:none; opacity:0.75;" display="none"></ellipse><ellipse cx="0" cy="0" rx="5.132188731375618" ry="5.132188731375618" fill="#777" style="stroke:black;"></ellipse></g></g>
  <g id="ports"></g>
</g>
</svg>