<svg id="SVGCanvas" width="480px" height="270px" xmlns="http://www.w3.org/2000/svg" xlink="http://www.w3.org/1999/xlink" onmouseup="null" onmousemove="null">
<rect id="background" x="0" y="0" height="100%" width="100%" fill="#bdbddf" onmousedown="bgmousedown(evt)"></rect>
<g id="foreground" transform="translate(0,24.969230769230762),scale(0.7384615384615385),translate(-15,-184)">
  <g id="edges"><g id="305"><path style="stroke:#bdbddf; stroke-width:8px; fill:none;" opacity="0.7" d="M 60,208L 454,208"></path><g><path style="stroke:#ff0; stroke-width:8px; fill:none; " opacity="0" d="M 60,208L 454,208"></path></g><path style="stroke:black; fill:none;" d="M 60,208L 454,208"></path><g><g><path style="stroke:#0ff; stroke-width:8px; fill:none; " opacity="0" d="M 60,208 L 454,208" onmousedown="segmousedown(&quot;305&quot;,&quot;0&quot;,evt);" onmouseover="segmouseover(&quot;305&quot;,&quot;0&quot;,evt);" onmouseout="segmouseout(&quot;305&quot;,&quot;0&quot;,evt);" onclick="segclick(&quot;305&quot;,&quot;0&quot;,evt);"></path></g></g></g><g id="306"><path style="stroke:#bdbddf; stroke-width:8px; fill:none;" opacity="0.7" d="M 454,221 H 434 a 12,12 0 0,0 -12,12 V 237 a 12,12 0 0,1 -12,12L 396,249"></path><g><path style="stroke:#ff0; stroke-width:8px; fill:none; " opacity="0" d="M 454,221 H 434 a 12,12 0 0,0 -12,12 V 237 a 12,12 0 0,1 -12,12L 396,249"></path></g><path style="stroke:black; fill:none;" d="M 454,221 H 434 a 12,12 0 0,0 -12,12 V 237 a 12,12 0 0,1 -12,12L 396,249"></path><g><g><path style="stroke:#0ff; stroke-width:8px; fill:none; " opacity="0" d="M 454,221 L 422,221" onmousedown="segmousedown(&quot;306&quot;,&quot;0&quot;,evt);" onmouseover="segmouseover(&quot;306&quot;,&quot;0&quot;,evt);" onmouseout="segmouseout(&quot;306&quot;,&quot;0&quot;,evt);" onclick="segclick(&quot;306&quot;,&quot;0&quot;,evt);"></path><path style="stroke:#0ff; stroke-width:8px; fill:none; " opacity="0" d="M 422,221 L 422,249" onmousedown="segmousedown(&quot;306&quot;,&quot;1&quot;,evt);" onmouseover="segmouseover(&quot;306&quot;,&quot;1&quot;,evt);" onmouseout="segmouseout(&quot;306&quot;,&quot;1&quot;,evt);" onclick="segclick(&quot;306&quot;,&quot;1&quot;,evt);"></path><path style="stroke:#0ff; stroke-width:8px; fill:none; " opacity="0" d="M 422,249 L 396,249" onmousedown="segmousedown(&quot;306&quot;,&quot;2&quot;,evt);" onmouseover="segmouseover(&quot;306&quot;,&quot;2&quot;,evt);" onmouseout="segmouseout(&quot;306&quot;,&quot;2&quot;,evt);" onclick="segclick(&quot;306&quot;,&quot;2&quot;,evt);"></path></g></g></g><g id="307"><path style="stroke:#bdbddf; stroke-width:8px; fill:none;" opacity="0.7" d="M 366,249 H 358 a 8,8 0 0,0 -8,8 V 268 a 12,12 0 0,1 -12,12L 324,280"></path><g><path style="stroke:#ff0; stroke-width:8px; fill:none; " opacity="0" d="M 366,249 H 358 a 8,8 0 0,0 -8,8 V 268 a 12,12 0 0,1 -12,12L 324,280"></path></g><path style="stroke:black; fill:none;" d="M 366,249 H 358 a 8,8 0 0,0 -8,8 V 268 a 12,12 0 0,1 -12,12L 324,280"></path><g><g><path style="stroke:#0ff; stroke-width:8px; fill:none; " opacity="0" d="M 366,249 L 350,249" onmousedown="segmousedown(&quot;307&quot;,&quot;0&quot;,evt);" onmouseover="segmouseover(&quot;307&quot;,&quot;0&quot;,evt);" onmouseout="segmouseout(&quot;307&quot;,&quot;0&quot;,evt);" onclick="segclick(&quot;307&quot;,&quot;0&quot;,evt);"></path><path style="stroke:#0ff; stroke-width:8px; fill:none; " opacity="0" d="M 350,249 L 350,280" onmousedown="segmousedown(&quot;307&quot;,&quot;1&quot;,evt);" onmouseover="segmouseover(&quot;307&quot;,&quot;1&quot;,evt);" onmouseout="segmouseout(&quot;307&quot;,&quot;1&quot;,evt);" onclick="segclick(&quot;307&quot;,&quot;1&quot;,evt);"></path><path style="stroke:#0ff; stroke-width:8px; fill:none; " opacity="0" d="M 350,280 L 324,280" onmousedown="segmousedown(&quot;307&quot;,&quot;2&quot;,evt);" onmouseover="segmouseover(&quot;307&quot;,&quot;2&quot;,evt);" onmouseout="segmouseout(&quot;307&quot;,&quot;2&quot;,evt);" onclick="segclick(&quot;307&quot;,&quot;2&quot;,evt);"></path></g></g></g><g id="308"><path style="stroke:#bdbddf; stroke-width:8px; fill:none;" opacity="0.7" d="M 304,295 V 343 a 12,12 0 0,1 -12,12L 274,355"></path><g><path style="stroke:#ff0; stroke-width:8px; fill:none; " opacity="0" d="M 304,295 V 343 a 12,12 0 0,1 -12,12L 274,355"></path></g><path style="stroke:black; fill:none;" d="M 304,295 V 343 a 12,12 0 0,1 -12,12L 274,355"></path><g><g><path style="stroke:#0ff; stroke-width:8px; fill:none; " opacity="0" d="M 304,295 L 304,355" onmousedown="segmousedown(&quot;308&quot;,&quot;0&quot;,evt);" onmouseover="segmouseover(&quot;308&quot;,&quot;0&quot;,evt);" onmouseout="segmouseout(&quot;308&quot;,&quot;0&quot;,evt);" onclick="segclick(&quot;308&quot;,&quot;0&quot;,evt);"></path><path style="stroke:#0ff; stroke-width:8px; fill:none; " opacity="0" d="M 304,355 L 274,355" onmousedown="segmousedown(&quot;308&quot;,&quot;1&quot;,evt);" onmouseover="segmouseover(&quot;308&quot;,&quot;1&quot;,evt);" onmouseout="segmouseout(&quot;308&quot;,&quot;1&quot;,evt);" onclick="segclick(&quot;308&quot;,&quot;1&quot;,evt);"></path></g></g></g><g id="309"><path style="stroke:#bdbddf; stroke-width:8px; fill:none;" opacity="0.7" d="M 259,358 V 445 a 12,12 0 0,1 -12,12 H 161 a 12,12 0 0,1 -12,-12L 149,370"></path><g><path style="stroke:#ff0; stroke-width:8px; fill:none; " opacity="0" d="M 259,358 V 445 a 12,12 0 0,1 -12,12 H 161 a 12,12 0 0,1 -12,-12L 149,370"></path></g><path style="stroke:black; fill:none;" d="M 259,358 V 445 a 12,12 0 0,1 -12,12 H 161 a 12,12 0 0,1 -12,-12L 149,370"></path><g><g><path style="stroke:#0ff; stroke-width:8px; fill:none; " opacity="0" d="M 259,358 L 259,457" onmousedown="segmousedown(&quot;309&quot;,&quot;0&quot;,evt);" onmouseover="segmouseover(&quot;309&quot;,&quot;0&quot;,evt);" onmouseout="segmouseout(&quot;309&quot;,&quot;0&quot;,evt);" onclick="segclick(&quot;309&quot;,&quot;0&quot;,evt);"></path><path style="stroke:#0ff; stroke-width:8px; fill:none; " opacity="0" d="M 259,457 L 149,457" onmousedown="segmousedown(&quot;309&quot;,&quot;1&quot;,evt);" onmouseover="segmouseover(&quot;309&quot;,&quot;1&quot;,evt);" onmouseout="segmouseout(&quot;309&quot;,&quot;1&quot;,evt);" onclick="segclick(&quot;309&quot;,&quot;1&quot;,evt);"></path><path style="stroke:#0ff; stroke-width:8px; fill:none; " opacity="0" d="M 149,457 L 149,370" onmousedown="segmousedown(&quot;309&quot;,&quot;2&quot;,evt);" onmouseover="segmouseover(&quot;309&quot;,&quot;2&quot;,evt);" onmouseout="segmouseout(&quot;309&quot;,&quot;2&quot;,evt);" onclick="segclick(&quot;309&quot;,&quot;2&quot;,evt);"></path></g></g></g><g id="310"><path style="stroke:#bdbddf; stroke-width:8px; fill:none;" opacity="0.7" d="M 134,341 H 57 a 12,12 0 0,1 -12,-12L 45,229"></path><g><path style="stroke:#ff0; stroke-width:8px; fill:none; " opacity="0" d="M 134,341 H 57 a 12,12 0 0,1 -12,-12L 45,229"></path></g><path style="stroke:black; fill:none;" d="M 134,341 H 57 a 12,12 0 0,1 -12,-12L 45,229"></path><g><g><path style="stroke:#0ff; stroke-width:8px; fill:none; " opacity="0" d="M 134,341 L 45,341" onmousedown="segmousedown(&quot;310&quot;,&quot;0&quot;,evt);" onmouseover="segmouseover(&quot;310&quot;,&quot;0&quot;,evt);" onmouseout="segmouseout(&quot;310&quot;,&quot;0&quot;,evt);" onclick="segclick(&quot;310&quot;,&quot;0&quot;,evt);"></path><path style="stroke:#0ff; stroke-width:8px; fill:none; " opacity="0" d="M 45,341 L 45,229" onmousedown="segmousedown(&quot;310&quot;,&quot;1&quot;,evt);" onmouseover="segmouseover(&quot;310&quot;,&quot;1&quot;,evt);" onmouseout="segmouseout(&quot;310&quot;,&quot;1&quot;,evt);" onclick="segclick(&quot;310&quot;,&quot;1&quot;,evt);"></path></g></g></g><g id="311"><path style="stroke:#bdbddf; stroke-width:8px; fill:none;" opacity="0.7" d="M 149,370 V 408 a 12,12 0 0,0 12,12 H 356 a 12,12 0 0,0 12,-12L 368,356"></path><g><path style="stroke:#ff0; stroke-width:8px; fill:none; " opacity="0" d="M 149,370 V 408 a 12,12 0 0,0 12,12 H 356 a 12,12 0 0,0 12,-12L 368,356"></path></g><path style="stroke:black; fill:none;" d="M 149,370 V 408 a 12,12 0 0,0 12,12 H 356 a 12,12 0 0,0 12,-12L 368,356"></path><g><g><path style="stroke:#0ff; stroke-width:8px; fill:none; " opacity="0" d="M 149,370 L 149,420" onmousedown="segmousedown(&quot;311&quot;,&quot;0&quot;,evt);" onmouseover="segmouseover(&quot;311&quot;,&quot;0&quot;,evt);" onmouseout="segmouseout(&quot;311&quot;,&quot;0&quot;,evt);" onclick="segclick(&quot;311&quot;,&quot;0&quot;,evt);"></path><path style="stroke:#0ff; stroke-width:8px; fill:none; " opacity="0" d="M 149,420 L 368,420" onmousedown="segmousedown(&quot;311&quot;,&quot;1&quot;,evt);" onmouseover="segmouseover(&quot;311&quot;,&quot;1&quot;,evt);" onmouseout="segmouseout(&quot;311&quot;,&quot;1&quot;,evt);" onclick="segclick(&quot;311&quot;,&quot;1&quot;,evt);"></path><path style="stroke:#0ff; stroke-width:8px; fill:none; " opacity="0" d="M 368,420 L 368,356" onmousedown="segmousedown(&quot;311&quot;,&quot;2&quot;,evt);" onmouseover="segmouseover(&quot;311&quot;,&quot;2&quot;,evt);" onmouseout="segmouseout(&quot;311&quot;,&quot;2&quot;,evt);" onclick="segclick(&quot;311&quot;,&quot;2&quot;,evt);"></path></g></g></g><g id="312"><path style="stroke:#bdbddf; stroke-width:8px; fill:none;" opacity="0.7" d="M 543,261L 543,304"></path><g><path style="stroke:#ff0; stroke-width:8px; fill:none; " opacity="0" d="M 543,261L 543,304"></path></g><path style="stroke:black; fill:none;" d="M 543,261L 543,304"></path><g><g><path style="stroke:#0ff; stroke-width:8px; fill:none; " opacity="0" d="M 543,261 L 543,304" onmousedown="segmousedown(&quot;312&quot;,&quot;0&quot;,evt);" onmouseover="segmouseover(&quot;312&quot;,&quot;0&quot;,evt);" onmouseout="segmouseout(&quot;312&quot;,&quot;0&quot;,evt);" onclick="segclick(&quot;312&quot;,&quot;0&quot;,evt);"></path></g></g></g><g id="313"><path style="stroke:#bdbddf; stroke-width:8px; fill:none;" opacity="0.7" d="M 536,334 V 420 a 12,12 0 0,1 -12,12L 512,432"></path><g><path style="stroke:#ff0; stroke-width:8px; fill:none; " opacity="0" d="M 536,334 V 420 a 12,12 0 0,1 -12,12L 512,432"></path></g><path style="stroke:black; fill:none;" d="M 536,334 V 420 a 12,12 0 0,1 -12,12L 512,432"></path><g><g><path style="stroke:#0ff; stroke-width:8px; fill:none; " opacity="0" d="M 536,334 L 536,432" onmousedown="segmousedown(&quot;313&quot;,&quot;0&quot;,evt);" onmouseover="segmouseover(&quot;313&quot;,&quot;0&quot;,evt);" onmouseout="segmouseout(&quot;313&quot;,&quot;0&quot;,evt);" onclick="segclick(&quot;313&quot;,&quot;0&quot;,evt);"></path><path style="stroke:#0ff; stroke-width:8px; fill:none; " opacity="0" d="M 536,432 L 512,432" onmousedown="segmousedown(&quot;313&quot;,&quot;1&quot;,evt);" onmouseover="segmouseover(&quot;313&quot;,&quot;1&quot;,evt);" onmouseout="segmouseout(&quot;313&quot;,&quot;1&quot;,evt);" onclick="segclick(&quot;313&quot;,&quot;1&quot;,evt);"></path></g></g></g><g id="314"><path style="stroke:#bdbddf; stroke-width:8px; fill:none;" opacity="0.7" d="M 558,246 H 579 a 12,12 0 0,1 12,12 V 265 a 12,12 0 0,0 12,12L 620,277"></path><g><path style="stroke:#ff0; stroke-width:8px; fill:none; " opacity="0" d="M 558,246 H 579 a 12,12 0 0,1 12,12 V 265 a 12,12 0 0,0 12,12L 620,277"></path></g><path style="stroke:black; fill:none;" d="M 558,246 H 579 a 12,12 0 0,1 12,12 V 265 a 12,12 0 0,0 12,12L 620,277"></path><g><g><path style="stroke:#0ff; stroke-width:8px; fill:none; " opacity="0" d="M 558,246 L 591,246" onmousedown="segmousedown(&quot;314&quot;,&quot;0&quot;,evt);" onmouseover="segmouseover(&quot;314&quot;,&quot;0&quot;,evt);" onmouseout="segmouseout(&quot;314&quot;,&quot;0&quot;,evt);" onclick="segclick(&quot;314&quot;,&quot;0&quot;,evt);"></path><path style="stroke:#0ff; stroke-width:8px; fill:none; " opacity="0" d="M 591,246 L 591,277" onmousedown="segmousedown(&quot;314&quot;,&quot;1&quot;,evt);" onmouseover="segmouseover(&quot;314&quot;,&quot;1&quot;,evt);" onmouseout="segmouseout(&quot;314&quot;,&quot;1&quot;,evt);" onclick="segclick(&quot;314&quot;,&quot;1&quot;,evt);"></path><path style="stroke:#0ff; stroke-width:8px; fill:none; " opacity="0" d="M 591,277 L 620,277" onmousedown="segmousedown(&quot;314&quot;,&quot;2&quot;,evt);" onmouseover="segmouseover(&quot;314&quot;,&quot;2&quot;,evt);" onmouseout="segmouseout(&quot;314&quot;,&quot;2&quot;,evt);" onclick="segclick(&quot;314&quot;,&quot;2&quot;,evt);"></path></g></g></g><g id="315"><path style="stroke:#bdbddf; stroke-width:8px; fill:none;" opacity="0.7" d="M 484,220 H 486.5 a 2.5,2.5 0 0,1 2.5,2.5 V 234 a 12,12 0 0,0 12,12L 528,246"></path><g><path style="stroke:#ff0; stroke-width:8px; fill:none; " opacity="0" d="M 484,220 H 486.5 a 2.5,2.5 0 0,1 2.5,2.5 V 234 a 12,12 0 0,0 12,12L 528,246"></path></g><path style="stroke:black; fill:none;" d="M 484,220 H 486.5 a 2.5,2.5 0 0,1 2.5,2.5 V 234 a 12,12 0 0,0 12,12L 528,246"></path><g><g><path style="stroke:#0ff; stroke-width:8px; fill:none; " opacity="0" d="M 484,220 L 489,220" onmousedown="segmousedown(&quot;315&quot;,&quot;0&quot;,evt);" onmouseover="segmouseover(&quot;315&quot;,&quot;0&quot;,evt);" onmouseout="segmouseout(&quot;315&quot;,&quot;0&quot;,evt);" onclick="segclick(&quot;315&quot;,&quot;0&quot;,evt);"></path><path style="stroke:#0ff; stroke-width:8px; fill:none; " opacity="0" d="M 489,220 L 489,246" onmousedown="segmousedown(&quot;315&quot;,&quot;1&quot;,evt);" onmouseover="segmouseover(&quot;315&quot;,&quot;1&quot;,evt);" onmouseout="segmouseout(&quot;315&quot;,&quot;1&quot;,evt);" onclick="segclick(&quot;315&quot;,&quot;1&quot;,evt);"></path><path style="stroke:#0ff; stroke-width:8px; fill:none; " opacity="0" d="M 489,246 L 528,246" onmousedown="segmousedown(&quot;315&quot;,&quot;2&quot;,evt);" onmouseover="segmouseover(&quot;315&quot;,&quot;2&quot;,evt);" onmouseout="segmouseout(&quot;315&quot;,&quot;2&quot;,evt);" onclick="segclick(&quot;315&quot;,&quot;2&quot;,evt);"></path></g></g></g><g id="316"><path style="stroke:#bdbddf; stroke-width:8px; fill:none;" opacity="0.7" d="M 353,354 H 321 a 12,12 0 0,1 -12,-12L 309,295"></path><g><path style="stroke:#ff0; stroke-width:8px; fill:none; " opacity="0" d="M 353,354 H 321 a 12,12 0 0,1 -12,-12L 309,295"></path></g><path style="stroke:black; fill:none;" d="M 353,354 H 321 a 12,12 0 0,1 -12,-12L 309,295"></path><g><g><path style="stroke:#0ff; stroke-width:8px; fill:none; " opacity="0" d="M 353,354 L 309,354" onmousedown="segmousedown(&quot;316&quot;,&quot;0&quot;,evt);" onmouseover="segmouseover(&quot;316&quot;,&quot;0&quot;,evt);" onmouseout="segmouseout(&quot;316&quot;,&quot;0&quot;,evt);" onclick="segclick(&quot;316&quot;,&quot;0&quot;,evt);"></path><path style="stroke:#0ff; stroke-width:8px; fill:none; " opacity="0" d="M 309,354 L 309,295" onmousedown="segmousedown(&quot;316&quot;,&quot;1&quot;,evt);" onmouseover="segmouseover(&quot;316&quot;,&quot;1&quot;,evt);" onmouseout="segmouseout(&quot;316&quot;,&quot;1&quot;,evt);" onclick="segclick(&quot;316&quot;,&quot;1&quot;,evt);"></path></g></g></g><g id="317"><path style="stroke:#bdbddf; stroke-width:8px; fill:none;" opacity="0.7" d="M 546,334 V 418.5 a 11.5,11.5 0 0,0 11.5,11.5L 569,430"></path><g><path style="stroke:#ff0; stroke-width:8px; fill:none; " opacity="0" d="M 546,334 V 418.5 a 11.5,11.5 0 0,0 11.5,11.5L 569,430"></path></g><path style="stroke:black; fill:none;" d="M 546,334 V 418.5 a 11.5,11.5 0 0,0 11.5,11.5L 569,430"></path><g><g><path style="stroke:#0ff; stroke-width:8px; fill:none; " opacity="0" d="M 546,334 L 546,430" onmousedown="segmousedown(&quot;317&quot;,&quot;0&quot;,evt);" onmouseover="segmouseover(&quot;317&quot;,&quot;0&quot;,evt);" onmouseout="segmouseout(&quot;317&quot;,&quot;0&quot;,evt);" onclick="segclick(&quot;317&quot;,&quot;0&quot;,evt);"></path><path style="stroke:#0ff; stroke-width:8px; fill:none; " opacity="0" d="M 546,430 L 569,430" onmousedown="segmousedown(&quot;317&quot;,&quot;1&quot;,evt);" onmouseover="segmouseover(&quot;317&quot;,&quot;1&quot;,evt);" onmouseout="segmouseout(&quot;317&quot;,&quot;1&quot;,evt);" onclick="segclick(&quot;317&quot;,&quot;1&quot;,evt);"></path></g></g></g></g>
  <g id="nodes"><g id="293" onmousedown="nodemousedown(293,evt);" onmouseover="nodemouseover(293,evt);" onmouseout="nodemouseout(293,evt);" transform="translate(45,214)"><rect x="-21" y="-21" width="42" height="42" fill="#0ff" style="stroke:none; opacity:0.75;" display="none"></rect><rect x="-15" y="-15" width="30" height="30" fill="#f0f0d2" style="stroke:black; opacity:1;"></rect></g><g id="294" onmousedown="nodemousedown(294,evt);" onmouseover="nodemouseover(294,evt);" onmouseout="nodemouseout(294,evt);" transform="translate(469,214)"><rect x="-21" y="-21" width="42" height="42" fill="#0ff" style="stroke:none; opacity:0.75;" display="none"></rect><rect x="-15" y="-15" width="30" height="30" fill="#f0f0d2" style="stroke:black; opacity:1;"></rect></g><g id="300" onmousedown="nodemousedown(300,evt);" onmouseover="nodemouseover(300,evt);" onmouseout="nodemouseout(300,evt);" transform="translate(543,246)"><rect x="-21" y="-21" width="42" height="42" fill="#0ff" style="stroke:none; opacity:0.75;" display="none"></rect><rect x="-15" y="-15" width="30" height="30" fill="#f0f0d2" style="stroke:black; opacity:1;"></rect></g><g id="301" onmousedown="nodemousedown(301,evt);" onmouseover="nodemouseover(301,evt);" onmouseout="nodemouseout(301,evt);" transform="translate(635,277)"><rect x="-21" y="-21" width="42" height="42" fill="#0ff" style="stroke:none; opacity:0.75;" display="none"></rect><rect x="-15" y="-15" width="30" height="30" fill="#f0f0d2" style="stroke:black; opacity:1;"></rect></g><g id="302" onmousedown="nodemousedown(302,evt);" onmouseover="nodemouseover(302,evt);" onmouseout="nodemouseout(302,evt);" transform="translate(543,319)"><rect x="-21" y="-21" width="42" height="42" fill="#0ff" style="stroke:none; opacity:0.75;" display="none"></rect><rect x="-15" y="-15" width="30" height="30" fill="#f0f0d2" style="stroke:black; opacity:1;"></rect></g><g id="304" onmousedown="nodemousedown(304,evt);" onmouseover="nodemouseover(304,evt);" onmouseout="nodemouseout(304,evt);" transform="translate(584,424)"><rect x="-21" y="-21" width="42" height="42" fill="#0ff" style="stroke:none; opacity:0.75;" display="none"></rect><rect x="-15" y="-15" width="30" height="30" fill="#f0f0d2" style="stroke:black; opacity:1;"></rect></g><g id="296" onmousedown="nodemousedown(296,evt);" onmouseover="nodemouseover(296,evt);" onmouseout="nodemouseout(296,evt);" transform="translate(381,249)"><rect x="-21" y="-21" width="42" height="42" fill="#0ff" style="stroke:none; opacity:0.75;" display="none"></rect><rect x="-15" y="-15" width="30" height="30" fill="#f0f0d2" style="stroke:black; opacity:1;"></rect></g><g id="299" onmousedown="nodemousedown(299,evt);" onmouseover="nodemouseover(299,evt);" onmouseout="nodemouseout(299,evt);" transform="translate(309,280)"><rect x="-21" y="-21" width="42" height="42" fill="#0ff" style="stroke:none; opacity:0.75;" display="none"></rect><rect x="-15" y="-15" width="30" height="30" fill="#f0f0d2" style="stroke:black; opacity:1;"></rect></g><g id="303" onmousedown="nodemousedown(303,evt);" onmouseover="nodemouseover(303,evt);" onmouseout="nodemouseout(303,evt);" transform="translate(497,426)"><rect x="-21" y="-21" width="42" height="42" fill="#0ff" style="stroke:none; opacity:0.75;" display="none"></rect><rect x="-15" y="-15" width="30" height="30" fill="#f0f0d2" style="stroke:black; opacity:1;"></rect></g><g id="298" onmousedown="nodemousedown(298,evt);" onmouseover="nodemouseover(298,evt);" onmouseout="nodemouseout(298,evt);" transform="translate(368,341)"><rect x="-21" y="-21" width="42" height="42" fill="#0ff" style="stroke:none; opacity:0.75;" display="none"></rect><rect x="-15" y="-15" width="30" height="30" fill="#f0f0d2" style="stroke:black; opacity:1;"></rect></g><g id="297" onmousedown="nodemousedown(297,evt);" onmouseover="nodemouseover(297,evt);" onmouseout="nodemouseout(297,evt);" transform="translate(149,355)"><rect x="-21" y="-21" width="42" height="42" fill="#0ff" style="stroke:none; opacity:0.75;" display="none"></rect><rect x="-15" y="-15" width="30" height="30" fill="#f0f0d2" style="stroke:black; opacity:1;"></rect></g><g id="295" onmousedown="nodemousedown(295,evt);" onmouseover="nodemouseover(295,evt);" onmouseout="nodemouseout(295,evt);" transform="translate(259,343)"><rect x="-21" y="-21" width="42" height="42" fill="#0ff" style="stroke:none; opacity:0.75;" display="none"></rect><rect x="-15" y="-15" width="30" height="30" fill="#f0f0d2" style="stroke:black; opacity:1;"></rect></g></g>
  <g id="BPs"><g onmousedown="bpmousedown(326,evt);" onmouseover="bpmouseover(326,evt);" onmouseout="bpmouseout(326,evt);" transform="translate(350,249)" opacity="0"><ellipse cx="0" cy="0" rx="16" ry="16" fill="#0ff" style="stroke:none; opacity:0.75;" display="none"></ellipse><ellipse cx="0" cy="0" rx="5.132188731375618" ry="5.132188731375618" fill="#777" style="stroke:black;"></ellipse></g><g onmousedown="bpmousedown(327,evt);" onmouseover="bpmouseover(327,evt);" onmouseout="bpmouseout(327,evt);" transform="translate(350,280)" opacity="0"><ellipse cx="0" cy="0" rx="16" ry="16" fill="#0ff" style="stroke:none; opacity:0.75;" display="none"></ellipse><ellipse cx="0" cy="0" rx="5.132188731375618" ry="5.132188731375618" fill="#777" style="stroke:black;"></ellipse></g><g onmousedown="bpmousedown(331,evt);" onmouseover="bpmouseover(331,evt);" onmouseout="bpmouseout(331,evt);" transform="translate(304,355)" opacity="0"><ellipse cx="0" cy="0" rx="16" ry="16" fill="#0ff" style="stroke:none; opacity:0.75;" display="none"></ellipse><ellipse cx="0" cy="0" rx="5.132188731375618" ry="5.132188731375618" fill="#777" style="stroke:black;"></ellipse></g><g onmousedown="bpmousedown(334,evt);" onmouseover="bpmouseover(334,evt);" onmouseout="bpmouseout(334,evt);" transform="translate(259,457)" opacity="0"><ellipse cx="0" cy="0" rx="16" ry="16" fill="#0ff" style="stroke:none; opacity:0.75;" display="none"></ellipse><ellipse cx="0" cy="0" rx="5.132188731375618" ry="5.132188731375618" fill="#777" style="stroke:black;"></ellipse></g><g onmousedown="bpmousedown(335,evt);" onmouseover="bpmouseover(335,evt);" onmouseout="bpmouseout(335,evt);" transform="translate(149,457)" opacity="0"><ellipse cx="0" cy="0" rx="16" ry="16" fill="#0ff" style="stroke:none; opacity:0.75;" display="none"></ellipse><ellipse cx="0" cy="0" rx="5.132188731375618" ry="5.132188731375618" fill="#777" style="stroke:black;"></ellipse></g><g onmousedown="bpmousedown(339,evt);" onmouseover="bpmouseover(339,evt);" onmouseout="bpmouseout(339,evt);" transform="translate(45,341)" opacity="0"><ellipse cx="0" cy="0" rx="16" ry="16" fill="#0ff" style="stroke:none; opacity:0.75;" display="none"></ellipse><ellipse cx="0" cy="0" rx="5.132188731375618" ry="5.132188731375618" fill="#777" style="stroke:black;"></ellipse></g><g onmousedown="bpmousedown(349,evt);" onmouseover="bpmouseover(349,evt);" onmouseout="bpmouseout(349,evt);" transform="translate(536,432)" opacity="0"><ellipse cx="0" cy="0" rx="16" ry="16" fill="#0ff" style="stroke:none; opacity:0.75;" display="none"></ellipse><ellipse cx="0" cy="0" rx="5.132188731375618" ry="5.132188731375618" fill="#777" style="stroke:black;"></ellipse></g><g onmousedown="bpmousedown(352,evt);" onmouseover="bpmouseover(352,evt);" onmouseout="bpmouseout(352,evt);" transform="translate(591,246)" opacity="0"><ellipse cx="0" cy="0" rx="16" ry="16" fill="#0ff" style="stroke:none; opacity:0.75;" display="none"></ellipse><ellipse cx="0" cy="0" rx="5.132188731375618" ry="5.132188731375618" fill="#777" style="stroke:black;"></ellipse></g><g onmousedown="bpmousedown(353,evt);" onmouseover="bpmouseover(353,evt);" onmouseout="bpmouseout(353,evt);" transform="translate(591,277)" opacity="0"><ellipse cx="0" cy="0" rx="16" ry="16" fill="#0ff" style="stroke:none; opacity:0.75;" display="none"></ellipse><ellipse cx="0" cy="0" rx="5.132188731375618" ry="5.132188731375618" fill="#777" style="stroke:black;"></ellipse></g><g onmousedown="bpmousedown(356,evt);" onmouseover="bpmouseover(356,evt);" onmouseout="bpmouseout(356,evt);" transform="translate(489,220)" opacity="0"><ellipse cx="0" cy="0" rx="16" ry="16" fill="#0ff" style="stroke:none; opacity:0.75;" display="none"></ellipse><ellipse cx="0" cy="0" rx="5.132188731375618" ry="5.132188731375618" fill="#777" style="stroke:black;"></ellipse></g><g onmousedown="bpmousedown(357,evt);" onmouseover="bpmouseover(357,evt);" onmouseout="bpmouseout(357,evt);" transform="translate(489,246)" opacity="0"><ellipse cx="0" cy="0" rx="16" ry="16" fill="#0ff" style="stroke:none; opacity:0.75;" display="none"></ellipse><ellipse cx="0" cy="0" rx="5.132188731375618" ry="5.132188731375618" fill="#777" style="stroke:black;"></ellipse></g><g onmousedown="bpmousedown(368,evt);" onmouseover="bpmouseover(368,evt);" onmouseout="bpmouseout(368,evt);" transform="translate(546,430)" opacity="0"><ellipse cx="0" cy="0" rx="16" ry="16" fill="#0ff" style="stroke:none; opacity:0.75;" display="none"></ellipse><ellipse cx="0" cy="0" rx="5.132188731375618" ry="5.132188731375618" fill="#777" style="stroke:black;"></ellipse></g><g onmousedown="bpmousedown(373,evt);" onmouseover="bpmouseover(373,evt);" onmouseout="bpmouseout(373,evt);" transform="translate(422,221)" opacity="0"><ellipse cx="0" cy="0" rx="16" ry="16" fill="#0ff" style="stroke:none; opacity:0.75;" display="none"></ellipse><ellipse cx="0" cy="0" rx="5.132188731375618" ry="5.132188731375618" fill="#777" style="stroke:black;"></ellipse></g><g onmousedown="bpmousedown(374,evt);" onmouseover="bpmouseover(374,evt);" onmouseout="bpmouseout(374,evt);" transform="translate(422,249)" opacity="0"><ellipse cx="0" cy="0" rx="16" ry="16" fill="#0ff" style="stroke:none; opacity:0.75;" display="none"></ellipse><ellipse cx="0" cy="0" rx="5.132188731375618" ry="5.132188731375618" fill="#777" style="stroke:black;"></ellipse></g><g onmousedown="bpmousedown(381,evt);" onmouseover="bpmouseover(381,evt);" onmouseout="bpmouseout(381,evt);" transform="translate(309,354)" opacity="0"><ellipse cx="0" cy="0" rx="16" ry="16" fill="#0ff" style="stroke:none; opacity:0.75;" display="none"></ellipse><ellipse cx="0" cy="0" rx="5.132188731375618" ry="5.132188731375618" fill="#777" style="stroke:black;"></ellipse></g><g onmousedown="bpmousedown(387,evt);" onmouseover="bpmouseover(387,evt);" onmouseout="bpmouseout(387,evt);" transform="translate(149,420)" opacity="0"><ellipse cx="0" cy="0" rx="16" ry="16" fill="#0ff" style="stroke:none; opacity:0.75;" display="none"></ellipse><ellipse cx="0" cy="0" rx="5.132188731375618" ry="5.132188731375618" fill="#777" style="stroke:black;"></ellipse></g><g onmousedown="bpmousedown(388,evt);" onmouseover="bpmouseover(388,evt);" onmouseout="bpmouseout(388,evt);" transform="translate(368,420)" opacity="0"><ellipse cx="0" cy="0" rx="16" ry="16" fill="#0ff" style="stroke:none; opacity:0.75;" display="none"></ellipse><ellipse cx="0" cy="0" rx="5.132188731375618" ry="5.132188731375618" fill="#777" style="stroke:black;"></ellipse></g></g>
  <g id="ports"></g>
</g>
</svg>