<svg id="SVGCanvas" width="480px" height="270px" xmlns="http://www.w3.org/2000/svg" xlink="http://www.w3.org/1999/xlink" onmouseup="null" onmousemove="null">
<rect id="background" x="0" y="0" height="100%" width="100%" fill="#bdbddf" onmousedown="bgmousedown(evt)"></rect>
<g id="foreground" transform="translate(85.67427385892117,0),scale(0.5601659751037344),translate(-379,-24)">
  <g id="edges"><g id="328"><path style="stroke:#bdbddf; stroke-width:8px; fill:none;" opacity="0.7" d="M 668,476 H 674.5 a 6.5,6.5 0 0,0 6.5,-6.5 V 367 a 12,12 0 0,1 12,-12 H 716 a 12,12 0 0,0 12,-12L 728,302"></path><g><path style="stroke:#ff0; stroke-width:8px; fill:none; " opacity="0" d="M 668,476 H 674.5 a 6.5,6.5 0 0,0 6.5,-6.5 V 367 a 12,12 0 0,1 12,-12 H 716 a 12,12 0 0,0 12,-12L 728,302"></path></g><path style="stroke:black; fill:none;" d="M 668,476 H 674.5 a 6.5,6.5 0 0,0 6.5,-6.5 V 367 a 12,12 0 0,1 12,-12 H 716 a 12,12 0 0,0 12,-12L 728,302"></path><g><g><path style="stroke:#0ff; stroke-width:8px; fill:none; " opacity="0" d="M 668,476 L 681,476" onmousedown="segmousedown(&quot;328&quot;,&quot;0&quot;,evt);" onmouseover="segmouseover(&quot;328&quot;,&quot;0&quot;,evt);" onmouseout="segmouseout(&quot;328&quot;,&quot;0&quot;,evt);" onclick="segclick(&quot;328&quot;,&quot;0&quot;,evt);"></path><path style="stroke:#0ff; stroke-width:8px; fill:none; " opacity="0" d="M 681,476 L 681,355" onmousedown="segmousedown(&quot;328&quot;,&quot;1&quot;,evt);" onmouseover="segmouseover(&quot;328&quot;,&quot;1&quot;,evt);" onmouseout="segmouseout(&quot;328&quot;,&quot;1&quot;,evt);" onclick="segclick(&quot;328&quot;,&quot;1&quot;,evt);"></path><path style="stroke:#0ff; stroke-width:8px; fill:none; " opacity="0" d="M 681,355 L 728,355" onmousedown="segmousedown(&quot;328&quot;,&quot;2&quot;,evt);" onmouseover="segmouseover(&quot;328&quot;,&quot;2&quot;,evt);" onmouseout="segmouseout(&quot;328&quot;,&quot;2&quot;,evt);" onclick="segclick(&quot;328&quot;,&quot;2&quot;,evt);"></path><path style="stroke:#0ff; stroke-width:8px; fill:none; " opacity="0" d="M 728,355 L 728,302" onmousedown="segmousedown(&quot;328&quot;,&quot;3&quot;,evt);" onmouseover="segmouseover(&quot;328&quot;,&quot;3&quot;,evt);" onmouseout="segmouseout(&quot;328&quot;,&quot;3&quot;,evt);" onclick="segclick(&quot;328&quot;,&quot;3&quot;,evt);"></path></g></g></g><g id="329"><path style="stroke:#bdbddf; stroke-width:8px; fill:none;" opacity="0.7" d="M 731,302L 731,231"></path><g><path style="stroke:#ff0; stroke-width:8px; fill:none; " opacity="0" d="M 731,302L 731,231"></path></g><path style="stroke:black; fill:none;" d="M 731,302L 731,231"></path><g><g><path style="stroke:#0ff; stroke-width:8px; fill:none; " opacity="0" d="M 731,302 L 731,231" onmousedown="segmousedown(&quot;329&quot;,&quot;0&quot;,evt);" onmouseover="segmouseover(&quot;329&quot;,&quot;0&quot;,evt);" onmouseout="segmouseout(&quot;329&quot;,&quot;0&quot;,evt);" onclick="segclick(&quot;329&quot;,&quot;0&quot;,evt);"></path></g></g></g>

<g id="330"><path style="stroke:#bdbddf; stroke-width:8px; fill:none;" opacity="0.7" d="M 885,54 H 570 a 12,12 0 0,0 -12,12 V 464 a 12,12 0 0,0 12,12L 638,476"></path><g><path style="stroke:#ff0; stroke-width:8px; fill:none; " opacity="0" d="M 885,54 H 570 a 12,12 0 0,0 -12,12 V 464 a 12,12 0 0,0 12,12L 638,476"></path></g>

<path style="stroke:none; fill:none;" d="M 885,54 H 570 a 12,12 0 0,0 -12,12 V 464 a 12,12 0 0,0 12,12L 638,476"></path>

<g><g><path style="stroke:#0ff; stroke-width:8px; fill:none; " opacity="0" d="M 885,54 L 558,54" onmousedown="segmousedown(&quot;330&quot;,&quot;0&quot;,evt);" onmouseover="segmouseover(&quot;330&quot;,&quot;0&quot;,evt);" onmouseout="segmouseout(&quot;330&quot;,&quot;0&quot;,evt);" onclick="segclick(&quot;330&quot;,&quot;0&quot;,evt);"></path><path style="stroke:#0ff; stroke-width:8px; fill:none; " opacity="0" d="M 558,54 L 558,476" onmousedown="segmousedown(&quot;330&quot;,&quot;1&quot;,evt);" onmouseover="segmouseover(&quot;330&quot;,&quot;1&quot;,evt);" onmouseout="segmouseout(&quot;330&quot;,&quot;1&quot;,evt);" onclick="segclick(&quot;330&quot;,&quot;1&quot;,evt);"></path><path style="stroke:#0ff; stroke-width:8px; fill:none; " opacity="0" d="M 558,476 L 638,476" onmousedown="segmousedown(&quot;330&quot;,&quot;2&quot;,evt);" onmouseover="segmouseover(&quot;330&quot;,&quot;2&quot;,evt);" onmouseout="segmouseout(&quot;330&quot;,&quot;2&quot;,evt);" onclick="segclick(&quot;330&quot;,&quot;2&quot;,evt);"></path></g></g></g>

<g id="331"><path style="stroke:#bdbddf; stroke-width:8px; fill:none;" opacity="0.7" d="M 731,223 H 888 a 12,12 0 0,0 12,-12L 900,69"></path><g><path style="stroke:#ff0; stroke-width:8px; fill:none; " opacity="0" d="M 731,223 H 888 a 12,12 0 0,0 12,-12L 900,69"></path></g><path style="stroke:black; fill:none;" d="M 731,223 H 888 a 12,12 0 0,0 12,-12L 900,69"></path><g><g><path style="stroke:#0ff; stroke-width:8px; fill:none; " opacity="0" d="M 731,223 L 900,223" onmousedown="segmousedown(&quot;331&quot;,&quot;0&quot;,evt);" onmouseover="segmouseover(&quot;331&quot;,&quot;0&quot;,evt);" onmouseout="segmouseout(&quot;331&quot;,&quot;0&quot;,evt);" onclick="segclick(&quot;331&quot;,&quot;0&quot;,evt);"></path><path style="stroke:#0ff; stroke-width:8px; fill:none; " opacity="0" d="M 900,223 L 900,69" onmousedown="segmousedown(&quot;331&quot;,&quot;1&quot;,evt);" onmouseover="segmouseover(&quot;331&quot;,&quot;1&quot;,evt);" onmouseout="segmouseout(&quot;331&quot;,&quot;1&quot;,evt);" onclick="segclick(&quot;331&quot;,&quot;1&quot;,evt);"></path></g></g></g><g id="332"><path style="stroke:#bdbddf; stroke-width:8px; fill:none;" opacity="0.7" d="M 511,273 H 623 a 12,12 0 0,0 12,-12 V 255 a 12,12 0 0,1 12,-12L 721,243"></path><g><path style="stroke:#ff0; stroke-width:8px; fill:none; " opacity="0" d="M 511,273 H 623 a 12,12 0 0,0 12,-12 V 255 a 12,12 0 0,1 12,-12L 721,243"></path></g><path style="stroke:black; fill:none;" d="M 511,273 H 623 a 12,12 0 0,0 12,-12 V 255 a 12,12 0 0,1 12,-12L 721,243"></path><g><g><path style="stroke:#0ff; stroke-width:8px; fill:none; " opacity="0" d="M 511,273 L 635,273" onmousedown="segmousedown(&quot;332&quot;,&quot;0&quot;,evt);" onmouseover="segmouseover(&quot;332&quot;,&quot;0&quot;,evt);" onmouseout="segmouseout(&quot;332&quot;,&quot;0&quot;,evt);" onclick="segclick(&quot;332&quot;,&quot;0&quot;,evt);"></path><path style="stroke:#0ff; stroke-width:8px; fill:none; " opacity="0" d="M 635,273 L 635,243" onmousedown="segmousedown(&quot;332&quot;,&quot;1&quot;,evt);" onmouseover="segmouseover(&quot;332&quot;,&quot;1&quot;,evt);" onmouseout="segmouseout(&quot;332&quot;,&quot;1&quot;,evt);" onclick="segclick(&quot;332&quot;,&quot;1&quot;,evt);"></path><path style="stroke:#0ff; stroke-width:8px; fill:none; " opacity="0" d="M 635,243 L 721,243" onmousedown="segmousedown(&quot;332&quot;,&quot;2&quot;,evt);" onmouseover="segmouseover(&quot;332&quot;,&quot;2&quot;,evt);" onmouseout="segmouseout(&quot;332&quot;,&quot;2&quot;,evt);" onclick="segclick(&quot;332&quot;,&quot;2&quot;,evt);"></path></g></g></g><g id="333"><path style="stroke:#bdbddf; stroke-width:8px; fill:none;" opacity="0.7" d="M 496,258 V 215 a 12,12 0 0,0 -12,-12 H 464 a 12,12 0 0,1 -12,-12L 452,170"></path><g><path style="stroke:#ff0; stroke-width:8px; fill:none; " opacity="0" d="M 496,258 V 215 a 12,12 0 0,0 -12,-12 H 464 a 12,12 0 0,1 -12,-12L 452,170"></path></g><path style="stroke:black; fill:none;" d="M 496,258 V 215 a 12,12 0 0,0 -12,-12 H 464 a 12,12 0 0,1 -12,-12L 452,170"></path><g><g><path style="stroke:#0ff; stroke-width:8px; fill:none; " opacity="0" d="M 496,258 L 496,203" onmousedown="segmousedown(&quot;333&quot;,&quot;0&quot;,evt);" onmouseover="segmouseover(&quot;333&quot;,&quot;0&quot;,evt);" onmouseout="segmouseout(&quot;333&quot;,&quot;0&quot;,evt);" onclick="segclick(&quot;333&quot;,&quot;0&quot;,evt);"></path><path style="stroke:#0ff; stroke-width:8px; fill:none; " opacity="0" d="M 496,203 L 452,203" onmousedown="segmousedown(&quot;333&quot;,&quot;1&quot;,evt);" onmouseover="segmouseover(&quot;333&quot;,&quot;1&quot;,evt);" onmouseout="segmouseout(&quot;333&quot;,&quot;1&quot;,evt);" onclick="segclick(&quot;333&quot;,&quot;1&quot;,evt);"></path><path style="stroke:#0ff; stroke-width:8px; fill:none; " opacity="0" d="M 452,203 L 452,170" onmousedown="segmousedown(&quot;333&quot;,&quot;2&quot;,evt);" onmouseover="segmouseover(&quot;333&quot;,&quot;2&quot;,evt);" onmouseout="segmouseout(&quot;333&quot;,&quot;2&quot;,evt);" onclick="segclick(&quot;333&quot;,&quot;2&quot;,evt);"></path></g></g></g><g id="334"><path style="stroke:#bdbddf; stroke-width:8px; fill:none;" opacity="0.7" d="M 452,170L 560,170"></path><g><path style="stroke:#ff0; stroke-width:8px; fill:none; " opacity="0" d="M 452,170L 560,170"></path></g><path style="stroke:black; fill:none;" d="M 452,170L 560,170"></path><g><g><path style="stroke:#0ff; stroke-width:8px; fill:none; " opacity="0" d="M 452,170 L 560,170" onmousedown="segmousedown(&quot;334&quot;,&quot;0&quot;,evt);" onmouseover="segmouseover(&quot;334&quot;,&quot;0&quot;,evt);" onmouseout="segmouseout(&quot;334&quot;,&quot;0&quot;,evt);" onclick="segclick(&quot;334&quot;,&quot;0&quot;,evt);"></path></g></g></g><g id="335"><path style="stroke:#bdbddf; stroke-width:8px; fill:none;" opacity="0.7" d="M 459,170 V 130 a 12,12 0 0,0 -12,-12L 409,118"></path><g><path style="stroke:#ff0; stroke-width:8px; fill:none; " opacity="0" d="M 459,170 V 130 a 12,12 0 0,0 -12,-12L 409,118"></path></g><path style="stroke:black; fill:none;" d="M 459,170 V 130 a 12,12 0 0,0 -12,-12L 409,118"></path><g><g><path style="stroke:#0ff; stroke-width:8px; fill:none; " opacity="0" d="M 459,170 L 459,118" onmousedown="segmousedown(&quot;335&quot;,&quot;0&quot;,evt);" onmouseover="segmouseover(&quot;335&quot;,&quot;0&quot;,evt);" onmouseout="segmouseout(&quot;335&quot;,&quot;0&quot;,evt);" onclick="segclick(&quot;335&quot;,&quot;0&quot;,evt);"></path><path style="stroke:#0ff; stroke-width:8px; fill:none; " opacity="0" d="M 459,118 L 409,118" onmousedown="segmousedown(&quot;335&quot;,&quot;1&quot;,evt);" onmouseover="segmouseover(&quot;335&quot;,&quot;1&quot;,evt);" onmouseout="segmouseout(&quot;335&quot;,&quot;1&quot;,evt);" onclick="segclick(&quot;335&quot;,&quot;1&quot;,evt);"></path></g></g></g><g id="336"><path style="stroke:#bdbddf; stroke-width:8px; fill:none;" opacity="0.7" d="M 481,273 H 486.5 a 5.5,5.5 0 0,1 5.5,5.5L 492,391"></path><g><path style="stroke:#ff0; stroke-width:8px; fill:none; " opacity="0" d="M 481,273 H 486.5 a 5.5,5.5 0 0,1 5.5,5.5L 492,391"></path></g><path style="stroke:black; fill:none;" d="M 481,273 H 486.5 a 5.5,5.5 0 0,1 5.5,5.5L 492,391"></path><g><g><path style="stroke:#0ff; stroke-width:8px; fill:none; " opacity="0" d="M 481,273 L 492,273" onmousedown="segmousedown(&quot;336&quot;,&quot;0&quot;,evt);" onmouseover="segmouseover(&quot;336&quot;,&quot;0&quot;,evt);" onmouseout="segmouseout(&quot;336&quot;,&quot;0&quot;,evt);" onclick="segclick(&quot;336&quot;,&quot;0&quot;,evt);"></path><path style="stroke:#0ff; stroke-width:8px; fill:none; " opacity="0" d="M 492,273 L 492,391" onmousedown="segmousedown(&quot;336&quot;,&quot;1&quot;,evt);" onmouseover="segmouseover(&quot;336&quot;,&quot;1&quot;,evt);" onmouseout="segmouseout(&quot;336&quot;,&quot;1&quot;,evt);" onclick="segclick(&quot;336&quot;,&quot;1&quot;,evt);"></path></g></g></g><g id="337"><path style="stroke:#bdbddf; stroke-width:8px; fill:none;" opacity="0.7" d="M 496,288 V 320.5 a 8.5,8.5 0 0,0 8.5,8.5L 513,329"></path><g><path style="stroke:#ff0; stroke-width:8px; fill:none; " opacity="0" d="M 496,288 V 320.5 a 8.5,8.5 0 0,0 8.5,8.5L 513,329"></path></g><path style="stroke:black; fill:none;" d="M 496,288 V 320.5 a 8.5,8.5 0 0,0 8.5,8.5L 513,329"></path><g><g><path style="stroke:#0ff; stroke-width:8px; fill:none; " opacity="0" d="M 496,288 L 496,329" onmousedown="segmousedown(&quot;337&quot;,&quot;0&quot;,evt);" onmouseover="segmouseover(&quot;337&quot;,&quot;0&quot;,evt);" onmouseout="segmouseout(&quot;337&quot;,&quot;0&quot;,evt);" onclick="segclick(&quot;337&quot;,&quot;0&quot;,evt);"></path><path style="stroke:#0ff; stroke-width:8px; fill:none; " opacity="0" d="M 496,329 L 513,329" onmousedown="segmousedown(&quot;337&quot;,&quot;1&quot;,evt);" onmouseover="segmouseover(&quot;337&quot;,&quot;1&quot;,evt);" onmouseout="segmouseout(&quot;337&quot;,&quot;1&quot;,evt);" onclick="segclick(&quot;337&quot;,&quot;1&quot;,evt);"></path></g></g></g></g>
  <g id="nodes"><g id="320" onmousedown="nodemousedown(320,evt);" onmouseover="nodemouseover(320,evt);" onmouseout="nodemouseout(320,evt);" transform="translate(728 302)"><rect x="-21" y="-21" width="42" height="42" fill="#0ff" style="stroke:none; opacity:0.75;" display="none"></rect><rect x="-15" y="-15" width="30" height="30" fill="#f0f0d2" style="stroke:black; opacity:1;"></rect></g><g id="321" onmousedown="nodemousedown(321,evt);" onmouseover="nodemouseover(321,evt);" onmouseout="nodemouseout(321,evt);" transform="translate(731 231)"><rect x="-21" y="-21" width="42" height="42" fill="#0ff" style="stroke:none; opacity:0.75;" display="none"></rect><rect x="-15" y="-15" width="30" height="30" fill="#f0f0d2" style="stroke:black; opacity:1;"></rect></g><g id="323" onmousedown="nodemousedown(323,evt);" onmouseover="nodemouseover(323,evt);" onmouseout="nodemouseout(323,evt);" transform="translate(452 170)"><rect x="-21" y="-21" width="42" height="42" fill="#0ff" style="stroke:none; opacity:0.75;" display="none"></rect><rect x="-15" y="-15" width="30" height="30" fill="#f0f0d2" style="stroke:black; opacity:1;"></rect></g><g id="325" onmousedown="nodemousedown(325,evt);" onmouseover="nodemouseover(325,evt);" onmouseout="nodemouseout(325,evt);" transform="translate(560 167)"><rect x="-21" y="-21" width="42" height="42" fill="#0ff" style="stroke:none; opacity:0.75;" display="none"></rect><rect x="-15" y="-15" width="30" height="30" fill="#f0f0d2" style="stroke:black; opacity:1;"></rect></g><g id="326" onmousedown="nodemousedown(326,evt);" onmouseover="nodemouseover(326,evt);" onmouseout="nodemouseout(326,evt);" transform="translate(409 118)"><rect x="-21" y="-21" width="42" height="42" fill="#0ff" style="stroke:none; opacity:0.75;" display="none"></rect><rect x="-15" y="-15" width="30" height="30" fill="#f0f0d2" style="stroke:black; opacity:1;"></rect></g><g id="318" onmousedown="nodemousedown(318,evt);" onmouseover="nodemouseover(318,evt);" onmouseout="nodemouseout(318,evt);" transform="translate(900,54)"><rect x="-21" y="-21" width="42" height="42" fill="#0ff" style="stroke:none; opacity:0.75;" display="none"></rect><rect x="-15" y="-15" width="30" height="30" fill="#f0f0d2" style="stroke:black; opacity:1;"></rect></g><g id="322" onmousedown="nodemousedown(322,evt);" onmouseover="nodemouseover(322,evt);" onmouseout="nodemouseout(322,evt);" transform="translate(496,273)"><rect x="-21" y="-21" width="42" height="42" fill="#0ff" style="stroke:none; opacity:0.75;" display="none"></rect><rect x="-15" y="-15" width="30" height="30" fill="#f0f0d2" style="stroke:black; opacity:1;"></rect></g><g id="327" onmousedown="nodemousedown(327,evt);" onmouseover="nodemouseover(327,evt);" onmouseout="nodemouseout(327,evt);" transform="translate(528,322)"><rect x="-21" y="-21" width="42" height="42" fill="#0ff" style="stroke:none; opacity:0.75;" display="none"></rect><rect x="-15" y="-15" width="30" height="30" fill="#f0f0d2" style="stroke:black; opacity:1;"></rect></g><g id="324" onmousedown="nodemousedown(324,evt);" onmouseover="nodemouseover(324,evt);" onmouseout="nodemouseout(324,evt);" transform="translate(492,406)"><rect x="-21" y="-21" width="42" height="42" fill="#0ff" style="stroke:none; opacity:0.75;" display="none"></rect><rect x="-15" y="-15" width="30" height="30" fill="#f0f0d2" style="stroke:black; opacity:1;"></rect></g><g id="319" onmousedown="nodemousedown(319,evt);" onmouseover="nodemouseover(319,evt);" onmouseout="nodemouseout(319,evt);" transform="translate(653,476)"><rect x="-21" y="-21" width="42" height="42" fill="#0ff" style="stroke:none; opacity:0.75;" display="none"></rect><rect x="-15" y="-15" width="30" height="30" fill="#f0f0d2" style="stroke:black; opacity:1;"></rect></g></g>
  <g id="BPs"><g onmousedown="bpmousedown(340,evt);" onmouseover="bpmouseover(340,evt);" onmouseout="bpmouseout(340,evt);" transform="translate(681,476)" opacity="0"><ellipse cx="0" cy="0" rx="16" ry="16" fill="#0ff" style="stroke:none; opacity:0.75;" display="none"></ellipse><ellipse cx="0" cy="0" rx="6.5908152320000015" ry="6.5908152320000015" fill="#777" style="stroke:black;"></ellipse></g><g onmousedown="bpmousedown(341,evt);" onmouseover="bpmouseover(341,evt);" onmouseout="bpmouseout(341,evt);" transform="translate(681 355)" opacity="0"><ellipse cx="0" cy="0" rx="16" ry="16" fill="#0ff" style="stroke:none; opacity:0.75;" display="none"></ellipse><ellipse cx="0" cy="0" rx="6.5908152320000015" ry="6.5908152320000015" fill="#777" style="stroke:black;"></ellipse></g><g onmousedown="bpmousedown(342,evt);" onmouseover="bpmouseover(342,evt);" onmouseout="bpmouseout(342,evt);" transform="translate(728 355)" opacity="0"><ellipse cx="0" cy="0" rx="16" ry="16" fill="#0ff" style="stroke:none; opacity:0.75;" display="none"></ellipse><ellipse cx="0" cy="0" rx="6.5908152320000015" ry="6.5908152320000015" fill="#777" style="stroke:black;"></ellipse></g><g onmousedown="bpmousedown(347,evt);" onmouseover="bpmouseover(347,evt);" onmouseout="bpmouseout(347,evt);" transform="translate(558,54)" opacity="0"><ellipse cx="0" cy="0" rx="16" ry="16" fill="#0ff" style="stroke:none; opacity:0.75;" display="none"></ellipse><ellipse cx="0" cy="0" rx="6.5908152320000015" ry="6.5908152320000015" fill="#777" style="stroke:black;"></ellipse></g><g onmousedown="bpmousedown(348,evt);" onmouseover="bpmouseover(348,evt);" onmouseout="bpmouseout(348,evt);" transform="translate(558,476)" opacity="0"><ellipse cx="0" cy="0" rx="16" ry="16" fill="#0ff" style="stroke:none; opacity:0.75;" display="none"></ellipse><ellipse cx="0" cy="0" rx="6.5908152320000015" ry="6.5908152320000015" fill="#777" style="stroke:black;"></ellipse></g><g onmousedown="bpmousedown(351,evt);" onmouseover="bpmouseover(351,evt);" onmouseout="bpmouseout(351,evt);" transform="translate(900,223)" opacity="0"><ellipse cx="0" cy="0" rx="16" ry="16" fill="#0ff" style="stroke:none; opacity:0.75;" display="none"></ellipse><ellipse cx="0" cy="0" rx="6.5908152320000015" ry="6.5908152320000015" fill="#777" style="stroke:black;"></ellipse></g><g onmousedown="bpmousedown(354,evt);" onmouseover="bpmouseover(354,evt);" onmouseout="bpmouseout(354,evt);" transform="translate(635,273)" opacity="0"><ellipse cx="0" cy="0" rx="16" ry="16" fill="#0ff" style="stroke:none; opacity:0.75;" display="none"></ellipse><ellipse cx="0" cy="0" rx="6.5908152320000015" ry="6.5908152320000015" fill="#777" style="stroke:black;"></ellipse></g><g onmousedown="bpmousedown(355,evt);" onmouseover="bpmouseover(355,evt);" onmouseout="bpmouseout(355,evt);" transform="translate(635 243)" opacity="0"><ellipse cx="0" cy="0" rx="16" ry="16" fill="#0ff" style="stroke:none; opacity:0.75;" display="none"></ellipse><ellipse cx="0" cy="0" rx="6.5908152320000015" ry="6.5908152320000015" fill="#777" style="stroke:black;"></ellipse></g><g onmousedown="bpmousedown(358,evt);" onmouseover="bpmouseover(358,evt);" onmouseout="bpmouseout(358,evt);" transform="translate(496,203)" opacity="0"><ellipse cx="0" cy="0" rx="16" ry="16" fill="#0ff" style="stroke:none; opacity:0.75;" display="none"></ellipse><ellipse cx="0" cy="0" rx="6.5908152320000015" ry="6.5908152320000015" fill="#777" style="stroke:black;"></ellipse></g><g onmousedown="bpmousedown(359,evt);" onmouseover="bpmouseover(359,evt);" onmouseout="bpmouseout(359,evt);" transform="translate(452 203)" opacity="0"><ellipse cx="0" cy="0" rx="16" ry="16" fill="#0ff" style="stroke:none; opacity:0.75;" display="none"></ellipse><ellipse cx="0" cy="0" rx="6.5908152320000015" ry="6.5908152320000015" fill="#777" style="stroke:black;"></ellipse></g><g onmousedown="bpmousedown(364,evt);" onmouseover="bpmouseover(364,evt);" onmouseout="bpmouseout(364,evt);" transform="translate(459 118)" opacity="0"><ellipse cx="0" cy="0" rx="16" ry="16" fill="#0ff" style="stroke:none; opacity:0.75;" display="none"></ellipse><ellipse cx="0" cy="0" rx="6.5908152320000015" ry="6.5908152320000015" fill="#777" style="stroke:black;"></ellipse></g><g onmousedown="bpmousedown(367,evt);" onmouseover="bpmouseover(367,evt);" onmouseout="bpmouseout(367,evt);" transform="translate(492,273)" opacity="0"><ellipse cx="0" cy="0" rx="16" ry="16" fill="#0ff" style="stroke:none; opacity:0.75;" display="none"></ellipse><ellipse cx="0" cy="0" rx="6.5908152320000015" ry="6.5908152320000015" fill="#777" style="stroke:black;"></ellipse></g><g onmousedown="bpmousedown(370,evt);" onmouseover="bpmouseover(370,evt);" onmouseout="bpmouseout(370,evt);" transform="translate(496,329)" opacity="0"><ellipse cx="0" cy="0" rx="16" ry="16" fill="#0ff" style="stroke:none; opacity:0.75;" display="none"></ellipse><ellipse cx="0" cy="0" rx="6.5908152320000015" ry="6.5908152320000015" fill="#777" style="stroke:black;"></ellipse></g></g>
  <g id="ports"></g>
  <path style="stroke:black; fill:none;" d="M 885,54 H 570 a 12,12 0 0,0 -12,12 V 464 a 12,12 0 0,0 12,12L 638,476"></path>
</g>
</svg>
