<svg id="SVGCanvas" width="480px" height="270px" xmlns="http://www.w3.org/2000/svg" xmlns:xlink="http://www.w3.org/1999/xlink" onmouseup="null" onmousemove="null">
<rect id="background" x="0" y="0" height="100%" width="100%" fill="#bdbddf" onmousedown="bgmousedown(evt)"></rect>
<g id="foreground" transform="translate(78.4090909090909,0),scale(0.8181818181818182),translate(-172,-250)">
  <g id="edges"><g id="305"><path style="stroke:#bdbddf; stroke-width:8px; fill:none;" opacity="0.7" d="M 202,274L 522,274"></path><g><path style="stroke:#ff0; stroke-width:8px; fill:none; " opacity="0" d="M 202,274L 522,274"></path></g><path style="stroke:black; fill:none;" d="M 202,274L 522,274"></path><g><g><path style="stroke:#0ff; stroke-width:8px; fill:none; " opacity="0" d="M 202,274 L 522,274" onmousedown="segmousedown(&quot;305&quot;,&quot;0&quot;,evt);" onmouseover="segmouseover(&quot;305&quot;,&quot;0&quot;,evt);" onmouseout="segmouseout(&quot;305&quot;,&quot;0&quot;,evt);" onclick="segclick(&quot;305&quot;,&quot;0&quot;,evt);"></path></g></g></g><g id="306"><path style="stroke:#bdbddf; stroke-width:8px; fill:none;" opacity="0.7" d="M 537,295L 537,496"></path><g><path style="stroke:#ff0; stroke-width:8px; fill:none; " opacity="0" d="M 537,295L 537,496"></path></g><path style="stroke:black; fill:none;" d="M 537,295L 537,496"></path><g><g><path style="stroke:#0ff; stroke-width:8px; fill:none; " opacity="0" d="M 537,295 L 537,496" onmousedown="segmousedown(&quot;306&quot;,&quot;0&quot;,evt);" onmouseover="segmouseover(&quot;306&quot;,&quot;0&quot;,evt);" onmouseout="segmouseout(&quot;306&quot;,&quot;0&quot;,evt);" onclick="segclick(&quot;306&quot;,&quot;0&quot;,evt);"></path></g></g></g><g id="307"><path style="stroke:#bdbddf; stroke-width:8px; fill:none;" opacity="0.7" d="M 522,511L 309,511"></path><g><path style="stroke:#ff0; stroke-width:8px; fill:none; " opacity="0" d="M 522,511L 309,511"></path></g><path style="stroke:black; fill:none;" d="M 522,511L 309,511"></path><g><g><path style="stroke:#0ff; stroke-width:8px; fill:none; " opacity="0" d="M 522,511 L 309,511" onmousedown="segmousedown(&quot;307&quot;,&quot;0&quot;,evt);" onmouseover="segmouseover(&quot;307&quot;,&quot;0&quot;,evt);" onmouseout="segmouseout(&quot;307&quot;,&quot;0&quot;,evt);" onclick="segclick(&quot;307&quot;,&quot;0&quot;,evt);"></path></g></g></g><g id="308"><path style="stroke:#bdbddf; stroke-width:8px; fill:none;" opacity="0.7" d="M 279,511L 217,511"></path><g><path style="stroke:#ff0; stroke-width:8px; fill:none; " opacity="0" d="M 279,511L 217,511"></path></g><path style="stroke:black; fill:none;" d="M 279,511L 217,511"></path><g><g><path style="stroke:#0ff; stroke-width:8px; fill:none; " opacity="0" d="M 279,511 L 217,511" onmousedown="segmousedown(&quot;308&quot;,&quot;0&quot;,evt);" onmouseover="segmouseover(&quot;308&quot;,&quot;0&quot;,evt);" onmouseout="segmouseout(&quot;308&quot;,&quot;0&quot;,evt);" onclick="segclick(&quot;308&quot;,&quot;0&quot;,evt);"></path></g></g></g><g id="309"><path style="stroke:#bdbddf; stroke-width:8px; fill:none;" opacity="0.7" d="M 202,496L 202,403"></path><g><path style="stroke:#ff0; stroke-width:8px; fill:none; " opacity="0" d="M 202,496L 202,403"></path></g><path style="stroke:black; fill:none;" d="M 202,496L 202,403"></path><g><g><path style="stroke:#0ff; stroke-width:8px; fill:none; " opacity="0" d="M 202,496 L 202,403" onmousedown="segmousedown(&quot;309&quot;,&quot;0&quot;,evt);" onmouseover="segmouseover(&quot;309&quot;,&quot;0&quot;,evt);" onmouseout="segmouseout(&quot;309&quot;,&quot;0&quot;,evt);" onclick="segclick(&quot;309&quot;,&quot;0&quot;,evt);"></path></g></g></g><g id="310"><path style="stroke:#bdbddf; stroke-width:8px; fill:none;" opacity="0.7" d="M 202,403L 202,295"></path><g><path style="stroke:#ff0; stroke-width:8px; fill:none; " opacity="0" d="M 202,403L 202,295"></path></g><path style="stroke:black; fill:none;" d="M 202,403L 202,295"></path><g><g><path style="stroke:#0ff; stroke-width:8px; fill:none; " opacity="0" d="M 202,403 L 202,295" onmousedown="segmousedown(&quot;310&quot;,&quot;0&quot;,evt);" onmouseover="segmouseover(&quot;310&quot;,&quot;0&quot;,evt);" onmouseout="segmouseout(&quot;310&quot;,&quot;0&quot;,evt);" onclick="segclick(&quot;310&quot;,&quot;0&quot;,evt);"></path></g></g></g><g id="311"><path style="stroke:#bdbddf; stroke-width:8px; fill:none;" opacity="0.7" d="M 202,403L 295,403"></path><g><path style="stroke:#ff0; stroke-width:8px; fill:none; " opacity="0" d="M 202,403L 295,403"></path></g><path style="stroke:black; fill:none;" d="M 202,403L 295,403"></path><g><g><path style="stroke:#0ff; stroke-width:8px; fill:none; " opacity="0" d="M 202,403 L 295,403" onmousedown="segmousedown(&quot;311&quot;,&quot;0&quot;,evt);" onmouseover="segmouseover(&quot;311&quot;,&quot;0&quot;,evt);" onmouseout="segmouseout(&quot;311&quot;,&quot;0&quot;,evt);" onclick="segclick(&quot;311&quot;,&quot;0&quot;,evt);"></path></g></g></g><g id="312"><path style="stroke:#bdbddf; stroke-width:8px; fill:none;" opacity="0.7" d="M 455,364L 455,467"></path><g><path style="stroke:#ff0; stroke-width:8px; fill:none; " opacity="0" d="M 455,364L 455,467"></path></g><path style="stroke:black; fill:none;" d="M 455,364L 455,467"></path><g><g><path style="stroke:#0ff; stroke-width:8px; fill:none; " opacity="0" d="M 455,364 L 455,467" onmousedown="segmousedown(&quot;312&quot;,&quot;0&quot;,evt);" onmouseover="segmouseover(&quot;312&quot;,&quot;0&quot;,evt);" onmouseout="segmouseout(&quot;312&quot;,&quot;0&quot;,evt);" onclick="segclick(&quot;312&quot;,&quot;0&quot;,evt);"></path></g></g></g><g id="313"><path style="stroke:#bdbddf; stroke-width:8px; fill:none;" opacity="0.7" d="M 455,482 V 499 a 12,12 0 0,0 12,12 H 481 a 12,12 0 0,1 12,12L 493,535"></path><g><path style="stroke:#ff0; stroke-width:8px; fill:none; " opacity="0" d="M 455,482 V 499 a 12,12 0 0,0 12,12 H 481 a 12,12 0 0,1 12,12L 493,535"></path></g><path style="stroke:black; fill:none;" d="M 455,482 V 499 a 12,12 0 0,0 12,12 H 481 a 12,12 0 0,1 12,12L 493,535"></path><g><g><path style="stroke:#0ff; stroke-width:8px; fill:none; " opacity="0" d="M 455,482 L 455,511" onmousedown="segmousedown(&quot;313&quot;,&quot;0&quot;,evt);" onmouseover="segmouseover(&quot;313&quot;,&quot;0&quot;,evt);" onmouseout="segmouseout(&quot;313&quot;,&quot;0&quot;,evt);" onclick="segclick(&quot;313&quot;,&quot;0&quot;,evt);"></path><path style="stroke:#0ff; stroke-width:8px; fill:none; " opacity="0" d="M 455,511 L 493,511" onmousedown="segmousedown(&quot;313&quot;,&quot;1&quot;,evt);" onmouseover="segmouseover(&quot;313&quot;,&quot;1&quot;,evt);" onmouseout="segmouseout(&quot;313&quot;,&quot;1&quot;,evt);" onclick="segclick(&quot;313&quot;,&quot;1&quot;,evt);"></path><path style="stroke:#0ff; stroke-width:8px; fill:none; " opacity="0" d="M 493,511 L 493,535" onmousedown="segmousedown(&quot;313&quot;,&quot;2&quot;,evt);" onmouseover="segmouseover(&quot;313&quot;,&quot;2&quot;,evt);" onmouseout="segmouseout(&quot;313&quot;,&quot;2&quot;,evt);" onclick="segclick(&quot;313&quot;,&quot;2&quot;,evt);"></path></g></g></g><g id="314"><path style="stroke:#bdbddf; stroke-width:8px; fill:none;" opacity="0.7" d="M 440,349L 336,349"></path><g><path style="stroke:#ff0; stroke-width:8px; fill:none; " opacity="0" d="M 440,349L 336,349"></path></g><path style="stroke:black; fill:none;" d="M 440,349L 336,349"></path><g><g><path style="stroke:#0ff; stroke-width:8px; fill:none; " opacity="0" d="M 440,349 L 336,349" onmousedown="segmousedown(&quot;314&quot;,&quot;0&quot;,evt);" onmouseover="segmouseover(&quot;314&quot;,&quot;0&quot;,evt);" onmouseout="segmouseout(&quot;314&quot;,&quot;0&quot;,evt);" onclick="segclick(&quot;314&quot;,&quot;0&quot;,evt);"></path></g></g></g><g id="315"><path style="stroke:#bdbddf; stroke-width:8px; fill:none;" opacity="0.7" d="M 522,286 H 501 a 12,12 0 0,0 -12,12 V 339.5 a 9.5,9.5 0 0,1 -9.5,9.5L 470,349"></path><g><path style="stroke:#ff0; stroke-width:8px; fill:none; " opacity="0" d="M 522,286 H 501 a 12,12 0 0,0 -12,12 V 339.5 a 9.5,9.5 0 0,1 -9.5,9.5L 470,349"></path></g><path style="stroke:black; fill:none;" d="M 522,286 H 501 a 12,12 0 0,0 -12,12 V 339.5 a 9.5,9.5 0 0,1 -9.5,9.5L 470,349"></path><g><g><path style="stroke:#0ff; stroke-width:8px; fill:none; " opacity="0" d="M 522,286 L 489,286" onmousedown="segmousedown(&quot;315&quot;,&quot;0&quot;,evt);" onmouseover="segmouseover(&quot;315&quot;,&quot;0&quot;,evt);" onmouseout="segmouseout(&quot;315&quot;,&quot;0&quot;,evt);" onclick="segclick(&quot;315&quot;,&quot;0&quot;,evt);"></path><path style="stroke:#0ff; stroke-width:8px; fill:none; " opacity="0" d="M 489,286 L 489,349" onmousedown="segmousedown(&quot;315&quot;,&quot;1&quot;,evt);" onmouseover="segmouseover(&quot;315&quot;,&quot;1&quot;,evt);" onmouseout="segmouseout(&quot;315&quot;,&quot;1&quot;,evt);" onclick="segclick(&quot;315&quot;,&quot;1&quot;,evt);"></path><path style="stroke:#0ff; stroke-width:8px; fill:none; " opacity="0" d="M 489,349 L 470,349" onmousedown="segmousedown(&quot;315&quot;,&quot;2&quot;,evt);" onmouseover="segmouseover(&quot;315&quot;,&quot;2&quot;,evt);" onmouseout="segmouseout(&quot;315&quot;,&quot;2&quot;,evt);" onclick="segclick(&quot;315&quot;,&quot;2&quot;,evt);"></path></g></g></g><g id="316"><path style="stroke:#bdbddf; stroke-width:8px; fill:none;" opacity="0.7" d="M 295,418L 295,496"></path><g><path style="stroke:#ff0; stroke-width:8px; fill:none; " opacity="0" d="M 295,418L 295,496"></path></g><path style="stroke:black; fill:none;" d="M 295,418L 295,496"></path><g><g><path style="stroke:#0ff; stroke-width:8px; fill:none; " opacity="0" d="M 295,418 L 295,496" onmousedown="segmousedown(&quot;316&quot;,&quot;0&quot;,evt);" onmouseover="segmouseover(&quot;316&quot;,&quot;0&quot;,evt);" onmouseout="segmouseout(&quot;316&quot;,&quot;0&quot;,evt);" onclick="segclick(&quot;316&quot;,&quot;0&quot;,evt);"></path></g></g></g><g id="317"><path style="stroke:#bdbddf; stroke-width:8px; fill:none;" opacity="0.7" d="M 455,482 V 503 a 12,12 0 0,1 -12,12 H 435 a 10,10 0 0,0 -10,10L 425,535"></path><g><path style="stroke:#ff0; stroke-width:8px; fill:none; " opacity="0" d="M 455,482 V 503 a 12,12 0 0,1 -12,12 H 435 a 10,10 0 0,0 -10,10L 425,535"></path></g><path style="stroke:black; fill:none;" d="M 455,482 V 503 a 12,12 0 0,1 -12,12 H 435 a 10,10 0 0,0 -10,10L 425,535"></path><g><g><path style="stroke:#0ff; stroke-width:8px; fill:none; " opacity="0" d="M 455,482 L 455,515" onmousedown="segmousedown(&quot;317&quot;,&quot;0&quot;,evt);" onmouseover="segmouseover(&quot;317&quot;,&quot;0&quot;,evt);" onmouseout="segmouseout(&quot;317&quot;,&quot;0&quot;,evt);" onclick="segclick(&quot;317&quot;,&quot;0&quot;,evt);"></path><path style="stroke:#0ff; stroke-width:8px; fill:none; " opacity="0" d="M 455,515 L 425,515" onmousedown="segmousedown(&quot;317&quot;,&quot;1&quot;,evt);" onmouseover="segmouseover(&quot;317&quot;,&quot;1&quot;,evt);" onmouseout="segmouseout(&quot;317&quot;,&quot;1&quot;,evt);" onclick="segclick(&quot;317&quot;,&quot;1&quot;,evt);"></path><path style="stroke:#0ff; stroke-width:8px; fill:none; " opacity="0" d="M 425,515 L 425,535" onmousedown="segmousedown(&quot;317&quot;,&quot;2&quot;,evt);" onmouseover="segmouseover(&quot;317&quot;,&quot;2&quot;,evt);" onmouseout="segmouseout(&quot;317&quot;,&quot;2&quot;,evt);" onclick="segclick(&quot;317&quot;,&quot;2&quot;,evt);"></path></g></g></g></g>
  <g id="nodes"><g id="297" onmousedown="nodemousedown(297,evt);" onmouseover="nodemouseover(297,evt);" onmouseout="nodemouseout(297,evt);" transform="translate(202 403)"><rect x="-21" y="-21" width="42" height="42" fill="#0ff" style="stroke:none; opacity:0.75;" display="none"></rect><rect x="-15" y="-15" width="30" height="30" fill="#f0f0d2" style="stroke:black; opacity:1;"></rect></g><g id="302" onmousedown="nodemousedown(302,evt);" onmouseover="nodemouseover(302,evt);" onmouseout="nodemouseout(302,evt);" transform="translate(455 467)"><rect x="-21" y="-21" width="42" height="42" fill="#0ff" style="stroke:none; opacity:0.75;" display="none"></rect><rect x="-15" y="-15" width="30" height="30" fill="#f0f0d2" style="stroke:black; opacity:1;"></rect></g><g id="293" onmousedown="nodemousedown(293,evt);" onmouseover="nodemouseover(293,evt);" onmouseout="nodemouseout(293,evt);" transform="translate(202,280)"><rect x="-21" y="-21" width="42" height="42" fill="#0ff" style="stroke:none; opacity:0.75;" display="none"></rect><rect x="-15" y="-15" width="30" height="30" fill="#f0f0d2" style="stroke:black; opacity:1;"></rect></g><g id="295" onmousedown="nodemousedown(295,evt);" onmouseover="nodemouseover(295,evt);" onmouseout="nodemouseout(295,evt);" transform="translate(202,511)"><rect x="-21" y="-21" width="42" height="42" fill="#0ff" style="stroke:none; opacity:0.75;" display="none"></rect><rect x="-15" y="-15" width="30" height="30" fill="#f0f0d2" style="stroke:black; opacity:1;"></rect></g><g id="296" onmousedown="nodemousedown(296,evt);" onmouseover="nodemouseover(296,evt);" onmouseout="nodemouseout(296,evt);" transform="translate(537,511)"><rect x="-21" y="-21" width="42" height="42" fill="#0ff" style="stroke:none; opacity:0.75;" display="none"></rect><rect x="-15" y="-15" width="30" height="30" fill="#f0f0d2" style="stroke:black; opacity:1;"></rect></g><g id="301" onmousedown="nodemousedown(301,evt);" onmouseover="nodemouseover(301,evt);" onmouseout="nodemouseout(301,evt);" transform="translate(321,349)"><rect x="-21" y="-21" width="42" height="42" fill="#0ff" style="stroke:none; opacity:0.75;" display="none"></rect><rect x="-15" y="-15" width="30" height="30" fill="#f0f0d2" style="stroke:black; opacity:1;"></rect></g><g id="294" onmousedown="nodemousedown(294,evt);" onmouseover="nodemouseover(294,evt);" onmouseout="nodemouseout(294,evt);" transform="translate(537,280)"><rect x="-21" y="-21" width="42" height="42" fill="#0ff" style="stroke:none; opacity:0.75;" display="none"></rect><rect x="-15" y="-15" width="30" height="30" fill="#f0f0d2" style="stroke:black; opacity:1;"></rect></g><g id="300" onmousedown="nodemousedown(300,evt);" onmouseover="nodemouseover(300,evt);" onmouseout="nodemouseout(300,evt);" transform="translate(455,349)"><rect x="-21" y="-21" width="42" height="42" fill="#0ff" style="stroke:none; opacity:0.75;" display="none"></rect><rect x="-15" y="-15" width="30" height="30" fill="#f0f0d2" style="stroke:black; opacity:1;"></rect></g><g id="298" onmousedown="nodemousedown(298,evt);" onmouseover="nodemouseover(298,evt);" onmouseout="nodemouseout(298,evt);" transform="translate(295,403)"><rect x="-21" y="-21" width="42" height="42" fill="#0ff" style="stroke:none; opacity:0.75;" display="none"></rect><rect x="-15" y="-15" width="30" height="30" fill="#f0f0d2" style="stroke:black; opacity:1;"></rect></g><g id="299" onmousedown="nodemousedown(299,evt);" onmouseover="nodemouseover(299,evt);" onmouseout="nodemouseout(299,evt);" transform="translate(294,511)"><rect x="-21" y="-21" width="42" height="42" fill="#0ff" style="stroke:none; opacity:0.75;" display="none"></rect><rect x="-15" y="-15" width="30" height="30" fill="#f0f0d2" style="stroke:black; opacity:1;"></rect></g><g id="303" onmousedown="nodemousedown(303,evt);" onmouseover="nodemouseover(303,evt);" onmouseout="nodemouseout(303,evt);" transform="translate(493,550)"><rect x="-21" y="-21" width="42" height="42" fill="#0ff" style="stroke:none; opacity:0.75;" display="none"></rect><rect x="-15" y="-15" width="30" height="30" fill="#f0f0d2" style="stroke:black; opacity:1;"></rect></g><g id="304" onmousedown="nodemousedown(304,evt);" onmouseover="nodemouseover(304,evt);" onmouseout="nodemouseout(304,evt);" transform="translate(424,550)"><rect x="-21" y="-21" width="42" height="42" fill="#0ff" style="stroke:none; opacity:0.75;" display="none"></rect><rect x="-15" y="-15" width="30" height="30" fill="#f0f0d2" style="stroke:black; opacity:1;"></rect></g></g>
  <g id="BPs"><g onmousedown="bpmousedown(356,evt);" onmouseover="bpmouseover(356,evt);" onmouseout="bpmouseout(356,evt);" transform="translate(489,286)" opacity="0"><ellipse cx="0" cy="0" rx="16" ry="16" fill="#0ff" style="stroke:none; opacity:0.75;" display="none"></ellipse><ellipse cx="0" cy="0" rx="4.7216136328655685" ry="4.7216136328655685" fill="#777" style="stroke:black;"></ellipse></g><g onmousedown="bpmousedown(357,evt);" onmouseover="bpmouseover(357,evt);" onmouseout="bpmouseout(357,evt);" transform="translate(489,349)" opacity="0"><ellipse cx="0" cy="0" rx="16" ry="16" fill="#0ff" style="stroke:none; opacity:0.75;" display="none"></ellipse><ellipse cx="0" cy="0" rx="4.7216136328655685" ry="4.7216136328655685" fill="#777" style="stroke:black;"></ellipse></g><g onmousedown="bpmousedown(373,evt);" onmouseover="bpmouseover(373,evt);" onmouseout="bpmouseout(373,evt);" transform="translate(425,515)" opacity="0"><ellipse cx="0" cy="0" rx="16" ry="16" fill="#0ff" style="stroke:none; opacity:0.75;" display="none"></ellipse><ellipse cx="0" cy="0" rx="4.7216136328655685" ry="4.7216136328655685" fill="#777" style="stroke:black;"></ellipse></g><g onmousedown="bpmousedown(375,evt);" onmouseover="bpmouseover(375,evt);" onmouseout="bpmouseout(375,evt);" transform="translate(455,515)" opacity="0"><ellipse cx="0" cy="0" rx="16" ry="16" fill="#0ff" style="stroke:none; opacity:0.75;" display="none"></ellipse><ellipse cx="0" cy="0" rx="4.7216136328655685" ry="4.7216136328655685" fill="#777" style="stroke:black;"></ellipse></g><g onmousedown="bpmousedown(376,evt);" onmouseover="bpmouseover(376,evt);" onmouseout="bpmouseout(376,evt);" transform="translate(455 511)" opacity="0"><ellipse cx="0" cy="0" rx="16" ry="16" fill="#0ff" style="stroke:none; opacity:0.75;" display="none"></ellipse><ellipse cx="0" cy="0" rx="4.7216136328655685" ry="4.7216136328655685" fill="#777" style="stroke:black;"></ellipse></g><g onmousedown="bpmousedown(377,evt);" onmouseover="bpmouseover(377,evt);" onmouseout="bpmouseout(377,evt);" transform="translate(493,511)" opacity="0"><ellipse cx="0" cy="0" rx="16" ry="16" fill="#0ff" style="stroke:none; opacity:0.75;" display="none"></ellipse><ellipse cx="0" cy="0" rx="4.7216136328655685" ry="4.7216136328655685" fill="#777" style="stroke:black;"></ellipse></g></g>
  <g id="ports"></g>
</g>
</svg>