<svg id="SVGCanvas" width="480px" height="270px" xmlns="http://www.w3.org/2000/svg" xmlns:xlink="http://www.w3.org/1999/xlink" onmouseup="null" onmousemove="null">
<rect id="background" x="0" y="0" height="100%" width="100%" fill="#bdbddf" onmousedown="bgmousedown(evt)"></rect>
<g id="foreground" transform="translate(105.21394611727416,0),scale(0.8557844690966719),translate(-116,-145)">
  <g id="edges"><g id="169"><path style="stroke:#bdbddf; stroke-width:8px; fill:none;" opacity="0.7" d="M 262,334 H 285 a 12,12 0 0,0 12,-12 V 247 a 12,12 0 0,1 12,-12L 386,235"></path><g><path style="stroke:#ff0; stroke-width:8px; fill:none; " opacity="0" d="M 262,334 H 285 a 12,12 0 0,0 12,-12 V 247 a 12,12 0 0,1 12,-12L 386,235"></path></g><path style="stroke:black; fill:none;" d="M 262,334 H 285 a 12,12 0 0,0 12,-12 V 247 a 12,12 0 0,1 12,-12L 386,235"></path><g><g><path style="stroke:#0ff; stroke-width:8px; fill:none; " opacity="0" d="M 262,334 L 297,334" onmousedown="segmousedown(&quot;169&quot;,&quot;0&quot;,evt);" onmouseover="segmouseover(&quot;169&quot;,&quot;0&quot;,evt);" onmouseout="segmouseout(&quot;169&quot;,&quot;0&quot;,evt);" onclick="segclick(&quot;169&quot;,&quot;0&quot;,evt);"></path><path style="stroke:#0ff; stroke-width:8px; fill:none; " opacity="0" d="M 297,334 L 297,235" onmousedown="segmousedown(&quot;169&quot;,&quot;1&quot;,evt);" onmouseover="segmouseover(&quot;169&quot;,&quot;1&quot;,evt);" onmouseout="segmouseout(&quot;169&quot;,&quot;1&quot;,evt);" onclick="segclick(&quot;169&quot;,&quot;1&quot;,evt);"></path><path style="stroke:#0ff; stroke-width:8px; fill:none; " opacity="0" d="M 297,235 L 386,235" onmousedown="segmousedown(&quot;169&quot;,&quot;2&quot;,evt);" onmouseover="segmouseover(&quot;169&quot;,&quot;2&quot;,evt);" onmouseout="segmouseout(&quot;169&quot;,&quot;2&quot;,evt);" onclick="segclick(&quot;169&quot;,&quot;2&quot;,evt);"></path></g></g></g><g id="170"><path style="stroke:#bdbddf; stroke-width:8px; fill:none;" opacity="0.7" d="M 401,220 V 187 a 12,12 0 0,0 -12,-12L 260,175"></path><g><path style="stroke:#ff0; stroke-width:8px; fill:none; " opacity="0" d="M 401,220 V 187 a 12,12 0 0,0 -12,-12L 260,175"></path></g><path style="stroke:black; fill:none;" d="M 401,220 V 187 a 12,12 0 0,0 -12,-12L 260,175"></path><g><g><path style="stroke:#0ff; stroke-width:8px; fill:none; " opacity="0" d="M 401,220 L 401,175" onmousedown="segmousedown(&quot;170&quot;,&quot;0&quot;,evt);" onmouseover="segmouseover(&quot;170&quot;,&quot;0&quot;,evt);" onmouseout="segmouseout(&quot;170&quot;,&quot;0&quot;,evt);" onclick="segclick(&quot;170&quot;,&quot;0&quot;,evt);"></path><path style="stroke:#0ff; stroke-width:8px; fill:none; " opacity="0" d="M 401,175 L 260,175" onmousedown="segmousedown(&quot;170&quot;,&quot;1&quot;,evt);" onmouseover="segmouseover(&quot;170&quot;,&quot;1&quot;,evt);" onmouseout="segmouseout(&quot;170&quot;,&quot;1&quot;,evt);" onclick="segclick(&quot;170&quot;,&quot;1&quot;,evt);"></path></g></g></g><g id="171"><path style="stroke:#bdbddf; stroke-width:8px; fill:none;" opacity="0.7" d="M 210,175 H 198 a 12,12 0 0,0 -12,12L 186,398.5"></path><g><path style="stroke:#ff0; stroke-width:8px; fill:none; " opacity="0" d="M 210,175 H 198 a 12,12 0 0,0 -12,12L 186,398.5"></path></g><path style="stroke:black; fill:none;" d="M 210,175 H 198 a 12,12 0 0,0 -12,12L 186,398.5"></path><g><g><path style="stroke:#0ff; stroke-width:8px; fill:none; " opacity="0" d="M 210,175 L 186,175" onmousedown="segmousedown(&quot;171&quot;,&quot;0&quot;,evt);" onmouseover="segmouseover(&quot;171&quot;,&quot;0&quot;,evt);" onmouseout="segmouseout(&quot;171&quot;,&quot;0&quot;,evt);" onclick="segclick(&quot;171&quot;,&quot;0&quot;,evt);"></path><path style="stroke:#0ff; stroke-width:8px; fill:none; " opacity="0" d="M 186,175 L 186,398.5" onmousedown="segmousedown(&quot;171&quot;,&quot;1&quot;,evt);" onmouseover="segmouseover(&quot;171&quot;,&quot;1&quot;,evt);" onmouseout="segmouseout(&quot;171&quot;,&quot;1&quot;,evt);" onclick="segclick(&quot;171&quot;,&quot;1&quot;,evt);"></path></g></g></g><g id="172"><path style="stroke:#bdbddf; stroke-width:8px; fill:none;" opacity="0.7" d="M 201,422 H 389 a 12,12 0 0,0 12,-12L 401,250"></path><g><path style="stroke:#ff0; stroke-width:8px; fill:none; " opacity="0" d="M 201,422 H 389 a 12,12 0 0,0 12,-12L 401,250"></path></g><path style="stroke:black; fill:none;" d="M 201,422 H 389 a 12,12 0 0,0 12,-12L 401,250"></path><g><g><path style="stroke:#0ff; stroke-width:8px; fill:none; " opacity="0" d="M 201,422 L 401,422" onmousedown="segmousedown(&quot;172&quot;,&quot;0&quot;,evt);" onmouseover="segmouseover(&quot;172&quot;,&quot;0&quot;,evt);" onmouseout="segmouseout(&quot;172&quot;,&quot;0&quot;,evt);" onclick="segclick(&quot;172&quot;,&quot;0&quot;,evt);"></path><path style="stroke:#0ff; stroke-width:8px; fill:none; " opacity="0" d="M 401,422 L 401,250" onmousedown="segmousedown(&quot;172&quot;,&quot;1&quot;,evt);" onmouseover="segmouseover(&quot;172&quot;,&quot;1&quot;,evt);" onmouseout="segmouseout(&quot;172&quot;,&quot;1&quot;,evt);" onclick="segclick(&quot;172&quot;,&quot;1&quot;,evt);"></path></g></g></g><g id="173"><path style="stroke:#bdbddf; stroke-width:8px; fill:none;" opacity="0.7" d="M 247,190L 247,319"></path><g><path style="stroke:#ff0; stroke-width:8px; fill:none; " opacity="0" d="M 247,190L 247,319"></path></g><path style="stroke:black; fill:none;" d="M 247,190L 247,319"></path><g><g><path style="stroke:#0ff; stroke-width:8px; fill:none; " opacity="0" d="M 247,190 L 247,319" onmousedown="segmousedown(&quot;173&quot;,&quot;0&quot;,evt);" onmouseover="segmouseover(&quot;173&quot;,&quot;0&quot;,evt);" onmouseout="segmouseout(&quot;173&quot;,&quot;0&quot;,evt);" onclick="segclick(&quot;173&quot;,&quot;0&quot;,evt);"></path></g></g></g><g id="174"><path style="stroke:#bdbddf; stroke-width:8px; fill:none;" opacity="0.7" d="M 232,334 H 153 a 12,12 0 0,0 -12,12 V 410 a 12,12 0 0,0 12,12L 171,422"></path><g><path style="stroke:#ff0; stroke-width:8px; fill:none; " opacity="0" d="M 232,334 H 153 a 12,12 0 0,0 -12,12 V 410 a 12,12 0 0,0 12,12L 171,422"></path></g><path style="stroke:black; fill:none;" d="M 232,334 H 153 a 12,12 0 0,0 -12,12 V 410 a 12,12 0 0,0 12,12L 171,422"></path><g><g><path style="stroke:#0ff; stroke-width:8px; fill:none; " opacity="0" d="M 232,334 L 141,334" onmousedown="segmousedown(&quot;174&quot;,&quot;0&quot;,evt);" onmouseover="segmouseover(&quot;174&quot;,&quot;0&quot;,evt);" onmouseout="segmouseout(&quot;174&quot;,&quot;0&quot;,evt);" onclick="segclick(&quot;174&quot;,&quot;0&quot;,evt);"></path><path style="stroke:#0ff; stroke-width:8px; fill:none; " opacity="0" d="M 141,334 L 141,422" onmousedown="segmousedown(&quot;174&quot;,&quot;1&quot;,evt);" onmouseover="segmouseover(&quot;174&quot;,&quot;1&quot;,evt);" onmouseout="segmouseout(&quot;174&quot;,&quot;1&quot;,evt);" onclick="segclick(&quot;174&quot;,&quot;1&quot;,evt);"></path><path style="stroke:#0ff; stroke-width:8px; fill:none; " opacity="0" d="M 141,422 L 171,422" onmousedown="segmousedown(&quot;174&quot;,&quot;2&quot;,evt);" onmouseover="segmouseover(&quot;174&quot;,&quot;2&quot;,evt);" onmouseout="segmouseout(&quot;174&quot;,&quot;2&quot;,evt);" onclick="segclick(&quot;174&quot;,&quot;2&quot;,evt);"></path></g></g></g></g>
  <g id="nodes"><g id="165" onmousedown="nodemousedown(165,evt);" onmouseover="nodemouseover(165,evt);" onmouseout="nodemouseout(165,evt);" transform="translate(235,175)"><rect x="-31" y="-21" width="62" height="42" fill="#0ff" style="stroke:none; opacity:0.75;" display="none"></rect><rect x="-25" y="-15" width="50" height="30" fill="#f0f0d2" style="stroke:black; opacity:1;"></rect></g><g id="167" onmousedown="nodemousedown(167,evt);" onmouseover="nodemouseover(167,evt);" onmouseout="nodemouseout(167,evt);" transform="translate(401,235)"><rect x="-21" y="-21" width="42" height="42" fill="#0ff" style="stroke:none; opacity:0.75;" display="none"></rect><rect x="-15" y="-15" width="30" height="30" fill="#f0f0d2" style="stroke:black; opacity:1;"></rect></g><g id="168" onmousedown="nodemousedown(168,evt);" onmouseover="nodemouseover(168,evt);" onmouseout="nodemouseout(168,evt);" transform="translate(247,334)"><rect x="-21" y="-21" width="42" height="42" fill="#0ff" style="stroke:none; opacity:0.75;" display="none"></rect><rect x="-15" y="-15" width="30" height="30" fill="#f0f0d2" style="stroke:black; opacity:1;"></rect></g><g id="166" onmousedown="nodemousedown(166,evt);" onmouseover="nodemouseover(166,evt);" onmouseout="nodemouseout(166,evt);" transform="translate(186,422)"><rect x="-21" y="-29.5" width="42" height="59" fill="#0ff" style="stroke:none; opacity:0.75;" display="none"></rect><rect x="-15" y="-23.5" width="30" height="47" fill="#f0f0d2" style="stroke:black; opacity:1;"></rect></g></g>
  <g id="BPs"><g onmousedown="bpmousedown(177,evt);" onmouseover="bpmouseover(177,evt);" onmouseout="bpmouseout(177,evt);" transform="translate(297,334)" opacity="0"><ellipse cx="0" cy="0" rx="16" ry="16" fill="#0ff" style="stroke:none; opacity:0.75;" display="none"></ellipse><ellipse cx="0" cy="0" rx="4.7216136328655685" ry="4.7216136328655685" fill="#777" style="stroke:black;"></ellipse></g><g onmousedown="bpmousedown(178,evt);" onmouseover="bpmouseover(178,evt);" onmouseout="bpmouseout(178,evt);" transform="translate(297,235)" opacity="0"><ellipse cx="0" cy="0" rx="16" ry="16" fill="#0ff" style="stroke:none; opacity:0.75;" display="none"></ellipse><ellipse cx="0" cy="0" rx="4.7216136328655685" ry="4.7216136328655685" fill="#777" style="stroke:black;"></ellipse></g><g onmousedown="bpmousedown(181,evt);" onmouseover="bpmouseover(181,evt);" onmouseout="bpmouseout(181,evt);" transform="translate(401,175)" opacity="0"><ellipse cx="0" cy="0" rx="16" ry="16" fill="#0ff" style="stroke:none; opacity:0.75;" display="none"></ellipse><ellipse cx="0" cy="0" rx="4.7216136328655685" ry="4.7216136328655685" fill="#777" style="stroke:black;"></ellipse></g><g onmousedown="bpmousedown(191,evt);" onmouseover="bpmouseover(191,evt);" onmouseout="bpmouseout(191,evt);" transform="translate(401,422)" opacity="0"><ellipse cx="0" cy="0" rx="16" ry="16" fill="#0ff" style="stroke:none; opacity:0.75;" display="none"></ellipse><ellipse cx="0" cy="0" rx="4.7216136328655685" ry="4.7216136328655685" fill="#777" style="stroke:black;"></ellipse></g><g onmousedown="bpmousedown(198,evt);" onmouseover="bpmouseover(198,evt);" onmouseout="bpmouseout(198,evt);" transform="translate(141,334)" opacity="0"><ellipse cx="0" cy="0" rx="16" ry="16" fill="#0ff" style="stroke:none; opacity:0.75;" display="none"></ellipse><ellipse cx="0" cy="0" rx="4.7216136328655685" ry="4.7216136328655685" fill="#777" style="stroke:black;"></ellipse></g><g onmousedown="bpmousedown(199,evt);" onmouseover="bpmouseover(199,evt);" onmouseout="bpmouseout(199,evt);" transform="translate(141,422)" opacity="0"><ellipse cx="0" cy="0" rx="16" ry="16" fill="#0ff" style="stroke:none; opacity:0.75;" display="none"></ellipse><ellipse cx="0" cy="0" rx="4.7216136328655685" ry="4.7216136328655685" fill="#777" style="stroke:black;"></ellipse></g><g onmousedown="bpmousedown(200,evt);" onmouseover="bpmouseover(200,evt);" onmouseout="bpmouseout(200,evt);" transform="translate(186,175)" opacity="0"><ellipse cx="0" cy="0" rx="16" ry="16" fill="#0ff" style="stroke:none; opacity:0.75;" display="none"></ellipse><ellipse cx="0" cy="0" rx="4.7216136328655685" ry="4.7216136328655685" fill="#777" style="stroke:black;"></ellipse></g></g>
  <g id="ports"></g>
</g>
</svg>