<svg id="SVGCanvas" width="480px" height="270px" xmlns="http://www.w3.org/2000/svg" xmlns:xlink="http://www.w3.org/1999/xlink" onmouseup="null" onmousemove="null">
<rect id="background" x="0" y="0" height="100%" width="100%" fill="#bdbddf" onmousedown="bgmousedown(evt)"></rect>
<g id="foreground" transform="translate(106.50837988826814,0),scale(0.7541899441340782),translate(-178,-203)">
  <g id="edges"><g id="184"><path style="stroke:#bdbddf; stroke-width:8px; fill:none;" opacity="0.7" d="M 311,405L 409,405"></path><g><path style="stroke:#ff0; stroke-width:8px; fill:none; " opacity="0" d="M 311,405L 409,405"></path></g><path style="stroke:black; fill:none;" d="M 311,405L 409,405"></path><g><g><path style="stroke:#0ff; stroke-width:8px; fill:none; " opacity="0" d="M 311,405 L 409,405" onmousedown="segmousedown(&quot;184&quot;,&quot;0&quot;,evt);" onmouseover="segmouseover(&quot;184&quot;,&quot;0&quot;,evt);" onmouseout="segmouseout(&quot;184&quot;,&quot;0&quot;,evt);" onclick="segclick(&quot;184&quot;,&quot;0&quot;,evt);"></path></g></g></g><g id="185"><path style="stroke:#bdbddf; stroke-width:8px; fill:none;" opacity="0.7" d="M 424,390 V 385.5 a 4.5,4.5 0 0,1 4.5,-4.5 H 494.5 a 7.5,7.5 0 0,0 7.5,-7.5L 502,366"></path><g><path style="stroke:#ff0; stroke-width:8px; fill:none; " opacity="0" d="M 424,390 V 385.5 a 4.5,4.5 0 0,1 4.5,-4.5 H 494.5 a 7.5,7.5 0 0,0 7.5,-7.5L 502,366"></path></g><path style="stroke:black; fill:none;" d="M 424,390 V 385.5 a 4.5,4.5 0 0,1 4.5,-4.5 H 494.5 a 7.5,7.5 0 0,0 7.5,-7.5L 502,366"></path><g><g><path style="stroke:#0ff; stroke-width:8px; fill:none; " opacity="0" d="M 424,390 L 424,381" onmousedown="segmousedown(&quot;185&quot;,&quot;0&quot;,evt);" onmouseover="segmouseover(&quot;185&quot;,&quot;0&quot;,evt);" onmouseout="segmouseout(&quot;185&quot;,&quot;0&quot;,evt);" onclick="segclick(&quot;185&quot;,&quot;0&quot;,evt);"></path><path style="stroke:#0ff; stroke-width:8px; fill:none; " opacity="0" d="M 424,381 L 502,381" onmousedown="segmousedown(&quot;185&quot;,&quot;1&quot;,evt);" onmouseover="segmouseover(&quot;185&quot;,&quot;1&quot;,evt);" onmouseout="segmouseout(&quot;185&quot;,&quot;1&quot;,evt);" onclick="segclick(&quot;185&quot;,&quot;1&quot;,evt);"></path><path style="stroke:#0ff; stroke-width:8px; fill:none; " opacity="0" d="M 502,381 L 502,366" onmousedown="segmousedown(&quot;185&quot;,&quot;2&quot;,evt);" onmouseover="segmouseover(&quot;185&quot;,&quot;2&quot;,evt);" onmouseout="segmouseout(&quot;185&quot;,&quot;2&quot;,evt);" onclick="segclick(&quot;185&quot;,&quot;2&quot;,evt);"></path></g></g></g><g id="186"><path style="stroke:#bdbddf; stroke-width:8px; fill:none;" opacity="0.7" d="M 502,336 V 325.5 a 10.5,10.5 0 0,0 -10.5,-10.5 H 443 a 12,12 0 0,1 -12,-12L 431,248"></path><g><path style="stroke:#ff0; stroke-width:8px; fill:none; " opacity="0" d="M 502,336 V 325.5 a 10.5,10.5 0 0,0 -10.5,-10.5 H 443 a 12,12 0 0,1 -12,-12L 431,248"></path></g><path style="stroke:black; fill:none;" d="M 502,336 V 325.5 a 10.5,10.5 0 0,0 -10.5,-10.5 H 443 a 12,12 0 0,1 -12,-12L 431,248"></path><g><g><path style="stroke:#0ff; stroke-width:8px; fill:none; " opacity="0" d="M 502,336 L 502,315" onmousedown="segmousedown(&quot;186&quot;,&quot;0&quot;,evt);" onmouseover="segmouseover(&quot;186&quot;,&quot;0&quot;,evt);" onmouseout="segmouseout(&quot;186&quot;,&quot;0&quot;,evt);" onclick="segclick(&quot;186&quot;,&quot;0&quot;,evt);"></path><path style="stroke:#0ff; stroke-width:8px; fill:none; " opacity="0" d="M 502,315 L 431,315" onmousedown="segmousedown(&quot;186&quot;,&quot;1&quot;,evt);" onmouseover="segmouseover(&quot;186&quot;,&quot;1&quot;,evt);" onmouseout="segmouseout(&quot;186&quot;,&quot;1&quot;,evt);" onclick="segclick(&quot;186&quot;,&quot;1&quot;,evt);"></path><path style="stroke:#0ff; stroke-width:8px; fill:none; " opacity="0" d="M 431,315 L 431,248" onmousedown="segmousedown(&quot;186&quot;,&quot;2&quot;,evt);" onmouseover="segmouseover(&quot;186&quot;,&quot;2&quot;,evt);" onmouseout="segmouseout(&quot;186&quot;,&quot;2&quot;,evt);" onclick="segclick(&quot;186&quot;,&quot;2&quot;,evt);"></path></g></g></g><g id="187"><path style="stroke:#bdbddf; stroke-width:8px; fill:none;" opacity="0.7" d="M 281,405L 223,405"></path><g><path style="stroke:#ff0; stroke-width:8px; fill:none; " opacity="0" d="M 281,405L 223,405"></path></g><path style="stroke:black; fill:none;" d="M 281,405L 223,405"></path><g><g><path style="stroke:#0ff; stroke-width:8px; fill:none; " opacity="0" d="M 281,405 L 223,405" onmousedown="segmousedown(&quot;187&quot;,&quot;0&quot;,evt);" onmouseover="segmouseover(&quot;187&quot;,&quot;0&quot;,evt);" onmouseout="segmouseout(&quot;187&quot;,&quot;0&quot;,evt);" onclick="segclick(&quot;187&quot;,&quot;0&quot;,evt);"></path></g></g></g><g id="188"><path style="stroke:#bdbddf; stroke-width:8px; fill:none;" opacity="0.7" d="M 424,516L 424,420"></path><g><path style="stroke:#ff0; stroke-width:8px; fill:none; " opacity="0" d="M 424,516L 424,420"></path></g><path style="stroke:black; fill:none;" d="M 424,516L 424,420"></path><g><g><path style="stroke:#0ff; stroke-width:8px; fill:none; " opacity="0" d="M 424,516 L 424,420" onmousedown="segmousedown(&quot;188&quot;,&quot;0&quot;,evt);" onmouseover="segmouseover(&quot;188&quot;,&quot;0&quot;,evt);" onmouseout="segmouseout(&quot;188&quot;,&quot;0&quot;,evt);" onclick="segclick(&quot;188&quot;,&quot;0&quot;,evt);"></path></g></g></g><g id="189"><path style="stroke:#bdbddf; stroke-width:8px; fill:none;" opacity="0.7" d="M 431,248 V 304 a 12,12 0 0,1 -12,12L 356,316"></path><g><path style="stroke:#ff0; stroke-width:8px; fill:none; " opacity="0" d="M 431,248 V 304 a 12,12 0 0,1 -12,12L 356,316"></path></g><path style="stroke:black; fill:none;" d="M 431,248 V 304 a 12,12 0 0,1 -12,12L 356,316"></path><g><g><path style="stroke:#0ff; stroke-width:8px; fill:none; " opacity="0" d="M 431,248 L 431,316" onmousedown="segmousedown(&quot;189&quot;,&quot;0&quot;,evt);" onmouseover="segmouseover(&quot;189&quot;,&quot;0&quot;,evt);" onmouseout="segmouseout(&quot;189&quot;,&quot;0&quot;,evt);" onclick="segclick(&quot;189&quot;,&quot;0&quot;,evt);"></path><path style="stroke:#0ff; stroke-width:8px; fill:none; " opacity="0" d="M 431,316 L 356,316" onmousedown="segmousedown(&quot;189&quot;,&quot;1&quot;,evt);" onmouseover="segmouseover(&quot;189&quot;,&quot;1&quot;,evt);" onmouseout="segmouseout(&quot;189&quot;,&quot;1&quot;,evt);" onclick="segclick(&quot;189&quot;,&quot;1&quot;,evt);"></path></g></g></g><g id="190"><path style="stroke:#bdbddf; stroke-width:8px; fill:none;" opacity="0.7" d="M 341,331 V 333 a 2,2 0 0,1 -2,2 H 308 a 12,12 0 0,0 -12,12L 296,390"></path><g><path style="stroke:#ff0; stroke-width:8px; fill:none; " opacity="0" d="M 341,331 V 333 a 2,2 0 0,1 -2,2 H 308 a 12,12 0 0,0 -12,12L 296,390"></path></g><path style="stroke:black; fill:none;" d="M 341,331 V 333 a 2,2 0 0,1 -2,2 H 308 a 12,12 0 0,0 -12,12L 296,390"></path><g><g><path style="stroke:#0ff; stroke-width:8px; fill:none; " opacity="0" d="M 341,331 L 341,335" onmousedown="segmousedown(&quot;190&quot;,&quot;0&quot;,evt);" onmouseover="segmouseover(&quot;190&quot;,&quot;0&quot;,evt);" onmouseout="segmouseout(&quot;190&quot;,&quot;0&quot;,evt);" onclick="segclick(&quot;190&quot;,&quot;0&quot;,evt);"></path><path style="stroke:#0ff; stroke-width:8px; fill:none; " opacity="0" d="M 341,335 L 296,335" onmousedown="segmousedown(&quot;190&quot;,&quot;1&quot;,evt);" onmouseover="segmouseover(&quot;190&quot;,&quot;1&quot;,evt);" onmouseout="segmouseout(&quot;190&quot;,&quot;1&quot;,evt);" onclick="segclick(&quot;190&quot;,&quot;1&quot;,evt);"></path><path style="stroke:#0ff; stroke-width:8px; fill:none; " opacity="0" d="M 296,335 L 296,390" onmousedown="segmousedown(&quot;190&quot;,&quot;2&quot;,evt);" onmouseover="segmouseover(&quot;190&quot;,&quot;2&quot;,evt);" onmouseout="segmouseout(&quot;190&quot;,&quot;2&quot;,evt);" onclick="segclick(&quot;190&quot;,&quot;2&quot;,evt);"></path></g></g></g><g id="191"><path style="stroke:#bdbddf; stroke-width:8px; fill:none;" opacity="0.7" d="M 326,316 H 265 a 12,12 0 0,1 -12,-12 V 252 a 12,12 0 0,0 -12,-12L 223,240"></path><g><path style="stroke:#ff0; stroke-width:8px; fill:none; " opacity="0" d="M 326,316 H 265 a 12,12 0 0,1 -12,-12 V 252 a 12,12 0 0,0 -12,-12L 223,240"></path></g><path style="stroke:black; fill:none;" d="M 326,316 H 265 a 12,12 0 0,1 -12,-12 V 252 a 12,12 0 0,0 -12,-12L 223,240"></path><g><g><path style="stroke:#0ff; stroke-width:8px; fill:none; " opacity="0" d="M 326,316 L 253,316" onmousedown="segmousedown(&quot;191&quot;,&quot;0&quot;,evt);" onmouseover="segmouseover(&quot;191&quot;,&quot;0&quot;,evt);" onmouseout="segmouseout(&quot;191&quot;,&quot;0&quot;,evt);" onclick="segclick(&quot;191&quot;,&quot;0&quot;,evt);"></path><path style="stroke:#0ff; stroke-width:8px; fill:none; " opacity="0" d="M 253,316 L 253,240" onmousedown="segmousedown(&quot;191&quot;,&quot;1&quot;,evt);" onmouseover="segmouseover(&quot;191&quot;,&quot;1&quot;,evt);" onmouseout="segmouseout(&quot;191&quot;,&quot;1&quot;,evt);" onclick="segclick(&quot;191&quot;,&quot;1&quot;,evt);"></path><path style="stroke:#0ff; stroke-width:8px; fill:none; " opacity="0" d="M 253,240 L 223,240" onmousedown="segmousedown(&quot;191&quot;,&quot;2&quot;,evt);" onmouseover="segmouseover(&quot;191&quot;,&quot;2&quot;,evt);" onmouseout="segmouseout(&quot;191&quot;,&quot;2&quot;,evt);" onclick="segclick(&quot;191&quot;,&quot;2&quot;,evt);"></path></g></g></g><g id="192"><path style="stroke:#bdbddf; stroke-width:8px; fill:none;" opacity="0.7" d="M 208,255L 208,390"></path><g><path style="stroke:#ff0; stroke-width:8px; fill:none; " opacity="0" d="M 208,255L 208,390"></path></g><path style="stroke:black; fill:none;" d="M 208,255L 208,390"></path><g><g><path style="stroke:#0ff; stroke-width:8px; fill:none; " opacity="0" d="M 208,255 L 208,390" onmousedown="segmousedown(&quot;192&quot;,&quot;0&quot;,evt);" onmouseover="segmouseover(&quot;192&quot;,&quot;0&quot;,evt);" onmouseout="segmouseout(&quot;192&quot;,&quot;0&quot;,evt);" onclick="segclick(&quot;192&quot;,&quot;0&quot;,evt);"></path></g></g></g><g id="193"><path style="stroke:#bdbddf; stroke-width:8px; fill:none;" opacity="0.7" d="M 296,405L 296,518"></path><g><path style="stroke:#ff0; stroke-width:8px; fill:none; " opacity="0" d="M 296,405L 296,518"></path></g><path style="stroke:black; fill:none;" d="M 296,405L 296,518"></path><g><g><path style="stroke:#0ff; stroke-width:8px; fill:none; " opacity="0" d="M 296,405 L 296,518" onmousedown="segmousedown(&quot;193&quot;,&quot;0&quot;,evt);" onmouseover="segmouseover(&quot;193&quot;,&quot;0&quot;,evt);" onmouseout="segmouseout(&quot;193&quot;,&quot;0&quot;,evt);" onclick="segclick(&quot;193&quot;,&quot;0&quot;,evt);"></path></g></g></g></g>
  <g id="nodes"><g id="183" onmousedown="nodemousedown(183,evt);" onmouseover="nodemouseover(183,evt);" onmouseout="nodemouseout(183,evt);" transform="translate(296 518)"><rect x="-21" y="-21" width="42" height="42" fill="#0ff" style="stroke:none; opacity:0.75;" display="none"></rect><rect x="-15" y="-15" width="30" height="30" fill="#f0f0d2" style="stroke:black; opacity:1;"></rect></g><g id="175" onmousedown="nodemousedown(175,evt);" onmouseover="nodemouseover(175,evt);" onmouseout="nodemouseout(175,evt);" transform="translate(296,405)"><rect x="-21" y="-21" width="42" height="42" fill="#0ff" style="stroke:none; opacity:0.75;" display="none"></rect><rect x="-15" y="-15" width="30" height="30" fill="#f0f0d2" style="stroke:black; opacity:1;"></rect></g><g id="176" onmousedown="nodemousedown(176,evt);" onmouseover="nodemouseover(176,evt);" onmouseout="nodemouseout(176,evt);" transform="translate(424,405)"><rect x="-21" y="-21" width="42" height="42" fill="#0ff" style="stroke:none; opacity:0.75;" display="none"></rect><rect x="-15" y="-15" width="30" height="30" fill="#f0f0d2" style="stroke:black; opacity:1;"></rect></g><g id="182" onmousedown="nodemousedown(182,evt);" onmouseover="nodemouseover(182,evt);" onmouseout="nodemouseout(182,evt);" transform="translate(424,531)"><rect x="-21" y="-21" width="42" height="42" fill="#0ff" style="stroke:none; opacity:0.75;" display="none"></rect><rect x="-15" y="-15" width="30" height="30" fill="#f0f0d2" style="stroke:black; opacity:1;"></rect></g><g id="180" onmousedown="nodemousedown(180,evt);" onmouseover="nodemouseover(180,evt);" onmouseout="nodemouseout(180,evt);" transform="translate(341,316)"><rect x="-21" y="-21" width="42" height="42" fill="#0ff" style="stroke:none; opacity:0.75;" display="none"></rect><rect x="-15" y="-15" width="30" height="30" fill="#f0f0d2" style="stroke:black; opacity:1;"></rect></g><g id="177" onmousedown="nodemousedown(177,evt);" onmouseover="nodemouseover(177,evt);" onmouseout="nodemouseout(177,evt);" transform="translate(502,351)"><rect x="-21" y="-21" width="42" height="42" fill="#0ff" style="stroke:none; opacity:0.75;" display="none"></rect><rect x="-15" y="-15" width="30" height="30" fill="#f0f0d2" style="stroke:black; opacity:1;"></rect></g><g id="178" onmousedown="nodemousedown(178,evt);" onmouseover="nodemouseover(178,evt);" onmouseout="nodemouseout(178,evt);" transform="translate(431,233)"><rect x="-21" y="-21" width="42" height="42" fill="#0ff" style="stroke:none; opacity:0.75;" display="none"></rect><rect x="-15" y="-15" width="30" height="30" fill="#f0f0d2" style="stroke:black; opacity:1;"></rect></g><g id="181" onmousedown="nodemousedown(181,evt);" onmouseover="nodemouseover(181,evt);" onmouseout="nodemouseout(181,evt);" transform="translate(208,240)"><rect x="-21" y="-21" width="42" height="42" fill="#0ff" style="stroke:none; opacity:0.75;" display="none"></rect><rect x="-15" y="-15" width="30" height="30" fill="#f0f0d2" style="stroke:black; opacity:1;"></rect></g><g id="179" onmousedown="nodemousedown(179,evt);" onmouseover="nodemouseover(179,evt);" onmouseout="nodemouseout(179,evt);" transform="translate(208,405)"><rect x="-21" y="-21" width="42" height="42" fill="#0ff" style="stroke:none; opacity:0.75;" display="none"></rect><rect x="-15" y="-15" width="30" height="30" fill="#f0f0d2" style="stroke:black; opacity:1;"></rect></g></g>
  <g id="BPs"><g onmousedown="bpmousedown(200,evt);" onmouseover="bpmouseover(200,evt);" onmouseout="bpmouseout(200,evt);" transform="translate(424,381)" opacity="0"><ellipse cx="0" cy="0" rx="16" ry="16" fill="#0ff" style="stroke:none; opacity:0.75;" display="none"></ellipse><ellipse cx="0" cy="0" rx="5.132188731375618" ry="5.132188731375618" fill="#777" style="stroke:black;"></ellipse></g><g onmousedown="bpmousedown(201,evt);" onmouseover="bpmouseover(201,evt);" onmouseout="bpmouseout(201,evt);" transform="translate(502,381)" opacity="0"><ellipse cx="0" cy="0" rx="16" ry="16" fill="#0ff" style="stroke:none; opacity:0.75;" display="none"></ellipse><ellipse cx="0" cy="0" rx="5.132188731375618" ry="5.132188731375618" fill="#777" style="stroke:black;"></ellipse></g><g onmousedown="bpmousedown(204,evt);" onmouseover="bpmouseover(204,evt);" onmouseout="bpmouseout(204,evt);" transform="translate(502,315)" opacity="0"><ellipse cx="0" cy="0" rx="16" ry="16" fill="#0ff" style="stroke:none; opacity:0.75;" display="none"></ellipse><ellipse cx="0" cy="0" rx="5.132188731375618" ry="5.132188731375618" fill="#777" style="stroke:black;"></ellipse></g><g onmousedown="bpmousedown(205,evt);" onmouseover="bpmouseover(205,evt);" onmouseout="bpmouseout(205,evt);" transform="translate(431,315)" opacity="0"><ellipse cx="0" cy="0" rx="16" ry="16" fill="#0ff" style="stroke:none; opacity:0.75;" display="none"></ellipse><ellipse cx="0" cy="0" rx="5.132188731375618" ry="5.132188731375618" fill="#777" style="stroke:black;"></ellipse></g><g onmousedown="bpmousedown(218,evt);" onmouseover="bpmouseover(218,evt);" onmouseout="bpmouseout(218,evt);" transform="translate(341,335)" opacity="0"><ellipse cx="0" cy="0" rx="16" ry="16" fill="#0ff" style="stroke:none; opacity:0.75;" display="none"></ellipse><ellipse cx="0" cy="0" rx="5.132188731375618" ry="5.132188731375618" fill="#777" style="stroke:black;"></ellipse></g><g onmousedown="bpmousedown(219,evt);" onmouseover="bpmouseover(219,evt);" onmouseout="bpmouseout(219,evt);" transform="translate(296 335)" opacity="0"><ellipse cx="0" cy="0" rx="16" ry="16" fill="#0ff" style="stroke:none; opacity:0.75;" display="none"></ellipse><ellipse cx="0" cy="0" rx="5.132188731375618" ry="5.132188731375618" fill="#777" style="stroke:black;"></ellipse></g><g onmousedown="bpmousedown(222,evt);" onmouseover="bpmouseover(222,evt);" onmouseout="bpmouseout(222,evt);" transform="translate(253,316)" opacity="0"><ellipse cx="0" cy="0" rx="16" ry="16" fill="#0ff" style="stroke:none; opacity:0.75;" display="none"></ellipse><ellipse cx="0" cy="0" rx="5.132188731375618" ry="5.132188731375618" fill="#777" style="stroke:black;"></ellipse></g><g onmousedown="bpmousedown(223,evt);" onmouseover="bpmouseover(223,evt);" onmouseout="bpmouseout(223,evt);" transform="translate(253,240)" opacity="0"><ellipse cx="0" cy="0" rx="16" ry="16" fill="#0ff" style="stroke:none; opacity:0.75;" display="none"></ellipse><ellipse cx="0" cy="0" rx="5.132188731375618" ry="5.132188731375618" fill="#777" style="stroke:black;"></ellipse></g><g onmousedown="bpmousedown(232,evt);" onmouseover="bpmouseover(232,evt);" onmouseout="bpmouseout(232,evt);" transform="translate(431,316)" opacity="0"><ellipse cx="0" cy="0" rx="16" ry="16" fill="#0ff" style="stroke:none; opacity:0.75;" display="none"></ellipse><ellipse cx="0" cy="0" rx="5.132188731375618" ry="5.132188731375618" fill="#777" style="stroke:black;"></ellipse></g></g>
  <g id="ports"></g>
</g>
</svg>