<svg id="SVGCanvas" width="480px" height="270px" xmlns="http://www.w3.org/2000/svg" xmlns:xlink="http://www.w3.org/1999/xlink" onmouseup="null" onmousemove="null">
<rect id="background" x="0" y="0" height="100%" width="100%" fill="#bdbddf" onmousedown="bgmousedown(evt)"></rect>
<g id="foreground" transform="translate(80.1219512195122,0),scale(0.7317073170731707),translate(-33,-1)">
  <g id="edges"><g id="241"><path style="stroke:#bdbddf; stroke-width:8px; fill:none;" opacity="0.7" d="M 211,340L 404,340"></path><g><path style="stroke:#ff0; stroke-width:8px; fill:none; " opacity="0" d="M 211,340L 404,340"></path></g><path style="stroke:black; fill:none;" d="M 211,340L 404,340"></path><g><g><path style="stroke:#0ff; stroke-width:8px; fill:none; " opacity="0" d="M 211,340 L 404,340" onmousedown="segmousedown(&quot;241&quot;,&quot;0&quot;,evt);" onmouseover="segmouseover(&quot;241&quot;,&quot;0&quot;,evt);" onmouseout="segmouseout(&quot;241&quot;,&quot;0&quot;,evt);" onclick="segclick(&quot;241&quot;,&quot;0&quot;,evt);"></path></g></g></g><g id="242"><path style="stroke:#bdbddf; stroke-width:8px; fill:none;" opacity="0.7" d="M 419,334 H 433 a 12,12 0 0,0 12,-12 V 43 a 12,12 0 0,0 -12,-12L 362,31"></path><g><path style="stroke:#ff0; stroke-width:8px; fill:none; " opacity="0" d="M 419,334 H 433 a 12,12 0 0,0 12,-12 V 43 a 12,12 0 0,0 -12,-12L 362,31"></path></g><path style="stroke:black; fill:none;" d="M 419,334 H 433 a 12,12 0 0,0 12,-12 V 43 a 12,12 0 0,0 -12,-12L 362,31"></path><g><g><path style="stroke:#0ff; stroke-width:8px; fill:none; " opacity="0" d="M 419,334 L 445,334" onmousedown="segmousedown(&quot;242&quot;,&quot;0&quot;,evt);" onmouseover="segmouseover(&quot;242&quot;,&quot;0&quot;,evt);" onmouseout="segmouseout(&quot;242&quot;,&quot;0&quot;,evt);" onclick="segclick(&quot;242&quot;,&quot;0&quot;,evt);"></path><path style="stroke:#0ff; stroke-width:8px; fill:none; " opacity="0" d="M 445,334 L 445,31" onmousedown="segmousedown(&quot;242&quot;,&quot;1&quot;,evt);" onmouseover="segmouseover(&quot;242&quot;,&quot;1&quot;,evt);" onmouseout="segmouseout(&quot;242&quot;,&quot;1&quot;,evt);" onclick="segclick(&quot;242&quot;,&quot;1&quot;,evt);"></path><path style="stroke:#0ff; stroke-width:8px; fill:none; " opacity="0" d="M 445,31 L 362,31" onmousedown="segmousedown(&quot;242&quot;,&quot;2&quot;,evt);" onmouseover="segmouseover(&quot;242&quot;,&quot;2&quot;,evt);" onmouseout="segmouseout(&quot;242&quot;,&quot;2&quot;,evt);" onclick="segclick(&quot;242&quot;,&quot;2&quot;,evt);"></path></g></g></g><g id="243"><path style="stroke:#bdbddf; stroke-width:8px; fill:none;" opacity="0.7" d="M 332,31 H 230 a 12,12 0 0,0 -12,12L 218,141"></path><g><path style="stroke:#ff0; stroke-width:8px; fill:none; " opacity="0" d="M 332,31 H 230 a 12,12 0 0,0 -12,12L 218,141"></path></g><path style="stroke:black; fill:none;" d="M 332,31 H 230 a 12,12 0 0,0 -12,12L 218,141"></path><g><g><path style="stroke:#0ff; stroke-width:8px; fill:none; " opacity="0" d="M 332,31 L 218,31" onmousedown="segmousedown(&quot;243&quot;,&quot;0&quot;,evt);" onmouseover="segmouseover(&quot;243&quot;,&quot;0&quot;,evt);" onmouseout="segmouseout(&quot;243&quot;,&quot;0&quot;,evt);" onclick="segclick(&quot;243&quot;,&quot;0&quot;,evt);"></path><path style="stroke:#0ff; stroke-width:8px; fill:none; " opacity="0" d="M 218,31 L 218,141" onmousedown="segmousedown(&quot;243&quot;,&quot;1&quot;,evt);" onmouseover="segmouseover(&quot;243&quot;,&quot;1&quot;,evt);" onmouseout="segmouseout(&quot;243&quot;,&quot;1&quot;,evt);" onclick="segclick(&quot;243&quot;,&quot;1&quot;,evt);"></path></g></g></g><g id="244"><path style="stroke:#bdbddf; stroke-width:8px; fill:none;" opacity="0.7" d="M 218,171L 218,325"></path><g><path style="stroke:#ff0; stroke-width:8px; fill:none; " opacity="0" d="M 218,171L 218,325"></path></g><path style="stroke:black; fill:none;" d="M 218,171L 218,325"></path><g><g><path style="stroke:#0ff; stroke-width:8px; fill:none; " opacity="0" d="M 218,171 L 218,325" onmousedown="segmousedown(&quot;244&quot;,&quot;0&quot;,evt);" onmouseover="segmouseover(&quot;244&quot;,&quot;0&quot;,evt);" onmouseout="segmouseout(&quot;244&quot;,&quot;0&quot;,evt);" onclick="segclick(&quot;244&quot;,&quot;0&quot;,evt);"></path></g></g></g><g id="245"><path style="stroke:#bdbddf; stroke-width:8px; fill:none;" opacity="0.7" d="M 404,319L 404,242"></path><g><path style="stroke:#ff0; stroke-width:8px; fill:none; " opacity="0" d="M 404,319L 404,242"></path></g><path style="stroke:black; fill:none;" d="M 404,319L 404,242"></path><g><g><path style="stroke:#0ff; stroke-width:8px; fill:none; " opacity="0" d="M 404,319 L 404,242" onmousedown="segmousedown(&quot;245&quot;,&quot;0&quot;,evt);" onmouseover="segmouseover(&quot;245&quot;,&quot;0&quot;,evt);" onmouseout="segmouseout(&quot;245&quot;,&quot;0&quot;,evt);" onclick="segclick(&quot;245&quot;,&quot;0&quot;,evt);"></path></g></g></g><g id="246"><path style="stroke:#bdbddf; stroke-width:8px; fill:none;" opacity="0.7" d="M 389,227L 359,227"></path><g><path style="stroke:#ff0; stroke-width:8px; fill:none; " opacity="0" d="M 389,227L 359,227"></path></g><path style="stroke:black; fill:none;" d="M 389,227L 359,227"></path><g><g><path style="stroke:#0ff; stroke-width:8px; fill:none; " opacity="0" d="M 389,227 L 359,227" onmousedown="segmousedown(&quot;246&quot;,&quot;0&quot;,evt);" onmouseover="segmouseover(&quot;246&quot;,&quot;0&quot;,evt);" onmouseout="segmouseout(&quot;246&quot;,&quot;0&quot;,evt);" onclick="segclick(&quot;246&quot;,&quot;0&quot;,evt);"></path></g></g></g><g id="247"><path style="stroke:#bdbddf; stroke-width:8px; fill:none;" opacity="0.7" d="M 329,222L 287,222"></path><g><path style="stroke:#ff0; stroke-width:8px; fill:none; " opacity="0" d="M 329,222L 287,222"></path></g><path style="stroke:black; fill:none;" d="M 329,222L 287,222"></path><g><g><path style="stroke:#0ff; stroke-width:8px; fill:none; " opacity="0" d="M 329,222 L 287,222" onmousedown="segmousedown(&quot;247&quot;,&quot;0&quot;,evt);" onmouseover="segmouseover(&quot;247&quot;,&quot;0&quot;,evt);" onmouseout="segmouseout(&quot;247&quot;,&quot;0&quot;,evt);" onclick="segclick(&quot;247&quot;,&quot;0&quot;,evt);"></path></g></g></g><g id="248"><path style="stroke:#bdbddf; stroke-width:8px; fill:none;" opacity="0.7" d="M 272,232L 272,268"></path><g><path style="stroke:#ff0; stroke-width:8px; fill:none; " opacity="0" d="M 272,232L 272,268"></path></g><path style="stroke:black; fill:none;" d="M 272,232L 272,268"></path><g><g><path style="stroke:#0ff; stroke-width:8px; fill:none; " opacity="0" d="M 272,232 L 272,268" onmousedown="segmousedown(&quot;248&quot;,&quot;0&quot;,evt);" onmouseover="segmouseover(&quot;248&quot;,&quot;0&quot;,evt);" onmouseout="segmouseout(&quot;248&quot;,&quot;0&quot;,evt);" onclick="segclick(&quot;248&quot;,&quot;0&quot;,evt);"></path></g></g></g><g id="249"><path style="stroke:#bdbddf; stroke-width:8px; fill:none;" opacity="0.7" d="M 203,157L 147,157"></path><g><path style="stroke:#ff0; stroke-width:8px; fill:none; " opacity="0" d="M 203,157L 147,157"></path></g><path style="stroke:black; fill:none;" d="M 203,157L 147,157"></path><g><g><path style="stroke:#0ff; stroke-width:8px; fill:none; " opacity="0" d="M 203,157 L 147,157" onmousedown="segmousedown(&quot;249&quot;,&quot;0&quot;,evt);" onmouseover="segmouseover(&quot;249&quot;,&quot;0&quot;,evt);" onmouseout="segmouseout(&quot;249&quot;,&quot;0&quot;,evt);" onclick="segclick(&quot;249&quot;,&quot;0&quot;,evt);"></path></g></g></g><g id="250"><path style="stroke:#bdbddf; stroke-width:8px; fill:none;" opacity="0.7" d="M 132,142 V 69 a 12,12 0 0,0 -12,-12L 92,57"></path><g><path style="stroke:#ff0; stroke-width:8px; fill:none; " opacity="0" d="M 132,142 V 69 a 12,12 0 0,0 -12,-12L 92,57"></path></g><path style="stroke:black; fill:none;" d="M 132,142 V 69 a 12,12 0 0,0 -12,-12L 92,57"></path><g><g><path style="stroke:#0ff; stroke-width:8px; fill:none; " opacity="0" d="M 132,142 L 132,57" onmousedown="segmousedown(&quot;250&quot;,&quot;0&quot;,evt);" onmouseover="segmouseover(&quot;250&quot;,&quot;0&quot;,evt);" onmouseout="segmouseout(&quot;250&quot;,&quot;0&quot;,evt);" onclick="segclick(&quot;250&quot;,&quot;0&quot;,evt);"></path><path style="stroke:#0ff; stroke-width:8px; fill:none; " opacity="0" d="M 132,57 L 92,57" onmousedown="segmousedown(&quot;250&quot;,&quot;1&quot;,evt);" onmouseover="segmouseover(&quot;250&quot;,&quot;1&quot;,evt);" onmouseout="segmouseout(&quot;250&quot;,&quot;1&quot;,evt);" onclick="segclick(&quot;250&quot;,&quot;1&quot;,evt);"></path></g></g></g><g id="251"><path style="stroke:#bdbddf; stroke-width:8px; fill:none;" opacity="0.7" d="M 92,57 H 75 a 12,12 0 0,0 -12,12L 63,141"></path><g><path style="stroke:#ff0; stroke-width:8px; fill:none; " opacity="0" d="M 92,57 H 75 a 12,12 0 0,0 -12,12L 63,141"></path></g><path style="stroke:black; fill:none;" d="M 92,57 H 75 a 12,12 0 0,0 -12,12L 63,141"></path><g><g><path style="stroke:#0ff; stroke-width:8px; fill:none; " opacity="0" d="M 92,57 L 63,57" onmousedown="segmousedown(&quot;251&quot;,&quot;0&quot;,evt);" onmouseover="segmouseover(&quot;251&quot;,&quot;0&quot;,evt);" onmouseout="segmouseout(&quot;251&quot;,&quot;0&quot;,evt);" onclick="segclick(&quot;251&quot;,&quot;0&quot;,evt);"></path><path style="stroke:#0ff; stroke-width:8px; fill:none; " opacity="0" d="M 63,57 L 63,141" onmousedown="segmousedown(&quot;251&quot;,&quot;1&quot;,evt);" onmouseover="segmouseover(&quot;251&quot;,&quot;1&quot;,evt);" onmouseout="segmouseout(&quot;251&quot;,&quot;1&quot;,evt);" onclick="segclick(&quot;251&quot;,&quot;1&quot;,evt);"></path></g></g></g><g id="252"><path style="stroke:#bdbddf; stroke-width:8px; fill:none;" opacity="0.7" d="M 135,172L 135,233"></path><g><path style="stroke:#ff0; stroke-width:8px; fill:none; " opacity="0" d="M 135,172L 135,233"></path></g><path style="stroke:black; fill:none;" d="M 135,172L 135,233"></path><g><g><path style="stroke:#0ff; stroke-width:8px; fill:none; " opacity="0" d="M 135,172 L 135,233" onmousedown="segmousedown(&quot;252&quot;,&quot;0&quot;,evt);" onmouseover="segmouseover(&quot;252&quot;,&quot;0&quot;,evt);" onmouseout="segmouseout(&quot;252&quot;,&quot;0&quot;,evt);" onclick="segclick(&quot;252&quot;,&quot;0&quot;,evt);"></path></g></g></g></g>
  <g id="nodes"><g id="239" onmousedown="nodemousedown(239,evt);" onmouseover="nodemouseover(239,evt);" onmouseout="nodemouseout(239,evt);" transform="translate(92 57)"><rect x="-21" y="-21" width="42" height="42" fill="#0ff" style="stroke:none; opacity:0.75;" display="none"></rect><rect x="-15" y="-15" width="30" height="30" fill="#f0f0d2" style="stroke:black; opacity:1;"></rect></g><g id="240" onmousedown="nodemousedown(240,evt);" onmouseover="nodemouseover(240,evt);" onmouseout="nodemouseout(240,evt);" transform="translate(63,156)"><rect x="-21" y="-21" width="42" height="42" fill="#0ff" style="stroke:none; opacity:0.75;" display="none"></rect><rect x="-15" y="-15" width="30" height="30" fill="#f0f0d2" style="stroke:black; opacity:1;"></rect></g><g id="237" onmousedown="nodemousedown(237,evt);" onmouseover="nodemouseover(237,evt);" onmouseout="nodemouseout(237,evt);" transform="translate(132,157)"><rect x="-21" y="-21" width="42" height="42" fill="#0ff" style="stroke:none; opacity:0.75;" display="none"></rect><rect x="-15" y="-15" width="30" height="30" fill="#f0f0d2" style="stroke:black; opacity:1;"></rect></g><g id="229" onmousedown="nodemousedown(229,evt);" onmouseover="nodemouseover(229,evt);" onmouseout="nodemouseout(229,evt);" transform="translate(218,156)"><rect x="-21" y="-21" width="42" height="42" fill="#0ff" style="stroke:none; opacity:0.75;" display="none"></rect><rect x="-15" y="-15" width="30" height="30" fill="#f0f0d2" style="stroke:black; opacity:1;"></rect></g><g id="230" onmousedown="nodemousedown(230,evt);" onmouseover="nodemouseover(230,evt);" onmouseout="nodemouseout(230,evt);" transform="translate(211,340)"><rect x="-21" y="-21" width="42" height="42" fill="#0ff" style="stroke:none; opacity:0.75;" display="none"></rect><rect x="-15" y="-15" width="30" height="30" fill="#f0f0d2" style="stroke:black; opacity:1;"></rect></g><g id="238" onmousedown="nodemousedown(238,evt);" onmouseover="nodemouseover(238,evt);" onmouseout="nodemouseout(238,evt);" transform="translate(135,248)"><rect x="-21" y="-21" width="42" height="42" fill="#0ff" style="stroke:none; opacity:0.75;" display="none"></rect><rect x="-15" y="-15" width="30" height="30" fill="#f0f0d2" style="stroke:black; opacity:1;"></rect></g><g id="232" onmousedown="nodemousedown(232,evt);" onmouseover="nodemouseover(232,evt);" onmouseout="nodemouseout(232,evt);" transform="translate(347,31)"><rect x="-21" y="-21" width="42" height="42" fill="#0ff" style="stroke:none; opacity:0.75;" display="none"></rect><rect x="-15" y="-15" width="30" height="30" fill="#f0f0d2" style="stroke:black; opacity:1;"></rect></g><g id="236" onmousedown="nodemousedown(236,evt);" onmouseover="nodemouseover(236,evt);" onmouseout="nodemouseout(236,evt);" transform="translate(272,283)"><rect x="-21" y="-21" width="42" height="42" fill="#0ff" style="stroke:none; opacity:0.75;" display="none"></rect><rect x="-15" y="-15" width="30" height="30" fill="#f0f0d2" style="stroke:black; opacity:1;"></rect></g><g id="235" onmousedown="nodemousedown(235,evt);" onmouseover="nodemouseover(235,evt);" onmouseout="nodemouseout(235,evt);" transform="translate(272,217)"><rect x="-21" y="-21" width="42" height="42" fill="#0ff" style="stroke:none; opacity:0.75;" display="none"></rect><rect x="-15" y="-15" width="30" height="30" fill="#f0f0d2" style="stroke:black; opacity:1;"></rect></g><g id="234" onmousedown="nodemousedown(234,evt);" onmouseover="nodemouseover(234,evt);" onmouseout="nodemouseout(234,evt);" transform="translate(344,222)"><rect x="-21" y="-21" width="42" height="42" fill="#0ff" style="stroke:none; opacity:0.75;" display="none"></rect><rect x="-15" y="-15" width="30" height="30" fill="#f0f0d2" style="stroke:black; opacity:1;"></rect></g><g id="233" onmousedown="nodemousedown(233,evt);" onmouseover="nodemouseover(233,evt);" onmouseout="nodemouseout(233,evt);" transform="translate(404,227)"><rect x="-21" y="-21" width="42" height="42" fill="#0ff" style="stroke:none; opacity:0.75;" display="none"></rect><rect x="-15" y="-15" width="30" height="30" fill="#f0f0d2" style="stroke:black; opacity:1;"></rect></g><g id="231" onmousedown="nodemousedown(231,evt);" onmouseover="nodemouseover(231,evt);" onmouseout="nodemouseout(231,evt);" transform="translate(404,334)"><rect x="-21" y="-21" width="42" height="42" fill="#0ff" style="stroke:none; opacity:0.75;" display="none"></rect><rect x="-15" y="-15" width="30" height="30" fill="#f0f0d2" style="stroke:black; opacity:1;"></rect></g></g>
  <g id="BPs"><g onmousedown="bpmousedown(257,evt);" onmouseover="bpmouseover(257,evt);" onmouseout="bpmouseout(257,evt);" transform="translate(445,334)" opacity="0"><ellipse cx="0" cy="0" rx="16" ry="16" fill="#0ff" style="stroke:none; opacity:0.75;" display="none"></ellipse><ellipse cx="0" cy="0" rx="5.132188731375618" ry="5.132188731375618" fill="#777" style="stroke:black;"></ellipse></g><g onmousedown="bpmousedown(258,evt);" onmouseover="bpmouseover(258,evt);" onmouseout="bpmouseout(258,evt);" transform="translate(445,31)" opacity="0"><ellipse cx="0" cy="0" rx="16" ry="16" fill="#0ff" style="stroke:none; opacity:0.75;" display="none"></ellipse><ellipse cx="0" cy="0" rx="5.132188731375618" ry="5.132188731375618" fill="#777" style="stroke:black;"></ellipse></g><g onmousedown="bpmousedown(262,evt);" onmouseover="bpmouseover(262,evt);" onmouseout="bpmouseout(262,evt);" transform="translate(218,31)" opacity="0"><ellipse cx="0" cy="0" rx="16" ry="16" fill="#0ff" style="stroke:none; opacity:0.75;" display="none"></ellipse><ellipse cx="0" cy="0" rx="5.132188731375618" ry="5.132188731375618" fill="#777" style="stroke:black;"></ellipse></g><g onmousedown="bpmousedown(284,evt);" onmouseover="bpmouseover(284,evt);" onmouseout="bpmouseout(284,evt);" transform="translate(132,57)" opacity="0"><ellipse cx="0" cy="0" rx="16" ry="16" fill="#0ff" style="stroke:none; opacity:0.75;" display="none"></ellipse><ellipse cx="0" cy="0" rx="5.132188731375618" ry="5.132188731375618" fill="#777" style="stroke:black;"></ellipse></g><g onmousedown="bpmousedown(287,evt);" onmouseover="bpmouseover(287,evt);" onmouseout="bpmouseout(287,evt);" transform="translate(63 57)" opacity="0"><ellipse cx="0" cy="0" rx="16" ry="16" fill="#0ff" style="stroke:none; opacity:0.75;" display="none"></ellipse><ellipse cx="0" cy="0" rx="5.132188731375618" ry="5.132188731375618" fill="#777" style="stroke:black;"></ellipse></g></g>
  <g id="ports"></g>
</g>
</svg>