<svg id="SVGCanvas" width="480px" height="270px" xmlns="http://www.w3.org/2000/svg" xmlns:xlink="http://www.w3.org/1999/xlink" onmouseup="null" onmousemove="null">
<rect id="background" x="0" y="0" height="100%" width="100%" fill="#bdbddf" onmousedown="bgmousedown(evt)"></rect>
<g id="foreground" transform="translate(113.65384615384615,0),scale(0.8653846153846154),translate(-472,-54)">
  <g id="edges"><g id="201"><path style="stroke:#bdbddf; stroke-width:8px; fill:none;" opacity="0.7" d="M 635,84 H 682 a 12,12 0 0,1 12,12L 694,181"></path><g><path style="stroke:#ff0; stroke-width:8px; fill:none; " opacity="0" d="M 635,84 H 682 a 12,12 0 0,1 12,12L 694,181"></path></g><path style="stroke:black; fill:none;" d="M 635,84 H 682 a 12,12 0 0,1 12,12L 694,181"></path><g><g><path style="stroke:#0ff; stroke-width:8px; fill:none; " opacity="0" d="M 635,84 L 694,84" onmousedown="segmousedown(&quot;201&quot;,&quot;0&quot;,evt);" onmouseover="segmouseover(&quot;201&quot;,&quot;0&quot;,evt);" onmouseout="segmouseout(&quot;201&quot;,&quot;0&quot;,evt);" onclick="segclick(&quot;201&quot;,&quot;0&quot;,evt);"></path><path style="stroke:#0ff; stroke-width:8px; fill:none; " opacity="0" d="M 694,84 L 694,181" onmousedown="segmousedown(&quot;201&quot;,&quot;1&quot;,evt);" onmouseover="segmouseover(&quot;201&quot;,&quot;1&quot;,evt);" onmouseout="segmouseout(&quot;201&quot;,&quot;1&quot;,evt);" onclick="segclick(&quot;201&quot;,&quot;1&quot;,evt);"></path></g></g></g><g id="202"><path style="stroke:#bdbddf; stroke-width:8px; fill:none;" opacity="0.7" d="M 605,84 H 558 a 12,12 0 0,0 -12,12L 546,253"></path><g><path style="stroke:#ff0; stroke-width:8px; fill:none; " opacity="0" d="M 605,84 H 558 a 12,12 0 0,0 -12,12L 546,253"></path></g><path style="stroke:black; fill:none;" d="M 605,84 H 558 a 12,12 0 0,0 -12,12L 546,253"></path><g><g><path style="stroke:#0ff; stroke-width:8px; fill:none; " opacity="0" d="M 605,84 L 546,84" onmousedown="segmousedown(&quot;202&quot;,&quot;0&quot;,evt);" onmouseover="segmouseover(&quot;202&quot;,&quot;0&quot;,evt);" onmouseout="segmouseout(&quot;202&quot;,&quot;0&quot;,evt);" onclick="segclick(&quot;202&quot;,&quot;0&quot;,evt);"></path><path style="stroke:#0ff; stroke-width:8px; fill:none; " opacity="0" d="M 546,84 L 546,253" onmousedown="segmousedown(&quot;202&quot;,&quot;1&quot;,evt);" onmouseover="segmouseover(&quot;202&quot;,&quot;1&quot;,evt);" onmouseout="segmouseout(&quot;202&quot;,&quot;1&quot;,evt);" onclick="segclick(&quot;202&quot;,&quot;1&quot;,evt);"></path></g></g></g><g id="203"><path style="stroke:#bdbddf; stroke-width:8px; fill:none;" opacity="0.7" d="M 701,181 H 679 a 12,12 0 0,0 -12,12L 667,239"></path><g><path style="stroke:#ff0; stroke-width:8px; fill:none; " opacity="0" d="M 701,181 H 679 a 12,12 0 0,0 -12,12L 667,239"></path></g><path style="stroke:black; fill:none;" d="M 701,181 H 679 a 12,12 0 0,0 -12,12L 667,239"></path><g><g><path style="stroke:#0ff; stroke-width:8px; fill:none; " opacity="0" d="M 701,181 L 667,181" onmousedown="segmousedown(&quot;203&quot;,&quot;0&quot;,evt);" onmouseover="segmouseover(&quot;203&quot;,&quot;0&quot;,evt);" onmouseout="segmouseout(&quot;203&quot;,&quot;0&quot;,evt);" onclick="segclick(&quot;203&quot;,&quot;0&quot;,evt);"></path><path style="stroke:#0ff; stroke-width:8px; fill:none; " opacity="0" d="M 667,181 L 667,239" onmousedown="segmousedown(&quot;203&quot;,&quot;1&quot;,evt);" onmouseover="segmouseover(&quot;203&quot;,&quot;1&quot;,evt);" onmouseout="segmouseout(&quot;203&quot;,&quot;1&quot;,evt);" onclick="segclick(&quot;203&quot;,&quot;1&quot;,evt);"></path></g></g></g><g id="204"><path style="stroke:#bdbddf; stroke-width:8px; fill:none;" opacity="0.7" d="M 686,181 H 630 a 12,12 0 0,0 -12,12 V 324 a 12,12 0 0,0 12,12L 719,336"></path><g><path style="stroke:#ff0; stroke-width:8px; fill:none; " opacity="0" d="M 686,181 H 630 a 12,12 0 0,0 -12,12 V 324 a 12,12 0 0,0 12,12L 719,336"></path></g><path style="stroke:black; fill:none;" d="M 686,181 H 630 a 12,12 0 0,0 -12,12 V 324 a 12,12 0 0,0 12,12L 719,336"></path><g><g><path style="stroke:#0ff; stroke-width:8px; fill:none; " opacity="0" d="M 686,181 L 618,181" onmousedown="segmousedown(&quot;204&quot;,&quot;0&quot;,evt);" onmouseover="segmouseover(&quot;204&quot;,&quot;0&quot;,evt);" onmouseout="segmouseout(&quot;204&quot;,&quot;0&quot;,evt);" onclick="segclick(&quot;204&quot;,&quot;0&quot;,evt);"></path><path style="stroke:#0ff; stroke-width:8px; fill:none; " opacity="0" d="M 618,181 L 618,336" onmousedown="segmousedown(&quot;204&quot;,&quot;1&quot;,evt);" onmouseover="segmouseover(&quot;204&quot;,&quot;1&quot;,evt);" onmouseout="segmouseout(&quot;204&quot;,&quot;1&quot;,evt);" onclick="segclick(&quot;204&quot;,&quot;1&quot;,evt);"></path><path style="stroke:#0ff; stroke-width:8px; fill:none; " opacity="0" d="M 618,336 L 719,336" onmousedown="segmousedown(&quot;204&quot;,&quot;2&quot;,evt);" onmouseover="segmouseover(&quot;204&quot;,&quot;2&quot;,evt);" onmouseout="segmouseout(&quot;204&quot;,&quot;2&quot;,evt);" onclick="segclick(&quot;204&quot;,&quot;2&quot;,evt);"></path></g></g></g><g id="205"><path style="stroke:#bdbddf; stroke-width:8px; fill:none;" opacity="0.7" d="M 561,268 H 575 a 12,12 0 0,1 12,12L 587,302"></path><g><path style="stroke:#ff0; stroke-width:8px; fill:none; " opacity="0" d="M 561,268 H 575 a 12,12 0 0,1 12,12L 587,302"></path></g><path style="stroke:black; fill:none;" d="M 561,268 H 575 a 12,12 0 0,1 12,12L 587,302"></path><g><g><path style="stroke:#0ff; stroke-width:8px; fill:none; " opacity="0" d="M 561,268 L 587,268" onmousedown="segmousedown(&quot;205&quot;,&quot;0&quot;,evt);" onmouseover="segmouseover(&quot;205&quot;,&quot;0&quot;,evt);" onmouseout="segmouseout(&quot;205&quot;,&quot;0&quot;,evt);" onclick="segclick(&quot;205&quot;,&quot;0&quot;,evt);"></path><path style="stroke:#0ff; stroke-width:8px; fill:none; " opacity="0" d="M 587,268 L 587,302" onmousedown="segmousedown(&quot;205&quot;,&quot;1&quot;,evt);" onmouseover="segmouseover(&quot;205&quot;,&quot;1&quot;,evt);" onmouseout="segmouseout(&quot;205&quot;,&quot;1&quot;,evt);" onclick="segclick(&quot;205&quot;,&quot;1&quot;,evt);"></path></g></g></g><g id="206"><path style="stroke:#bdbddf; stroke-width:8px; fill:none;" opacity="0.7" d="M 531,268 H 514 a 12,12 0 0,0 -12,12L 502,301"></path><g><path style="stroke:#ff0; stroke-width:8px; fill:none; " opacity="0" d="M 531,268 H 514 a 12,12 0 0,0 -12,12L 502,301"></path></g><path style="stroke:black; fill:none;" d="M 531,268 H 514 a 12,12 0 0,0 -12,12L 502,301"></path><g><g><path style="stroke:#0ff; stroke-width:8px; fill:none; " opacity="0" d="M 531,268 L 502,268" onmousedown="segmousedown(&quot;206&quot;,&quot;0&quot;,evt);" onmouseover="segmouseover(&quot;206&quot;,&quot;0&quot;,evt);" onmouseout="segmouseout(&quot;206&quot;,&quot;0&quot;,evt);" onclick="segclick(&quot;206&quot;,&quot;0&quot;,evt);"></path><path style="stroke:#0ff; stroke-width:8px; fill:none; " opacity="0" d="M 502,268 L 502,301" onmousedown="segmousedown(&quot;206&quot;,&quot;1&quot;,evt);" onmouseover="segmouseover(&quot;206&quot;,&quot;1&quot;,evt);" onmouseout="segmouseout(&quot;206&quot;,&quot;1&quot;,evt);" onclick="segclick(&quot;206&quot;,&quot;1&quot;,evt);"></path></g></g></g></g>
  <g id="nodes"><g id="195" onmousedown="nodemousedown(195,evt);" onmouseover="nodemouseover(195,evt);" onmouseout="nodemouseout(195,evt);" transform="translate(701 181)"><rect x="-21" y="-21" width="42" height="42" fill="#0ff" style="stroke:none; opacity:0.75;" display="none"></rect><rect x="-15" y="-15" width="30" height="30" fill="#f0f0d2" style="stroke:black; opacity:1;"></rect></g><g id="198" onmousedown="nodemousedown(198,evt);" onmouseover="nodemouseover(198,evt);" onmouseout="nodemouseout(198,evt);" transform="translate(734 336)"><rect x="-21" y="-21" width="42" height="42" fill="#0ff" style="stroke:none; opacity:0.75;" display="none"></rect><rect x="-15" y="-15" width="30" height="30" fill="#f0f0d2" style="stroke:black; opacity:1;"></rect></g><g id="194" onmousedown="nodemousedown(194,evt);" onmouseover="nodemouseover(194,evt);" onmouseout="nodemouseout(194,evt);" transform="translate(620,84)"><rect x="-21" y="-21" width="42" height="42" fill="#0ff" style="stroke:none; opacity:0.75;" display="none"></rect><rect x="-15" y="-15" width="30" height="30" fill="#f0f0d2" style="stroke:black; opacity:1;"></rect></g><g id="197" onmousedown="nodemousedown(197,evt);" onmouseover="nodemouseover(197,evt);" onmouseout="nodemouseout(197,evt);" transform="translate(667,254)"><rect x="-21" y="-21" width="42" height="42" fill="#0ff" style="stroke:none; opacity:0.75;" display="none"></rect><rect x="-15" y="-15" width="30" height="30" fill="#f0f0d2" style="stroke:black; opacity:1;"></rect></g><g id="196" onmousedown="nodemousedown(196,evt);" onmouseover="nodemouseover(196,evt);" onmouseout="nodemouseout(196,evt);" transform="translate(546,268)"><rect x="-21" y="-21" width="42" height="42" fill="#0ff" style="stroke:none; opacity:0.75;" display="none"></rect><rect x="-15" y="-15" width="30" height="30" fill="#f0f0d2" style="stroke:black; opacity:1;"></rect></g><g id="199" onmousedown="nodemousedown(199,evt);" onmouseover="nodemouseover(199,evt);" onmouseout="nodemouseout(199,evt);" transform="translate(587,317)"><rect x="-21" y="-21" width="42" height="42" fill="#0ff" style="stroke:none; opacity:0.75;" display="none"></rect><rect x="-15" y="-15" width="30" height="30" fill="#f0f0d2" style="stroke:black; opacity:1;"></rect></g><g id="200" onmousedown="nodemousedown(200,evt);" onmouseover="nodemouseover(200,evt);" onmouseout="nodemouseout(200,evt);" transform="translate(502,316)"><rect x="-21" y="-21" width="42" height="42" fill="#0ff" style="stroke:none; opacity:0.75;" display="none"></rect><rect x="-15" y="-15" width="30" height="30" fill="#f0f0d2" style="stroke:black; opacity:1;"></rect></g></g>
  <g id="BPs"><g onmousedown="bpmousedown(209,evt);" onmouseover="bpmouseover(209,evt);" onmouseout="bpmouseout(209,evt);" transform="translate(694,84)" opacity="0"><ellipse cx="0" cy="0" rx="16" ry="16" fill="#0ff" style="stroke:none; opacity:0.75;" display="none"></ellipse><ellipse cx="0" cy="0" rx="5.578466012364801" ry="5.578466012364801" fill="#777" style="stroke:black;"></ellipse></g><g onmousedown="bpmousedown(212,evt);" onmouseover="bpmouseover(212,evt);" onmouseout="bpmouseout(212,evt);" transform="translate(546,84)" opacity="0"><ellipse cx="0" cy="0" rx="16" ry="16" fill="#0ff" style="stroke:none; opacity:0.75;" display="none"></ellipse><ellipse cx="0" cy="0" rx="5.578466012364801" ry="5.578466012364801" fill="#777" style="stroke:black;"></ellipse></g><g onmousedown="bpmousedown(217,evt);" onmouseover="bpmouseover(217,evt);" onmouseout="bpmouseout(217,evt);" transform="translate(667,181)" opacity="0"><ellipse cx="0" cy="0" rx="16" ry="16" fill="#0ff" style="stroke:none; opacity:0.75;" display="none"></ellipse><ellipse cx="0" cy="0" rx="5.578466012364801" ry="5.578466012364801" fill="#777" style="stroke:black;"></ellipse></g><g onmousedown="bpmousedown(220,evt);" onmouseover="bpmouseover(220,evt);" onmouseout="bpmouseout(220,evt);" transform="translate(618,181)" opacity="0"><ellipse cx="0" cy="0" rx="16" ry="16" fill="#0ff" style="stroke:none; opacity:0.75;" display="none"></ellipse><ellipse cx="0" cy="0" rx="5.578466012364801" ry="5.578466012364801" fill="#777" style="stroke:black;"></ellipse></g><g onmousedown="bpmousedown(221,evt);" onmouseover="bpmouseover(221,evt);" onmouseout="bpmouseout(221,evt);" transform="translate(618,336)" opacity="0"><ellipse cx="0" cy="0" rx="16" ry="16" fill="#0ff" style="stroke:none; opacity:0.75;" display="none"></ellipse><ellipse cx="0" cy="0" rx="5.578466012364801" ry="5.578466012364801" fill="#777" style="stroke:black;"></ellipse></g><g onmousedown="bpmousedown(224,evt);" onmouseover="bpmouseover(224,evt);" onmouseout="bpmouseout(224,evt);" transform="translate(587,268)" opacity="0"><ellipse cx="0" cy="0" rx="16" ry="16" fill="#0ff" style="stroke:none; opacity:0.75;" display="none"></ellipse><ellipse cx="0" cy="0" rx="5.578466012364801" ry="5.578466012364801" fill="#777" style="stroke:black;"></ellipse></g><g onmousedown="bpmousedown(227,evt);" onmouseover="bpmouseover(227,evt);" onmouseout="bpmouseout(227,evt);" transform="translate(502,268)" opacity="0"><ellipse cx="0" cy="0" rx="16" ry="16" fill="#0ff" style="stroke:none; opacity:0.75;" display="none"></ellipse><ellipse cx="0" cy="0" rx="5.578466012364801" ry="5.578466012364801" fill="#777" style="stroke:black;"></ellipse></g></g>
  <g id="ports"></g>
</g>
</svg>