<svg id="SVGCanvas" width="480px" height="270px" xmlns="http://www.w3.org/2000/svg" xmlns:xlink="http://www.w3.org/1999/xlink">
<rect id="background" x="0" y="0" height="100%" width="100%" fill="#bdbddf" onmousedown="bgmousedown(evt)"></rect>
<g id="foreground" transform="translate(39.154411764705884,0),scale(0.6617647058823529),translate(-157,-49)">
  <g id="edges"><g id="201"><path style="stroke:#bdbddf; stroke-width:8px; fill:none;" opacity="0.7" d="M 473,146 H 682 a 12,12 0 0,1 12,12L 694,181"></path><g><path style="stroke:#ff0; stroke-width:8px; fill:none; " opacity="0" d="M 473,146 H 682 a 12,12 0 0,1 12,12L 694,181"></path></g><path style="stroke:black; fill:none;" d="M 473,146 H 682 a 12,12 0 0,1 12,12L 694,181"></path><g><g><path style="stroke:#0ff; stroke-width:8px; fill:none; " opacity="0" d="M 473,146 L 694,146" onmousedown="segmousedown(&quot;201&quot;,&quot;0&quot;,evt);" onmouseover="segmouseover(&quot;201&quot;,&quot;0&quot;,evt);" onmouseout="segmouseout(&quot;201&quot;,&quot;0&quot;,evt);" onclick="segclick(&quot;201&quot;,&quot;0&quot;,evt);"></path><path style="stroke:#0ff; stroke-width:8px; fill:none; " opacity="0" d="M 694,146 L 694,181" onmousedown="segmousedown(&quot;201&quot;,&quot;1&quot;,evt);" onmouseover="segmouseover(&quot;201&quot;,&quot;1&quot;,evt);" onmouseout="segmouseout(&quot;201&quot;,&quot;1&quot;,evt);" onclick="segclick(&quot;201&quot;,&quot;1&quot;,evt);"></path></g></g></g><g id="202"><path style="stroke:#bdbddf; stroke-width:8px; fill:none;" opacity="0.7" d="M 473,146 H 536.5 a 9.5,9.5 0 0,1 9.5,9.5 V 155.5 a 9.5,9.5 0 0,1 -9.5,9.5 H 326 a 12,12 0 0,0 -12,12L 314,259"></path><g><path style="stroke:#ff0; stroke-width:8px; fill:none; " opacity="0" d="M 473,146 H 536.5 a 9.5,9.5 0 0,1 9.5,9.5 V 155.5 a 9.5,9.5 0 0,1 -9.5,9.5 H 326 a 12,12 0 0,0 -12,12L 314,259"></path></g><path style="stroke:black; fill:none;" d="M 473,146 H 536.5 a 9.5,9.5 0 0,1 9.5,9.5 V 155.5 a 9.5,9.5 0 0,1 -9.5,9.5 H 326 a 12,12 0 0,0 -12,12L 314,259"></path><g><g><path style="stroke:#0ff; stroke-width:8px; fill:none; " opacity="0" d="M 473,146 L 546,146" onmousedown="segmousedown(&quot;202&quot;,&quot;0&quot;,evt);" onmouseover="segmouseover(&quot;202&quot;,&quot;0&quot;,evt);" onmouseout="segmouseout(&quot;202&quot;,&quot;0&quot;,evt);" onclick="segclick(&quot;202&quot;,&quot;0&quot;,evt);"></path><path style="stroke:#0ff; stroke-width:8px; fill:none; " opacity="0" d="M 546,146 L 546,165" onmousedown="segmousedown(&quot;202&quot;,&quot;1&quot;,evt);" onmouseover="segmouseover(&quot;202&quot;,&quot;1&quot;,evt);" onmouseout="segmouseout(&quot;202&quot;,&quot;1&quot;,evt);" onclick="segclick(&quot;202&quot;,&quot;1&quot;,evt);"></path><path style="stroke:#0ff; stroke-width:8px; fill:none; " opacity="0" d="M 546,165 L 314,165" onmousedown="segmousedown(&quot;202&quot;,&quot;2&quot;,evt);" onmouseover="segmouseover(&quot;202&quot;,&quot;2&quot;,evt);" onmouseout="segmouseout(&quot;202&quot;,&quot;2&quot;,evt);" onclick="segclick(&quot;202&quot;,&quot;2&quot;,evt);"></path><path style="stroke:#0ff; stroke-width:8px; fill:none; " opacity="0" d="M 314,165 L 314,259" onmousedown="segmousedown(&quot;202&quot;,&quot;3&quot;,evt);" onmouseover="segmouseover(&quot;202&quot;,&quot;3&quot;,evt);" onmouseout="segmouseout(&quot;202&quot;,&quot;3&quot;,evt);" onclick="segclick(&quot;202&quot;,&quot;3&quot;,evt);"></path></g></g></g><g id="203"><path style="stroke:#bdbddf; stroke-width:8px; fill:none;" opacity="0.7" d="M 701,181 H 275 a 12,12 0 0,1 -12,-12L 263,79"></path><g><path style="stroke:#ff0; stroke-width:8px; fill:none; " opacity="0" d="M 701,181 H 275 a 12,12 0 0,1 -12,-12L 263,79"></path></g><path style="stroke:black; fill:none;" d="M 701,181 H 275 a 12,12 0 0,1 -12,-12L 263,79"></path><g><g><path style="stroke:#0ff; stroke-width:8px; fill:none; " opacity="0" d="M 701,181 L 263,181" onmousedown="segmousedown(&quot;203&quot;,&quot;0&quot;,evt);" onmouseover="segmouseover(&quot;203&quot;,&quot;0&quot;,evt);" onmouseout="segmouseout(&quot;203&quot;,&quot;0&quot;,evt);" onclick="segclick(&quot;203&quot;,&quot;0&quot;,evt);"></path><path style="stroke:#0ff; stroke-width:8px; fill:none; " opacity="0" d="M 263,181 L 263,79" onmousedown="segmousedown(&quot;203&quot;,&quot;1&quot;,evt);" onmouseover="segmouseover(&quot;203&quot;,&quot;1&quot;,evt);" onmouseout="segmouseout(&quot;203&quot;,&quot;1&quot;,evt);" onclick="segclick(&quot;203&quot;,&quot;1&quot;,evt);"></path></g></g></g><g id="204"><path style="stroke:#bdbddf; stroke-width:8px; fill:none;" opacity="0.7" d="M 701,181 H 387 a 12,12 0 0,0 -12,12 V 324 a 12,12 0 0,0 12,12L 734,336"></path><g><path style="stroke:#ff0; stroke-width:8px; fill:none; " opacity="0" d="M 701,181 H 387 a 12,12 0 0,0 -12,12 V 324 a 12,12 0 0,0 12,12L 734,336"></path></g><path style="stroke:black; fill:none;" d="M 701,181 H 387 a 12,12 0 0,0 -12,12 V 324 a 12,12 0 0,0 12,12L 734,336"></path><g><g><path style="stroke:#0ff; stroke-width:8px; fill:none; " opacity="0" d="M 701,181 L 375,181" onmousedown="segmousedown(&quot;204&quot;,&quot;0&quot;,evt);" onmouseover="segmouseover(&quot;204&quot;,&quot;0&quot;,evt);" onmouseout="segmouseout(&quot;204&quot;,&quot;0&quot;,evt);" onclick="segclick(&quot;204&quot;,&quot;0&quot;,evt);"></path><path style="stroke:#0ff; stroke-width:8px; fill:none; " opacity="0" d="M 375,181 L 375,336" onmousedown="segmousedown(&quot;204&quot;,&quot;1&quot;,evt);" onmouseover="segmouseover(&quot;204&quot;,&quot;1&quot;,evt);" onmouseout="segmouseout(&quot;204&quot;,&quot;1&quot;,evt);" onclick="segclick(&quot;204&quot;,&quot;1&quot;,evt);"></path><path style="stroke:#0ff; stroke-width:8px; fill:none; " opacity="0" d="M 375,336 L 734,336" onmousedown="segmousedown(&quot;204&quot;,&quot;2&quot;,evt);" onmouseover="segmouseover(&quot;204&quot;,&quot;2&quot;,evt);" onmouseout="segmouseout(&quot;204&quot;,&quot;2&quot;,evt);" onclick="segclick(&quot;204&quot;,&quot;2&quot;,evt);"></path></g></g></g><g id="205"><path style="stroke:#bdbddf; stroke-width:8px; fill:none;" opacity="0.7" d="M 314,259 H 518 a 12,12 0 0,1 12,12L 530,427"></path><g><path style="stroke:#ff0; stroke-width:8px; fill:none; " opacity="0" d="M 314,259 H 518 a 12,12 0 0,1 12,12L 530,427"></path></g><path style="stroke:black; fill:none;" d="M 314,259 H 518 a 12,12 0 0,1 12,12L 530,427"></path><g><g><path style="stroke:#0ff; stroke-width:8px; fill:none; " opacity="0" d="M 314,259 L 530,259" onmousedown="segmousedown(&quot;205&quot;,&quot;0&quot;,evt);" onmouseover="segmouseover(&quot;205&quot;,&quot;0&quot;,evt);" onmouseout="segmouseout(&quot;205&quot;,&quot;0&quot;,evt);" onclick="segclick(&quot;205&quot;,&quot;0&quot;,evt);"></path><path style="stroke:#0ff; stroke-width:8px; fill:none; " opacity="0" d="M 530,259 L 530,427" onmousedown="segmousedown(&quot;205&quot;,&quot;1&quot;,evt);" onmouseover="segmouseover(&quot;205&quot;,&quot;1&quot;,evt);" onmouseout="segmouseout(&quot;205&quot;,&quot;1&quot;,evt);" onclick="segclick(&quot;205&quot;,&quot;1&quot;,evt);"></path></g></g></g><g id="206"><path style="stroke:#bdbddf; stroke-width:8px; fill:none;" opacity="0.7" d="M 314,259 H 194 a 12,12 0 0,0 -12,12L 182,308"></path><g><path style="stroke:#ff0; stroke-width:8px; fill:none; " opacity="0" d="M 314,259 H 194 a 12,12 0 0,0 -12,12L 182,308"></path></g><path style="stroke:black; fill:none;" d="M 314,259 H 194 a 12,12 0 0,0 -12,12L 182,308"></path><g><g><path style="stroke:#0ff; stroke-width:8px; fill:none; " opacity="0" d="M 314,259 L 182,259" onmousedown="segmousedown(&quot;206&quot;,&quot;0&quot;,evt);" onmouseover="segmouseover(&quot;206&quot;,&quot;0&quot;,evt);" onmouseout="segmouseout(&quot;206&quot;,&quot;0&quot;,evt);" onclick="segclick(&quot;206&quot;,&quot;0&quot;,evt);"></path><path style="stroke:#0ff; stroke-width:8px; fill:none; " opacity="0" d="M 182,259 L 182,308" onmousedown="segmousedown(&quot;206&quot;,&quot;1&quot;,evt);" onmouseover="segmouseover(&quot;206&quot;,&quot;1&quot;,evt);" onmouseout="segmouseout(&quot;206&quot;,&quot;1&quot;,evt);" onclick="segclick(&quot;206&quot;,&quot;1&quot;,evt);"></path></g></g></g></g>
  <g id="nodes"><g id="194" onmousedown="nodemousedown(194,evt);" onmouseover="nodemouseover(194,evt);" onmouseout="nodemouseout(194,evt);" transform="translate(473 146)"><rect x="-21" y="-21" width="42" height="42" fill="#0ff" style="stroke:none; opacity:0.75;" display="none"></rect><rect x="-15" y="-15" width="30" height="30" fill="#f0f0d2" style="stroke:black; opacity:1;"></rect></g><g id="195" onmousedown="nodemousedown(195,evt);" onmouseover="nodemouseover(195,evt);" onmouseout="nodemouseout(195,evt);" transform="translate(701 181)"><rect x="-21" y="-21" width="42" height="42" fill="#0ff" style="stroke:none; opacity:0.75;" display="none"></rect><rect x="-15" y="-15" width="30" height="30" fill="#f0f0d2" style="stroke:black; opacity:1;"></rect></g><g id="196" onmousedown="nodemousedown(196,evt);" onmouseover="nodemouseover(196,evt);" onmouseout="nodemouseout(196,evt);" transform="translate(314 259)"><rect x="-21" y="-21" width="42" height="42" fill="#0ff" style="stroke:none; opacity:0.75;" display="none"></rect><rect x="-15" y="-15" width="30" height="30" fill="#f0f0d2" style="stroke:black; opacity:1;"></rect></g><g id="197" onmousedown="nodemousedown(197,evt);" onmouseover="nodemouseover(197,evt);" onmouseout="nodemouseout(197,evt);" transform="translate(263 79)"><rect x="-21" y="-21" width="42" height="42" fill="#0ff" style="stroke:none; opacity:0.75;" display="none"></rect><rect x="-15" y="-15" width="30" height="30" fill="#f0f0d2" style="stroke:black; opacity:1;"></rect></g><g id="198" onmousedown="nodemousedown(198,evt);" onmouseover="nodemouseover(198,evt);" onmouseout="nodemouseout(198,evt);" transform="translate(734 336)"><rect x="-21" y="-21" width="42" height="42" fill="#0ff" style="stroke:none; opacity:0.75;" display="none"></rect><rect x="-15" y="-15" width="30" height="30" fill="#f0f0d2" style="stroke:black; opacity:1;"></rect></g><g id="199" onmousedown="nodemousedown(199,evt);" onmouseover="nodemouseover(199,evt);" onmouseout="nodemouseout(199,evt);" transform="translate(539 427)"><rect x="-21" y="-21" width="42" height="42" fill="#0ff" style="stroke:none; opacity:0.75;" display="none"></rect><rect x="-15" y="-15" width="30" height="30" fill="#f0f0d2" style="stroke:black; opacity:1;"></rect></g><g id="200" onmousedown="nodemousedown(200,evt);" onmouseover="nodemouseover(200,evt);" onmouseout="nodemouseout(200,evt);" transform="translate(194 308)"><rect x="-21" y="-21" width="42" height="42" fill="#0ff" style="stroke:none; opacity:0.75;" display="none"></rect><rect x="-15" y="-15" width="30" height="30" fill="#f0f0d2" style="stroke:black; opacity:1;"></rect></g></g>
  <g id="BPs"><g onmousedown="bpmousedown(209,evt);" onmouseover="bpmouseover(209,evt);" onmouseout="bpmouseout(209,evt);" transform="translate(694 146)" opacity="0"><ellipse cx="0" cy="0" rx="16" ry="16" fill="#0ff" style="stroke:none; opacity:0.75;" display="none"></ellipse><ellipse cx="0" cy="0" rx="10" ry="10" fill="#777" style="stroke:black;"></ellipse></g><g onmousedown="bpmousedown(212,evt);" onmouseover="bpmouseover(212,evt);" onmouseout="bpmouseout(212,evt);" transform="translate(546 146)" opacity="0"><ellipse cx="0" cy="0" rx="16" ry="16" fill="#0ff" style="stroke:none; opacity:0.75;" display="none"></ellipse><ellipse cx="0" cy="0" rx="10" ry="10" fill="#777" style="stroke:black;"></ellipse></g><g onmousedown="bpmousedown(213,evt);" onmouseover="bpmouseover(213,evt);" onmouseout="bpmouseout(213,evt);" transform="translate(546 165)" opacity="0"><ellipse cx="0" cy="0" rx="16" ry="16" fill="#0ff" style="stroke:none; opacity:0.75;" display="none"></ellipse><ellipse cx="0" cy="0" rx="10" ry="10" fill="#777" style="stroke:black;"></ellipse></g><g onmousedown="bpmousedown(214,evt);" onmouseover="bpmouseover(214,evt);" onmouseout="bpmouseout(214,evt);" transform="translate(314 165)" opacity="0"><ellipse cx="0" cy="0" rx="16" ry="16" fill="#0ff" style="stroke:none; opacity:0.75;" display="none"></ellipse><ellipse cx="0" cy="0" rx="10" ry="10" fill="#777" style="stroke:black;"></ellipse></g><g onmousedown="bpmousedown(217,evt);" onmouseover="bpmouseover(217,evt);" onmouseout="bpmouseout(217,evt);" transform="translate(263 181)" opacity="0"><ellipse cx="0" cy="0" rx="16" ry="16" fill="#0ff" style="stroke:none; opacity:0.75;" display="none"></ellipse><ellipse cx="0" cy="0" rx="10" ry="10" fill="#777" style="stroke:black;"></ellipse></g><g onmousedown="bpmousedown(220,evt);" onmouseover="bpmouseover(220,evt);" onmouseout="bpmouseout(220,evt);" transform="translate(375 181)" opacity="0"><ellipse cx="0" cy="0" rx="16" ry="16" fill="#0ff" style="stroke:none; opacity:0.75;" display="none"></ellipse><ellipse cx="0" cy="0" rx="10" ry="10" fill="#777" style="stroke:black;"></ellipse></g><g onmousedown="bpmousedown(221,evt);" onmouseover="bpmouseover(221,evt);" onmouseout="bpmouseout(221,evt);" transform="translate(375 336)" opacity="0"><ellipse cx="0" cy="0" rx="16" ry="16" fill="#0ff" style="stroke:none; opacity:0.75;" display="none"></ellipse><ellipse cx="0" cy="0" rx="10" ry="10" fill="#777" style="stroke:black;"></ellipse></g><g onmousedown="bpmousedown(224,evt);" onmouseover="bpmouseover(224,evt);" onmouseout="bpmouseout(224,evt);" transform="translate(530 259)" opacity="0"><ellipse cx="0" cy="0" rx="16" ry="16" fill="#0ff" style="stroke:none; opacity:0.75;" display="none"></ellipse><ellipse cx="0" cy="0" rx="10" ry="10" fill="#777" style="stroke:black;"></ellipse></g><g onmousedown="bpmousedown(227,evt);" onmouseover="bpmouseover(227,evt);" onmouseout="bpmouseout(227,evt);" transform="translate(182 259)" opacity="0"><ellipse cx="0" cy="0" rx="16" ry="16" fill="#0ff" style="stroke:none; opacity:0.75;" display="none"></ellipse><ellipse cx="0" cy="0" rx="10" ry="10" fill="#777" style="stroke:black;"></ellipse></g></g>
  <g id="ports"></g>
</g>
</svg>