<svg id="SVGCanvas" width="480px" height="270px" xmlns="http://www.w3.org/2000/svg" xmlns:xlink="http://www.w3.org/1999/xlink" onmouseup="null" onmousemove="null">
<rect id="background" x="0" y="0" height="100%" width="100%" fill="#bdbddf" onmousedown="bgmousedown(evt)"></rect>
<g id="foreground" transform="translate(11.116751269035547,0),scale(0.9137055837563451),translate(36,15.5)">
  <g id="edges"><g id="13"><path style="stroke:#bdbddf; stroke-width:8px; fill:none;" opacity="0.7" d="M 200,135 V 120 a 12,12 0 0,1 12,-12L 260,108"></path><g><path style="stroke:#ff0; stroke-width:8px; fill:none; " opacity="0" d="M 200,135 V 120 a 12,12 0 0,1 12,-12L 260,108"></path></g><path style="stroke:black; fill:none;" d="M 200,135 V 120 a 12,12 0 0,1 12,-12L 260,108"></path><g><g><path style="stroke:#0ff; stroke-width:8px; fill:none; " opacity="0" d="M 200,135 L 200,108" onmousedown="segmousedown(&quot;13&quot;,&quot;0&quot;,evt);" onmouseover="segmouseover(&quot;13&quot;,&quot;0&quot;,evt);" onmouseout="segmouseout(&quot;13&quot;,&quot;0&quot;,evt);" onclick="segclick(&quot;13&quot;,&quot;0&quot;,evt);"></path><path style="stroke:#0ff; stroke-width:8px; fill:none; " opacity="0" d="M 200,108 L 260,108" onmousedown="segmousedown(&quot;13&quot;,&quot;1&quot;,evt);" onmouseover="segmouseover(&quot;13&quot;,&quot;1&quot;,evt);" onmouseout="segmouseout(&quot;13&quot;,&quot;1&quot;,evt);" onclick="segclick(&quot;13&quot;,&quot;1&quot;,evt);"></path></g></g></g><g id="14"><path style="stroke:#bdbddf; stroke-width:8px; fill:none;" opacity="0.7" d="M 425,100L 425,175"></path><g><path style="stroke:#ff0; stroke-width:8px; fill:none; " opacity="0" d="M 425,100L 425,175"></path></g><path style="stroke:black; fill:none;" d="M 425,100L 425,175"></path><g><g><path style="stroke:#0ff; stroke-width:8px; fill:none; " opacity="0" d="M 425,100 L 425,175" onmousedown="segmousedown(&quot;14&quot;,&quot;0&quot;,evt);" onmouseover="segmouseover(&quot;14&quot;,&quot;0&quot;,evt);" onmouseout="segmouseout(&quot;14&quot;,&quot;0&quot;,evt);" onclick="segclick(&quot;14&quot;,&quot;0&quot;,evt);"></path></g></g></g><g id="15"><path style="stroke:#bdbddf; stroke-width:8px; fill:none;" opacity="0.7" d="M 0,175L 0,25"></path><g><path style="stroke:#ff0; stroke-width:8px; fill:none; " opacity="0" d="M 0,175L 0,25"></path></g><path style="stroke:black; fill:none;" d="M 0,175L 0,25"></path><g><g><path style="stroke:#0ff; stroke-width:8px; fill:none; " opacity="0" d="M 0,175 L 0,25" onmousedown="segmousedown(&quot;15&quot;,&quot;0&quot;,evt);" onmouseover="segmouseover(&quot;15&quot;,&quot;0&quot;,evt);" onmouseout="segmouseout(&quot;15&quot;,&quot;0&quot;,evt);" onclick="segclick(&quot;15&quot;,&quot;0&quot;,evt);"></path></g></g></g><g id="16"><path style="stroke:#bdbddf; stroke-width:8px; fill:none;" opacity="0.7" d="M 0,25L 275,25"></path><g><path style="stroke:#ff0; stroke-width:8px; fill:none; " opacity="0" d="M 0,25L 275,25"></path></g><path style="stroke:black; fill:none;" d="M 0,25L 275,25"></path><g><g><path style="stroke:#0ff; stroke-width:8px; fill:none; " opacity="0" d="M 0,25 L 275,25" onmousedown="segmousedown(&quot;16&quot;,&quot;0&quot;,evt);" onmouseover="segmouseover(&quot;16&quot;,&quot;0&quot;,evt);" onmouseout="segmouseout(&quot;16&quot;,&quot;0&quot;,evt);" onclick="segclick(&quot;16&quot;,&quot;0&quot;,evt);"></path></g></g></g><g id="17"><path style="stroke:#bdbddf; stroke-width:8px; fill:none;" opacity="0.7" d="M 275,25L 275,100"></path><g><path style="stroke:#ff0; stroke-width:8px; fill:none; " opacity="0" d="M 275,25L 275,100"></path></g><path style="stroke:black; fill:none;" d="M 275,25L 275,100"></path><g><g><path style="stroke:#0ff; stroke-width:8px; fill:none; " opacity="0" d="M 275,25 L 275,100" onmousedown="segmousedown(&quot;17&quot;,&quot;0&quot;,evt);" onmouseover="segmouseover(&quot;17&quot;,&quot;0&quot;,evt);" onmouseout="segmouseout(&quot;17&quot;,&quot;0&quot;,evt);" onclick="segclick(&quot;17&quot;,&quot;0&quot;,evt);"></path></g></g></g><g id="18"><path style="stroke:#bdbddf; stroke-width:8px; fill:none;" opacity="0.7" d="M 100,175L 0,175"></path><g><path style="stroke:#ff0; stroke-width:8px; fill:none; " opacity="0" d="M 100,175L 0,175"></path></g><path style="stroke:black; fill:none;" d="M 100,175L 0,175"></path><g><g><path style="stroke:#0ff; stroke-width:8px; fill:none; " opacity="0" d="M 100,175 L 0,175" onmousedown="segmousedown(&quot;18&quot;,&quot;0&quot;,evt);" onmouseover="segmouseover(&quot;18&quot;,&quot;0&quot;,evt);" onmouseout="segmouseout(&quot;18&quot;,&quot;0&quot;,evt);" onclick="segclick(&quot;18&quot;,&quot;0&quot;,evt);"></path></g></g></g><g id="19"><path style="stroke:#bdbddf; stroke-width:8px; fill:none;" opacity="0.7" d="M 100,100L 100,175"></path><g><path style="stroke:#ff0; stroke-width:8px; fill:none; " opacity="0" d="M 100,100L 100,175"></path></g><path style="stroke:black; fill:none;" d="M 100,100L 100,175"></path><g><g><path style="stroke:#0ff; stroke-width:8px; fill:none; " opacity="0" d="M 100,100 L 100,175" onmousedown="segmousedown(&quot;19&quot;,&quot;0&quot;,evt);" onmouseover="segmouseover(&quot;19&quot;,&quot;0&quot;,evt);" onmouseout="segmouseout(&quot;19&quot;,&quot;0&quot;,evt);" onclick="segclick(&quot;19&quot;,&quot;0&quot;,evt);"></path></g></g></g><g id="20"><path style="stroke:#bdbddf; stroke-width:8px; fill:none;" opacity="0.7" d="M 275,100L 275,225"></path><g><path style="stroke:#ff0; stroke-width:8px; fill:none; " opacity="0" d="M 275,100L 275,225"></path></g><path style="stroke:black; fill:none;" d="M 275,100L 275,225"></path><g><g><path style="stroke:#0ff; stroke-width:8px; fill:none; " opacity="0" d="M 275,100 L 275,225" onmousedown="segmousedown(&quot;20&quot;,&quot;0&quot;,evt);" onmouseover="segmouseover(&quot;20&quot;,&quot;0&quot;,evt);" onmouseout="segmouseout(&quot;20&quot;,&quot;0&quot;,evt);" onclick="segclick(&quot;20&quot;,&quot;0&quot;,evt);"></path></g></g></g><g id="21"><path style="stroke:#bdbddf; stroke-width:8px; fill:none;" opacity="0.7" d="M 275,225L 200,225"></path><g><path style="stroke:#ff0; stroke-width:8px; fill:none; " opacity="0" d="M 275,225L 200,225"></path></g><path style="stroke:black; fill:none;" d="M 275,225L 200,225"></path><g><g><path style="stroke:#0ff; stroke-width:8px; fill:none; " opacity="0" d="M 275,225 L 200,225" onmousedown="segmousedown(&quot;21&quot;,&quot;0&quot;,evt);" onmouseover="segmouseover(&quot;21&quot;,&quot;0&quot;,evt);" onmouseout="segmouseout(&quot;21&quot;,&quot;0&quot;,evt);" onclick="segclick(&quot;21&quot;,&quot;0&quot;,evt);"></path></g></g></g><g id="22"><path style="stroke:#bdbddf; stroke-width:8px; fill:none;" opacity="0.7" d="M 200,225L 200,150"></path><g><path style="stroke:#ff0; stroke-width:8px; fill:none; " opacity="0" d="M 200,225L 200,150"></path></g><path style="stroke:black; fill:none;" d="M 200,225L 200,150"></path><g><g><path style="stroke:#0ff; stroke-width:8px; fill:none; " opacity="0" d="M 200,225 L 200,150" onmousedown="segmousedown(&quot;22&quot;,&quot;0&quot;,evt);" onmouseover="segmouseover(&quot;22&quot;,&quot;0&quot;,evt);" onmouseout="segmouseout(&quot;22&quot;,&quot;0&quot;,evt);" onclick="segclick(&quot;22&quot;,&quot;0&quot;,evt);"></path></g></g></g><g id="23"><path style="stroke:#bdbddf; stroke-width:8px; fill:none;" opacity="0.7" d="M 425,175L 425,250"></path><g><path style="stroke:#ff0; stroke-width:8px; fill:none; " opacity="0" d="M 425,175L 425,250"></path></g><path style="stroke:black; fill:none;" d="M 425,175L 425,250"></path><g><g><path style="stroke:#0ff; stroke-width:8px; fill:none; " opacity="0" d="M 425,175 L 425,250" onmousedown="segmousedown(&quot;23&quot;,&quot;0&quot;,evt);" onmouseover="segmouseover(&quot;23&quot;,&quot;0&quot;,evt);" onmouseout="segmouseout(&quot;23&quot;,&quot;0&quot;,evt);" onclick="segclick(&quot;23&quot;,&quot;0&quot;,evt);"></path></g></g></g><g id="24"><path style="stroke:#bdbddf; stroke-width:8px; fill:none;" opacity="0.7" d="M 275,100L 425,100"></path><g><path style="stroke:#ff0; stroke-width:8px; fill:none; " opacity="0" d="M 275,100L 425,100"></path></g><path style="stroke:black; fill:none;" d="M 275,100L 425,100"></path><g><g><path style="stroke:#0ff; stroke-width:8px; fill:none; " opacity="0" d="M 275,100 L 425,100" onmousedown="segmousedown(&quot;24&quot;,&quot;0&quot;,evt);" onmouseover="segmouseover(&quot;24&quot;,&quot;0&quot;,evt);" onmouseout="segmouseout(&quot;24&quot;,&quot;0&quot;,evt);" onclick="segclick(&quot;24&quot;,&quot;0&quot;,evt);"></path></g></g></g><g id="25"><path style="stroke:#bdbddf; stroke-width:8px; fill:none;" opacity="0.7" d="M 275,100L 100,100"></path><g><path style="stroke:#ff0; stroke-width:8px; fill:none; " opacity="0" d="M 275,100L 100,100"></path></g><path style="stroke:black; fill:none;" d="M 275,100L 100,100"></path><g><g><path style="stroke:#0ff; stroke-width:8px; fill:none; " opacity="0" d="M 275,100 L 100,100" onmousedown="segmousedown(&quot;25&quot;,&quot;0&quot;,evt);" onmouseover="segmouseover(&quot;25&quot;,&quot;0&quot;,evt);" onmouseout="segmouseout(&quot;25&quot;,&quot;0&quot;,evt);" onclick="segclick(&quot;25&quot;,&quot;0&quot;,evt);"></path></g></g></g><g id="26"><path style="stroke:#bdbddf; stroke-width:8px; fill:none;" opacity="0.7" d="M 425,175L 350,175"></path><g><path style="stroke:#ff0; stroke-width:8px; fill:none; " opacity="0" d="M 425,175L 350,175"></path></g><path style="stroke:black; fill:none;" d="M 425,175L 350,175"></path><g><g><path style="stroke:#0ff; stroke-width:8px; fill:none; " opacity="0" d="M 425,175 L 350,175" onmousedown="segmousedown(&quot;26&quot;,&quot;0&quot;,evt);" onmouseover="segmouseover(&quot;26&quot;,&quot;0&quot;,evt);" onmouseout="segmouseout(&quot;26&quot;,&quot;0&quot;,evt);" onclick="segclick(&quot;26&quot;,&quot;0&quot;,evt);"></path></g></g></g></g>
  <g id="nodes"><g id="0" onmousedown="nodemousedown(0,evt);" onmouseover="nodemouseover(0,evt);" onmouseout="nodemouseout(0,evt);" transform="translate(425 100)"><rect x="-21" y="-21" width="42" height="42" fill="#0ff" style="stroke:none; opacity:0.75;" display="none"></rect><rect x="-15" y="-15" width="30" height="30" fill="#f0f0d2" style="stroke:black; opacity:1;"></rect></g><g id="1" onmousedown="nodemousedown(1,evt);" onmouseover="nodemouseover(1,evt);" onmouseout="nodemouseout(1,evt);" transform="translate(425 175)"><rect x="-31" y="-21" width="62" height="42" fill="#0ff" style="stroke:none; opacity:0.75;" display="none"></rect><rect x="-25" y="-15" width="50" height="30" fill="#f0f0d2" style="stroke:black; opacity:1;"></rect></g><g id="2" onmousedown="nodemousedown(2,evt);" onmouseover="nodemouseover(2,evt);" onmouseout="nodemouseout(2,evt);" transform="translate(275 225)"><rect x="-21" y="-34" width="42" height="68" fill="#0ff" style="stroke:none; opacity:0.75;" display="none"></rect><rect x="-15" y="-28" width="30" height="56" fill="#f0f0d2" style="stroke:black; opacity:1;"></rect></g><g id="3" onmousedown="nodemousedown(3,evt);" onmouseover="nodemouseover(3,evt);" onmouseout="nodemouseout(3,evt);" transform="translate(350 175)"><rect x="-21" y="-21" width="42" height="42" fill="#0ff" style="stroke:none; opacity:0.75;" display="none"></rect><rect x="-15" y="-15" width="30" height="30" fill="#f0f0d2" style="stroke:black; opacity:1;"></rect></g><g id="4" onmousedown="nodemousedown(4,evt);" onmouseover="nodemouseover(4,evt);" onmouseout="nodemouseout(4,evt);" transform="translate(275 100)"><rect x="-21" y="-21" width="42" height="42" fill="#0ff" style="stroke:none; opacity:0.75;" display="none"></rect><rect x="-15" y="-15" width="30" height="30" fill="#f0f0d2" style="stroke:black; opacity:1;"></rect></g><g id="5" onmousedown="nodemousedown(5,evt);" onmouseover="nodemouseover(5,evt);" onmouseout="nodemouseout(5,evt);" transform="translate(425 250)"><rect x="-21" y="-21" width="42" height="42" fill="#0ff" style="stroke:none; opacity:0.75;" display="none"></rect><rect x="-15" y="-15" width="30" height="30" fill="#f0f0d2" style="stroke:black; opacity:1;"></rect></g><g id="6" onmousedown="nodemousedown(6,evt);" onmouseover="nodemouseover(6,evt);" onmouseout="nodemouseout(6,evt);" transform="translate(200 150)"><rect x="-21" y="-21" width="42" height="42" fill="#0ff" style="stroke:none; opacity:0.75;" display="none"></rect><rect x="-15" y="-15" width="30" height="30" fill="#f0f0d2" style="stroke:black; opacity:1;"></rect></g><g id="7" onmousedown="nodemousedown(7,evt);" onmouseover="nodemouseover(7,evt);" onmouseout="nodemouseout(7,evt);" transform="translate(200 225)"><rect x="-21" y="-21" width="42" height="42" fill="#0ff" style="stroke:none; opacity:0.75;" display="none"></rect><rect x="-15" y="-15" width="30" height="30" fill="#f0f0d2" style="stroke:black; opacity:1;"></rect></g><g id="8" onmousedown="nodemousedown(8,evt);" onmouseover="nodemouseover(8,evt);" onmouseout="nodemouseout(8,evt);" transform="translate(100 100)"><rect x="-21" y="-21" width="42" height="42" fill="#0ff" style="stroke:none; opacity:0.75;" display="none"></rect><rect x="-15" y="-15" width="30" height="30" fill="#f0f0d2" style="stroke:black; opacity:1;"></rect></g><g id="9" onmousedown="nodemousedown(9,evt);" onmouseover="nodemouseover(9,evt);" onmouseout="nodemouseout(9,evt);" transform="translate(0 25)"><rect x="-27" y="-31.5" width="54" height="63" fill="#0ff" style="stroke:none; opacity:0.75;" display="none"></rect><rect x="-21" y="-25.5" width="42" height="51" fill="#f0f0d2" style="stroke:black; opacity:1;"></rect></g><g id="10" onmousedown="nodemousedown(10,evt);" onmouseover="nodemouseover(10,evt);" onmouseout="nodemouseout(10,evt);" transform="translate(275 25)"><rect x="-21" y="-21" width="42" height="42" fill="#0ff" style="stroke:none; opacity:0.75;" display="none"></rect><rect x="-15" y="-15" width="30" height="30" fill="#f0f0d2" style="stroke:black; opacity:1;"></rect></g><g id="11" onmousedown="nodemousedown(11,evt);" onmouseover="nodemouseover(11,evt);" onmouseout="nodemouseout(11,evt);" transform="translate(100 175)"><rect x="-32.5" y="-21" width="65" height="42" fill="#0ff" style="stroke:none; opacity:0.75;" display="none"></rect><rect x="-26.5" y="-15" width="53" height="30" fill="#f0f0d2" style="stroke:black; opacity:1;"></rect></g><g id="12" onmousedown="nodemousedown(12,evt);" onmouseover="nodemouseover(12,evt);" onmouseout="nodemouseout(12,evt);" transform="translate(0 175)"><rect x="-21" y="-21" width="42" height="42" fill="#0ff" style="stroke:none; opacity:0.75;" display="none"></rect><rect x="-15" y="-15" width="30" height="30" fill="#f0f0d2" style="stroke:black; opacity:1;"></rect></g></g>
  <g id="BPs"><g onmousedown="bpmousedown(29,evt);" onmouseover="bpmouseover(29,evt);" onmouseout="bpmouseout(29,evt);" transform="translate(200,108)" opacity="0"><ellipse cx="0" cy="0" rx="16" ry="16" fill="#0ff" style="stroke:none; opacity:0.75;" display="none"></ellipse><ellipse cx="0" cy="0" rx="4.3438845422363235" ry="4.3438845422363235" fill="#777" style="stroke:black;"></ellipse></g></g>
  <g id="ports"></g>
</g>
</svg>