<svg id="SVGCanvas" width="480px" height="270px" xmlns="http://www.w3.org/2000/svg" xmlns:xlink="http://www.w3.org/1999/xlink">
<rect id="background" x="0" y="0" height="100%" width="100%" fill="#bdbddf" onmousedown="bgmousedown(evt)"></rect>
<g id="foreground" transform="translate(105,0),scale(0.9473684210526315),translate(30,30)">
  <g id="edges"><g id="10"><path style="stroke:#bdbddf; stroke-width:8px; fill:none;" opacity="0.7" d="M 75,75L 75,0"></path><g><path style="stroke:#ff0; stroke-width:8px; fill:none; " opacity="0" d="M 75,75L 75,0"></path></g><path style="stroke:black; fill:none;" d="M 75,75L 75,0"></path><g><g><path style="stroke:#0ff; stroke-width:8px; fill:none; " opacity="0" d="M 75,75 L 75,0" onmousedown="segmousedown(&quot;10&quot;,&quot;0&quot;,evt);" onmouseover="segmouseover(&quot;10&quot;,&quot;0&quot;,evt);" onmouseout="segmouseout(&quot;10&quot;,&quot;0&quot;,evt);" onclick="segclick(&quot;10&quot;,&quot;0&quot;,evt);"></path></g></g></g><g id="11"><path style="stroke:#bdbddf; stroke-width:8px; fill:none;" opacity="0.7" d="M 75,75L 150,75"></path><g><path style="stroke:#ff0; stroke-width:8px; fill:none; " opacity="0" d="M 75,75L 150,75"></path></g><path style="stroke:black; fill:none;" d="M 75,75L 150,75"></path><g><g><path style="stroke:#0ff; stroke-width:8px; fill:none; " opacity="0" d="M 75,75 L 150,75" onmousedown="segmousedown(&quot;11&quot;,&quot;0&quot;,evt);" onmouseover="segmouseover(&quot;11&quot;,&quot;0&quot;,evt);" onmouseout="segmouseout(&quot;11&quot;,&quot;0&quot;,evt);" onclick="segclick(&quot;11&quot;,&quot;0&quot;,evt);"></path></g></g></g><g id="12"><path style="stroke:#bdbddf; stroke-width:8px; fill:none;" opacity="0.7" d="M 75,150L 75,225"></path><g><path style="stroke:#ff0; stroke-width:8px; fill:none; " opacity="0" d="M 75,150L 75,225"></path></g><path style="stroke:black; fill:none;" d="M 75,150L 75,225"></path><g><g><path style="stroke:#0ff; stroke-width:8px; fill:none; " opacity="0" d="M 75,150 L 75,225" onmousedown="segmousedown(&quot;12&quot;,&quot;0&quot;,evt);" onmouseover="segmouseover(&quot;12&quot;,&quot;0&quot;,evt);" onmouseout="segmouseout(&quot;12&quot;,&quot;0&quot;,evt);" onclick="segclick(&quot;12&quot;,&quot;0&quot;,evt);"></path></g></g></g><g id="13"><path style="stroke:#bdbddf; stroke-width:8px; fill:none;" opacity="0.7" d="M 75,150L 0,150"></path><g><path style="stroke:#ff0; stroke-width:8px; fill:none; " opacity="0" d="M 75,150L 0,150"></path></g><path style="stroke:black; fill:none;" d="M 75,150L 0,150"></path><g><g><path style="stroke:#0ff; stroke-width:8px; fill:none; " opacity="0" d="M 75,150 L 0,150" onmousedown="segmousedown(&quot;13&quot;,&quot;0&quot;,evt);" onmouseover="segmouseover(&quot;13&quot;,&quot;0&quot;,evt);" onmouseout="segmouseout(&quot;13&quot;,&quot;0&quot;,evt);" onclick="segclick(&quot;13&quot;,&quot;0&quot;,evt);"></path></g></g></g><g id="14"><path style="stroke:#bdbddf; stroke-width:8px; fill:none;" opacity="0.7" d="M 150,150L 225,150"></path><g><path style="stroke:#ff0; stroke-width:8px; fill:none; " opacity="0" d="M 150,150L 225,150"></path></g><path style="stroke:black; fill:none;" d="M 150,150L 225,150"></path><g><g><path style="stroke:#0ff; stroke-width:8px; fill:none; " opacity="0" d="M 150,150 L 225,150" onmousedown="segmousedown(&quot;14&quot;,&quot;0&quot;,evt);" onmouseover="segmouseover(&quot;14&quot;,&quot;0&quot;,evt);" onmouseout="segmouseout(&quot;14&quot;,&quot;0&quot;,evt);" onclick="segclick(&quot;14&quot;,&quot;0&quot;,evt);"></path></g></g></g><g id="15"><path style="stroke:#bdbddf; stroke-width:8px; fill:none;" opacity="0.7" d="M 225,150L 225,225"></path><g><path style="stroke:#ff0; stroke-width:8px; fill:none; " opacity="0" d="M 225,150L 225,225"></path></g><path style="stroke:black; fill:none;" d="M 225,150L 225,225"></path><g><g><path style="stroke:#0ff; stroke-width:8px; fill:none; " opacity="0" d="M 225,150 L 225,225" onmousedown="segmousedown(&quot;15&quot;,&quot;0&quot;,evt);" onmouseover="segmouseover(&quot;15&quot;,&quot;0&quot;,evt);" onmouseout="segmouseout(&quot;15&quot;,&quot;0&quot;,evt);" onclick="segclick(&quot;15&quot;,&quot;0&quot;,evt);"></path></g></g></g><g id="16"><path style="stroke:#bdbddf; stroke-width:8px; fill:none;" opacity="0.7" d="M 75,150L 75,75"></path><g><path style="stroke:#ff0; stroke-width:8px; fill:none; " opacity="0" d="M 75,150L 75,75"></path></g><path style="stroke:black; fill:none;" d="M 75,150L 75,75"></path><g><g><path style="stroke:#0ff; stroke-width:8px; fill:none; " opacity="0" d="M 75,150 L 75,75" onmousedown="segmousedown(&quot;16&quot;,&quot;0&quot;,evt);" onmouseover="segmouseover(&quot;16&quot;,&quot;0&quot;,evt);" onmouseout="segmouseout(&quot;16&quot;,&quot;0&quot;,evt);" onclick="segclick(&quot;16&quot;,&quot;0&quot;,evt);"></path></g></g></g><g id="17"><path style="stroke:#bdbddf; stroke-width:8px; fill:none;" opacity="0.7" d="M 75,150L 150,150"></path><g><path style="stroke:#ff0; stroke-width:8px; fill:none; " opacity="0" d="M 75,150L 150,150"></path></g><path style="stroke:black; fill:none;" d="M 75,150L 150,150"></path><g><g><path style="stroke:#0ff; stroke-width:8px; fill:none; " opacity="0" d="M 75,150 L 150,150" onmousedown="segmousedown(&quot;17&quot;,&quot;0&quot;,evt);" onmouseover="segmouseover(&quot;17&quot;,&quot;0&quot;,evt);" onmouseout="segmouseout(&quot;17&quot;,&quot;0&quot;,evt);" onclick="segclick(&quot;17&quot;,&quot;0&quot;,evt);"></path></g></g></g><g id="18"><path style="stroke:#bdbddf; stroke-width:8px; fill:none;" opacity="0.7" d="M 225,225L 150,225"></path><g><path style="stroke:#ff0; stroke-width:8px; fill:none; " opacity="0" d="M 225,225L 150,225"></path></g><path style="stroke:black; fill:none;" d="M 225,225L 150,225"></path><g><g><path style="stroke:#0ff; stroke-width:8px; fill:none; " opacity="0" d="M 225,225 L 150,225" onmousedown="segmousedown(&quot;18&quot;,&quot;0&quot;,evt);" onmouseover="segmouseover(&quot;18&quot;,&quot;0&quot;,evt);" onmouseout="segmouseout(&quot;18&quot;,&quot;0&quot;,evt);" onclick="segclick(&quot;18&quot;,&quot;0&quot;,evt);"></path></g></g></g><g id="19"><path style="stroke:#bdbddf; stroke-width:8px; fill:none;" opacity="0.7" d="M 150,225L 150,150"></path><g><path style="stroke:#ff0; stroke-width:8px; fill:none; " opacity="0" d="M 150,225L 150,150"></path></g><path style="stroke:black; fill:none;" d="M 150,225L 150,150"></path><g><g><path style="stroke:#0ff; stroke-width:8px; fill:none; " opacity="0" d="M 150,225 L 150,150" onmousedown="segmousedown(&quot;19&quot;,&quot;0&quot;,evt);" onmouseover="segmouseover(&quot;19&quot;,&quot;0&quot;,evt);" onmouseout="segmouseout(&quot;19&quot;,&quot;0&quot;,evt);" onclick="segclick(&quot;19&quot;,&quot;0&quot;,evt);"></path></g></g></g></g>
  <g id="nodes"><g id="0" onmousedown="nodemousedown(0,evt);" onmouseover="nodemouseover(0,evt);" onmouseout="nodemouseout(0,evt);" transform="translate(225 225)"><rect x="-21" y="-21" width="42" height="42" fill="#0ff" style="stroke:none; opacity:0.75;" display="none"></rect><rect x="-15" y="-15" width="30" height="30" fill="#f0f0d2" style="stroke:black; opacity:1;"></rect></g><g id="1" onmousedown="nodemousedown(1,evt);" onmouseover="nodemouseover(1,evt);" onmouseout="nodemouseout(1,evt);" transform="translate(225 150)"><rect x="-21" y="-21" width="42" height="42" fill="#0ff" style="stroke:none; opacity:0.75;" display="none"></rect><rect x="-15" y="-15" width="30" height="30" fill="#f0f0d2" style="stroke:black; opacity:1;"></rect></g><g id="2" onmousedown="nodemousedown(2,evt);" onmouseover="nodemouseover(2,evt);" onmouseout="nodemouseout(2,evt);" transform="translate(75 150)"><rect x="-21" y="-21" width="42" height="42" fill="#0ff" style="stroke:none; opacity:0.75;" display="none"></rect><rect x="-15" y="-15" width="30" height="30" fill="#f0f0d2" style="stroke:black; opacity:1;"></rect></g><g id="3" onmousedown="nodemousedown(3,evt);" onmouseover="nodemouseover(3,evt);" onmouseout="nodemouseout(3,evt);" transform="translate(75 75)"><rect x="-21" y="-21" width="42" height="42" fill="#0ff" style="stroke:none; opacity:0.75;" display="none"></rect><rect x="-15" y="-15" width="30" height="30" fill="#f0f0d2" style="stroke:black; opacity:1;"></rect></g><g id="4" onmousedown="nodemousedown(4,evt);" onmouseover="nodemouseover(4,evt);" onmouseout="nodemouseout(4,evt);" transform="translate(150 225)"><rect x="-21" y="-21" width="42" height="42" fill="#0ff" style="stroke:none; opacity:0.75;" display="none"></rect><rect x="-15" y="-15" width="30" height="30" fill="#f0f0d2" style="stroke:black; opacity:1;"></rect></g><g id="5" onmousedown="nodemousedown(5,evt);" onmouseover="nodemouseover(5,evt);" onmouseout="nodemouseout(5,evt);" transform="translate(150 150)"><rect x="-21" y="-21" width="42" height="42" fill="#0ff" style="stroke:none; opacity:0.75;" display="none"></rect><rect x="-15" y="-15" width="30" height="30" fill="#f0f0d2" style="stroke:black; opacity:1;"></rect></g><g id="6" onmousedown="nodemousedown(6,evt);" onmouseover="nodemouseover(6,evt);" onmouseout="nodemouseout(6,evt);" transform="translate(75 0)"><rect x="-21" y="-21" width="42" height="42" fill="#0ff" style="stroke:none; opacity:0.75;" display="none"></rect><rect x="-15" y="-15" width="30" height="30" fill="#f0f0d2" style="stroke:black; opacity:1;"></rect></g><g id="7" onmousedown="nodemousedown(7,evt);" onmouseover="nodemouseover(7,evt);" onmouseout="nodemouseout(7,evt);" transform="translate(75 225)"><rect x="-21" y="-21" width="42" height="42" fill="#0ff" style="stroke:none; opacity:0.75;" display="none"></rect><rect x="-15" y="-15" width="30" height="30" fill="#f0f0d2" style="stroke:black; opacity:1;"></rect></g><g id="8" onmousedown="nodemousedown(8,evt);" onmouseover="nodemouseover(8,evt);" onmouseout="nodemouseout(8,evt);" transform="translate(0 150)"><rect x="-21" y="-21" width="42" height="42" fill="#0ff" style="stroke:none; opacity:0.75;" display="none"></rect><rect x="-15" y="-15" width="30" height="30" fill="#f0f0d2" style="stroke:black; opacity:1;"></rect></g><g id="9" onmousedown="nodemousedown(9,evt);" onmouseover="nodemouseover(9,evt);" onmouseout="nodemouseout(9,evt);" transform="translate(150 75)"><rect x="-21" y="-21" width="42" height="42" fill="#0ff" style="stroke:none; opacity:0.75;" display="none"></rect><rect x="-15" y="-15" width="30" height="30" fill="#f0f0d2" style="stroke:black; opacity:1;"></rect></g></g>
  <g id="BPs"></g>
  <g id="ports"></g>
</g>
</svg>