<?xml version="1.0" encoding="UTF-8"?>
<svg xmlns="http://www.w3.org/2000/svg" width="300px" height="169px">
<rect x="0" y="0" width="300" height="169" stroke="none" stroke-width="1" fill="#bdbddf"/>
<g transform="scale(0.625),translate(44.00,35.00),scale(1.3),translate(150.00,15.00)">
    <path d="M 90.00,60.000000 H 125.00 a 10.00,10.00 0 0,1 10.00,10.00L 135.00,120.000000" stroke="black" stroke-width="1" fill="none"/>
    <path d="M -90.00,60.000000 H -125.00 a 10.00,10.00 0 0,0 -10.00,10.00L -135.00,120.000000" stroke="black" stroke-width="1" fill="none"/>
    <path d="M 90.00,60.000000 H 55.00 a 10.00,10.00 0 0,0 -10.00,10.00L 45.00,120.000000" stroke="black" stroke-width="1" fill="none"/>
    <path d="M 0.00,0.000000 H 80.00 a 10.00,10.00 0 0,1 10.00,10.00L 90.00,60.000000" stroke="black" stroke-width="1" fill="none"/>
    <path d="M 0.00,0.000000 H -80.00 a 10.00,10.00 0 0,0 -10.00,10.00L -90.00,60.000000" stroke="black" stroke-width="1" fill="none"/>
    <path d="M -90.00,60.000000 H -55.00 a 10.00,10.00 0 0,1 10.00,10.00L -45.00,120.000000" stroke="black" stroke-width="1" fill="none"/>
    <rect x="-15.0" y="-15.0" width="30.0" height="30.0" stroke="black" stroke-width="1" fill="#f0f0d2"/>
    <rect x="-105.0" y="45.0" width="30.0" height="30.0" stroke="black" stroke-width="1" fill="#f0f0d2"/>
    <rect x="75.0" y="45.0" width="30.0" height="30.0" stroke="black" stroke-width="1" fill="#f0f0d2"/>
    <rect x="-150.0" y="105.0" width="30.0" height="30.0" stroke="black" stroke-width="1" fill="#f0f0d2"/>
    <rect x="-60.0" y="105.0" width="30.0" height="30.0" stroke="black" stroke-width="1" fill="#f0f0d2"/>
    <rect x="30.0" y="105.0" width="30.0" height="30.0" stroke="black" stroke-width="1" fill="#f0f0d2"/>
    <rect x="120.0" y="105.0" width="30.0" height="30.0" stroke="black" stroke-width="1" fill="#f0f0d2"/>
</g>
</svg>
