<?xml version="1.0" encoding="UTF-8"?>
<svg id="canvasSVG" xmlns="http://www.w3.org/2000/svg" width="480px" height="270px">
<rect x="0" y="0" width="480" height="270" stroke="none" stroke-width="1" id="" onclick="null" fill="#bdbddf"/>
<g id="outerGroup">
<g transform="translate(90.16,20.00),scale(0.22),translate(-15.00,-15.00)">
    <path d="M 424.99,273.200000 V 333.20 a 0.00,0.00 0 0,0 0.00,0.00L 424.99,333.200000" stroke="black" stroke-width="1" fill="none"/>
    <path d="M 1083.98,213.200000 H 1023.97 a 0.00,0.00 0 0,0 -0.00,0.00L 1023.97,213.200000" stroke="black" stroke-width="1" fill="none"/>
    <path d="M 304.98,548.200000 V 528.20 a 10.00,10.00 0 0,1 10.00,-10.00 H 350.99 a 10.00,10.00 0 0,0 10.00,-10.00 V 490.20 a 2.00,2.00 0 0,1 2.00,-2.00L 364.99,488.200000" stroke="black" stroke-width="1" fill="none"/>
    <path d="M 382.18,942.200000 H 494.52 a 0.00,0.00 0 0,1 0.00,0.00L 494.52,942.200000" stroke="black" stroke-width="1" fill="none"/>
    <path d="M 424.99,608.200000 V 548.20 a 0.00,0.00 0 0,1 0.00,-0.00L 424.99,548.200000" stroke="black" stroke-width="1" fill="none"/>
    <path d="M 946.95,668.200000 V 608.20 a 0.00,0.00 0 0,1 0.00,-0.00L 946.95,608.200000" stroke="black" stroke-width="1" fill="none"/>
    <path d="M 244.99,273.200000 V 333.20 a 0.00,0.00 0 0,0 0.00,0.00L 244.99,333.200000" stroke="black" stroke-width="1" fill="none"/>
    <path d="M 449.46,738.200000 H 628.98 a 0.00,0.00 0 0,1 0.00,0.00L 628.98,738.200000" stroke="black" stroke-width="1" fill="none"/>
    <path d="M 946.95,608.200000 V 588.20 a 10.00,10.00 0 0,1 10.00,-10.00 H 962.21 a 10.00,10.00 0 0,0 10.00,-10.00 V 549.20 a 1.00,1.00 0 0,1 1.00,-1.00L 974.21,548.200000" stroke="black" stroke-width="1" fill="none"/>
    <path d="M 843.97,153.200000 V 199.20 a 10.00,10.00 0 0,1 -10.00,10.00 H 810.97 a 2.00,2.00 0 0,0 -2.00,2.00L 808.97,213.200000" stroke="black" stroke-width="1" fill="none"/>
    <path d="M 1383.97,428.200000 H 1323.97 a 0.00,0.00 0 0,0 -0.00,0.00L 1323.97,428.200000" stroke="black" stroke-width="1" fill="none"/>
    <path d="M 568.98,643.200000 V 643.21 a 0.00,0.00 0 0,0 0.00,0.00 H 628.98 a 0.00,0.00 0 0,0 0.00,-0.00L 628.98,643.200000" stroke="black" stroke-width="1" fill="none"/>
    <path d="M 270.00,880.150000 V 799.70 a 0.00,0.00 0 0,1 0.00,-0.00L 270.00,799.700000" stroke="black" stroke-width="1" fill="none"/>
    <path d="M 628.98,643.200000 H 628.98 a 0.00,0.00 0 0,1 -0.00,-0.00 V 488.20 a 0.00,0.00 0 0,1 0.00,-0.00L 628.98,488.200000" stroke="black" stroke-width="1" fill="none"/>
    <path d="M 397.83,668.200000 V 648.20 a 10.00,10.00 0 0,1 10.00,-10.00 H 412.99 a 10.00,10.00 0 0,0 10.00,-10.00 V 609.20 a 1.00,1.00 0 0,1 1.00,-1.00L 424.99,608.200000" stroke="black" stroke-width="1" fill="none"/>
    <path d="M 688.98,93.200000 H 628.98 a 0.00,0.00 0 0,0 -0.00,0.00L 628.98,93.200000" stroke="black" stroke-width="1" fill="none"/>
    <path d="M 448.98,90.000000 H 468.98 a 10.00,10.00 0 0,0 10.00,-10.00 V 70.20 a 10.00,10.00 0 0,1 10.00,-10.00 H 507.98 a 1.00,1.00 0 0,0 1.00,-1.00L 508.98,58.200000" stroke="black" stroke-width="1" fill="none"/>
    <path d="M 448.98,30.000000 H 468.98 a 10.00,10.00 0 0,1 10.00,10.00 V 46.20 a 10.00,10.00 0 0,0 10.00,10.00 H 507.98 a 1.00,1.00 0 0,1 1.00,1.00L 508.98,58.200000" stroke="black" stroke-width="1" fill="none"/>
    <path d="M 568.98,523.200000 H 590.98 a 10.00,10.00 0 0,1 10.00,10.00 V 625.21 a 10.00,10.00 0 0,0 10.00,10.00 H 624.99 a 4.00,4.00 0 0,1 4.00,4.00L 628.98,643.200000" stroke="black" stroke-width="1" fill="none"/>
    <path d="M 628.98,488.200000 V 393.20 a 0.00,0.00 0 0,1 0.00,-0.00L 628.98,393.200000" stroke="black" stroke-width="1" fill="none"/>
    <path d="M 508.98,393.200000 H 568.98 a 0.00,0.00 0 0,1 0.00,0.00L 568.98,393.200000" stroke="black" stroke-width="1" fill="none"/>
    <path d="M 1383.97,368.200000 H 1323.97 a 0.00,0.00 0 0,0 -0.00,0.00L 1323.97,368.200000" stroke="black" stroke-width="1" fill="none"/>
    <path d="M 568.98,583.200000 H 586.98 a 10.00,10.00 0 0,1 10.00,10.00 V 629.21 a 10.00,10.00 0 0,0 10.00,10.00 H 626.99 a 2.00,2.00 0 0,1 2.00,2.00L 628.98,643.200000" stroke="black" stroke-width="1" fill="none"/>
    <path d="M 449.46,738.200000 H 270.00 a 0.00,0.00 0 0,0 -0.00,0.00L 270.00,738.200000" stroke="black" stroke-width="1" fill="none"/>
    <path d="M 1383.97,608.200000 H 1323.97 a 0.00,0.00 0 0,0 -0.00,0.00L 1323.97,608.200000" stroke="black" stroke-width="1" fill="none"/>
    <path d="M 210.00,213.200000 V 738.20 a 0.00,0.00 0 0,0 0.00,0.00L 210.00,738.200000" stroke="black" stroke-width="1" fill="none"/>
    <path d="M 748.98,93.200000 H 808.97 a 0.00,0.00 0 0,1 0.00,0.00L 808.97,93.200000" stroke="black" stroke-width="1" fill="none"/>
    <path d="M 953.83,333.200000 V 320.70 a 10.00,10.00 0 0,0 -10.00,-10.00 H 476.99 a 10.00,10.00 0 0,0 -10.00,10.00 V 383.20 a 10.00,10.00 0 0,1 -10.00,10.00 H 364.99 a 0.00,0.00 0 0,0 -0.00,0.00L 364.99,393.200000" stroke="black" stroke-width="1" fill="none"/>
    <path d="M 568.98,453.200000 H 588.98 a 10.00,10.00 0 0,0 10.00,-10.00 V 407.20 a 10.00,10.00 0 0,1 10.00,-10.00 H 626.98 a 2.00,2.00 0 0,0 2.00,-2.00L 628.98,393.200000" stroke="black" stroke-width="1" fill="none"/>
    <path d="M 628.98,738.200000 V 643.20 a 0.00,0.00 0 0,1 0.00,-0.00L 628.98,643.200000" stroke="black" stroke-width="1" fill="none"/>
    <path d="M 797.97,643.200000 V 463.81 a 5.50,5.50 0 0,1 5.50,-5.50 H 803.47 a 5.50,5.50 0 0,0 5.50,-5.50 V 273.42 a 0.00,0.00 0 0,1 0.00,-0.00L 808.97,273.420000" stroke="black" stroke-width="1" fill="none"/>
    <path d="M 628.98,858.200000 V 798.20 a 0.00,0.00 0 0,1 0.00,-0.00L 628.98,798.200000" stroke="black" stroke-width="1" fill="none"/>
    <path d="M 1323.97,368.200000 H 1263.97 a 0.00,0.00 0 0,0 -0.00,0.00L 1263.97,368.200000" stroke="black" stroke-width="1" fill="none"/>
    <path d="M 1143.97,213.200000 H 1083.98 a 0.00,0.00 0 0,0 -0.00,0.00L 1083.98,213.200000" stroke="black" stroke-width="1" fill="none"/>
    <path d="M 1143.97,213.200000 V 333.20 a 0.00,0.00 0 0,0 0.00,0.00L 1143.97,333.200000" stroke="black" stroke-width="1" fill="none"/>
    <path d="M 1323.97,428.200000 H 1303.97 a 10.00,10.00 0 0,0 -10.00,10.00 V 474.20 a 10.00,10.00 0 0,1 -10.00,10.00 H 1265.97 a 2.00,2.00 0 0,0 -2.00,2.00L 1263.97,488.200000" stroke="black" stroke-width="1" fill="none"/>
    <path d="M 903.97,153.200000 V 173.20 a 10.00,10.00 0 0,0 10.00,10.00 H 949.97 a 10.00,10.00 0 0,1 10.00,10.00 V 211.20 a 2.00,2.00 0 0,0 2.00,2.00L 963.97,213.200000" stroke="black" stroke-width="1" fill="none"/>
    <path d="M 364.99,488.200000 H 628.98 a 0.00,0.00 0 0,1 0.00,0.00L 628.98,488.200000" stroke="black" stroke-width="1" fill="none"/>
    <path d="M 568.98,58.200000 H 590.98 a 10.00,10.00 0 0,1 10.00,10.00 V 141.20 a 10.00,10.00 0 0,0 10.00,10.00 H 627.98 a 1.00,1.00 0 0,1 1.00,1.00L 628.98,153.200000" stroke="black" stroke-width="1" fill="none"/>
    <path d="M 568.98,118.200000 H 586.98 a 10.00,10.00 0 0,1 10.00,10.00 V 145.20 a 10.00,10.00 0 0,0 10.00,10.00 H 627.98 a 1.00,1.00 0 0,0 1.00,-1.00L 628.98,153.200000" stroke="black" stroke-width="1" fill="none"/>
    <path d="M 568.98,393.200000 H 628.98 a 0.00,0.00 0 0,1 0.00,0.00L 628.98,393.200000" stroke="black" stroke-width="1" fill="none"/>
    <path d="M 364.98,608.200000 V 588.20 a 10.00,10.00 0 0,0 -10.00,-10.00 H 318.98 a 10.00,10.00 0 0,1 -10.00,-10.00 V 550.20 a 2.00,2.00 0 0,0 -2.00,-2.00L 304.98,548.200000" stroke="black" stroke-width="1" fill="none"/>
    <path d="M 783.98,768.200000 H 723.98 a 0.00,0.00 0 0,0 -0.00,0.00L 723.98,768.200000" stroke="black" stroke-width="1" fill="none"/>
    <path d="M 1263.97,548.200000 H 1245.97 a 10.00,10.00 0 0,1 -10.00,-10.00 V 502.20 a 10.00,10.00 0 0,0 -10.00,-10.00 H 1205.97 a 2.00,2.00 0 0,1 -2.00,-2.00L 1203.97,488.200000" stroke="black" stroke-width="1" fill="none"/>
    <path d="M 748.98,93.200000 H 688.98 a 0.00,0.00 0 0,0 -0.00,0.00L 688.98,93.200000" stroke="black" stroke-width="1" fill="none"/>
    <path d="M 568.98,798.200000 V 778.20 a 10.00,10.00 0 0,1 10.00,-10.00 H 614.98 a 10.00,10.00 0 0,0 10.00,-10.00 V 740.20 a 2.00,2.00 0 0,1 2.00,-2.00L 628.98,738.200000" stroke="black" stroke-width="1" fill="none"/>
    <path d="M 607.08,1002.200000 V 942.20 a 0.00,0.00 0 0,1 0.00,-0.00L 607.08,942.200000" stroke="black" stroke-width="1" fill="none"/>
    <path d="M 424.99,333.200000 V 353.20 a 10.00,10.00 0 0,1 -10.00,10.00 H 379.00 a 10.00,10.00 0 0,0 -10.00,10.00 V 391.19 a 2.00,2.00 0 0,1 -2.00,2.00L 364.99,393.200000" stroke="black" stroke-width="1" fill="none"/>
    <path d="M 575.77,1062.200000 V 1042.20 a 10.00,10.00 0 0,1 10.00,-10.00 H 595.08 a 10.00,10.00 0 0,0 10.00,-10.00 V 1003.20 a 1.00,1.00 0 0,1 1.00,-1.00L 607.08,1002.200000" stroke="black" stroke-width="1" fill="none"/>
    <path d="M 663.98,548.200000 V 530.20 a 10.00,10.00 0 0,0 -10.00,-10.00 H 642.97 a 10.00,10.00 0 0,1 -10.00,-10.00 V 490.19 a 2.00,2.00 0 0,0 -2.00,-2.00L 628.98,488.200000" stroke="black" stroke-width="1" fill="none"/>
    <path d="M 270.00,799.700000 V 738.20 a 0.00,0.00 0 0,1 0.00,-0.00L 270.00,738.200000" stroke="black" stroke-width="1" fill="none"/>
    <path d="M 304.98,608.200000 V 548.20 a 0.00,0.00 0 0,1 0.00,-0.00L 304.98,548.200000" stroke="black" stroke-width="1" fill="none"/>
    <path d="M 963.97,153.200000 V 213.20 a 0.00,0.00 0 0,0 0.00,0.00L 963.97,213.200000" stroke="black" stroke-width="1" fill="none"/>
    <path d="M 925.66,453.200000 V 393.20 a 0.00,0.00 0 0,1 0.00,-0.00L 925.66,393.200000" stroke="black" stroke-width="1" fill="none"/>
    <path d="M 1203.97,548.200000 H 1183.97 a 10.00,10.00 0 0,1 -10.00,-10.00 V 502.20 a 10.00,10.00 0 0,0 -10.00,-10.00 H 1145.97 a 2.00,2.00 0 0,1 -2.00,-2.00L 1143.97,488.200000" stroke="black" stroke-width="1" fill="none"/>
    <path d="M 1203.97,488.200000 H 1143.97 a 0.00,0.00 0 0,0 -0.00,0.00L 1143.97,488.200000" stroke="black" stroke-width="1" fill="none"/>
    <path d="M 270.00,942.200000 V 880.15 a 0.00,0.00 0 0,1 0.00,-0.00L 270.00,880.150000" stroke="black" stroke-width="1" fill="none"/>
    <path d="M 1383.97,548.200000 H 1323.97 a 0.00,0.00 0 0,0 -0.00,0.00L 1323.97,548.200000" stroke="black" stroke-width="1" fill="none"/>
    <path d="M 90.00,707.390000 H 110.00 a 10.00,10.00 0 0,1 10.00,10.00 V 726.20 a 10.00,10.00 0 0,0 10.00,10.00 H 149.00 a 1.00,1.00 0 0,1 1.00,1.00L 150.00,738.200000" stroke="black" stroke-width="1" fill="none"/>
    <path d="M 210.00,799.700000 H 270.00 a 0.00,0.00 0 0,1 0.00,0.00L 270.00,799.700000" stroke="black" stroke-width="1" fill="none"/>
    <path d="M 457.83,668.200000 V 648.20 a 10.00,10.00 0 0,0 -10.00,-10.00 H 436.99 a 10.00,10.00 0 0,1 -10.00,-10.00 V 609.20 a 1.00,1.00 0 0,0 -1.00,-1.00L 424.99,608.200000" stroke="black" stroke-width="1" fill="none"/>
    <path d="M 635.77,1062.200000 V 1042.20 a 10.00,10.00 0 0,0 -10.00,-10.00 H 619.08 a 10.00,10.00 0 0,1 -10.00,-10.00 V 1003.20 a 1.00,1.00 0 0,0 -1.00,-1.00L 607.08,1002.200000" stroke="black" stroke-width="1" fill="none"/>
    <path d="M 1143.97,410.700000 V 488.20 a 0.00,0.00 0 0,0 0.00,0.00L 1143.97,488.200000" stroke="black" stroke-width="1" fill="none"/>
    <path d="M 1203.97,368.200000 H 1183.97 a 10.00,10.00 0 0,1 -10.00,-10.00 V 345.20 a 10.00,10.00 0 0,0 -10.00,-10.00 H 1144.97 a 1.00,1.00 0 0,1 -1.00,-1.00L 1143.97,333.200000" stroke="black" stroke-width="1" fill="none"/>
    <path d="M 808.97,273.420000 V 213.20 a 0.00,0.00 0 0,1 0.00,-0.00L 808.97,213.200000" stroke="black" stroke-width="1" fill="none"/>
    <path d="M 1023.97,153.200000 V 173.20 a 10.00,10.00 0 0,1 -10.00,10.00 H 977.97 a 10.00,10.00 0 0,0 -10.00,10.00 V 211.20 a 2.00,2.00 0 0,1 -2.00,2.00L 963.97,213.200000" stroke="black" stroke-width="1" fill="none"/>
    <path d="M 1263.97,428.200000 H 1245.97 a 10.00,10.00 0 0,0 -10.00,10.00 V 474.20 a 10.00,10.00 0 0,1 -10.00,10.00 H 1205.97 a 2.00,2.00 0 0,0 -2.00,2.00L 1203.97,488.200000" stroke="black" stroke-width="1" fill="none"/>
    <path d="M 304.99,333.200000 V 351.20 a 10.00,10.00 0 0,0 10.00,10.00 H 351.00 a 10.00,10.00 0 0,1 10.00,10.00 V 391.20 a 2.00,2.00 0 0,0 2.00,2.00L 364.99,393.200000" stroke="black" stroke-width="1" fill="none"/>
    <path d="M 1006.96,608.200000 V 588.20 a 10.00,10.00 0 0,0 -10.00,-10.00 H 986.21 a 10.00,10.00 0 0,1 -10.00,-10.00 V 549.20 a 1.00,1.00 0 0,0 -1.00,-1.00L 974.21,548.200000" stroke="black" stroke-width="1" fill="none"/>
    <path d="M 1143.97,333.200000 V 410.70 a 0.00,0.00 0 0,0 0.00,0.00L 1143.97,410.700000" stroke="black" stroke-width="1" fill="none"/>
    <path d="M 364.99,393.200000 V 488.20 a 0.00,0.00 0 0,0 0.00,0.00L 364.99,488.200000" stroke="black" stroke-width="1" fill="none"/>
    <path d="M 723.98,548.200000 V 526.20 a 10.00,10.00 0 0,0 -10.00,-10.00 H 646.97 a 10.00,10.00 0 0,1 -10.00,-10.00 V 492.19 a 4.00,4.00 0 0,0 -4.00,-4.00L 628.98,488.200000" stroke="black" stroke-width="1" fill="none"/>
    <path d="M 607.08,942.200000 H 713.98 a 10.00,10.00 0 0,0 10.00,-10.00 V 768.20 a 0.00,0.00 0 0,1 0.00,-0.00L 723.98,768.200000" stroke="black" stroke-width="1" fill="none"/>
    <path d="M 1323.97,488.200000 H 1263.97 a 0.00,0.00 0 0,0 -0.00,0.00L 1263.97,488.200000" stroke="black" stroke-width="1" fill="none"/>
    <path d="M 270.00,488.200000 H 364.99 a 0.00,0.00 0 0,1 0.00,0.00L 364.99,488.200000" stroke="black" stroke-width="1" fill="none"/>
    <path d="M 723.98,705.250000 V 657.20 a 10.00,10.00 0 0,0 -10.00,-10.00 H 630.98 a 2.00,2.00 0 0,1 -2.00,-2.00L 628.98,643.200000" stroke="black" stroke-width="1" fill="none"/>
    <path d="M 210.00,738.200000 H 270.00 a 0.00,0.00 0 0,1 0.00,0.00L 270.00,738.200000" stroke="black" stroke-width="1" fill="none"/>
    <path d="M 808.97,213.200000 H 628.98 a 0.00,0.00 0 0,0 -0.00,0.00L 628.98,213.200000" stroke="black" stroke-width="1" fill="none"/>
    <path d="M 974.21,548.200000 V 488.20 a 0.00,0.00 0 0,1 0.00,-0.00L 974.21,488.200000" stroke="black" stroke-width="1" fill="none"/>
    <path d="M 963.97,213.200000 H 808.97 a 0.00,0.00 0 0,0 -0.00,0.00L 808.97,213.200000" stroke="black" stroke-width="1" fill="none"/>
    <path d="M 424.99,548.200000 V 528.20 a 10.00,10.00 0 0,0 -10.00,-10.00 H 378.99 a 10.00,10.00 0 0,1 -10.00,-10.00 V 490.20 a 2.00,2.00 0 0,0 -2.00,-2.00L 364.99,488.200000" stroke="black" stroke-width="1" fill="none"/>
    <path d="M 963.97,93.200000 V 153.20 a 0.00,0.00 0 0,0 0.00,0.00L 963.97,153.200000" stroke="black" stroke-width="1" fill="none"/>
    <path d="M 424.99,213.200000 H 628.98 a 0.00,0.00 0 0,1 0.00,0.00L 628.98,213.200000" stroke="black" stroke-width="1" fill="none"/>
    <path d="M 382.18,942.200000 H 270.00 a 0.00,0.00 0 0,0 -0.00,0.00L 270.00,942.200000" stroke="black" stroke-width="1" fill="none"/>
    <path d="M 1143.97,488.200000 H 974.21 a 0.00,0.00 0 0,0 -0.00,0.00L 974.21,488.200000" stroke="black" stroke-width="1" fill="none"/>
    <path d="M 628.98,643.200000 H 797.97 a 0.00,0.00 0 0,1 0.00,0.00L 797.97,643.200000" stroke="black" stroke-width="1" fill="none"/>
    <path d="M 270.00,428.200000 V 488.20 a 0.00,0.00 0 0,0 0.00,0.00L 270.00,488.200000" stroke="black" stroke-width="1" fill="none"/>
    <path d="M 1383.97,488.200000 H 1363.97 a 10.00,10.00 0 0,1 -10.00,-10.00 V 442.20 a 10.00,10.00 0 0,0 -10.00,-10.00 H 1325.97 a 2.00,2.00 0 0,1 -2.00,-2.00L 1323.97,428.200000" stroke="black" stroke-width="1" fill="none"/>
    <path d="M 1323.97,608.200000 H 1263.97 a 0.00,0.00 0 0,0 -0.00,0.00L 1263.97,608.200000" stroke="black" stroke-width="1" fill="none"/>
    <path d="M 508.98,178.200000 H 568.98 a 0.00,0.00 0 0,1 0.00,0.00L 568.98,178.200000" stroke="black" stroke-width="1" fill="none"/>
    <path d="M 723.98,768.200000 V 705.25 a 0.00,0.00 0 0,1 0.00,-0.00L 723.98,705.250000" stroke="black" stroke-width="1" fill="none"/>
    <path d="M 974.21,488.200000 H 628.98 a 0.00,0.00 0 0,0 -0.00,0.00L 628.98,488.200000" stroke="black" stroke-width="1" fill="none"/>
    <path d="M 1263.97,608.200000 H 1241.97 a 10.00,10.00 0 0,1 -10.00,-10.00 V 506.20 a 10.00,10.00 0 0,0 -10.00,-10.00 H 1207.97 a 4.00,4.00 0 0,1 -4.00,-4.00L 1203.97,488.200000" stroke="black" stroke-width="1" fill="none"/>
    <path d="M 628.98,393.200000 V 213.20 a 0.00,0.00 0 0,1 0.00,-0.00L 628.98,213.200000" stroke="black" stroke-width="1" fill="none"/>
    <path d="M 210.00,213.200000 H 424.99 a 0.00,0.00 0 0,1 0.00,0.00L 424.99,213.200000" stroke="black" stroke-width="1" fill="none"/>
    <path d="M 1263.97,368.200000 H 1241.97 a 10.00,10.00 0 0,0 -10.00,10.00 V 470.20 a 10.00,10.00 0 0,1 -10.00,10.00 H 1207.97 a 4.00,4.00 0 0,0 -4.00,4.00L 1203.97,488.200000" stroke="black" stroke-width="1" fill="none"/>
    <path d="M 628.98,93.200000 V 153.20 a 0.00,0.00 0 0,0 0.00,0.00L 628.98,153.200000" stroke="black" stroke-width="1" fill="none"/>
    <path d="M 568.98,178.200000 H 614.99 a 10.00,10.00 0 0,1 10.00,10.00 V 211.20 a 2.00,2.00 0 0,0 2.00,2.00L 628.98,213.200000" stroke="black" stroke-width="1" fill="none"/>
    <path d="M 1023.97,213.200000 H 963.97 a 0.00,0.00 0 0,0 -0.00,0.00L 963.97,213.200000" stroke="black" stroke-width="1" fill="none"/>
    <path d="M 1263.97,488.200000 H 1203.97 a 0.00,0.00 0 0,0 -0.00,0.00L 1203.97,488.200000" stroke="black" stroke-width="1" fill="none"/>
    <path d="M 985.66,393.200000 V 373.20 a 10.00,10.00 0 0,0 -10.00,-10.00 H 965.83 a 10.00,10.00 0 0,1 -10.00,-10.00 V 334.20 a 1.00,1.00 0 0,0 -1.00,-1.00L 953.83,333.200000" stroke="black" stroke-width="1" fill="none"/>
    <path d="M 568.98,703.200000 H 588.98 a 10.00,10.00 0 0,0 10.00,-10.00 V 657.21 a 10.00,10.00 0 0,1 10.00,-10.00 H 626.98 a 2.00,2.00 0 0,0 2.00,-2.00L 628.98,643.200000" stroke="black" stroke-width="1" fill="none"/>
    <path d="M 568.98,333.200000 H 588.98 a 10.00,10.00 0 0,1 10.00,10.00 V 379.20 a 10.00,10.00 0 0,0 10.00,10.00 H 626.98 a 2.00,2.00 0 0,1 2.00,2.00L 628.98,393.200000" stroke="black" stroke-width="1" fill="none"/>
    <path d="M 90.00,767.390000 H 110.00 a 10.00,10.00 0 0,0 10.00,-10.00 V 750.20 a 10.00,10.00 0 0,1 10.00,-10.00 H 149.00 a 1.00,1.00 0 0,0 1.00,-1.00L 150.00,738.200000" stroke="black" stroke-width="1" fill="none"/>
    <path d="M 494.52,942.200000 H 607.08 a 0.00,0.00 0 0,1 0.00,0.00L 607.08,942.200000" stroke="black" stroke-width="1" fill="none"/>
    <path d="M 210.00,859.700000 H 230.78 a 9.22,9.22 0 0,1 9.22,9.22 V 868.92 a 9.22,9.22 0 0,0 9.22,9.22 H 269.00 a 1.00,1.00 0 0,1 1.00,1.00L 270.00,880.150000" stroke="black" stroke-width="1" fill="none"/>
    <path d="M 663.98,608.200000 V 548.20 a 0.00,0.00 0 0,1 0.00,-0.00L 663.98,548.200000" stroke="black" stroke-width="1" fill="none"/>
    <path d="M 1323.97,548.200000 H 1303.97 a 10.00,10.00 0 0,1 -10.00,-10.00 V 502.20 a 10.00,10.00 0 0,0 -10.00,-10.00 H 1265.97 a 2.00,2.00 0 0,1 -2.00,-2.00L 1263.97,488.200000" stroke="black" stroke-width="1" fill="none"/>
    <path d="M 150.00,738.200000 H 210.00 a 0.00,0.00 0 0,1 0.00,0.00L 210.00,738.200000" stroke="black" stroke-width="1" fill="none"/>
    <path d="M 508.98,58.200000 H 568.98 a 0.00,0.00 0 0,1 0.00,0.00L 568.98,58.200000" stroke="black" stroke-width="1" fill="none"/>
    <path d="M 1203.97,308.200000 H 1183.97 a 10.00,10.00 0 0,0 -10.00,10.00 V 321.20 a 10.00,10.00 0 0,1 -10.00,10.00 H 1144.97 a 1.00,1.00 0 0,0 -1.00,1.00L 1143.97,333.200000" stroke="black" stroke-width="1" fill="none"/>
    <path d="M 688.98,798.200000 V 778.20 a 10.00,10.00 0 0,0 -10.00,-10.00 H 642.98 a 10.00,10.00 0 0,1 -10.00,-10.00 V 740.20 a 2.00,2.00 0 0,0 -2.00,-2.00L 628.98,738.200000" stroke="black" stroke-width="1" fill="none"/>
    <path d="M 30.00,707.390000 H 90.00 a 0.00,0.00 0 0,1 0.00,0.00L 90.00,707.390000" stroke="black" stroke-width="1" fill="none"/>
    <path d="M 628.98,153.200000 H 628.99 a 0.00,0.00 0 0,1 0.00,0.00 V 213.19 a 0.00,0.00 0 0,1 -0.00,0.00L 628.98,213.200000" stroke="black" stroke-width="1" fill="none"/>
    <path d="M 364.99,333.200000 H 365.00 a 0.00,0.00 0 0,1 0.00,0.00 V 393.19 a 0.00,0.00 0 0,1 -0.00,0.00L 364.99,393.200000" stroke="black" stroke-width="1" fill="none"/>
    <path d="M 953.83,333.200000 H 1143.97 a 0.00,0.00 0 0,1 0.00,0.00L 1143.97,333.200000" stroke="black" stroke-width="1" fill="none"/>
    <path d="M 244.99,333.200000 V 355.20 a 10.00,10.00 0 0,0 10.00,10.00 H 347.00 a 10.00,10.00 0 0,1 10.00,10.00 V 389.20 a 4.00,4.00 0 0,0 4.00,4.00L 364.99,393.200000" stroke="black" stroke-width="1" fill="none"/>
    <path d="M 808.97,93.200000 V 213.20 a 0.00,0.00 0 0,0 0.00,0.00L 808.97,213.200000" stroke="black" stroke-width="1" fill="none"/>
    <path d="M 628.98,798.200000 V 738.20 a 0.00,0.00 0 0,1 0.00,-0.00L 628.98,738.200000" stroke="black" stroke-width="1" fill="none"/>
    <path d="M 364.99,548.200000 V 488.20 a 0.00,0.00 0 0,1 0.00,-0.00L 364.99,488.200000" stroke="black" stroke-width="1" fill="none"/>
    <path d="M 270.00,738.200000 V 488.20 a 0.00,0.00 0 0,1 0.00,-0.00L 270.00,488.200000" stroke="black" stroke-width="1" fill="none"/>
    <path d="M 783.98,705.250000 H 723.98 a 0.00,0.00 0 0,0 -0.00,0.00L 723.98,705.250000" stroke="black" stroke-width="1" fill="none"/>
    <path d="M 508.98,523.200000 H 568.98 a 0.00,0.00 0 0,1 0.00,0.00L 568.98,523.200000" stroke="black" stroke-width="1" fill="none"/>
    <path d="M 210.00,919.700000 H 230.00 a 10.00,10.00 0 0,0 10.00,-10.00 V 892.15 a 10.00,10.00 0 0,1 10.00,-10.00 H 269.00 a 1.00,1.00 0 0,0 1.00,-1.00L 270.00,880.150000" stroke="black" stroke-width="1" fill="none"/>
    <path d="M 925.66,393.200000 V 373.20 a 10.00,10.00 0 0,1 10.00,-10.00 H 941.83 a 10.00,10.00 0 0,0 10.00,-10.00 V 334.20 a 1.00,1.00 0 0,1 1.00,-1.00L 953.83,333.200000" stroke="black" stroke-width="1" fill="none"/>
    <path d="M 1203.97,428.200000 H 1183.97 a 10.00,10.00 0 0,0 -10.00,10.00 V 474.20 a 10.00,10.00 0 0,1 -10.00,10.00 H 1145.97 a 2.00,2.00 0 0,0 -2.00,2.00L 1143.97,488.200000" stroke="black" stroke-width="1" fill="none"/>
    <rect x="613.98" y="198.2" width="30.0" height="30.0" stroke="black" stroke-width="1" id="0" onclick="ow3.nodeClick(this)" fill="#f0f0d2"/>

    <rect x="613.98" y="378.2" width="30.0" height="30.0" stroke="black" stroke-width="1" id="1" onclick="ow3.nodeClick(this)" fill="#f0f0d2"/>

    <rect x="613.98" y="473.2" width="30.0" height="30.0" stroke="black" stroke-width="1" id="2" onclick="ow3.nodeClick(this)" fill="#f0f0d2"/>

    <rect x="349.99" y="473.2" width="30.0" height="30.0" stroke="black" stroke-width="1" id="3" onclick="ow3.nodeClick(this)" fill="#f0f0d2"/>

    <rect x="959.21" y="473.2" width="30.0" height="30.0" stroke="black" stroke-width="1" id="4" onclick="ow3.nodeClick(this)" fill="#f0f0d2"/>

    <rect x="349.99" y="378.2" width="30.0" height="30.0" stroke="black" stroke-width="1" id="5" onclick="ow3.nodeClick(this)" fill="#f0f0d2"/>

    <rect x="1128.97" y="473.2" width="30.0" height="30.0" stroke="black" stroke-width="1" id="6" onclick="ow3.nodeClick(this)" fill="#f0f0d2"/>

    <rect x="793.97" y="198.2" width="30.0" height="30.0" stroke="black" stroke-width="1" id="7" onclick="ow3.nodeClick(this)" fill="#f0f0d2"/>

    <rect x="1128.97" y="395.7" width="30.0" height="30.0" stroke="black" stroke-width="1" id="8" onclick="ow3.nodeClick(this)" fill="#f0f0d2"/>

    <rect x="553.98" y="378.2" width="30.0" height="30.0" stroke="black" stroke-width="1" id="9" onclick="ow3.nodeClick(this)" fill="#f0f0d2"/>

    <rect x="255.0" y="473.2" width="30.0" height="30.0" stroke="black" stroke-width="1" id="10" onclick="ow3.nodeClick(this)" fill="#f0f0d2"/>

    <rect x="948.97" y="198.2" width="30.0" height="30.0" stroke="black" stroke-width="1" id="11" onclick="ow3.nodeClick(this)" fill="#f0f0d2"/>

    <rect x="255.0" y="723.2" width="30.0" height="30.0" stroke="black" stroke-width="1" id="12" onclick="ow3.nodeClick(this)" fill="#f0f0d2"/>

    <rect x="938.83" y="318.2" width="30.0" height="30.0" stroke="black" stroke-width="1" id="13" onclick="ow3.nodeClick(this)" fill="#f0f0d2"/>

    <rect x="613.98" y="138.2" width="30.0" height="30.0" stroke="black" stroke-width="1" id="14" onclick="ow3.nodeClick(this)" fill="#f0f0d2"/>

    <rect x="793.97" y="258.42" width="30.0" height="30.0" stroke="black" stroke-width="1" id="15" onclick="ow3.nodeClick(this)" fill="#f0f0d2"/>

    <rect x="255.0" y="784.7" width="30.0" height="30.0" stroke="black" stroke-width="1" id="16" onclick="ow3.nodeClick(this)" fill="#f0f0d2"/>

    <rect x="613.98" y="628.2" width="30.0" height="30.0" stroke="black" stroke-width="1" id="17" onclick="ow3.nodeClick(this)" fill="#f0f0d2"/>

    <rect x="828.97" y="138.2" width="30.0" height="30.0" stroke="black" stroke-width="1" id="18" onclick="ow3.nodeClick(this)" fill="#f0f0d2"/>

    <rect x="793.97" y="78.2" width="30.0" height="30.0" stroke="black" stroke-width="1" id="19" onclick="ow3.nodeClick(this)" fill="#f0f0d2"/>

    <rect x="229.99" y="318.2" width="30.0" height="30.0" stroke="black" stroke-width="1" id="20" onclick="ow3.nodeClick(this)" fill="#f0f0d2"/>

    <rect x="948.97" y="138.2" width="30.0" height="30.0" stroke="black" stroke-width="1" id="21" onclick="ow3.nodeClick(this)" fill="#f0f0d2"/>

    <rect x="1188.97" y="473.2" width="30.0" height="30.0" stroke="black" stroke-width="1" id="22" onclick="ow3.nodeClick(this)" fill="#f0f0d2"/>

    <rect x="1008.97" y="138.2" width="30.0" height="30.0" stroke="black" stroke-width="1" id="23" onclick="ow3.nodeClick(this)" fill="#f0f0d2"/>

    <rect x="195.0" y="784.7" width="30.0" height="30.0" stroke="black" stroke-width="1" id="24" onclick="ow3.nodeClick(this)" fill="#f0f0d2"/>

    <rect x="1188.97" y="413.2" width="30.0" height="30.0" stroke="black" stroke-width="1" id="25" onclick="ow3.nodeClick(this)" fill="#f0f0d2"/>

    <rect x="1248.97" y="473.2" width="30.0" height="30.0" stroke="black" stroke-width="1" id="26" onclick="ow3.nodeClick(this)" fill="#f0f0d2"/>

    <rect x="255.0" y="865.15" width="30.0" height="30.0" stroke="black" stroke-width="1" id="27" onclick="ow3.nodeClick(this)" fill="#f0f0d2"/>

    <rect x="409.99" y="533.2" width="30.0" height="30.0" stroke="black" stroke-width="1" id="28" onclick="ow3.nodeClick(this)" fill="#f0f0d2"/>

    <rect x="1248.97" y="593.2" width="30.0" height="30.0" stroke="black" stroke-width="1" id="29" onclick="ow3.nodeClick(this)" fill="#f0f0d2"/>

    <rect x="733.98" y="78.2" width="30.0" height="30.0" stroke="black" stroke-width="1" id="30" onclick="ow3.nodeClick(this)" fill="#f0f0d2"/>

    <rect x="553.98" y="438.2" width="30.0" height="30.0" stroke="black" stroke-width="1" id="31" onclick="ow3.nodeClick(this)" fill="#f0f0d2"/>

    <rect x="553.98" y="508.2" width="30.0" height="30.0" stroke="black" stroke-width="1" id="32" onclick="ow3.nodeClick(this)" fill="#f0f0d2"/>

    <rect x="409.99" y="198.2" width="30.0" height="30.0" stroke="black" stroke-width="1" id="33" onclick="ow3.nodeClick(this)" fill="#f0f0d2"/>

    <rect x="349.99" y="318.2" width="30.0" height="30.0" stroke="black" stroke-width="1" id="34" onclick="ow3.nodeClick(this)" fill="#f0f0d2"/>

    <rect x="708.98" y="690.25" width="30.0" height="30.0" stroke="black" stroke-width="1" id="35" onclick="ow3.nodeClick(this)" fill="#f0f0d2"/>

    <rect x="708.98" y="753.2" width="30.0" height="30.0" stroke="black" stroke-width="1" id="36" onclick="ow3.nodeClick(this)" fill="#f0f0d2"/>

    <rect x="289.98" y="533.2" width="30.0" height="30.0" stroke="black" stroke-width="1" id="37" onclick="ow3.nodeClick(this)" fill="#f0f0d2"/>

    <rect x="613.98" y="723.2" width="30.0" height="30.0" stroke="black" stroke-width="1" id="38" onclick="ow3.nodeClick(this)" fill="#f0f0d2"/>

    <rect x="1008.97" y="198.2" width="30.0" height="30.0" stroke="black" stroke-width="1" id="39" onclick="ow3.nodeClick(this)" fill="#f0f0d2"/>

    <rect x="768.98" y="690.25" width="30.0" height="30.0" stroke="black" stroke-width="1" id="40" onclick="ow3.nodeClick(this)" fill="#f0f0d2"/>

    <rect x="613.98" y="783.2" width="30.0" height="30.0" stroke="black" stroke-width="1" id="41" onclick="ow3.nodeClick(this)" fill="#f0f0d2"/>

    <rect x="195.0" y="723.2" width="30.0" height="30.0" stroke="black" stroke-width="1" id="42" onclick="ow3.nodeClick(this)" fill="#f0f0d2"/>

    <rect x="1128.97" y="318.2" width="30.0" height="30.0" stroke="black" stroke-width="1" id="43" onclick="ow3.nodeClick(this)" fill="#f0f0d2"/>

    <rect x="613.98" y="78.2" width="30.0" height="30.0" stroke="black" stroke-width="1" id="44" onclick="ow3.nodeClick(this)" fill="#f0f0d2"/>

    <rect x="553.98" y="43.2" width="30.0" height="30.0" stroke="black" stroke-width="1" id="45" onclick="ow3.nodeClick(this)" fill="#f0f0d2"/>

    <rect x="910.66" y="378.2" width="30.0" height="30.0" stroke="black" stroke-width="1" id="46" onclick="ow3.nodeClick(this)" fill="#f0f0d2"/>

    <rect x="289.98" y="593.2" width="30.0" height="30.0" stroke="black" stroke-width="1" id="47" onclick="ow3.nodeClick(this)" fill="#f0f0d2"/>

    <rect x="592.08" y="927.2" width="30.0" height="30.0" stroke="black" stroke-width="1" id="48" onclick="ow3.nodeClick(this)" fill="#f0f0d2"/>

    <rect x="1068.98" y="198.2" width="30.0" height="30.0" stroke="black" stroke-width="1" id="49" onclick="ow3.nodeClick(this)" fill="#f0f0d2"/>

    <rect x="1188.97" y="533.2" width="30.0" height="30.0" stroke="black" stroke-width="1" id="50" onclick="ow3.nodeClick(this)" fill="#f0f0d2"/>

    <rect x="553.98" y="163.2" width="30.0" height="30.0" stroke="black" stroke-width="1" id="51" onclick="ow3.nodeClick(this)" fill="#f0f0d2"/>

    <rect x="959.21" y="533.2" width="30.0" height="30.0" stroke="black" stroke-width="1" id="52" onclick="ow3.nodeClick(this)" fill="#f0f0d2"/>

    <rect x="1128.97" y="198.2" width="30.0" height="30.0" stroke="black" stroke-width="1" id="53" onclick="ow3.nodeClick(this)" fill="#f0f0d2"/>

    <rect x="948.97" y="78.2" width="30.0" height="30.0" stroke="black" stroke-width="1" id="54" onclick="ow3.nodeClick(this)" fill="#f0f0d2"/>

    <rect x="409.99" y="318.2" width="30.0" height="30.0" stroke="black" stroke-width="1" id="55" onclick="ow3.nodeClick(this)" fill="#f0f0d2"/>

    <rect x="1248.97" y="353.2" width="30.0" height="30.0" stroke="black" stroke-width="1" id="56" onclick="ow3.nodeClick(this)" fill="#f0f0d2"/>

    <rect x="409.99" y="593.2" width="30.0" height="30.0" stroke="black" stroke-width="1" id="57" onclick="ow3.nodeClick(this)" fill="#f0f0d2"/>

    <rect x="1308.97" y="593.2" width="30.0" height="30.0" stroke="black" stroke-width="1" id="58" onclick="ow3.nodeClick(this)" fill="#f0f0d2"/>

    <rect x="255.0" y="927.2" width="30.0" height="30.0" stroke="black" stroke-width="1" id="59" onclick="ow3.nodeClick(this)" fill="#f0f0d2"/>

    <rect x="553.98" y="103.2" width="30.0" height="30.0" stroke="black" stroke-width="1" id="60" onclick="ow3.nodeClick(this)" fill="#f0f0d2"/>

    <rect x="442.83" y="653.2" width="30.0" height="30.0" stroke="black" stroke-width="1" id="61" onclick="ow3.nodeClick(this)" fill="#f0f0d2"/>

    <rect x="592.08" y="987.2" width="30.0" height="30.0" stroke="black" stroke-width="1" id="62" onclick="ow3.nodeClick(this)" fill="#f0f0d2"/>

    <rect x="931.95" y="593.2" width="30.0" height="30.0" stroke="black" stroke-width="1" id="63" onclick="ow3.nodeClick(this)" fill="#f0f0d2"/>

    <rect x="229.99" y="258.2" width="30.0" height="30.0" stroke="black" stroke-width="1" id="64" onclick="ow3.nodeClick(this)" fill="#f0f0d2"/>

    <rect x="479.52" y="927.2" width="30.0" height="30.0" stroke="black" stroke-width="1" id="65" onclick="ow3.nodeClick(this)" fill="#f0f0d2"/>

    <rect x="970.66" y="378.2" width="30.0" height="30.0" stroke="black" stroke-width="1" id="66" onclick="ow3.nodeClick(this)" fill="#f0f0d2"/>

    <rect x="553.98" y="783.2" width="30.0" height="30.0" stroke="black" stroke-width="1" id="67" onclick="ow3.nodeClick(this)" fill="#f0f0d2"/>

    <rect x="1308.97" y="533.2" width="30.0" height="30.0" stroke="black" stroke-width="1" id="68" onclick="ow3.nodeClick(this)" fill="#f0f0d2"/>

    <rect x="648.98" y="533.2" width="30.0" height="30.0" stroke="black" stroke-width="1" id="69" onclick="ow3.nodeClick(this)" fill="#f0f0d2"/>

    <rect x="1188.97" y="293.2" width="30.0" height="30.0" stroke="black" stroke-width="1" id="70" onclick="ow3.nodeClick(this)" fill="#f0f0d2"/>

    <rect x="553.98" y="318.2" width="30.0" height="30.0" stroke="black" stroke-width="1" id="71" onclick="ow3.nodeClick(this)" fill="#f0f0d2"/>

    <rect x="888.97" y="138.2" width="30.0" height="30.0" stroke="black" stroke-width="1" id="72" onclick="ow3.nodeClick(this)" fill="#f0f0d2"/>

    <rect x="409.99" y="258.2" width="30.0" height="30.0" stroke="black" stroke-width="1" id="73" onclick="ow3.nodeClick(this)" fill="#f0f0d2"/>

    <rect x="1368.97" y="593.2" width="30.0" height="30.0" stroke="black" stroke-width="1" id="74" onclick="ow3.nodeClick(this)" fill="#f0f0d2"/>

    <rect x="255.0" y="413.2" width="30.0" height="30.0" stroke="black" stroke-width="1" id="75" onclick="ow3.nodeClick(this)" fill="#f0f0d2"/>

    <rect x="673.98" y="783.2" width="30.0" height="30.0" stroke="black" stroke-width="1" id="76" onclick="ow3.nodeClick(this)" fill="#f0f0d2"/>

    <rect x="493.98" y="43.2" width="30.0" height="30.0" stroke="black" stroke-width="1" id="77" onclick="ow3.nodeClick(this)" fill="#f0f0d2"/>

    <rect x="991.96" y="593.2" width="30.0" height="30.0" stroke="black" stroke-width="1" id="78" onclick="ow3.nodeClick(this)" fill="#f0f0d2"/>

    <rect x="1308.97" y="413.2" width="30.0" height="30.0" stroke="black" stroke-width="1" id="79" onclick="ow3.nodeClick(this)" fill="#f0f0d2"/>

    <rect x="493.98" y="508.2" width="30.0" height="30.0" stroke="black" stroke-width="1" id="80" onclick="ow3.nodeClick(this)" fill="#f0f0d2"/>

    <rect x="367.18" y="927.2" width="30.0" height="30.0" stroke="black" stroke-width="1" id="81" onclick="ow3.nodeClick(this)" fill="#f0f0d2"/>

    <rect x="135.0" y="723.2" width="30.0" height="30.0" stroke="black" stroke-width="1" id="82" onclick="ow3.nodeClick(this)" fill="#f0f0d2"/>

    <rect x="1308.97" y="353.2" width="30.0" height="30.0" stroke="black" stroke-width="1" id="83" onclick="ow3.nodeClick(this)" fill="#f0f0d2"/>

    <rect x="195.0" y="844.7" width="30.0" height="30.0" stroke="black" stroke-width="1" id="84" onclick="ow3.nodeClick(this)" fill="#f0f0d2"/>

    <rect x="1248.97" y="413.2" width="30.0" height="30.0" stroke="black" stroke-width="1" id="85" onclick="ow3.nodeClick(this)" fill="#f0f0d2"/>

    <rect x="1308.97" y="473.2" width="30.0" height="30.0" stroke="black" stroke-width="1" id="86" onclick="ow3.nodeClick(this)" fill="#f0f0d2"/>

    <rect x="673.98" y="78.2" width="30.0" height="30.0" stroke="black" stroke-width="1" id="87" onclick="ow3.nodeClick(this)" fill="#f0f0d2"/>

    <rect x="1368.97" y="473.2" width="30.0" height="30.0" stroke="black" stroke-width="1" id="88" onclick="ow3.nodeClick(this)" fill="#f0f0d2"/>

    <rect x="1368.97" y="353.2" width="30.0" height="30.0" stroke="black" stroke-width="1" id="89" onclick="ow3.nodeClick(this)" fill="#f0f0d2"/>

    <rect x="289.99" y="318.2" width="30.0" height="30.0" stroke="black" stroke-width="1" id="90" onclick="ow3.nodeClick(this)" fill="#f0f0d2"/>

    <rect x="382.83" y="653.2" width="30.0" height="30.0" stroke="black" stroke-width="1" id="91" onclick="ow3.nodeClick(this)" fill="#f0f0d2"/>

    <rect x="1368.97" y="413.2" width="30.0" height="30.0" stroke="black" stroke-width="1" id="92" onclick="ow3.nodeClick(this)" fill="#f0f0d2"/>

    <rect x="553.98" y="568.2" width="30.0" height="30.0" stroke="black" stroke-width="1" id="93" onclick="ow3.nodeClick(this)" fill="#f0f0d2"/>

    <rect x="613.98" y="843.2" width="30.0" height="30.0" stroke="black" stroke-width="1" id="94" onclick="ow3.nodeClick(this)" fill="#f0f0d2"/>

    <rect x="910.66" y="438.2" width="30.0" height="30.0" stroke="black" stroke-width="1" id="95" onclick="ow3.nodeClick(this)" fill="#f0f0d2"/>

    <rect x="75.0" y="692.39" width="30.0" height="30.0" stroke="black" stroke-width="1" id="96" onclick="ow3.nodeClick(this)" fill="#f0f0d2"/>

    <rect x="1368.97" y="533.2" width="30.0" height="30.0" stroke="black" stroke-width="1" id="97" onclick="ow3.nodeClick(this)" fill="#f0f0d2"/>

    <rect x="434.46" y="723.2" width="30.0" height="30.0" stroke="black" stroke-width="1" id="98" onclick="ow3.nodeClick(this)" fill="#f0f0d2"/>

    <rect x="349.99" y="533.2" width="30.0" height="30.0" stroke="black" stroke-width="1" id="99" onclick="ow3.nodeClick(this)" fill="#f0f0d2"/>

    <rect x="195.0" y="198.2" width="30.0" height="30.0" stroke="black" stroke-width="1" id="100" onclick="ow3.nodeClick(this)" fill="#f0f0d2"/>

    <rect x="768.98" y="753.2" width="30.0" height="30.0" stroke="black" stroke-width="1" id="101" onclick="ow3.nodeClick(this)" fill="#f0f0d2"/>

    <rect x="620.77" y="1047.2" width="30.0" height="30.0" stroke="black" stroke-width="1" id="102" onclick="ow3.nodeClick(this)" fill="#f0f0d2"/>

    <rect x="433.98" y="75.0" width="30.0" height="30.0" stroke="black" stroke-width="1" id="103" onclick="ow3.nodeClick(this)" fill="#f0f0d2"/>

    <rect x="560.77" y="1047.2" width="30.0" height="30.0" stroke="black" stroke-width="1" id="104" onclick="ow3.nodeClick(this)" fill="#f0f0d2"/>

    <rect x="553.98" y="628.2" width="30.0" height="30.0" stroke="black" stroke-width="1" id="105" onclick="ow3.nodeClick(this)" fill="#f0f0d2"/>

    <rect x="15.0" y="692.39" width="30.0" height="30.0" stroke="black" stroke-width="1" id="106" onclick="ow3.nodeClick(this)" fill="#f0f0d2"/>

    <rect x="195.0" y="904.7" width="30.0" height="30.0" stroke="black" stroke-width="1" id="107" onclick="ow3.nodeClick(this)" fill="#f0f0d2"/>

    <rect x="931.95" y="653.2" width="30.0" height="30.0" stroke="black" stroke-width="1" id="108" onclick="ow3.nodeClick(this)" fill="#f0f0d2"/>

    <rect x="1188.97" y="353.2" width="30.0" height="30.0" stroke="black" stroke-width="1" id="109" onclick="ow3.nodeClick(this)" fill="#f0f0d2"/>

    <rect x="493.98" y="378.2" width="30.0" height="30.0" stroke="black" stroke-width="1" id="110" onclick="ow3.nodeClick(this)" fill="#f0f0d2"/>

    <rect x="708.98" y="533.2" width="30.0" height="30.0" stroke="black" stroke-width="1" id="111" onclick="ow3.nodeClick(this)" fill="#f0f0d2"/>

    <rect x="782.97" y="628.2" width="30.0" height="30.0" stroke="black" stroke-width="1" id="112" onclick="ow3.nodeClick(this)" fill="#f0f0d2"/>

    <rect x="433.98" y="15.0" width="30.0" height="30.0" stroke="black" stroke-width="1" id="113" onclick="ow3.nodeClick(this)" fill="#f0f0d2"/>

    <rect x="349.98" y="593.2" width="30.0" height="30.0" stroke="black" stroke-width="1" id="114" onclick="ow3.nodeClick(this)" fill="#f0f0d2"/>

    <rect x="493.98" y="163.2" width="30.0" height="30.0" stroke="black" stroke-width="1" id="115" onclick="ow3.nodeClick(this)" fill="#f0f0d2"/>

    <rect x="648.98" y="593.2" width="30.0" height="30.0" stroke="black" stroke-width="1" id="116" onclick="ow3.nodeClick(this)" fill="#f0f0d2"/>

    <rect x="553.98" y="688.2" width="30.0" height="30.0" stroke="black" stroke-width="1" id="117" onclick="ow3.nodeClick(this)" fill="#f0f0d2"/>

    <rect x="75.0" y="752.39" width="30.0" height="30.0" stroke="black" stroke-width="1" id="118" onclick="ow3.nodeClick(this)" fill="#f0f0d2"/>

    <rect x="1248.97" y="533.2" width="30.0" height="30.0" stroke="black" stroke-width="1" id="119" onclick="ow3.nodeClick(this)" fill="#f0f0d2"/>

</g>
</g>
</svg>
