<?xml version="1.0" encoding="UTF-8"?>
<svg id="canvasSVG" xmlns="http://www.w3.org/2000/svg" width="480px" height="270px">
<rect x="0" y="0" width="480" height="270" stroke="none" stroke-width="1" id="" onclick="null" fill="#bdbddf"/>
<g id="outerGroup">
<g transform="translate(123.72,20.00),scale(0.15),translate(-15.00,-0.00)">
    <path d="M 1151.92,905.000000 H 1103.92 a 10.00,10.00 0 0,0 -10.00,10.00 V 953.00 a 1.00,1.00 0 0,1 -1.00,1.00L 1091.92,954.000000" stroke="black" stroke-width="1" fill="none"/>
    <path d="M 737.98,135.000000 V 550.28 a 10.00,10.00 0 0,0 10.00,10.00 H 826.87 a 1.00,1.00 0 0,1 1.00,1.00L 827.87,562.280000" stroke="black" stroke-width="1" fill="none"/>
    <path d="M 510.00,1040.110000 H 490.00 a 10.00,10.00 0 0,0 -10.00,10.00 V 1061.00 a 10.00,10.00 0 0,1 -10.00,10.00 H 451.00 a 1.00,1.00 0 0,0 -1.00,1.00L 450.00,1073.000000" stroke="black" stroke-width="1" fill="none"/>
    <path d="M 449.98,554.000000 H 481.95 a 10.00,10.00 0 0,1 10.00,10.00 V 940.00 a 10.00,10.00 0 0,0 10.00,10.00 H 773.96 a 2.00,2.00 0 0,1 2.00,2.00L 775.96,954.000000" stroke="black" stroke-width="1" fill="none"/>
    <path d="M 330.00,1049.520000 V 1158.00 a 0.00,0.00 0 0,0 0.00,0.00L 330.00,1158.000000" stroke="black" stroke-width="1" fill="none"/>
    <path d="M 1331.92,905.000000 H 1271.92 a 0.00,0.00 0 0,0 -0.00,0.00L 1271.92,905.000000" stroke="black" stroke-width="1" fill="none"/>
    <path d="M 1004.86,1158.000000 H 895.73 a 0.00,0.00 0 0,0 -0.00,0.00L 895.73,1158.000000" stroke="black" stroke-width="1" fill="none"/>
    <path d="M 1091.92,1218.000000 V 1158.00 a 0.00,0.00 0 0,1 0.00,-0.00L 1091.92,1158.000000" stroke="black" stroke-width="1" fill="none"/>
    <path d="M 955.96,1289.250000 H 895.96 a 0.00,0.00 0 0,0 -0.00,0.00L 895.96,1289.250000" stroke="black" stroke-width="1" fill="none"/>
    <path d="M 389.98,614.000000 V 594.00 a 10.00,10.00 0 0,1 10.00,-10.00 H 435.98 a 10.00,10.00 0 0,0 10.00,-10.00 V 556.00 a 2.00,2.00 0 0,1 2.00,-2.00L 449.98,554.000000" stroke="black" stroke-width="1" fill="none"/>
    <path d="M 835.98,1014.000000 H 855.98 a 10.00,10.00 0 0,0 10.00,-10.00 V 968.00 a 10.00,10.00 0 0,1 10.00,-10.00 H 893.98 a 2.00,2.00 0 0,0 2.00,-2.00L 895.98,954.000000" stroke="black" stroke-width="1" fill="none"/>
    <path d="M 775.96,954.000000 V 1158.00 a 0.00,0.00 0 0,0 0.00,0.00L 775.96,1158.000000" stroke="black" stroke-width="1" fill="none"/>
    <path d="M 450.00,1013.000000 H 390.00 a 0.00,0.00 0 0,0 -0.00,0.00L 390.00,1013.000000" stroke="black" stroke-width="1" fill="none"/>
    <path d="M 269.99,1158.000000 V 954.00 a 0.00,0.00 0 0,1 0.00,-0.00L 269.99,954.000000" stroke="black" stroke-width="1" fill="none"/>
    <path d="M 593.93,94.010000 V 173.00 a 0.00,0.00 0 0,0 0.00,0.00L 593.93,173.000000" stroke="black" stroke-width="1" fill="none"/>
    <path d="M 789.96,233.000000 H 876.89 a 0.00,0.00 0 0,1 0.00,0.00L 876.89,233.000000" stroke="black" stroke-width="1" fill="none"/>
    <path d="M 811.08,1218.000000 V 1172.01 a 10.00,10.00 0 0,0 -10.00,-10.00 H 777.97 a 2.00,2.00 0 0,1 -2.00,-2.00L 775.96,1158.000000" stroke="black" stroke-width="1" fill="none"/>
    <path d="M 419.66,1410.000000 V 1250.49 a 10.00,10.00 0 0,0 -10.00,-10.00 H 330.00 a 0.00,0.00 0 0,0 -0.00,0.00L 330.00,1240.490000" stroke="black" stroke-width="1" fill="none"/>
    <path d="M 1032.03,407.000000 H 1032.03 a 0.00,0.00 0 0,1 0.00,0.00 V 467.00 a 0.00,0.00 0 0,1 -0.00,0.00L 1032.03,467.000000" stroke="black" stroke-width="1" fill="none"/>
    <path d="M 390.00,1193.000000 H 343.99 a 10.00,10.00 0 0,1 -10.00,-10.00 V 1159.99 a 2.00,2.00 0 0,0 -2.00,-2.00L 330.00,1158.000000" stroke="black" stroke-width="1" fill="none"/>
    <path d="M 955.98,992.000000 H 1077.92 a 10.00,10.00 0 0,0 10.00,-10.00 V 956.00 a 2.00,2.00 0 0,1 2.00,-2.00L 1091.92,954.000000" stroke="black" stroke-width="1" fill="none"/>
    <path d="M 269.99,467.000000 H 431.96 a 0.00,0.00 0 0,1 0.00,0.00 H 593.93 a 0.00,0.00 0 0,1 0.00,0.00L 593.93,467.000000" stroke="black" stroke-width="1" fill="none"/>
    <path d="M 737.98,15.000000 V 75.00 a 0.00,0.00 0 0,0 0.00,0.00L 737.98,75.000000" stroke="black" stroke-width="1" fill="none"/>
    <path d="M 593.93,595.720000 H 593.92 a 0.00,0.00 0 0,1 -0.00,-0.00 V 467.00 a 0.00,0.00 0 0,1 0.00,-0.00L 593.93,467.000000" stroke="black" stroke-width="1" fill="none"/>
    <path d="M 389.98,425.020000 H 449.98 a 0.00,0.00 0 0,1 0.00,0.00L 449.98,425.020000" stroke="black" stroke-width="1" fill="none"/>
    <path d="M 593.93,467.000000 H 595.92 a 2.00,2.00 0 0,1 2.00,2.00 V 517.00 a 10.00,10.00 0 0,0 10.00,10.00 H 876.89 a 0.00,0.00 0 0,1 0.00,0.00L 876.89,527.000000" stroke="black" stroke-width="1" fill="none"/>
    <path d="M 210.00,1158.000000 H 269.99 a 0.00,0.00 0 0,1 0.00,0.00L 269.99,1158.000000" stroke="black" stroke-width="1" fill="none"/>
    <path d="M 1319.89,407.000000 V 173.00 a 0.00,0.00 0 0,1 0.00,-0.00L 1319.89,173.000000" stroke="black" stroke-width="1" fill="none"/>
    <path d="M 449.98,674.000000 V 614.00 a 0.00,0.00 0 0,1 0.00,-0.00L 449.98,614.000000" stroke="black" stroke-width="1" fill="none"/>
    <path d="M 1474.93,1158.000000 V 712.00 a 0.00,0.00 0 0,1 0.00,-0.00L 1474.93,712.000000" stroke="black" stroke-width="1" fill="none"/>
    <path d="M 269.99,1218.000000 V 1158.00 a 0.00,0.00 0 0,1 0.00,-0.00L 269.99,1158.000000" stroke="black" stroke-width="1" fill="none"/>
    <path d="M 1221.87,407.000000 H 1091.92 a 0.00,0.00 0 0,0 -0.00,0.00L 1091.92,407.000000" stroke="black" stroke-width="1" fill="none"/>
    <path d="M 835.96,1349.250000 H 815.96 a 10.00,10.00 0 0,1 -10.00,-10.00 V 1335.00 a 10.00,10.00 0 0,0 -10.00,-10.00 H 776.96 a 1.00,1.00 0 0,1 -1.00,-1.00L 775.96,1323.000000" stroke="black" stroke-width="1" fill="none"/>
    <path d="M 1004.86,1158.000000 H 1091.92 a 0.00,0.00 0 0,1 0.00,0.00L 1091.92,1158.000000" stroke="black" stroke-width="1" fill="none"/>
    <path d="M 895.96,1289.250000 H 835.96 a 0.00,0.00 0 0,0 -0.00,0.00L 835.96,1289.250000" stroke="black" stroke-width="1" fill="none"/>
    <path d="M 895.73,1158.000000 V 1158.01 a 0.00,0.00 0 0,1 -0.00,0.00 H 775.97 a 0.00,0.00 0 0,1 -0.00,-0.00L 775.96,1158.000000" stroke="black" stroke-width="1" fill="none"/>
    <path d="M 1046.54,173.000000 H 876.89 a 0.00,0.00 0 0,0 -0.00,0.00L 876.89,173.000000" stroke="black" stroke-width="1" fill="none"/>
    <path d="M 1319.89,407.000000 H 1379.88 a 0.00,0.00 0 0,1 0.00,0.00L 1379.88,407.000000" stroke="black" stroke-width="1" fill="none"/>
    <path d="M 449.98,614.000000 V 554.00 a 0.00,0.00 0 0,1 0.00,-0.00L 449.98,554.000000" stroke="black" stroke-width="1" fill="none"/>
    <path d="M 660.58,1410.000000 V 1408.00 a 2.00,2.00 0 0,0 -2.00,-2.00 H 603.93 a 10.00,10.00 0 0,1 -10.00,-10.00 V 804.74 a 0.00,0.00 0 0,1 0.00,-0.00L 593.93,804.740000" stroke="black" stroke-width="1" fill="none"/>
    <path d="M 1091.92,407.000000 H 1091.91 a 0.00,0.00 0 0,0 -0.00,0.00 V 527.00 a 0.00,0.00 0 0,0 0.00,0.00L 1091.92,527.000000" stroke="black" stroke-width="1" fill="none"/>
    <path d="M 90.00,1158.000000 H 150.00 a 0.00,0.00 0 0,1 0.00,0.00L 150.00,1158.000000" stroke="black" stroke-width="1" fill="none"/>
    <path d="M 209.99,954.000000 H 269.99 a 0.00,0.00 0 0,1 0.00,0.00L 269.99,954.000000" stroke="black" stroke-width="1" fill="none"/>
    <path d="M 450.00,1073.000000 H 390.00 a 0.00,0.00 0 0,0 -0.00,0.00L 390.00,1073.000000" stroke="black" stroke-width="1" fill="none"/>
    <path d="M 1271.92,905.000000 H 1211.92 a 0.00,0.00 0 0,0 -0.00,0.00L 1211.92,905.000000" stroke="black" stroke-width="1" fill="none"/>
    <path d="M 510.00,1100.110000 H 490.00 a 10.00,10.00 0 0,1 -10.00,-10.00 V 1085.00 a 10.00,10.00 0 0,0 -10.00,-10.00 H 451.00 a 1.00,1.00 0 0,1 -1.00,-1.00L 450.00,1073.000000" stroke="black" stroke-width="1" fill="none"/>
    <path d="M 1221.87,761.000000 V 777.50 a 10.00,10.00 0 0,1 -10.00,10.00 H 965.98 a 10.00,10.00 0 0,1 -10.00,-10.00 V 761.00 a 0.00,0.00 0 0,1 0.00,-0.00L 955.98,761.000000" stroke="black" stroke-width="1" fill="none"/>
    <path d="M 972.03,407.000000 V 427.00 a 10.00,10.00 0 0,0 10.00,10.00 H 1018.04 a 10.00,10.00 0 0,1 10.00,10.00 V 465.00 a 2.00,2.00 0 0,0 2.00,2.00L 1032.03,467.000000" stroke="black" stroke-width="1" fill="none"/>
    <path d="M 737.98,75.000000 V 135.00 a 0.00,0.00 0 0,0 0.00,0.00L 737.98,135.000000" stroke="black" stroke-width="1" fill="none"/>
    <path d="M 660.58,1410.000000 H 775.96 a 0.00,0.00 0 0,1 0.00,0.00L 775.96,1410.000000" stroke="black" stroke-width="1" fill="none"/>
    <path d="M 1379.88,407.000000 V 761.00 a 0.00,0.00 0 0,0 0.00,0.00L 1379.88,761.000000" stroke="black" stroke-width="1" fill="none"/>
    <path d="M 449.98,339.700000 H 579.93 a 10.00,10.00 0 0,1 10.00,10.00 V 465.00 a 2.00,2.00 0 0,0 2.00,2.00L 593.93,467.000000" stroke="black" stroke-width="1" fill="none"/>
    <path d="M 1319.89,505.060000 H 1317.89 a 2.00,2.00 0 0,1 -2.00,-2.00 V 492.50 a 10.00,10.00 0 0,0 -10.00,-10.00 H 1105.91 a 10.00,10.00 0 0,0 -10.00,10.00 V 525.00 a 2.00,2.00 0 0,1 -2.00,2.00L 1091.92,527.000000" stroke="black" stroke-width="1" fill="none"/>
    <path d="M 1151.92,652.000000 H 1091.92 a 0.00,0.00 0 0,0 -0.00,0.00L 1091.92,652.000000" stroke="black" stroke-width="1" fill="none"/>
    <path d="M 1221.87,565.000000 V 566.00 a 1.00,1.00 0 0,1 -1.00,1.00 H 1026.23 a 1.36,1.36 0 0,1 -1.36,-1.36 V 565.64 a 1.36,1.36 0 0,0 -1.36,-1.36 H 828.87 a 1.00,1.00 0 0,1 -1.00,-1.00L 827.87,562.280000" stroke="black" stroke-width="1" fill="none"/>
    <path d="M 269.99,954.000000 H 775.96 a 0.00,0.00 0 0,1 0.00,0.00L 775.96,954.000000" stroke="black" stroke-width="1" fill="none"/>
    <path d="M 330.00,1240.490000 H 330.00 a 0.00,0.00 0 0,1 -0.00,-0.00 V 1158.01 a 0.00,0.00 0 0,1 0.00,-0.00L 330.00,1158.000000" stroke="black" stroke-width="1" fill="none"/>
    <path d="M 389.98,339.700000 H 449.98 a 0.00,0.00 0 0,1 0.00,0.00L 449.98,339.700000" stroke="black" stroke-width="1" fill="none"/>
    <path d="M 150.00,1158.000000 H 210.00 a 0.00,0.00 0 0,1 0.00,0.00L 210.00,1158.000000" stroke="black" stroke-width="1" fill="none"/>
    <path d="M 389.98,674.000000 V 614.00 a 0.00,0.00 0 0,1 0.00,-0.00L 389.98,614.000000" stroke="black" stroke-width="1" fill="none"/>
    <path d="M 1439.88,761.000000 H 1379.88 a 0.00,0.00 0 0,0 -0.00,0.00L 1379.88,761.000000" stroke="black" stroke-width="1" fill="none"/>
    <path d="M 1091.92,1158.000000 H 1282.51 a 0.00,0.00 0 0,1 0.00,0.00L 1282.51,1158.000000" stroke="black" stroke-width="1" fill="none"/>
    <path d="M 1091.92,1158.000000 V 1056.01 a 0.00,0.00 0 0,1 0.00,-0.00L 1091.92,1056.010000" stroke="black" stroke-width="1" fill="none"/>
    <path d="M 1091.92,954.000000 H 1090.92 a 1.00,1.00 0 0,1 -1.00,-1.00 V 941.50 a 10.00,10.00 0 0,0 -10.00,-10.00 H 787.96 a 10.00,10.00 0 0,0 -10.00,10.00 V 953.00 a 1.00,1.00 0 0,1 -1.00,1.00L 775.96,954.000000" stroke="black" stroke-width="1" fill="none"/>
    <path d="M 593.93,15.000000 H 737.98 a 0.00,0.00 0 0,1 0.00,0.00L 737.98,15.000000" stroke="black" stroke-width="1" fill="none"/>
    <path d="M 593.93,804.740000 V 595.72 a 0.00,0.00 0 0,1 0.00,-0.00L 593.93,595.720000" stroke="black" stroke-width="1" fill="none"/>
    <path d="M 1091.92,527.000000 H 876.89 a 0.00,0.00 0 0,0 -0.00,0.00L 876.89,527.000000" stroke="black" stroke-width="1" fill="none"/>
    <path d="M 390.00,1013.000000 H 370.00 a 10.00,10.00 0 0,0 -10.00,10.00 V 1037.52 a 10.00,10.00 0 0,1 -10.00,10.00 H 331.00 a 1.00,1.00 0 0,0 -1.00,1.00L 330.00,1049.520000" stroke="black" stroke-width="1" fill="none"/>
    <path d="M 1534.93,1158.000000 H 1474.93 a 0.00,0.00 0 0,0 -0.00,0.00L 1474.93,1158.000000" stroke="black" stroke-width="1" fill="none"/>
    <path d="M 1091.92,652.000000 V 527.00 a 0.00,0.00 0 0,1 0.00,-0.00L 1091.92,527.000000" stroke="black" stroke-width="1" fill="none"/>
    <path d="M 931.08,1218.000000 V 1198.00 a 10.00,10.00 0 0,0 -10.00,-10.00 H 907.73 a 10.00,10.00 0 0,1 -10.00,-10.00 V 1159.00 a 1.00,1.00 0 0,0 -1.00,-1.00L 895.73,1158.000000" stroke="black" stroke-width="1" fill="none"/>
    <path d="M 210.00,1218.000000 V 1158.00 a 0.00,0.00 0 0,1 0.00,-0.00L 210.00,1158.000000" stroke="black" stroke-width="1" fill="none"/>
    <path d="M 955.98,701.000000 V 761.00 a 0.00,0.00 0 0,0 0.00,0.00L 955.98,761.000000" stroke="black" stroke-width="1" fill="none"/>
    <path d="M 330.00,1158.000000 H 775.96 a 0.00,0.00 0 0,1 0.00,0.00L 775.96,1158.000000" stroke="black" stroke-width="1" fill="none"/>
    <path d="M 1282.51,1278.000000 V 1218.00 a 0.00,0.00 0 0,1 0.00,-0.00L 1282.51,1218.000000" stroke="black" stroke-width="1" fill="none"/>
    <path d="M 876.89,527.000000 H 874.89 a 2.00,2.00 0 0,0 -2.00,2.00 V 621.64 a 10.00,10.00 0 0,1 -10.00,10.00 H 813.97 a 10.00,10.00 0 0,0 -10.00,10.00 V 1140.01 a 10.00,10.00 0 0,1 -10.00,10.00 H 779.96 a 4.00,4.00 0 0,0 -4.00,4.00L 775.96,1158.000000" stroke="black" stroke-width="1" fill="none"/>
    <path d="M 936.89,233.000000 H 876.89 a 0.00,0.00 0 0,0 -0.00,0.00L 876.89,233.000000" stroke="black" stroke-width="1" fill="none"/>
    <path d="M 210.00,1323.000000 H 291.88 a 0.00,0.00 0 0,1 0.00,0.00L 291.88,1323.000000" stroke="black" stroke-width="1" fill="none"/>
    <path d="M 1319.89,407.000000 V 505.06 a 0.00,0.00 0 0,0 0.00,0.00L 1319.89,505.060000" stroke="black" stroke-width="1" fill="none"/>
    <path d="M 373.73,1503.000000 V 1443.00 a 0.00,0.00 0 0,1 0.00,-0.00L 373.73,1443.000000" stroke="black" stroke-width="1" fill="none"/>
    <path d="M 876.89,173.000000 H 593.93 a 0.00,0.00 0 0,0 -0.00,0.00L 593.93,173.000000" stroke="black" stroke-width="1" fill="none"/>
    <path d="M 269.99,1158.000000 H 330.00 a 0.00,0.00 0 0,1 0.00,0.00L 330.00,1158.000000" stroke="black" stroke-width="1" fill="none"/>
    <path d="M 291.88,1323.000000 H 373.73 a 0.00,0.00 0 0,1 0.00,0.00L 373.73,1323.000000" stroke="black" stroke-width="1" fill="none"/>
    <path d="M 876.89,331.000000 V 527.00 a 0.00,0.00 0 0,0 0.00,0.00L 876.89,527.000000" stroke="black" stroke-width="1" fill="none"/>
    <path d="M 895.98,954.000000 H 913.98 a 10.00,10.00 0 0,1 10.00,10.00 V 982.00 a 10.00,10.00 0 0,0 10.00,10.00 H 955.98 a 0.00,0.00 0 0,1 0.00,0.00L 955.98,992.000000" stroke="black" stroke-width="1" fill="none"/>
    <path d="M 1282.51,1218.000000 V 1158.00 a 0.00,0.00 0 0,1 0.00,-0.00L 1282.51,1158.000000" stroke="black" stroke-width="1" fill="none"/>
    <path d="M 1474.93,712.000000 H 1235.87 a 10.00,10.00 0 0,1 -10.00,-10.00 V 567.00 a 2.00,2.00 0 0,0 -2.00,-2.00L 1221.87,565.000000" stroke="black" stroke-width="1" fill="none"/>
    <path d="M 593.93,804.740000 H 1079.92 a 10.00,10.00 0 0,0 10.00,-10.00 V 762.00 a 1.00,1.00 0 0,1 1.00,-1.00L 1091.92,761.000000" stroke="black" stroke-width="1" fill="none"/>
    <path d="M 269.99,710.510000 V 467.00 a 0.00,0.00 0 0,1 0.00,-0.00L 269.99,467.000000" stroke="black" stroke-width="1" fill="none"/>
    <path d="M 827.87,562.280000 V 563.28 a 1.00,1.00 0 0,1 -1.00,1.00 H 783.96 a 10.00,10.00 0 0,0 -10.00,10.00 V 953.00 a 1.00,1.00 0 0,0 1.00,1.00L 775.96,954.000000" stroke="black" stroke-width="1" fill="none"/>
    <path d="M 1032.03,467.000000 V 513.00 a 10.00,10.00 0 0,0 10.00,10.00 H 1089.92 a 2.00,2.00 0 0,1 2.00,2.00L 1091.92,527.000000" stroke="black" stroke-width="1" fill="none"/>
    <path d="M 1319.89,407.000000 H 1221.87 a 0.00,0.00 0 0,0 -0.00,0.00L 1221.87,407.000000" stroke="black" stroke-width="1" fill="none"/>
    <path d="M 269.99,1278.000000 V 1218.00 a 0.00,0.00 0 0,1 0.00,-0.00L 269.99,1218.000000" stroke="black" stroke-width="1" fill="none"/>
    <path d="M 1091.92,1056.010000 V 954.00 a 0.00,0.00 0 0,1 0.00,-0.00L 1091.92,954.000000" stroke="black" stroke-width="1" fill="none"/>
    <path d="M 775.96,1410.000000 V 1323.00 a 0.00,0.00 0 0,1 0.00,-0.00L 775.96,1323.000000" stroke="black" stroke-width="1" fill="none"/>
    <path d="M 797.98,135.000000 H 777.98 a 10.00,10.00 0 0,1 -10.00,-10.00 V 89.00 a 10.00,10.00 0 0,0 -10.00,-10.00 H 739.98 a 2.00,2.00 0 0,1 -2.00,-2.00L 737.98,75.000000" stroke="black" stroke-width="1" fill="none"/>
    <path d="M 373.73,1323.000000 H 775.96 a 0.00,0.00 0 0,1 0.00,0.00L 775.96,1323.000000" stroke="black" stroke-width="1" fill="none"/>
    <path d="M 835.96,1289.250000 H 815.96 a 10.00,10.00 0 0,0 -10.00,10.00 V 1311.00 a 10.00,10.00 0 0,1 -10.00,10.00 H 776.96 a 1.00,1.00 0 0,0 -1.00,1.00L 775.96,1323.000000" stroke="black" stroke-width="1" fill="none"/>
    <path d="M 1077.83,113.000000 V 133.00 a 10.00,10.00 0 0,1 -10.00,10.00 H 1058.54 a 10.00,10.00 0 0,0 -10.00,10.00 V 172.00 a 1.00,1.00 0 0,1 -1.00,1.00L 1046.54,173.000000" stroke="black" stroke-width="1" fill="none"/>
    <path d="M 1091.92,652.000000 V 761.00 a 0.00,0.00 0 0,0 0.00,0.00L 1091.92,761.000000" stroke="black" stroke-width="1" fill="none"/>
    <path d="M 775.96,1158.000000 V 1323.00 a 0.00,0.00 0 0,0 0.00,0.00L 775.96,1323.000000" stroke="black" stroke-width="1" fill="none"/>
    <path d="M 955.98,761.000000 V 762.00 a 1.00,1.00 0 0,1 -1.00,1.00 H 817.97 a 10.00,10.00 0 0,0 -10.00,10.00 V 1144.01 a 10.00,10.00 0 0,1 -10.00,10.00 H 777.96 a 2.00,2.00 0 0,0 -2.00,2.00L 775.96,1158.000000" stroke="black" stroke-width="1" fill="none"/>
    <path d="M 449.98,339.700000 V 425.02 a 0.00,0.00 0 0,0 0.00,0.00L 449.98,425.020000" stroke="black" stroke-width="1" fill="none"/>
    <path d="M 1379.88,761.000000 H 1379.89 a 0.00,0.00 0 0,1 0.00,0.00 V 954.00 a 0.00,0.00 0 0,1 -0.00,0.00L 1379.88,954.000000" stroke="black" stroke-width="1" fill="none"/>
    <path d="M 653.93,467.000000 H 593.93 a 0.00,0.00 0 0,0 -0.00,0.00L 593.93,467.000000" stroke="black" stroke-width="1" fill="none"/>
    <path d="M 1282.51,1158.000000 H 1474.93 a 0.00,0.00 0 0,1 0.00,0.00L 1474.93,1158.000000" stroke="black" stroke-width="1" fill="none"/>
    <path d="M 593.93,173.000000 V 467.00 a 0.00,0.00 0 0,0 0.00,0.00L 593.93,467.000000" stroke="black" stroke-width="1" fill="none"/>
    <path d="M 876.89,701.000000 H 917.98 a 10.00,10.00 0 0,1 10.00,10.00 V 978.00 a 10.00,10.00 0 0,0 10.00,10.00 H 953.98 a 2.00,2.00 0 0,1 2.00,2.00L 955.98,992.000000" stroke="black" stroke-width="1" fill="none"/>
    <path d="M 1221.87,761.000000 V 565.00 a 0.00,0.00 0 0,1 0.00,-0.00L 1221.87,565.000000" stroke="black" stroke-width="1" fill="none"/>
    <path d="M 1091.92,761.000000 H 1092.92 a 1.00,1.00 0 0,1 1.00,1.00 V 773.50 a 10.00,10.00 0 0,0 10.00,10.00 H 1365.89 a 10.00,10.00 0 0,0 10.00,-10.00 V 763.00 a 2.00,2.00 0 0,1 2.00,-2.00L 1379.88,761.000000" stroke="black" stroke-width="1" fill="none"/>
    <path d="M 269.99,710.510000 V 954.00 a 0.00,0.00 0 0,0 0.00,0.00L 269.99,954.000000" stroke="black" stroke-width="1" fill="none"/>
    <path d="M 1187.08,505.000000 V 553.00 a 10.00,10.00 0 0,0 10.00,10.00 H 1220.87 a 1.00,1.00 0 0,1 1.00,1.00L 1221.87,565.000000" stroke="black" stroke-width="1" fill="none"/>
    <path d="M 373.73,1383.000000 V 1323.00 a 0.00,0.00 0 0,1 0.00,-0.00L 373.73,1323.000000" stroke="black" stroke-width="1" fill="none"/>
    <path d="M 210.00,1218.000000 V 1323.00 a 0.00,0.00 0 0,0 0.00,0.00L 210.00,1323.000000" stroke="black" stroke-width="1" fill="none"/>
    <path d="M 972.03,347.000000 V 407.00 a 0.00,0.00 0 0,0 0.00,0.00L 972.03,407.000000" stroke="black" stroke-width="1" fill="none"/>
    <path d="M 895.98,1074.000000 H 915.98 a 10.00,10.00 0 0,0 10.00,-10.00 V 1006.00 a 10.00,10.00 0 0,1 10.00,-10.00 H 953.98 a 2.00,2.00 0 0,0 2.00,-2.00L 955.98,992.000000" stroke="black" stroke-width="1" fill="none"/>
    <path d="M 1211.92,845.000000 H 1191.92 a 10.00,10.00 0 0,0 -10.00,10.00 V 891.00 a 10.00,10.00 0 0,1 -10.00,10.00 H 1153.92 a 2.00,2.00 0 0,0 -2.00,2.00L 1151.92,905.000000" stroke="black" stroke-width="1" fill="none"/>
    <path d="M 330.00,838.520000 V 1049.52 a 0.00,0.00 0 0,0 0.00,0.00L 330.00,1049.520000" stroke="black" stroke-width="1" fill="none"/>
    <path d="M 835.98,954.000000 H 895.98 a 0.00,0.00 0 0,1 0.00,0.00L 895.98,954.000000" stroke="black" stroke-width="1" fill="none"/>
    <path d="M 876.89,233.000000 V 235.00 a 2.00,2.00 0 0,1 -2.00,2.00 H 837.87 a 10.00,10.00 0 0,0 -10.00,10.00 V 562.28 a 0.00,0.00 0 0,0 0.00,0.00L 827.87,562.280000" stroke="black" stroke-width="1" fill="none"/>
    <path d="M 1211.92,905.000000 H 1151.92 a 0.00,0.00 0 0,0 -0.00,0.00L 1151.92,905.000000" stroke="black" stroke-width="1" fill="none"/>
    <path d="M 330.00,838.520000 V 769.00 a 10.00,10.00 0 0,1 10.00,-10.00 H 954.98 a 1.00,1.00 0 0,1 1.00,1.00L 955.98,761.000000" stroke="black" stroke-width="1" fill="none"/>
    <path d="M 1221.87,407.000000 V 565.00 a 0.00,0.00 0 0,0 0.00,0.00L 1221.87,565.000000" stroke="black" stroke-width="1" fill="none"/>
    <path d="M 30.00,1158.000000 H 90.00 a 0.00,0.00 0 0,1 0.00,0.00L 90.00,1158.000000" stroke="black" stroke-width="1" fill="none"/>
    <path d="M 876.89,331.000000 H 799.96 a 10.00,10.00 0 0,1 -10.00,-10.00 V 233.00 a 0.00,0.00 0 0,1 0.00,-0.00L 789.96,233.000000" stroke="black" stroke-width="1" fill="none"/>
    <path d="M 871.08,1218.000000 V 1198.00 a 10.00,10.00 0 0,1 10.00,-10.00 H 883.73 a 10.00,10.00 0 0,0 10.00,-10.00 V 1159.00 a 1.00,1.00 0 0,1 1.00,-1.00L 895.73,1158.000000" stroke="black" stroke-width="1" fill="none"/>
    <path d="M 1046.54,173.000000 V 280.00 a 10.00,10.00 0 0,1 -10.00,10.00 H 934.46 a 10.00,10.00 0 0,0 -10.00,10.00 V 550.28 a 10.00,10.00 0 0,1 -10.00,10.00 H 828.87 a 1.00,1.00 0 0,0 -1.00,1.00L 827.87,562.280000" stroke="black" stroke-width="1" fill="none"/>
    <path d="M 1319.89,173.000000 H 1046.54 a 0.00,0.00 0 0,0 -0.00,0.00L 1046.54,173.000000" stroke="black" stroke-width="1" fill="none"/>
    <path d="M 390.00,1073.000000 H 370.00 a 10.00,10.00 0 0,1 -10.00,-10.00 V 1061.52 a 10.00,10.00 0 0,0 -10.00,-10.00 H 331.00 a 1.00,1.00 0 0,1 -1.00,-1.00L 330.00,1049.520000" stroke="black" stroke-width="1" fill="none"/>
    <path d="M 797.98,75.000000 H 737.98 a 0.00,0.00 0 0,0 -0.00,0.00L 737.98,75.000000" stroke="black" stroke-width="1" fill="none"/>
    <path d="M 835.98,1074.000000 H 895.98 a 0.00,0.00 0 0,1 0.00,0.00L 895.98,1074.000000" stroke="black" stroke-width="1" fill="none"/>
    <path d="M 876.89,527.000000 V 701.00 a 0.00,0.00 0 0,0 0.00,0.00L 876.89,701.000000" stroke="black" stroke-width="1" fill="none"/>
    <path d="M 449.98,425.020000 V 554.00 a 0.00,0.00 0 0,0 0.00,0.00L 449.98,554.000000" stroke="black" stroke-width="1" fill="none"/>
    <path d="M 876.89,233.000000 V 331.00 a 0.00,0.00 0 0,0 0.00,0.00L 876.89,331.000000" stroke="black" stroke-width="1" fill="none"/>
    <path d="M 1017.83,113.000000 V 133.00 a 10.00,10.00 0 0,0 10.00,10.00 H 1034.54 a 10.00,10.00 0 0,1 10.00,10.00 V 172.00 a 1.00,1.00 0 0,0 1.00,1.00L 1046.54,173.000000" stroke="black" stroke-width="1" fill="none"/>
    <path d="M 533.93,595.720000 H 593.93 a 0.00,0.00 0 0,1 0.00,0.00L 593.93,595.720000" stroke="black" stroke-width="1" fill="none"/>
    <path d="M 593.93,94.010000 V 15.00 a 0.00,0.00 0 0,1 0.00,-0.00L 593.93,15.000000" stroke="black" stroke-width="1" fill="none"/>
    <path d="M 373.73,1443.000000 V 1383.00 a 0.00,0.00 0 0,1 0.00,-0.00L 373.73,1383.000000" stroke="black" stroke-width="1" fill="none"/>
    <path d="M 419.66,1410.000000 H 660.58 a 0.00,0.00 0 0,1 0.00,0.00L 660.58,1410.000000" stroke="black" stroke-width="1" fill="none"/>
    <path d="M 1379.88,954.000000 H 1091.92 a 0.00,0.00 0 0,0 -0.00,0.00L 1091.92,954.000000" stroke="black" stroke-width="1" fill="none"/>
    <rect x="760.96" y="1308.0" width="30.0" height="30.0" stroke="black" stroke-width="1" id="0" onclick="ow3.nodeClick(this)" fill="#f0f0d2"/>

    <rect x="760.96" y="1143.0" width="30.0" height="30.0" stroke="black" stroke-width="1" id="1" onclick="ow3.nodeClick(this)" fill="#f0f0d2"/>

    <rect x="760.96" y="939.0" width="30.0" height="30.0" stroke="black" stroke-width="1" id="2" onclick="ow3.nodeClick(this)" fill="#f0f0d2"/>

    <rect x="880.73" y="1143.0" width="30.0" height="30.0" stroke="black" stroke-width="1" id="3" onclick="ow3.nodeClick(this)" fill="#f0f0d2"/>

    <rect x="358.73" y="1308.0" width="30.0" height="30.0" stroke="black" stroke-width="1" id="4" onclick="ow3.nodeClick(this)" fill="#f0f0d2"/>

    <rect x="315.0" y="1143.0" width="30.0" height="30.0" stroke="black" stroke-width="1" id="5" onclick="ow3.nodeClick(this)" fill="#f0f0d2"/>

    <rect x="812.87" y="547.28" width="30.0" height="30.0" stroke="black" stroke-width="1" id="6" onclick="ow3.nodeClick(this)" fill="#f0f0d2"/>

    <rect x="940.98" y="746.0" width="30.0" height="30.0" stroke="black" stroke-width="1" id="7" onclick="ow3.nodeClick(this)" fill="#f0f0d2"/>

    <rect x="1076.92" y="939.0" width="30.0" height="30.0" stroke="black" stroke-width="1" id="8" onclick="ow3.nodeClick(this)" fill="#f0f0d2"/>

    <rect x="315.0" y="1034.52" width="30.0" height="30.0" stroke="black" stroke-width="1" id="9" onclick="ow3.nodeClick(this)" fill="#f0f0d2"/>

    <rect x="861.89" y="512.0" width="30.0" height="30.0" stroke="black" stroke-width="1" id="10" onclick="ow3.nodeClick(this)" fill="#f0f0d2"/>

    <rect x="1206.87" y="550.0" width="30.0" height="30.0" stroke="black" stroke-width="1" id="11" onclick="ow3.nodeClick(this)" fill="#f0f0d2"/>

    <rect x="1459.93" y="697.0" width="30.0" height="30.0" stroke="black" stroke-width="1" id="12" onclick="ow3.nodeClick(this)" fill="#f0f0d2"/>

    <rect x="1076.92" y="512.0" width="30.0" height="30.0" stroke="black" stroke-width="1" id="13" onclick="ow3.nodeClick(this)" fill="#f0f0d2"/>

    <rect x="861.89" y="218.0" width="30.0" height="30.0" stroke="black" stroke-width="1" id="14" onclick="ow3.nodeClick(this)" fill="#f0f0d2"/>

    <rect x="375.0" y="998.0" width="30.0" height="30.0" stroke="black" stroke-width="1" id="15" onclick="ow3.nodeClick(this)" fill="#f0f0d2"/>

    <rect x="940.98" y="977.0" width="30.0" height="30.0" stroke="black" stroke-width="1" id="16" onclick="ow3.nodeClick(this)" fill="#f0f0d2"/>

    <rect x="989.86" y="1143.0" width="30.0" height="30.0" stroke="black" stroke-width="1" id="17" onclick="ow3.nodeClick(this)" fill="#f0f0d2"/>

    <rect x="434.98" y="539.0" width="30.0" height="30.0" stroke="black" stroke-width="1" id="18" onclick="ow3.nodeClick(this)" fill="#f0f0d2"/>

    <rect x="1031.54" y="158.0" width="30.0" height="30.0" stroke="black" stroke-width="1" id="19" onclick="ow3.nodeClick(this)" fill="#f0f0d2"/>

    <rect x="856.08" y="1203.0" width="30.0" height="30.0" stroke="black" stroke-width="1" id="20" onclick="ow3.nodeClick(this)" fill="#f0f0d2"/>

    <rect x="1304.89" y="490.06" width="30.0" height="30.0" stroke="black" stroke-width="1" id="21" onclick="ow3.nodeClick(this)" fill="#f0f0d2"/>

    <rect x="880.98" y="939.0" width="30.0" height="30.0" stroke="black" stroke-width="1" id="22" onclick="ow3.nodeClick(this)" fill="#f0f0d2"/>

    <rect x="916.08" y="1203.0" width="30.0" height="30.0" stroke="black" stroke-width="1" id="23" onclick="ow3.nodeClick(this)" fill="#f0f0d2"/>

    <rect x="358.73" y="1368.0" width="30.0" height="30.0" stroke="black" stroke-width="1" id="24" onclick="ow3.nodeClick(this)" fill="#f0f0d2"/>

    <rect x="1364.88" y="939.0" width="30.0" height="30.0" stroke="black" stroke-width="1" id="25" onclick="ow3.nodeClick(this)" fill="#f0f0d2"/>

    <rect x="1364.88" y="746.0" width="30.0" height="30.0" stroke="black" stroke-width="1" id="26" onclick="ow3.nodeClick(this)" fill="#f0f0d2"/>

    <rect x="374.98" y="599.0" width="30.0" height="30.0" stroke="black" stroke-width="1" id="27" onclick="ow3.nodeClick(this)" fill="#f0f0d2"/>

    <rect x="276.88" y="1308.0" width="30.0" height="30.0" stroke="black" stroke-width="1" id="28" onclick="ow3.nodeClick(this)" fill="#f0f0d2"/>

    <rect x="1459.93" y="1143.0" width="30.0" height="30.0" stroke="black" stroke-width="1" id="29" onclick="ow3.nodeClick(this)" fill="#f0f0d2"/>

    <rect x="578.93" y="452.0" width="30.0" height="30.0" stroke="black" stroke-width="1" id="30" onclick="ow3.nodeClick(this)" fill="#f0f0d2"/>

    <rect x="1267.51" y="1143.0" width="30.0" height="30.0" stroke="black" stroke-width="1" id="31" onclick="ow3.nodeClick(this)" fill="#f0f0d2"/>

    <rect x="1364.88" y="392.0" width="30.0" height="30.0" stroke="black" stroke-width="1" id="32" onclick="ow3.nodeClick(this)" fill="#f0f0d2"/>

    <rect x="374.98" y="659.0" width="30.0" height="30.0" stroke="black" stroke-width="1" id="33" onclick="ow3.nodeClick(this)" fill="#f0f0d2"/>

    <rect x="1017.03" y="452.0" width="30.0" height="30.0" stroke="black" stroke-width="1" id="34" onclick="ow3.nodeClick(this)" fill="#f0f0d2"/>

    <rect x="254.99" y="1143.0" width="30.0" height="30.0" stroke="black" stroke-width="1" id="35" onclick="ow3.nodeClick(this)" fill="#f0f0d2"/>

    <rect x="1076.92" y="1041.01" width="30.0" height="30.0" stroke="black" stroke-width="1" id="36" onclick="ow3.nodeClick(this)" fill="#f0f0d2"/>

    <rect x="1136.92" y="890.0" width="30.0" height="30.0" stroke="black" stroke-width="1" id="37" onclick="ow3.nodeClick(this)" fill="#f0f0d2"/>

    <rect x="820.96" y="1334.25" width="30.0" height="30.0" stroke="black" stroke-width="1" id="38" onclick="ow3.nodeClick(this)" fill="#f0f0d2"/>

    <rect x="375.0" y="1058.0" width="30.0" height="30.0" stroke="black" stroke-width="1" id="39" onclick="ow3.nodeClick(this)" fill="#f0f0d2"/>

    <rect x="722.98" y="120.0" width="30.0" height="30.0" stroke="black" stroke-width="1" id="40" onclick="ow3.nodeClick(this)" fill="#f0f0d2"/>

    <rect x="1172.08" y="490.0" width="30.0" height="30.0" stroke="black" stroke-width="1" id="41" onclick="ow3.nodeClick(this)" fill="#f0f0d2"/>

    <rect x="921.89" y="218.0" width="30.0" height="30.0" stroke="black" stroke-width="1" id="42" onclick="ow3.nodeClick(this)" fill="#f0f0d2"/>

    <rect x="1196.92" y="890.0" width="30.0" height="30.0" stroke="black" stroke-width="1" id="43" onclick="ow3.nodeClick(this)" fill="#f0f0d2"/>

    <rect x="722.98" y="60.0" width="30.0" height="30.0" stroke="black" stroke-width="1" id="44" onclick="ow3.nodeClick(this)" fill="#f0f0d2"/>

    <rect x="434.98" y="599.0" width="30.0" height="30.0" stroke="black" stroke-width="1" id="45" onclick="ow3.nodeClick(this)" fill="#f0f0d2"/>

    <rect x="434.98" y="410.02" width="30.0" height="30.0" stroke="black" stroke-width="1" id="46" onclick="ow3.nodeClick(this)" fill="#f0f0d2"/>

    <rect x="861.89" y="316.0" width="30.0" height="30.0" stroke="black" stroke-width="1" id="47" onclick="ow3.nodeClick(this)" fill="#f0f0d2"/>

    <rect x="1424.88" y="746.0" width="30.0" height="30.0" stroke="black" stroke-width="1" id="48" onclick="ow3.nodeClick(this)" fill="#f0f0d2"/>

    <rect x="1062.83" y="98.0" width="30.0" height="30.0" stroke="black" stroke-width="1" id="49" onclick="ow3.nodeClick(this)" fill="#f0f0d2"/>

    <rect x="254.99" y="939.0" width="30.0" height="30.0" stroke="black" stroke-width="1" id="50" onclick="ow3.nodeClick(this)" fill="#f0f0d2"/>

    <rect x="1076.92" y="1143.0" width="30.0" height="30.0" stroke="black" stroke-width="1" id="51" onclick="ow3.nodeClick(this)" fill="#f0f0d2"/>

    <rect x="195.0" y="1143.0" width="30.0" height="30.0" stroke="black" stroke-width="1" id="52" onclick="ow3.nodeClick(this)" fill="#f0f0d2"/>

    <rect x="880.98" y="1059.0" width="30.0" height="30.0" stroke="black" stroke-width="1" id="53" onclick="ow3.nodeClick(this)" fill="#f0f0d2"/>

    <rect x="940.98" y="686.0" width="30.0" height="30.0" stroke="black" stroke-width="1" id="54" onclick="ow3.nodeClick(this)" fill="#f0f0d2"/>

    <rect x="1196.92" y="830.0" width="30.0" height="30.0" stroke="black" stroke-width="1" id="55" onclick="ow3.nodeClick(this)" fill="#f0f0d2"/>

    <rect x="1267.51" y="1203.0" width="30.0" height="30.0" stroke="black" stroke-width="1" id="56" onclick="ow3.nodeClick(this)" fill="#f0f0d2"/>

    <rect x="1304.89" y="158.0" width="30.0" height="30.0" stroke="black" stroke-width="1" id="57" onclick="ow3.nodeClick(this)" fill="#f0f0d2"/>

    <rect x="1206.87" y="746.0" width="30.0" height="30.0" stroke="black" stroke-width="1" id="58" onclick="ow3.nodeClick(this)" fill="#f0f0d2"/>

    <rect x="820.98" y="1059.0" width="30.0" height="30.0" stroke="black" stroke-width="1" id="59" onclick="ow3.nodeClick(this)" fill="#f0f0d2"/>

    <rect x="1076.92" y="392.0" width="30.0" height="30.0" stroke="black" stroke-width="1" id="60" onclick="ow3.nodeClick(this)" fill="#f0f0d2"/>

    <rect x="135.0" y="1143.0" width="30.0" height="30.0" stroke="black" stroke-width="1" id="61" onclick="ow3.nodeClick(this)" fill="#f0f0d2"/>

    <rect x="254.99" y="1203.0" width="30.0" height="30.0" stroke="black" stroke-width="1" id="62" onclick="ow3.nodeClick(this)" fill="#f0f0d2"/>

    <rect x="374.98" y="410.02" width="30.0" height="30.0" stroke="black" stroke-width="1" id="63" onclick="ow3.nodeClick(this)" fill="#f0f0d2"/>

    <rect x="254.99" y="452.0" width="30.0" height="30.0" stroke="black" stroke-width="1" id="64" onclick="ow3.nodeClick(this)" fill="#f0f0d2"/>

    <rect x="782.98" y="120.0" width="30.0" height="30.0" stroke="black" stroke-width="1" id="65" onclick="ow3.nodeClick(this)" fill="#f0f0d2"/>

    <rect x="1256.92" y="890.0" width="30.0" height="30.0" stroke="black" stroke-width="1" id="66" onclick="ow3.nodeClick(this)" fill="#f0f0d2"/>

    <rect x="957.03" y="392.0" width="30.0" height="30.0" stroke="black" stroke-width="1" id="67" onclick="ow3.nodeClick(this)" fill="#f0f0d2"/>

    <rect x="75.0" y="1143.0" width="30.0" height="30.0" stroke="black" stroke-width="1" id="68" onclick="ow3.nodeClick(this)" fill="#f0f0d2"/>

    <rect x="1316.92" y="890.0" width="30.0" height="30.0" stroke="black" stroke-width="1" id="69" onclick="ow3.nodeClick(this)" fill="#f0f0d2"/>

    <rect x="195.0" y="1308.0" width="30.0" height="30.0" stroke="black" stroke-width="1" id="70" onclick="ow3.nodeClick(this)" fill="#f0f0d2"/>

    <rect x="1076.92" y="637.0" width="30.0" height="30.0" stroke="black" stroke-width="1" id="71" onclick="ow3.nodeClick(this)" fill="#f0f0d2"/>

    <rect x="254.99" y="695.51" width="30.0" height="30.0" stroke="black" stroke-width="1" id="72" onclick="ow3.nodeClick(this)" fill="#f0f0d2"/>

    <rect x="760.96" y="1395.0" width="30.0" height="30.0" stroke="black" stroke-width="1" id="73" onclick="ow3.nodeClick(this)" fill="#f0f0d2"/>

    <rect x="1136.92" y="637.0" width="30.0" height="30.0" stroke="black" stroke-width="1" id="74" onclick="ow3.nodeClick(this)" fill="#f0f0d2"/>

    <rect x="774.96" y="218.0" width="30.0" height="30.0" stroke="black" stroke-width="1" id="75" onclick="ow3.nodeClick(this)" fill="#f0f0d2"/>

    <rect x="645.58" y="1395.0" width="30.0" height="30.0" stroke="black" stroke-width="1" id="76" onclick="ow3.nodeClick(this)" fill="#f0f0d2"/>

    <rect x="820.98" y="999.0" width="30.0" height="30.0" stroke="black" stroke-width="1" id="77" onclick="ow3.nodeClick(this)" fill="#f0f0d2"/>

    <rect x="638.93" y="452.0" width="30.0" height="30.0" stroke="black" stroke-width="1" id="78" onclick="ow3.nodeClick(this)" fill="#f0f0d2"/>

    <rect x="1076.92" y="1203.0" width="30.0" height="30.0" stroke="black" stroke-width="1" id="79" onclick="ow3.nodeClick(this)" fill="#f0f0d2"/>

    <rect x="820.98" y="939.0" width="30.0" height="30.0" stroke="black" stroke-width="1" id="80" onclick="ow3.nodeClick(this)" fill="#f0f0d2"/>

    <rect x="1519.93" y="1143.0" width="30.0" height="30.0" stroke="black" stroke-width="1" id="81" onclick="ow3.nodeClick(this)" fill="#f0f0d2"/>

    <rect x="1017.03" y="392.0" width="30.0" height="30.0" stroke="black" stroke-width="1" id="82" onclick="ow3.nodeClick(this)" fill="#f0f0d2"/>

    <rect x="1304.89" y="392.0" width="30.0" height="30.0" stroke="black" stroke-width="1" id="83" onclick="ow3.nodeClick(this)" fill="#f0f0d2"/>

    <rect x="1076.92" y="746.0" width="30.0" height="30.0" stroke="black" stroke-width="1" id="84" onclick="ow3.nodeClick(this)" fill="#f0f0d2"/>

    <rect x="434.98" y="324.7" width="30.0" height="30.0" stroke="black" stroke-width="1" id="85" onclick="ow3.nodeClick(this)" fill="#f0f0d2"/>

    <rect x="315.0" y="823.52" width="30.0" height="30.0" stroke="black" stroke-width="1" id="86" onclick="ow3.nodeClick(this)" fill="#f0f0d2"/>

    <rect x="15.0" y="1143.0" width="30.0" height="30.0" stroke="black" stroke-width="1" id="87" onclick="ow3.nodeClick(this)" fill="#f0f0d2"/>

    <rect x="957.03" y="332.0" width="30.0" height="30.0" stroke="black" stroke-width="1" id="88" onclick="ow3.nodeClick(this)" fill="#f0f0d2"/>

    <rect x="578.93" y="789.74" width="30.0" height="30.0" stroke="black" stroke-width="1" id="89" onclick="ow3.nodeClick(this)" fill="#f0f0d2"/>

    <rect x="1206.87" y="392.0" width="30.0" height="30.0" stroke="black" stroke-width="1" id="90" onclick="ow3.nodeClick(this)" fill="#f0f0d2"/>

    <rect x="254.99" y="1263.0" width="30.0" height="30.0" stroke="black" stroke-width="1" id="91" onclick="ow3.nodeClick(this)" fill="#f0f0d2"/>

    <rect x="782.98" y="60.0" width="30.0" height="30.0" stroke="black" stroke-width="1" id="92" onclick="ow3.nodeClick(this)" fill="#f0f0d2"/>

    <rect x="358.73" y="1428.0" width="30.0" height="30.0" stroke="black" stroke-width="1" id="93" onclick="ow3.nodeClick(this)" fill="#f0f0d2"/>

    <rect x="434.98" y="659.0" width="30.0" height="30.0" stroke="black" stroke-width="1" id="94" onclick="ow3.nodeClick(this)" fill="#f0f0d2"/>

    <rect x="194.99" y="939.0" width="30.0" height="30.0" stroke="black" stroke-width="1" id="95" onclick="ow3.nodeClick(this)" fill="#f0f0d2"/>

    <rect x="374.98" y="324.7" width="30.0" height="30.0" stroke="black" stroke-width="1" id="96" onclick="ow3.nodeClick(this)" fill="#f0f0d2"/>

    <rect x="820.96" y="1274.25" width="30.0" height="30.0" stroke="black" stroke-width="1" id="97" onclick="ow3.nodeClick(this)" fill="#f0f0d2"/>

    <rect x="435.0" y="1058.0" width="30.0" height="30.0" stroke="black" stroke-width="1" id="98" onclick="ow3.nodeClick(this)" fill="#f0f0d2"/>

    <rect x="404.66" y="1395.0" width="30.0" height="30.0" stroke="black" stroke-width="1" id="99" onclick="ow3.nodeClick(this)" fill="#f0f0d2"/>

    <rect x="722.98" y="0.0" width="30.0" height="30.0" stroke="black" stroke-width="1" id="100" onclick="ow3.nodeClick(this)" fill="#f0f0d2"/>

    <rect x="195.0" y="1203.0" width="30.0" height="30.0" stroke="black" stroke-width="1" id="101" onclick="ow3.nodeClick(this)" fill="#f0f0d2"/>

    <rect x="435.0" y="998.0" width="30.0" height="30.0" stroke="black" stroke-width="1" id="102" onclick="ow3.nodeClick(this)" fill="#f0f0d2"/>

    <rect x="861.89" y="686.0" width="30.0" height="30.0" stroke="black" stroke-width="1" id="103" onclick="ow3.nodeClick(this)" fill="#f0f0d2"/>

    <rect x="578.93" y="158.0" width="30.0" height="30.0" stroke="black" stroke-width="1" id="104" onclick="ow3.nodeClick(this)" fill="#f0f0d2"/>

    <rect x="1267.51" y="1263.0" width="30.0" height="30.0" stroke="black" stroke-width="1" id="105" onclick="ow3.nodeClick(this)" fill="#f0f0d2"/>

    <rect x="861.89" y="158.0" width="30.0" height="30.0" stroke="black" stroke-width="1" id="106" onclick="ow3.nodeClick(this)" fill="#f0f0d2"/>

    <rect x="880.96" y="1274.25" width="30.0" height="30.0" stroke="black" stroke-width="1" id="107" onclick="ow3.nodeClick(this)" fill="#f0f0d2"/>

    <rect x="495.0" y="1085.11" width="30.0" height="30.0" stroke="black" stroke-width="1" id="108" onclick="ow3.nodeClick(this)" fill="#f0f0d2"/>

    <rect x="796.08" y="1203.0" width="30.0" height="30.0" stroke="black" stroke-width="1" id="109" onclick="ow3.nodeClick(this)" fill="#f0f0d2"/>

    <rect x="578.93" y="79.01" width="30.0" height="30.0" stroke="black" stroke-width="1" id="110" onclick="ow3.nodeClick(this)" fill="#f0f0d2"/>

    <rect x="578.93" y="580.72" width="30.0" height="30.0" stroke="black" stroke-width="1" id="111" onclick="ow3.nodeClick(this)" fill="#f0f0d2"/>

    <rect x="375.0" y="1178.0" width="30.0" height="30.0" stroke="black" stroke-width="1" id="112" onclick="ow3.nodeClick(this)" fill="#f0f0d2"/>

    <rect x="940.96" y="1274.25" width="30.0" height="30.0" stroke="black" stroke-width="1" id="113" onclick="ow3.nodeClick(this)" fill="#f0f0d2"/>

    <rect x="358.73" y="1488.0" width="30.0" height="30.0" stroke="black" stroke-width="1" id="114" onclick="ow3.nodeClick(this)" fill="#f0f0d2"/>

    <rect x="495.0" y="1025.11" width="30.0" height="30.0" stroke="black" stroke-width="1" id="115" onclick="ow3.nodeClick(this)" fill="#f0f0d2"/>

    <rect x="518.93" y="580.72" width="30.0" height="30.0" stroke="black" stroke-width="1" id="116" onclick="ow3.nodeClick(this)" fill="#f0f0d2"/>

    <rect x="315.0" y="1225.49" width="30.0" height="30.0" stroke="black" stroke-width="1" id="117" onclick="ow3.nodeClick(this)" fill="#f0f0d2"/>

    <rect x="1002.83" y="98.0" width="30.0" height="30.0" stroke="black" stroke-width="1" id="118" onclick="ow3.nodeClick(this)" fill="#f0f0d2"/>

    <rect x="578.93" y="0.0" width="30.0" height="30.0" stroke="black" stroke-width="1" id="119" onclick="ow3.nodeClick(this)" fill="#f0f0d2"/>

</g>
</g>
</svg>
