<?xml version="1.0" encoding="UTF-8"?>
<svg id="canvasSVG" xmlns="http://www.w3.org/2000/svg" width="480px" height="270px">
<rect x="0" y="0" width="480" height="270" stroke="none" stroke-width="1" id="" onclick="null" fill="#bdbddf"/>
<g id="outerGroup">
<g transform="translate(63.92,20.00),scale(0.18),translate(-16.41,-16.41)">
    <path d="M 1466.63,418.350000 H 1543.51 a 0.00,0.00 0 0,1 0.00,0.00L 1543.51,418.350000" stroke="black" stroke-width="1" fill="none"/>
    <path d="M 754.64,418.350000 V 418.36 a 0.00,0.00 0 0,1 -0.00,0.00 H 579.61 a 0.00,0.00 0 0,1 -0.00,-0.00L 579.60,418.350000" stroke="black" stroke-width="1" fill="none"/>
    <path d="M 943.12,229.880000 V 418.35 a 0.00,0.00 0 0,0 0.00,0.00L 943.12,418.350000" stroke="black" stroke-width="1" fill="none"/>
    <path d="M 1280.22,1182.240000 H 1283.22 a 3.00,3.00 0 0,1 3.00,3.00 V 1201.65 a 10.00,10.00 0 0,0 10.00,10.00 H 1366.00 a 10.00,10.00 0 0,1 10.00,10.00 V 1245.06 a 0.00,0.00 0 0,0 0.00,0.00L 1376.00,1245.060000" stroke="black" stroke-width="1" fill="none"/>
    <path d="M 943.12,229.880000 H 868.29 a 0.00,0.00 0 0,0 -0.00,0.00L 868.29,229.880000" stroke="black" stroke-width="1" fill="none"/>
    <path d="M 1280.22,930.940000 V 993.76 a 0.00,0.00 0 0,0 0.00,0.00L 1280.22,993.760000" stroke="black" stroke-width="1" fill="none"/>
    <path d="M 1118.14,1056.590000 V 1037.18 a 10.00,10.00 0 0,0 -10.00,-10.00 H 1107.41 a 10.00,10.00 0 0,1 -10.00,-10.00 V 994.76 a 1.00,1.00 0 0,0 -1.00,-1.00L 1095.41,993.760000" stroke="black" stroke-width="1" fill="none"/>
    <path d="M 943.12,612.080000 V 805.29 a 0.00,0.00 0 0,0 0.00,0.00L 943.12,805.290000" stroke="black" stroke-width="1" fill="none"/>
    <path d="M 1142.59,1119.410000 H 1217.41 a 0.00,0.00 0 0,1 0.00,0.00L 1217.41,1119.410000" stroke="black" stroke-width="1" fill="none"/>
    <path d="M 193.06,805.290000 H 118.24 a 0.00,0.00 0 0,0 -0.00,0.00L 118.24,805.290000" stroke="black" stroke-width="1" fill="none"/>
    <path d="M 1094.18,229.880000 H 1018.63 a 0.00,0.00 0 0,0 -0.00,0.00L 1018.63,229.880000" stroke="black" stroke-width="1" fill="none"/>
    <path d="M 702.82,157.060000 H 777.65 a 0.00,0.00 0 0,1 0.00,0.00L 777.65,157.060000" stroke="black" stroke-width="1" fill="none"/>
    <path d="M 1217.41,993.760000 H 1095.41 a 0.00,0.00 0 0,0 -0.00,0.00L 1095.41,993.760000" stroke="black" stroke-width="1" fill="none"/>
    <path d="M 1755.97,517.590000 V 580.41 a 0.00,0.00 0 0,0 0.00,0.00L 1755.97,580.410000" stroke="black" stroke-width="1" fill="none"/>
    <path d="M 1818.79,706.060000 V 831.71 a 0.00,0.00 0 0,0 0.00,0.00L 1818.79,831.710000" stroke="black" stroke-width="1" fill="none"/>
    <path d="M 1217.41,708.460000 V 706.46 a 2.00,2.00 0 0,1 2.00,-2.00 H 1238.82 a 10.00,10.00 0 0,0 10.00,-10.00 V 655.64 a 10.00,10.00 0 0,1 10.00,-10.00 H 1292.23 a 0.00,0.00 0 0,1 0.00,0.00L 1292.23,645.640000" stroke="black" stroke-width="1" fill="none"/>
    <path d="M 1217.41,418.350000 V 708.46 a 0.00,0.00 0 0,0 0.00,0.00L 1217.41,708.460000" stroke="black" stroke-width="1" fill="none"/>
    <path d="M 777.65,94.240000 H 744.24 a 10.00,10.00 0 0,0 -10.00,10.00 V 143.06 a 10.00,10.00 0 0,1 -10.00,10.00 H 704.82 a 2.00,2.00 0 0,0 -2.00,2.00L 702.82,157.060000" stroke="black" stroke-width="1" fill="none"/>
    <path d="M 579.60,868.120000 V 930.94 a 0.00,0.00 0 0,0 0.00,0.00L 579.60,930.940000" stroke="black" stroke-width="1" fill="none"/>
    <path d="M 168.68,194.780000 V 193.78 a 1.00,1.00 0 0,0 -1.00,-1.00 H 139.27 a 10.00,10.00 0 0,1 -10.00,-10.00 V 175.05 a 10.00,10.00 0 0,0 -10.00,-10.00 H 93.86 a 0.00,0.00 0 0,0 -0.00,0.00L 93.86,165.050000" stroke="black" stroke-width="1" fill="none"/>
    <path d="M 43.41,713.590000 H 72.82 a 10.00,10.00 0 0,1 10.00,10.00 V 789.29 a 10.00,10.00 0 0,0 10.00,10.00 H 115.24 a 3.00,3.00 0 0,1 3.00,3.00L 118.24,805.290000" stroke="black" stroke-width="1" fill="none"/>
    <path d="M 193.06,868.120000 H 224.47 a 10.00,10.00 0 0,0 10.00,-10.00 V 819.29 a 10.00,10.00 0 0,1 10.00,-10.00 H 265.88 a 2.00,2.00 0 0,0 2.00,-2.00L 267.88,805.290000" stroke="black" stroke-width="1" fill="none"/>
    <path d="M 1250.35,1245.060000 V 1225.65 a 10.00,10.00 0 0,1 10.00,-10.00 H 1268.22 a 10.00,10.00 0 0,0 10.00,-10.00 V 1183.24 a 1.00,1.00 0 0,1 1.00,-1.00L 1280.22,1182.240000" stroke="black" stroke-width="1" fill="none"/>
    <path d="M 1383.88,418.350000 H 1321.04 a 0.00,0.00 0 0,0 -0.00,0.00L 1321.04,418.350000" stroke="black" stroke-width="1" fill="none"/>
    <path d="M 1755.97,894.530000 V 831.71 a 0.00,0.00 0 0,1 0.00,-0.00L 1755.97,831.710000" stroke="black" stroke-width="1" fill="none"/>
    <path d="M 943.12,993.760000 V 991.76 a 2.00,2.00 0 0,0 -2.00,-2.00 H 921.71 a 10.00,10.00 0 0,1 -10.00,-10.00 V 940.94 a 10.00,10.00 0 0,0 -10.00,-10.00 H 868.29 a 0.00,0.00 0 0,0 -0.00,0.00L 868.29,930.940000" stroke="black" stroke-width="1" fill="none"/>
    <path d="M 1095.41,993.760000 H 1019.26 a 0.00,0.00 0 0,0 -0.00,0.00L 1019.26,993.760000" stroke="black" stroke-width="1" fill="none"/>
    <path d="M 1893.61,706.060000 H 1818.79 a 0.00,0.00 0 0,0 -0.00,0.00L 1818.79,706.060000" stroke="black" stroke-width="1" fill="none"/>
    <path d="M 642.42,31.410000 V 52.82 a 10.00,10.00 0 0,1 -10.00,10.00 H 593.60 a 10.00,10.00 0 0,0 -10.00,10.00 V 92.24 a 2.00,2.00 0 0,1 -2.00,2.00L 579.60,94.240000" stroke="black" stroke-width="1" fill="none"/>
    <path d="M 654.42,193.470000 H 625.01 a 10.00,10.00 0 0,0 -10.00,10.00 V 271.71 a 10.00,10.00 0 0,1 -10.00,10.00 H 582.60 a 3.00,3.00 0 0,0 -3.00,3.00L 579.60,287.710000" stroke="black" stroke-width="1" fill="none"/>
    <path d="M 1543.51,418.350000 V 355.53 a 0.00,0.00 0 0,1 0.00,-0.00L 1543.51,355.530000" stroke="black" stroke-width="1" fill="none"/>
    <path d="M 543.16,481.180000 V 457.76 a 10.00,10.00 0 0,0 -10.00,-10.00 H 435.51 a 10.00,10.00 0 0,1 -10.00,-10.00 V 422.35 a 4.00,4.00 0 0,0 -4.00,-4.00L 417.51,418.350000" stroke="black" stroke-width="1" fill="none"/>
    <path d="M 1292.23,771.280000 H 1258.82 a 10.00,10.00 0 0,1 -10.00,-10.00 V 722.46 a 10.00,10.00 0 0,0 -10.00,-10.00 H 1219.41 a 2.00,2.00 0 0,1 -2.00,-2.00L 1217.41,708.460000" stroke="black" stroke-width="1" fill="none"/>
    <path d="M 579.60,157.060000 V 287.71 a 0.00,0.00 0 0,0 0.00,0.00L 579.60,287.710000" stroke="black" stroke-width="1" fill="none"/>
    <path d="M 1755.97,831.710000 H 1681.15 a 0.00,0.00 0 0,0 -0.00,0.00L 1681.15,831.710000" stroke="black" stroke-width="1" fill="none"/>
    <path d="M 1466.63,418.350000 H 1467.63 a 1.00,1.00 0 0,1 1.00,1.00 V 439.76 a 10.00,10.00 0 0,0 10.00,10.00 H 1497.08 a 10.00,10.00 0 0,1 10.00,10.00 V 481.18 a 0.00,0.00 0 0,0 0.00,0.00L 1507.08,481.180000" stroke="black" stroke-width="1" fill="none"/>
    <path d="M 1134.90,167.060000 V 186.47 a 10.00,10.00 0 0,1 -10.00,10.00 H 1106.18 a 10.00,10.00 0 0,0 -10.00,10.00 V 228.88 a 1.00,1.00 0 0,1 -1.00,1.00L 1094.18,229.880000" stroke="black" stroke-width="1" fill="none"/>
    <path d="M 579.60,805.290000 V 868.12 a 0.00,0.00 0 0,0 0.00,0.00L 579.60,868.120000" stroke="black" stroke-width="1" fill="none"/>
    <path d="M 504.73,31.410000 V 52.82 a 10.00,10.00 0 0,0 10.00,10.00 H 565.60 a 10.00,10.00 0 0,1 10.00,10.00 V 92.24 a 2.00,2.00 0 0,0 2.00,2.00L 579.60,94.240000" stroke="black" stroke-width="1" fill="none"/>
    <path d="M 579.60,418.350000 H 579.61 a 0.00,0.00 0 0,1 0.00,0.00 V 616.82 a 0.00,0.00 0 0,1 -0.00,0.00L 579.60,616.820000" stroke="black" stroke-width="1" fill="none"/>
    <path d="M 1352.05,993.760000 H 1280.22 a 0.00,0.00 0 0,0 -0.00,0.00L 1280.22,993.760000" stroke="black" stroke-width="1" fill="none"/>
    <path d="M 1217.41,1119.410000 V 993.76 a 0.00,0.00 0 0,1 0.00,-0.00L 1217.41,993.760000" stroke="black" stroke-width="1" fill="none"/>
    <path d="M 868.29,612.080000 H 943.12 a 0.00,0.00 0 0,1 0.00,0.00L 943.12,612.080000" stroke="black" stroke-width="1" fill="none"/>
    <path d="M 1475.27,993.760000 H 1352.05 a 0.00,0.00 0 0,0 -0.00,0.00L 1352.05,993.760000" stroke="black" stroke-width="1" fill="none"/>
    <path d="M 880.28,418.350000 H 817.44 a 0.00,0.00 0 0,0 -0.00,0.00L 817.44,418.350000" stroke="black" stroke-width="1" fill="none"/>
    <path d="M 1042.33,481.180000 V 418.35 a 0.00,0.00 0 0,1 0.00,-0.00L 1042.33,418.350000" stroke="black" stroke-width="1" fill="none"/>
    <path d="M 393.55,31.410000 V 52.82 a 10.00,10.00 0 0,1 -10.00,10.00 H 332.73 a 10.00,10.00 0 0,0 -10.00,10.00 V 92.24 a 2.00,2.00 0 0,1 -2.00,2.00L 318.73,94.240000" stroke="black" stroke-width="1" fill="none"/>
    <path d="M 943.12,418.350000 H 880.28 a 0.00,0.00 0 0,0 -0.00,0.00L 880.28,418.350000" stroke="black" stroke-width="1" fill="none"/>
    <path d="M 1681.15,706.060000 V 831.71 a 0.00,0.00 0 0,0 0.00,0.00L 1681.15,831.710000" stroke="black" stroke-width="1" fill="none"/>
    <path d="M 675.35,805.290000 H 579.60 a 0.00,0.00 0 0,0 -0.00,0.00L 579.60,805.290000" stroke="black" stroke-width="1" fill="none"/>
    <path d="M 579.60,287.710000 V 288.71 a 1.00,1.00 0 0,0 1.00,1.00 H 607.01 a 10.00,10.00 0 0,1 10.00,10.00 V 309.12 a 10.00,10.00 0 0,0 10.00,10.00 H 654.42 a 0.00,0.00 0 0,1 0.00,0.00L 654.42,319.120000" stroke="black" stroke-width="1" fill="none"/>
    <path d="M 868.29,1056.590000 H 901.71 a 10.00,10.00 0 0,0 10.00,-10.00 V 1007.76 a 10.00,10.00 0 0,1 10.00,-10.00 H 941.12 a 2.00,2.00 0 0,0 2.00,-2.00L 943.12,993.760000" stroke="black" stroke-width="1" fill="none"/>
    <path d="M 1818.79,831.710000 H 1755.97 a 0.00,0.00 0 0,0 -0.00,0.00L 1755.97,831.710000" stroke="black" stroke-width="1" fill="none"/>
    <path d="M 579.60,287.710000 V 418.35 a 0.00,0.00 0 0,0 0.00,0.00L 579.60,418.350000" stroke="black" stroke-width="1" fill="none"/>
    <path d="M 985.26,167.060000 V 190.47 a 10.00,10.00 0 0,0 10.00,10.00 H 1078.18 a 10.00,10.00 0 0,1 10.00,10.00 V 226.88 a 3.00,3.00 0 0,0 3.00,3.00L 1094.18,229.880000" stroke="black" stroke-width="1" fill="none"/>
    <path d="M 1543.51,355.530000 H 1393.88 a 10.00,10.00 0 0,0 -10.00,10.00 V 418.35 a 0.00,0.00 0 0,0 0.00,0.00L 1383.88,418.350000" stroke="black" stroke-width="1" fill="none"/>
    <path d="M 1755.97,993.760000 H 1681.15 a 0.00,0.00 0 0,0 -0.00,0.00L 1681.15,993.760000" stroke="black" stroke-width="1" fill="none"/>
    <path d="M 393.51,805.290000 H 389.51 a 4.00,4.00 0 0,1 -4.00,-4.00 V 785.88 a 10.00,10.00 0 0,0 -10.00,-10.00 H 277.85 a 10.00,10.00 0 0,1 -10.00,-10.00 V 742.47 a 0.00,0.00 0 0,1 0.00,-0.00L 267.85,742.470000" stroke="black" stroke-width="1" fill="none"/>
    <path d="M 267.88,805.290000 H 330.71 a 0.00,0.00 0 0,1 0.00,0.00L 330.71,805.290000" stroke="black" stroke-width="1" fill="none"/>
    <path d="M 1475.27,1056.590000 V 993.76 a 0.00,0.00 0 0,1 0.00,-0.00L 1475.27,993.760000" stroke="black" stroke-width="1" fill="none"/>
    <path d="M 93.86,290.700000 H 127.27 a 10.00,10.00 0 0,0 10.00,-10.00 V 210.78 a 10.00,10.00 0 0,1 10.00,-10.00 H 165.68 a 3.00,3.00 0 0,0 3.00,-3.00L 168.68,194.780000" stroke="black" stroke-width="1" fill="none"/>
    <path d="M 1755.97,768.880000 H 1722.56 a 10.00,10.00 0 0,1 -10.00,-10.00 V 720.06 a 10.00,10.00 0 0,0 -10.00,-10.00 H 1683.15 a 2.00,2.00 0 0,1 -2.00,-2.00L 1681.15,706.060000" stroke="black" stroke-width="1" fill="none"/>
    <path d="M 118.24,805.290000 V 808.29 a 3.00,3.00 0 0,1 -3.00,3.00 H 98.82 a 10.00,10.00 0 0,0 -10.00,10.00 V 892.06 a 10.00,10.00 0 0,1 -10.00,10.00 H 43.41 a 0.00,0.00 0 0,0 -0.00,0.00L 43.41,902.060000" stroke="black" stroke-width="1" fill="none"/>
    <path d="M 579.60,418.350000 V 416.36 a 2.00,2.00 0 0,1 2.00,-2.00 H 692.82 a 10.00,10.00 0 0,0 10.00,-10.00 V 157.06 a 0.00,0.00 0 0,1 0.00,-0.00L 702.82,157.060000" stroke="black" stroke-width="1" fill="none"/>
    <path d="M 1280.22,993.760000 H 1217.41 a 0.00,0.00 0 0,0 -0.00,0.00L 1217.41,993.760000" stroke="black" stroke-width="1" fill="none"/>
    <path d="M 1280.22,993.760000 V 1119.41 a 0.00,0.00 0 0,0 0.00,0.00L 1280.22,1119.410000" stroke="black" stroke-width="1" fill="none"/>
    <path d="M 579.60,418.350000 H 577.61 a 2.00,2.00 0 0,0 -2.00,2.00 V 507.59 a 10.00,10.00 0 0,1 -10.00,10.00 H 231.48 a 0.00,0.00 0 0,0 -0.00,0.00L 231.48,517.590000" stroke="black" stroke-width="1" fill="none"/>
    <path d="M 1142.59,303.710000 H 1217.41 a 0.00,0.00 0 0,1 0.00,0.00L 1217.41,303.710000" stroke="black" stroke-width="1" fill="none"/>
    <path d="M 1543.51,517.590000 H 1393.88 a 10.00,10.00 0 0,1 -10.00,-10.00 V 418.35 a 0.00,0.00 0 0,1 0.00,-0.00L 1383.88,418.350000" stroke="black" stroke-width="1" fill="none"/>
    <path d="M 856.29,868.120000 V 805.29 a 0.00,0.00 0 0,1 0.00,-0.00L 856.29,805.290000" stroke="black" stroke-width="1" fill="none"/>
    <path d="M 1574.51,1093.000000 H 1573.51 a 1.00,1.00 0 0,0 -1.00,1.00 V 1114.41 a 10.00,10.00 0 0,1 -10.00,10.00 H 1540.08 a 10.00,10.00 0 0,0 -10.00,10.00 V 1155.82 a 0.00,0.00 0 0,0 0.00,0.00L 1530.08,1155.820000" stroke="black" stroke-width="1" fill="none"/>
    <path d="M 1094.18,229.880000 H 1097.18 a 3.00,3.00 0 0,0 3.00,-3.00 V 210.47 a 10.00,10.00 0 0,1 10.00,-10.00 H 1187.73 a 10.00,10.00 0 0,0 10.00,-10.00 V 167.06 a 0.00,0.00 0 0,1 0.00,-0.00L 1197.73,167.060000" stroke="black" stroke-width="1" fill="none"/>
    <path d="M 880.28,355.530000 V 418.35 a 0.00,0.00 0 0,0 0.00,0.00L 880.28,418.350000" stroke="black" stroke-width="1" fill="none"/>
    <path d="M 417.51,418.350000 V 481.18 a 0.00,0.00 0 0,0 0.00,0.00L 417.51,481.180000" stroke="black" stroke-width="1" fill="none"/>
    <path d="M 342.67,481.180000 V 461.76 a 10.00,10.00 0 0,1 10.00,-10.00 H 403.51 a 10.00,10.00 0 0,0 10.00,-10.00 V 420.35 a 2.00,2.00 0 0,1 2.00,-2.00L 417.51,418.350000" stroke="black" stroke-width="1" fill="none"/>
    <path d="M 504.78,616.820000 H 579.60 a 0.00,0.00 0 0,1 0.00,0.00L 579.60,616.820000" stroke="black" stroke-width="1" fill="none"/>
    <path d="M 754.64,355.530000 V 418.35 a 0.00,0.00 0 0,0 0.00,0.00L 754.64,418.350000" stroke="black" stroke-width="1" fill="none"/>
    <path d="M 1432.26,481.180000 V 459.76 a 10.00,10.00 0 0,1 10.00,-10.00 H 1454.63 a 10.00,10.00 0 0,0 10.00,-10.00 V 419.35 a 1.00,1.00 0 0,1 1.00,-1.00L 1466.63,418.350000" stroke="black" stroke-width="1" fill="none"/>
    <path d="M 480.34,481.180000 V 461.76 a 10.00,10.00 0 0,0 -10.00,-10.00 H 431.51 a 10.00,10.00 0 0,1 -10.00,-10.00 V 420.35 a 2.00,2.00 0 0,0 -2.00,-2.00L 417.51,418.350000" stroke="black" stroke-width="1" fill="none"/>
    <path d="M 417.51,418.350000 H 413.51 a 4.00,4.00 0 0,0 -4.00,4.00 V 437.76 a 10.00,10.00 0 0,1 -10.00,10.00 H 277.85 a 10.00,10.00 0 0,0 -10.00,10.00 V 481.18 a 0.00,0.00 0 0,0 0.00,0.00L 267.85,481.180000" stroke="black" stroke-width="1" fill="none"/>
    <path d="M 1217.41,708.460000 V 993.76 a 0.00,0.00 0 0,0 0.00,0.00L 1217.41,993.760000" stroke="black" stroke-width="1" fill="none"/>
    <path d="M 193.06,805.290000 H 267.88 a 0.00,0.00 0 0,1 0.00,0.00L 267.88,805.290000" stroke="black" stroke-width="1" fill="none"/>
    <path d="M 654.42,381.940000 H 621.01 a 10.00,10.00 0 0,1 -10.00,-10.00 V 303.71 a 10.00,10.00 0 0,0 -10.00,-10.00 H 582.60 a 3.00,3.00 0 0,1 -3.00,-3.00L 579.60,287.710000" stroke="black" stroke-width="1" fill="none"/>
    <path d="M 1543.51,355.530000 H 1545.51 a 2.00,2.00 0 0,0 2.00,-2.00 V 334.12 a 10.00,10.00 0 0,1 10.00,-10.00 H 1596.33 a 10.00,10.00 0 0,0 10.00,-10.00 V 292.71 a 0.00,0.00 0 0,1 0.00,-0.00L 1606.33,292.710000" stroke="black" stroke-width="1" fill="none"/>
    <path d="M 654.42,930.940000 V 909.53 a 10.00,10.00 0 0,0 -10.00,-10.00 H 593.60 a 10.00,10.00 0 0,1 -10.00,-10.00 V 870.12 a 2.00,2.00 0 0,0 -2.00,-2.00L 579.60,868.120000" stroke="black" stroke-width="1" fill="none"/>
    <path d="M 1175.53,1245.060000 V 1221.65 a 10.00,10.00 0 0,1 10.00,-10.00 H 1264.22 a 10.00,10.00 0 0,0 10.00,-10.00 V 1185.24 a 3.00,3.00 0 0,1 3.00,-3.00L 1280.22,1182.240000" stroke="black" stroke-width="1" fill="none"/>
    <path d="M 1042.33,418.350000 H 1040.33 a 2.00,2.00 0 0,0 -2.00,2.00 V 439.76 a 10.00,10.00 0 0,1 -10.00,10.00 H 989.49 a 10.00,10.00 0 0,0 -10.00,10.00 V 481.18 a 0.00,0.00 0 0,0 0.00,0.00L 979.49,481.180000" stroke="black" stroke-width="1" fill="none"/>
    <path d="M 1818.79,706.060000 V 704.06 a 2.00,2.00 0 0,1 2.00,-2.00 H 1846.20 a 10.00,10.00 0 0,0 10.00,-10.00 V 653.24 a 10.00,10.00 0 0,1 10.00,-10.00 H 1893.61 a 0.00,0.00 0 0,1 0.00,0.00L 1893.61,643.240000" stroke="black" stroke-width="1" fill="none"/>
    <path d="M 1352.05,993.760000 V 1083.00 a 10.00,10.00 0 0,0 10.00,10.00 H 1574.51 a 0.00,0.00 0 0,1 0.00,0.00L 1574.51,1093.000000" stroke="black" stroke-width="1" fill="none"/>
    <path d="M 579.60,616.820000 V 614.82 a 2.00,2.00 0 0,0 -2.00,-2.00 H 552.19 a 10.00,10.00 0 0,1 -10.00,-10.00 V 564.00 a 10.00,10.00 0 0,0 -10.00,-10.00 H 504.78 a 0.00,0.00 0 0,0 -0.00,0.00L 504.78,554.000000" stroke="black" stroke-width="1" fill="none"/>
    <path d="M 1400.44,1056.590000 V 1035.18 a 10.00,10.00 0 0,1 10.00,-10.00 H 1461.27 a 10.00,10.00 0 0,0 10.00,-10.00 V 995.76 a 2.00,2.00 0 0,1 2.00,-2.00L 1475.27,993.760000" stroke="black" stroke-width="1" fill="none"/>
    <path d="M 1280.22,1119.410000 V 1182.24 a 0.00,0.00 0 0,0 0.00,0.00L 1280.22,1182.240000" stroke="black" stroke-width="1" fill="none"/>
    <path d="M 579.60,94.240000 V 157.06 a 0.00,0.00 0 0,0 0.00,0.00L 579.60,157.060000" stroke="black" stroke-width="1" fill="none"/>
    <path d="M 267.88,805.290000 V 803.29 a 2.00,2.00 0 0,0 -2.00,-2.00 H 238.45 a 10.00,10.00 0 0,1 -10.00,-10.00 V 752.47 a 10.00,10.00 0 0,0 -10.00,-10.00 H 193.06 a 0.00,0.00 0 0,0 -0.00,0.00L 193.06,742.470000" stroke="black" stroke-width="1" fill="none"/>
    <path d="M 516.73,930.940000 V 909.53 a 10.00,10.00 0 0,1 10.00,-10.00 H 565.60 a 10.00,10.00 0 0,0 10.00,-10.00 V 870.12 a 2.00,2.00 0 0,1 2.00,-2.00L 579.60,868.120000" stroke="black" stroke-width="1" fill="none"/>
    <path d="M 231.48,418.350000 H 168.68 a 0.00,0.00 0 0,0 -0.00,0.00L 168.68,418.350000" stroke="black" stroke-width="1" fill="none"/>
    <path d="M 231.48,418.350000 H 417.51 a 0.00,0.00 0 0,1 0.00,0.00L 417.51,418.350000" stroke="black" stroke-width="1" fill="none"/>
    <path d="M 1321.04,481.180000 V 418.35 a 0.00,0.00 0 0,1 0.00,-0.00L 1321.04,418.350000" stroke="black" stroke-width="1" fill="none"/>
    <path d="M 231.48,517.590000 V 418.35 a 0.00,0.00 0 0,1 0.00,-0.00L 231.48,418.350000" stroke="black" stroke-width="1" fill="none"/>
    <path d="M 255.88,31.410000 V 52.82 a 10.00,10.00 0 0,0 10.00,10.00 H 304.73 a 10.00,10.00 0 0,1 10.00,10.00 V 92.24 a 2.00,2.00 0 0,0 2.00,2.00L 318.73,94.240000" stroke="black" stroke-width="1" fill="none"/>
    <path d="M 1543.51,580.410000 V 517.59 a 0.00,0.00 0 0,1 0.00,-0.00L 1543.51,517.590000" stroke="black" stroke-width="1" fill="none"/>
    <path d="M 1681.15,993.760000 V 831.71 a 0.00,0.00 0 0,1 0.00,-0.00L 1681.15,831.710000" stroke="black" stroke-width="1" fill="none"/>
    <path d="M 1042.33,418.350000 H 943.12 a 0.00,0.00 0 0,0 -0.00,0.00L 943.12,418.350000" stroke="black" stroke-width="1" fill="none"/>
    <path d="M 1117.16,481.180000 V 459.76 a 10.00,10.00 0 0,0 -10.00,-10.00 H 1056.33 a 10.00,10.00 0 0,1 -10.00,-10.00 V 420.35 a 2.00,2.00 0 0,0 -2.00,-2.00L 1042.33,418.350000" stroke="black" stroke-width="1" fill="none"/>
    <path d="M 318.73,94.240000 V 31.41 a 0.00,0.00 0 0,1 0.00,-0.00L 318.73,31.410000" stroke="black" stroke-width="1" fill="none"/>
    <path d="M 766.24,805.290000 H 675.35 a 0.00,0.00 0 0,0 -0.00,0.00L 675.35,805.290000" stroke="black" stroke-width="1" fill="none"/>
    <path d="M 1217.41,418.350000 V 418.36 a 0.00,0.00 0 0,1 -0.00,0.00 H 1042.34 a 0.00,0.00 0 0,1 -0.00,-0.00L 1042.33,418.350000" stroke="black" stroke-width="1" fill="none"/>
    <path d="M 1681.15,355.530000 V 418.35 a 0.00,0.00 0 0,0 0.00,0.00L 1681.15,418.350000" stroke="black" stroke-width="1" fill="none"/>
    <path d="M 1280.22,1182.240000 H 1281.22 a 1.00,1.00 0 0,1 1.00,1.00 V 1205.65 a 10.00,10.00 0 0,0 10.00,10.00 H 1303.18 a 10.00,10.00 0 0,1 10.00,10.00 V 1245.06 a 0.00,0.00 0 0,0 0.00,0.00L 1313.18,1245.060000" stroke="black" stroke-width="1" fill="none"/>
    <path d="M 168.68,94.240000 H 318.73 a 0.00,0.00 0 0,1 0.00,0.00L 318.73,94.240000" stroke="black" stroke-width="1" fill="none"/>
    <path d="M 1383.88,418.350000 H 1466.63 a 0.00,0.00 0 0,1 0.00,0.00L 1466.63,418.350000" stroke="black" stroke-width="1" fill="none"/>
    <path d="M 1217.41,418.350000 V 416.36 a 2.00,2.00 0 0,0 -2.00,-2.00 H 1104.18 a 10.00,10.00 0 0,1 -10.00,-10.00 V 229.88 a 0.00,0.00 0 0,1 0.00,-0.00L 1094.18,229.880000" stroke="black" stroke-width="1" fill="none"/>
    <path d="M 1755.97,580.410000 H 1681.15 a 0.00,0.00 0 0,0 -0.00,0.00L 1681.15,580.410000" stroke="black" stroke-width="1" fill="none"/>
    <path d="M 579.60,616.820000 V 805.29 a 0.00,0.00 0 0,0 0.00,0.00L 579.60,805.290000" stroke="black" stroke-width="1" fill="none"/>
    <path d="M 777.65,219.880000 H 750.24 a 10.00,10.00 0 0,1 -10.00,-10.00 V 171.06 a 10.00,10.00 0 0,0 -10.00,-10.00 H 704.82 a 2.00,2.00 0 0,1 -2.00,-2.00L 702.82,157.060000" stroke="black" stroke-width="1" fill="none"/>
    <path d="M 579.60,94.240000 V 31.41 a 0.00,0.00 0 0,1 0.00,-0.00L 579.60,31.410000" stroke="black" stroke-width="1" fill="none"/>
    <path d="M 1681.15,580.410000 V 706.06 a 0.00,0.00 0 0,0 0.00,0.00L 1681.15,706.060000" stroke="black" stroke-width="1" fill="none"/>
    <path d="M 267.88,805.290000 V 809.29 a 4.00,4.00 0 0,1 -4.00,4.00 H 248.47 a 10.00,10.00 0 0,0 -10.00,10.00 V 920.94 a 10.00,10.00 0 0,1 -10.00,10.00 H 193.06 a 0.00,0.00 0 0,0 -0.00,0.00L 193.06,930.940000" stroke="black" stroke-width="1" fill="none"/>
    <path d="M 1543.51,292.710000 V 355.53 a 0.00,0.00 0 0,0 0.00,0.00L 1543.51,355.530000" stroke="black" stroke-width="1" fill="none"/>
    <path d="M 980.49,1056.590000 V 1033.18 a 10.00,10.00 0 0,1 10.00,-10.00 H 1079.41 a 10.00,10.00 0 0,0 10.00,-10.00 V 996.76 a 3.00,3.00 0 0,1 3.00,-3.00L 1095.41,993.760000" stroke="black" stroke-width="1" fill="none"/>
    <path d="M 579.60,287.710000 V 286.71 a 1.00,1.00 0 0,1 1.00,-1.00 H 609.01 a 10.00,10.00 0 0,0 10.00,-10.00 V 266.29 a 10.00,10.00 0 0,1 10.00,-10.00 H 654.42 a 0.00,0.00 0 0,1 0.00,0.00L 654.42,256.290000" stroke="black" stroke-width="1" fill="none"/>
    <path d="M 1681.15,706.060000 H 1755.97 a 0.00,0.00 0 0,1 0.00,0.00L 1755.97,706.060000" stroke="black" stroke-width="1" fill="none"/>
    <path d="M 943.12,612.080000 V 614.08 a 2.00,2.00 0 0,1 -2.00,2.00 H 915.71 a 10.00,10.00 0 0,0 -10.00,10.00 V 664.90 a 10.00,10.00 0 0,1 -10.00,10.00 H 868.29 a 0.00,0.00 0 0,0 -0.00,0.00L 868.29,674.900000" stroke="black" stroke-width="1" fill="none"/>
    <path d="M 675.35,868.120000 V 805.29 a 0.00,0.00 0 0,1 0.00,-0.00L 675.35,805.290000" stroke="black" stroke-width="1" fill="none"/>
    <path d="M 1543.51,517.590000 H 1541.51 a 2.00,2.00 0 0,0 -2.00,2.00 V 539.00 a 10.00,10.00 0 0,1 -10.00,10.00 H 1478.67 a 10.00,10.00 0 0,0 -10.00,10.00 V 580.41 a 0.00,0.00 0 0,0 0.00,0.00L 1468.67,580.410000" stroke="black" stroke-width="1" fill="none"/>
    <path d="M 1217.41,303.710000 V 418.35 a 0.00,0.00 0 0,0 0.00,0.00L 1217.41,418.350000" stroke="black" stroke-width="1" fill="none"/>
    <path d="M 1180.96,1056.590000 V 1033.18 a 10.00,10.00 0 0,0 -10.00,-10.00 H 1111.41 a 10.00,10.00 0 0,1 -10.00,-10.00 V 996.76 a 3.00,3.00 0 0,0 -3.00,-3.00L 1095.41,993.760000" stroke="black" stroke-width="1" fill="none"/>
    <path d="M 1818.79,580.410000 H 1755.97 a 0.00,0.00 0 0,0 -0.00,0.00L 1755.97,580.410000" stroke="black" stroke-width="1" fill="none"/>
    <path d="M 294.31,580.410000 V 559.00 a 10.00,10.00 0 0,0 -10.00,-10.00 H 245.48 a 10.00,10.00 0 0,1 -10.00,-10.00 V 519.59 a 2.00,2.00 0 0,0 -2.00,-2.00L 231.48,517.590000" stroke="black" stroke-width="1" fill="none"/>
    <path d="M 868.29,292.710000 H 895.71 a 10.00,10.00 0 0,0 10.00,-10.00 V 243.88 a 10.00,10.00 0 0,1 10.00,-10.00 H 941.12 a 2.00,2.00 0 0,0 2.00,-2.00L 943.12,229.880000" stroke="black" stroke-width="1" fill="none"/>
    <path d="M 118.24,805.290000 V 804.29 a 1.00,1.00 0 0,0 -1.00,-1.00 H 88.82 a 10.00,10.00 0 0,1 -10.00,-10.00 V 786.41 a 10.00,10.00 0 0,0 -10.00,-10.00 H 43.41 a 0.00,0.00 0 0,0 -0.00,0.00L 43.41,776.410000" stroke="black" stroke-width="1" fill="none"/>
    <path d="M 1321.04,418.350000 H 1217.41 a 0.00,0.00 0 0,0 -0.00,0.00L 1217.41,418.350000" stroke="black" stroke-width="1" fill="none"/>
    <path d="M 943.12,805.290000 H 856.29 a 0.00,0.00 0 0,0 -0.00,0.00L 856.29,805.290000" stroke="black" stroke-width="1" fill="none"/>
    <path d="M 43.41,839.230000 H 74.82 a 10.00,10.00 0 0,0 10.00,-10.00 V 817.29 a 10.00,10.00 0 0,1 10.00,-10.00 H 117.24 a 1.00,1.00 0 0,0 1.00,-1.00L 118.24,805.290000" stroke="black" stroke-width="1" fill="none"/>
    <path d="M 1321.04,418.350000 V 313.71 a 10.00,10.00 0 0,0 -10.00,-10.00 H 1280.23 a 0.00,0.00 0 0,0 -0.00,0.00L 1280.23,303.710000" stroke="black" stroke-width="1" fill="none"/>
    <path d="M 531.16,742.470000 V 765.88 a 10.00,10.00 0 0,1 -10.00,10.00 H 411.51 a 10.00,10.00 0 0,0 -10.00,10.00 V 801.29 a 4.00,4.00 0 0,1 -4.00,4.00L 393.51,805.290000" stroke="black" stroke-width="1" fill="none"/>
    <path d="M 1574.51,1093.000000 V 993.76 a 0.00,0.00 0 0,1 0.00,-0.00L 1574.51,993.760000" stroke="black" stroke-width="1" fill="none"/>
    <path d="M 1543.51,418.350000 V 517.59 a 0.00,0.00 0 0,0 0.00,0.00L 1543.51,517.590000" stroke="black" stroke-width="1" fill="none"/>
    <path d="M 168.68,194.780000 V 290.70 a 0.00,0.00 0 0,0 0.00,0.00L 168.68,290.700000" stroke="black" stroke-width="1" fill="none"/>
    <path d="M 1818.79,580.410000 V 706.06 a 0.00,0.00 0 0,0 0.00,0.00L 1818.79,706.060000" stroke="black" stroke-width="1" fill="none"/>
    <path d="M 318.73,94.240000 H 449.71 a 0.00,0.00 0 0,1 0.00,0.00L 449.71,94.240000" stroke="black" stroke-width="1" fill="none"/>
    <path d="M 93.86,102.230000 H 123.27 a 10.00,10.00 0 0,1 10.00,10.00 V 178.78 a 10.00,10.00 0 0,0 10.00,10.00 H 165.68 a 3.00,3.00 0 0,1 3.00,3.00L 168.68,194.780000" stroke="black" stroke-width="1" fill="none"/>
    <path d="M 1292.23,708.460000 H 1217.41 a 0.00,0.00 0 0,0 -0.00,0.00L 1217.41,708.460000" stroke="black" stroke-width="1" fill="none"/>
    <path d="M 156.61,580.410000 V 559.00 a 10.00,10.00 0 0,1 10.00,-10.00 H 217.48 a 10.00,10.00 0 0,0 10.00,-10.00 V 519.59 a 2.00,2.00 0 0,1 2.00,-2.00L 231.48,517.590000" stroke="black" stroke-width="1" fill="none"/>
    <path d="M 456.34,742.470000 V 761.88 a 10.00,10.00 0 0,1 -10.00,10.00 H 407.51 a 10.00,10.00 0 0,0 -10.00,10.00 V 803.29 a 2.00,2.00 0 0,1 -2.00,2.00L 393.51,805.290000" stroke="black" stroke-width="1" fill="none"/>
    <path d="M 330.71,805.290000 H 393.51 a 0.00,0.00 0 0,1 0.00,0.00L 393.51,805.290000" stroke="black" stroke-width="1" fill="none"/>
    <path d="M 93.86,418.350000 H 168.68 a 0.00,0.00 0 0,1 0.00,0.00L 168.68,418.350000" stroke="black" stroke-width="1" fill="none"/>
    <path d="M 168.68,194.780000 V 195.78 a 1.00,1.00 0 0,1 -1.00,1.00 H 141.27 a 10.00,10.00 0 0,0 -10.00,10.00 V 217.87 a 10.00,10.00 0 0,1 -10.00,10.00 H 93.86 a 0.00,0.00 0 0,0 -0.00,0.00L 93.86,227.870000" stroke="black" stroke-width="1" fill="none"/>
    <path d="M 1618.33,580.410000 V 559.00 a 10.00,10.00 0 0,0 -10.00,-10.00 H 1557.51 a 10.00,10.00 0 0,1 -10.00,-10.00 V 519.59 a 2.00,2.00 0 0,0 -2.00,-2.00L 1543.51,517.590000" stroke="black" stroke-width="1" fill="none"/>
    <path d="M 1019.26,993.760000 H 943.12 a 0.00,0.00 0 0,0 -0.00,0.00L 943.12,993.760000" stroke="black" stroke-width="1" fill="none"/>
    <path d="M 868.29,549.250000 H 901.71 a 10.00,10.00 0 0,1 10.00,10.00 V 598.08 a 10.00,10.00 0 0,0 10.00,10.00 H 941.12 a 2.00,2.00 0 0,1 2.00,2.00L 943.12,612.080000" stroke="black" stroke-width="1" fill="none"/>
    <path d="M 1280.23,303.710000 H 1217.41 a 0.00,0.00 0 0,0 -0.00,0.00L 1217.41,303.710000" stroke="black" stroke-width="1" fill="none"/>
    <path d="M 868.29,993.760000 H 943.12 a 0.00,0.00 0 0,1 0.00,0.00L 943.12,993.760000" stroke="black" stroke-width="1" fill="none"/>
    <path d="M 856.29,805.290000 H 766.24 a 0.00,0.00 0 0,0 -0.00,0.00L 766.24,805.290000" stroke="black" stroke-width="1" fill="none"/>
    <path d="M 1574.51,993.760000 H 1681.15 a 0.00,0.00 0 0,1 0.00,0.00L 1681.15,993.760000" stroke="black" stroke-width="1" fill="none"/>
    <path d="M 393.51,805.290000 H 579.60 a 0.00,0.00 0 0,1 0.00,0.00L 579.60,805.290000" stroke="black" stroke-width="1" fill="none"/>
    <path d="M 1543.51,418.350000 H 1681.15 a 0.00,0.00 0 0,1 0.00,0.00L 1681.15,418.350000" stroke="black" stroke-width="1" fill="none"/>
    <path d="M 1574.51,993.760000 H 1475.27 a 0.00,0.00 0 0,0 -0.00,0.00L 1475.27,993.760000" stroke="black" stroke-width="1" fill="none"/>
    <path d="M 1280.22,1119.410000 H 1217.41 a 0.00,0.00 0 0,0 -0.00,0.00L 1217.41,1119.410000" stroke="black" stroke-width="1" fill="none"/>
    <path d="M 943.12,418.350000 V 612.08 a 0.00,0.00 0 0,0 0.00,0.00L 943.12,612.080000" stroke="black" stroke-width="1" fill="none"/>
    <path d="M 504.78,679.650000 H 538.19 a 10.00,10.00 0 0,0 10.00,-10.00 V 630.82 a 10.00,10.00 0 0,1 10.00,-10.00 H 577.60 a 2.00,2.00 0 0,0 2.00,-2.00L 579.60,616.820000" stroke="black" stroke-width="1" fill="none"/>
    <path d="M 579.60,868.120000 H 340.71 a 10.00,10.00 0 0,1 -10.00,-10.00 V 805.29 a 0.00,0.00 0 0,1 0.00,-0.00L 330.71,805.290000" stroke="black" stroke-width="1" fill="none"/>
    <path d="M 449.71,94.240000 H 579.60 a 0.00,0.00 0 0,1 0.00,0.00L 579.60,94.240000" stroke="black" stroke-width="1" fill="none"/>
    <path d="M 168.68,94.240000 V 194.78 a 0.00,0.00 0 0,0 0.00,0.00L 168.68,194.780000" stroke="black" stroke-width="1" fill="none"/>
    <path d="M 417.51,418.350000 H 579.60 a 0.00,0.00 0 0,1 0.00,0.00L 579.60,418.350000" stroke="black" stroke-width="1" fill="none"/>
    <path d="M 1095.41,993.760000 H 1094.41 a 1.00,1.00 0 0,0 -1.00,1.00 V 1017.18 a 10.00,10.00 0 0,1 -10.00,10.00 H 1065.32 a 10.00,10.00 0 0,0 -10.00,10.00 V 1056.59 a 0.00,0.00 0 0,0 0.00,0.00L 1055.32,1056.590000" stroke="black" stroke-width="1" fill="none"/>
    <path d="M 1468.67,292.710000 V 314.12 a 10.00,10.00 0 0,0 10.00,10.00 H 1529.51 a 10.00,10.00 0 0,1 10.00,10.00 V 353.53 a 2.00,2.00 0 0,0 2.00,2.00L 1543.51,355.530000" stroke="black" stroke-width="1" fill="none"/>
    <path d="M 393.51,742.470000 V 805.29 a 0.00,0.00 0 0,0 0.00,0.00L 393.51,805.290000" stroke="black" stroke-width="1" fill="none"/>
    <path d="M 943.12,993.760000 V 805.29 a 0.00,0.00 0 0,1 0.00,-0.00L 943.12,805.290000" stroke="black" stroke-width="1" fill="none"/>
    <path d="M 1681.15,418.350000 V 580.41 a 0.00,0.00 0 0,0 0.00,0.00L 1681.15,580.410000" stroke="black" stroke-width="1" fill="none"/>
    <path d="M 168.68,418.350000 V 290.70 a 0.00,0.00 0 0,1 0.00,-0.00L 168.68,290.700000" stroke="black" stroke-width="1" fill="none"/>
    <path d="M 868.29,167.060000 H 901.71 a 10.00,10.00 0 0,1 10.00,10.00 V 215.88 a 10.00,10.00 0 0,0 10.00,10.00 H 941.12 a 2.00,2.00 0 0,1 2.00,2.00L 943.12,229.880000" stroke="black" stroke-width="1" fill="none"/>
    <path d="M 1604.91,1155.820000 V 1134.41 a 10.00,10.00 0 0,0 -10.00,-10.00 H 1586.51 a 10.00,10.00 0 0,1 -10.00,-10.00 V 1094.00 a 1.00,1.00 0 0,0 -1.00,-1.00L 1574.51,1093.000000" stroke="black" stroke-width="1" fill="none"/>
    <path d="M 1755.97,643.240000 H 1728.56 a 10.00,10.00 0 0,0 -10.00,10.00 V 692.06 a 10.00,10.00 0 0,1 -10.00,10.00 H 1683.15 a 2.00,2.00 0 0,0 -2.00,2.00L 1681.15,706.060000" stroke="black" stroke-width="1" fill="none"/>
    <path d="M 1893.61,768.880000 H 1860.20 a 10.00,10.00 0 0,1 -10.00,-10.00 V 720.06 a 10.00,10.00 0 0,0 -10.00,-10.00 H 1820.79 a 2.00,2.00 0 0,1 -2.00,-2.00L 1818.79,706.060000" stroke="black" stroke-width="1" fill="none"/>
    <path d="M 1018.63,229.880000 H 943.12 a 0.00,0.00 0 0,0 -0.00,0.00L 943.12,229.880000" stroke="black" stroke-width="1" fill="none"/>
    <path d="M 817.44,418.350000 H 754.64 a 0.00,0.00 0 0,0 -0.00,0.00L 754.64,418.350000" stroke="black" stroke-width="1" fill="none"/>
    <path d="M 702.82,157.060000 H 579.60 a 0.00,0.00 0 0,0 -0.00,0.00L 579.60,157.060000" stroke="black" stroke-width="1" fill="none"/>
    <path d="M 393.51,805.290000 H 391.51 a 2.00,2.00 0 0,1 -2.00,-2.00 V 781.88 a 10.00,10.00 0 0,0 -10.00,-10.00 H 340.67 a 10.00,10.00 0 0,1 -10.00,-10.00 V 742.47 a 0.00,0.00 0 0,1 0.00,-0.00L 330.67,742.470000" stroke="black" stroke-width="1" fill="none"/>
    <path d="M 1060.08,167.060000 V 186.47 a 10.00,10.00 0 0,0 10.00,10.00 H 1082.18 a 10.00,10.00 0 0,1 10.00,10.00 V 228.88 a 1.00,1.00 0 0,0 1.00,1.00L 1094.18,229.880000" stroke="black" stroke-width="1" fill="none"/>
    <path d="M 193.06,679.650000 H 222.45 a 10.00,10.00 0 0,1 10.00,10.00 V 787.29 a 10.00,10.00 0 0,0 10.00,10.00 H 263.88 a 4.00,4.00 0 0,1 4.00,4.00L 267.88,805.290000" stroke="black" stroke-width="1" fill="none"/>
    <path d="M 1475.27,993.760000 H 1477.27 a 2.00,2.00 0 0,1 2.00,2.00 V 1015.18 a 10.00,10.00 0 0,0 10.00,10.00 H 1528.09 a 10.00,10.00 0 0,1 10.00,10.00 V 1056.59 a 0.00,0.00 0 0,0 0.00,0.00L 1538.09,1056.590000" stroke="black" stroke-width="1" fill="none"/>
    <path d="M 231.48,517.590000 V 580.41 a 0.00,0.00 0 0,0 0.00,0.00L 231.48,580.410000" stroke="black" stroke-width="1" fill="none"/>
    <rect x="639.42" y="178.47" width="30.0" height="30.0" stroke="black" stroke-width="1" id="0" onclick="ow3.nodeClick(this)" fill="#f0f0d2"/>

    <rect x="1603.33" y="565.41" width="30.0" height="30.0" stroke="black" stroke-width="1" id="1" onclick="ow3.nodeClick(this)" fill="#f0f0d2"/>

    <rect x="1460.27" y="1041.59" width="30.0" height="30.0" stroke="black" stroke-width="1" id="2" onclick="ow3.nodeClick(this)" fill="#f0f0d2"/>

    <rect x="216.48" y="565.41" width="30.0" height="30.0" stroke="black" stroke-width="1" id="3" onclick="ow3.nodeClick(this)" fill="#f0f0d2"/>

    <rect x="564.6" y="915.94" width="30.0" height="30.0" stroke="black" stroke-width="1" id="4" onclick="ow3.nodeClick(this)" fill="#f0f0d2"/>

    <rect x="853.29" y="214.88" width="30.0" height="30.0" stroke="black" stroke-width="1" id="5" onclick="ow3.nodeClick(this)" fill="#f0f0d2"/>

    <rect x="528.16" y="466.18" width="30.0" height="30.0" stroke="black" stroke-width="1" id="6" onclick="ow3.nodeClick(this)" fill="#f0f0d2"/>

    <rect x="378.51" y="727.47" width="30.0" height="30.0" stroke="black" stroke-width="1" id="7" onclick="ow3.nodeClick(this)" fill="#f0f0d2"/>

    <rect x="853.29" y="915.94" width="30.0" height="30.0" stroke="black" stroke-width="1" id="8" onclick="ow3.nodeClick(this)" fill="#f0f0d2"/>

    <rect x="639.42" y="304.12" width="30.0" height="30.0" stroke="black" stroke-width="1" id="9" onclick="ow3.nodeClick(this)" fill="#f0f0d2"/>

    <rect x="1453.67" y="565.41" width="30.0" height="30.0" stroke="black" stroke-width="1" id="10" onclick="ow3.nodeClick(this)" fill="#f0f0d2"/>

    <rect x="1523.09" y="1041.59" width="30.0" height="30.0" stroke="black" stroke-width="1" id="11" onclick="ow3.nodeClick(this)" fill="#f0f0d2"/>

    <rect x="279.31" y="565.41" width="30.0" height="30.0" stroke="black" stroke-width="1" id="12" onclick="ow3.nodeClick(this)" fill="#f0f0d2"/>

    <rect x="501.73" y="915.94" width="30.0" height="30.0" stroke="black" stroke-width="1" id="13" onclick="ow3.nodeClick(this)" fill="#f0f0d2"/>

    <rect x="853.29" y="277.71" width="30.0" height="30.0" stroke="black" stroke-width="1" id="14" onclick="ow3.nodeClick(this)" fill="#f0f0d2"/>

    <rect x="853.29" y="1041.59" width="30.0" height="30.0" stroke="black" stroke-width="1" id="15" onclick="ow3.nodeClick(this)" fill="#f0f0d2"/>

    <rect x="1591.33" y="277.71" width="30.0" height="30.0" stroke="black" stroke-width="1" id="16" onclick="ow3.nodeClick(this)" fill="#f0f0d2"/>

    <rect x="970.26" y="152.06" width="30.0" height="30.0" stroke="black" stroke-width="1" id="17" onclick="ow3.nodeClick(this)" fill="#f0f0d2"/>

    <rect x="762.65" y="142.06" width="30.0" height="30.0" stroke="black" stroke-width="1" id="18" onclick="ow3.nodeClick(this)" fill="#f0f0d2"/>

    <rect x="465.34" y="466.18" width="30.0" height="30.0" stroke="black" stroke-width="1" id="19" onclick="ow3.nodeClick(this)" fill="#f0f0d2"/>

    <rect x="489.78" y="539.0" width="30.0" height="30.0" stroke="black" stroke-width="1" id="20" onclick="ow3.nodeClick(this)" fill="#f0f0d2"/>

    <rect x="1515.08" y="1140.82" width="30.0" height="30.0" stroke="black" stroke-width="1" id="21" onclick="ow3.nodeClick(this)" fill="#f0f0d2"/>

    <rect x="441.34" y="727.47" width="30.0" height="30.0" stroke="black" stroke-width="1" id="22" onclick="ow3.nodeClick(this)" fill="#f0f0d2"/>

    <rect x="1878.61" y="628.24" width="30.0" height="30.0" stroke="black" stroke-width="1" id="23" onclick="ow3.nodeClick(this)" fill="#f0f0d2"/>

    <rect x="1803.79" y="816.71" width="30.0" height="30.0" stroke="black" stroke-width="1" id="24" onclick="ow3.nodeClick(this)" fill="#f0f0d2"/>

    <rect x="853.29" y="597.08" width="30.0" height="30.0" stroke="black" stroke-width="1" id="25" onclick="ow3.nodeClick(this)" fill="#f0f0d2"/>

    <rect x="1235.35" y="1230.06" width="30.0" height="30.0" stroke="black" stroke-width="1" id="26" onclick="ow3.nodeClick(this)" fill="#f0f0d2"/>

    <rect x="1277.23" y="756.28" width="30.0" height="30.0" stroke="black" stroke-width="1" id="27" onclick="ow3.nodeClick(this)" fill="#f0f0d2"/>

    <rect x="1528.51" y="277.71" width="30.0" height="30.0" stroke="black" stroke-width="1" id="28" onclick="ow3.nodeClick(this)" fill="#f0f0d2"/>

    <rect x="402.51" y="466.18" width="30.0" height="30.0" stroke="black" stroke-width="1" id="29" onclick="ow3.nodeClick(this)" fill="#f0f0d2"/>

    <rect x="252.85" y="727.47" width="30.0" height="30.0" stroke="black" stroke-width="1" id="30" onclick="ow3.nodeClick(this)" fill="#f0f0d2"/>

    <rect x="1361.0" y="1230.06" width="30.0" height="30.0" stroke="black" stroke-width="1" id="31" onclick="ow3.nodeClick(this)" fill="#f0f0d2"/>

    <rect x="78.86" y="87.23" width="30.0" height="30.0" stroke="black" stroke-width="1" id="32" onclick="ow3.nodeClick(this)" fill="#f0f0d2"/>

    <rect x="627.42" y="16.41" width="30.0" height="30.0" stroke="black" stroke-width="1" id="33" onclick="ow3.nodeClick(this)" fill="#f0f0d2"/>

    <rect x="1119.9" y="152.06" width="30.0" height="30.0" stroke="black" stroke-width="1" id="34" onclick="ow3.nodeClick(this)" fill="#f0f0d2"/>

    <rect x="78.86" y="212.87" width="30.0" height="30.0" stroke="black" stroke-width="1" id="35" onclick="ow3.nodeClick(this)" fill="#f0f0d2"/>

    <rect x="564.6" y="16.41" width="30.0" height="30.0" stroke="black" stroke-width="1" id="36" onclick="ow3.nodeClick(this)" fill="#f0f0d2"/>

    <rect x="1182.73" y="152.06" width="30.0" height="30.0" stroke="black" stroke-width="1" id="37" onclick="ow3.nodeClick(this)" fill="#f0f0d2"/>

    <rect x="802.44" y="403.35" width="30.0" height="30.0" stroke="black" stroke-width="1" id="38" onclick="ow3.nodeClick(this)" fill="#f0f0d2"/>

    <rect x="153.68" y="275.7" width="30.0" height="30.0" stroke="black" stroke-width="1" id="39" onclick="ow3.nodeClick(this)" fill="#f0f0d2"/>

    <rect x="1027.33" y="466.18" width="30.0" height="30.0" stroke="black" stroke-width="1" id="40" onclick="ow3.nodeClick(this)" fill="#f0f0d2"/>

    <rect x="178.06" y="664.65" width="30.0" height="30.0" stroke="black" stroke-width="1" id="41" onclick="ow3.nodeClick(this)" fill="#f0f0d2"/>

    <rect x="1165.96" y="1041.59" width="30.0" height="30.0" stroke="black" stroke-width="1" id="42" onclick="ow3.nodeClick(this)" fill="#f0f0d2"/>

    <rect x="964.49" y="466.18" width="30.0" height="30.0" stroke="black" stroke-width="1" id="43" onclick="ow3.nodeClick(this)" fill="#f0f0d2"/>

    <rect x="178.06" y="727.47" width="30.0" height="30.0" stroke="black" stroke-width="1" id="44" onclick="ow3.nodeClick(this)" fill="#f0f0d2"/>

    <rect x="1040.32" y="1041.59" width="30.0" height="30.0" stroke="black" stroke-width="1" id="45" onclick="ow3.nodeClick(this)" fill="#f0f0d2"/>

    <rect x="303.73" y="16.41" width="30.0" height="30.0" stroke="black" stroke-width="1" id="46" onclick="ow3.nodeClick(this)" fill="#f0f0d2"/>

    <rect x="434.71" y="79.24" width="30.0" height="30.0" stroke="black" stroke-width="1" id="47" onclick="ow3.nodeClick(this)" fill="#f0f0d2"/>

    <rect x="178.06" y="790.29" width="30.0" height="30.0" stroke="black" stroke-width="1" id="48" onclick="ow3.nodeClick(this)" fill="#f0f0d2"/>

    <rect x="28.41" y="887.06" width="30.0" height="30.0" stroke="black" stroke-width="1" id="49" onclick="ow3.nodeClick(this)" fill="#f0f0d2"/>

    <rect x="78.86" y="150.05" width="30.0" height="30.0" stroke="black" stroke-width="1" id="50" onclick="ow3.nodeClick(this)" fill="#f0f0d2"/>

    <rect x="639.42" y="241.29" width="30.0" height="30.0" stroke="black" stroke-width="1" id="51" onclick="ow3.nodeClick(this)" fill="#f0f0d2"/>

    <rect x="178.06" y="915.94" width="30.0" height="30.0" stroke="black" stroke-width="1" id="52" onclick="ow3.nodeClick(this)" fill="#f0f0d2"/>

    <rect x="762.65" y="204.88" width="30.0" height="30.0" stroke="black" stroke-width="1" id="53" onclick="ow3.nodeClick(this)" fill="#f0f0d2"/>

    <rect x="28.41" y="698.59" width="30.0" height="30.0" stroke="black" stroke-width="1" id="54" onclick="ow3.nodeClick(this)" fill="#f0f0d2"/>

    <rect x="252.85" y="466.18" width="30.0" height="30.0" stroke="black" stroke-width="1" id="55" onclick="ow3.nodeClick(this)" fill="#f0f0d2"/>

    <rect x="315.67" y="727.47" width="30.0" height="30.0" stroke="black" stroke-width="1" id="56" onclick="ow3.nodeClick(this)" fill="#f0f0d2"/>

    <rect x="1079.18" y="214.88" width="30.0" height="30.0" stroke="black" stroke-width="1" id="57" onclick="ow3.nodeClick(this)" fill="#f0f0d2"/>

    <rect x="1027.33" y="403.35" width="30.0" height="30.0" stroke="black" stroke-width="1" id="58" onclick="ow3.nodeClick(this)" fill="#f0f0d2"/>

    <rect x="1528.51" y="340.53" width="30.0" height="30.0" stroke="black" stroke-width="1" id="59" onclick="ow3.nodeClick(this)" fill="#f0f0d2"/>

    <rect x="564.6" y="601.82" width="30.0" height="30.0" stroke="black" stroke-width="1" id="60" onclick="ow3.nodeClick(this)" fill="#f0f0d2"/>

    <rect x="1740.97" y="816.71" width="30.0" height="30.0" stroke="black" stroke-width="1" id="61" onclick="ow3.nodeClick(this)" fill="#f0f0d2"/>

    <rect x="1460.27" y="978.76" width="30.0" height="30.0" stroke="black" stroke-width="1" id="62" onclick="ow3.nodeClick(this)" fill="#f0f0d2"/>

    <rect x="1265.22" y="978.76" width="30.0" height="30.0" stroke="black" stroke-width="1" id="63" onclick="ow3.nodeClick(this)" fill="#f0f0d2"/>

    <rect x="1740.97" y="565.41" width="30.0" height="30.0" stroke="black" stroke-width="1" id="64" onclick="ow3.nodeClick(this)" fill="#f0f0d2"/>

    <rect x="1666.15" y="403.35" width="30.0" height="30.0" stroke="black" stroke-width="1" id="65" onclick="ow3.nodeClick(this)" fill="#f0f0d2"/>

    <rect x="1666.15" y="978.76" width="30.0" height="30.0" stroke="black" stroke-width="1" id="66" onclick="ow3.nodeClick(this)" fill="#f0f0d2"/>

    <rect x="928.12" y="214.88" width="30.0" height="30.0" stroke="black" stroke-width="1" id="67" onclick="ow3.nodeClick(this)" fill="#f0f0d2"/>

    <rect x="928.12" y="978.76" width="30.0" height="30.0" stroke="black" stroke-width="1" id="68" onclick="ow3.nodeClick(this)" fill="#f0f0d2"/>

    <rect x="865.28" y="403.35" width="30.0" height="30.0" stroke="black" stroke-width="1" id="69" onclick="ow3.nodeClick(this)" fill="#f0f0d2"/>

    <rect x="841.29" y="790.29" width="30.0" height="30.0" stroke="black" stroke-width="1" id="70" onclick="ow3.nodeClick(this)" fill="#f0f0d2"/>

    <rect x="739.64" y="403.35" width="30.0" height="30.0" stroke="black" stroke-width="1" id="71" onclick="ow3.nodeClick(this)" fill="#f0f0d2"/>

    <rect x="660.35" y="790.29" width="30.0" height="30.0" stroke="black" stroke-width="1" id="72" onclick="ow3.nodeClick(this)" fill="#f0f0d2"/>

    <rect x="216.48" y="502.59" width="30.0" height="30.0" stroke="black" stroke-width="1" id="73" onclick="ow3.nodeClick(this)" fill="#f0f0d2"/>

    <rect x="564.6" y="853.12" width="30.0" height="30.0" stroke="black" stroke-width="1" id="74" onclick="ow3.nodeClick(this)" fill="#f0f0d2"/>

    <rect x="1202.41" y="288.71" width="30.0" height="30.0" stroke="black" stroke-width="1" id="75" onclick="ow3.nodeClick(this)" fill="#f0f0d2"/>

    <rect x="1202.41" y="1104.41" width="30.0" height="30.0" stroke="black" stroke-width="1" id="76" onclick="ow3.nodeClick(this)" fill="#f0f0d2"/>

    <rect x="564.6" y="79.24" width="30.0" height="30.0" stroke="black" stroke-width="1" id="77" onclick="ow3.nodeClick(this)" fill="#f0f0d2"/>

    <rect x="687.82" y="142.06" width="30.0" height="30.0" stroke="black" stroke-width="1" id="78" onclick="ow3.nodeClick(this)" fill="#f0f0d2"/>

    <rect x="153.68" y="179.78" width="30.0" height="30.0" stroke="black" stroke-width="1" id="79" onclick="ow3.nodeClick(this)" fill="#f0f0d2"/>

    <rect x="252.88" y="790.29" width="30.0" height="30.0" stroke="black" stroke-width="1" id="80" onclick="ow3.nodeClick(this)" fill="#f0f0d2"/>

    <rect x="564.6" y="272.71" width="30.0" height="30.0" stroke="black" stroke-width="1" id="81" onclick="ow3.nodeClick(this)" fill="#f0f0d2"/>

    <rect x="1803.79" y="691.06" width="30.0" height="30.0" stroke="black" stroke-width="1" id="82" onclick="ow3.nodeClick(this)" fill="#f0f0d2"/>

    <rect x="103.24" y="790.29" width="30.0" height="30.0" stroke="black" stroke-width="1" id="83" onclick="ow3.nodeClick(this)" fill="#f0f0d2"/>

    <rect x="153.68" y="403.35" width="30.0" height="30.0" stroke="black" stroke-width="1" id="84" onclick="ow3.nodeClick(this)" fill="#f0f0d2"/>

    <rect x="303.73" y="79.24" width="30.0" height="30.0" stroke="black" stroke-width="1" id="85" onclick="ow3.nodeClick(this)" fill="#f0f0d2"/>

    <rect x="402.51" y="403.35" width="30.0" height="30.0" stroke="black" stroke-width="1" id="86" onclick="ow3.nodeClick(this)" fill="#f0f0d2"/>

    <rect x="378.51" y="790.29" width="30.0" height="30.0" stroke="black" stroke-width="1" id="87" onclick="ow3.nodeClick(this)" fill="#f0f0d2"/>

    <rect x="1559.51" y="1078.0" width="30.0" height="30.0" stroke="black" stroke-width="1" id="88" onclick="ow3.nodeClick(this)" fill="#f0f0d2"/>

    <rect x="1265.22" y="1167.24" width="30.0" height="30.0" stroke="black" stroke-width="1" id="89" onclick="ow3.nodeClick(this)" fill="#f0f0d2"/>

    <rect x="1202.41" y="693.46" width="30.0" height="30.0" stroke="black" stroke-width="1" id="90" onclick="ow3.nodeClick(this)" fill="#f0f0d2"/>

    <rect x="928.12" y="597.08" width="30.0" height="30.0" stroke="black" stroke-width="1" id="91" onclick="ow3.nodeClick(this)" fill="#f0f0d2"/>

    <rect x="1528.51" y="502.59" width="30.0" height="30.0" stroke="black" stroke-width="1" id="92" onclick="ow3.nodeClick(this)" fill="#f0f0d2"/>

    <rect x="1740.97" y="691.06" width="30.0" height="30.0" stroke="black" stroke-width="1" id="93" onclick="ow3.nodeClick(this)" fill="#f0f0d2"/>

    <rect x="1666.15" y="691.06" width="30.0" height="30.0" stroke="black" stroke-width="1" id="94" onclick="ow3.nodeClick(this)" fill="#f0f0d2"/>

    <rect x="1103.14" y="1041.59" width="30.0" height="30.0" stroke="black" stroke-width="1" id="95" onclick="ow3.nodeClick(this)" fill="#f0f0d2"/>

    <rect x="1080.41" y="978.76" width="30.0" height="30.0" stroke="black" stroke-width="1" id="96" onclick="ow3.nodeClick(this)" fill="#f0f0d2"/>

    <rect x="1492.08" y="466.18" width="30.0" height="30.0" stroke="black" stroke-width="1" id="97" onclick="ow3.nodeClick(this)" fill="#f0f0d2"/>

    <rect x="1451.63" y="403.35" width="30.0" height="30.0" stroke="black" stroke-width="1" id="98" onclick="ow3.nodeClick(this)" fill="#f0f0d2"/>

    <rect x="1528.51" y="403.35" width="30.0" height="30.0" stroke="black" stroke-width="1" id="99" onclick="ow3.nodeClick(this)" fill="#f0f0d2"/>

    <rect x="1368.88" y="403.35" width="30.0" height="30.0" stroke="black" stroke-width="1" id="100" onclick="ow3.nodeClick(this)" fill="#f0f0d2"/>

    <rect x="1803.79" y="565.41" width="30.0" height="30.0" stroke="black" stroke-width="1" id="101" onclick="ow3.nodeClick(this)" fill="#f0f0d2"/>

    <rect x="1202.41" y="403.35" width="30.0" height="30.0" stroke="black" stroke-width="1" id="102" onclick="ow3.nodeClick(this)" fill="#f0f0d2"/>

    <rect x="1003.63" y="214.88" width="30.0" height="30.0" stroke="black" stroke-width="1" id="103" onclick="ow3.nodeClick(this)" fill="#f0f0d2"/>

    <rect x="1306.04" y="403.35" width="30.0" height="30.0" stroke="black" stroke-width="1" id="104" onclick="ow3.nodeClick(this)" fill="#f0f0d2"/>

    <rect x="1265.23" y="288.71" width="30.0" height="30.0" stroke="black" stroke-width="1" id="105" onclick="ow3.nodeClick(this)" fill="#f0f0d2"/>

    <rect x="928.12" y="403.35" width="30.0" height="30.0" stroke="black" stroke-width="1" id="106" onclick="ow3.nodeClick(this)" fill="#f0f0d2"/>

    <rect x="564.6" y="142.06" width="30.0" height="30.0" stroke="black" stroke-width="1" id="107" onclick="ow3.nodeClick(this)" fill="#f0f0d2"/>

    <rect x="216.48" y="403.35" width="30.0" height="30.0" stroke="black" stroke-width="1" id="108" onclick="ow3.nodeClick(this)" fill="#f0f0d2"/>

    <rect x="564.6" y="403.35" width="30.0" height="30.0" stroke="black" stroke-width="1" id="109" onclick="ow3.nodeClick(this)" fill="#f0f0d2"/>

    <rect x="153.68" y="79.24" width="30.0" height="30.0" stroke="black" stroke-width="1" id="110" onclick="ow3.nodeClick(this)" fill="#f0f0d2"/>

    <rect x="1666.15" y="816.71" width="30.0" height="30.0" stroke="black" stroke-width="1" id="111" onclick="ow3.nodeClick(this)" fill="#f0f0d2"/>

    <rect x="1559.51" y="978.76" width="30.0" height="30.0" stroke="black" stroke-width="1" id="112" onclick="ow3.nodeClick(this)" fill="#f0f0d2"/>

    <rect x="1337.05" y="978.76" width="30.0" height="30.0" stroke="black" stroke-width="1" id="113" onclick="ow3.nodeClick(this)" fill="#f0f0d2"/>

    <rect x="1265.22" y="1104.41" width="30.0" height="30.0" stroke="black" stroke-width="1" id="114" onclick="ow3.nodeClick(this)" fill="#f0f0d2"/>

    <rect x="1202.41" y="978.76" width="30.0" height="30.0" stroke="black" stroke-width="1" id="115" onclick="ow3.nodeClick(this)" fill="#f0f0d2"/>

    <rect x="1004.26" y="978.76" width="30.0" height="30.0" stroke="black" stroke-width="1" id="116" onclick="ow3.nodeClick(this)" fill="#f0f0d2"/>

    <rect x="751.24" y="790.29" width="30.0" height="30.0" stroke="black" stroke-width="1" id="117" onclick="ow3.nodeClick(this)" fill="#f0f0d2"/>

    <rect x="564.6" y="790.29" width="30.0" height="30.0" stroke="black" stroke-width="1" id="118" onclick="ow3.nodeClick(this)" fill="#f0f0d2"/>

    <rect x="928.12" y="790.29" width="30.0" height="30.0" stroke="black" stroke-width="1" id="119" onclick="ow3.nodeClick(this)" fill="#f0f0d2"/>

    <rect x="315.71" y="790.29" width="30.0" height="30.0" stroke="black" stroke-width="1" id="120" onclick="ow3.nodeClick(this)" fill="#f0f0d2"/>

    <rect x="1878.61" y="691.06" width="30.0" height="30.0" stroke="black" stroke-width="1" id="121" onclick="ow3.nodeClick(this)" fill="#f0f0d2"/>

    <rect x="1666.15" y="565.41" width="30.0" height="30.0" stroke="black" stroke-width="1" id="122" onclick="ow3.nodeClick(this)" fill="#f0f0d2"/>

    <rect x="1740.97" y="628.24" width="30.0" height="30.0" stroke="black" stroke-width="1" id="123" onclick="ow3.nodeClick(this)" fill="#f0f0d2"/>

    <rect x="1277.23" y="630.64" width="30.0" height="30.0" stroke="black" stroke-width="1" id="124" onclick="ow3.nodeClick(this)" fill="#f0f0d2"/>

    <rect x="489.78" y="601.82" width="30.0" height="30.0" stroke="black" stroke-width="1" id="125" onclick="ow3.nodeClick(this)" fill="#f0f0d2"/>

    <rect x="853.29" y="659.9" width="30.0" height="30.0" stroke="black" stroke-width="1" id="126" onclick="ow3.nodeClick(this)" fill="#f0f0d2"/>

    <rect x="240.88" y="16.41" width="30.0" height="30.0" stroke="black" stroke-width="1" id="127" onclick="ow3.nodeClick(this)" fill="#f0f0d2"/>

    <rect x="1298.18" y="1230.06" width="30.0" height="30.0" stroke="black" stroke-width="1" id="128" onclick="ow3.nodeClick(this)" fill="#f0f0d2"/>

    <rect x="28.41" y="761.41" width="30.0" height="30.0" stroke="black" stroke-width="1" id="129" onclick="ow3.nodeClick(this)" fill="#f0f0d2"/>

    <rect x="1033.08" y="152.06" width="54.0" height="30.0" stroke="black" stroke-width="1" id="130" onclick="ow3.nodeClick(this)" fill="#f0f0d2"/>

    <rect x="1090.16" y="466.18" width="54.0" height="30.0" stroke="black" stroke-width="1" id="131" onclick="ow3.nodeClick(this)" fill="#f0f0d2"/>

    <rect x="1441.67" y="277.71" width="54.0" height="30.0" stroke="black" stroke-width="1" id="132" onclick="ow3.nodeClick(this)" fill="#f0f0d2"/>

    <rect x="477.78" y="664.65" width="54.0" height="30.0" stroke="black" stroke-width="1" id="133" onclick="ow3.nodeClick(this)" fill="#f0f0d2"/>

    <rect x="1728.97" y="879.53" width="54.0" height="30.0" stroke="black" stroke-width="1" id="134" onclick="ow3.nodeClick(this)" fill="#f0f0d2"/>

    <rect x="1373.44" y="1041.59" width="54.0" height="30.0" stroke="black" stroke-width="1" id="135" onclick="ow3.nodeClick(this)" fill="#f0f0d2"/>

    <rect x="1253.22" y="915.94" width="54.0" height="30.0" stroke="black" stroke-width="1" id="136" onclick="ow3.nodeClick(this)" fill="#f0f0d2"/>

    <rect x="1728.97" y="502.59" width="54.0" height="30.0" stroke="black" stroke-width="1" id="137" onclick="ow3.nodeClick(this)" fill="#f0f0d2"/>

    <rect x="1654.15" y="340.53" width="54.0" height="30.0" stroke="black" stroke-width="1" id="138" onclick="ow3.nodeClick(this)" fill="#f0f0d2"/>

    <rect x="1728.97" y="978.76" width="54.0" height="30.0" stroke="black" stroke-width="1" id="139" onclick="ow3.nodeClick(this)" fill="#f0f0d2"/>

    <rect x="841.29" y="152.06" width="54.0" height="30.0" stroke="black" stroke-width="1" id="140" onclick="ow3.nodeClick(this)" fill="#f0f0d2"/>

    <rect x="841.29" y="978.76" width="54.0" height="30.0" stroke="black" stroke-width="1" id="141" onclick="ow3.nodeClick(this)" fill="#f0f0d2"/>

    <rect x="853.28" y="340.53" width="54.0" height="30.0" stroke="black" stroke-width="1" id="142" onclick="ow3.nodeClick(this)" fill="#f0f0d2"/>

    <rect x="829.29" y="853.12" width="54.0" height="30.0" stroke="black" stroke-width="1" id="143" onclick="ow3.nodeClick(this)" fill="#f0f0d2"/>

    <rect x="727.64" y="340.53" width="54.0" height="30.0" stroke="black" stroke-width="1" id="144" onclick="ow3.nodeClick(this)" fill="#f0f0d2"/>

    <rect x="648.35" y="853.12" width="54.0" height="30.0" stroke="black" stroke-width="1" id="145" onclick="ow3.nodeClick(this)" fill="#f0f0d2"/>

    <rect x="129.61" y="565.41" width="54.0" height="30.0" stroke="black" stroke-width="1" id="146" onclick="ow3.nodeClick(this)" fill="#f0f0d2"/>

    <rect x="627.42" y="915.94" width="54.0" height="30.0" stroke="black" stroke-width="1" id="147" onclick="ow3.nodeClick(this)" fill="#f0f0d2"/>

    <rect x="1115.59" y="288.71" width="54.0" height="30.0" stroke="black" stroke-width="1" id="148" onclick="ow3.nodeClick(this)" fill="#f0f0d2"/>

    <rect x="1115.59" y="1104.41" width="54.0" height="30.0" stroke="black" stroke-width="1" id="149" onclick="ow3.nodeClick(this)" fill="#f0f0d2"/>

    <rect x="477.73" y="16.41" width="54.0" height="30.0" stroke="black" stroke-width="1" id="150" onclick="ow3.nodeClick(this)" fill="#f0f0d2"/>

    <rect x="750.65" y="79.24" width="54.0" height="30.0" stroke="black" stroke-width="1" id="151" onclick="ow3.nodeClick(this)" fill="#f0f0d2"/>

    <rect x="66.86" y="275.7" width="54.0" height="30.0" stroke="black" stroke-width="1" id="152" onclick="ow3.nodeClick(this)" fill="#f0f0d2"/>

    <rect x="166.06" y="853.12" width="54.0" height="30.0" stroke="black" stroke-width="1" id="153" onclick="ow3.nodeClick(this)" fill="#f0f0d2"/>

    <rect x="627.42" y="366.94" width="54.0" height="30.0" stroke="black" stroke-width="1" id="154" onclick="ow3.nodeClick(this)" fill="#f0f0d2"/>

    <rect x="1866.61" y="753.88" width="54.0" height="30.0" stroke="black" stroke-width="1" id="155" onclick="ow3.nodeClick(this)" fill="#f0f0d2"/>

    <rect x="16.41" y="824.23" width="54.0" height="30.0" stroke="black" stroke-width="1" id="156" onclick="ow3.nodeClick(this)" fill="#f0f0d2"/>

    <rect x="66.86" y="403.35" width="54.0" height="30.0" stroke="black" stroke-width="1" id="157" onclick="ow3.nodeClick(this)" fill="#f0f0d2"/>

    <rect x="366.55" y="16.41" width="54.0" height="30.0" stroke="black" stroke-width="1" id="158" onclick="ow3.nodeClick(this)" fill="#f0f0d2"/>

    <rect x="315.67" y="466.18" width="54.0" height="30.0" stroke="black" stroke-width="1" id="159" onclick="ow3.nodeClick(this)" fill="#f0f0d2"/>

    <rect x="504.16" y="727.47" width="54.0" height="30.0" stroke="black" stroke-width="1" id="160" onclick="ow3.nodeClick(this)" fill="#f0f0d2"/>

    <rect x="1577.91" y="1140.82" width="54.0" height="30.0" stroke="black" stroke-width="1" id="161" onclick="ow3.nodeClick(this)" fill="#f0f0d2"/>

    <rect x="1148.53" y="1230.06" width="54.0" height="30.0" stroke="black" stroke-width="1" id="162" onclick="ow3.nodeClick(this)" fill="#f0f0d2"/>

    <rect x="1265.23" y="693.46" width="54.0" height="30.0" stroke="black" stroke-width="1" id="163" onclick="ow3.nodeClick(this)" fill="#f0f0d2"/>

    <rect x="841.29" y="534.25" width="54.0" height="30.0" stroke="black" stroke-width="1" id="164" onclick="ow3.nodeClick(this)" fill="#f0f0d2"/>

    <rect x="1516.51" y="565.41" width="54.0" height="30.0" stroke="black" stroke-width="1" id="165" onclick="ow3.nodeClick(this)" fill="#f0f0d2"/>

    <rect x="1728.97" y="753.88" width="54.0" height="30.0" stroke="black" stroke-width="1" id="166" onclick="ow3.nodeClick(this)" fill="#f0f0d2"/>

    <rect x="953.49" y="1041.59" width="54.0" height="30.0" stroke="black" stroke-width="1" id="167" onclick="ow3.nodeClick(this)" fill="#f0f0d2"/>

    <rect x="1405.26" y="466.18" width="54.0" height="30.0" stroke="black" stroke-width="1" id="168" onclick="ow3.nodeClick(this)" fill="#f0f0d2"/>

    <rect x="1294.04" y="466.18" width="54.0" height="30.0" stroke="black" stroke-width="1" id="169" onclick="ow3.nodeClick(this)" fill="#f0f0d2"/>

</g>
</g>
</svg>
