<svg xmlns:xlink="http://www.w3.org/1999/xlink" xmlns="http://www.w3.org/2000/svg" height="169px" width="300px" id="SVGCanvas" onmouseup="null" onmousemove="null">
<rect fill="#bdbddf" width="100%" height="100%" y="0" x="0" id="background" onmousedown="bgmousedown(evt)"/>
<g id="foreground" transform="scale(0.625),translate(105.36193029490616,0),scale(1.447721179624665),translate(-57,-173)">
  <g id="edges"><g id="169"><path style="stroke:#bdbddf; stroke-width:8px; fill:none;" opacity="0.7" d="M 102,259L 198,259"/><g><path style="stroke:#ff0; stroke-width:8px; fill:none; " opacity="0" d="M 102,259L 198,259"/></g><path style="stroke:black; fill:none;" d="M 102,259L 198,259"/><g><g><path style="stroke:#0ff; stroke-width:8px; fill:none; " opacity="0" d="M 102,259 L 198,259" onmousedown='segmousedown("169","0",evt);' onmouseover='segmouseover("169","0",evt);' onmouseout='segmouseout("169","0",evt);' onclick='segclick("169","0",evt);'/></g></g></g><g id="170"><path style="stroke:#bdbddf; stroke-width:8px; fill:none;" opacity="0.7" d="M 213,244 V 215 a 12,12 0 0,0 -12,-12L 174,203"/><g><path style="stroke:#ff0; stroke-width:8px; fill:none; " opacity="0" d="M 213,244 V 215 a 12,12 0 0,0 -12,-12L 174,203"/></g><path style="stroke:black; fill:none;" d="M 213,244 V 215 a 12,12 0 0,0 -12,-12L 174,203"/><g><g><path style="stroke:#0ff; stroke-width:8px; fill:none; " opacity="0" d="M 213,244 L 213,203" onmousedown='segmousedown("170","0",evt);' onmouseover='segmouseover("170","0",evt);' onmouseout='segmouseout("170","0",evt);' onclick='segclick("170","0",evt);'/><path style="stroke:#0ff; stroke-width:8px; fill:none; " opacity="0" d="M 213,203 L 174,203" onmousedown='segmousedown("170","1",evt);' onmouseover='segmouseover("170","1",evt);' onmouseout='segmouseout("170","1",evt);' onclick='segclick("170","1",evt);'/></g></g></g><g id="171"><path style="stroke:#bdbddf; stroke-width:8px; fill:none;" opacity="0.7" d="M 149,218L 149,297.5"/><g><path style="stroke:#ff0; stroke-width:8px; fill:none; " opacity="0" d="M 149,218L 149,297.5"/></g><path style="stroke:black; fill:none;" d="M 149,218L 149,297.5"/><g><g><path style="stroke:#0ff; stroke-width:8px; fill:none; " opacity="0" d="M 149,218 L 149,297.5" onmousedown='segmousedown("171","0",evt);' onmouseover='segmouseover("171","0",evt);' onmouseout='segmouseout("171","0",evt);' onclick='segclick("171","0",evt);'/></g></g></g><g id="172"><path style="stroke:#bdbddf; stroke-width:8px; fill:none;" opacity="0.7" d="M 164,321 H 201 a 12,12 0 0,0 12,-12L 213,274"/><g><path style="stroke:#ff0; stroke-width:8px; fill:none; " opacity="0" d="M 164,321 H 201 a 12,12 0 0,0 12,-12L 213,274"/></g><path style="stroke:black; fill:none;" d="M 164,321 H 201 a 12,12 0 0,0 12,-12L 213,274"/><g><g><path style="stroke:#0ff; stroke-width:8px; fill:none; " opacity="0" d="M 164,321 L 213,321" onmousedown='segmousedown("172","0",evt);' onmouseover='segmouseover("172","0",evt);' onmouseout='segmouseout("172","0",evt);' onclick='segclick("172","0",evt);'/><path style="stroke:#0ff; stroke-width:8px; fill:none; " opacity="0" d="M 213,321 L 213,274" onmousedown='segmousedown("172","1",evt);' onmouseover='segmouseover("172","1",evt);' onmouseout='segmouseout("172","1",evt);' onclick='segclick("172","1",evt);'/></g></g></g><g id="173"><path style="stroke:#bdbddf; stroke-width:8px; fill:none;" opacity="0.7" d="M 124,203 H 99 a 12,12 0 0,0 -12,12L 87,244"/><g><path style="stroke:#ff0; stroke-width:8px; fill:none; " opacity="0" d="M 124,203 H 99 a 12,12 0 0,0 -12,12L 87,244"/></g><path style="stroke:black; fill:none;" d="M 124,203 H 99 a 12,12 0 0,0 -12,12L 87,244"/><g><g><path style="stroke:#0ff; stroke-width:8px; fill:none; " opacity="0" d="M 124,203 L 87,203" onmousedown='segmousedown("173","0",evt);' onmouseover='segmouseover("173","0",evt);' onmouseout='segmouseout("173","0",evt);' onclick='segclick("173","0",evt);'/><path style="stroke:#0ff; stroke-width:8px; fill:none; " opacity="0" d="M 87,203 L 87,244" onmousedown='segmousedown("173","1",evt);' onmouseover='segmouseover("173","1",evt);' onmouseout='segmouseout("173","1",evt);' onclick='segclick("173","1",evt);'/></g></g></g><g id="174"><path style="stroke:#bdbddf; stroke-width:8px; fill:none;" opacity="0.7" d="M 88,274 V 309 a 12,12 0 0,0 12,12L 134,321"/><g><path style="stroke:#ff0; stroke-width:8px; fill:none; " opacity="0" d="M 88,274 V 309 a 12,12 0 0,0 12,12L 134,321"/></g><path style="stroke:black; fill:none;" d="M 88,274 V 309 a 12,12 0 0,0 12,12L 134,321"/><g><g><path style="stroke:#0ff; stroke-width:8px; fill:none; " opacity="0" d="M 88,274 L 88,321" onmousedown='segmousedown("174","0",evt);' onmouseover='segmouseover("174","0",evt);' onmouseout='segmouseout("174","0",evt);' onclick='segclick("174","0",evt);'/><path style="stroke:#0ff; stroke-width:8px; fill:none; " opacity="0" d="M 88,321 L 134,321" onmousedown='segmousedown("174","1",evt);' onmouseover='segmouseover("174","1",evt);' onmouseout='segmouseout("174","1",evt);' onclick='segclick("174","1",evt);'/></g></g></g></g>
  <g id="nodes"><g id="168" onmousedown="nodemousedown(168,evt);" onmouseover="nodemouseover(168,evt);" onmouseout="nodemouseout(168,evt);" transform="translate(87,259)"><rect x="-21" y="-21" width="42" height="42" fill="#0ff" style="stroke:none; opacity:0.75;" display="none"/><rect x="-15" y="-15" width="30" height="30" fill="#f0f0d2" style="stroke:black; opacity:1;"/></g><g id="167" onmousedown="nodemousedown(167,evt);" onmouseover="nodemouseover(167,evt);" onmouseout="nodemouseout(167,evt);" transform="translate(213,259)"><rect x="-21" y="-21" width="42" height="42" fill="#0ff" style="stroke:none; opacity:0.75;" display="none"/><rect x="-15" y="-15" width="30" height="30" fill="#f0f0d2" style="stroke:black; opacity:1;"/></g><g id="166" onmousedown="nodemousedown(166,evt);" onmouseover="nodemouseover(166,evt);" onmouseout="nodemouseout(166,evt);" transform="translate(149,321)"><rect x="-21" y="-29.5" width="42" height="59" fill="#0ff" style="stroke:none; opacity:0.75;" display="none"/><rect x="-15" y="-23.5" width="30" height="47" fill="#f0f0d2" style="stroke:black; opacity:1;"/></g><g id="165" onmousedown="nodemousedown(165,evt);" onmouseover="nodemouseover(165,evt);" onmouseout="nodemouseout(165,evt);" transform="translate(149,203)"><rect x="-31" y="-21" width="62" height="42" fill="#0ff" style="stroke:none; opacity:0.75;" display="none"/><rect x="-25" y="-15" width="50" height="30" fill="#f0f0d2" style="stroke:black; opacity:1;"/></g></g>
  <g id="BPs"><g onmousedown="bpmousedown(181,evt);" onmouseover="bpmouseover(181,evt);" onmouseout="bpmouseout(181,evt);" transform="translate(213,203)" opacity="0"><ellipse cx="0" cy="0" rx="16" ry="16" fill="#0ff" style="stroke:none; opacity:0.75;" display="none"/><ellipse cx="0" cy="0" rx="7.163929600000001" ry="7.163929600000001" fill="#777" style="stroke:black;"/></g><g onmousedown="bpmousedown(189,evt);" onmouseover="bpmouseover(189,evt);" onmouseout="bpmouseout(189,evt);" transform="translate(213,321)" opacity="0"><ellipse cx="0" cy="0" rx="16" ry="16" fill="#0ff" style="stroke:none; opacity:0.75;" display="none"/><ellipse cx="0" cy="0" rx="7.163929600000001" ry="7.163929600000001" fill="#777" style="stroke:black;"/></g><g onmousedown="bpmousedown(195,evt);" onmouseover="bpmouseover(195,evt);" onmouseout="bpmouseout(195,evt);" transform="translate(87,203)" opacity="0"><ellipse cx="0" cy="0" rx="16" ry="16" fill="#0ff" style="stroke:none; opacity:0.75;" display="none"/><ellipse cx="0" cy="0" rx="7.163929600000001" ry="7.163929600000001" fill="#777" style="stroke:black;"/></g><g onmousedown="bpmousedown(199,evt);" onmouseover="bpmouseover(199,evt);" onmouseout="bpmouseout(199,evt);" transform="translate(88,321)" opacity="0"><ellipse cx="0" cy="0" rx="16" ry="16" fill="#0ff" style="stroke:none; opacity:0.75;" display="none"/><ellipse cx="0" cy="0" rx="7.163929600000001" ry="7.163929600000001" fill="#777" style="stroke:black;"/></g></g>
  <g id="ports"/>
</g>
</svg>
