<svg xmlns:xlink="http://www.w3.org/1999/xlink" xmlns="http://www.w3.org/2000/svg" height="169px" width="300px" id="SVGCanvas" onmouseup="null" onmousemove="null">
<rect fill="#bdbddf" width="100%" height="100%" y="0" x="0" id="background" onmousedown="bgmousedown(evt)"/>
<g id="foreground" transform="scale(0.625),translate(95,0),scale(1.0526315789473684),translate(-45,-67.5)">
  <g id="edges"><g id="288"><path style="stroke:#bdbddf; stroke-width:8px; fill:none;" opacity="0.7" d="M 178,198L 178,279"/><g><path style="stroke:#ff0; stroke-width:8px; fill:none; " opacity="0" d="M 178,198L 178,279"/></g><path style="stroke:black; fill:none;" d="M 178,198L 178,279"/><g><g><path style="stroke:#0ff; stroke-width:8px; fill:none; " opacity="0" d="M 178,198 L 178,279" onmousedown='segmousedown("288","0",evt);' onmouseover='segmouseover("288","0",evt);' onmouseout='segmouseout("288","0",evt);' onclick='segclick("288","0",evt);'/></g></g></g><g id="289"><path style="stroke:#bdbddf; stroke-width:8px; fill:none;" opacity="0.7" d="M 197.5,182 H 224 a 12,12 0 0,1 12,12L 236,216"/><g><path style="stroke:#ff0; stroke-width:8px; fill:none; " opacity="0" d="M 197.5,182 H 224 a 12,12 0 0,1 12,12L 236,216"/></g><path style="stroke:black; fill:none;" d="M 197.5,182 H 224 a 12,12 0 0,1 12,12L 236,216"/><g><g><path style="stroke:#0ff; stroke-width:8px; fill:none; " opacity="0" d="M 197.5,182 L 236,182" onmousedown='segmousedown("289","0",evt);' onmouseover='segmouseover("289","0",evt);' onmouseout='segmouseout("289","0",evt);' onclick='segclick("289","0",evt);'/><path style="stroke:#0ff; stroke-width:8px; fill:none; " opacity="0" d="M 236,182 L 236,216" onmousedown='segmousedown("289","1",evt);' onmouseover='segmouseover("289","1",evt);' onmouseout='segmouseout("289","1",evt);' onclick='segclick("289","1",evt);'/></g></g></g><g id="290"><path style="stroke:#bdbddf; stroke-width:8px; fill:none;" opacity="0.7" d="M 156,135.5L 156,166"/><g><path style="stroke:#ff0; stroke-width:8px; fill:none; " opacity="0" d="M 156,135.5L 156,166"/></g><path style="stroke:black; fill:none;" d="M 156,135.5L 156,166"/><g><g><path style="stroke:#0ff; stroke-width:8px; fill:none; " opacity="0" d="M 156,135.5 L 156,166" onmousedown='segmousedown("290","0",evt);' onmouseover='segmouseover("290","0",evt);' onmouseout='segmouseout("290","0",evt);' onclick='segclick("290","0",evt);'/></g></g></g><g id="291"><path style="stroke:#bdbddf; stroke-width:8px; fill:none;" opacity="0.7" d="M 75,278 V 194 a 12,12 0 0,1 12,-12L 114.5,182"/><g><path style="stroke:#ff0; stroke-width:8px; fill:none; " opacity="0" d="M 75,278 V 194 a 12,12 0 0,1 12,-12L 114.5,182"/></g><path style="stroke:black; fill:none;" d="M 75,278 V 194 a 12,12 0 0,1 12,-12L 114.5,182"/><g><g><path style="stroke:#0ff; stroke-width:8px; fill:none; " opacity="0" d="M 75,278 L 75,182" onmousedown='segmousedown("291","0",evt);' onmouseover='segmouseover("291","0",evt);' onmouseout='segmouseout("291","0",evt);' onclick='segclick("291","0",evt);'/><path style="stroke:#0ff; stroke-width:8px; fill:none; " opacity="0" d="M 75,182 L 114.5,182" onmousedown='segmousedown("291","1",evt);' onmouseover='segmouseover("291","1",evt);' onmouseout='segmouseout("291","1",evt);' onclick='segclick("291","1",evt);'/></g></g></g><g id="292"><path style="stroke:#bdbddf; stroke-width:8px; fill:none;" opacity="0.7" d="M 179.5,109L 216.5,109"/><g><path style="stroke:#ff0; stroke-width:8px; fill:none; " opacity="0" d="M 179.5,109L 216.5,109"/></g><path style="stroke:black; fill:none;" d="M 179.5,109L 216.5,109"/><g><g><path style="stroke:#0ff; stroke-width:8px; fill:none; " opacity="0" d="M 179.5,109 L 216.5,109" onmousedown='segmousedown("292","0",evt);' onmouseover='segmouseover("292","0",evt);' onmouseout='segmouseout("292","0",evt);' onclick='segclick("292","0",evt);'/></g></g></g><g id="287"><path style="stroke:#bdbddf; stroke-width:8px; fill:none;" opacity="0.7" d="M 129,198L 129,278"/><g><path style="stroke:#ff0; stroke-width:8px; fill:none; " opacity="0" d="M 129,198L 129,278"/></g><path style="stroke:black; fill:none;" d="M 129,198L 129,278"/><g><g><path style="stroke:#0ff; stroke-width:8px; fill:none; " opacity="0" d="M 129,198 L 129,278" onmousedown='segmousedown("287","0",evt);' onmouseover='segmouseover("287","0",evt);' onmouseout='segmouseout("287","0",evt);' onclick='segclick("287","0",evt);'/></g></g></g></g>
  <g id="nodes"><g id="280" onmousedown="nodemousedown(280,evt);" onmouseover="nodemouseover(280,evt);" onmouseout="nodemouseout(280,evt);" transform="translate(156,182)"><rect x="-47.5" y="-22" width="95" height="44" fill="#0ff" style="stroke:none; opacity:0.75;" display="none"/><rect x="-41.5" y="-16" width="83" height="32" fill="#f0f0d2" style="stroke:black; opacity:1;"/></g><g id="281" onmousedown="nodemousedown(281,evt);" onmouseover="nodemouseover(281,evt);" onmouseout="nodemouseout(281,evt);" transform="translate(129,293)"><rect x="-21" y="-21" width="42" height="42" fill="#0ff" style="stroke:none; opacity:0.75;" display="none"/><rect x="-15" y="-15" width="30" height="30" fill="#f0f0d2" style="stroke:black; opacity:1;"/></g><g id="284" onmousedown="nodemousedown(284,evt);" onmouseover="nodemouseover(284,evt);" onmouseout="nodemouseout(284,evt);" transform="translate(156,109)"><rect x="-29.5" y="-32.5" width="59" height="65" fill="#0ff" style="stroke:none; opacity:0.75;" display="none"/><rect x="-23.5" y="-26.5" width="47" height="53" fill="#f0f0d2" style="stroke:black; opacity:1;"/></g><g id="286" onmousedown="nodemousedown(286,evt);" onmouseover="nodemouseover(286,evt);" onmouseout="nodemouseout(286,evt);" transform="translate(261,109)"><rect x="-50.5" y="-21" width="101" height="42" fill="#0ff" style="stroke:none; opacity:0.75;" display="none"/><rect x="-44.5" y="-15" width="89" height="30" fill="#f0f0d2" style="stroke:black; opacity:1;"/></g><g id="282" onmousedown="nodemousedown(282,evt);" onmouseover="nodemouseover(282,evt);" onmouseout="nodemouseout(282,evt);" transform="translate(178,294)"><rect x="-21" y="-21" width="42" height="42" fill="#0ff" style="stroke:none; opacity:0.75;" display="none"/><rect x="-15" y="-15" width="30" height="30" fill="#f0f0d2" style="stroke:black; opacity:1;"/></g><g id="285" onmousedown="nodemousedown(285,evt);" onmouseover="nodemouseover(285,evt);" onmouseout="nodemouseout(285,evt);" transform="translate(75,293)"><rect x="-21" y="-21" width="42" height="42" fill="#0ff" style="stroke:none; opacity:0.75;" display="none"/><rect x="-15" y="-15" width="30" height="30" fill="#f0f0d2" style="stroke:black; opacity:1;"/></g><g id="283" onmousedown="nodemousedown(283,evt);" onmouseover="nodemouseover(283,evt);" onmouseout="nodemouseout(283,evt);" transform="translate(236,262)"><rect x="-17.5" y="-52" width="35" height="104" fill="#0ff" style="stroke:none; opacity:0.75;" display="none"/><rect x="-11.5" y="-46" width="23" height="92" fill="#f0f0d2" style="stroke:black; opacity:1;"/></g></g>
  <g id="BPs"><g onmousedown="bpmousedown(321,evt);" onmouseover="bpmouseover(321,evt);" onmouseout="bpmouseout(321,evt);" transform="translate(75,182)" opacity="0"><ellipse cx="0" cy="0" rx="16" ry="16" fill="#0ff" style="stroke:none; opacity:0.75;" display="none"/><ellipse cx="0" cy="0" rx="9.200000000000001" ry="9.200000000000001" fill="#777" style="stroke:black;"/></g><g onmousedown="bpmousedown(332,evt);" onmouseover="bpmouseover(332,evt);" onmouseout="bpmouseout(332,evt);" transform="translate(236,182)" opacity="0"><ellipse cx="0" cy="0" rx="16" ry="16" fill="#0ff" style="stroke:none; opacity:0.75;" display="none"/><ellipse cx="0" cy="0" rx="9.200000000000001" ry="9.200000000000001" fill="#777" style="stroke:black;"/></g></g>
  <g id="ports"/>
</g>
</svg>
