<svg xmlns:xlink="http://www.w3.org/1999/xlink" xmlns="http://www.w3.org/2000/svg" height="169px" width="300px" id="SVGCanvas" onmouseup="null" onmousemove="null">
<rect fill="#bdbddf" width="100%" height="100%" y="0" x="0" id="background" onmousedown="bgmousedown(evt)"/>
<g id="foreground" transform="scale(0.625),translate(0,19.200000000000003),scale(1.2),translate(-48,-187)">
  <g id="edges"><g id="305"><path style="stroke:#bdbddf; stroke-width:8px; fill:none;" opacity="0.7" d="M 294,212L 268,212"/><g><path style="stroke:#ff0; stroke-width:8px; fill:none; " opacity="0" d="M 294,212L 268,212"/></g><path style="stroke:black; fill:none;" d="M 294,212L 268,212"/><g><g><path style="stroke:#0ff; stroke-width:8px; fill:none; " opacity="0" d="M 294,212 L 268,212" onmousedown='segmousedown("305","0",evt);' onmouseover='segmouseover("305","0",evt);' onmouseout='segmouseout("305","0",evt);' onclick='segclick("305","0",evt);'/></g></g></g><g id="306"><path style="stroke:#bdbddf; stroke-width:8px; fill:none;" opacity="0.7" d="M 253,233L 253,263"/><g><path style="stroke:#ff0; stroke-width:8px; fill:none; " opacity="0" d="M 253,233L 253,263"/></g><path style="stroke:black; fill:none;" d="M 253,233L 253,263"/><g><g><path style="stroke:#0ff; stroke-width:8px; fill:none; " opacity="0" d="M 253,233 L 253,263" onmousedown='segmousedown("306","0",evt);' onmouseover='segmouseover("306","0",evt);' onmouseout='segmouseout("306","0",evt);' onclick='segclick("306","0",evt);'/></g></g></g><g id="307"><path style="stroke:#bdbddf; stroke-width:8px; fill:none;" opacity="0.7" d="M 253,293 V 338 a 12,12 0 0,0 12,12L 352,350"/><g><path style="stroke:#ff0; stroke-width:8px; fill:none; " opacity="0" d="M 253,293 V 338 a 12,12 0 0,0 12,12L 352,350"/></g><path style="stroke:black; fill:none;" d="M 253,293 V 338 a 12,12 0 0,0 12,12L 352,350"/><g><g><path style="stroke:#0ff; stroke-width:8px; fill:none; " opacity="0" d="M 253,293 L 253,350" onmousedown='segmousedown("307","0",evt);' onmouseover='segmouseover("307","0",evt);' onmouseout='segmouseout("307","0",evt);' onclick='segclick("307","0",evt);'/><path style="stroke:#0ff; stroke-width:8px; fill:none; " opacity="0" d="M 253,350 L 352,350" onmousedown='segmousedown("307","1",evt);' onmouseover='segmouseover("307","1",evt);' onmouseout='segmouseout("307","1",evt);' onclick='segclick("307","1",evt);'/></g></g></g><g id="308"><path style="stroke:#bdbddf; stroke-width:8px; fill:none;" opacity="0.7" d="M 382,350 H 406 a 12,12 0 0,0 12,-12L 418,295"/><g><path style="stroke:#ff0; stroke-width:8px; fill:none; " opacity="0" d="M 382,350 H 406 a 12,12 0 0,0 12,-12L 418,295"/></g><path style="stroke:black; fill:none;" d="M 382,350 H 406 a 12,12 0 0,0 12,-12L 418,295"/><g><g><path style="stroke:#0ff; stroke-width:8px; fill:none; " opacity="0" d="M 382,350 L 418,350" onmousedown='segmousedown("308","0",evt);' onmouseover='segmouseover("308","0",evt);' onmouseout='segmouseout("308","0",evt);' onclick='segclick("308","0",evt);'/><path style="stroke:#0ff; stroke-width:8px; fill:none; " opacity="0" d="M 418,350 L 418,295" onmousedown='segmousedown("308","1",evt);' onmouseover='segmouseover("308","1",evt);' onmouseout='segmouseout("308","1",evt);' onclick='segclick("308","1",evt);'/></g></g></g><g id="309"><path style="stroke:#bdbddf; stroke-width:8px; fill:none;" opacity="0.7" d="M 418,265 V 230 a 12,12 0 0,0 -12,-12L 382,218"/><g><path style="stroke:#ff0; stroke-width:8px; fill:none; " opacity="0" d="M 418,265 V 230 a 12,12 0 0,0 -12,-12L 382,218"/></g><path style="stroke:black; fill:none;" d="M 418,265 V 230 a 12,12 0 0,0 -12,-12L 382,218"/><g><g><path style="stroke:#0ff; stroke-width:8px; fill:none; " opacity="0" d="M 418,265 L 418,218" onmousedown='segmousedown("309","0",evt);' onmouseover='segmouseover("309","0",evt);' onmouseout='segmouseout("309","0",evt);' onclick='segclick("309","0",evt);'/><path style="stroke:#0ff; stroke-width:8px; fill:none; " opacity="0" d="M 418,218 L 382,218" onmousedown='segmousedown("309","1",evt);' onmouseover='segmouseover("309","1",evt);' onmouseout='segmouseout("309","1",evt);' onclick='segclick("309","1",evt);'/></g></g></g><g id="310"><path style="stroke:#bdbddf; stroke-width:8px; fill:none;" opacity="0.7" d="M 352,218L 324,218"/><g><path style="stroke:#ff0; stroke-width:8px; fill:none; " opacity="0" d="M 352,218L 324,218"/></g><path style="stroke:black; fill:none;" d="M 352,218L 324,218"/><g><g><path style="stroke:#0ff; stroke-width:8px; fill:none; " opacity="0" d="M 352,218 L 324,218" onmousedown='segmousedown("310","0",evt);' onmouseover='segmouseover("310","0",evt);' onmouseout='segmouseout("310","0",evt);' onclick='segclick("310","0",evt);'/></g></g></g><g id="311"><path style="stroke:#bdbddf; stroke-width:8px; fill:none;" opacity="0.7" d="M 361,233L 361,269"/><g><path style="stroke:#ff0; stroke-width:8px; fill:none; " opacity="0" d="M 361,233L 361,269"/></g><path style="stroke:black; fill:none;" d="M 361,233L 361,269"/><g><g><path style="stroke:#0ff; stroke-width:8px; fill:none; " opacity="0" d="M 361,233 L 361,269" onmousedown='segmousedown("311","0",evt);' onmouseover='segmouseover("311","0",evt);' onmouseout='segmouseout("311","0",evt);' onclick='segclick("311","0",evt);'/></g></g></g><g id="312"><path style="stroke:#bdbddf; stroke-width:8px; fill:none;" opacity="0.7" d="M 179,223L 145,223"/><g><path style="stroke:#ff0; stroke-width:8px; fill:none; " opacity="0" d="M 179,223L 145,223"/></g><path style="stroke:black; fill:none;" d="M 179,223L 145,223"/><g><g><path style="stroke:#0ff; stroke-width:8px; fill:none; " opacity="0" d="M 179,223 L 145,223" onmousedown='segmousedown("312","0",evt);' onmouseover='segmouseover("312","0",evt);' onmouseout='segmouseout("312","0",evt);' onclick='segclick("312","0",evt);'/></g></g></g><g id="313"><path style="stroke:#bdbddf; stroke-width:8px; fill:none;" opacity="0.7" d="M 115,219L 93,219"/><g><path style="stroke:#ff0; stroke-width:8px; fill:none; " opacity="0" d="M 115,219L 93,219"/></g><path style="stroke:black; fill:none;" d="M 115,219L 93,219"/><g><g><path style="stroke:#0ff; stroke-width:8px; fill:none; " opacity="0" d="M 115,219 L 93,219" onmousedown='segmousedown("313","0",evt);' onmouseover='segmouseover("313","0",evt);' onmouseout='segmouseout("313","0",evt);' onclick='segclick("313","0",evt);'/></g></g></g><g id="314"><path style="stroke:#bdbddf; stroke-width:8px; fill:none;" opacity="0.7" d="M 194,232L 194,262"/><g><path style="stroke:#ff0; stroke-width:8px; fill:none; " opacity="0" d="M 194,232L 194,262"/></g><path style="stroke:black; fill:none;" d="M 194,232L 194,262"/><g><g><path style="stroke:#0ff; stroke-width:8px; fill:none; " opacity="0" d="M 194,232 L 194,262" onmousedown='segmousedown("314","0",evt);' onmouseover='segmouseover("314","0",evt);' onmouseout='segmouseout("314","0",evt);' onclick='segclick("314","0",evt);'/></g></g></g><g id="315"><path style="stroke:#bdbddf; stroke-width:8px; fill:none;" opacity="0.7" d="M 238,217L 209,217"/><g><path style="stroke:#ff0; stroke-width:8px; fill:none; " opacity="0" d="M 238,217L 209,217"/></g><path style="stroke:black; fill:none;" d="M 238,217L 209,217"/><g><g><path style="stroke:#0ff; stroke-width:8px; fill:none; " opacity="0" d="M 238,217 L 209,217" onmousedown='segmousedown("315","0",evt);' onmouseover='segmouseover("315","0",evt);' onmouseout='segmouseout("315","0",evt);' onclick='segclick("315","0",evt);'/></g></g></g><g id="316"><path style="stroke:#bdbddf; stroke-width:8px; fill:none;" opacity="0.7" d="M 362,299L 362,335"/><g><path style="stroke:#ff0; stroke-width:8px; fill:none; " opacity="0" d="M 362,299L 362,335"/></g><path style="stroke:black; fill:none;" d="M 362,299L 362,335"/><g><g><path style="stroke:#0ff; stroke-width:8px; fill:none; " opacity="0" d="M 362,299 L 362,335" onmousedown='segmousedown("316","0",evt);' onmouseover='segmouseover("316","0",evt);' onmouseout='segmouseout("316","0",evt);' onclick='segclick("316","0",evt);'/></g></g></g><g id="317"><path style="stroke:#bdbddf; stroke-width:8px; fill:none;" opacity="0.7" d="M 130,238L 130,262"/><g><path style="stroke:#ff0; stroke-width:8px; fill:none; " opacity="0" d="M 130,238L 130,262"/></g><path style="stroke:black; fill:none;" d="M 130,238L 130,262"/><g><g><path style="stroke:#0ff; stroke-width:8px; fill:none; " opacity="0" d="M 130,238 L 130,262" onmousedown='segmousedown("317","0",evt);' onmouseover='segmouseover("317","0",evt);' onmouseout='segmouseout("317","0",evt);' onclick='segclick("317","0",evt);'/></g></g></g></g>
  <g id="nodes"><g id="304" onmousedown="nodemousedown(304,evt);" onmouseover="nodemouseover(304,evt);" onmouseout="nodemouseout(304,evt);" transform="translate(128,277)"><rect x="-21" y="-21" width="42" height="42" fill="#0ff" style="stroke:none; opacity:0.75;" display="none"/><rect x="-15" y="-15" width="30" height="30" fill="#f0f0d2" style="stroke:black; opacity:1;"/></g><g id="301" onmousedown="nodemousedown(301,evt);" onmouseover="nodemouseover(301,evt);" onmouseout="nodemouseout(301,evt);" transform="translate(194,277)"><rect x="-21" y="-21" width="42" height="42" fill="#0ff" style="stroke:none; opacity:0.75;" display="none"/><rect x="-15" y="-15" width="30" height="30" fill="#f0f0d2" style="stroke:black; opacity:1;"/></g><g id="302" onmousedown="nodemousedown(302,evt);" onmouseover="nodemouseover(302,evt);" onmouseout="nodemouseout(302,evt);" transform="translate(130,223)"><rect x="-21" y="-21" width="42" height="42" fill="#0ff" style="stroke:none; opacity:0.75;" display="none"/><rect x="-15" y="-15" width="30" height="30" fill="#f0f0d2" style="stroke:black; opacity:1;"/></g><g id="303" onmousedown="nodemousedown(303,evt);" onmouseover="nodemouseover(303,evt);" onmouseout="nodemouseout(303,evt);" transform="translate(78,219)"><rect x="-21" y="-21" width="42" height="42" fill="#0ff" style="stroke:none; opacity:0.75;" display="none"/><rect x="-15" y="-15" width="30" height="30" fill="#f0f0d2" style="stroke:black; opacity:1;"/></g><g id="300" onmousedown="nodemousedown(300,evt);" onmouseover="nodemouseover(300,evt);" onmouseout="nodemouseout(300,evt);" transform="translate(194,217)"><rect x="-21" y="-21" width="42" height="42" fill="#0ff" style="stroke:none; opacity:0.75;" display="none"/><rect x="-15" y="-15" width="30" height="30" fill="#f0f0d2" style="stroke:black; opacity:1;"/></g><g id="294" onmousedown="nodemousedown(294,evt);" onmouseover="nodemouseover(294,evt);" onmouseout="nodemouseout(294,evt);" transform="translate(253,218)"><rect x="-21" y="-21" width="42" height="42" fill="#0ff" style="stroke:none; opacity:0.75;" display="none"/><rect x="-15" y="-15" width="30" height="30" fill="#f0f0d2" style="stroke:black; opacity:1;"/></g><g id="296" onmousedown="nodemousedown(296,evt);" onmouseover="nodemouseover(296,evt);" onmouseout="nodemouseout(296,evt);" transform="translate(253,278)"><rect x="-21" y="-21" width="42" height="42" fill="#0ff" style="stroke:none; opacity:0.75;" display="none"/><rect x="-15" y="-15" width="30" height="30" fill="#f0f0d2" style="stroke:black; opacity:1;"/></g><g id="293" onmousedown="nodemousedown(293,evt);" onmouseover="nodemouseover(293,evt);" onmouseout="nodemouseout(293,evt);" transform="translate(309,218)"><rect x="-21" y="-21" width="42" height="42" fill="#0ff" style="stroke:none; opacity:0.75;" display="none"/><rect x="-15" y="-15" width="30" height="30" fill="#f0f0d2" style="stroke:black; opacity:1;"/></g><g id="298" onmousedown="nodemousedown(298,evt);" onmouseover="nodemouseover(298,evt);" onmouseout="nodemouseout(298,evt);" transform="translate(361,284)"><rect x="-21" y="-21" width="42" height="42" fill="#0ff" style="stroke:none; opacity:0.75;" display="none"/><rect x="-15" y="-15" width="30" height="30" fill="#f0f0d2" style="stroke:black; opacity:1;"/></g><g id="297" onmousedown="nodemousedown(297,evt);" onmouseover="nodemouseover(297,evt);" onmouseout="nodemouseout(297,evt);" transform="translate(367,218)"><rect x="-21" y="-21" width="42" height="42" fill="#0ff" style="stroke:none; opacity:0.75;" display="none"/><rect x="-15" y="-15" width="30" height="30" fill="#f0f0d2" style="stroke:black; opacity:1;"/></g><g id="299" onmousedown="nodemousedown(299,evt);" onmouseover="nodemouseover(299,evt);" onmouseout="nodemouseout(299,evt);" transform="translate(367,350)"><rect x="-21" y="-21" width="42" height="42" fill="#0ff" style="stroke:none; opacity:0.75;" display="none"/><rect x="-15" y="-15" width="30" height="30" fill="#f0f0d2" style="stroke:black; opacity:1;"/></g><g id="295" onmousedown="nodemousedown(295,evt);" onmouseover="nodemouseover(295,evt);" onmouseout="nodemouseout(295,evt);" transform="translate(418,280)"><rect x="-21" y="-21" width="42" height="42" fill="#0ff" style="stroke:none; opacity:0.75;" display="none"/><rect x="-15" y="-15" width="30" height="30" fill="#f0f0d2" style="stroke:black; opacity:1;"/></g></g>
  <g id="BPs"><g onmousedown="bpmousedown(408,evt);" onmouseover="bpmouseover(408,evt);" onmouseout="bpmouseout(408,evt);" transform="translate(418,218)" opacity="0"><ellipse cx="0" cy="0" rx="16" ry="16" fill="#0ff" style="stroke:none; opacity:0.75;" display="none"/><ellipse cx="0" cy="0" rx="7.786880000000001" ry="7.786880000000001" fill="#777" style="stroke:black;"/></g><g onmousedown="bpmousedown(419,evt);" onmouseover="bpmouseover(419,evt);" onmouseout="bpmouseout(419,evt);" transform="translate(418,350)" opacity="0"><ellipse cx="0" cy="0" rx="16" ry="16" fill="#0ff" style="stroke:none; opacity:0.75;" display="none"/><ellipse cx="0" cy="0" rx="7.786880000000001" ry="7.786880000000001" fill="#777" style="stroke:black;"/></g><g onmousedown="bpmousedown(421,evt);" onmouseover="bpmouseover(421,evt);" onmouseout="bpmouseout(421,evt);" transform="translate(253,350)" opacity="0"><ellipse cx="0" cy="0" rx="16" ry="16" fill="#0ff" style="stroke:none; opacity:0.75;" display="none"/><ellipse cx="0" cy="0" rx="7.786880000000001" ry="7.786880000000001" fill="#777" style="stroke:black;"/></g></g>
  <g id="ports"/>
</g>
</svg>
