<svg id="SVGCanvas" width="300px" height="169px" xmlns="http://www.w3.org/2000/svg" xmlns:xlink="http://www.w3.org/1999/xlink">
<rect id="background" x="0" y="0" height="100%" width="100%" fill="#bdbddf" onmousedown="bgmousedown(evt)"></rect>
<g id="foreground" transform="scale(0.625),translate(122.6086956521739,0),scale(1.2356979405034325),translate(15,38.5)">
  <g id="edges"><g id="4"><path style="stroke:#bdbddf; stroke-width:8px; fill:none;" opacity="0.7" d="M 100,75L 100,150"></path><g><path style="stroke:#ff0; stroke-width:8px; fill:none; " opacity="0" d="M 100,75L 100,150"></path></g><path style="stroke:black; fill:none;" d="M 100,75L 100,150"></path><g><g><path style="stroke:#0ff; stroke-width:8px; fill:none; " opacity="0" d="M 100,75 L 100,150" onmousedown="segmousedown(&quot;4&quot;,&quot;0&quot;,evt);" onmouseover="segmouseover(&quot;4&quot;,&quot;0&quot;,evt);" onmouseout="segmouseout(&quot;4&quot;,&quot;0&quot;,evt);" onclick="segclick(&quot;4&quot;,&quot;0&quot;,evt);"></path></g></g></g><g id="5"><path style="stroke:#bdbddf; stroke-width:8px; fill:none;" opacity="0.7" d="M 100,75L 100,0"></path><g><path style="stroke:#ff0; stroke-width:8px; fill:none; " opacity="0" d="M 100,75L 100,0"></path></g><path style="stroke:black; fill:none;" d="M 100,75L 100,0"></path><g><g><path style="stroke:#0ff; stroke-width:8px; fill:none; " opacity="0" d="M 100,75 L 100,0" onmousedown="segmousedown(&quot;5&quot;,&quot;0&quot;,evt);" onmouseover="segmouseover(&quot;5&quot;,&quot;0&quot;,evt);" onmouseout="segmouseout(&quot;5&quot;,&quot;0&quot;,evt);" onclick="segclick(&quot;5&quot;,&quot;0&quot;,evt);"></path></g></g></g><g id="6"><path style="stroke:#bdbddf; stroke-width:8px; fill:none;" opacity="0.7" d="M 25,75L 100,75"></path><g><path style="stroke:#ff0; stroke-width:8px; fill:none; " opacity="0" d="M 25,75L 100,75"></path></g><path style="stroke:black; fill:none;" d="M 25,75L 100,75"></path><g><g><path style="stroke:#0ff; stroke-width:8px; fill:none; " opacity="0" d="M 25,75 L 100,75" onmousedown="segmousedown(&quot;6&quot;,&quot;0&quot;,evt);" onmouseover="segmouseover(&quot;6&quot;,&quot;0&quot;,evt);" onmouseout="segmouseout(&quot;6&quot;,&quot;0&quot;,evt);" onclick="segclick(&quot;6&quot;,&quot;0&quot;,evt);"></path></g></g></g><g id="7"><path style="stroke:#bdbddf; stroke-width:8px; fill:none;" opacity="0.7" d="M 100,0 H 138 a 12,12 0 0,1 12,12 V 138 a 12,12 0 0,1 -12,12L 100,150"></path><g><path style="stroke:#ff0; stroke-width:8px; fill:none; " opacity="0" d="M 100,0 H 138 a 12,12 0 0,1 12,12 V 138 a 12,12 0 0,1 -12,12L 100,150"></path></g><path style="stroke:black; fill:none;" d="M 100,0 H 138 a 12,12 0 0,1 12,12 V 138 a 12,12 0 0,1 -12,12L 100,150"></path><g><g><path style="stroke:#0ff; stroke-width:8px; fill:none; " opacity="0" d="M 100,0 L 150,0" onmousedown="segmousedown(&quot;7&quot;,&quot;0&quot;,evt);" onmouseover="segmouseover(&quot;7&quot;,&quot;0&quot;,evt);" onmouseout="segmouseout(&quot;7&quot;,&quot;0&quot;,evt);" onclick="segclick(&quot;7&quot;,&quot;0&quot;,evt);"></path><path style="stroke:#0ff; stroke-width:8px; fill:none; " opacity="0" d="M 150,0 L 150,150" onmousedown="segmousedown(&quot;7&quot;,&quot;1&quot;,evt);" onmouseover="segmouseover(&quot;7&quot;,&quot;1&quot;,evt);" onmouseout="segmouseout(&quot;7&quot;,&quot;1&quot;,evt);" onclick="segclick(&quot;7&quot;,&quot;1&quot;,evt);"></path><path style="stroke:#0ff; stroke-width:8px; fill:none; " opacity="0" d="M 150,150 L 100,150" onmousedown="segmousedown(&quot;7&quot;,&quot;2&quot;,evt);" onmouseover="segmouseover(&quot;7&quot;,&quot;2&quot;,evt);" onmouseout="segmouseout(&quot;7&quot;,&quot;2&quot;,evt);" onclick="segclick(&quot;7&quot;,&quot;2&quot;,evt);"></path></g></g></g><g id="8"><path style="stroke:#bdbddf; stroke-width:8px; fill:none;" opacity="0.7" d="M 25,75 V 12 a 12,12 0 0,1 12,-12L 100,0"></path><g><path style="stroke:#ff0; stroke-width:8px; fill:none; " opacity="0" d="M 25,75 V 12 a 12,12 0 0,1 12,-12L 100,0"></path></g><path style="stroke:black; fill:none;" d="M 25,75 V 12 a 12,12 0 0,1 12,-12L 100,0"></path><g><g><path style="stroke:#0ff; stroke-width:8px; fill:none; " opacity="0" d="M 25,75 L 25,0" onmousedown="segmousedown(&quot;8&quot;,&quot;0&quot;,evt);" onmouseover="segmouseover(&quot;8&quot;,&quot;0&quot;,evt);" onmouseout="segmouseout(&quot;8&quot;,&quot;0&quot;,evt);" onclick="segclick(&quot;8&quot;,&quot;0&quot;,evt);"></path><path style="stroke:#0ff; stroke-width:8px; fill:none; " opacity="0" d="M 25,0 L 100,0" onmousedown="segmousedown(&quot;8&quot;,&quot;1&quot;,evt);" onmouseover="segmouseover(&quot;8&quot;,&quot;1&quot;,evt);" onmouseout="segmouseout(&quot;8&quot;,&quot;1&quot;,evt);" onclick="segclick(&quot;8&quot;,&quot;1&quot;,evt);"></path></g></g></g><g id="9"><path style="stroke:#bdbddf; stroke-width:8px; fill:none;" opacity="0.7" d="M 100,150 H 37 a 12,12 0 0,1 -12,-12L 25,75"></path><g><path style="stroke:#ff0; stroke-width:8px; fill:none; " opacity="0" d="M 100,150 H 37 a 12,12 0 0,1 -12,-12L 25,75"></path></g><path style="stroke:black; fill:none;" d="M 100,150 H 37 a 12,12 0 0,1 -12,-12L 25,75"></path><g><g><path style="stroke:#0ff; stroke-width:8px; fill:none; " opacity="0" d="M 100,150 L 25,150" onmousedown="segmousedown(&quot;9&quot;,&quot;0&quot;,evt);" onmouseover="segmouseover(&quot;9&quot;,&quot;0&quot;,evt);" onmouseout="segmouseout(&quot;9&quot;,&quot;0&quot;,evt);" onclick="segclick(&quot;9&quot;,&quot;0&quot;,evt);"></path><path style="stroke:#0ff; stroke-width:8px; fill:none; " opacity="0" d="M 25,150 L 25,75" onmousedown="segmousedown(&quot;9&quot;,&quot;1&quot;,evt);" onmouseover="segmouseover(&quot;9&quot;,&quot;1&quot;,evt);" onmouseout="segmouseout(&quot;9&quot;,&quot;1&quot;,evt);" onclick="segclick(&quot;9&quot;,&quot;1&quot;,evt);"></path></g></g></g></g>
  <g id="nodes"><g id="0" onmousedown="nodemousedown(0,evt);" onmouseover="nodemouseover(0,evt);" onmouseout="nodemouseout(0,evt);" transform="translate(25 75)"><rect x="-31" y="-21" width="62" height="42" fill="#0ff" style="stroke:none; opacity:0.75;" display="none"></rect><rect x="-25" y="-15" width="50" height="30" fill="#f0f0d2" style="stroke:black; opacity:1;"></rect></g><g id="1" onmousedown="nodemousedown(1,evt);" onmouseover="nodemouseover(1,evt);" onmouseout="nodemouseout(1,evt);" transform="translate(100 0)"><rect x="-21" y="-29.5" width="42" height="59" fill="#0ff" style="stroke:none; opacity:0.75;" display="none"></rect><rect x="-15" y="-23.5" width="30" height="47" fill="#f0f0d2" style="stroke:black; opacity:1;"></rect></g><g id="2" onmousedown="nodemousedown(2,evt);" onmouseover="nodemouseover(2,evt);" onmouseout="nodemouseout(2,evt);" transform="translate(100 150)"><rect x="-21" y="-21" width="42" height="42" fill="#0ff" style="stroke:none; opacity:0.75;" display="none"></rect><rect x="-15" y="-15" width="30" height="30" fill="#f0f0d2" style="stroke:black; opacity:1;"></rect></g><g id="3" onmousedown="nodemousedown(3,evt);" onmouseover="nodemouseover(3,evt);" onmouseout="nodemouseout(3,evt);" transform="translate(100 75)"><rect x="-21" y="-21" width="42" height="42" fill="#0ff" style="stroke:none; opacity:0.75;" display="none"></rect><rect x="-15" y="-15" width="30" height="30" fill="#f0f0d2" style="stroke:black; opacity:1;"></rect></g></g>
  <g id="BPs"><g onmousedown="bpmousedown(18,evt);" onmouseover="bpmouseover(18,evt);" onmouseout="bpmouseout(18,evt);" transform="translate(150 0)" opacity="0"><ellipse cx="0" cy="0" rx="16" ry="16" fill="#0ff" style="stroke:none; opacity:0.75;" display="none"></ellipse><ellipse cx="0" cy="0" rx="10" ry="10" fill="#777" style="stroke:black;"></ellipse></g><g onmousedown="bpmousedown(19,evt);" onmouseover="bpmouseover(19,evt);" onmouseout="bpmouseout(19,evt);" transform="translate(150 150)" opacity="0"><ellipse cx="0" cy="0" rx="16" ry="16" fill="#0ff" style="stroke:none; opacity:0.75;" display="none"></ellipse><ellipse cx="0" cy="0" rx="10" ry="10" fill="#777" style="stroke:black;"></ellipse></g><g onmousedown="bpmousedown(22,evt);" onmouseover="bpmouseover(22,evt);" onmouseout="bpmouseout(22,evt);" transform="translate(25 0)" opacity="0"><ellipse cx="0" cy="0" rx="16" ry="16" fill="#0ff" style="stroke:none; opacity:0.75;" display="none"></ellipse><ellipse cx="0" cy="0" rx="10" ry="10" fill="#777" style="stroke:black;"></ellipse></g><g onmousedown="bpmousedown(25,evt);" onmouseover="bpmouseover(25,evt);" onmouseout="bpmouseout(25,evt);" transform="translate(25 150)" opacity="0"><ellipse cx="0" cy="0" rx="16" ry="16" fill="#0ff" style="stroke:none; opacity:0.75;" display="none"></ellipse><ellipse cx="0" cy="0" rx="10" ry="10" fill="#777" style="stroke:black;"></ellipse></g></g>
  <g id="ports"></g>
</g>
</svg>
