<svg id="SVGCanvas" width="300px" height="169px" xmlns="http://www.w3.org/2000/svg" xmlns:xlink="http://www.w3.org/1999/xlink">
<rect id="background" x="0" y="0" height="100%" width="100%" fill="#bdbddf" onmousedown="bgmousedown(evt)"></rect>
<g id="foreground" transform="scale(0.625),translate(182.58620689655172,0),scale(0.6206896551724138),translate(30,30)">
  <g id="edges"><g id="12"><path style="stroke:#bdbddf; stroke-width:8px; fill:none;" opacity="0.7" d="M 0,150L 0,0"></path><g><path style="stroke:#ff0; stroke-width:8px; fill:none; " opacity="0" d="M 0,150L 0,0"></path></g><path style="stroke:black; fill:none;" d="M 0,150L 0,0"></path><g><g><path style="stroke:#0ff; stroke-width:8px; fill:none; " opacity="0" d="M 0,150 L 0,0" onmousedown="segmousedown(&quot;12&quot;,&quot;0&quot;,evt);" onmouseover="segmouseover(&quot;12&quot;,&quot;0&quot;,evt);" onmouseout="segmouseout(&quot;12&quot;,&quot;0&quot;,evt);" onclick="segclick(&quot;12&quot;,&quot;0&quot;,evt);"></path></g></g></g><g id="13"><path style="stroke:#bdbddf; stroke-width:8px; fill:none;" opacity="0.7" d="M 75,225L 0,225"></path><g><path style="stroke:#ff0; stroke-width:8px; fill:none; " opacity="0" d="M 75,225L 0,225"></path></g><path style="stroke:black; fill:none;" d="M 75,225L 0,225"></path><g><g><path style="stroke:#0ff; stroke-width:8px; fill:none; " opacity="0" d="M 75,225 L 0,225" onmousedown="segmousedown(&quot;13&quot;,&quot;0&quot;,evt);" onmouseover="segmouseover(&quot;13&quot;,&quot;0&quot;,evt);" onmouseout="segmouseout(&quot;13&quot;,&quot;0&quot;,evt);" onclick="segclick(&quot;13&quot;,&quot;0&quot;,evt);"></path></g></g></g><g id="14"><path style="stroke:#bdbddf; stroke-width:8px; fill:none;" opacity="0.7" d="M 125,0L 125,75"></path><g><path style="stroke:#ff0; stroke-width:8px; fill:none; " opacity="0" d="M 125,0L 125,75"></path></g><path style="stroke:black; fill:none;" d="M 125,0L 125,75"></path><g><g><path style="stroke:#0ff; stroke-width:8px; fill:none; " opacity="0" d="M 125,0 L 125,75" onmousedown="segmousedown(&quot;14&quot;,&quot;0&quot;,evt);" onmouseover="segmouseover(&quot;14&quot;,&quot;0&quot;,evt);" onmouseout="segmouseout(&quot;14&quot;,&quot;0&quot;,evt);" onclick="segclick(&quot;14&quot;,&quot;0&quot;,evt);"></path></g></g></g><g id="15"><path style="stroke:#bdbddf; stroke-width:8px; fill:none;" opacity="0.7" d="M 0,0L 125,0"></path><g><path style="stroke:#ff0; stroke-width:8px; fill:none; " opacity="0" d="M 0,0L 125,0"></path></g><path style="stroke:black; fill:none;" d="M 0,0L 125,0"></path><g><g><path style="stroke:#0ff; stroke-width:8px; fill:none; " opacity="0" d="M 0,0 L 125,0" onmousedown="segmousedown(&quot;15&quot;,&quot;0&quot;,evt);" onmouseover="segmouseover(&quot;15&quot;,&quot;0&quot;,evt);" onmouseout="segmouseout(&quot;15&quot;,&quot;0&quot;,evt);" onclick="segclick(&quot;15&quot;,&quot;0&quot;,evt);"></path></g></g></g><g id="16"><path style="stroke:#bdbddf; stroke-width:8px; fill:none;" opacity="0.7" d="M 0,225L 0,150"></path><g><path style="stroke:#ff0; stroke-width:8px; fill:none; " opacity="0" d="M 0,225L 0,150"></path></g><path style="stroke:black; fill:none;" d="M 0,225L 0,150"></path><g><g><path style="stroke:#0ff; stroke-width:8px; fill:none; " opacity="0" d="M 0,225 L 0,150" onmousedown="segmousedown(&quot;16&quot;,&quot;0&quot;,evt);" onmouseover="segmouseover(&quot;16&quot;,&quot;0&quot;,evt);" onmouseout="segmouseout(&quot;16&quot;,&quot;0&quot;,evt);" onclick="segclick(&quot;16&quot;,&quot;0&quot;,evt);"></path></g></g></g><g id="17"><path style="stroke:#bdbddf; stroke-width:8px; fill:none;" opacity="0.7" d="M 75,150L 75,225"></path><g><path style="stroke:#ff0; stroke-width:8px; fill:none; " opacity="0" d="M 75,150L 75,225"></path></g><path style="stroke:black; fill:none;" d="M 75,150L 75,225"></path><g><g><path style="stroke:#0ff; stroke-width:8px; fill:none; " opacity="0" d="M 75,150 L 75,225" onmousedown="segmousedown(&quot;17&quot;,&quot;0&quot;,evt);" onmouseover="segmouseover(&quot;17&quot;,&quot;0&quot;,evt);" onmouseout="segmouseout(&quot;17&quot;,&quot;0&quot;,evt);" onclick="segclick(&quot;17&quot;,&quot;0&quot;,evt);"></path></g></g></g><g id="18"><path style="stroke:#bdbddf; stroke-width:8px; fill:none;" opacity="0.7" d="M 0,150L 75,150"></path><g><path style="stroke:#ff0; stroke-width:8px; fill:none; " opacity="0" d="M 0,150L 75,150"></path></g><path style="stroke:black; fill:none;" d="M 0,150L 75,150"></path><g><g><path style="stroke:#0ff; stroke-width:8px; fill:none; " opacity="0" d="M 0,150 L 75,150" onmousedown="segmousedown(&quot;18&quot;,&quot;0&quot;,evt);" onmouseover="segmouseover(&quot;18&quot;,&quot;0&quot;,evt);" onmouseout="segmouseout(&quot;18&quot;,&quot;0&quot;,evt);" onclick="segclick(&quot;18&quot;,&quot;0&quot;,evt);"></path></g></g></g><g id="19"><path style="stroke:#bdbddf; stroke-width:8px; fill:none;" opacity="0.7" d="M 75,300L 0,300"></path><g><path style="stroke:#ff0; stroke-width:8px; fill:none; " opacity="0" d="M 75,300L 0,300"></path></g><path style="stroke:black; fill:none;" d="M 75,300L 0,300"></path><g><g><path style="stroke:#0ff; stroke-width:8px; fill:none; " opacity="0" d="M 75,300 L 0,300" onmousedown="segmousedown(&quot;19&quot;,&quot;0&quot;,evt);" onmouseover="segmouseover(&quot;19&quot;,&quot;0&quot;,evt);" onmouseout="segmouseout(&quot;19&quot;,&quot;0&quot;,evt);" onclick="segclick(&quot;19&quot;,&quot;0&quot;,evt);"></path></g></g></g><g id="20"><path style="stroke:#bdbddf; stroke-width:8px; fill:none;" opacity="0.7" d="M 75,300L 75,375"></path><g><path style="stroke:#ff0; stroke-width:8px; fill:none; " opacity="0" d="M 75,300L 75,375"></path></g><path style="stroke:black; fill:none;" d="M 75,300L 75,375"></path><g><g><path style="stroke:#0ff; stroke-width:8px; fill:none; " opacity="0" d="M 75,300 L 75,375" onmousedown="segmousedown(&quot;20&quot;,&quot;0&quot;,evt);" onmouseover="segmouseover(&quot;20&quot;,&quot;0&quot;,evt);" onmouseout="segmouseout(&quot;20&quot;,&quot;0&quot;,evt);" onclick="segclick(&quot;20&quot;,&quot;0&quot;,evt);"></path></g></g></g><g id="21"><path style="stroke:#bdbddf; stroke-width:8px; fill:none;" opacity="0.7" d="M 75,375L 0,375"></path><g><path style="stroke:#ff0; stroke-width:8px; fill:none; " opacity="0" d="M 75,375L 0,375"></path></g><path style="stroke:black; fill:none;" d="M 75,375L 0,375"></path><g><g><path style="stroke:#0ff; stroke-width:8px; fill:none; " opacity="0" d="M 75,375 L 0,375" onmousedown="segmousedown(&quot;21&quot;,&quot;0&quot;,evt);" onmouseover="segmouseover(&quot;21&quot;,&quot;0&quot;,evt);" onmouseout="segmouseout(&quot;21&quot;,&quot;0&quot;,evt);" onclick="segclick(&quot;21&quot;,&quot;0&quot;,evt);"></path></g></g></g><g id="22"><path style="stroke:#bdbddf; stroke-width:8px; fill:none;" opacity="0.7" d="M 75,225L 75,300"></path><g><path style="stroke:#ff0; stroke-width:8px; fill:none; " opacity="0" d="M 75,225L 75,300"></path></g><path style="stroke:black; fill:none;" d="M 75,225L 75,300"></path><g><g><path style="stroke:#0ff; stroke-width:8px; fill:none; " opacity="0" d="M 75,225 L 75,300" onmousedown="segmousedown(&quot;22&quot;,&quot;0&quot;,evt);" onmouseover="segmouseover(&quot;22&quot;,&quot;0&quot;,evt);" onmouseout="segmouseout(&quot;22&quot;,&quot;0&quot;,evt);" onclick="segclick(&quot;22&quot;,&quot;0&quot;,evt);"></path></g></g></g><g id="23"><path style="stroke:#bdbddf; stroke-width:8px; fill:none;" opacity="0.7" d="M 125,75L 50,75"></path><g><path style="stroke:#ff0; stroke-width:8px; fill:none; " opacity="0" d="M 125,75L 50,75"></path></g><path style="stroke:black; fill:none;" d="M 125,75L 50,75"></path><g><g><path style="stroke:#0ff; stroke-width:8px; fill:none; " opacity="0" d="M 125,75 L 50,75" onmousedown="segmousedown(&quot;23&quot;,&quot;0&quot;,evt);" onmouseover="segmouseover(&quot;23&quot;,&quot;0&quot;,evt);" onmouseout="segmouseout(&quot;23&quot;,&quot;0&quot;,evt);" onclick="segclick(&quot;23&quot;,&quot;0&quot;,evt);"></path></g></g></g></g>
  <g id="nodes"><g id="0" onmousedown="nodemousedown(0,evt);" onmouseover="nodemouseover(0,evt);" onmouseout="nodemouseout(0,evt);" transform="translate(0 375)"><rect x="-21" y="-21" width="42" height="42" fill="#0ff" style="stroke:none; opacity:0.75;" display="none"></rect><rect x="-15" y="-15" width="30" height="30" fill="#f0f0d2" style="stroke:black; opacity:1;"></rect></g><g id="1" onmousedown="nodemousedown(1,evt);" onmouseover="nodemouseover(1,evt);" onmouseout="nodemouseout(1,evt);" transform="translate(0 300)"><rect x="-21" y="-21" width="42" height="42" fill="#0ff" style="stroke:none; opacity:0.75;" display="none"></rect><rect x="-15" y="-15" width="30" height="30" fill="#f0f0d2" style="stroke:black; opacity:1;"></rect></g><g id="2" onmousedown="nodemousedown(2,evt);" onmouseover="nodemouseover(2,evt);" onmouseout="nodemouseout(2,evt);" transform="translate(75 375)"><rect x="-21" y="-21" width="42" height="42" fill="#0ff" style="stroke:none; opacity:0.75;" display="none"></rect><rect x="-15" y="-15" width="30" height="30" fill="#f0f0d2" style="stroke:black; opacity:1;"></rect></g><g id="3" onmousedown="nodemousedown(3,evt);" onmouseover="nodemouseover(3,evt);" onmouseout="nodemouseout(3,evt);" transform="translate(75 225)"><rect x="-21" y="-21" width="42" height="42" fill="#0ff" style="stroke:none; opacity:0.75;" display="none"></rect><rect x="-15" y="-15" width="30" height="30" fill="#f0f0d2" style="stroke:black; opacity:1;"></rect></g><g id="4" onmousedown="nodemousedown(4,evt);" onmouseover="nodemouseover(4,evt);" onmouseout="nodemouseout(4,evt);" transform="translate(125 0)"><rect x="-21" y="-21" width="42" height="42" fill="#0ff" style="stroke:none; opacity:0.75;" display="none"></rect><rect x="-15" y="-15" width="30" height="30" fill="#f0f0d2" style="stroke:black; opacity:1;"></rect></g><g id="5" onmousedown="nodemousedown(5,evt);" onmouseover="nodemouseover(5,evt);" onmouseout="nodemouseout(5,evt);" transform="translate(125 75)"><rect x="-21" y="-21" width="42" height="42" fill="#0ff" style="stroke:none; opacity:0.75;" display="none"></rect><rect x="-15" y="-15" width="30" height="30" fill="#f0f0d2" style="stroke:black; opacity:1;"></rect></g><g id="6" onmousedown="nodemousedown(6,evt);" onmouseover="nodemouseover(6,evt);" onmouseout="nodemouseout(6,evt);" transform="translate(50 75)"><rect x="-21" y="-21" width="42" height="42" fill="#0ff" style="stroke:none; opacity:0.75;" display="none"></rect><rect x="-15" y="-15" width="30" height="30" fill="#f0f0d2" style="stroke:black; opacity:1;"></rect></g><g id="7" onmousedown="nodemousedown(7,evt);" onmouseover="nodemouseover(7,evt);" onmouseout="nodemouseout(7,evt);" transform="translate(75 300)"><rect x="-21" y="-21" width="42" height="42" fill="#0ff" style="stroke:none; opacity:0.75;" display="none"></rect><rect x="-15" y="-15" width="30" height="30" fill="#f0f0d2" style="stroke:black; opacity:1;"></rect></g><g id="8" onmousedown="nodemousedown(8,evt);" onmouseover="nodemouseover(8,evt);" onmouseout="nodemouseout(8,evt);" transform="translate(0 225)"><rect x="-21" y="-21" width="42" height="42" fill="#0ff" style="stroke:none; opacity:0.75;" display="none"></rect><rect x="-15" y="-15" width="30" height="30" fill="#f0f0d2" style="stroke:black; opacity:1;"></rect></g><g id="9" onmousedown="nodemousedown(9,evt);" onmouseover="nodemouseover(9,evt);" onmouseout="nodemouseout(9,evt);" transform="translate(0 150)"><rect x="-21" y="-21" width="42" height="42" fill="#0ff" style="stroke:none; opacity:0.75;" display="none"></rect><rect x="-15" y="-15" width="30" height="30" fill="#f0f0d2" style="stroke:black; opacity:1;"></rect></g><g id="10" onmousedown="nodemousedown(10,evt);" onmouseover="nodemouseover(10,evt);" onmouseout="nodemouseout(10,evt);" transform="translate(75 150)"><rect x="-21" y="-21" width="42" height="42" fill="#0ff" style="stroke:none; opacity:0.75;" display="none"></rect><rect x="-15" y="-15" width="30" height="30" fill="#f0f0d2" style="stroke:black; opacity:1;"></rect></g><g id="11" onmousedown="nodemousedown(11,evt);" onmouseover="nodemouseover(11,evt);" onmouseout="nodemouseout(11,evt);" transform="translate(0 0)"><rect x="-21" y="-21" width="42" height="42" fill="#0ff" style="stroke:none; opacity:0.75;" display="none"></rect><rect x="-15" y="-15" width="30" height="30" fill="#f0f0d2" style="stroke:black; opacity:1;"></rect></g></g>
  <g id="BPs"></g>
  <g id="ports"></g>
</g>
</svg>
