<svg id="SVGCanvas" width="300px" height="169px" xmlns="http://www.w3.org/2000/svg" xmlns:xlink="http://www.w3.org/1999/xlink" onmouseup="null" onmousemove="null">
<rect id="background" x="0" y="0" height="100%" width="100%" fill="#bdbddf" onmousedown="bgmousedown(evt)"></rect>
<g id="foreground" transform="scale(0.625),translate(104.56451612903226,0),scale(0.8709677419354839),translate(26.5,30)">
  <g id="edges"><g id="7"><path style="stroke:#bdbddf; stroke-width:8px; fill:none;" opacity="0.7" d="M 103,134 V 62 a 12,12 0 0,0 -12,-12L 11.5,50"></path><g><path style="stroke:#ff0; stroke-width:8px; fill:none; " opacity="0" d="M 103,134 V 62 a 12,12 0 0,0 -12,-12L 11.5,50"></path></g><path style="stroke:black; fill:none;" d="M 103,134 V 62 a 12,12 0 0,0 -12,-12L 11.5,50"></path><g><g><path style="stroke:#0ff; stroke-width:8px; fill:none; " opacity="0" d="M 103,134 L 103,50" onmousedown="segmousedown(&quot;7&quot;,&quot;0&quot;,evt);" onmouseover="segmouseover(&quot;7&quot;,&quot;0&quot;,evt);" onmouseout="segmouseout(&quot;7&quot;,&quot;0&quot;,evt);" onclick="segclick(&quot;7&quot;,&quot;0&quot;,evt);"></path><path style="stroke:#0ff; stroke-width:8px; fill:none; " opacity="0" d="M 103,50 L 11.5,50" onmousedown="segmousedown(&quot;7&quot;,&quot;1&quot;,evt);" onmouseover="segmouseover(&quot;7&quot;,&quot;1&quot;,evt);" onmouseout="segmouseout(&quot;7&quot;,&quot;1&quot;,evt);" onclick="segclick(&quot;7&quot;,&quot;1&quot;,evt);"></path></g></g></g><g id="8"><path style="stroke:#bdbddf; stroke-width:8px; fill:none;" opacity="0.7" d="M 125,150L 125,0"></path><g><path style="stroke:#ff0; stroke-width:8px; fill:none; " opacity="0" d="M 125,150L 125,0"></path></g><path style="stroke:black; fill:none;" d="M 125,150L 125,0"></path><g><g><path style="stroke:#0ff; stroke-width:8px; fill:none; " opacity="0" d="M 125,150 L 125,0" onmousedown="segmousedown(&quot;8&quot;,&quot;0&quot;,evt);" onmouseover="segmouseover(&quot;8&quot;,&quot;0&quot;,evt);" onmouseout="segmouseout(&quot;8&quot;,&quot;0&quot;,evt);" onclick="segclick(&quot;8&quot;,&quot;0&quot;,evt);"></path></g></g></g><g id="9"><path style="stroke:#bdbddf; stroke-width:8px; fill:none;" opacity="0.7" d="M 225,150L 125,150"></path><g><path style="stroke:#ff0; stroke-width:8px; fill:none; " opacity="0" d="M 225,150L 125,150"></path></g><path style="stroke:black; fill:none;" d="M 225,150L 125,150"></path><g><g><path style="stroke:#0ff; stroke-width:8px; fill:none; " opacity="0" d="M 225,150 L 125,150" onmousedown="segmousedown(&quot;9&quot;,&quot;0&quot;,evt);" onmouseover="segmouseover(&quot;9&quot;,&quot;0&quot;,evt);" onmouseout="segmouseout(&quot;9&quot;,&quot;0&quot;,evt);" onclick="segclick(&quot;9&quot;,&quot;0&quot;,evt);"></path></g></g></g><g id="10"><path style="stroke:#bdbddf; stroke-width:8px; fill:none;" opacity="0.7" d="M 225,150L 225,250"></path><g><path style="stroke:#ff0; stroke-width:8px; fill:none; " opacity="0" d="M 225,150L 225,250"></path></g><path style="stroke:black; fill:none;" d="M 225,150L 225,250"></path><g><g><path style="stroke:#0ff; stroke-width:8px; fill:none; " opacity="0" d="M 225,150 L 225,250" onmousedown="segmousedown(&quot;10&quot;,&quot;0&quot;,evt);" onmouseover="segmouseover(&quot;10&quot;,&quot;0&quot;,evt);" onmouseout="segmouseout(&quot;10&quot;,&quot;0&quot;,evt);" onclick="segclick(&quot;10&quot;,&quot;0&quot;,evt);"></path></g></g></g><g id="11"><path style="stroke:#bdbddf; stroke-width:8px; fill:none;" opacity="0.7" d="M 125,150L 25,150"></path><g><path style="stroke:#ff0; stroke-width:8px; fill:none; " opacity="0" d="M 125,150L 25,150"></path></g><path style="stroke:black; fill:none;" d="M 125,150L 25,150"></path><g><g><path style="stroke:#0ff; stroke-width:8px; fill:none; " opacity="0" d="M 125,150 L 25,150" onmousedown="segmousedown(&quot;11&quot;,&quot;0&quot;,evt);" onmouseover="segmouseover(&quot;11&quot;,&quot;0&quot;,evt);" onmouseout="segmouseout(&quot;11&quot;,&quot;0&quot;,evt);" onclick="segclick(&quot;11&quot;,&quot;0&quot;,evt);"></path></g></g></g><g id="12"><path style="stroke:#bdbddf; stroke-width:8px; fill:none;" opacity="0.7" d="M 125,225L 125,150"></path><g><path style="stroke:#ff0; stroke-width:8px; fill:none; " opacity="0" d="M 125,225L 125,150"></path></g><path style="stroke:black; fill:none;" d="M 125,225L 125,150"></path><g><g><path style="stroke:#0ff; stroke-width:8px; fill:none; " opacity="0" d="M 125,225 L 125,150" onmousedown="segmousedown(&quot;12&quot;,&quot;0&quot;,evt);" onmouseover="segmouseover(&quot;12&quot;,&quot;0&quot;,evt);" onmouseout="segmouseout(&quot;12&quot;,&quot;0&quot;,evt);" onclick="segclick(&quot;12&quot;,&quot;0&quot;,evt);"></path></g></g></g></g>
  <g id="nodes"><g id="0" onmousedown="nodemousedown(0,evt);" onmouseover="nodemouseover(0,evt);" onmouseout="nodemouseout(0,evt);" transform="translate(25 150)"><rect x="-21" y="-21" width="42" height="42" fill="#0ff" style="stroke:none; opacity:0.75;" display="none"></rect><rect x="-15" y="-15" width="30" height="30" fill="#f0f0d2" style="stroke:black; opacity:1;"></rect></g><g id="1" onmousedown="nodemousedown(1,evt);" onmouseover="nodemouseover(1,evt);" onmouseout="nodemouseout(1,evt);" transform="translate(125 150)"><rect x="-47.5" y="-22" width="95" height="44" fill="#0ff" style="stroke:none; opacity:0.75;" display="none"></rect><rect x="-41.5" y="-16" width="83" height="32" fill="#f0f0d2" style="stroke:black; opacity:1;"></rect></g><g id="2" onmousedown="nodemousedown(2,evt);" onmouseover="nodemouseover(2,evt);" onmouseout="nodemouseout(2,evt);" transform="translate(0,50)"><rect x="-17.5" y="-52" width="35" height="104" fill="#0ff" style="stroke:none; opacity:0.75;" display="none"></rect><rect x="-11.5" y="-46" width="23" height="92" fill="#f0f0d2" style="stroke:black; opacity:1;"></rect></g><g id="3" onmousedown="nodemousedown(3,evt);" onmouseover="nodemouseover(3,evt);" onmouseout="nodemouseout(3,evt);" transform="translate(125 0)"><rect x="-21" y="-21" width="42" height="42" fill="#0ff" style="stroke:none; opacity:0.75;" display="none"></rect><rect x="-15" y="-15" width="30" height="30" fill="#f0f0d2" style="stroke:black; opacity:1;"></rect></g><g id="4" onmousedown="nodemousedown(4,evt);" onmouseover="nodemouseover(4,evt);" onmouseout="nodemouseout(4,evt);" transform="translate(125 225)"><rect x="-21" y="-21" width="42" height="42" fill="#0ff" style="stroke:none; opacity:0.75;" display="none"></rect><rect x="-15" y="-15" width="30" height="30" fill="#f0f0d2" style="stroke:black; opacity:1;"></rect></g><g id="5" onmousedown="nodemousedown(5,evt);" onmouseover="nodemouseover(5,evt);" onmouseout="nodemouseout(5,evt);" transform="translate(225 150)"><rect x="-29.5" y="-32.5" width="59" height="65" fill="#0ff" style="stroke:none; opacity:0.75;" display="none"></rect><rect x="-23.5" y="-26.5" width="47" height="53" fill="#f0f0d2" style="stroke:black; opacity:1;"></rect></g><g id="6" onmousedown="nodemousedown(6,evt);" onmouseover="nodemouseover(6,evt);" onmouseout="nodemouseout(6,evt);" transform="translate(225 250)"><rect x="-50.5" y="-21" width="101" height="42" fill="#0ff" style="stroke:none; opacity:0.75;" display="none"></rect><rect x="-44.5" y="-15" width="89" height="30" fill="#f0f0d2" style="stroke:black; opacity:1;"></rect></g></g>
  <g id="BPs"><g onmousedown="bpmousedown(15,evt);" onmouseover="bpmouseover(15,evt);" onmouseout="bpmouseout(15,evt);" transform="translate(103,50)" opacity="0"><ellipse cx="0" cy="0" rx="16" ry="16" fill="#0ff" style="stroke:none; opacity:0.75;" display="none"></ellipse><ellipse cx="0" cy="0" rx="3.6766638765488238" ry="3.6766638765488238" fill="#777" style="stroke:black;"></ellipse></g></g>
  <g id="ports"></g>
</g>
</svg>
